M48
;Layer_Color=9474304
;FILE_FORMAT=2:5
INCH,LZ
;TYPE=PLATED
T1F00S00C0.01181
T2F00S00C0.03543
T3F00S00C0.05906
%
T01
X0058189Y0015354
X0063189
X0068189
X0073189
X0078189
X0083189
X0078189Y0070866
X0073189
X0092913Y0081102
X0044534Y011217
X0044488Y0136221
T02
X0155512Y0050079
Y0060079
Y0070079
Y0080079
Y0090079
X0165512
Y0080079
Y0070079
Y0060079
Y0050079
X0026929Y004937
Y005937
X0016929
Y006937
Y007937
Y008937
Y009937
Y010937
X0026929
Y009937
Y008937
Y007937
Y006937
X0006929
Y007937
Y008937
Y009937
Y010937
Y005937
Y004937
X0016929
Y003937
X0026929
X0006929
Y011937
X0016929
Y012937
X0026929
Y011937
X0006929Y012937
X0159843Y0123622
X0169843
T03
X006063Y0123228
X013937
M30
