M48
;Layer_Color=9474304
;FILE_FORMAT=2:5
INCH,LZ
;TYPE=PLATED
T1F00S00C0.01201
T2F00S00C0.01378
T3F00S00C0.03543
T4F00S00C0.04000
T5F00S00C0.09449
%
T01
X0038742Y0174473
X0042717Y0177756
X0045472
X0044094Y0180709
X0045472Y0183661
X0042717
X0052362Y0184646
X0048584Y0174473
X0048191Y0197308
T02
X0025984Y005315
X003622
X0027461Y0072342
X0045276Y01
X0050197Y0109843
X0038976Y0200394
X0040551Y0202362
X0037402
X0027559Y021063
X005315
X0057087Y0234646
X005315Y024252
X0061024Y0250394
X0049213Y0258268
T03
X0025984Y0024409
X0035984
X0045984
X0055984
Y003622
X0045984
X0035984
X0025984
X0021654Y0296063
X0011654
T04
X007126Y0049843
Y0059842
Y0069842
Y0079843
Y0089842
Y0099843
Y0109843
Y0119843
Y0129842
Y0139842
Y0149843
Y0159843
X001126
Y0149843
Y0139842
Y0129842
Y0119843
Y0109843
Y0099843
Y0089842
Y0079843
Y0069842
Y0059842
Y0049843
X002276Y0084342
Y0094342
Y0125343
Y0135343
T05
X0041339Y0009646
Y0296654
M30
