G04 Layer_Color=14474460*
%FSLAX24Y24*%
%MOIN*%
G70*
G01*
G75*
%ADD22C,0.0118*%
%ADD24C,0.0098*%
%ADD33C,0.0080*%
%ADD34C,0.0060*%
G36*
X6171Y22545D02*
X6172Y22546D01*
X6176Y22549D01*
X6180Y22553D01*
X6187Y22558D01*
X6195Y22565D01*
X6205Y22572D01*
X6217Y22580D01*
X6229Y22587D01*
X6230D01*
X6231Y22588D01*
X6235Y22591D01*
X6242Y22595D01*
X6251Y22599D01*
X6261Y22604D01*
X6272Y22609D01*
X6283Y22614D01*
X6293Y22618D01*
Y22560D01*
X6293D01*
X6291Y22558D01*
X6288Y22557D01*
X6285Y22555D01*
X6280Y22553D01*
X6275Y22550D01*
X6263Y22543D01*
X6249Y22535D01*
X6234Y22525D01*
X6219Y22514D01*
X6204Y22501D01*
X6204Y22501D01*
X6203Y22500D01*
X6201Y22498D01*
X6198Y22496D01*
X6191Y22489D01*
X6183Y22480D01*
X6174Y22470D01*
X6165Y22458D01*
X6157Y22447D01*
X6150Y22435D01*
X6110D01*
Y22933D01*
X6171D01*
Y22545D01*
D02*
G37*
D22*
X2480Y4724D02*
X2717D01*
X4213Y20709D02*
Y21181D01*
Y21535D02*
Y21850D01*
X4229Y18865D02*
Y19337D01*
X4110Y16975D02*
Y17290D01*
X1929Y6929D02*
X2402D01*
X6098Y1941D02*
Y2941D01*
X2098Y1941D02*
X6098D01*
X2098Y2941D02*
X6098D01*
X2098Y1941D02*
Y2941D01*
X665Y29106D02*
Y30106D01*
X2665D01*
Y29106D02*
Y30106D01*
X665Y29106D02*
X2665D01*
X3392Y17989D02*
Y18166D01*
X2152Y17989D02*
Y18166D01*
X4035Y11530D02*
X4370D01*
X4035D02*
Y11805D01*
X4921Y11530D02*
X5256D01*
Y11805D01*
X4189Y19613D02*
Y19849D01*
X5095Y19416D02*
X5331D01*
X4606Y12598D02*
Y12835D01*
X3583Y11654D02*
X3819D01*
X3031D02*
X3268D01*
X6098Y3122D02*
Y4122D01*
X2098Y3122D02*
X6098D01*
X2098Y4122D02*
X6098D01*
X2098Y3122D02*
Y4122D01*
X3504Y4724D02*
X3740D01*
D24*
X5404Y12195D02*
G03*
X5404Y12195I-49J0D01*
G01*
X3967Y18737D02*
G03*
X3967Y18737I-50J0D01*
G01*
D33*
X7834Y22283D02*
Y28583D01*
X384D02*
X7834D01*
X384Y22283D02*
Y28583D01*
Y22283D02*
X7834D01*
D34*
X1457Y748D02*
Y1148D01*
X1723Y748D01*
Y1148D01*
X1857D02*
X2123D01*
Y1081D01*
X1857Y815D01*
Y748D01*
X2123D01*
X2256Y1081D02*
X2323Y1148D01*
X2456D01*
X2523Y1081D01*
Y1015D01*
X2456Y948D01*
X2390D01*
X2456D01*
X2523Y881D01*
Y815D01*
X2456Y748D01*
X2323D01*
X2256Y815D01*
X2087Y5472D02*
Y5872D01*
X2287D01*
X2353Y5806D01*
Y5672D01*
X2287Y5606D01*
X2087D01*
X2220D02*
X2353Y5472D01*
X2486D02*
X2620D01*
X2553D01*
Y5872D01*
X2486Y5806D01*
X3086Y5472D02*
X2820D01*
X3086Y5739D01*
Y5806D01*
X3020Y5872D01*
X2886D01*
X2820Y5806D01*
X5866Y29606D02*
Y30006D01*
X6133Y29606D01*
Y30006D01*
X6266D02*
X6533D01*
Y29940D01*
X6266Y29673D01*
Y29606D01*
X6533D01*
X6666D02*
X6799D01*
X6733D01*
Y30006D01*
X6666Y29940D01*
X512Y22053D02*
Y21720D01*
X578Y21654D01*
X712D01*
X778Y21720D01*
Y22053D01*
X912Y21987D02*
X978Y22053D01*
X1112D01*
X1178Y21987D01*
Y21920D01*
X1112Y21853D01*
X1045D01*
X1112D01*
X1178Y21787D01*
Y21720D01*
X1112Y21654D01*
X978D01*
X912Y21720D01*
X3180Y21081D02*
X3113Y21148D01*
X2980D01*
X2913Y21081D01*
Y20815D01*
X2980Y20748D01*
X3113D01*
X3180Y20815D01*
X3513Y20748D02*
Y21148D01*
X3313Y20948D01*
X3580D01*
X3180Y21829D02*
X3113Y21896D01*
X2980D01*
X2913Y21829D01*
Y21563D01*
X2980Y21496D01*
X3113D01*
X3180Y21563D01*
X3580Y21896D02*
X3313D01*
Y21696D01*
X3447Y21763D01*
X3513D01*
X3580Y21696D01*
Y21563D01*
X3513Y21496D01*
X3380D01*
X3313Y21563D01*
X7244Y17211D02*
Y16878D01*
X7311Y16811D01*
X7444D01*
X7511Y16878D01*
Y17211D01*
X7644Y16811D02*
X7777D01*
X7711D01*
Y17211D01*
X7644Y17144D01*
X3275Y19395D02*
X3208Y19461D01*
X3075D01*
X3008Y19395D01*
Y19128D01*
X3075Y19061D01*
X3208D01*
X3275Y19128D01*
X3408Y19061D02*
X3541D01*
X3475D01*
Y19461D01*
X3408Y19395D01*
X4968Y17111D02*
X4901Y17178D01*
X4768D01*
X4701Y17111D01*
Y16845D01*
X4768Y16778D01*
X4901D01*
X4968Y16845D01*
X5367Y16778D02*
X5101D01*
X5367Y17045D01*
Y17111D01*
X5301Y17178D01*
X5167D01*
X5101Y17111D01*
X2659Y6526D02*
X2592Y6460D01*
Y6326D01*
X2659Y6260D01*
X2925D01*
X2992Y6326D01*
Y6460D01*
X2925Y6526D01*
X2659Y6660D02*
X2592Y6726D01*
Y6860D01*
X2659Y6926D01*
X2726D01*
X2792Y6860D01*
Y6793D01*
Y6860D01*
X2859Y6926D01*
X2925D01*
X2992Y6860D01*
Y6726D01*
X2925Y6660D01*
X621Y2577D02*
X554Y2644D01*
X421D01*
X354Y2577D01*
Y2311D01*
X421Y2244D01*
X554D01*
X621Y2311D01*
X954Y2644D02*
X821D01*
X754Y2577D01*
Y2311D01*
X821Y2244D01*
X954D01*
X1021Y2311D01*
Y2577D01*
X954Y2644D01*
X1154Y2244D02*
Y2644D01*
X1421Y2244D01*
Y2644D01*
X1554Y2577D02*
X1621Y2644D01*
X1754D01*
X1821Y2577D01*
Y2511D01*
X1754Y2444D01*
X1687D01*
X1754D01*
X1821Y2377D01*
Y2311D01*
X1754Y2244D01*
X1621D01*
X1554Y2311D01*
X1133Y28955D02*
X1066Y29022D01*
X933D01*
X866Y28955D01*
Y28689D01*
X933Y28622D01*
X1066D01*
X1133Y28689D01*
X1466Y29022D02*
X1333D01*
X1266Y28955D01*
Y28689D01*
X1333Y28622D01*
X1466D01*
X1533Y28689D01*
Y28955D01*
X1466Y29022D01*
X1666Y28622D02*
Y29022D01*
X1932Y28622D01*
Y29022D01*
X2332D02*
X2066D01*
Y28822D01*
X2199Y28889D01*
X2266D01*
X2332Y28822D01*
Y28689D01*
X2266Y28622D01*
X2132D01*
X2066Y28689D01*
X1490Y17874D02*
X1890D01*
Y18141D01*
Y18274D02*
Y18407D01*
Y18341D01*
X1490D01*
X1557Y18274D01*
X5739Y11641D02*
Y11908D01*
X5672Y11975D01*
X5539D01*
X5472Y11908D01*
Y11641D01*
X5539Y11575D01*
X5672D01*
X5606Y11708D02*
X5739Y11575D01*
X5672D02*
X5739Y11641D01*
X5872Y11575D02*
X6006D01*
X5939D01*
Y11975D01*
X5872Y11908D01*
X3008Y19613D02*
Y20013D01*
X3208D01*
X3275Y19946D01*
Y19813D01*
X3208Y19746D01*
X3008D01*
X3141D02*
X3275Y19613D01*
X3408D02*
X3541D01*
X3475D01*
Y20013D01*
X3408Y19946D01*
X5984Y19094D02*
X5584D01*
Y19294D01*
X5651Y19361D01*
X5784D01*
X5851Y19294D01*
Y19094D01*
Y19228D02*
X5984Y19361D01*
Y19761D02*
Y19494D01*
X5718Y19761D01*
X5651D01*
X5584Y19694D01*
Y19561D01*
X5651Y19494D01*
X5394Y12520D02*
Y12920D01*
X5594D01*
X5660Y12853D01*
Y12720D01*
X5594Y12653D01*
X5394D01*
X5527D02*
X5660Y12520D01*
X5794Y12853D02*
X5860Y12920D01*
X5994D01*
X6060Y12853D01*
Y12786D01*
X5994Y12720D01*
X5927D01*
X5994D01*
X6060Y12653D01*
Y12586D01*
X5994Y12520D01*
X5860D01*
X5794Y12586D01*
X3937Y12244D02*
X3537D01*
Y12444D01*
X3604Y12511D01*
X3737D01*
X3804Y12444D01*
Y12244D01*
Y12377D02*
X3937Y12511D01*
Y12844D02*
X3537D01*
X3737Y12644D01*
Y12911D01*
X3346Y12244D02*
X2947D01*
Y12444D01*
X3013Y12511D01*
X3147D01*
X3213Y12444D01*
Y12244D01*
Y12377D02*
X3346Y12511D01*
X2947Y12911D02*
Y12644D01*
X3147D01*
X3080Y12777D01*
Y12844D01*
X3147Y12911D01*
X3280D01*
X3346Y12844D01*
Y12711D01*
X3280Y12644D01*
X5269Y17677D02*
X5603D01*
X5669Y17744D01*
Y17877D01*
X5603Y17944D01*
X5269D01*
X5669Y18344D02*
Y18077D01*
X5403Y18344D01*
X5336D01*
X5269Y18277D01*
Y18144D01*
X5336Y18077D01*
X660Y3798D02*
X594Y3864D01*
X460D01*
X394Y3798D01*
Y3531D01*
X460Y3465D01*
X594D01*
X660Y3531D01*
X993Y3864D02*
X860D01*
X794Y3798D01*
Y3531D01*
X860Y3465D01*
X993D01*
X1060Y3531D01*
Y3798D01*
X993Y3864D01*
X1193Y3465D02*
Y3864D01*
X1460Y3465D01*
Y3864D01*
X1860D02*
X1727Y3798D01*
X1593Y3665D01*
Y3531D01*
X1660Y3465D01*
X1793D01*
X1860Y3531D01*
Y3598D01*
X1793Y3665D01*
X1593D01*
X3459Y5466D02*
Y5866D01*
X3659D01*
X3726Y5800D01*
Y5666D01*
X3659Y5600D01*
X3459D01*
X3592D02*
X3726Y5466D01*
X3859D02*
X3992D01*
X3925D01*
Y5866D01*
X3859Y5800D01*
X4192D02*
X4259Y5866D01*
X4392D01*
X4459Y5800D01*
Y5733D01*
X4392Y5666D01*
X4325D01*
X4392D01*
X4459Y5600D01*
Y5533D01*
X4392Y5466D01*
X4259D01*
X4192Y5533D01*
M02*
