M48
;Layer_Color=9474304
;FILE_FORMAT=2:5
INCH,LZ
;TYPE=PLATED
T1F00S00C0.01181
T2F00S00C0.03543
%
T01
X0013342Y0271654
X0013272Y027559
X0013202Y0279528
X0013132Y0283465
X0013062Y0287402
X0012992Y0291339
Y0295276
Y0299213
Y030315
Y0307087
X0016929Y0309842
X0022047Y0309055
X0025197Y0308661
X0027953Y0311024
X0029134Y0315748
Y0322047
X0035433Y0315354
X0033465Y0309055
X0030315Y0306299
X0027559Y0303543
X0023622Y0301181
X0020472Y0299213
X0020542Y0295276
X0020612Y0291339
X0020682Y0287402
X0020752Y0283465
X0020822Y0279528
X0020866Y0276378
X0021647Y0273656
X0025591Y0273622
X0029528
X0033465
X0037402
X0040157Y0276378
X0040507Y0279528
X0040437Y0283465
X0040367Y0287402
X0040297Y0291339
X0040227Y0295276
X0040157Y0299213
Y030315
Y0307087
X0048031
Y030315
Y0299213
Y0295276
Y0291339
X0048101Y0287402
X0048171Y0283465
X0048241Y0279528
X0048311Y027559
X0048381Y0271654
X0072397
X0072327Y027559
X0072257Y0279528
X0072187Y0283465
X0072117Y0287402
X0072047Y0291339
Y0295276
Y0299213
Y030315
Y0307087
X0075984Y0309842
X0081102Y0309055
X0084252Y0308661
X0087008Y0311024
X0088189Y0315748
Y0322047
X0094488Y0315354
X009252Y0309055
X008937Y0306299
X0086614Y0303543
X0082677Y0301181
X0079528Y0299213
X0079598Y0295276
X0079667Y0291339
X0079737Y0287402
X0079807Y0283465
X0079877Y0279528
X0079921Y0276378
X0080703Y0273656
X0084646Y0273622
X0088583
X009252
X0083961Y0267174
X0082606Y0265819
X0081251Y0264464
X0075787Y0302362
X006811Y032126
X0053543Y0315354
X0044094Y0315748
X0009055Y032126
X0016732Y0302362
X0023551Y0265819
X0024906Y0267174
X0022196Y0264464
X0096457Y0273622
X0099213Y0276378
X0099562Y0279528
X0099492Y0283465
X0099422Y0287402
X0099352Y0291339
X0099282Y0295276
X0099213Y0299213
Y030315
Y0307087
X0107087
Y030315
Y0299213
Y0295276
Y0291339
X0107157Y0287402
X0107226Y0283465
X0107296Y0279528
X0107366Y027559
X0107436Y0271654
X0131452
X0131382Y027559
X0131312Y0279528
X0131242Y0283465
X0131172Y0287402
X0131102Y0291339
Y0295276
Y0299213
Y030315
Y0307087
X0135039Y0309842
X0140157Y0309055
X0143307Y0308661
X0146063Y0311024
X0147244Y0315748
Y0322047
X0153543Y0315354
X0151575Y0309055
X0148425Y0306299
X0145669Y0303543
X0141732Y0301181
X0138583Y0299213
X0138653Y0295276
X0138723Y0291339
X0138792Y0287402
X0138862Y0283465
X0138932Y0279528
X0138976Y0276378
X0139758Y0273656
X0143701Y0273622
X0147638
X0151575
X0155512
X0158268Y0276378
X0158617Y0279528
X0158547Y0283465
X0158477Y0287402
X0158407Y0291339
X0158338Y0295276
X0158268Y0299213
Y030315
Y0307087
X0166142
Y030315
Y0299213
Y0295276
Y0291339
X0166212Y0287402
X0166282Y0283465
X0166351Y0279528
X0166421Y027559
X0166491Y0271654
X0190507
X0190437Y027559
X0190367Y0279528
X0190297Y0283465
X0190227Y0287402
X0190157Y0291339
Y0295276
Y0299213
Y030315
Y0307087
X0194095Y0309842
X0199213Y0309055
X0202362Y0308661
X0205118Y0311024
X0206299Y0315748
Y0322047
X0212598Y0315354
X021063Y0309055
X020748Y0306299
X0204724Y0303543
X0200787Y0301181
X0197638Y0299213
X0197708Y0295276
X0197778Y0291339
X0197847Y0287402
X0197917Y0283465
X0197987Y0279528
X0198031Y0276378
X0198813Y0273656
X0202756Y0273622
X0206693
X021063
X0214567
X0217323Y0276378
X0217672Y0279528
X0217602Y0283465
X0217533Y0287402
X0217463Y0291339
X0217393Y0295276
X0217323Y0299213
Y030315
Y0307087
X0225197
Y030315
Y0299213
Y0295276
Y0291339
X0225267Y0287402
X0225337Y0283465
X0225407Y0279528
X0225477Y027559
X0225546Y0271654
X0249562
X0249492Y027559
X0249422Y0279528
X0249352Y0283465
X0249283Y0287402
X0249213Y0291339
Y0295276
Y0299213
Y030315
Y0307087
X0245276Y032126
X0230709Y0315354
X022126Y0315748
X0186221Y032126
X0171653Y0315354
X0162205Y0315748
X0127165Y032126
X0112598Y0315354
X010315Y0315748
X0134843Y0302362
X0141662Y0265819
X0143017Y0267174
X0140306Y0264464
X0199362
X0200717Y0265819
X0202072Y0267174
X0193898Y0302362
X0252953
X0256693Y0299213
X0256763Y0295276
X0256833Y0291339
X0256903Y0287402
X0256973Y0283465
X0257043Y0279528
X0257087Y0276378
X0257868Y0273656
X0261811Y0273622
X0265748
X0269685
X0273622
X0276378Y0276378
X0276728Y0279528
X0276658Y0283465
X0276588Y0287402
X0276518Y0291339
X0276448Y0295276
X0276378Y0299213
Y030315
Y0307087
X0284252
Y030315
Y0299213
Y0295276
Y0291339
X0284322Y0287402
X0284392Y0283465
X0284462Y0279528
X0284532Y027559
X0284601Y0271654
X0308617
X0308547Y027559
X0308477Y0279528
X0308407Y0283465
X0308338Y0287402
X0308268Y0291339
Y0295276
Y0299213
Y030315
Y0307087
X0312205Y0309842
X0317323Y0309055
X0320472Y0308661
X0323228Y0311024
X032441Y0315748
Y0322047
X0330709Y0315354
X032874Y0309055
X0325591Y0306299
X0322835Y0303543
X0318898Y0301181
X0315748Y0299213
X0315818Y0295276
X0315888Y0291339
X0315958Y0287402
X0316028Y0283465
X0316098Y0279528
X0316142Y0276378
X0316923Y0273656
X0320866Y0273622
X0324803
X032874
X0332677
X0335433Y0276378
X0335783Y0279528
X0335713Y0283465
X0335643Y0287402
X0335573Y0291339
X0335503Y0295276
X0335433Y0299213
Y030315
Y0307087
X0343307
Y030315
Y0299213
Y0295276
Y0291339
X0343377Y0287402
X0343447Y0283465
X0343517Y0279528
X0343587Y027559
X0343657Y0271654
X0320182Y0267174
X0318827Y0265819
X0317472Y0264464
X0312008Y0302362
X0304331Y032126
X0289764Y0315354
X0280315Y0315748
X0271654Y0315354
X0265354Y0315748
X0264173Y0311024
X0261417Y0308661
X0258268Y0309055
X025315Y0309842
X0259842Y0301181
X0263779Y0303543
X0266535Y0306299
X0269685Y0309055
X0265354Y0322047
X0261127Y0267174
X0259772Y0265819
X0258417Y0264464
X033937Y0315748
X0348819Y0315354
X0345276Y032753
X0333858
X0323228Y0331102
X0322835Y0346457
X0335039Y0345669
X0341732Y0337008
X035Y0338189
Y0350787
X0344882Y0352362
X0349213Y0370472
X0337402Y0372047
X0326772Y0366929
X0319291Y0372441
X0309449Y0372835
X0300787Y0372047
X0290158Y0370472
X0278346Y0372047
X0267717Y0366929
X0260236Y0372441
X0263779Y0346457
X0275984Y0345669
X0282677Y0337008
X0290945Y0338189
Y0350787
X0285827Y0352362
X0300787Y0356299
Y034252
X0308268Y035
X030315Y0327953
X0286221Y032753
X0274803
X0264173Y0331102
X0289764Y0388583
X0301181Y0387008
X0348819Y0388583
X0242126Y0387008
X0230709Y0388583
X0231102Y0370472
X0241732Y0372047
X0250394Y0372835
X0249213Y035
X0241732Y0356299
Y034252
X023189Y0338189
X0223622Y0337008
X0227165Y032753
X0215748
X0205118Y0331102
X0204724Y0346457
X0216929Y0345669
X0226772Y0352362
X023189Y0350787
X0219291Y0372047
X0208661Y0366929
X0201181Y0372441
X0191339Y0372835
X0182677Y0372047
X0172047Y0370472
X0160236Y0372047
X0149606Y0366929
X0142126Y0372441
X0132283Y0372835
X0123622Y0372047
X0112992Y0370472
X0101181Y0372047
X0108661Y0352362
X0113779Y0350787
Y0338189
X0105512Y0337008
X0109055Y032753
X0097638
X0098819Y0345669
X0123622Y034252
Y0356299
X0131102Y035
X0145669Y0346457
X0157874Y0345669
X0164567Y0337008
X0172835Y0338189
Y0350787
X0167717Y0352362
X0182677Y0356299
Y034252
X0190157Y035
X0185039Y0327953
X016811Y032753
X0156693
X0146063Y0331102
X0125984Y0327953
X0124016Y0387008
X0112598Y0388583
X0171653
X0183071Y0387008
X0244094Y0327953
X0087008Y0331102
X0086614Y0346457
X0072047Y035
X0064567Y0356299
Y034252
X0054724Y0338189
X0046457Y0337008
X005Y032753
X0038583
X0027953Y0331102
X0027559Y0346457
X0039764Y0345669
X0049606Y0352362
X0054724Y0350787
X0053937Y0370472
X0064567Y0372047
X0073228Y0372835
X0083071Y0372441
X0090551Y0366929
X0064961Y0387008
X0053543Y0388583
X0042126Y0372047
X0031496Y0366929
X0024016Y0372441
X0014173Y0372835
X0005512Y0372047
X0005906Y0387008
X0005512Y0356299
Y034252
X0012992Y035
X0007874Y0327953
X0066929
T02
X0255748Y0378189
X0265748
X0275748
Y0388189
X0265748
X0255748
X0314803
X0324803
X0334803
Y0378189
X0324803
X0314803
X0216693
Y0388189
X0206693
Y0378189
X0196693
Y0388189
X0157638
Y0378189
X0147638
Y0388189
X0137638
Y0378189
X0098583
Y0388189
X0088583
Y0378189
X0078583
Y0388189
X0039528
Y0378189
X0029528
Y0388189
X0019528
Y0378189
M30
