G04*
G04 #@! TF.GenerationSoftware,Altium Limited,Altium Designer,18.1.6 (161)*
G04*
G04 Layer_Color=65535*
%FSLAX24Y24*%
%MOIN*%
G70*
G01*
G75*
%ADD18C,0.0079*%
%ADD24C,0.0098*%
%ADD25C,0.0100*%
%ADD26C,0.0039*%
%ADD27C,0.0060*%
%ADD28C,0.0060*%
D18*
X5020Y30492D02*
Y30793D01*
X4764Y30492D02*
X5020D01*
X3799D02*
Y30793D01*
Y30492D02*
X4055D01*
X1201Y31211D02*
Y32490D01*
Y31211D02*
X2815D01*
X1201Y32490D02*
X2815D01*
Y31211D02*
Y32490D01*
X4469Y34488D02*
Y35118D01*
X1043Y34488D02*
Y35118D01*
X4469D01*
X1043Y34488D02*
X4469D01*
X3898Y31772D02*
Y32087D01*
X394Y34843D02*
X709D01*
X2520Y32598D02*
Y32913D01*
X4961Y31772D02*
Y32087D01*
Y32795D02*
Y33031D01*
X2402Y36693D02*
Y36929D01*
X4961Y32323D02*
Y32559D01*
X1969Y30394D02*
Y30630D01*
X3898Y32795D02*
Y33031D01*
X1496Y32598D02*
Y32913D01*
X4803Y35768D02*
X5118D01*
X1453Y37319D02*
X4453D01*
X1453Y39319D02*
X4453D01*
X1453Y37319D02*
Y39319D01*
X4453Y37319D02*
Y39319D01*
X3898Y32323D02*
Y32559D01*
X4843Y34735D02*
X5079D01*
X10925Y30492D02*
Y30793D01*
X10669Y30492D02*
X10925D01*
X9705D02*
Y30793D01*
Y30492D02*
X9961D01*
X7106Y31211D02*
Y32490D01*
Y31211D02*
X8720D01*
X7106Y32490D02*
X8720D01*
Y31211D02*
Y32490D01*
X10374Y34488D02*
Y35118D01*
X6949Y34488D02*
Y35118D01*
X10374D01*
X6949Y34488D02*
X10374D01*
X9803Y31772D02*
Y32087D01*
X6299Y34843D02*
X6614D01*
X8425Y32598D02*
Y32913D01*
X10866Y31772D02*
Y32087D01*
Y32795D02*
Y33031D01*
X8307Y36693D02*
Y36929D01*
X10866Y32323D02*
Y32559D01*
X7874Y30394D02*
Y30630D01*
X9803Y32795D02*
Y33031D01*
X7402Y32598D02*
Y32913D01*
X10709Y35768D02*
X11024D01*
X7358Y37319D02*
X10358D01*
X7358Y39319D02*
X10358D01*
X7358Y37319D02*
Y39319D01*
X10358Y37319D02*
Y39319D01*
X9803Y32323D02*
Y32559D01*
X10748Y34735D02*
X10984D01*
X16831Y30492D02*
Y30793D01*
X16575Y30492D02*
X16831D01*
X15610D02*
Y30793D01*
Y30492D02*
X15866D01*
X13012Y31211D02*
Y32490D01*
Y31211D02*
X14626D01*
X13012Y32490D02*
X14626D01*
Y31211D02*
Y32490D01*
X16280Y34488D02*
Y35118D01*
X12854Y34488D02*
Y35118D01*
X16280D01*
X12854Y34488D02*
X16280D01*
X15709Y31772D02*
Y32087D01*
X12205Y34843D02*
X12520D01*
X14331Y32598D02*
Y32913D01*
X16772Y31772D02*
Y32087D01*
Y32795D02*
Y33031D01*
X14213Y36693D02*
Y36929D01*
X16772Y32323D02*
Y32559D01*
X13780Y30394D02*
Y30630D01*
X15709Y32795D02*
Y33031D01*
X13307Y32598D02*
Y32913D01*
X16614Y35768D02*
X16929D01*
X13264Y37319D02*
X16264D01*
X13264Y39319D02*
X16264D01*
X13264Y37319D02*
Y39319D01*
X16264Y37319D02*
Y39319D01*
X15709Y32323D02*
Y32559D01*
X16654Y34735D02*
X16890D01*
X22736Y30492D02*
Y30793D01*
X22480Y30492D02*
X22736D01*
X21516D02*
Y30793D01*
Y30492D02*
X21772D01*
X18917Y31211D02*
Y32490D01*
Y31211D02*
X20531D01*
X18917Y32490D02*
X20531D01*
Y31211D02*
Y32490D01*
X22185Y34488D02*
Y35118D01*
X18760Y34488D02*
Y35118D01*
X22185D01*
X18760Y34488D02*
X22185D01*
X21614Y31772D02*
Y32087D01*
X18110Y34843D02*
X18425D01*
X20236Y32598D02*
Y32913D01*
X22677Y31772D02*
Y32087D01*
Y32795D02*
Y33031D01*
X20118Y36693D02*
Y36929D01*
X22677Y32323D02*
Y32559D01*
X19685Y30394D02*
Y30630D01*
X21614Y32795D02*
Y33031D01*
X19213Y32598D02*
Y32913D01*
X22520Y35768D02*
X22835D01*
X19169Y37319D02*
X22169D01*
X19169Y39319D02*
X22169D01*
X19169Y37319D02*
Y39319D01*
X22169Y37319D02*
Y39319D01*
X21614Y32323D02*
Y32559D01*
X22559Y34735D02*
X22795D01*
X28642Y30492D02*
Y30793D01*
X28386Y30492D02*
X28642D01*
X27421D02*
Y30793D01*
Y30492D02*
X27677D01*
X24823Y31211D02*
Y32490D01*
Y31211D02*
X26437D01*
X24823Y32490D02*
X26437D01*
Y31211D02*
Y32490D01*
X28091Y34488D02*
Y35118D01*
X24665Y34488D02*
Y35118D01*
X28091D01*
X24665Y34488D02*
X28091D01*
X27520Y31772D02*
Y32087D01*
X24016Y34843D02*
X24331D01*
X26142Y32598D02*
Y32913D01*
X28583Y31772D02*
Y32087D01*
Y32795D02*
Y33031D01*
X26024Y36693D02*
Y36929D01*
X28583Y32323D02*
Y32559D01*
X25591Y30394D02*
Y30630D01*
X27520Y32795D02*
Y33031D01*
X25118Y32598D02*
Y32913D01*
X28425Y35768D02*
X28740D01*
X25075Y37319D02*
X28075D01*
X25075Y39319D02*
X28075D01*
X25075Y37319D02*
Y39319D01*
X28075Y37319D02*
Y39319D01*
X27520Y32323D02*
Y32559D01*
X28465Y34735D02*
X28701D01*
X34547Y30492D02*
Y30793D01*
X34291Y30492D02*
X34547D01*
X33327D02*
Y30793D01*
Y30492D02*
X33583D01*
X30728Y31211D02*
Y32490D01*
Y31211D02*
X32343D01*
X30728Y32490D02*
X32343D01*
Y31211D02*
Y32490D01*
X33996Y34488D02*
Y35118D01*
X30571Y34488D02*
Y35118D01*
X33996D01*
X30571Y34488D02*
X33996D01*
X33425Y31772D02*
Y32087D01*
X29921Y34843D02*
X30236D01*
X32047Y32598D02*
Y32913D01*
X34488Y31772D02*
Y32087D01*
Y32795D02*
Y33031D01*
X31929Y36693D02*
Y36929D01*
X34488Y32323D02*
Y32559D01*
X31496Y30394D02*
Y30630D01*
X33425Y32795D02*
Y33031D01*
X31024Y32598D02*
Y32913D01*
X34331Y35768D02*
X34646D01*
X30980Y37319D02*
X33980D01*
X30980Y39319D02*
X33980D01*
X30980Y37319D02*
Y39319D01*
X33980Y37319D02*
Y39319D01*
X33425Y32323D02*
Y32559D01*
X34370Y34735D02*
X34606D01*
D24*
X5246Y31220D02*
G03*
X5246Y31220I-49J0D01*
G01*
X951Y33839D02*
G03*
X951Y33839I-49J0D01*
G01*
X11152Y31220D02*
G03*
X11152Y31220I-49J0D01*
G01*
X6856Y33839D02*
G03*
X6856Y33839I-49J0D01*
G01*
X17057Y31220D02*
G03*
X17057Y31220I-49J0D01*
G01*
X12762Y33839D02*
G03*
X12762Y33839I-49J0D01*
G01*
X22963Y31220D02*
G03*
X22963Y31220I-49J0D01*
G01*
X18667Y33839D02*
G03*
X18667Y33839I-49J0D01*
G01*
X28868Y31220D02*
G03*
X28868Y31220I-49J0D01*
G01*
X24573Y33839D02*
G03*
X24573Y33839I-49J0D01*
G01*
X34774Y31220D02*
G03*
X34774Y31220I-49J0D01*
G01*
X30478Y33839D02*
G03*
X30478Y33839I-49J0D01*
G01*
D25*
X2667Y32628D02*
G03*
X2667Y32628I-22J0D01*
G01*
X8573D02*
G03*
X8573Y32628I-22J0D01*
G01*
X14478D02*
G03*
X14478Y32628I-22J0D01*
G01*
X20384D02*
G03*
X20384Y32628I-22J0D01*
G01*
X26289D02*
G03*
X26289Y32628I-22J0D01*
G01*
X32195D02*
G03*
X32195Y32628I-22J0D01*
G01*
D26*
X1781Y36535D02*
G03*
X1781Y36535I-20J0D01*
G01*
X7687D02*
G03*
X7687Y36535I-20J0D01*
G01*
X13593D02*
G03*
X13593Y36535I-20J0D01*
G01*
X19498D02*
G03*
X19498Y36535I-20J0D01*
G01*
X25404D02*
G03*
X25404Y36535I-20J0D01*
G01*
X31309D02*
G03*
X31309Y36535I-20J0D01*
G01*
D27*
X4853Y37919D02*
X4653D01*
Y37769D01*
X4753Y37819D01*
X4803D01*
X4853Y37769D01*
Y37669D01*
X4803Y37619D01*
X4703D01*
X4653Y37669D01*
X4853Y38919D02*
X4753Y38869D01*
X4653Y38769D01*
Y38669D01*
X4703Y38619D01*
X4803D01*
X4853Y38669D01*
Y38719D01*
X4803Y38769D01*
X4653D01*
X1220Y37619D02*
X1320D01*
X1270D01*
Y37919D01*
X1220Y37869D01*
X10758Y37919D02*
X10558D01*
Y37769D01*
X10658Y37819D01*
X10708D01*
X10758Y37769D01*
Y37669D01*
X10708Y37619D01*
X10608D01*
X10558Y37669D01*
X10758Y38919D02*
X10658Y38869D01*
X10558Y38769D01*
Y38669D01*
X10608Y38619D01*
X10708D01*
X10758Y38669D01*
Y38719D01*
X10708Y38769D01*
X10558D01*
X7126Y37619D02*
X7226D01*
X7176D01*
Y37919D01*
X7126Y37869D01*
X16664Y37919D02*
X16464D01*
Y37769D01*
X16564Y37819D01*
X16614D01*
X16664Y37769D01*
Y37669D01*
X16614Y37619D01*
X16514D01*
X16464Y37669D01*
X16664Y38919D02*
X16564Y38869D01*
X16464Y38769D01*
Y38669D01*
X16514Y38619D01*
X16614D01*
X16664Y38669D01*
Y38719D01*
X16614Y38769D01*
X16464D01*
X13032Y37619D02*
X13131D01*
X13081D01*
Y37919D01*
X13032Y37869D01*
X22569Y37919D02*
X22369D01*
Y37769D01*
X22469Y37819D01*
X22519D01*
X22569Y37769D01*
Y37669D01*
X22519Y37619D01*
X22419D01*
X22369Y37669D01*
X22569Y38919D02*
X22469Y38869D01*
X22369Y38769D01*
Y38669D01*
X22419Y38619D01*
X22519D01*
X22569Y38669D01*
Y38719D01*
X22519Y38769D01*
X22369D01*
X18937Y37619D02*
X19037D01*
X18987D01*
Y37919D01*
X18937Y37869D01*
X28475Y37919D02*
X28275D01*
Y37769D01*
X28375Y37819D01*
X28425D01*
X28475Y37769D01*
Y37669D01*
X28425Y37619D01*
X28325D01*
X28275Y37669D01*
X28475Y38919D02*
X28375Y38869D01*
X28275Y38769D01*
Y38669D01*
X28325Y38619D01*
X28425D01*
X28475Y38669D01*
Y38719D01*
X28425Y38769D01*
X28275D01*
X24843Y37619D02*
X24942D01*
X24892D01*
Y37919D01*
X24843Y37869D01*
X34380Y37919D02*
X34180D01*
Y37769D01*
X34280Y37819D01*
X34330D01*
X34380Y37769D01*
Y37669D01*
X34330Y37619D01*
X34230D01*
X34180Y37669D01*
X34380Y38919D02*
X34280Y38869D01*
X34180Y38769D01*
Y38669D01*
X34230Y38619D01*
X34330D01*
X34380Y38669D01*
Y38719D01*
X34330Y38769D01*
X34180D01*
X30748Y37619D02*
X30848D01*
X30798D01*
Y37919D01*
X30748Y37869D01*
D28*
X630Y31402D02*
Y31352D01*
X730Y31252D01*
X830Y31352D01*
Y31402D01*
X730Y31252D02*
Y31102D01*
X930D02*
X1030D01*
X980D01*
Y31402D01*
X930Y31352D01*
X3150Y30694D02*
Y30394D01*
X3300D01*
X3350Y30444D01*
Y30644D01*
X3300Y30694D01*
X3150D01*
X3649Y30394D02*
X3450D01*
X3649Y30594D01*
Y30644D01*
X3599Y30694D01*
X3499D01*
X3450Y30644D01*
X315Y36953D02*
Y36654D01*
X465D01*
X515Y36704D01*
Y36903D01*
X465Y36953D01*
X315D01*
X615Y36654D02*
X715D01*
X665D01*
Y36953D01*
X615Y36903D01*
X5537Y31893D02*
X5487Y31843D01*
Y31743D01*
X5537Y31693D01*
X5737D01*
X5787Y31743D01*
Y31843D01*
X5737Y31893D01*
X5787Y31993D02*
Y32093D01*
Y32043D01*
X5487D01*
X5537Y31993D01*
X498Y33743D02*
X448Y33693D01*
Y33593D01*
X498Y33543D01*
X698D01*
X748Y33593D01*
Y33693D01*
X698Y33743D01*
X748Y34043D02*
Y33843D01*
X548Y34043D01*
X498D01*
X448Y33993D01*
Y33893D01*
X498Y33843D01*
X5157Y33228D02*
Y33528D01*
X5307D01*
X5357Y33478D01*
Y33378D01*
X5307Y33328D01*
X5157D01*
X5257D02*
X5357Y33228D01*
X5457D02*
X5557D01*
X5507D01*
Y33528D01*
X5457Y33478D01*
X2992Y36693D02*
Y36993D01*
X3142D01*
X3192Y36943D01*
Y36843D01*
X3142Y36793D01*
X2992D01*
X3092D02*
X3192Y36693D01*
X3492D02*
X3292D01*
X3492Y36893D01*
Y36943D01*
X3442Y36993D01*
X3342D01*
X3292Y36943D01*
X5787Y32323D02*
X5487D01*
Y32473D01*
X5537Y32523D01*
X5637D01*
X5687Y32473D01*
Y32323D01*
Y32423D02*
X5787Y32523D01*
X5537Y32623D02*
X5487Y32673D01*
Y32773D01*
X5537Y32823D01*
X5587D01*
X5637Y32773D01*
Y32723D01*
Y32773D01*
X5687Y32823D01*
X5737D01*
X5787Y32773D01*
Y32673D01*
X5737Y32623D01*
X709Y30394D02*
Y30694D01*
X859D01*
X909Y30644D01*
Y30544D01*
X859Y30494D01*
X709D01*
X809D02*
X909Y30394D01*
X1159D02*
Y30694D01*
X1009Y30544D01*
X1208D01*
X3386Y32753D02*
X3086D01*
Y32903D01*
X3136Y32953D01*
X3236D01*
X3286Y32903D01*
Y32753D01*
Y32853D02*
X3386Y32953D01*
X3086Y33253D02*
Y33053D01*
X3236D01*
X3186Y33153D01*
Y33203D01*
X3236Y33253D01*
X3336D01*
X3386Y33203D01*
Y33103D01*
X3336Y33053D01*
X751Y33281D02*
X701Y33331D01*
X601D01*
X551Y33281D01*
Y33081D01*
X601Y33031D01*
X701D01*
X751Y33081D01*
X1051Y33331D02*
X851D01*
Y33181D01*
X951Y33231D01*
X1001D01*
X1051Y33181D01*
Y33081D01*
X1001Y33031D01*
X901D01*
X851Y33081D01*
X2247Y33242D02*
X2197Y33292D01*
X2097D01*
X2047Y33242D01*
Y33042D01*
X2097Y32992D01*
X2197D01*
X2247Y33042D01*
X2497Y32992D02*
Y33292D01*
X2347Y33142D01*
X2547D01*
X3097Y31657D02*
X3047Y31607D01*
Y31507D01*
X3097Y31457D01*
X3296D01*
X3346Y31507D01*
Y31607D01*
X3296Y31657D01*
X3047Y31957D02*
X3097Y31857D01*
X3197Y31757D01*
X3296D01*
X3346Y31807D01*
Y31907D01*
X3296Y31957D01*
X3246D01*
X3197Y31907D01*
Y31757D01*
X5630Y34449D02*
X5330D01*
Y34599D01*
X5380Y34649D01*
X5480D01*
X5530Y34599D01*
Y34449D01*
Y34549D02*
X5630Y34649D01*
X5330Y34949D02*
X5380Y34849D01*
X5480Y34749D01*
X5580D01*
X5630Y34799D01*
Y34899D01*
X5580Y34949D01*
X5530D01*
X5480Y34899D01*
Y34749D01*
X3386Y32126D02*
X3086D01*
Y32276D01*
X3136Y32326D01*
X3236D01*
X3286Y32276D01*
Y32126D01*
Y32226D02*
X3386Y32326D01*
X3086Y32426D02*
Y32626D01*
X3136D01*
X3336Y32426D01*
X3386D01*
X5380Y35672D02*
X5330Y35622D01*
Y35522D01*
X5380Y35472D01*
X5580D01*
X5630Y35522D01*
Y35622D01*
X5580Y35672D01*
X5380Y35772D02*
X5330Y35822D01*
Y35922D01*
X5380Y35972D01*
X5430D01*
X5480Y35922D01*
Y35872D01*
Y35922D01*
X5530Y35972D01*
X5580D01*
X5630Y35922D01*
Y35822D01*
X5580Y35772D01*
X892Y38389D02*
X842Y38339D01*
Y38239D01*
X892Y38189D01*
X1092D01*
X1142Y38239D01*
Y38339D01*
X1092Y38389D01*
X842Y38639D02*
Y38539D01*
X892Y38489D01*
X1092D01*
X1142Y38539D01*
Y38639D01*
X1092Y38689D01*
X892D01*
X842Y38639D01*
X1142Y38789D02*
X842D01*
X1142Y38989D01*
X842D01*
X1142Y39089D02*
Y39189D01*
Y39139D01*
X842D01*
X892Y39089D01*
X606Y35551D02*
X856D01*
X906Y35601D01*
Y35701D01*
X856Y35751D01*
X606D01*
X906Y35851D02*
Y35951D01*
Y35901D01*
X606D01*
X656Y35851D01*
X6535Y31402D02*
Y31352D01*
X6635Y31252D01*
X6735Y31352D01*
Y31402D01*
X6635Y31252D02*
Y31102D01*
X6835D02*
X6935D01*
X6885D01*
Y31402D01*
X6835Y31352D01*
X9055Y30694D02*
Y30394D01*
X9205D01*
X9255Y30444D01*
Y30644D01*
X9205Y30694D01*
X9055D01*
X9555Y30394D02*
X9355D01*
X9555Y30594D01*
Y30644D01*
X9505Y30694D01*
X9405D01*
X9355Y30644D01*
X6220Y36953D02*
Y36654D01*
X6370D01*
X6420Y36704D01*
Y36903D01*
X6370Y36953D01*
X6220D01*
X6520Y36654D02*
X6620D01*
X6570D01*
Y36953D01*
X6520Y36903D01*
X11443Y31893D02*
X11393Y31843D01*
Y31743D01*
X11443Y31693D01*
X11643D01*
X11693Y31743D01*
Y31843D01*
X11643Y31893D01*
X11693Y31993D02*
Y32093D01*
Y32043D01*
X11393D01*
X11443Y31993D01*
X6404Y33743D02*
X6354Y33693D01*
Y33593D01*
X6404Y33543D01*
X6604D01*
X6654Y33593D01*
Y33693D01*
X6604Y33743D01*
X6654Y34043D02*
Y33843D01*
X6454Y34043D01*
X6404D01*
X6354Y33993D01*
Y33893D01*
X6404Y33843D01*
X11063Y33228D02*
Y33528D01*
X11213D01*
X11263Y33478D01*
Y33378D01*
X11213Y33328D01*
X11063D01*
X11163D02*
X11263Y33228D01*
X11363D02*
X11463D01*
X11413D01*
Y33528D01*
X11363Y33478D01*
X8898Y36693D02*
Y36993D01*
X9048D01*
X9098Y36943D01*
Y36843D01*
X9048Y36793D01*
X8898D01*
X8998D02*
X9098Y36693D01*
X9397D02*
X9198D01*
X9397Y36893D01*
Y36943D01*
X9347Y36993D01*
X9248D01*
X9198Y36943D01*
X11693Y32323D02*
X11393D01*
Y32473D01*
X11443Y32523D01*
X11543D01*
X11593Y32473D01*
Y32323D01*
Y32423D02*
X11693Y32523D01*
X11443Y32623D02*
X11393Y32673D01*
Y32773D01*
X11443Y32823D01*
X11493D01*
X11543Y32773D01*
Y32723D01*
Y32773D01*
X11593Y32823D01*
X11643D01*
X11693Y32773D01*
Y32673D01*
X11643Y32623D01*
X6614Y30394D02*
Y30694D01*
X6764D01*
X6814Y30644D01*
Y30544D01*
X6764Y30494D01*
X6614D01*
X6714D02*
X6814Y30394D01*
X7064D02*
Y30694D01*
X6914Y30544D01*
X7114D01*
X9291Y32753D02*
X8991D01*
Y32903D01*
X9041Y32953D01*
X9141D01*
X9191Y32903D01*
Y32753D01*
Y32853D02*
X9291Y32953D01*
X8991Y33253D02*
Y33053D01*
X9141D01*
X9091Y33153D01*
Y33203D01*
X9141Y33253D01*
X9241D01*
X9291Y33203D01*
Y33103D01*
X9241Y33053D01*
X6657Y33281D02*
X6607Y33331D01*
X6507D01*
X6457Y33281D01*
Y33081D01*
X6507Y33031D01*
X6607D01*
X6657Y33081D01*
X6957Y33331D02*
X6757D01*
Y33181D01*
X6857Y33231D01*
X6907D01*
X6957Y33181D01*
Y33081D01*
X6907Y33031D01*
X6807D01*
X6757Y33081D01*
X8153Y33242D02*
X8103Y33292D01*
X8003D01*
X7953Y33242D01*
Y33042D01*
X8003Y32992D01*
X8103D01*
X8153Y33042D01*
X8403Y32992D02*
Y33292D01*
X8253Y33142D01*
X8453D01*
X9002Y31657D02*
X8952Y31607D01*
Y31507D01*
X9002Y31457D01*
X9202D01*
X9252Y31507D01*
Y31607D01*
X9202Y31657D01*
X8952Y31957D02*
X9002Y31857D01*
X9102Y31757D01*
X9202D01*
X9252Y31807D01*
Y31907D01*
X9202Y31957D01*
X9152D01*
X9102Y31907D01*
Y31757D01*
X11535Y34449D02*
X11236D01*
Y34599D01*
X11286Y34649D01*
X11385D01*
X11435Y34599D01*
Y34449D01*
Y34549D02*
X11535Y34649D01*
X11236Y34949D02*
X11286Y34849D01*
X11385Y34749D01*
X11485D01*
X11535Y34799D01*
Y34899D01*
X11485Y34949D01*
X11435D01*
X11385Y34899D01*
Y34749D01*
X9291Y32126D02*
X8991D01*
Y32276D01*
X9041Y32326D01*
X9141D01*
X9191Y32276D01*
Y32126D01*
Y32226D02*
X9291Y32326D01*
X8991Y32426D02*
Y32626D01*
X9041D01*
X9241Y32426D01*
X9291D01*
X11286Y35672D02*
X11236Y35622D01*
Y35522D01*
X11286Y35472D01*
X11485D01*
X11535Y35522D01*
Y35622D01*
X11485Y35672D01*
X11286Y35772D02*
X11236Y35822D01*
Y35922D01*
X11286Y35972D01*
X11336D01*
X11385Y35922D01*
Y35872D01*
Y35922D01*
X11435Y35972D01*
X11485D01*
X11535Y35922D01*
Y35822D01*
X11485Y35772D01*
X6797Y38389D02*
X6747Y38339D01*
Y38239D01*
X6797Y38189D01*
X6997D01*
X7047Y38239D01*
Y38339D01*
X6997Y38389D01*
X6747Y38639D02*
Y38539D01*
X6797Y38489D01*
X6997D01*
X7047Y38539D01*
Y38639D01*
X6997Y38689D01*
X6797D01*
X6747Y38639D01*
X7047Y38789D02*
X6747D01*
X7047Y38989D01*
X6747D01*
X7047Y39089D02*
Y39189D01*
Y39139D01*
X6747D01*
X6797Y39089D01*
X6511Y35551D02*
X6761D01*
X6811Y35601D01*
Y35701D01*
X6761Y35751D01*
X6511D01*
X6811Y35851D02*
Y35951D01*
Y35901D01*
X6511D01*
X6561Y35851D01*
X12441Y31402D02*
Y31352D01*
X12541Y31252D01*
X12641Y31352D01*
Y31402D01*
X12541Y31252D02*
Y31102D01*
X12741D02*
X12841D01*
X12791D01*
Y31402D01*
X12741Y31352D01*
X14961Y30694D02*
Y30394D01*
X15111D01*
X15161Y30444D01*
Y30644D01*
X15111Y30694D01*
X14961D01*
X15460Y30394D02*
X15261D01*
X15460Y30594D01*
Y30644D01*
X15410Y30694D01*
X15311D01*
X15261Y30644D01*
X12126Y36953D02*
Y36654D01*
X12276D01*
X12326Y36704D01*
Y36903D01*
X12276Y36953D01*
X12126D01*
X12426Y36654D02*
X12526D01*
X12476D01*
Y36953D01*
X12426Y36903D01*
X17349Y31893D02*
X17299Y31843D01*
Y31743D01*
X17349Y31693D01*
X17548D01*
X17598Y31743D01*
Y31843D01*
X17548Y31893D01*
X17598Y31993D02*
Y32093D01*
Y32043D01*
X17299D01*
X17349Y31993D01*
X12309Y33743D02*
X12259Y33693D01*
Y33593D01*
X12309Y33543D01*
X12509D01*
X12559Y33593D01*
Y33693D01*
X12509Y33743D01*
X12559Y34043D02*
Y33843D01*
X12359Y34043D01*
X12309D01*
X12259Y33993D01*
Y33893D01*
X12309Y33843D01*
X16968Y33228D02*
Y33528D01*
X17118D01*
X17168Y33478D01*
Y33378D01*
X17118Y33328D01*
X16968D01*
X17068D02*
X17168Y33228D01*
X17268D02*
X17368D01*
X17318D01*
Y33528D01*
X17268Y33478D01*
X14803Y36693D02*
Y36993D01*
X14953D01*
X15003Y36943D01*
Y36843D01*
X14953Y36793D01*
X14803D01*
X14903D02*
X15003Y36693D01*
X15303D02*
X15103D01*
X15303Y36893D01*
Y36943D01*
X15253Y36993D01*
X15153D01*
X15103Y36943D01*
X17598Y32323D02*
X17299D01*
Y32473D01*
X17349Y32523D01*
X17448D01*
X17498Y32473D01*
Y32323D01*
Y32423D02*
X17598Y32523D01*
X17349Y32623D02*
X17299Y32673D01*
Y32773D01*
X17349Y32823D01*
X17398D01*
X17448Y32773D01*
Y32723D01*
Y32773D01*
X17498Y32823D01*
X17548D01*
X17598Y32773D01*
Y32673D01*
X17548Y32623D01*
X12520Y30394D02*
Y30694D01*
X12670D01*
X12720Y30644D01*
Y30544D01*
X12670Y30494D01*
X12520D01*
X12620D02*
X12720Y30394D01*
X12970D02*
Y30694D01*
X12820Y30544D01*
X13020D01*
X15197Y32753D02*
X14897D01*
Y32903D01*
X14947Y32953D01*
X15047D01*
X15097Y32903D01*
Y32753D01*
Y32853D02*
X15197Y32953D01*
X14897Y33253D02*
Y33053D01*
X15047D01*
X14997Y33153D01*
Y33203D01*
X15047Y33253D01*
X15147D01*
X15197Y33203D01*
Y33103D01*
X15147Y33053D01*
X12562Y33281D02*
X12512Y33331D01*
X12412D01*
X12362Y33281D01*
Y33081D01*
X12412Y33031D01*
X12512D01*
X12562Y33081D01*
X12862Y33331D02*
X12662D01*
Y33181D01*
X12762Y33231D01*
X12812D01*
X12862Y33181D01*
Y33081D01*
X12812Y33031D01*
X12712D01*
X12662Y33081D01*
X14058Y33242D02*
X14008Y33292D01*
X13908D01*
X13858Y33242D01*
Y33042D01*
X13908Y32992D01*
X14008D01*
X14058Y33042D01*
X14308Y32992D02*
Y33292D01*
X14158Y33142D01*
X14358D01*
X14908Y31657D02*
X14858Y31607D01*
Y31507D01*
X14908Y31457D01*
X15108D01*
X15157Y31507D01*
Y31607D01*
X15108Y31657D01*
X14858Y31957D02*
X14908Y31857D01*
X15008Y31757D01*
X15108D01*
X15157Y31807D01*
Y31907D01*
X15108Y31957D01*
X15058D01*
X15008Y31907D01*
Y31757D01*
X17441Y34449D02*
X17141D01*
Y34599D01*
X17191Y34649D01*
X17291D01*
X17341Y34599D01*
Y34449D01*
Y34549D02*
X17441Y34649D01*
X17141Y34949D02*
X17191Y34849D01*
X17291Y34749D01*
X17391D01*
X17441Y34799D01*
Y34899D01*
X17391Y34949D01*
X17341D01*
X17291Y34899D01*
Y34749D01*
X15197Y32126D02*
X14897D01*
Y32276D01*
X14947Y32326D01*
X15047D01*
X15097Y32276D01*
Y32126D01*
Y32226D02*
X15197Y32326D01*
X14897Y32426D02*
Y32626D01*
X14947D01*
X15147Y32426D01*
X15197D01*
X17191Y35672D02*
X17141Y35622D01*
Y35522D01*
X17191Y35472D01*
X17391D01*
X17441Y35522D01*
Y35622D01*
X17391Y35672D01*
X17191Y35772D02*
X17141Y35822D01*
Y35922D01*
X17191Y35972D01*
X17241D01*
X17291Y35922D01*
Y35872D01*
Y35922D01*
X17341Y35972D01*
X17391D01*
X17441Y35922D01*
Y35822D01*
X17391Y35772D01*
X12703Y38389D02*
X12653Y38339D01*
Y38239D01*
X12703Y38189D01*
X12903D01*
X12953Y38239D01*
Y38339D01*
X12903Y38389D01*
X12653Y38639D02*
Y38539D01*
X12703Y38489D01*
X12903D01*
X12953Y38539D01*
Y38639D01*
X12903Y38689D01*
X12703D01*
X12653Y38639D01*
X12953Y38789D02*
X12653D01*
X12953Y38989D01*
X12653D01*
X12953Y39089D02*
Y39189D01*
Y39139D01*
X12653D01*
X12703Y39089D01*
X12417Y35551D02*
X12667D01*
X12717Y35601D01*
Y35701D01*
X12667Y35751D01*
X12417D01*
X12717Y35851D02*
Y35951D01*
Y35901D01*
X12417D01*
X12467Y35851D01*
X18346Y31402D02*
Y31352D01*
X18446Y31252D01*
X18546Y31352D01*
Y31402D01*
X18446Y31252D02*
Y31102D01*
X18646D02*
X18746D01*
X18696D01*
Y31402D01*
X18646Y31352D01*
X20866Y30694D02*
Y30394D01*
X21016D01*
X21066Y30444D01*
Y30644D01*
X21016Y30694D01*
X20866D01*
X21366Y30394D02*
X21166D01*
X21366Y30594D01*
Y30644D01*
X21316Y30694D01*
X21216D01*
X21166Y30644D01*
X18032Y36953D02*
Y36654D01*
X18181D01*
X18231Y36704D01*
Y36903D01*
X18181Y36953D01*
X18032D01*
X18331Y36654D02*
X18431D01*
X18381D01*
Y36953D01*
X18331Y36903D01*
X23254Y31893D02*
X23204Y31843D01*
Y31743D01*
X23254Y31693D01*
X23454D01*
X23504Y31743D01*
Y31843D01*
X23454Y31893D01*
X23504Y31993D02*
Y32093D01*
Y32043D01*
X23204D01*
X23254Y31993D01*
X18215Y33743D02*
X18165Y33693D01*
Y33593D01*
X18215Y33543D01*
X18415D01*
X18465Y33593D01*
Y33693D01*
X18415Y33743D01*
X18465Y34043D02*
Y33843D01*
X18265Y34043D01*
X18215D01*
X18165Y33993D01*
Y33893D01*
X18215Y33843D01*
X22874Y33228D02*
Y33528D01*
X23024D01*
X23074Y33478D01*
Y33378D01*
X23024Y33328D01*
X22874D01*
X22974D02*
X23074Y33228D01*
X23174D02*
X23274D01*
X23224D01*
Y33528D01*
X23174Y33478D01*
X20709Y36693D02*
Y36993D01*
X20859D01*
X20909Y36943D01*
Y36843D01*
X20859Y36793D01*
X20709D01*
X20809D02*
X20909Y36693D01*
X21209D02*
X21009D01*
X21209Y36893D01*
Y36943D01*
X21159Y36993D01*
X21059D01*
X21009Y36943D01*
X23504Y32323D02*
X23204D01*
Y32473D01*
X23254Y32523D01*
X23354D01*
X23404Y32473D01*
Y32323D01*
Y32423D02*
X23504Y32523D01*
X23254Y32623D02*
X23204Y32673D01*
Y32773D01*
X23254Y32823D01*
X23304D01*
X23354Y32773D01*
Y32723D01*
Y32773D01*
X23404Y32823D01*
X23454D01*
X23504Y32773D01*
Y32673D01*
X23454Y32623D01*
X18425Y30394D02*
Y30694D01*
X18575D01*
X18625Y30644D01*
Y30544D01*
X18575Y30494D01*
X18425D01*
X18525D02*
X18625Y30394D01*
X18875D02*
Y30694D01*
X18725Y30544D01*
X18925D01*
X21102Y32753D02*
X20802D01*
Y32903D01*
X20852Y32953D01*
X20952D01*
X21002Y32903D01*
Y32753D01*
Y32853D02*
X21102Y32953D01*
X20802Y33253D02*
Y33053D01*
X20952D01*
X20902Y33153D01*
Y33203D01*
X20952Y33253D01*
X21052D01*
X21102Y33203D01*
Y33103D01*
X21052Y33053D01*
X18468Y33281D02*
X18418Y33331D01*
X18318D01*
X18268Y33281D01*
Y33081D01*
X18318Y33031D01*
X18418D01*
X18468Y33081D01*
X18768Y33331D02*
X18568D01*
Y33181D01*
X18668Y33231D01*
X18718D01*
X18768Y33181D01*
Y33081D01*
X18718Y33031D01*
X18618D01*
X18568Y33081D01*
X19964Y33242D02*
X19914Y33292D01*
X19814D01*
X19764Y33242D01*
Y33042D01*
X19814Y32992D01*
X19914D01*
X19964Y33042D01*
X20214Y32992D02*
Y33292D01*
X20064Y33142D01*
X20264D01*
X20813Y31657D02*
X20763Y31607D01*
Y31507D01*
X20813Y31457D01*
X21013D01*
X21063Y31507D01*
Y31607D01*
X21013Y31657D01*
X20763Y31957D02*
X20813Y31857D01*
X20913Y31757D01*
X21013D01*
X21063Y31807D01*
Y31907D01*
X21013Y31957D01*
X20963D01*
X20913Y31907D01*
Y31757D01*
X23346Y34449D02*
X23047D01*
Y34599D01*
X23097Y34649D01*
X23197D01*
X23246Y34599D01*
Y34449D01*
Y34549D02*
X23346Y34649D01*
X23047Y34949D02*
X23097Y34849D01*
X23197Y34749D01*
X23296D01*
X23346Y34799D01*
Y34899D01*
X23296Y34949D01*
X23246D01*
X23197Y34899D01*
Y34749D01*
X21102Y32126D02*
X20802D01*
Y32276D01*
X20852Y32326D01*
X20952D01*
X21002Y32276D01*
Y32126D01*
Y32226D02*
X21102Y32326D01*
X20802Y32426D02*
Y32626D01*
X20852D01*
X21052Y32426D01*
X21102D01*
X23097Y35672D02*
X23047Y35622D01*
Y35522D01*
X23097Y35472D01*
X23296D01*
X23346Y35522D01*
Y35622D01*
X23296Y35672D01*
X23097Y35772D02*
X23047Y35822D01*
Y35922D01*
X23097Y35972D01*
X23147D01*
X23197Y35922D01*
Y35872D01*
Y35922D01*
X23246Y35972D01*
X23296D01*
X23346Y35922D01*
Y35822D01*
X23296Y35772D01*
X18608Y38389D02*
X18558Y38339D01*
Y38239D01*
X18608Y38189D01*
X18808D01*
X18858Y38239D01*
Y38339D01*
X18808Y38389D01*
X18558Y38639D02*
Y38539D01*
X18608Y38489D01*
X18808D01*
X18858Y38539D01*
Y38639D01*
X18808Y38689D01*
X18608D01*
X18558Y38639D01*
X18858Y38789D02*
X18558D01*
X18858Y38989D01*
X18558D01*
X18858Y39089D02*
Y39189D01*
Y39139D01*
X18558D01*
X18608Y39089D01*
X18322Y35551D02*
X18572D01*
X18622Y35601D01*
Y35701D01*
X18572Y35751D01*
X18322D01*
X18622Y35851D02*
Y35951D01*
Y35901D01*
X18322D01*
X18372Y35851D01*
X24252Y31402D02*
Y31352D01*
X24352Y31252D01*
X24452Y31352D01*
Y31402D01*
X24352Y31252D02*
Y31102D01*
X24552D02*
X24652D01*
X24602D01*
Y31402D01*
X24552Y31352D01*
X26772Y30694D02*
Y30394D01*
X26922D01*
X26972Y30444D01*
Y30644D01*
X26922Y30694D01*
X26772D01*
X27271Y30394D02*
X27072D01*
X27271Y30594D01*
Y30644D01*
X27222Y30694D01*
X27122D01*
X27072Y30644D01*
X23937Y36953D02*
Y36654D01*
X24087D01*
X24137Y36704D01*
Y36903D01*
X24087Y36953D01*
X23937D01*
X24237Y36654D02*
X24337D01*
X24287D01*
Y36953D01*
X24237Y36903D01*
X29160Y31893D02*
X29110Y31843D01*
Y31743D01*
X29160Y31693D01*
X29359D01*
X29409Y31743D01*
Y31843D01*
X29359Y31893D01*
X29409Y31993D02*
Y32093D01*
Y32043D01*
X29110D01*
X29160Y31993D01*
X24120Y33743D02*
X24070Y33693D01*
Y33593D01*
X24120Y33543D01*
X24320D01*
X24370Y33593D01*
Y33693D01*
X24320Y33743D01*
X24370Y34043D02*
Y33843D01*
X24170Y34043D01*
X24120D01*
X24070Y33993D01*
Y33893D01*
X24120Y33843D01*
X28780Y33228D02*
Y33528D01*
X28929D01*
X28979Y33478D01*
Y33378D01*
X28929Y33328D01*
X28780D01*
X28879D02*
X28979Y33228D01*
X29079D02*
X29179D01*
X29129D01*
Y33528D01*
X29079Y33478D01*
X26614Y36693D02*
Y36993D01*
X26764D01*
X26814Y36943D01*
Y36843D01*
X26764Y36793D01*
X26614D01*
X26714D02*
X26814Y36693D01*
X27114D02*
X26914D01*
X27114Y36893D01*
Y36943D01*
X27064Y36993D01*
X26964D01*
X26914Y36943D01*
X29409Y32323D02*
X29110D01*
Y32473D01*
X29160Y32523D01*
X29260D01*
X29309Y32473D01*
Y32323D01*
Y32423D02*
X29409Y32523D01*
X29160Y32623D02*
X29110Y32673D01*
Y32773D01*
X29160Y32823D01*
X29210D01*
X29260Y32773D01*
Y32723D01*
Y32773D01*
X29309Y32823D01*
X29359D01*
X29409Y32773D01*
Y32673D01*
X29359Y32623D01*
X24331Y30394D02*
Y30694D01*
X24481D01*
X24531Y30644D01*
Y30544D01*
X24481Y30494D01*
X24331D01*
X24431D02*
X24531Y30394D01*
X24781D02*
Y30694D01*
X24631Y30544D01*
X24831D01*
X27008Y32753D02*
X26708D01*
Y32903D01*
X26758Y32953D01*
X26858D01*
X26908Y32903D01*
Y32753D01*
Y32853D02*
X27008Y32953D01*
X26708Y33253D02*
Y33053D01*
X26858D01*
X26808Y33153D01*
Y33203D01*
X26858Y33253D01*
X26958D01*
X27008Y33203D01*
Y33103D01*
X26958Y33053D01*
X24373Y33281D02*
X24323Y33331D01*
X24223D01*
X24173Y33281D01*
Y33081D01*
X24223Y33031D01*
X24323D01*
X24373Y33081D01*
X24673Y33331D02*
X24473D01*
Y33181D01*
X24573Y33231D01*
X24623D01*
X24673Y33181D01*
Y33081D01*
X24623Y33031D01*
X24523D01*
X24473Y33081D01*
X25869Y33242D02*
X25819Y33292D01*
X25719D01*
X25669Y33242D01*
Y33042D01*
X25719Y32992D01*
X25819D01*
X25869Y33042D01*
X26119Y32992D02*
Y33292D01*
X25969Y33142D01*
X26169D01*
X26719Y31657D02*
X26669Y31607D01*
Y31507D01*
X26719Y31457D01*
X26919D01*
X26969Y31507D01*
Y31607D01*
X26919Y31657D01*
X26669Y31957D02*
X26719Y31857D01*
X26819Y31757D01*
X26919D01*
X26969Y31807D01*
Y31907D01*
X26919Y31957D01*
X26869D01*
X26819Y31907D01*
Y31757D01*
X29252Y34449D02*
X28952D01*
Y34599D01*
X29002Y34649D01*
X29102D01*
X29152Y34599D01*
Y34449D01*
Y34549D02*
X29252Y34649D01*
X28952Y34949D02*
X29002Y34849D01*
X29102Y34749D01*
X29202D01*
X29252Y34799D01*
Y34899D01*
X29202Y34949D01*
X29152D01*
X29102Y34899D01*
Y34749D01*
X27008Y32126D02*
X26708D01*
Y32276D01*
X26758Y32326D01*
X26858D01*
X26908Y32276D01*
Y32126D01*
Y32226D02*
X27008Y32326D01*
X26708Y32426D02*
Y32626D01*
X26758D01*
X26958Y32426D01*
X27008D01*
X29002Y35672D02*
X28952Y35622D01*
Y35522D01*
X29002Y35472D01*
X29202D01*
X29252Y35522D01*
Y35622D01*
X29202Y35672D01*
X29002Y35772D02*
X28952Y35822D01*
Y35922D01*
X29002Y35972D01*
X29052D01*
X29102Y35922D01*
Y35872D01*
Y35922D01*
X29152Y35972D01*
X29202D01*
X29252Y35922D01*
Y35822D01*
X29202Y35772D01*
X24514Y38389D02*
X24464Y38339D01*
Y38239D01*
X24514Y38189D01*
X24714D01*
X24764Y38239D01*
Y38339D01*
X24714Y38389D01*
X24464Y38639D02*
Y38539D01*
X24514Y38489D01*
X24714D01*
X24764Y38539D01*
Y38639D01*
X24714Y38689D01*
X24514D01*
X24464Y38639D01*
X24764Y38789D02*
X24464D01*
X24764Y38989D01*
X24464D01*
X24764Y39089D02*
Y39189D01*
Y39139D01*
X24464D01*
X24514Y39089D01*
X24228Y35551D02*
X24478D01*
X24528Y35601D01*
Y35701D01*
X24478Y35751D01*
X24228D01*
X24528Y35851D02*
Y35951D01*
Y35901D01*
X24228D01*
X24278Y35851D01*
X30157Y31402D02*
Y31352D01*
X30257Y31252D01*
X30357Y31352D01*
Y31402D01*
X30257Y31252D02*
Y31102D01*
X30457D02*
X30557D01*
X30507D01*
Y31402D01*
X30457Y31352D01*
X32677Y30694D02*
Y30394D01*
X32827D01*
X32877Y30444D01*
Y30644D01*
X32827Y30694D01*
X32677D01*
X33177Y30394D02*
X32977D01*
X33177Y30594D01*
Y30644D01*
X33127Y30694D01*
X33027D01*
X32977Y30644D01*
X29843Y36953D02*
Y36654D01*
X29992D01*
X30042Y36704D01*
Y36903D01*
X29992Y36953D01*
X29843D01*
X30142Y36654D02*
X30242D01*
X30192D01*
Y36953D01*
X30142Y36903D01*
X35065Y31893D02*
X35015Y31843D01*
Y31743D01*
X35065Y31693D01*
X35265D01*
X35315Y31743D01*
Y31843D01*
X35265Y31893D01*
X35315Y31993D02*
Y32093D01*
Y32043D01*
X35015D01*
X35065Y31993D01*
X30026Y33743D02*
X29976Y33693D01*
Y33593D01*
X30026Y33543D01*
X30226D01*
X30276Y33593D01*
Y33693D01*
X30226Y33743D01*
X30276Y34043D02*
Y33843D01*
X30076Y34043D01*
X30026D01*
X29976Y33993D01*
Y33893D01*
X30026Y33843D01*
X34685Y33228D02*
Y33528D01*
X34835D01*
X34885Y33478D01*
Y33378D01*
X34835Y33328D01*
X34685D01*
X34785D02*
X34885Y33228D01*
X34985D02*
X35085D01*
X35035D01*
Y33528D01*
X34985Y33478D01*
X32520Y36693D02*
Y36993D01*
X32670D01*
X32720Y36943D01*
Y36843D01*
X32670Y36793D01*
X32520D01*
X32620D02*
X32720Y36693D01*
X33020D02*
X32820D01*
X33020Y36893D01*
Y36943D01*
X32970Y36993D01*
X32870D01*
X32820Y36943D01*
X35315Y32323D02*
X35015D01*
Y32473D01*
X35065Y32523D01*
X35165D01*
X35215Y32473D01*
Y32323D01*
Y32423D02*
X35315Y32523D01*
X35065Y32623D02*
X35015Y32673D01*
Y32773D01*
X35065Y32823D01*
X35115D01*
X35165Y32773D01*
Y32723D01*
Y32773D01*
X35215Y32823D01*
X35265D01*
X35315Y32773D01*
Y32673D01*
X35265Y32623D01*
X30236Y30394D02*
Y30694D01*
X30386D01*
X30436Y30644D01*
Y30544D01*
X30386Y30494D01*
X30236D01*
X30336D02*
X30436Y30394D01*
X30686D02*
Y30694D01*
X30536Y30544D01*
X30736D01*
X32913Y32753D02*
X32613D01*
Y32903D01*
X32663Y32953D01*
X32763D01*
X32813Y32903D01*
Y32753D01*
Y32853D02*
X32913Y32953D01*
X32613Y33253D02*
Y33053D01*
X32763D01*
X32713Y33153D01*
Y33203D01*
X32763Y33253D01*
X32863D01*
X32913Y33203D01*
Y33103D01*
X32863Y33053D01*
X30279Y33281D02*
X30229Y33331D01*
X30129D01*
X30079Y33281D01*
Y33081D01*
X30129Y33031D01*
X30229D01*
X30279Y33081D01*
X30579Y33331D02*
X30379D01*
Y33181D01*
X30479Y33231D01*
X30529D01*
X30579Y33181D01*
Y33081D01*
X30529Y33031D01*
X30429D01*
X30379Y33081D01*
X31775Y33242D02*
X31725Y33292D01*
X31625D01*
X31575Y33242D01*
Y33042D01*
X31625Y32992D01*
X31725D01*
X31775Y33042D01*
X32025Y32992D02*
Y33292D01*
X31875Y33142D01*
X32075D01*
X32624Y31657D02*
X32574Y31607D01*
Y31507D01*
X32624Y31457D01*
X32824D01*
X32874Y31507D01*
Y31607D01*
X32824Y31657D01*
X32574Y31957D02*
X32624Y31857D01*
X32724Y31757D01*
X32824D01*
X32874Y31807D01*
Y31907D01*
X32824Y31957D01*
X32774D01*
X32724Y31907D01*
Y31757D01*
X35157Y34449D02*
X34858D01*
Y34599D01*
X34908Y34649D01*
X35008D01*
X35058Y34599D01*
Y34449D01*
Y34549D02*
X35157Y34649D01*
X34858Y34949D02*
X34908Y34849D01*
X35008Y34749D01*
X35108D01*
X35157Y34799D01*
Y34899D01*
X35108Y34949D01*
X35058D01*
X35008Y34899D01*
Y34749D01*
X32913Y32126D02*
X32613D01*
Y32276D01*
X32663Y32326D01*
X32763D01*
X32813Y32276D01*
Y32126D01*
Y32226D02*
X32913Y32326D01*
X32613Y32426D02*
Y32626D01*
X32663D01*
X32863Y32426D01*
X32913D01*
X34908Y35672D02*
X34858Y35622D01*
Y35522D01*
X34908Y35472D01*
X35108D01*
X35157Y35522D01*
Y35622D01*
X35108Y35672D01*
X34908Y35772D02*
X34858Y35822D01*
Y35922D01*
X34908Y35972D01*
X34958D01*
X35008Y35922D01*
Y35872D01*
Y35922D01*
X35058Y35972D01*
X35108D01*
X35157Y35922D01*
Y35822D01*
X35108Y35772D01*
X30419Y38389D02*
X30369Y38339D01*
Y38239D01*
X30419Y38189D01*
X30619D01*
X30669Y38239D01*
Y38339D01*
X30619Y38389D01*
X30369Y38639D02*
Y38539D01*
X30419Y38489D01*
X30619D01*
X30669Y38539D01*
Y38639D01*
X30619Y38689D01*
X30419D01*
X30369Y38639D01*
X30669Y38789D02*
X30369D01*
X30669Y38989D01*
X30369D01*
X30669Y39089D02*
Y39189D01*
Y39139D01*
X30369D01*
X30419Y39089D01*
X30133Y35551D02*
X30383D01*
X30433Y35601D01*
Y35701D01*
X30383Y35751D01*
X30133D01*
X30433Y35851D02*
Y35951D01*
Y35901D01*
X30133D01*
X30183Y35851D01*
M02*
