G04*
G04 #@! TF.GenerationSoftware,Altium Limited,Altium Designer,18.1.6 (161)*
G04*
G04 Layer_Color=16711935*
%FSLAX24Y24*%
%MOIN*%
G70*
G01*
G75*
%ADD38C,0.0671*%
%ADD39R,0.0671X0.0671*%
%ADD40C,0.0126*%
D38*
X3953Y38819D02*
D03*
Y37819D02*
D03*
X2953Y38819D02*
D03*
Y37819D02*
D03*
X1953Y38819D02*
D03*
X9858D02*
D03*
Y37819D02*
D03*
X8858Y38819D02*
D03*
Y37819D02*
D03*
X7858Y38819D02*
D03*
X15764D02*
D03*
Y37819D02*
D03*
X14764Y38819D02*
D03*
Y37819D02*
D03*
X13764Y38819D02*
D03*
X21669D02*
D03*
Y37819D02*
D03*
X20669Y38819D02*
D03*
Y37819D02*
D03*
X19669Y38819D02*
D03*
X27575D02*
D03*
Y37819D02*
D03*
X26575Y38819D02*
D03*
Y37819D02*
D03*
X25575Y38819D02*
D03*
X33480D02*
D03*
Y37819D02*
D03*
X32480Y38819D02*
D03*
Y37819D02*
D03*
X31480Y38819D02*
D03*
D39*
X1953Y37819D02*
D03*
X7858D02*
D03*
X13764D02*
D03*
X19669D02*
D03*
X25575D02*
D03*
X31480D02*
D03*
D40*
X3976Y34567D02*
D03*
X4213Y37205D02*
D03*
X4838Y27165D02*
D03*
X4831Y27559D02*
D03*
X4824Y27953D02*
D03*
X4817Y28346D02*
D03*
X4810Y28740D02*
D03*
X4051Y27953D02*
D03*
X4044Y28346D02*
D03*
X4037Y28740D02*
D03*
X4030Y29134D02*
D03*
X4023Y29528D02*
D03*
X1334Y27165D02*
D03*
X1327Y27559D02*
D03*
X1320Y27953D02*
D03*
X1313Y28346D02*
D03*
X1306Y28740D02*
D03*
X2082Y27953D02*
D03*
X2075Y28346D02*
D03*
X2068Y28740D02*
D03*
X2061Y29134D02*
D03*
X2054Y29528D02*
D03*
X2355Y26582D02*
D03*
X2491Y26717D02*
D03*
X2220Y26446D02*
D03*
X906Y32126D02*
D03*
X787Y32795D02*
D03*
X2795Y33110D02*
D03*
X4409Y31575D02*
D03*
X4646Y33701D02*
D03*
X5472Y33819D02*
D03*
Y35079D02*
D03*
X5394Y37047D02*
D03*
X5354Y38858D02*
D03*
X1417Y37283D02*
D03*
X2402Y37244D02*
D03*
X3150Y36693D02*
D03*
X551Y37205D02*
D03*
X591Y38701D02*
D03*
X551Y35630D02*
D03*
X1299Y35000D02*
D03*
X2913Y32205D02*
D03*
Y31575D02*
D03*
X2795Y31102D02*
D03*
X2205Y30906D02*
D03*
X2520Y30866D02*
D03*
X1693Y30984D02*
D03*
X1299Y30709D02*
D03*
Y30315D02*
D03*
X2362Y30118D02*
D03*
X2756Y30354D02*
D03*
X3031Y30630D02*
D03*
X3346Y30906D02*
D03*
X4803Y29134D02*
D03*
Y29528D02*
D03*
Y29921D02*
D03*
Y30315D02*
D03*
Y30709D02*
D03*
X5354Y31535D02*
D03*
X3543D02*
D03*
X1299Y29134D02*
D03*
Y29528D02*
D03*
Y29921D02*
D03*
X4016Y30709D02*
D03*
Y30315D02*
D03*
Y29921D02*
D03*
Y27638D02*
D03*
X2047Y29921D02*
D03*
X2087Y27638D02*
D03*
X3740Y27362D02*
D03*
X3346D02*
D03*
X2953D02*
D03*
X2559D02*
D03*
X2165Y27366D02*
D03*
X1673Y30236D02*
D03*
X551Y34252D02*
D03*
X4961Y35236D02*
D03*
X2756Y34646D02*
D03*
X5000Y32753D02*
D03*
X3858D02*
D03*
X9882Y34567D02*
D03*
X10118Y37205D02*
D03*
X10744Y27165D02*
D03*
X10737Y27559D02*
D03*
X10730Y27953D02*
D03*
X10723Y28346D02*
D03*
X10716Y28740D02*
D03*
X9956Y27953D02*
D03*
X9949Y28346D02*
D03*
X9942Y28740D02*
D03*
X9935Y29134D02*
D03*
X9928Y29528D02*
D03*
X7240Y27165D02*
D03*
X7233Y27559D02*
D03*
X7226Y27953D02*
D03*
X7219Y28346D02*
D03*
X7212Y28740D02*
D03*
X7988Y27953D02*
D03*
X7981Y28346D02*
D03*
X7974Y28740D02*
D03*
X7967Y29134D02*
D03*
X7960Y29528D02*
D03*
X8261Y26582D02*
D03*
X8396Y26717D02*
D03*
X8125Y26446D02*
D03*
X6811Y32126D02*
D03*
X6693Y32795D02*
D03*
X8701Y33110D02*
D03*
X10315Y31575D02*
D03*
X10551Y33701D02*
D03*
X11378Y33819D02*
D03*
Y35079D02*
D03*
X11299Y37047D02*
D03*
X11260Y38858D02*
D03*
X7323Y37283D02*
D03*
X8307Y37244D02*
D03*
X9055Y36693D02*
D03*
X6457Y37205D02*
D03*
X6496Y38701D02*
D03*
X6457Y35630D02*
D03*
X7205Y35000D02*
D03*
X8819Y32205D02*
D03*
Y31575D02*
D03*
X8701Y31102D02*
D03*
X8110Y30906D02*
D03*
X8425Y30866D02*
D03*
X7598Y30984D02*
D03*
X7205Y30709D02*
D03*
Y30315D02*
D03*
X8268Y30118D02*
D03*
X8661Y30354D02*
D03*
X8937Y30630D02*
D03*
X9252Y30906D02*
D03*
X10709Y29134D02*
D03*
Y29528D02*
D03*
Y29921D02*
D03*
Y30315D02*
D03*
Y30709D02*
D03*
X11260Y31535D02*
D03*
X9449D02*
D03*
X7205Y29134D02*
D03*
Y29528D02*
D03*
Y29921D02*
D03*
X9921Y30709D02*
D03*
Y30315D02*
D03*
Y29921D02*
D03*
Y27638D02*
D03*
X7953Y29921D02*
D03*
X7992Y27638D02*
D03*
X9646Y27362D02*
D03*
X9252D02*
D03*
X8858D02*
D03*
X8465D02*
D03*
X8070Y27366D02*
D03*
X7579Y30236D02*
D03*
X6457Y34252D02*
D03*
X10866Y35236D02*
D03*
X8661Y34646D02*
D03*
X10906Y32753D02*
D03*
X9764D02*
D03*
X15787Y34567D02*
D03*
X16024Y37205D02*
D03*
X16649Y27165D02*
D03*
X16642Y27559D02*
D03*
X16635Y27953D02*
D03*
X16628Y28346D02*
D03*
X16621Y28740D02*
D03*
X15862Y27953D02*
D03*
X15855Y28346D02*
D03*
X15848Y28740D02*
D03*
X15841Y29134D02*
D03*
X15834Y29528D02*
D03*
X13145Y27165D02*
D03*
X13138Y27559D02*
D03*
X13131Y27953D02*
D03*
X13124Y28346D02*
D03*
X13117Y28740D02*
D03*
X13893Y27953D02*
D03*
X13886Y28346D02*
D03*
X13879Y28740D02*
D03*
X13872Y29134D02*
D03*
X13865Y29528D02*
D03*
X14166Y26582D02*
D03*
X14302Y26717D02*
D03*
X14031Y26446D02*
D03*
X12717Y32126D02*
D03*
X12598Y32795D02*
D03*
X14606Y33110D02*
D03*
X16220Y31575D02*
D03*
X16457Y33701D02*
D03*
X17283Y33819D02*
D03*
Y35079D02*
D03*
X17205Y37047D02*
D03*
X17165Y38858D02*
D03*
X13228Y37283D02*
D03*
X14213Y37244D02*
D03*
X14961Y36693D02*
D03*
X12362Y37205D02*
D03*
X12402Y38701D02*
D03*
X12362Y35630D02*
D03*
X13110Y35000D02*
D03*
X14724Y32205D02*
D03*
Y31575D02*
D03*
X14606Y31102D02*
D03*
X14016Y30906D02*
D03*
X14331Y30866D02*
D03*
X13504Y30984D02*
D03*
X13110Y30709D02*
D03*
Y30315D02*
D03*
X14173Y30118D02*
D03*
X14567Y30354D02*
D03*
X14843Y30630D02*
D03*
X15157Y30906D02*
D03*
X16614Y29134D02*
D03*
Y29528D02*
D03*
Y29921D02*
D03*
Y30315D02*
D03*
Y30709D02*
D03*
X17165Y31535D02*
D03*
X15354D02*
D03*
X13110Y29134D02*
D03*
Y29528D02*
D03*
Y29921D02*
D03*
X15827Y30709D02*
D03*
Y30315D02*
D03*
Y29921D02*
D03*
Y27638D02*
D03*
X13858Y29921D02*
D03*
X13898Y27638D02*
D03*
X15551Y27362D02*
D03*
X15157D02*
D03*
X14764D02*
D03*
X14370D02*
D03*
X13976Y27366D02*
D03*
X13484Y30236D02*
D03*
X12362Y34252D02*
D03*
X16772Y35236D02*
D03*
X14567Y34646D02*
D03*
X16811Y32753D02*
D03*
X15669D02*
D03*
X21693Y34567D02*
D03*
X21929Y37205D02*
D03*
X22555Y27165D02*
D03*
X22548Y27559D02*
D03*
X22541Y27953D02*
D03*
X22534Y28346D02*
D03*
X22527Y28740D02*
D03*
X21767Y27953D02*
D03*
X21760Y28346D02*
D03*
X21753Y28740D02*
D03*
X21746Y29134D02*
D03*
X21739Y29528D02*
D03*
X19051Y27165D02*
D03*
X19044Y27559D02*
D03*
X19037Y27953D02*
D03*
X19030Y28346D02*
D03*
X19023Y28740D02*
D03*
X19799Y27953D02*
D03*
X19792Y28346D02*
D03*
X19785Y28740D02*
D03*
X19778Y29134D02*
D03*
X19771Y29528D02*
D03*
X20072Y26582D02*
D03*
X20207Y26717D02*
D03*
X19936Y26446D02*
D03*
X18622Y32126D02*
D03*
X18504Y32795D02*
D03*
X20512Y33110D02*
D03*
X22126Y31575D02*
D03*
X22362Y33701D02*
D03*
X23189Y33819D02*
D03*
Y35079D02*
D03*
X23110Y37047D02*
D03*
X23071Y38858D02*
D03*
X19134Y37283D02*
D03*
X20118Y37244D02*
D03*
X20866Y36693D02*
D03*
X18268Y37205D02*
D03*
X18307Y38701D02*
D03*
X18268Y35630D02*
D03*
X19016Y35000D02*
D03*
X20630Y32205D02*
D03*
Y31575D02*
D03*
X20512Y31102D02*
D03*
X19921Y30906D02*
D03*
X20236Y30866D02*
D03*
X19409Y30984D02*
D03*
X19016Y30709D02*
D03*
Y30315D02*
D03*
X20079Y30118D02*
D03*
X20472Y30354D02*
D03*
X20748Y30630D02*
D03*
X21063Y30906D02*
D03*
X22520Y29134D02*
D03*
Y29528D02*
D03*
Y29921D02*
D03*
Y30315D02*
D03*
Y30709D02*
D03*
X23071Y31535D02*
D03*
X21260D02*
D03*
X19016Y29134D02*
D03*
Y29528D02*
D03*
Y29921D02*
D03*
X21732Y30709D02*
D03*
Y30315D02*
D03*
Y29921D02*
D03*
Y27638D02*
D03*
X19764Y29921D02*
D03*
X19803Y27638D02*
D03*
X21457Y27362D02*
D03*
X21063D02*
D03*
X20669D02*
D03*
X20276D02*
D03*
X19881Y27366D02*
D03*
X19390Y30236D02*
D03*
X18268Y34252D02*
D03*
X22677Y35236D02*
D03*
X20472Y34646D02*
D03*
X22717Y32753D02*
D03*
X21575D02*
D03*
X27598Y34567D02*
D03*
X27835Y37205D02*
D03*
X28460Y27165D02*
D03*
X28453Y27559D02*
D03*
X28446Y27953D02*
D03*
X28439Y28346D02*
D03*
X28432Y28740D02*
D03*
X27673Y27953D02*
D03*
X27666Y28346D02*
D03*
X27659Y28740D02*
D03*
X27652Y29134D02*
D03*
X27645Y29528D02*
D03*
X24956Y27165D02*
D03*
X24949Y27559D02*
D03*
X24942Y27953D02*
D03*
X24935Y28346D02*
D03*
X24928Y28740D02*
D03*
X25704Y27953D02*
D03*
X25697Y28346D02*
D03*
X25690Y28740D02*
D03*
X25683Y29134D02*
D03*
X25676Y29528D02*
D03*
X25977Y26582D02*
D03*
X26113Y26717D02*
D03*
X25842Y26446D02*
D03*
X24528Y32126D02*
D03*
X24409Y32795D02*
D03*
X26417Y33110D02*
D03*
X28031Y31575D02*
D03*
X28268Y33701D02*
D03*
X29094Y33819D02*
D03*
Y35079D02*
D03*
X29016Y37047D02*
D03*
X28976Y38858D02*
D03*
X25039Y37283D02*
D03*
X26024Y37244D02*
D03*
X26772Y36693D02*
D03*
X24173Y37205D02*
D03*
X24213Y38701D02*
D03*
X24173Y35630D02*
D03*
X24921Y35000D02*
D03*
X26535Y32205D02*
D03*
Y31575D02*
D03*
X26417Y31102D02*
D03*
X25827Y30906D02*
D03*
X26142Y30866D02*
D03*
X25315Y30984D02*
D03*
X24921Y30709D02*
D03*
Y30315D02*
D03*
X25984Y30118D02*
D03*
X26378Y30354D02*
D03*
X26654Y30630D02*
D03*
X26969Y30906D02*
D03*
X28425Y29134D02*
D03*
Y29528D02*
D03*
Y29921D02*
D03*
Y30315D02*
D03*
Y30709D02*
D03*
X28976Y31535D02*
D03*
X27165D02*
D03*
X24921Y29134D02*
D03*
Y29528D02*
D03*
Y29921D02*
D03*
X27638Y30709D02*
D03*
Y30315D02*
D03*
Y29921D02*
D03*
Y27638D02*
D03*
X25669Y29921D02*
D03*
X25709Y27638D02*
D03*
X27362Y27362D02*
D03*
X26969D02*
D03*
X26575D02*
D03*
X26181D02*
D03*
X25787Y27366D02*
D03*
X25295Y30236D02*
D03*
X24173Y34252D02*
D03*
X28583Y35236D02*
D03*
X26378Y34646D02*
D03*
X28622Y32753D02*
D03*
X27480D02*
D03*
X33504Y34567D02*
D03*
X33740Y37205D02*
D03*
X34366Y27165D02*
D03*
X34359Y27559D02*
D03*
X34352Y27953D02*
D03*
X34345Y28346D02*
D03*
X34338Y28740D02*
D03*
X33578Y27953D02*
D03*
X33571Y28346D02*
D03*
X33564Y28740D02*
D03*
X33557Y29134D02*
D03*
X33550Y29528D02*
D03*
X30862Y27165D02*
D03*
X30855Y27559D02*
D03*
X30848Y27953D02*
D03*
X30841Y28346D02*
D03*
X30834Y28740D02*
D03*
X31610Y27953D02*
D03*
X31603Y28346D02*
D03*
X31596Y28740D02*
D03*
X31589Y29134D02*
D03*
X31582Y29528D02*
D03*
X31883Y26582D02*
D03*
X32018Y26717D02*
D03*
X31747Y26446D02*
D03*
X30433Y32126D02*
D03*
X30315Y32795D02*
D03*
X32323Y33110D02*
D03*
X33937Y31575D02*
D03*
X34173Y33701D02*
D03*
X35000Y33819D02*
D03*
Y35079D02*
D03*
X34921Y37047D02*
D03*
X34882Y38858D02*
D03*
X30945Y37283D02*
D03*
X31929Y37244D02*
D03*
X32677Y36693D02*
D03*
X30079Y37205D02*
D03*
X30118Y38701D02*
D03*
X30079Y35630D02*
D03*
X30827Y35000D02*
D03*
X32441Y32205D02*
D03*
Y31575D02*
D03*
X32323Y31102D02*
D03*
X31732Y30906D02*
D03*
X32047Y30866D02*
D03*
X31220Y30984D02*
D03*
X30827Y30709D02*
D03*
Y30315D02*
D03*
X31890Y30118D02*
D03*
X32283Y30354D02*
D03*
X32559Y30630D02*
D03*
X32874Y30906D02*
D03*
X34331Y29134D02*
D03*
Y29528D02*
D03*
Y29921D02*
D03*
Y30315D02*
D03*
Y30709D02*
D03*
X34882Y31535D02*
D03*
X33071D02*
D03*
X30827Y29134D02*
D03*
Y29528D02*
D03*
Y29921D02*
D03*
X33543Y30709D02*
D03*
Y30315D02*
D03*
Y29921D02*
D03*
Y27638D02*
D03*
X31575Y29921D02*
D03*
X31614Y27638D02*
D03*
X33268Y27362D02*
D03*
X32874D02*
D03*
X32480D02*
D03*
X32087D02*
D03*
X31692Y27366D02*
D03*
X31201Y30236D02*
D03*
X30079Y34252D02*
D03*
X34488Y35236D02*
D03*
X32283Y34646D02*
D03*
X34528Y32753D02*
D03*
X33386D02*
D03*
M02*
