G04 Layer_Color=8388736*
%FSLAX24Y24*%
%MOIN*%
G70*
G01*
G75*
%ADD33R,0.0415X0.0336*%
%ADD34R,0.0330X0.0880*%
%ADD35R,0.0415X0.0434*%
%ADD36R,0.0190X0.0395*%
%ADD37R,0.0867X0.0552*%
%ADD38R,0.0336X0.0415*%
%ADD39R,0.0631X0.0474*%
%ADD40R,0.0316X0.0513*%
%ADD41R,0.0474X0.0631*%
%ADD42R,0.0966X0.0474*%
%ADD43R,0.0474X0.0671*%
%ADD44R,0.0671X0.0671*%
%ADD45C,0.0671*%
%ADD46R,0.0671X0.0671*%
%ADD47C,0.0237*%
%ADD48C,0.0336*%
G36*
X6225Y7569D02*
X6230Y7568D01*
X6235Y7566D01*
X6239Y7564D01*
X6244Y7561D01*
X6248Y7557D01*
X6348Y7457D01*
X6351Y7454D01*
X6354Y7449D01*
X6356Y7444D01*
X6358Y7440D01*
X6359Y7434D01*
X6359Y7429D01*
Y6429D01*
X6359Y6424D01*
X6358Y6419D01*
X6356Y6414D01*
X6354Y6409D01*
X6351Y6405D01*
X6348Y6401D01*
X6248Y6301D01*
X6244Y6297D01*
X6239Y6294D01*
X6235Y6292D01*
X6230Y6290D01*
X6225Y6289D01*
X6219Y6289D01*
X5869D01*
X5864Y6289D01*
X5859Y6290D01*
X5854Y6292D01*
X5849Y6294D01*
X5845Y6297D01*
X5841Y6301D01*
X5837Y6305D01*
X5835Y6309D01*
X5832Y6314D01*
X5831Y6319D01*
X5830Y6324D01*
X5829Y6329D01*
Y6604D01*
X5829Y6606D01*
X5829Y6608D01*
X5829Y6609D01*
X5830Y6609D01*
X5830Y6611D01*
X5830Y6613D01*
X5830Y6614D01*
X5831Y6615D01*
X5831Y6616D01*
X5832Y6618D01*
X5832Y6619D01*
X5832Y6619D01*
X5833Y6621D01*
X5834Y6623D01*
X5834Y6623D01*
X5835Y6624D01*
X5836Y6626D01*
X5837Y6627D01*
X5837Y6628D01*
X5837Y6629D01*
X5839Y6630D01*
X5840Y6631D01*
X5840Y6632D01*
X5841Y6632D01*
X5842Y6634D01*
X5844Y6635D01*
X5979Y6748D01*
Y7110D01*
X5844Y7223D01*
X5842Y7225D01*
X5841Y7226D01*
X5840Y7226D01*
X5840Y7227D01*
X5839Y7228D01*
X5837Y7230D01*
X5837Y7230D01*
X5837Y7231D01*
X5836Y7233D01*
X5835Y7234D01*
X5834Y7235D01*
X5834Y7236D01*
X5833Y7237D01*
X5832Y7239D01*
X5832Y7240D01*
X5832Y7240D01*
X5831Y7242D01*
X5831Y7244D01*
X5830Y7245D01*
X5830Y7245D01*
X5830Y7247D01*
X5830Y7249D01*
X5829Y7250D01*
X5829Y7251D01*
X5829Y7252D01*
X5829Y7254D01*
Y7529D01*
X5830Y7534D01*
X5831Y7540D01*
X5832Y7544D01*
X5835Y7549D01*
X5837Y7554D01*
X5841Y7557D01*
X5845Y7561D01*
X5849Y7564D01*
X5854Y7566D01*
X5859Y7568D01*
X5864Y7569D01*
X5869Y7569D01*
X6219D01*
X6225Y7569D01*
D02*
G37*
G36*
X5475D02*
X5480Y7568D01*
X5485Y7566D01*
X5489Y7564D01*
X5494Y7561D01*
X5498Y7557D01*
X5501Y7554D01*
X5504Y7549D01*
X5506Y7544D01*
X5508Y7540D01*
X5509Y7534D01*
X5509Y7529D01*
Y7254D01*
X5509Y7252D01*
X5509Y7251D01*
X5509Y7250D01*
X5509Y7249D01*
X5509Y7247D01*
X5508Y7245D01*
X5508Y7245D01*
X5508Y7244D01*
X5507Y7242D01*
X5507Y7240D01*
X5507Y7240D01*
X5506Y7239D01*
X5506Y7237D01*
X5505Y7236D01*
X5504Y7235D01*
X5504Y7234D01*
X5503Y7233D01*
X5502Y7231D01*
X5502Y7230D01*
X5501Y7230D01*
X5500Y7228D01*
X5499Y7227D01*
X5498Y7226D01*
X5498Y7226D01*
X5496Y7225D01*
X5495Y7223D01*
X5359Y7110D01*
Y6748D01*
X5495Y6635D01*
X5496Y6634D01*
X5498Y6632D01*
X5498Y6632D01*
X5499Y6631D01*
X5500Y6630D01*
X5501Y6629D01*
X5502Y6628D01*
X5502Y6627D01*
X5503Y6626D01*
X5504Y6624D01*
X5504Y6623D01*
X5505Y6623D01*
X5506Y6621D01*
X5506Y6619D01*
X5507Y6619D01*
X5507Y6618D01*
X5507Y6616D01*
X5508Y6615D01*
X5508Y6614D01*
X5508Y6613D01*
X5509Y6611D01*
X5509Y6609D01*
X5509Y6609D01*
X5509Y6608D01*
X5509Y6606D01*
X5509Y6604D01*
Y6329D01*
X5509Y6324D01*
X5508Y6319D01*
X5506Y6314D01*
X5504Y6309D01*
X5501Y6305D01*
X5498Y6301D01*
X5494Y6297D01*
X5489Y6294D01*
X5485Y6292D01*
X5480Y6290D01*
X5475Y6289D01*
X5469Y6289D01*
X5119D01*
X5114Y6289D01*
X5109Y6290D01*
X5104Y6292D01*
X5099Y6294D01*
X5095Y6297D01*
X5091Y6301D01*
X4991Y6401D01*
X4987Y6405D01*
X4985Y6409D01*
X4982Y6414D01*
X4981Y6419D01*
X4980Y6424D01*
X4979Y6429D01*
Y7429D01*
X4980Y7434D01*
X4981Y7440D01*
X4982Y7444D01*
X4985Y7449D01*
X4987Y7454D01*
X4991Y7457D01*
X5091Y7557D01*
X5095Y7561D01*
X5099Y7564D01*
X5104Y7566D01*
X5109Y7568D01*
X5114Y7569D01*
X5119Y7569D01*
X5469D01*
X5475Y7569D01*
D02*
G37*
D33*
X6732Y10807D02*
D03*
Y10217D02*
D03*
X6220Y10807D02*
D03*
Y10217D02*
D03*
X5709Y10807D02*
D03*
Y10217D02*
D03*
X4016Y8051D02*
D03*
Y8642D02*
D03*
X2992Y9035D02*
D03*
Y8445D02*
D03*
X2520Y8445D02*
D03*
Y9035D02*
D03*
X2992Y10846D02*
D03*
Y10256D02*
D03*
X2520Y10256D02*
D03*
Y10846D02*
D03*
X2047Y10846D02*
D03*
Y10256D02*
D03*
X3543Y3287D02*
D03*
Y2697D02*
D03*
X2559Y3287D02*
D03*
Y2697D02*
D03*
D34*
X5169Y6929D02*
D03*
X6169D02*
D03*
D35*
X6614Y8012D02*
D03*
Y8524D02*
D03*
D36*
X5676Y8075D02*
D03*
X6069D02*
D03*
X5873D02*
D03*
X5479D02*
D03*
X5282D02*
D03*
Y9059D02*
D03*
X5479D02*
D03*
X5873D02*
D03*
X6069D02*
D03*
X5676D02*
D03*
D37*
Y8567D02*
D03*
D38*
X4035Y9370D02*
D03*
X4626D02*
D03*
X2776Y6378D02*
D03*
X2185D02*
D03*
D39*
X4646Y8081D02*
D03*
Y8691D02*
D03*
D40*
X2480Y7825D02*
D03*
X2854Y7057D02*
D03*
X2106D02*
D03*
D41*
X3829Y11693D02*
D03*
X4439D02*
D03*
D42*
X7136Y13346D02*
D03*
Y14134D02*
D03*
Y14921D02*
D03*
Y15709D02*
D03*
Y16496D02*
D03*
Y17283D02*
D03*
Y18071D02*
D03*
Y18858D02*
D03*
X1132D02*
D03*
Y18071D02*
D03*
Y17283D02*
D03*
Y16496D02*
D03*
Y15709D02*
D03*
Y14921D02*
D03*
Y14134D02*
D03*
Y13346D02*
D03*
D43*
X2165Y12756D02*
D03*
X2953D02*
D03*
X3740D02*
D03*
X4528D02*
D03*
X5315D02*
D03*
X6102D02*
D03*
D44*
X2559Y630D02*
D03*
Y1811D02*
D03*
D45*
X3559Y630D02*
D03*
X4559D02*
D03*
X5559D02*
D03*
X3559Y1811D02*
D03*
X4559D02*
D03*
X5559D02*
D03*
X7756Y11354D02*
D03*
Y8874D02*
D03*
Y5457D02*
D03*
Y4457D02*
D03*
Y3457D02*
D03*
X512Y11354D02*
D03*
D46*
X7756Y10354D02*
D03*
Y7874D02*
D03*
Y6457D02*
D03*
X512Y10354D02*
D03*
D47*
X5380Y8705D02*
D03*
X5971D02*
D03*
Y8429D02*
D03*
X5380D02*
D03*
X5676Y8567D02*
D03*
D48*
X6594Y2697D02*
D03*
X6890Y2992D02*
D03*
X3150Y6378D02*
D03*
X1811Y14134D02*
D03*
X2047Y15709D02*
D03*
X2283Y16496D02*
D03*
X2520Y17283D02*
D03*
X2756Y18071D02*
D03*
X2992Y18858D02*
D03*
X6457Y14134D02*
D03*
X6220Y14921D02*
D03*
X5984Y15709D02*
D03*
X2992Y11181D02*
D03*
X2520Y11181D02*
D03*
X2047Y11181D02*
D03*
X5709Y11142D02*
D03*
X6220D02*
D03*
X6732D02*
D03*
X2992Y9921D02*
D03*
X2756Y9370D02*
D03*
X2992Y8110D02*
D03*
X5039Y17283D02*
D03*
X5276Y16496D02*
D03*
X4016Y8976D02*
D03*
X5282Y9394D02*
D03*
X4941Y10217D02*
D03*
X3819D02*
D03*
X1772Y9685D02*
D03*
X4439Y9921D02*
D03*
X5748Y18858D02*
D03*
X5512Y18071D02*
D03*
X4016Y5197D02*
D03*
X6299Y9016D02*
D03*
Y8031D02*
D03*
M02*
