%FSTAX24Y24*%
%MOIN*%
%SFA1B1*%

%IPPOS*%
%ADD21C,0.007900*%
%ADD29C,0.009800*%
%ADD30C,0.011800*%
%ADD31C,0.010000*%
%ADD32C,0.006000*%
%LNesp_temperature_1.0.0-1*%
%LPD*%
G36*
X002181Y018608D02*
X001681Y018858D01*
X002181Y019108*
Y018608*
G37*
G54D21*
X006059Y00013D02*
Y00113D01*
X002059Y00013D02*
X006059D01*
X002059Y00113D02*
X006059D01*
X002059Y00013D02*
Y00113D01*
X006059Y001311D02*
Y002311D01*
X002059Y001311D02*
X006059D01*
X002059Y002311D02*
X006059D01*
X002059Y001311D02*
Y002311D01*
X006614Y010512D02*
X00685D01*
X006102D02*
X006339D01*
X005591D02*
X005827D01*
X007256Y011854D02*
X008256D01*
Y009854D02*
Y011854D01*
X007256Y009854D02*
X008256D01*
X007256D02*
Y011854D01*
Y009374D02*
X008256D01*
Y007374D02*
Y009374D01*
X007256Y007374D02*
X008256D01*
X007256D02*
Y009374D01*
Y002957D02*
X008256D01*
X007256D02*
Y006957D01*
X008256Y002957D02*
Y006957D01*
X007256D02*
X008256D01*
X005581Y007549D02*
X005758D01*
X005581Y006309D02*
X005758D01*
X006457Y008268D02*
X006772D01*
X004331Y009252D02*
Y009488D01*
X004409Y008386D02*
X004882D01*
X003898Y008346D02*
X004134D01*
X002874Y00874D02*
X00311D01*
X002402D02*
X002638D01*
X00248Y00626D02*
Y006496D01*
X002756Y007722D02*
X003091D01*
Y007447D02*
Y007722D01*
X00187D02*
X002205D01*
X00187Y007447D02*
Y007722D01*
X002874Y010551D02*
X00311D01*
X002402D02*
X002638D01*
X001929D02*
X002165D01*
X004134Y011457D02*
Y011929D01*
X000012Y011854D02*
X001012D01*
Y009854D02*
Y011854D01*
X000012Y009854D02*
X001012D01*
X000012D02*
Y011854D01*
X003425Y002992D02*
X003661D01*
X002441D02*
X002677D01*
G54D29*
X00506Y008075D02*
D01*
X005059Y008078*
X005059Y008081*
X005058Y008085*
X005058Y008088*
X005056Y008092*
X005055Y008095*
X005054Y008098*
X005052Y008101*
X00505Y008104*
X005048Y008107*
X005045Y008109*
X005043Y008112*
X00504Y008114*
X005037Y008116*
X005035Y008118*
X005031Y008119*
X005028Y008121*
X005025Y008122*
X005022Y008123*
X005018Y008124*
X005015Y008124*
X005011Y008124*
X005008*
X005004Y008124*
X005001Y008124*
X004997Y008123*
X004994Y008122*
X004991Y008121*
X004988Y008119*
X004985Y008118*
X004982Y008116*
X004979Y008114*
X004976Y008112*
X004974Y008109*
X004971Y008107*
X004969Y008104*
X004967Y008101*
X004965Y008098*
X004964Y008095*
X004963Y008092*
X004961Y008088*
X004961Y008085*
X00496Y008081*
X00496Y008078*
X00496Y008075*
X00496Y008071*
X00496Y008068*
X004961Y008064*
X004961Y008061*
X004963Y008057*
X004964Y008054*
X004965Y008051*
X004967Y008048*
X004969Y008045*
X004971Y008042*
X004974Y00804*
X004976Y008037*
X004979Y008035*
X004982Y008033*
X004985Y008031*
X004988Y00803*
X004991Y008028*
X004994Y008027*
X004997Y008026*
X005001Y008025*
X005004Y008025*
X005008Y008025*
X005011*
X005015Y008025*
X005018Y008025*
X005022Y008026*
X005025Y008027*
X005028Y008028*
X005031Y00803*
X005035Y008031*
X005037Y008033*
X00504Y008035*
X005043Y008037*
X005045Y00804*
X005048Y008042*
X00505Y008045*
X005052Y008048*
X005054Y008051*
X005055Y008054*
X005056Y008057*
X005058Y008061*
X005058Y008064*
X005059Y008068*
X005059Y008071*
X00506Y008075*
X001821Y007057D02*
D01*
X00182Y00706*
X00182Y007063*
X001819Y007067*
X001819Y00707*
X001818Y007073*
X001816Y007076*
X001815Y00708*
X001813Y007082*
X001811Y007085*
X001809Y007088*
X001807Y007091*
X001804Y007093*
X001802Y007095*
X001799Y007097*
X001796Y007099*
X001793Y007101*
X00179Y007102*
X001787Y007103*
X001783Y007104*
X00178Y007105*
X001777Y007105*
X001773Y007105*
X00177*
X001766Y007105*
X001763Y007105*
X00176Y007104*
X001756Y007103*
X001753Y007102*
X00175Y007101*
X001747Y007099*
X001744Y007097*
X001741Y007095*
X001739Y007093*
X001736Y007091*
X001734Y007088*
X001732Y007085*
X00173Y007082*
X001728Y00708*
X001727Y007076*
X001725Y007073*
X001724Y00707*
X001724Y007067*
X001723Y007063*
X001723Y00706*
X001723Y007057*
X001723Y007053*
X001723Y00705*
X001724Y007046*
X001724Y007043*
X001725Y00704*
X001727Y007037*
X001728Y007033*
X00173Y007031*
X001732Y007028*
X001734Y007025*
X001736Y007022*
X001739Y00702*
X001741Y007018*
X001744Y007016*
X001747Y007014*
X00175Y007012*
X001753Y007011*
X001756Y00701*
X00176Y007009*
X001763Y007008*
X001766Y007008*
X00177Y007008*
X001773*
X001777Y007008*
X00178Y007008*
X001783Y007009*
X001787Y00701*
X00179Y007011*
X001793Y007012*
X001796Y007014*
X001799Y007016*
X001802Y007018*
X001804Y00702*
X001807Y007022*
X001809Y007025*
X001811Y007028*
X001813Y007031*
X001815Y007033*
X001816Y007037*
X001818Y00704*
X001819Y007043*
X001819Y007046*
X00182Y00705*
X00182Y007053*
X001821Y007057*
G54D30*
X000827Y019262D02*
D01*
X000826Y019266*
X000826Y01927*
X000825Y019274*
X000824Y019278*
X000823Y019282*
X000821Y019285*
X00082Y019289*
X000818Y019293*
X000815Y019296*
X000813Y019299*
X00081Y019302*
X000807Y019305*
X000804Y019308*
X0008Y01931*
X000797Y019313*
X000793Y019315*
X00079Y019316*
X000786Y019318*
X000782Y019319*
X000778Y01932*
X000774Y01932*
X00077Y01932*
X000765*
X000761Y01932*
X000757Y01932*
X000753Y019319*
X000749Y019318*
X000745Y019316*
X000742Y019315*
X000738Y019313*
X000735Y01931*
X000731Y019308*
X000728Y019305*
X000725Y019302*
X000722Y019299*
X00072Y019296*
X000717Y019293*
X000715Y019289*
X000714Y019285*
X000712Y019282*
X000711Y019278*
X00071Y019274*
X000709Y01927*
X000709Y019266*
X000709Y019262*
X000709Y019257*
X000709Y019253*
X00071Y019249*
X000711Y019245*
X000712Y019241*
X000714Y019238*
X000715Y019234*
X000717Y01923*
X00072Y019227*
X000722Y019224*
X000725Y019221*
X000728Y019218*
X000731Y019215*
X000735Y019213*
X000738Y01921*
X000742Y019208*
X000745Y019207*
X000749Y019205*
X000753Y019204*
X000757Y019203*
X000761Y019203*
X000765Y019203*
X00077*
X000774Y019203*
X000778Y019203*
X000782Y019204*
X000786Y019205*
X00079Y019207*
X000793Y019208*
X000797Y01921*
X0008Y019213*
X000804Y019215*
X000807Y019218*
X00081Y019221*
X000813Y019224*
X000815Y019227*
X000818Y01923*
X00082Y019234*
X000821Y019238*
X000823Y019241*
X000824Y019245*
X000825Y019249*
X000826Y019253*
X000826Y019257*
X000827Y019262*
G54D31*
X006469Y012729D02*
X007316D01*
X000951D02*
X001799D01*
X007316D02*
Y012986D01*
X000951Y012729D02*
Y012986D01*
G54D32*
X000582Y000766D02*
X000515Y000833D01*
X000382*
X000315Y000766*
Y0005*
X000382Y000433*
X000515*
X000582Y0005*
X000915Y000833D02*
X000781D01*
X000715Y000766*
Y0005*
X000781Y000433*
X000915*
X000981Y0005*
Y000766*
X000915Y000833*
X001115Y000433D02*
Y000833D01*
X001381Y000433*
Y000833*
X001515Y000766D02*
X001581Y000833D01*
X001715*
X001781Y000766*
Y0007*
X001715Y000633*
X001648*
X001715*
X001781Y000566*
Y0005*
X001715Y000433*
X001581*
X001515Y0005*
X000621Y001987D02*
X000554Y002053D01*
X000421*
X000354Y001987*
Y00172*
X000421Y001654*
X000554*
X000621Y00172*
X000954Y002053D02*
X000821D01*
X000754Y001987*
Y00172*
X000821Y001654*
X000954*
X001021Y00172*
Y001987*
X000954Y002053*
X001154Y001654D02*
Y002053D01*
X001421Y001654*
Y002053*
X001821D02*
X001687Y001987D01*
X001554Y001853*
Y00172*
X001621Y001654*
X001754*
X001821Y00172*
Y001787*
X001754Y001853*
X001554*
X006575Y01122D02*
X006175D01*
Y01142*
X006242Y011487*
X006375*
X006442Y01142*
Y01122*
Y011354D02*
X006575Y011487D01*
Y01162D02*
Y011754D01*
Y011687*
X006175*
X006242Y01162*
X006575Y011954D02*
Y012087D01*
Y01202*
X006175*
X006242Y011954*
X006063Y01122D02*
X005663D01*
Y01142*
X00573Y011487*
X005863*
X00593Y01142*
Y01122*
Y011354D02*
X006063Y011487D01*
Y01162D02*
Y011754D01*
Y011687*
X005663*
X00573Y01162*
Y011954D02*
X005663Y01202D01*
Y012154*
X00573Y01222*
X005996*
X006063Y012154*
Y01202*
X005996Y011954*
X00573*
X005433Y010236D02*
X005033D01*
Y010436*
X0051Y010503*
X005233*
X0053Y010436*
Y010236*
Y01037D02*
X005433Y010503D01*
X005366Y010636D02*
X005433Y010703D01*
Y010836*
X005366Y010903*
X0051*
X005033Y010836*
Y010703*
X0051Y010636*
X005166*
X005233Y010703*
Y010903*
X006959Y012341D02*
X006893Y012408D01*
X00676*
X006693Y012341*
Y012075*
X00676Y012008*
X006893*
X006959Y012075*
X007293Y012408D02*
X007159D01*
X007093Y012341*
Y012075*
X007159Y012008*
X007293*
X007359Y012075*
Y012341*
X007293Y012408*
X007493Y012008D02*
Y012408D01*
X007759Y012008*
Y012408*
X008159Y012008D02*
X007893D01*
X008159Y012274*
Y012341*
X008092Y012408*
X007959*
X007893Y012341*
X006675Y006605D02*
X006608Y006539D01*
Y006405*
X006675Y006339*
X006941*
X007008Y006405*
Y006539*
X006941Y006605*
X006608Y006938D02*
Y006805D01*
X006675Y006738*
X006941*
X007008Y006805*
Y006938*
X006941Y007005*
X006675*
X006608Y006938*
X007008Y007138D02*
X006608D01*
X007008Y007405*
X006608*
X007008Y007538D02*
Y007671D01*
Y007605*
X006608*
X006675Y007538*
Y003731D02*
X006608Y003665D01*
Y003531*
X006675Y003465*
X006941*
X007008Y003531*
Y003665*
X006941Y003731*
X006608Y004064D02*
Y003931D01*
X006675Y003864*
X006941*
X007008Y003931*
Y004064*
X006941Y004131*
X006675*
X006608Y004064*
X007008Y004264D02*
X006608D01*
X007008Y004531*
X006608*
X007008Y004864D02*
X006608D01*
X006808Y004664*
Y004931*
X005354Y00599D02*
Y005591D01*
X005621*
X005754D02*
X005887D01*
X005821*
Y00599*
X005754Y005924*
X006635Y009125D02*
X006569Y009058D01*
Y008925*
X006635Y008858*
X006902*
X006969Y008925*
Y009058*
X006902Y009125*
X006969Y009525D02*
Y009258D01*
X006702Y009525*
X006635*
X006569Y009458*
Y009325*
X006635Y009258*
X005394Y009809D02*
Y009476D01*
X00546Y009409*
X005594*
X00566Y009476*
Y009809*
X00606Y009409D02*
X005794D01*
X00606Y009676*
Y009743*
X005994Y009809*
X00586*
X005794Y009743*
X004016Y009764D02*
Y010164D01*
X004216*
X004282Y010097*
Y009964*
X004216Y009897*
X004016*
X004149D02*
X004282Y009764D01*
X004682D02*
X004416D01*
X004682Y01003*
Y010097*
X004616Y010164*
X004482*
X004416Y010097*
X004352Y007432D02*
X004285Y007365D01*
Y007232*
X004352Y007165*
X004618*
X004685Y007232*
Y007365*
X004618Y007432*
X004685Y007565D02*
Y007699D01*
Y007632*
X004285*
X004352Y007565*
X004134Y007165D02*
X003734D01*
Y007365*
X003801Y007432*
X003934*
X004001Y007365*
Y007165*
Y007299D02*
X004134Y007432D01*
Y007565D02*
Y007699D01*
Y007632*
X003734*
X003801Y007565*
X002638Y00937D02*
Y00977D01*
X002838*
X002904Y009703*
Y00957*
X002838Y009503*
X002638*
X002771D02*
X002904Y00937D01*
X003304Y00977D02*
X003038D01*
Y00957*
X003171Y009637*
X003238*
X003304Y00957*
Y009437*
X003238Y00937*
X003104*
X003038Y009437*
X002165Y008386D02*
X001765D01*
Y008586*
X001832Y008652*
X001965*
X002032Y008586*
Y008386*
Y008519D02*
X002165Y008652D01*
Y008986D02*
X001765D01*
X001965Y008786*
Y009052*
X001102Y006181D02*
Y006581D01*
X001302*
X001369Y006514*
Y006381*
X001302Y006314*
X001102*
X001236D02*
X001369Y006181D01*
X001502Y006514D02*
X001569Y006581D01*
X001702*
X001769Y006514*
Y006448*
X001702Y006381*
X001636*
X001702*
X001769Y006314*
Y006248*
X001702Y006181*
X001569*
X001502Y006248*
X00133Y007271D02*
Y007538D01*
X001263Y007605*
X00113*
X001063Y007538*
Y007271*
X00113Y007205*
X001263*
X001196Y007338D02*
X00133Y007205D01*
X001263D02*
X00133Y007271D01*
X001463Y007205D02*
X001596D01*
X00153*
Y007605*
X001463Y007538*
X003268Y011378D02*
X002868D01*
Y011578*
X002934Y011645*
X003068*
X003134Y011578*
Y011378*
Y011511D02*
X003268Y011645D01*
X002868Y011778D02*
Y012044D01*
X002934*
X003201Y011778*
X003268*
X002717Y011378D02*
X002317D01*
Y011578*
X002383Y011645*
X002517*
X002583Y011578*
Y011378*
Y011511D02*
X002717Y011645D01*
X002317Y012044D02*
X002383Y011911D01*
X002517Y011778*
X00265*
X002717Y011844*
Y011978*
X00265Y012044*
X002583*
X002517Y011978*
Y011778*
X001732Y010236D02*
X001332D01*
Y010436*
X001399Y010503*
X001532*
X001599Y010436*
Y010236*
Y01037D02*
X001732Y010503D01*
X001399Y010636D02*
X001332Y010703D01*
Y010836*
X001399Y010903*
X001466*
X001532Y010836*
X001599Y010903*
X001666*
X001732Y010836*
Y010703*
X001666Y010636*
X001599*
X001532Y010703*
X001466Y010636*
X001399*
X001532Y010703D02*
Y010836D01*
X004085Y011199D02*
X004019Y011266D01*
X003886*
X003819Y011199*
Y010933*
X003886Y010866*
X004019*
X004085Y010933*
X004219Y011199D02*
X004285Y011266D01*
X004419*
X004485Y011199*
Y011133*
X004419Y011066*
X004352*
X004419*
X004485Y010999*
Y010933*
X004419Y010866*
X004285*
X004219Y010933*
X000297Y008377D02*
X00023Y00831D01*
Y008177*
X000297Y00811*
X000563*
X00063Y008177*
Y00831*
X000563Y008377*
X00023Y00871D02*
Y008577D01*
X000297Y00851*
X000563*
X00063Y008577*
Y00871*
X000563Y008777*
X000297*
X00023Y00871*
X00063Y00891D02*
X00023D01*
X00063Y009177*
X00023*
Y009576D02*
Y00931D01*
X00043*
X000363Y009443*
Y00951*
X00043Y009576*
X000563*
X00063Y00951*
Y009376*
X000563Y00931*
X000079Y019612D02*
Y019279D01*
X000145Y019213*
X000279*
X000345Y019279*
Y019612*
X000479Y019213D02*
X000612D01*
X000545*
Y019612*
X000479Y019546*
X003379Y003739D02*
Y004139D01*
X003579*
X003646Y004072*
Y003939*
X003579Y003872*
X003379*
X003512D02*
X003646Y003739D01*
X003779D02*
X003912D01*
X003846*
Y004139*
X003779Y004072*
X004379Y003739D02*
X004112D01*
X004379Y004005*
Y004072*
X004312Y004139*
X004179*
X004112Y004072*
X002389Y003739D02*
Y004139D01*
X002589*
X002656Y004072*
Y003939*
X002589Y003872*
X002389*
X002522D02*
X002656Y003739D01*
X002789D02*
X002922D01*
X002855*
Y004139*
X002789Y004072*
X003122D02*
X003189Y004139D01*
X003322*
X003389Y004072*
Y004005*
X003322Y003939*
X003255*
X003322*
X003389Y003872*
Y003805*
X003322Y003739*
X003189*
X003122Y003805*
M02*