G04 Layer_Physical_Order=2*
G04 Layer_Color=255*
%FSLAX24Y24*%
%MOIN*%
G70*
G01*
G75*
%ADD21C,0.0079*%
%ADD22C,0.0394*%
%ADD23C,0.0059*%
%ADD24R,0.0591X0.0591*%
%ADD25C,0.0591*%
%ADD26R,0.0591X0.0591*%
%ADD27C,0.0157*%
%ADD28C,0.0256*%
G36*
X8166Y101D02*
X627D01*
Y9312D01*
X101D01*
X101Y11811D01*
X1316D01*
Y2008D01*
X1324Y1969D01*
X1346Y1936D01*
X2094Y1188D01*
X2127Y1166D01*
X2165Y1159D01*
X2887D01*
X3245Y801D01*
X3213Y723D01*
X3201Y630D01*
X3213Y537D01*
X3249Y451D01*
X3306Y377D01*
X3380Y320D01*
X3466Y284D01*
X3559Y272D01*
X3652Y284D01*
X3738Y320D01*
X3812Y377D01*
X3869Y451D01*
X3905Y537D01*
X3917Y630D01*
X3905Y723D01*
X3869Y809D01*
X3812Y883D01*
X3738Y940D01*
X3652Y976D01*
X3559Y988D01*
X3466Y976D01*
X3388Y944D01*
X3001Y1331D01*
X2968Y1353D01*
X2929Y1361D01*
X2207D01*
X1519Y2050D01*
Y11811D01*
X1670D01*
Y9843D01*
X1636Y9821D01*
X1595Y9758D01*
X1580Y9685D01*
X1595Y9612D01*
X1636Y9550D01*
X1698Y9508D01*
X1772Y9493D01*
X1845Y9508D01*
X1907Y9550D01*
X1949Y9612D01*
X1963Y9685D01*
X1949Y9758D01*
X1907Y9821D01*
X1873Y9843D01*
Y11020D01*
X1923Y11038D01*
X1974Y11004D01*
X2047Y10989D01*
X2121Y11004D01*
X2183Y11046D01*
X2224Y11108D01*
X2239Y11181D01*
X2231Y11221D01*
X2320Y11311D01*
X2359Y11279D01*
X2343Y11254D01*
X2328Y11181D01*
X2343Y11108D01*
X2384Y11046D01*
X2446Y11004D01*
X2520Y10989D01*
X2593Y11004D01*
X2610Y11016D01*
X2655Y10992D01*
Y9528D01*
X2620Y9506D01*
X2579Y9443D01*
X2564Y9370D01*
X2579Y9297D01*
X2620Y9235D01*
X2683Y9193D01*
X2756Y9178D01*
X2829Y9193D01*
X2891Y9235D01*
X2933Y9297D01*
X2948Y9370D01*
X2933Y9443D01*
X2891Y9506D01*
X2857Y9528D01*
Y10992D01*
X2901Y11016D01*
X2919Y11004D01*
X2992Y10989D01*
X3065Y11004D01*
X3128Y11046D01*
X3169Y11108D01*
X3184Y11181D01*
X3169Y11254D01*
X3128Y11317D01*
X3093Y11339D01*
Y11811D01*
X4755D01*
X4769Y11795D01*
X4786Y11761D01*
X4781Y11732D01*
Y10866D01*
X4788Y10827D01*
X4810Y10795D01*
X6358Y9247D01*
X6333Y9201D01*
X6299Y9207D01*
X6226Y9193D01*
X6164Y9151D01*
X6122Y9089D01*
X6108Y9016D01*
X6122Y8942D01*
X6164Y8880D01*
X6198Y8857D01*
Y8190D01*
X6164Y8167D01*
X6122Y8105D01*
X6108Y8031D01*
X6122Y7958D01*
X6164Y7896D01*
X6226Y7854D01*
X6299Y7840D01*
X6373Y7854D01*
X6435Y7896D01*
X6463Y7938D01*
X6513Y7923D01*
Y2868D01*
X6459Y2832D01*
X6417Y2770D01*
X6403Y2697D01*
X6417Y2624D01*
X6459Y2561D01*
X6521Y2520D01*
X6594Y2505D01*
X6668Y2520D01*
X6730Y2561D01*
X6772Y2624D01*
X6786Y2697D01*
X6772Y2770D01*
X6754Y2797D01*
X6790Y2833D01*
X6816Y2815D01*
X6890Y2800D01*
X6963Y2815D01*
X7025Y2857D01*
X7067Y2919D01*
X7081Y2992D01*
X7067Y3065D01*
X7025Y3128D01*
X6991Y3150D01*
Y6020D01*
X7041Y6035D01*
X7054Y6015D01*
X7442Y5627D01*
X7410Y5549D01*
X7398Y5457D01*
X7410Y5364D01*
X7446Y5278D01*
X7503Y5203D01*
X7577Y5146D01*
X7663Y5111D01*
X7756Y5098D01*
X7849Y5111D01*
X7935Y5146D01*
X8009Y5203D01*
X8066Y5278D01*
X8102Y5364D01*
X8114Y5457D01*
X8102Y5549D01*
X8066Y5636D01*
X8009Y5710D01*
X7935Y5767D01*
X7849Y5803D01*
X7756Y5815D01*
X7663Y5803D01*
X7585Y5771D01*
X7227Y6129D01*
Y6777D01*
X7273Y6796D01*
X7401Y6669D01*
Y6101D01*
X8111D01*
Y6812D01*
X7544D01*
X7385Y6971D01*
Y7475D01*
X7401Y7519D01*
X7435Y7519D01*
X8111D01*
Y8229D01*
X7435D01*
X7401Y8229D01*
X7385Y8273D01*
Y9213D01*
X7377Y9251D01*
X7355Y9284D01*
X6401Y10238D01*
X6433Y10277D01*
X6457Y10261D01*
X6496Y10253D01*
X7401D01*
Y9999D01*
X8111D01*
Y10710D01*
X7401D01*
Y10456D01*
X6538D01*
X5892Y11101D01*
X5900Y11142D01*
X5892Y11182D01*
X6056Y11346D01*
X6069Y11366D01*
X6119Y11350D01*
Y11300D01*
X6085Y11277D01*
X6043Y11215D01*
X6029Y11142D01*
X6043Y11068D01*
X6085Y11006D01*
X6147Y10965D01*
X6220Y10950D01*
X6294Y10965D01*
X6356Y11006D01*
X6398Y11068D01*
X6412Y11142D01*
X6398Y11215D01*
X6356Y11277D01*
X6322Y11300D01*
Y11350D01*
X6372Y11366D01*
X6385Y11346D01*
X6549Y11182D01*
X6541Y11142D01*
X6555Y11068D01*
X6597Y11006D01*
X6659Y10965D01*
X6732Y10950D01*
X6806Y10965D01*
X6868Y11006D01*
X6909Y11068D01*
X6924Y11142D01*
X6909Y11215D01*
X6868Y11277D01*
X6806Y11319D01*
X6732Y11333D01*
X6692Y11325D01*
X6558Y11459D01*
Y11811D01*
X8166D01*
Y101D01*
D02*
G37*
%LPC*%
G36*
X512Y11713D02*
X419Y11700D01*
X333Y11665D01*
X258Y11608D01*
X201Y11533D01*
X166Y11447D01*
X153Y11354D01*
X166Y11262D01*
X201Y11175D01*
X258Y11101D01*
X333Y11044D01*
X419Y11008D01*
X512Y10996D01*
X605Y11008D01*
X691Y11044D01*
X765Y11101D01*
X822Y11175D01*
X858Y11262D01*
X870Y11354D01*
X858Y11447D01*
X822Y11533D01*
X765Y11608D01*
X691Y11665D01*
X605Y11700D01*
X512Y11713D01*
D02*
G37*
G36*
X4941Y10408D02*
X4868Y10394D01*
X4805Y10352D01*
X4783Y10318D01*
X3977D01*
X3954Y10352D01*
X3892Y10394D01*
X3819Y10408D01*
X3746Y10394D01*
X3683Y10352D01*
X3642Y10290D01*
X3627Y10217D01*
X3642Y10143D01*
X3683Y10081D01*
X3746Y10039D01*
X3819Y10025D01*
X3892Y10039D01*
X3954Y10081D01*
X3977Y10115D01*
X4783D01*
X4805Y10081D01*
X4868Y10039D01*
X4941Y10025D01*
X5014Y10039D01*
X5076Y10081D01*
X5118Y10143D01*
X5133Y10217D01*
X5118Y10290D01*
X5076Y10352D01*
X5014Y10394D01*
X4941Y10408D01*
D02*
G37*
G36*
X867Y10710D02*
X157D01*
Y9999D01*
X867D01*
Y10710D01*
D02*
G37*
G36*
X5282Y9585D02*
X5209Y9571D01*
X5146Y9529D01*
X5124Y9495D01*
X4433D01*
X4394Y9487D01*
X4361Y9465D01*
X4056Y9160D01*
X4016Y9168D01*
X3942Y9153D01*
X3880Y9112D01*
X3839Y9050D01*
X3824Y8976D01*
X3839Y8903D01*
X3880Y8841D01*
X3942Y8799D01*
X4016Y8785D01*
X4089Y8799D01*
X4151Y8841D01*
X4193Y8903D01*
X4207Y8976D01*
X4199Y9017D01*
X4475Y9292D01*
X5124D01*
X5146Y9258D01*
X5209Y9216D01*
X5282Y9202D01*
X5355Y9216D01*
X5417Y9258D01*
X5459Y9320D01*
X5474Y9394D01*
X5459Y9467D01*
X5417Y9529D01*
X5355Y9571D01*
X5282Y9585D01*
D02*
G37*
G36*
X3150Y6570D02*
X3076Y6555D01*
X3014Y6513D01*
X2973Y6451D01*
X2958Y6378D01*
X2973Y6305D01*
X3014Y6242D01*
X3076Y6201D01*
X3150Y6186D01*
X3190Y6194D01*
X3914Y5470D01*
Y5355D01*
X3880Y5332D01*
X3839Y5270D01*
X3824Y5197D01*
X3839Y5124D01*
X3880Y5061D01*
X3942Y5020D01*
X4016Y5005D01*
X4089Y5020D01*
X4151Y5061D01*
X4193Y5124D01*
X4207Y5197D01*
X4193Y5270D01*
X4151Y5332D01*
X4117Y5355D01*
Y5512D01*
X4109Y5551D01*
X4087Y5583D01*
X3333Y6338D01*
X3341Y6378D01*
X3327Y6451D01*
X3285Y6513D01*
X3223Y6555D01*
X3150Y6570D01*
D02*
G37*
G36*
X7756Y4815D02*
X7663Y4803D01*
X7577Y4767D01*
X7503Y4710D01*
X7446Y4636D01*
X7410Y4549D01*
X7398Y4457D01*
X7410Y4364D01*
X7446Y4278D01*
X7503Y4203D01*
X7577Y4146D01*
X7663Y4111D01*
X7756Y4098D01*
X7849Y4111D01*
X7935Y4146D01*
X8009Y4203D01*
X8066Y4278D01*
X8102Y4364D01*
X8114Y4457D01*
X8102Y4549D01*
X8066Y4636D01*
X8009Y4710D01*
X7935Y4767D01*
X7849Y4803D01*
X7756Y4815D01*
D02*
G37*
G36*
X2914Y2166D02*
X2204D01*
Y1456D01*
X2914D01*
Y2166D01*
D02*
G37*
G36*
X5559Y2169D02*
X5466Y2157D01*
X5380Y2121D01*
X5306Y2064D01*
X5249Y1990D01*
X5213Y1904D01*
X5201Y1811D01*
X5213Y1718D01*
X5249Y1632D01*
X5306Y1558D01*
X5380Y1501D01*
X5466Y1465D01*
X5559Y1453D01*
X5652Y1465D01*
X5738Y1501D01*
X5812Y1558D01*
X5869Y1632D01*
X5905Y1718D01*
X5917Y1811D01*
X5905Y1904D01*
X5869Y1990D01*
X5812Y2064D01*
X5738Y2121D01*
X5652Y2157D01*
X5559Y2169D01*
D02*
G37*
G36*
X3559D02*
X3466Y2157D01*
X3380Y2121D01*
X3306Y2064D01*
X3249Y1990D01*
X3213Y1904D01*
X3201Y1811D01*
X3213Y1718D01*
X3249Y1632D01*
X3306Y1558D01*
X3380Y1501D01*
X3466Y1465D01*
X3559Y1453D01*
X3652Y1465D01*
X3738Y1501D01*
X3812Y1558D01*
X3869Y1632D01*
X3905Y1718D01*
X3917Y1811D01*
X3905Y1904D01*
X3869Y1990D01*
X3812Y2064D01*
X3738Y2121D01*
X3652Y2157D01*
X3559Y2169D01*
D02*
G37*
G36*
X2914Y985D02*
X2204D01*
Y275D01*
X2914D01*
Y985D01*
D02*
G37*
G36*
X4559Y988D02*
X4466Y976D01*
X4380Y940D01*
X4306Y883D01*
X4249Y809D01*
X4213Y723D01*
X4201Y630D01*
X4213Y537D01*
X4249Y451D01*
X4306Y377D01*
X4380Y320D01*
X4466Y284D01*
X4559Y272D01*
X4652Y284D01*
X4738Y320D01*
X4812Y377D01*
X4869Y451D01*
X4905Y537D01*
X4917Y630D01*
X4905Y723D01*
X4869Y809D01*
X4812Y883D01*
X4738Y940D01*
X4652Y976D01*
X4559Y988D01*
D02*
G37*
%LPD*%
D21*
X2929Y1260D02*
X3559Y630D01*
X2165Y1260D02*
X2929D01*
X6594Y2697D02*
X6614Y2717D01*
X3150Y6378D02*
X4016Y5512D01*
Y5197D02*
Y5512D01*
X2992Y11181D02*
Y18858D01*
X2520Y11181D02*
Y17283D01*
X2283Y11417D02*
Y16496D01*
X2047Y12283D02*
Y15709D01*
X6457Y11417D02*
Y14134D01*
X6220Y11142D02*
Y14921D01*
X5984Y11417D02*
Y15709D01*
X6457Y11417D02*
X6732Y11142D01*
X6220D02*
X6220Y11142D01*
X5709Y11142D02*
X5984Y11417D01*
X2047Y11181D02*
X2283Y11417D01*
X2992Y9921D02*
X4439D01*
X2756Y9370D02*
Y18071D01*
X1772Y12008D02*
X2047Y12283D01*
X1417Y12126D02*
X1811Y12520D01*
Y14134D01*
X5512Y11771D02*
Y18071D01*
X5748Y11811D02*
Y18858D01*
X5039Y11889D02*
Y17283D01*
X5276Y11929D02*
Y16496D01*
X5394Y11457D02*
X5748Y11811D01*
X5236Y11495D02*
X5512Y11771D01*
X5039Y11693D02*
X5276Y11929D01*
X4882Y11732D02*
X5039Y11889D01*
X4016Y8976D02*
X4433Y9394D01*
X5282D01*
X3819Y10217D02*
X4941D01*
X5709Y11142D02*
X6496Y10354D01*
X7756D01*
X2992Y8110D02*
Y9921D01*
X1772Y9685D02*
Y12008D01*
X7283Y6929D02*
X7756Y6457D01*
X7126Y6087D02*
X7756Y5457D01*
X1417Y2008D02*
Y12126D01*
Y2008D02*
X2165Y1260D01*
X5394Y11102D02*
Y11457D01*
Y11102D02*
X7283Y9213D01*
Y6929D02*
Y9213D01*
X5236Y11063D02*
Y11495D01*
Y11063D02*
X7126Y9173D01*
Y6087D02*
Y9173D01*
X4882Y10866D02*
Y11732D01*
Y10866D02*
X6614Y9134D01*
Y2717D02*
Y9134D01*
X5039Y10945D02*
Y11693D01*
Y10945D02*
X6890Y9094D01*
Y2992D02*
Y9094D01*
X6299Y8031D02*
Y9016D01*
D22*
X4449Y8031D02*
X4984Y8567D01*
X4449Y4764D02*
Y8031D01*
X4984Y8567D02*
X5676D01*
D23*
X114Y8917D02*
Y9179D01*
X508D01*
Y8917D01*
X311Y9179D02*
Y9048D01*
X180Y8523D02*
X114Y8589D01*
Y8720D01*
X180Y8786D01*
X246D01*
X311Y8720D01*
Y8589D01*
X377Y8523D01*
X442D01*
X508Y8589D01*
Y8720D01*
X442Y8786D01*
X508Y8392D02*
X114D01*
Y8195D01*
X180Y8130D01*
X311D01*
X377Y8195D01*
Y8392D01*
X180Y7998D02*
X114Y7933D01*
Y7802D01*
X180Y7736D01*
X246D01*
X311Y7802D01*
X377Y7736D01*
X442D01*
X508Y7802D01*
Y7933D01*
X442Y7998D01*
X377D01*
X311Y7933D01*
X246Y7998D01*
X180D01*
X311Y7933D02*
Y7802D01*
X508Y7342D02*
Y7605D01*
X246Y7342D01*
X180D01*
X114Y7408D01*
Y7539D01*
X180Y7605D01*
X114Y6949D02*
X180Y7080D01*
X311Y7211D01*
X442D01*
X508Y7146D01*
Y7015D01*
X442Y6949D01*
X377D01*
X311Y7015D01*
Y7211D01*
X114Y6555D02*
X180Y6687D01*
X311Y6818D01*
X442D01*
X508Y6752D01*
Y6621D01*
X442Y6555D01*
X377D01*
X311Y6621D01*
Y6818D01*
X246Y6031D02*
X508Y5899D01*
X246Y5768D01*
X508Y5637D02*
Y5506D01*
Y5571D01*
X114D01*
X180Y5637D01*
X508Y5309D02*
X442D01*
Y5243D01*
X508D01*
Y5309D01*
X180Y4981D02*
X114Y4915D01*
Y4784D01*
X180Y4719D01*
X442D01*
X508Y4784D01*
Y4915D01*
X442Y4981D01*
X180D01*
X508Y4587D02*
X442D01*
Y4522D01*
X508D01*
Y4587D01*
X180Y4259D02*
X114Y4194D01*
Y4063D01*
X180Y3997D01*
X442D01*
X508Y4063D01*
Y4194D01*
X442Y4259D01*
X180D01*
X311Y3472D02*
Y3210D01*
X180Y2685D02*
X114Y2620D01*
Y2488D01*
X180Y2423D01*
X442D01*
X508Y2488D01*
Y2620D01*
X442Y2685D01*
X180D01*
X508Y2095D02*
X114D01*
X311Y2292D01*
Y2029D01*
X508Y1898D02*
X246Y1636D01*
X508Y1242D02*
Y1504D01*
X246Y1242D01*
X180D01*
X114Y1308D01*
Y1439D01*
X180Y1504D01*
Y1111D02*
X114Y1045D01*
Y914D01*
X180Y849D01*
X442D01*
X508Y914D01*
Y1045D01*
X442Y1111D01*
X180D01*
X508Y717D02*
Y586D01*
Y652D01*
X114D01*
X180Y717D01*
X114Y127D02*
X180Y258D01*
X311Y389D01*
X442D01*
X508Y324D01*
Y193D01*
X442Y127D01*
X377D01*
X311Y193D01*
Y389D01*
D24*
X2559Y630D02*
D03*
Y1811D02*
D03*
D25*
X3559Y630D02*
D03*
X4559D02*
D03*
X5559D02*
D03*
X3559Y1811D02*
D03*
X4559D02*
D03*
X5559D02*
D03*
X7756Y11354D02*
D03*
Y8874D02*
D03*
Y5457D02*
D03*
Y4457D02*
D03*
Y3457D02*
D03*
X512Y11354D02*
D03*
D26*
X7756Y10354D02*
D03*
Y7874D02*
D03*
Y6457D02*
D03*
X512Y10354D02*
D03*
D27*
X5380Y8705D02*
D03*
X5971D02*
D03*
Y8429D02*
D03*
X5380D02*
D03*
X5676Y8567D02*
D03*
D28*
X6594Y2697D02*
D03*
X6890Y2992D02*
D03*
X3150Y6378D02*
D03*
X1811Y14134D02*
D03*
X2047Y15709D02*
D03*
X2283Y16496D02*
D03*
X2520Y17283D02*
D03*
X2756Y18071D02*
D03*
X2992Y18858D02*
D03*
X6457Y14134D02*
D03*
X6220Y14921D02*
D03*
X5984Y15709D02*
D03*
X2992Y11181D02*
D03*
X2520Y11181D02*
D03*
X2047Y11181D02*
D03*
X5709Y11142D02*
D03*
X6220D02*
D03*
X6732D02*
D03*
X2992Y9921D02*
D03*
X2756Y9370D02*
D03*
X2992Y8110D02*
D03*
X5039Y17283D02*
D03*
X5276Y16496D02*
D03*
X4016Y8976D02*
D03*
X5282Y9394D02*
D03*
X4941Y10217D02*
D03*
X3819D02*
D03*
X1772Y9685D02*
D03*
X4439Y9921D02*
D03*
X5748Y18858D02*
D03*
X5512Y18071D02*
D03*
X4016Y5197D02*
D03*
X6299Y9016D02*
D03*
Y8031D02*
D03*
M02*
