M48
;Layer_Color=9474304
;FILE_FORMAT=2:5
INCH,LZ
;TYPE=PLATED
T1F00S00C0.01181
T2F00S00C0.03543
T3F00S00C0.04000
%
T01
X0140748Y0005906
X0143701Y001378
X0147244Y0022047
X0148819Y0046063
X0151181Y0051487
X0155118Y0041339
X0163386Y004626
X0171102Y0041339
X0181102Y0051487
X0188189Y0055905
Y0046654
Y003622
X0191929Y0018701
Y0004921
X0237205Y0010827
Y0044291
X0234252Y0051487
X0224252Y0041339
X0209646Y004626
X0236221Y0073819
X0223425Y0087598
X0229331Y0104331
X0226378Y011063
Y0129921
X0232283
X0216929Y0125984
X0214567
X0212205
X021063Y0129921
X019685Y0127165
X0194488
X0192126
X0175984Y0130315
X0156299Y0122047
X0145276Y011811
X0165354Y0111221
X0172244Y0094488
X0187992Y008563
X0195866Y0100394
X012804Y0101487
X0124409Y0128347
X0140551Y0064961
X0119095Y0062992
X011811Y0077756
X0117126Y0093504
Y0121063
X0082677
X0085433Y0124952
X0064961Y0119095
X0038386Y0132874
X0016732
X0003937Y011811
Y0089567
X0037402Y0104331
X0119095Y004626
Y0034449
Y0004921
X0211024Y0134646
T02
X0151102Y0005906
X0161102
X0171102
X0181102
Y0017717
X0171102
X0161102
X0151102
X0204252
X0214252
X0224252
X0234252
Y0005906
X0224252
X0214252
X0204252
X0233858Y011063
Y012063
X0181102Y0120079
X0171102
X0161102
X0151102
Y013189
X0161102
X0171102
X0181102
X0052362Y0109449
X0042362
X0032362
X0022362
Y0099449
X0032362
X0042362
X0052362
T03
X0134252Y0016378
Y0026378
Y0036378
Y0046378
Y0056378
Y0066378
Y0076378
Y0086378
Y0096378
Y0106378
Y0116378
Y0126378
X0074252
Y0116378
Y0106378
Y0096378
Y0086378
Y0076378
Y0066378
Y0056378
Y0046378
Y0036378
Y0026378
Y0016378
X0085752Y0050878
Y0060878
Y0091878
Y0101878
M30
