G04 Layer_Color=16711935*
%FSLAX24Y24*%
%MOIN*%
G70*
G01*
G75*
%ADD50C,0.0671*%
%ADD51R,0.0671X0.0671*%
%ADD52C,0.0820*%
%ADD53R,0.0671X0.0671*%
%ADD54C,0.0356*%
D50*
X2236Y9945D02*
D03*
Y10945D02*
D03*
X3236Y9945D02*
D03*
Y10945D02*
D03*
X4236Y9945D02*
D03*
Y10945D02*
D03*
X5236Y9945D02*
D03*
X23425Y591D02*
D03*
X22425D02*
D03*
X21425D02*
D03*
X15110Y1772D02*
D03*
X16110D02*
D03*
X17110D02*
D03*
X15110Y13189D02*
D03*
X16110D02*
D03*
X17110D02*
D03*
X20425Y1772D02*
D03*
X21425D02*
D03*
X22425D02*
D03*
X18110Y591D02*
D03*
X17110D02*
D03*
X16110D02*
D03*
X18110Y12008D02*
D03*
X17110D02*
D03*
X16110D02*
D03*
X23386Y12063D02*
D03*
D51*
X5236Y10945D02*
D03*
X23386Y11063D02*
D03*
D52*
X8575Y5088D02*
D03*
Y6088D02*
D03*
Y9188D02*
D03*
Y10188D02*
D03*
X7425Y12638D02*
D03*
Y11638D02*
D03*
Y10638D02*
D03*
Y9638D02*
D03*
Y8638D02*
D03*
Y7638D02*
D03*
Y6638D02*
D03*
Y5638D02*
D03*
Y4638D02*
D03*
Y3638D02*
D03*
Y2638D02*
D03*
Y1638D02*
D03*
X13425D02*
D03*
Y2638D02*
D03*
Y3638D02*
D03*
Y4638D02*
D03*
Y5638D02*
D03*
Y6638D02*
D03*
Y7638D02*
D03*
Y8638D02*
D03*
Y9638D02*
D03*
Y10638D02*
D03*
Y11638D02*
D03*
Y12638D02*
D03*
D53*
X20425Y591D02*
D03*
X18110Y1772D02*
D03*
Y13189D02*
D03*
X23425Y1772D02*
D03*
X15110Y591D02*
D03*
Y12008D02*
D03*
D54*
X21457Y12598D02*
D03*
X21693D02*
D03*
X21220D02*
D03*
X21102Y13465D02*
D03*
X17598Y13032D02*
D03*
X14724Y2205D02*
D03*
X14370Y1378D02*
D03*
X14055Y6496D02*
D03*
X14882Y4606D02*
D03*
X15630Y12205D02*
D03*
X14528Y11811D02*
D03*
X12441Y12835D02*
D03*
X8543Y12495D02*
D03*
X3740Y10433D02*
D03*
X1673Y13287D02*
D03*
X394Y8957D02*
D03*
Y11811D02*
D03*
X3839Y13287D02*
D03*
X6496Y11909D02*
D03*
X8268Y12106D02*
D03*
X11713D02*
D03*
Y9350D02*
D03*
X11811Y7776D02*
D03*
X11909Y6299D02*
D03*
Y4626D02*
D03*
Y3445D02*
D03*
X14075Y591D02*
D03*
X11909Y492D02*
D03*
X16339Y4626D02*
D03*
X20965D02*
D03*
X19193Y1870D02*
D03*
Y492D02*
D03*
X23720Y1083D02*
D03*
Y4429D02*
D03*
X23622Y7382D02*
D03*
X17224Y9449D02*
D03*
X18799Y8563D02*
D03*
X22343Y8760D02*
D03*
X16535Y11122D02*
D03*
X19587Y10039D02*
D03*
X22933Y10433D02*
D03*
X23228Y12992D02*
D03*
X18819Y5591D02*
D03*
X22638Y11063D02*
D03*
Y12992D02*
D03*
X19213Y12717D02*
D03*
X19449D02*
D03*
X19685D02*
D03*
X21063Y12992D02*
D03*
X18819Y4665D02*
D03*
Y3622D02*
D03*
X15118Y5149D02*
D03*
X15512Y4134D02*
D03*
X17110D02*
D03*
X18110Y5149D02*
D03*
X23425D02*
D03*
X22425Y4134D02*
D03*
X12804Y10149D02*
D03*
M02*
