G04 Layer_Physical_Order=2*
G04 Layer_Color=255*
%FSLAX24Y24*%
%MOIN*%
G70*
G01*
G75*
%ADD23C,0.0118*%
%ADD24C,0.0394*%
%ADD26C,0.0197*%
%ADD27C,0.0059*%
%ADD28C,0.0591*%
%ADD29R,0.0591X0.0591*%
%ADD30C,0.0740*%
%ADD31R,0.0591X0.0591*%
%ADD32C,0.0276*%
G36*
X23894Y121D02*
X11614D01*
Y6622D01*
X12918Y7926D01*
X12953Y7978D01*
X12966Y8040D01*
Y8493D01*
X13016Y8503D01*
X13050Y8421D01*
X13119Y8331D01*
X13208Y8262D01*
X13313Y8219D01*
X13425Y8204D01*
X13537Y8219D01*
X13642Y8262D01*
X13732Y8331D01*
X13801Y8421D01*
X13844Y8526D01*
X13859Y8638D01*
X13844Y8750D01*
X13801Y8855D01*
X13732Y8944D01*
X13642Y9013D01*
X13537Y9057D01*
X13425Y9072D01*
X13313Y9057D01*
X13208Y9013D01*
X13119Y8944D01*
X13050Y8855D01*
X13016Y8772D01*
X12966Y8782D01*
Y9493D01*
X13016Y9503D01*
X13050Y9421D01*
X13119Y9331D01*
X13208Y9262D01*
X13313Y9219D01*
X13425Y9204D01*
X13537Y9219D01*
X13642Y9262D01*
X13732Y9331D01*
X13801Y9421D01*
X13844Y9526D01*
X13859Y9638D01*
X13844Y9750D01*
X13801Y9855D01*
X13732Y9944D01*
X13642Y10013D01*
X13537Y10057D01*
X13425Y10072D01*
X13313Y10057D01*
X13208Y10013D01*
X13119Y9944D01*
X13050Y9855D01*
X13016Y9772D01*
X12966Y9782D01*
Y10034D01*
X12990Y10072D01*
X13006Y10149D01*
X12990Y10226D01*
X12947Y10291D01*
X12881Y10335D01*
X12804Y10350D01*
X12727Y10335D01*
X12661Y10291D01*
X12618Y10226D01*
X12602Y10149D01*
X12618Y10072D01*
X12642Y10034D01*
Y8107D01*
X11660Y7125D01*
X11614Y7144D01*
Y8268D01*
X11220Y8661D01*
X7856D01*
X7844Y8750D01*
X7801Y8855D01*
X7732Y8944D01*
X7642Y9013D01*
X7537Y9057D01*
X7425Y9072D01*
X7313Y9057D01*
X7208Y9013D01*
X7119Y8944D01*
X7050Y8855D01*
X7006Y8750D01*
X6995Y8661D01*
X121D01*
X121Y13658D01*
X23894D01*
Y121D01*
D02*
G37*
%LPC*%
G36*
X17110Y4336D02*
X17033Y4320D01*
X16968Y4276D01*
X16924Y4211D01*
X16909Y4134D01*
X16924Y4057D01*
X16968Y3991D01*
X16989Y3977D01*
Y2106D01*
X16931Y2082D01*
X16857Y2025D01*
X16800Y1951D01*
X16764Y1864D01*
X16752Y1772D01*
X16764Y1679D01*
X16800Y1592D01*
X16857Y1518D01*
X16931Y1461D01*
X17017Y1426D01*
X17110Y1413D01*
X17203Y1426D01*
X17289Y1461D01*
X17364Y1518D01*
X17421Y1592D01*
X17456Y1679D01*
X17469Y1772D01*
X17456Y1864D01*
X17421Y1951D01*
X17364Y2025D01*
X17289Y2082D01*
X17232Y2106D01*
Y3977D01*
X17253Y3991D01*
X17297Y4057D01*
X17312Y4134D01*
X17297Y4211D01*
X17253Y4276D01*
X17187Y4320D01*
X17110Y4336D01*
D02*
G37*
G36*
X23425Y5350D02*
X23348Y5335D01*
X23283Y5291D01*
X23239Y5226D01*
X23224Y5149D01*
X23239Y5072D01*
X23283Y5006D01*
X23304Y4992D01*
Y2132D01*
X23130D01*
X23084Y2113D01*
X23065Y2067D01*
Y1476D01*
X23084Y1430D01*
X23130Y1411D01*
X23720D01*
X23766Y1430D01*
X23785Y1476D01*
Y2067D01*
X23766Y2113D01*
X23720Y2132D01*
X23547D01*
Y4992D01*
X23568Y5006D01*
X23612Y5072D01*
X23627Y5149D01*
X23612Y5226D01*
X23568Y5291D01*
X23502Y5335D01*
X23425Y5350D01*
D02*
G37*
G36*
X20425Y2130D02*
X20332Y2118D01*
X20246Y2082D01*
X20172Y2025D01*
X20115Y1951D01*
X20079Y1864D01*
X20067Y1772D01*
X20079Y1679D01*
X20115Y1592D01*
X20172Y1518D01*
X20246Y1461D01*
X20332Y1426D01*
X20425Y1413D01*
X20518Y1426D01*
X20604Y1461D01*
X20679Y1518D01*
X20736Y1592D01*
X20771Y1679D01*
X20784Y1772D01*
X20771Y1864D01*
X20736Y1951D01*
X20679Y2025D01*
X20604Y2082D01*
X20518Y2118D01*
X20425Y2130D01*
D02*
G37*
G36*
X22425Y4336D02*
X22348Y4320D01*
X22283Y4276D01*
X22239Y4211D01*
X22224Y4134D01*
X22239Y4057D01*
X22283Y3991D01*
X22304Y3977D01*
Y2106D01*
X22246Y2082D01*
X22172Y2025D01*
X22115Y1951D01*
X22079Y1864D01*
X22067Y1772D01*
X22079Y1679D01*
X22115Y1592D01*
X22172Y1518D01*
X22246Y1461D01*
X22332Y1426D01*
X22425Y1413D01*
X22518Y1426D01*
X22604Y1461D01*
X22679Y1518D01*
X22736Y1592D01*
X22771Y1679D01*
X22784Y1772D01*
X22771Y1864D01*
X22736Y1951D01*
X22679Y2025D01*
X22604Y2082D01*
X22547Y2106D01*
Y3977D01*
X22568Y3991D01*
X22612Y4057D01*
X22627Y4134D01*
X22612Y4211D01*
X22568Y4276D01*
X22502Y4320D01*
X22425Y4336D01*
D02*
G37*
G36*
X13425Y3072D02*
X13313Y3057D01*
X13208Y3013D01*
X13119Y2944D01*
X13050Y2855D01*
X13006Y2750D01*
X12991Y2638D01*
X13006Y2526D01*
X13050Y2421D01*
X13119Y2331D01*
X13208Y2262D01*
X13313Y2219D01*
X13425Y2204D01*
X13537Y2219D01*
X13642Y2262D01*
X13732Y2331D01*
X13801Y2421D01*
X13844Y2526D01*
X13859Y2638D01*
X13844Y2750D01*
X13801Y2855D01*
X13732Y2944D01*
X13642Y3013D01*
X13537Y3057D01*
X13425Y3072D01*
D02*
G37*
G36*
X22425Y949D02*
X22332Y937D01*
X22246Y901D01*
X22172Y844D01*
X22115Y770D01*
X22079Y683D01*
X22067Y591D01*
X22079Y498D01*
X22115Y411D01*
X22172Y337D01*
X22246Y280D01*
X22332Y244D01*
X22425Y232D01*
X22518Y244D01*
X22604Y280D01*
X22679Y337D01*
X22736Y411D01*
X22771Y498D01*
X22784Y591D01*
X22771Y683D01*
X22736Y770D01*
X22679Y844D01*
X22604Y901D01*
X22518Y937D01*
X22425Y949D01*
D02*
G37*
G36*
X17110D02*
X17017Y937D01*
X16931Y901D01*
X16857Y844D01*
X16800Y770D01*
X16764Y683D01*
X16752Y591D01*
X16764Y498D01*
X16800Y411D01*
X16857Y337D01*
X16931Y280D01*
X17017Y244D01*
X17110Y232D01*
X17203Y244D01*
X17289Y280D01*
X17364Y337D01*
X17421Y411D01*
X17456Y498D01*
X17469Y591D01*
X17456Y683D01*
X17421Y770D01*
X17364Y844D01*
X17289Y901D01*
X17203Y937D01*
X17110Y949D01*
D02*
G37*
G36*
X20720Y951D02*
X20130D01*
X20084Y932D01*
X20065Y886D01*
Y295D01*
X20084Y249D01*
X20130Y230D01*
X20720D01*
X20766Y249D01*
X20785Y295D01*
Y886D01*
X20766Y932D01*
X20720Y951D01*
D02*
G37*
G36*
X18110Y5350D02*
X18033Y5335D01*
X17968Y5291D01*
X17924Y5226D01*
X17909Y5149D01*
X17924Y5072D01*
X17968Y5006D01*
X17989Y4992D01*
Y2132D01*
X17815D01*
X17769Y2113D01*
X17750Y2067D01*
Y1476D01*
X17769Y1430D01*
X17815Y1411D01*
X18406D01*
X18451Y1430D01*
X18470Y1476D01*
Y2067D01*
X18451Y2113D01*
X18406Y2132D01*
X18232D01*
Y4992D01*
X18253Y5006D01*
X18297Y5072D01*
X18312Y5149D01*
X18297Y5226D01*
X18253Y5291D01*
X18187Y5335D01*
X18110Y5350D01*
D02*
G37*
G36*
X13425Y2072D02*
X13313Y2057D01*
X13208Y2013D01*
X13119Y1944D01*
X13050Y1855D01*
X13006Y1750D01*
X12991Y1638D01*
X13006Y1526D01*
X13050Y1421D01*
X13119Y1331D01*
X13208Y1262D01*
X13313Y1219D01*
X13425Y1204D01*
X13537Y1219D01*
X13642Y1262D01*
X13732Y1331D01*
X13801Y1421D01*
X13844Y1526D01*
X13859Y1638D01*
X13844Y1750D01*
X13801Y1855D01*
X13732Y1944D01*
X13642Y2013D01*
X13537Y2057D01*
X13425Y2072D01*
D02*
G37*
G36*
Y8072D02*
X13313Y8057D01*
X13208Y8013D01*
X13119Y7944D01*
X13050Y7855D01*
X13006Y7750D01*
X12991Y7638D01*
X13006Y7526D01*
X13050Y7421D01*
X13119Y7331D01*
X13208Y7262D01*
X13313Y7219D01*
X13425Y7204D01*
X13537Y7219D01*
X13633Y7258D01*
X14288Y6603D01*
Y1772D01*
X14288Y1772D01*
X14297Y1725D01*
X14324Y1686D01*
X14775Y1234D01*
X14775Y1233D01*
X14760Y1184D01*
X14342D01*
X14216Y1310D01*
Y5968D01*
X14207Y6015D01*
X14180Y6054D01*
X14180Y6054D01*
X13805Y6430D01*
X13844Y6526D01*
X13859Y6638D01*
X13844Y6750D01*
X13801Y6855D01*
X13732Y6944D01*
X13642Y7013D01*
X13537Y7057D01*
X13425Y7072D01*
X13313Y7057D01*
X13208Y7013D01*
X13119Y6944D01*
X13050Y6855D01*
X13006Y6750D01*
X12991Y6638D01*
X13006Y6526D01*
X13050Y6421D01*
X13119Y6331D01*
X13208Y6262D01*
X13313Y6219D01*
X13425Y6204D01*
X13537Y6219D01*
X13633Y6258D01*
X13973Y5918D01*
Y1260D01*
X13973Y1260D01*
X13982Y1213D01*
X14009Y1174D01*
X14205Y977D01*
X14206Y977D01*
X14245Y951D01*
X14291Y942D01*
X14719D01*
X14752Y892D01*
X14750Y886D01*
Y295D01*
X14769Y249D01*
X14815Y230D01*
X15406D01*
X15451Y249D01*
X15470Y295D01*
Y886D01*
X15468Y892D01*
X15501Y942D01*
X15588D01*
X15788Y741D01*
X15764Y683D01*
X15752Y591D01*
X15764Y498D01*
X15800Y411D01*
X15857Y337D01*
X15931Y280D01*
X16017Y244D01*
X16110Y232D01*
X16203Y244D01*
X16289Y280D01*
X16364Y337D01*
X16421Y411D01*
X16456Y498D01*
X16469Y591D01*
X16456Y683D01*
X16421Y770D01*
X16364Y844D01*
X16289Y901D01*
X16203Y937D01*
X16110Y949D01*
X16017Y937D01*
X15960Y913D01*
X15724Y1148D01*
X15724Y1150D01*
X15739Y1198D01*
X15874D01*
X16017Y1056D01*
X16017Y1056D01*
X16056Y1030D01*
X16102Y1020D01*
X16102Y1020D01*
X20824D01*
X21103Y741D01*
X21079Y683D01*
X21067Y591D01*
X21079Y498D01*
X21115Y411D01*
X21172Y337D01*
X21246Y280D01*
X21332Y244D01*
X21425Y232D01*
X21518Y244D01*
X21604Y280D01*
X21679Y337D01*
X21736Y411D01*
X21771Y498D01*
X21784Y591D01*
X21771Y683D01*
X21736Y770D01*
X21679Y844D01*
X21604Y901D01*
X21518Y937D01*
X21425Y949D01*
X21332Y937D01*
X21275Y913D01*
X20960Y1228D01*
X20920Y1254D01*
X20874Y1263D01*
X20874Y1263D01*
X16153D01*
X16010Y1406D01*
X15971Y1432D01*
X15924Y1441D01*
X15924Y1441D01*
X15345D01*
X15328Y1491D01*
X15364Y1518D01*
X15421Y1592D01*
X15456Y1679D01*
X15469Y1772D01*
X15456Y1864D01*
X15421Y1951D01*
X15364Y2025D01*
X15289Y2082D01*
X15203Y2118D01*
X15110Y2130D01*
X15017Y2118D01*
X14931Y2082D01*
X14857Y2025D01*
X14800Y1951D01*
X14764Y1864D01*
X14752Y1772D01*
X14764Y1679D01*
X14778Y1646D01*
X14736Y1617D01*
X14531Y1822D01*
Y6654D01*
X14522Y6700D01*
X14495Y6739D01*
X14495Y6739D01*
X13805Y7430D01*
X13844Y7526D01*
X13859Y7638D01*
X13844Y7750D01*
X13801Y7855D01*
X13732Y7944D01*
X13642Y8013D01*
X13537Y8057D01*
X13425Y8072D01*
D02*
G37*
G36*
Y4072D02*
X13313Y4057D01*
X13208Y4013D01*
X13119Y3944D01*
X13050Y3855D01*
X13006Y3750D01*
X12991Y3638D01*
X13006Y3526D01*
X13050Y3421D01*
X13119Y3331D01*
X13208Y3262D01*
X13313Y3219D01*
X13425Y3204D01*
X13537Y3219D01*
X13642Y3262D01*
X13732Y3331D01*
X13801Y3421D01*
X13844Y3526D01*
X13859Y3638D01*
X13844Y3750D01*
X13801Y3855D01*
X13732Y3944D01*
X13642Y4013D01*
X13537Y4057D01*
X13425Y4072D01*
D02*
G37*
G36*
Y13072D02*
X13313Y13057D01*
X13208Y13013D01*
X13119Y12944D01*
X13050Y12855D01*
X13006Y12750D01*
X12991Y12638D01*
X13006Y12526D01*
X13050Y12421D01*
X13119Y12331D01*
X13208Y12262D01*
X13313Y12219D01*
X13425Y12204D01*
X13537Y12219D01*
X13642Y12262D01*
X13732Y12331D01*
X13801Y12421D01*
X13844Y12526D01*
X13859Y12638D01*
X13844Y12750D01*
X13801Y12855D01*
X13732Y12944D01*
X13642Y13013D01*
X13537Y13057D01*
X13425Y13072D01*
D02*
G37*
G36*
X2567Y11736D02*
X2567Y11736D01*
X1969D01*
X1969Y11736D01*
X1922Y11726D01*
X1883Y11700D01*
X1883Y11700D01*
X1528Y11346D01*
X1502Y11306D01*
X1493Y11260D01*
X1493Y11260D01*
Y9646D01*
X1493Y9646D01*
X1502Y9599D01*
X1528Y9560D01*
X2276Y8812D01*
X2276Y8812D01*
X2316Y8785D01*
X2362Y8776D01*
X2362Y8776D01*
X6685D01*
X6685Y8776D01*
X6731Y8785D01*
X6771Y8812D01*
X7217Y9258D01*
X7313Y9219D01*
X7425Y9204D01*
X7537Y9219D01*
X7642Y9262D01*
X7732Y9331D01*
X7801Y9421D01*
X7844Y9526D01*
X7859Y9638D01*
X7844Y9750D01*
X7801Y9855D01*
X7732Y9944D01*
X7642Y10013D01*
X7537Y10057D01*
X7425Y10072D01*
X7313Y10057D01*
X7208Y10013D01*
X7119Y9944D01*
X7050Y9855D01*
X7006Y9750D01*
X6991Y9638D01*
X7006Y9526D01*
X7046Y9430D01*
X6635Y9019D01*
X2412D01*
X1736Y9696D01*
Y11210D01*
X2019Y11493D01*
X2517D01*
X2914Y11095D01*
X2890Y11038D01*
X2878Y10945D01*
X2890Y10852D01*
X2926Y10766D01*
X2983Y10691D01*
X3057Y10635D01*
X3143Y10599D01*
X3236Y10587D01*
X3329Y10599D01*
X3415Y10635D01*
X3490Y10691D01*
X3547Y10766D01*
X3582Y10852D01*
X3595Y10945D01*
X3582Y11038D01*
X3547Y11124D01*
X3490Y11198D01*
X3415Y11255D01*
X3329Y11291D01*
X3236Y11303D01*
X3143Y11291D01*
X3086Y11267D01*
X2653Y11700D01*
X2613Y11726D01*
X2567Y11736D01*
D02*
G37*
G36*
X17110Y13547D02*
X17017Y13535D01*
X16931Y13499D01*
X16857Y13442D01*
X16800Y13368D01*
X16764Y13282D01*
X16752Y13189D01*
X16764Y13096D01*
X16788Y13038D01*
X16564Y12814D01*
X16265D01*
X16255Y12864D01*
X16289Y12879D01*
X16364Y12936D01*
X16421Y13010D01*
X16456Y13096D01*
X16469Y13189D01*
X16456Y13282D01*
X16421Y13368D01*
X16364Y13442D01*
X16289Y13499D01*
X16203Y13535D01*
X16110Y13547D01*
X16017Y13535D01*
X15931Y13499D01*
X15857Y13442D01*
X15800Y13368D01*
X15764Y13282D01*
X15752Y13189D01*
X15764Y13096D01*
X15800Y13010D01*
X15857Y12936D01*
X15931Y12879D01*
X15966Y12864D01*
X15956Y12814D01*
X14480D01*
X14434Y12805D01*
X14394Y12779D01*
X14394Y12779D01*
X13633Y12017D01*
X13537Y12057D01*
X13425Y12072D01*
X13313Y12057D01*
X13208Y12013D01*
X13119Y11944D01*
X13050Y11855D01*
X13006Y11750D01*
X12991Y11638D01*
X13006Y11526D01*
X13050Y11421D01*
X13119Y11331D01*
X13208Y11262D01*
X13313Y11219D01*
X13425Y11204D01*
X13537Y11219D01*
X13642Y11262D01*
X13732Y11331D01*
X13801Y11421D01*
X13844Y11526D01*
X13859Y11638D01*
X13844Y11750D01*
X13805Y11846D01*
X14527Y12568D01*
X14573Y12563D01*
X14591Y12519D01*
X14087Y12015D01*
X14061Y11976D01*
X14052Y11929D01*
X14052Y11929D01*
Y11436D01*
X13633Y11017D01*
X13537Y11057D01*
X13425Y11072D01*
X13313Y11057D01*
X13208Y11013D01*
X13119Y10944D01*
X13050Y10855D01*
X13006Y10750D01*
X12991Y10638D01*
X13006Y10526D01*
X13050Y10421D01*
X13119Y10331D01*
X13208Y10262D01*
X13313Y10219D01*
X13425Y10204D01*
X13537Y10219D01*
X13642Y10262D01*
X13732Y10331D01*
X13801Y10421D01*
X13844Y10526D01*
X13859Y10638D01*
X13844Y10750D01*
X13805Y10846D01*
X14259Y11300D01*
X14259Y11300D01*
X14285Y11339D01*
X14295Y11386D01*
Y11879D01*
X14700Y12284D01*
X14750Y12264D01*
Y11713D01*
X14769Y11667D01*
X14815Y11648D01*
X14989D01*
Y5300D01*
X14976Y5291D01*
X14932Y5226D01*
X14916Y5149D01*
X14932Y5072D01*
X14976Y5006D01*
X15041Y4962D01*
X15118Y4947D01*
X15195Y4962D01*
X15261Y5006D01*
X15304Y5072D01*
X15320Y5149D01*
X15304Y5226D01*
X15261Y5291D01*
X15232Y5311D01*
Y11648D01*
X15406D01*
X15451Y11667D01*
X15470Y11713D01*
Y12303D01*
X15468Y12309D01*
X15501Y12359D01*
X15905D01*
X15919Y12309D01*
X15857Y12261D01*
X15800Y12187D01*
X15764Y12101D01*
X15752Y12008D01*
X15764Y11915D01*
X15788Y11857D01*
X15426Y11495D01*
X15400Y11456D01*
X15390Y11409D01*
X15390Y11409D01*
Y4291D01*
X15369Y4276D01*
X15325Y4211D01*
X15310Y4134D01*
X15325Y4057D01*
X15369Y3991D01*
X15435Y3948D01*
X15512Y3932D01*
X15589Y3948D01*
X15654Y3991D01*
X15698Y4057D01*
X15713Y4134D01*
X15698Y4211D01*
X15654Y4276D01*
X15633Y4291D01*
Y11359D01*
X15960Y11686D01*
X16017Y11662D01*
X16110Y11650D01*
X16203Y11662D01*
X16289Y11698D01*
X16364Y11754D01*
X16421Y11829D01*
X16456Y11915D01*
X16469Y12008D01*
X16456Y12101D01*
X16421Y12187D01*
X16364Y12261D01*
X16301Y12309D01*
X16316Y12359D01*
X17905D01*
X17919Y12309D01*
X17857Y12261D01*
X17800Y12187D01*
X17764Y12101D01*
X17752Y12008D01*
X17764Y11915D01*
X17800Y11829D01*
X17851Y11762D01*
Y6299D01*
X17860Y6232D01*
X17886Y6170D01*
X17927Y6116D01*
X18560Y5483D01*
Y3622D01*
X18569Y3555D01*
X18595Y3493D01*
X18636Y3439D01*
X18689Y3398D01*
X18752Y3372D01*
X18819Y3363D01*
X18886Y3372D01*
X18948Y3398D01*
X19002Y3439D01*
X19043Y3493D01*
X19069Y3555D01*
X19078Y3622D01*
Y5591D01*
X19069Y5658D01*
X19043Y5720D01*
X19002Y5774D01*
X18369Y6407D01*
Y11762D01*
X18421Y11829D01*
X18456Y11915D01*
X18469Y12008D01*
X18456Y12101D01*
X18421Y12187D01*
X18364Y12261D01*
X18302Y12309D01*
X18316Y12359D01*
X18504D01*
X18504Y12359D01*
X18550Y12368D01*
X18590Y12394D01*
X19066Y12871D01*
X20906D01*
X20920Y12850D01*
X20986Y12806D01*
X21063Y12790D01*
X21140Y12806D01*
X21206Y12850D01*
X21249Y12915D01*
X21265Y12992D01*
X21249Y13069D01*
X21206Y13135D01*
X21140Y13178D01*
X21063Y13194D01*
X20986Y13178D01*
X20920Y13135D01*
X20906Y13114D01*
X19016D01*
X19016Y13114D01*
X18969Y13104D01*
X18930Y13078D01*
X18454Y12602D01*
X16765D01*
X16745Y12652D01*
X16960Y12867D01*
X17017Y12843D01*
X17110Y12831D01*
X17203Y12843D01*
X17289Y12879D01*
X17364Y12936D01*
X17421Y13010D01*
X17456Y13096D01*
X17469Y13189D01*
X17456Y13282D01*
X17421Y13368D01*
X17364Y13442D01*
X17289Y13499D01*
X17203Y13535D01*
X17110Y13547D01*
D02*
G37*
G36*
X7795Y13350D02*
X7795Y13350D01*
X5157D01*
X5157Y13350D01*
X5111Y13340D01*
X5072Y13314D01*
X5072Y13314D01*
X4150Y12393D01*
X4124Y12354D01*
X4115Y12307D01*
X4115Y12307D01*
Y11279D01*
X4057Y11255D01*
X3983Y11198D01*
X3926Y11124D01*
X3890Y11038D01*
X3878Y10945D01*
X3890Y10852D01*
X3926Y10766D01*
X3983Y10691D01*
X4057Y10635D01*
X4143Y10599D01*
X4236Y10587D01*
X4329Y10599D01*
X4415Y10635D01*
X4490Y10691D01*
X4547Y10766D01*
X4553Y10781D01*
X4603Y10771D01*
Y10483D01*
X4387Y10267D01*
X4329Y10291D01*
X4236Y10303D01*
X4143Y10291D01*
X4057Y10255D01*
X3983Y10198D01*
X3926Y10124D01*
X3890Y10038D01*
X3878Y9945D01*
X3890Y9852D01*
X3926Y9766D01*
X3975Y9702D01*
X3959Y9652D01*
X3701D01*
X3558Y9794D01*
X3582Y9852D01*
X3595Y9945D01*
X3582Y10038D01*
X3547Y10124D01*
X3490Y10198D01*
X3415Y10255D01*
X3329Y10291D01*
X3236Y10303D01*
X3143Y10291D01*
X3057Y10255D01*
X2993Y10206D01*
X2943Y10222D01*
Y10359D01*
X2943Y10359D01*
X2934Y10406D01*
X2908Y10445D01*
X2558Y10794D01*
X2582Y10852D01*
X2595Y10945D01*
X2582Y11038D01*
X2547Y11124D01*
X2490Y11198D01*
X2415Y11255D01*
X2329Y11291D01*
X2236Y11303D01*
X2143Y11291D01*
X2057Y11255D01*
X1983Y11198D01*
X1926Y11124D01*
X1890Y11038D01*
X1878Y10945D01*
X1890Y10852D01*
X1926Y10766D01*
X1983Y10691D01*
X2057Y10635D01*
X2143Y10599D01*
X2236Y10587D01*
X2329Y10599D01*
X2387Y10623D01*
X2700Y10309D01*
Y9501D01*
X2700Y9501D01*
X2710Y9454D01*
X2736Y9415D01*
X2985Y9166D01*
X2985Y9166D01*
X3024Y9140D01*
X3071Y9131D01*
X6039D01*
X6039Y9131D01*
X6086Y9140D01*
X6125Y9166D01*
X7217Y10258D01*
X7313Y10219D01*
X7425Y10204D01*
X7537Y10219D01*
X7642Y10262D01*
X7732Y10331D01*
X7801Y10421D01*
X7844Y10526D01*
X7859Y10638D01*
X7844Y10750D01*
X7801Y10855D01*
X7732Y10944D01*
X7642Y11013D01*
X7537Y11057D01*
X7425Y11072D01*
X7313Y11057D01*
X7208Y11013D01*
X7119Y10944D01*
X7050Y10855D01*
X7006Y10750D01*
X6991Y10638D01*
X7006Y10526D01*
X7046Y10430D01*
X5989Y9373D01*
X5491D01*
X5484Y9392D01*
X5482Y9423D01*
X5514Y9445D01*
X7296Y11226D01*
X7313Y11219D01*
X7425Y11204D01*
X7537Y11219D01*
X7642Y11262D01*
X7732Y11331D01*
X7801Y11421D01*
X7844Y11526D01*
X7859Y11638D01*
X7844Y11750D01*
X7801Y11855D01*
X7732Y11944D01*
X7642Y12013D01*
X7537Y12057D01*
X7425Y12072D01*
X7313Y12057D01*
X7208Y12013D01*
X7119Y11944D01*
X7050Y11855D01*
X7006Y11750D01*
X6991Y11638D01*
X7006Y11526D01*
X7050Y11421D01*
X7092Y11366D01*
X5638Y9912D01*
X5593Y9934D01*
X5595Y9945D01*
X5582Y10038D01*
X5547Y10124D01*
X5490Y10198D01*
X5415Y10255D01*
X5329Y10291D01*
X5236Y10303D01*
X5143Y10291D01*
X5057Y10255D01*
X4983Y10198D01*
X4926Y10124D01*
X4890Y10038D01*
X4878Y9945D01*
X4890Y9852D01*
X4926Y9766D01*
X4975Y9702D01*
X4959Y9652D01*
X4513D01*
X4498Y9702D01*
X4547Y9766D01*
X4582Y9852D01*
X4595Y9945D01*
X4582Y10038D01*
X4558Y10095D01*
X4810Y10347D01*
X4810Y10347D01*
X4837Y10387D01*
X4846Y10433D01*
X4846Y10433D01*
Y11839D01*
X5523Y12516D01*
X7010D01*
X7050Y12421D01*
X7119Y12331D01*
X7208Y12262D01*
X7313Y12219D01*
X7425Y12204D01*
X7537Y12219D01*
X7642Y12262D01*
X7732Y12331D01*
X7801Y12421D01*
X7844Y12526D01*
X7859Y12638D01*
X7844Y12750D01*
X7801Y12855D01*
X7732Y12944D01*
X7642Y13013D01*
X7537Y13057D01*
X7536Y13057D01*
X7539Y13107D01*
X7745D01*
X8344Y12508D01*
X8342Y12495D01*
X8357Y12418D01*
X8401Y12353D01*
X8466Y12309D01*
X8543Y12294D01*
X8620Y12309D01*
X8686Y12353D01*
X8730Y12418D01*
X8745Y12495D01*
X8730Y12572D01*
X8686Y12638D01*
X8620Y12682D01*
X8543Y12697D01*
X8506Y12689D01*
X7881Y13314D01*
X7842Y13340D01*
X7795Y13350D01*
D02*
G37*
G36*
X18406Y13549D02*
X17815D01*
X17769Y13530D01*
X17750Y13484D01*
Y12894D01*
X17769Y12848D01*
X17815Y12829D01*
X18406D01*
X18451Y12848D01*
X18470Y12894D01*
Y13484D01*
X18451Y13530D01*
X18406Y13549D01*
D02*
G37*
G36*
X22638Y13194D02*
X22561Y13178D01*
X22495Y13135D01*
X22451Y13069D01*
X22436Y12992D01*
X22451Y12915D01*
X22495Y12850D01*
X22516Y12835D01*
Y11220D01*
X22495Y11206D01*
X22451Y11140D01*
X22436Y11063D01*
X22451Y10986D01*
X22495Y10920D01*
X22561Y10877D01*
X22638Y10861D01*
X22715Y10877D01*
X22780Y10920D01*
X22824Y10986D01*
X22839Y11063D01*
X22824Y11140D01*
X22780Y11206D01*
X22759Y11220D01*
Y12835D01*
X22780Y12850D01*
X22824Y12915D01*
X22839Y12992D01*
X22824Y13069D01*
X22780Y13135D01*
X22715Y13178D01*
X22638Y13194D01*
D02*
G37*
G36*
X8575Y9622D02*
X8463Y9607D01*
X8358Y9563D01*
X8269Y9494D01*
X8200Y9405D01*
X8156Y9300D01*
X8141Y9188D01*
X8156Y9076D01*
X8200Y8971D01*
X8269Y8881D01*
X8358Y8812D01*
X8463Y8769D01*
X8575Y8754D01*
X8687Y8769D01*
X8792Y8812D01*
X8882Y8881D01*
X8951Y8971D01*
X8994Y9076D01*
X9009Y9188D01*
X8994Y9300D01*
X8951Y9405D01*
X8882Y9494D01*
X8792Y9563D01*
X8687Y9607D01*
X8575Y9622D01*
D02*
G37*
G36*
X13425Y6072D02*
X13313Y6057D01*
X13208Y6013D01*
X13119Y5944D01*
X13050Y5855D01*
X13006Y5750D01*
X12991Y5638D01*
X13006Y5526D01*
X13050Y5421D01*
X13119Y5331D01*
X13208Y5262D01*
X13313Y5219D01*
X13425Y5204D01*
X13537Y5219D01*
X13642Y5262D01*
X13732Y5331D01*
X13801Y5421D01*
X13844Y5526D01*
X13859Y5638D01*
X13844Y5750D01*
X13801Y5855D01*
X13732Y5944D01*
X13642Y6013D01*
X13537Y6057D01*
X13425Y6072D01*
D02*
G37*
G36*
X2236Y10303D02*
X2143Y10291D01*
X2057Y10255D01*
X1983Y10198D01*
X1926Y10124D01*
X1890Y10038D01*
X1878Y9945D01*
X1890Y9852D01*
X1926Y9766D01*
X1983Y9692D01*
X2057Y9635D01*
X2143Y9599D01*
X2236Y9587D01*
X2329Y9599D01*
X2415Y9635D01*
X2490Y9692D01*
X2547Y9766D01*
X2582Y9852D01*
X2595Y9945D01*
X2582Y10038D01*
X2547Y10124D01*
X2490Y10198D01*
X2415Y10255D01*
X2329Y10291D01*
X2236Y10303D01*
D02*
G37*
G36*
X23681Y11423D02*
X23091D01*
X23045Y11404D01*
X23026Y11358D01*
Y10768D01*
X23045Y10722D01*
X23091Y10703D01*
X23681D01*
X23727Y10722D01*
X23746Y10768D01*
Y11358D01*
X23727Y11404D01*
X23681Y11423D01*
D02*
G37*
G36*
X8575Y10622D02*
X8463Y10607D01*
X8358Y10563D01*
X8269Y10494D01*
X8200Y10405D01*
X8156Y10300D01*
X8141Y10188D01*
X8156Y10076D01*
X8200Y9971D01*
X8269Y9881D01*
X8358Y9812D01*
X8463Y9769D01*
X8575Y9754D01*
X8687Y9769D01*
X8792Y9812D01*
X8882Y9881D01*
X8951Y9971D01*
X8994Y10076D01*
X9009Y10188D01*
X8994Y10300D01*
X8951Y10405D01*
X8882Y10494D01*
X8792Y10563D01*
X8687Y10607D01*
X8575Y10622D01*
D02*
G37*
%LPD*%
D23*
X14291Y1063D02*
X15638D01*
X14094Y1260D02*
X14291Y1063D01*
X14094Y1260D02*
Y5968D01*
X8528Y12495D02*
X8543D01*
X7795Y13228D02*
X8528Y12495D01*
X6685Y8898D02*
X7425Y9638D01*
X2362Y8898D02*
X6685D01*
X1614Y9646D02*
X2362Y8898D01*
X1614Y11260D02*
X1969Y11614D01*
X1614Y9646D02*
Y11260D01*
X1969Y11614D02*
X2567D01*
X3236Y10945D01*
X22638Y11063D02*
Y12992D01*
X19016D02*
X21063D01*
X18504Y12480D02*
X19016Y12992D01*
X14724Y12480D02*
X18504D01*
X14173Y11929D02*
X14724Y12480D01*
X14173Y11386D02*
Y11929D01*
X13425Y10638D02*
X14173Y11386D01*
X13425Y11638D02*
X14480Y12693D01*
X16614D01*
X14861Y1320D02*
X15924D01*
X14409Y1772D02*
X14861Y1320D01*
X14409Y1772D02*
Y6654D01*
X16102Y1142D02*
X20874D01*
X15924Y1320D02*
X16102Y1142D01*
X15638Y1063D02*
X16110Y591D01*
X20874Y1142D02*
X21425Y591D01*
X13425Y7638D02*
X14409Y6654D01*
X13425Y6638D02*
X14094Y5968D01*
X22425Y1772D02*
Y4134D01*
X23425Y1772D02*
Y5149D01*
X18110Y1772D02*
Y5149D01*
X17110Y1772D02*
Y4134D01*
X16614Y12693D02*
X17110Y13189D01*
X15512Y11409D02*
X16110Y12008D01*
X15512Y4134D02*
Y11409D01*
X15110Y5149D02*
Y12008D01*
X5157Y13228D02*
X7795D01*
X4236Y12307D02*
X5157Y13228D01*
X4236Y10945D02*
Y12307D01*
X2236Y10945D02*
X2822Y10359D01*
Y9501D02*
Y10359D01*
Y9501D02*
X3071Y9252D01*
X6039D01*
X7425Y10638D01*
X3236Y9945D02*
X3651Y9531D01*
X5428D01*
X7425Y11527D01*
Y11638D01*
X4236Y9945D02*
X4724Y10433D01*
Y11890D01*
X5472Y12638D01*
X7425D01*
Y9638D02*
Y9677D01*
X13409Y6654D02*
X13425Y6638D01*
D24*
X18110Y6299D02*
X18819Y5591D01*
X18110Y6299D02*
Y12008D01*
X18819Y3622D02*
Y5591D01*
D26*
X7425Y2638D02*
X12047D01*
X7425Y4638D02*
X7732Y4331D01*
X9094D01*
X12804Y8040D01*
Y10149D01*
D27*
X4528Y1067D02*
Y1460D01*
X4265Y1067D01*
Y1460D01*
X4134Y1067D02*
Y1460D01*
X3937D01*
X3872Y1395D01*
Y1264D01*
X3937Y1198D01*
X4134D01*
X4003D02*
X3872Y1067D01*
X3478Y1460D02*
X3741D01*
Y1264D01*
X3609D01*
X3741D01*
Y1067D01*
X2954Y1329D02*
X2822Y1067D01*
X2691Y1329D01*
X2560Y1067D02*
X2429D01*
X2494D01*
Y1460D01*
X2560Y1395D01*
X2232Y1067D02*
Y1132D01*
X2166D01*
Y1067D01*
X2232D01*
X1904Y1395D02*
X1838Y1460D01*
X1707D01*
X1642Y1395D01*
Y1132D01*
X1707Y1067D01*
X1838D01*
X1904Y1132D01*
Y1395D01*
X1510Y1067D02*
Y1132D01*
X1445D01*
Y1067D01*
X1510D01*
X1182Y1395D02*
X1117Y1460D01*
X986D01*
X920Y1395D01*
Y1132D01*
X986Y1067D01*
X1117D01*
X1182Y1132D01*
Y1395D01*
X4003Y781D02*
X3937Y846D01*
X3806D01*
X3741Y781D01*
Y518D01*
X3806Y453D01*
X3937D01*
X4003Y518D01*
Y781D01*
X3347Y846D02*
X3609D01*
Y650D01*
X3478Y715D01*
X3413D01*
X3347Y650D01*
Y518D01*
X3413Y453D01*
X3544D01*
X3609Y518D01*
X3216Y453D02*
X2954Y715D01*
X2560Y453D02*
X2822D01*
X2560Y715D01*
Y781D01*
X2626Y846D01*
X2757D01*
X2822Y781D01*
X2429D02*
X2363Y846D01*
X2232D01*
X2166Y781D01*
Y518D01*
X2232Y453D01*
X2363D01*
X2429Y518D01*
Y781D01*
X2035Y453D02*
X1904D01*
X1970D01*
Y846D01*
X2035Y781D01*
X1707Y846D02*
X1445D01*
Y781D01*
X1707Y518D01*
Y453D01*
D28*
X2236Y9945D02*
D03*
Y10945D02*
D03*
X3236Y9945D02*
D03*
Y10945D02*
D03*
X4236Y9945D02*
D03*
Y10945D02*
D03*
X5236Y9945D02*
D03*
X23425Y591D02*
D03*
X22425D02*
D03*
X21425D02*
D03*
X15110Y1772D02*
D03*
X16110D02*
D03*
X17110D02*
D03*
X15110Y13189D02*
D03*
X16110D02*
D03*
X17110D02*
D03*
X20425Y1772D02*
D03*
X21425D02*
D03*
X22425D02*
D03*
X18110Y591D02*
D03*
X17110D02*
D03*
X16110D02*
D03*
X18110Y12008D02*
D03*
X17110D02*
D03*
X16110D02*
D03*
X23386Y12063D02*
D03*
D29*
X5236Y10945D02*
D03*
X23386Y11063D02*
D03*
D30*
X8575Y5088D02*
D03*
Y6088D02*
D03*
Y9188D02*
D03*
Y10188D02*
D03*
X7425Y12638D02*
D03*
Y11638D02*
D03*
Y10638D02*
D03*
Y9638D02*
D03*
Y8638D02*
D03*
Y7638D02*
D03*
Y6638D02*
D03*
Y5638D02*
D03*
Y4638D02*
D03*
Y3638D02*
D03*
Y2638D02*
D03*
Y1638D02*
D03*
X13425D02*
D03*
Y2638D02*
D03*
Y3638D02*
D03*
Y4638D02*
D03*
Y5638D02*
D03*
Y6638D02*
D03*
Y7638D02*
D03*
Y8638D02*
D03*
Y9638D02*
D03*
Y10638D02*
D03*
Y11638D02*
D03*
Y12638D02*
D03*
D31*
X20425Y591D02*
D03*
X18110Y1772D02*
D03*
Y13189D02*
D03*
X23425Y1772D02*
D03*
X15110Y591D02*
D03*
Y12008D02*
D03*
D32*
X21457Y12598D02*
D03*
X21693D02*
D03*
X21220D02*
D03*
X21102Y13465D02*
D03*
X17598Y13032D02*
D03*
X14724Y2205D02*
D03*
X14370Y1378D02*
D03*
X14055Y6496D02*
D03*
X14882Y4606D02*
D03*
X15630Y12205D02*
D03*
X14528Y11811D02*
D03*
X12441Y12835D02*
D03*
X8543Y12495D02*
D03*
X3740Y10433D02*
D03*
X1673Y13287D02*
D03*
X394Y8957D02*
D03*
Y11811D02*
D03*
X3839Y13287D02*
D03*
X6496Y11909D02*
D03*
X8268Y12106D02*
D03*
X11713D02*
D03*
Y9350D02*
D03*
X11811Y7776D02*
D03*
X11909Y6299D02*
D03*
Y4626D02*
D03*
Y3445D02*
D03*
X14075Y591D02*
D03*
X11909Y492D02*
D03*
X16339Y4626D02*
D03*
X20965D02*
D03*
X19193Y1870D02*
D03*
Y492D02*
D03*
X23720Y1083D02*
D03*
Y4429D02*
D03*
X23622Y7382D02*
D03*
X17224Y9449D02*
D03*
X18799Y8563D02*
D03*
X22343Y8760D02*
D03*
X16535Y11122D02*
D03*
X19587Y10039D02*
D03*
X22933Y10433D02*
D03*
X23228Y12992D02*
D03*
X18819Y5591D02*
D03*
X22638Y11063D02*
D03*
Y12992D02*
D03*
X19213Y12717D02*
D03*
X19449D02*
D03*
X19685D02*
D03*
X21063Y12992D02*
D03*
X18819Y4665D02*
D03*
Y3622D02*
D03*
X15118Y5149D02*
D03*
X15512Y4134D02*
D03*
X17110D02*
D03*
X18110Y5149D02*
D03*
X23425D02*
D03*
X22425Y4134D02*
D03*
X12804Y10149D02*
D03*
M02*
