G04 Layer_Color=8388736*
%FSLAX24Y24*%
%MOIN*%
G70*
G01*
G75*
%ADD37R,0.0474X0.0631*%
%ADD38R,0.0150X0.0335*%
%ADD39R,0.0415X0.0336*%
%ADD40R,0.0336X0.0415*%
%ADD41R,0.0513X0.0316*%
%ADD42C,0.0787*%
%ADD43R,0.0787X0.0787*%
%ADD44R,0.1143X0.0474*%
%ADD45R,0.0415X0.0434*%
%ADD46R,0.0434X0.0415*%
%ADD47R,0.0631X0.0474*%
%ADD48R,0.0552X0.0769*%
%ADD49R,0.0769X0.0552*%
%ADD50C,0.0671*%
%ADD51R,0.0671X0.0671*%
%ADD52C,0.0820*%
%ADD53R,0.0671X0.0671*%
%ADD54C,0.0356*%
D37*
X17490Y11024D02*
D03*
X18100D02*
D03*
X21014Y2835D02*
D03*
X20404D02*
D03*
X15738D02*
D03*
X15128D02*
D03*
X5246Y12402D02*
D03*
X5856D02*
D03*
D38*
X20945Y11998D02*
D03*
X20748D02*
D03*
X20551D02*
D03*
X20945Y11545D02*
D03*
X20748D02*
D03*
X20551D02*
D03*
D39*
X19409Y4075D02*
D03*
Y4665D02*
D03*
Y5177D02*
D03*
Y5768D02*
D03*
X16122Y7549D02*
D03*
Y8140D02*
D03*
X16673Y8140D02*
D03*
Y7549D02*
D03*
X18750Y7283D02*
D03*
Y7874D02*
D03*
D40*
X21476Y13032D02*
D03*
X22067D02*
D03*
X22067Y11181D02*
D03*
X21476D02*
D03*
D41*
X18228Y7165D02*
D03*
Y7913D02*
D03*
X17461Y7539D02*
D03*
D42*
X23031Y3150D02*
D03*
D43*
X787Y12992D02*
D03*
D44*
X20748Y9803D02*
D03*
Y10669D02*
D03*
D45*
X21496Y12224D02*
D03*
Y11713D02*
D03*
X20000Y11988D02*
D03*
Y11476D02*
D03*
D46*
X20098Y12638D02*
D03*
X20610D02*
D03*
X5335Y11772D02*
D03*
X5846D02*
D03*
D47*
X22165Y12431D02*
D03*
Y11821D02*
D03*
X6496Y3317D02*
D03*
Y3927D02*
D03*
D48*
X5886Y13189D02*
D03*
X4823D02*
D03*
D49*
X19252Y11201D02*
D03*
Y12264D02*
D03*
D50*
X2236Y9945D02*
D03*
Y10945D02*
D03*
X3236Y9945D02*
D03*
Y10945D02*
D03*
X4236Y9945D02*
D03*
Y10945D02*
D03*
X5236Y9945D02*
D03*
X23425Y591D02*
D03*
X22425D02*
D03*
X21425D02*
D03*
X15110Y1772D02*
D03*
X16110D02*
D03*
X17110D02*
D03*
X15110Y13189D02*
D03*
X16110D02*
D03*
X17110D02*
D03*
X20425Y1772D02*
D03*
X21425D02*
D03*
X22425D02*
D03*
X18110Y591D02*
D03*
X17110D02*
D03*
X16110D02*
D03*
X18110Y12008D02*
D03*
X17110D02*
D03*
X16110D02*
D03*
X23386Y12063D02*
D03*
D51*
X5236Y10945D02*
D03*
X23386Y11063D02*
D03*
D52*
X8575Y5088D02*
D03*
Y6088D02*
D03*
Y9188D02*
D03*
Y10188D02*
D03*
X7425Y12638D02*
D03*
Y11638D02*
D03*
Y10638D02*
D03*
Y9638D02*
D03*
Y8638D02*
D03*
Y7638D02*
D03*
Y6638D02*
D03*
Y5638D02*
D03*
Y4638D02*
D03*
Y3638D02*
D03*
Y2638D02*
D03*
Y1638D02*
D03*
X13425D02*
D03*
Y2638D02*
D03*
Y3638D02*
D03*
Y4638D02*
D03*
Y5638D02*
D03*
Y6638D02*
D03*
Y7638D02*
D03*
Y8638D02*
D03*
Y9638D02*
D03*
Y10638D02*
D03*
Y11638D02*
D03*
Y12638D02*
D03*
D53*
X20425Y591D02*
D03*
X18110Y1772D02*
D03*
Y13189D02*
D03*
X23425Y1772D02*
D03*
X15110Y591D02*
D03*
Y12008D02*
D03*
D54*
X21457Y12598D02*
D03*
X21693D02*
D03*
X21220D02*
D03*
X21102Y13465D02*
D03*
X17598Y13032D02*
D03*
X14724Y2205D02*
D03*
X14370Y1378D02*
D03*
X14055Y6496D02*
D03*
X14882Y4606D02*
D03*
X15630Y12205D02*
D03*
X14528Y11811D02*
D03*
X12441Y12835D02*
D03*
X8543Y12495D02*
D03*
X3740Y10433D02*
D03*
X1673Y13287D02*
D03*
X394Y8957D02*
D03*
Y11811D02*
D03*
X3839Y13287D02*
D03*
X6496Y11909D02*
D03*
X8268Y12106D02*
D03*
X11713D02*
D03*
Y9350D02*
D03*
X11811Y7776D02*
D03*
X11909Y6299D02*
D03*
Y4626D02*
D03*
Y3445D02*
D03*
X14075Y591D02*
D03*
X11909Y492D02*
D03*
X16339Y4626D02*
D03*
X20965D02*
D03*
X19193Y1870D02*
D03*
Y492D02*
D03*
X23720Y1083D02*
D03*
Y4429D02*
D03*
X23622Y7382D02*
D03*
X17224Y9449D02*
D03*
X18799Y8563D02*
D03*
X22343Y8760D02*
D03*
X16535Y11122D02*
D03*
X19587Y10039D02*
D03*
X22933Y10433D02*
D03*
X23228Y12992D02*
D03*
X18819Y5591D02*
D03*
X22638Y11063D02*
D03*
Y12992D02*
D03*
X19213Y12717D02*
D03*
X19449D02*
D03*
X19685D02*
D03*
X21063Y12992D02*
D03*
X18819Y4665D02*
D03*
Y3622D02*
D03*
X15118Y5149D02*
D03*
X15512Y4134D02*
D03*
X17110D02*
D03*
X18110Y5149D02*
D03*
X23425D02*
D03*
X22425Y4134D02*
D03*
X12804Y10149D02*
D03*
M02*
