G04*
G04 #@! TF.GenerationSoftware,Altium Limited,Altium Designer,26.3.0 (6)*
G04*
G04 Layer_Physical_Order=2*
G04 Layer_Color=16711680*
%FSLAX25Y25*%
%MOIN*%
G70*
G04*
G04 #@! TF.SameCoordinates,EE2F418E-1566-404E-9DB7-E08F96EC3AE6*
G04*
G04*
G04 #@! TF.FilePolarity,Positive*
G04*
G01*
G75*
%ADD12C,0.00591*%
%ADD13C,0.00787*%
%ADD41R,0.05906X0.05906*%
%ADD42R,0.05906X0.05906*%
%ADD43C,0.19685*%
%ADD44C,0.01968*%
%ADD45C,0.02756*%
%ADD46C,0.03150*%
G36*
X82038Y40575D02*
X81576Y40384D01*
X81542Y40418D01*
X80746Y40748D01*
X79884D01*
X79088Y40418D01*
X78479Y39809D01*
X78150Y39013D01*
Y38152D01*
X78479Y37356D01*
X79088Y36747D01*
X79884Y36417D01*
X80746D01*
X81542Y36747D01*
X81576Y36781D01*
X81901Y36647D01*
X82038Y36536D01*
Y17450D01*
X82087Y17333D01*
X82087Y17205D01*
X82124Y17116D01*
X82124Y17116D01*
X82124Y17116D01*
X82124Y17115D01*
X82214Y17026D01*
X82225Y16998D01*
X82253Y16986D01*
X82341Y16898D01*
X82352Y16871D01*
X82380Y16859D01*
X82470Y16770D01*
X82470Y16770D01*
X82470Y16770D01*
X82470Y16770D01*
X82560Y16732D01*
X82687Y16732D01*
X82804Y16684D01*
X94361D01*
X94478Y16732D01*
X94606Y16732D01*
X94696Y16770D01*
X94696Y16770D01*
X94696Y16770D01*
X94696Y16770D01*
X94785Y16859D01*
X94813Y16871D01*
X94824Y16898D01*
X94913Y16986D01*
X94940Y16998D01*
X94952Y17026D01*
X95042Y17115D01*
X95042Y17116D01*
X95042Y17116D01*
X95042Y17116D01*
X95079Y17205D01*
X95079Y17333D01*
X95127Y17450D01*
Y35562D01*
X99871Y40306D01*
X116103D01*
Y2007D01*
X93307D01*
Y7873D01*
X54867D01*
Y2007D01*
X53937D01*
Y7873D01*
X25337D01*
Y2007D01*
X2007D01*
Y58151D01*
X2507Y58271D01*
X2888Y57524D01*
X3853Y56195D01*
X5014Y55034D01*
X6343Y54069D01*
X7806Y53323D01*
X9368Y52816D01*
X10990Y52559D01*
X12632D01*
X14254Y52816D01*
X15816Y53323D01*
X17279Y54069D01*
X18608Y55034D01*
X19769Y56195D01*
X20734Y57524D01*
X21480Y58987D01*
X21987Y60549D01*
X22244Y62171D01*
Y63813D01*
X21987Y65435D01*
X21480Y66997D01*
X20734Y68460D01*
X19769Y69789D01*
X18608Y70950D01*
X17279Y71915D01*
X16532Y72296D01*
X16652Y72796D01*
X82038D01*
Y40575D01*
D02*
G37*
G36*
X116103Y40945D02*
X99606D01*
X99419Y40758D01*
X94675Y36014D01*
X94488Y35827D01*
Y35562D01*
Y17450D01*
X94451Y17360D01*
X94361Y17323D01*
X82804D01*
X82714Y17360D01*
X82677Y17450D01*
Y36590D01*
Y72796D01*
X116103D01*
Y40945D01*
D02*
G37*
%LPC*%
G36*
X37045Y48228D02*
X36184D01*
X35388Y47899D01*
X34778Y47290D01*
X34686Y47067D01*
X25748D01*
X25364Y46990D01*
X25038Y46773D01*
X19211Y40945D01*
X13543D01*
Y33858D01*
X20630D01*
Y39526D01*
X26164Y45059D01*
X34686D01*
X34778Y44836D01*
X35388Y44227D01*
X36184Y43898D01*
X37045D01*
X37841Y44227D01*
X38450Y44836D01*
X38780Y45632D01*
Y46494D01*
X38450Y47290D01*
X37841Y47899D01*
X37045Y48228D01*
D02*
G37*
G36*
X20630Y50945D02*
X13543D01*
Y43858D01*
X20630D01*
Y50945D01*
D02*
G37*
G36*
X10630D02*
X3543D01*
Y43858D01*
X10630D01*
Y50945D01*
D02*
G37*
G36*
X53187Y44685D02*
X52325D01*
X51529Y44355D01*
X50920Y43746D01*
X50591Y42950D01*
Y42089D01*
X50920Y41293D01*
X51529Y40684D01*
X52325Y40354D01*
X53187D01*
X53410Y40447D01*
X59468Y34388D01*
X59794Y34170D01*
X60081Y34113D01*
X60369Y33419D01*
X60978Y32810D01*
X61774Y32480D01*
X62635D01*
X63431Y32810D01*
X64040Y33419D01*
X64370Y34215D01*
Y35076D01*
X64040Y35872D01*
X63431Y36481D01*
X62635Y36811D01*
X61774D01*
X60978Y36481D01*
X60598Y36101D01*
X60594D01*
X54829Y41866D01*
X54921Y42089D01*
Y42950D01*
X54592Y43746D01*
X53983Y44355D01*
X53187Y44685D01*
D02*
G37*
G36*
X114976Y31354D02*
X111524D01*
Y30247D01*
X110524D01*
Y31354D01*
X107071D01*
Y27902D01*
X108178D01*
Y26902D01*
X107071D01*
Y23449D01*
X110524D01*
Y24556D01*
X111524D01*
Y23449D01*
X114976D01*
Y26902D01*
X113869D01*
Y27902D01*
X114976D01*
Y31354D01*
D02*
G37*
G36*
X104976D02*
X101524D01*
Y30247D01*
X100524D01*
Y31354D01*
X97071D01*
Y27902D01*
X98178D01*
Y26902D01*
X97071D01*
Y23449D01*
X100524D01*
Y24556D01*
X101524D01*
Y23449D01*
X104976D01*
Y26902D01*
X103869D01*
Y27902D01*
X104976D01*
Y31354D01*
D02*
G37*
G36*
X21039D02*
X17587D01*
Y30247D01*
X16587D01*
Y31354D01*
X13134D01*
Y27902D01*
X14241D01*
Y26902D01*
X13134D01*
Y23449D01*
X16587D01*
Y24556D01*
X17587D01*
Y23449D01*
X21039D01*
Y26902D01*
X19932D01*
Y27902D01*
X21039D01*
Y31354D01*
D02*
G37*
G36*
X11039D02*
X7587D01*
Y30247D01*
X6587D01*
Y31354D01*
X3134D01*
Y27902D01*
X4241D01*
Y26902D01*
X3134D01*
Y23449D01*
X6587D01*
Y24556D01*
X7587D01*
Y23449D01*
X11039D01*
Y26902D01*
X9932D01*
Y27902D01*
X11039D01*
Y31354D01*
D02*
G37*
G36*
X63896Y24941D02*
X63269D01*
X62691Y24701D01*
X62248Y24258D01*
X62008Y23679D01*
Y23053D01*
X62248Y22474D01*
X62340Y22382D01*
X62248Y22290D01*
X62008Y21711D01*
Y21084D01*
X62248Y20506D01*
X62340Y20413D01*
X62248Y20321D01*
X62008Y19742D01*
Y19116D01*
X62248Y18537D01*
X62691Y18094D01*
X63269Y17854D01*
X63896D01*
X64475Y18094D01*
X64918Y18537D01*
X65158Y19116D01*
Y19742D01*
X64918Y20321D01*
X64825Y20413D01*
X64918Y20506D01*
X65158Y21084D01*
Y21711D01*
X64918Y22290D01*
X64825Y22382D01*
X64918Y22474D01*
X65158Y23053D01*
Y23679D01*
X64918Y24258D01*
X64475Y24701D01*
X63896Y24941D01*
D02*
G37*
G36*
X59959Y24941D02*
X59332D01*
X58754Y24701D01*
X58311Y24258D01*
X58071Y23679D01*
Y23053D01*
X58311Y22474D01*
X58403Y22382D01*
X58311Y22290D01*
X58071Y21711D01*
Y21084D01*
X58311Y20506D01*
X58403Y20413D01*
X58311Y20321D01*
X58071Y19742D01*
Y19116D01*
X58311Y18537D01*
X58754Y18094D01*
X59332Y17854D01*
X59959D01*
X60538Y18094D01*
X60981Y18537D01*
X61221Y19116D01*
Y19742D01*
X60981Y20321D01*
X60888Y20413D01*
X60981Y20506D01*
X61221Y21084D01*
Y21711D01*
X60981Y22290D01*
X60888Y22382D01*
X60981Y22474D01*
X61221Y23053D01*
Y23679D01*
X60981Y24258D01*
X60538Y24701D01*
X59959Y24941D01*
D02*
G37*
G36*
X54841D02*
X54214D01*
X53636Y24701D01*
X53193Y24258D01*
X52953Y23679D01*
Y23053D01*
X53193Y22474D01*
X53285Y22382D01*
X53193Y22290D01*
X52953Y21711D01*
Y21084D01*
X53193Y20506D01*
X53285Y20413D01*
X53193Y20321D01*
X52953Y19742D01*
Y19116D01*
X53193Y18537D01*
X53636Y18094D01*
X54214Y17854D01*
X54841D01*
X55420Y18094D01*
X55863Y18537D01*
X56102Y19116D01*
Y19742D01*
X55863Y20321D01*
X55770Y20413D01*
X55863Y20506D01*
X56102Y21084D01*
Y21711D01*
X55863Y22290D01*
X55770Y22382D01*
X55863Y22474D01*
X56102Y23053D01*
Y23679D01*
X55863Y24258D01*
X55420Y24701D01*
X54841Y24941D01*
D02*
G37*
G36*
X50904Y24941D02*
X50277D01*
X49698Y24701D01*
X49255Y24258D01*
X49016Y23679D01*
Y23053D01*
X49255Y22474D01*
X49348Y22382D01*
X49255Y22290D01*
X49016Y21711D01*
Y21084D01*
X49255Y20506D01*
X49348Y20413D01*
X49255Y20321D01*
X49016Y19742D01*
Y19116D01*
X49255Y18537D01*
X49698Y18094D01*
X50277Y17854D01*
X50904D01*
X51483Y18094D01*
X51926Y18537D01*
X52165Y19116D01*
Y19742D01*
X51926Y20321D01*
X51833Y20413D01*
X51926Y20506D01*
X52165Y21084D01*
Y21711D01*
X51926Y22290D01*
X51833Y22382D01*
X51926Y22474D01*
X52165Y23053D01*
Y23679D01*
X51926Y24258D01*
X51483Y24701D01*
X50904Y24941D01*
D02*
G37*
G36*
X114976Y51354D02*
X111524D01*
Y50247D01*
X110524D01*
Y51354D01*
X107071D01*
Y47902D01*
X108178D01*
Y46902D01*
X107071D01*
Y43449D01*
X110524D01*
Y44556D01*
X111524D01*
Y43449D01*
X114976D01*
Y46902D01*
X113869D01*
Y47902D01*
X114976D01*
Y51354D01*
D02*
G37*
G36*
X104976D02*
X101524D01*
Y50247D01*
X100524D01*
Y51354D01*
X97071D01*
Y47902D01*
X98178D01*
Y46902D01*
X97071D01*
Y43449D01*
X100524D01*
Y44556D01*
X101524D01*
Y43449D01*
X104976D01*
Y46902D01*
X103869D01*
Y47902D01*
X104976D01*
Y51354D01*
D02*
G37*
%LPD*%
D12*
X92126Y6692D02*
Y2756D01*
X90158D01*
X89502Y3412D01*
Y6036D01*
X90158Y6692D01*
X92126D01*
X85566Y6036D02*
X86222Y6692D01*
X87534D01*
X88190Y6036D01*
Y3412D01*
X87534Y2756D01*
X86222D01*
X85566Y3412D01*
X84254Y6692D02*
Y2756D01*
X82287D01*
X81631Y3412D01*
Y6036D01*
X82287Y6692D01*
X84254D01*
X77695Y6036D02*
X78351Y6692D01*
X79663D01*
X80319Y6036D01*
Y3412D01*
X79663Y2756D01*
X78351D01*
X77695Y3412D01*
X72447Y2756D02*
X71135D01*
X71791D01*
Y6692D01*
X72447Y6036D01*
X69168Y2756D02*
Y3412D01*
X68511D01*
Y2756D01*
X69168D01*
X65888Y6036D02*
X65232Y6692D01*
X63920D01*
X63264Y6036D01*
Y3412D01*
X63920Y2756D01*
X65232D01*
X65888Y3412D01*
Y6036D01*
X61952Y2756D02*
Y3412D01*
X61296D01*
Y2756D01*
X61952D01*
X58672Y6036D02*
X58016Y6692D01*
X56704D01*
X56048Y6036D01*
Y3412D01*
X56704Y2756D01*
X58016D01*
X58672Y3412D01*
Y6036D01*
X52756Y6036D02*
X52100Y6692D01*
X50788D01*
X50132Y6036D01*
Y3412D01*
X50788Y2756D01*
X52100D01*
X52756Y3412D01*
Y6036D01*
X48820D02*
X48164Y6692D01*
X46852D01*
X46196Y6036D01*
Y5380D01*
X46852Y4724D01*
X47508D01*
X46852D01*
X46196Y4068D01*
Y3412D01*
X46852Y2756D01*
X48164D01*
X48820Y3412D01*
X44884Y2756D02*
X42261Y5380D01*
X38325Y2756D02*
X40949D01*
X38325Y5380D01*
Y6036D01*
X38981Y6692D01*
X40293D01*
X40949Y6036D01*
X37013D02*
X36357Y6692D01*
X35045D01*
X34389Y6036D01*
Y3412D01*
X35045Y2756D01*
X36357D01*
X37013Y3412D01*
Y6036D01*
X30453Y2756D02*
X33077D01*
X30453Y5380D01*
Y6036D01*
X31109Y6692D01*
X32421D01*
X33077Y6036D01*
X26518Y6692D02*
X27830Y6036D01*
X29142Y4724D01*
Y3412D01*
X28486Y2756D01*
X27174D01*
X26518Y3412D01*
Y4068D01*
X27174Y4724D01*
X29142D01*
D13*
X83608Y38439D02*
X83709Y38339D01*
X80458Y38439D02*
X83608D01*
X80315Y38583D02*
X80458Y38439D01*
X52756Y42520D02*
X60178Y35098D01*
X61753D02*
X62205Y34646D01*
X60178Y35098D02*
X61753D01*
X25748Y46063D02*
X36614D01*
X17087Y37402D02*
X25748Y46063D01*
D41*
X7087Y27402D02*
D03*
X17087D02*
D03*
Y47402D02*
D03*
X111024D02*
D03*
X101024D02*
D03*
X17087Y37402D02*
D03*
X101024Y27402D02*
D03*
X111024D02*
D03*
D42*
X7087Y47402D02*
D03*
D43*
X106299Y62992D02*
D03*
X11811Y11811D02*
D03*
X106299D02*
D03*
X11811Y62992D02*
D03*
D44*
X59646Y19429D02*
D03*
Y21398D02*
D03*
Y23366D02*
D03*
X54528Y19429D02*
D03*
Y21398D02*
D03*
Y23366D02*
D03*
X63583Y19429D02*
D03*
Y21398D02*
D03*
Y23366D02*
D03*
X50591Y19429D02*
D03*
Y21398D02*
D03*
Y23366D02*
D03*
D45*
X103216Y38425D02*
D03*
X91405Y14803D02*
D03*
X79594Y62047D02*
D03*
Y14803D02*
D03*
X67783Y62047D02*
D03*
Y14803D02*
D03*
X55972Y62047D02*
D03*
X50067Y50236D02*
D03*
X55972Y14803D02*
D03*
X44161Y62047D02*
D03*
Y14803D02*
D03*
X26445Y26614D02*
D03*
X32350Y14803D02*
D03*
X8728Y38425D02*
D03*
D46*
X42913Y35039D02*
D03*
X51575Y34646D02*
D03*
X85039Y44094D02*
D03*
X80315Y38583D02*
D03*
X62205Y34646D02*
D03*
X84252Y18898D02*
D03*
X87008D02*
D03*
X89764D02*
D03*
X92520D02*
D03*
X36614Y46063D02*
D03*
X52756Y42520D02*
D03*
M02*
