G04*
G04 #@! TF.GenerationSoftware,Altium Limited,Altium Designer,26.3.0 (6)*
G04*
G04 Layer_Color=8421504*
%FSLAX25Y25*%
%MOIN*%
G70*
G04*
G04 #@! TF.SameCoordinates,EE2F418E-1566-404E-9DB7-E08F96EC3AE6*
G04*
G04*
G04 #@! TF.FilePolarity,Positive*
G04*
G01*
G75*
%ADD14R,0.03347X0.02559*%
%ADD15R,0.02559X0.03347*%
%ADD16R,0.03543X0.03347*%
%ADD17R,0.02362X0.03150*%
%ADD18R,0.03347X0.03543*%
%ADD19R,0.05512X0.03937*%
%ADD20R,0.00866X0.02362*%
%ADD21C,0.00100*%
%ADD22C,0.00100*%
G36*
X77465Y42028D02*
X72839Y42028D01*
X74512Y43701D01*
X72839Y45374D01*
X77465Y45374D01*
Y42028D01*
D02*
G37*
G36*
X73622Y43701D02*
X71949Y42028D01*
X68996D01*
Y45374D01*
X71949D01*
X73622Y43701D01*
D02*
G37*
G36*
X77465Y36909D02*
X72839Y36909D01*
X74512Y38583D01*
X72839Y40256D01*
X77465Y40256D01*
Y36909D01*
D02*
G37*
G36*
X73622Y38583D02*
X71949Y36909D01*
X68996D01*
Y40256D01*
X71949D01*
X73622Y38583D01*
D02*
G37*
G36*
X64173Y30413D02*
X64370Y30217D01*
X64370Y29626D01*
X64173Y29429D01*
X62795Y29429D01*
X62598Y29626D01*
Y30217D01*
X62795Y30413D01*
X64173Y30413D01*
D02*
G37*
G36*
X51575Y30217D02*
Y29626D01*
X51378Y29429D01*
X50000Y29429D01*
X49803Y29626D01*
X49803Y30217D01*
X50000Y30413D01*
X51378Y30413D01*
X51575Y30217D01*
D02*
G37*
G36*
X64370Y28248D02*
Y27657D01*
X64173Y27461D01*
X62795D01*
X62598Y27657D01*
Y28248D01*
X62795Y28445D01*
X64173D01*
X64370Y28248D01*
D02*
G37*
G36*
X51575D02*
Y27657D01*
X51378Y27461D01*
X50000D01*
X49803Y27657D01*
Y28248D01*
X50000Y28445D01*
X51378D01*
X51575Y28248D01*
D02*
G37*
G36*
X61811Y31063D02*
Y27303D01*
X61614Y27106D01*
X58661D01*
X58465Y27303D01*
Y28484D01*
X58661Y28681D01*
X59012Y28681D01*
X59153Y28740D01*
X60571Y30158D01*
X60630Y30299D01*
X60630Y31063D01*
X60827Y31260D01*
X61614D01*
X61811Y31063D01*
D02*
G37*
G36*
X53543Y31063D02*
X53543Y30299D01*
X53602Y30158D01*
X55020Y28740D01*
X55161Y28681D01*
X55512Y28681D01*
X55709Y28484D01*
Y27303D01*
X55512Y27106D01*
X52559D01*
X52362Y27303D01*
Y31063D01*
X52559Y31260D01*
X53347D01*
X53543Y31063D01*
D02*
G37*
G36*
X62598Y25295D02*
Y25039D01*
X62795Y24843D01*
X64173Y24843D01*
X64370Y24646D01*
X64370Y24055D01*
X64173Y23858D01*
X62205Y23858D01*
X62008Y23661D01*
X62008Y23071D01*
X62205Y22874D01*
X64173Y22874D01*
X64370Y22677D01*
Y22087D01*
X64173Y21890D01*
X62205Y21890D01*
X62008Y21693D01*
Y21102D01*
X62205Y20906D01*
X64173Y20906D01*
X64370Y20709D01*
Y20118D01*
X64173Y19921D01*
X62205Y19921D01*
X62008Y19724D01*
Y19134D01*
X62205Y18937D01*
X64173D01*
X64370Y18740D01*
Y18150D01*
X64173Y17953D01*
X62795D01*
X62598Y17756D01*
Y17500D01*
X62402Y17303D01*
X59095D01*
X58898Y17500D01*
X58898Y18839D01*
X59095Y19035D01*
X60551Y19035D01*
X60748Y19232D01*
Y19626D01*
X60551Y19823D01*
X59095Y19823D01*
X58898Y20020D01*
Y20807D01*
X59095Y21004D01*
X60551D01*
X60748Y21201D01*
Y21595D01*
X60551Y21791D01*
X59095D01*
X58898Y21988D01*
X58898Y22776D01*
X59095Y22972D01*
X60551D01*
X60748Y23169D01*
Y23563D01*
X60551Y23760D01*
X59095Y23760D01*
X58898Y23957D01*
Y25295D01*
X59095Y25492D01*
X62402D01*
X62598Y25295D01*
D02*
G37*
G36*
X55276D02*
Y23957D01*
X55079Y23760D01*
X53622Y23760D01*
X53425Y23563D01*
Y23169D01*
X53622Y22972D01*
X55079D01*
X55276Y22776D01*
X55276Y21988D01*
X55079Y21791D01*
X53622D01*
X53425Y21595D01*
Y21201D01*
X53622Y21004D01*
X55079Y21004D01*
X55276Y20807D01*
Y20020D01*
X55079Y19823D01*
X53622Y19823D01*
X53425Y19626D01*
Y19232D01*
X53622Y19035D01*
X55079D01*
X55276Y18839D01*
X55276Y17500D01*
X55079Y17303D01*
X51772D01*
X51575Y17500D01*
Y17756D01*
X51378Y17953D01*
X50000D01*
X49803Y18150D01*
Y18740D01*
X50000Y18937D01*
X51968D01*
X52165Y19134D01*
Y19724D01*
X51968Y19921D01*
X50000Y19921D01*
X49803Y20118D01*
Y20709D01*
X50000Y20906D01*
X51968Y20906D01*
X52165Y21102D01*
X52165Y21693D01*
X51968Y21890D01*
X50000Y21890D01*
X49803Y22087D01*
Y22677D01*
X50000Y22874D01*
X51968Y22874D01*
X52165Y23071D01*
X52165Y23661D01*
X51968Y23858D01*
X50000Y23858D01*
X49803Y24055D01*
X49803Y24646D01*
X50000Y24843D01*
X51378Y24843D01*
X51575Y25039D01*
Y25295D01*
X51772Y25492D01*
X55079D01*
X55276Y25295D01*
D02*
G37*
D14*
X40157Y48622D02*
D03*
Y42717D02*
D03*
X45276Y48622D02*
D03*
Y42717D02*
D03*
D15*
X85236Y39764D02*
D03*
X91142D02*
D03*
X60041Y38583D02*
D03*
X65947D02*
D03*
X60041Y43701D02*
D03*
X65947D02*
D03*
X55711Y38583D02*
D03*
X49805D02*
D03*
X30118Y41732D02*
D03*
X36024D02*
D03*
D16*
X60435Y48819D02*
D03*
X65553D02*
D03*
D17*
X91240Y34646D02*
D03*
X85138D02*
D03*
X39469Y37402D02*
D03*
X45571D02*
D03*
D18*
X44094Y23819D02*
D03*
Y28937D02*
D03*
X91339Y28937D02*
D03*
Y23819D02*
D03*
D19*
X70473Y23327D02*
D03*
Y29429D02*
D03*
X85039Y23327D02*
D03*
Y29429D02*
D03*
X37795D02*
D03*
Y23327D02*
D03*
X77953D02*
D03*
Y29429D02*
D03*
D20*
X55118Y31496D02*
D03*
X57087D02*
D03*
X59055D02*
D03*
D21*
X62132Y29039D02*
D03*
D22*
X51919Y29183D02*
D03*
M02*
