G04*
G04 #@! TF.GenerationSoftware,Altium Limited,Altium Designer,26.3.0 (6)*
G04*
G04 Layer_Color=65535*
%FSLAX25Y25*%
%MOIN*%
G70*
G04*
G04 #@! TF.SameCoordinates,EE2F418E-1566-404E-9DB7-E08F96EC3AE6*
G04*
G04*
G04 #@! TF.FilePolarity,Positive*
G04*
G01*
G75*
%ADD10C,0.00394*%
%ADD11C,0.00984*%
%ADD12C,0.00591*%
%ADD13C,0.00787*%
G36*
X41536Y35433D02*
X41535Y39272D01*
X43455Y37352D01*
X41536Y35433D01*
D02*
G37*
G36*
X89173Y36614D02*
X89173Y32776D01*
X87254Y34695D01*
X89173Y36614D01*
D02*
G37*
G36*
X55602Y67480D02*
X52749D01*
Y68932D01*
X55602D01*
Y67480D01*
D02*
G37*
G36*
X74708Y65463D02*
X73068D01*
X70371Y73032D01*
X72019D01*
X73938Y67431D01*
X75791Y73032D01*
X77414D01*
X74708Y65463D01*
D02*
G37*
G36*
X46509Y65463D02*
X44869D01*
X42171Y73032D01*
X43819D01*
X45738Y67431D01*
X47591Y73032D01*
X49215D01*
X46509Y65463D01*
D02*
G37*
G36*
X41515Y71572D02*
X38768D01*
X38538Y70285D01*
X38546D01*
X38563Y70293D01*
X38587Y70309D01*
X38620Y70326D01*
X38669Y70342D01*
X38719Y70367D01*
X38842Y70408D01*
X38997Y70457D01*
X39161Y70490D01*
X39342Y70523D01*
X39530Y70531D01*
X39571D01*
X39621Y70523D01*
X39694D01*
X39776Y70506D01*
X39875Y70490D01*
X39981Y70473D01*
X40096Y70441D01*
X40227Y70408D01*
X40359Y70359D01*
X40490Y70301D01*
X40629Y70236D01*
X40769Y70154D01*
X40908Y70055D01*
X41039Y69949D01*
X41170Y69826D01*
X41179Y69817D01*
X41203Y69793D01*
X41236Y69752D01*
X41277Y69694D01*
X41326Y69629D01*
X41384Y69547D01*
X41449Y69448D01*
X41515Y69334D01*
X41572Y69211D01*
X41638Y69071D01*
X41695Y68915D01*
X41744Y68760D01*
X41785Y68579D01*
X41818Y68399D01*
X41843Y68202D01*
X41851Y67997D01*
Y67989D01*
Y67956D01*
Y67907D01*
X41843Y67841D01*
X41835Y67759D01*
X41818Y67661D01*
X41802Y67554D01*
X41785Y67439D01*
X41753Y67308D01*
X41720Y67177D01*
X41671Y67038D01*
X41621Y66898D01*
X41556Y66751D01*
X41482Y66611D01*
X41400Y66464D01*
X41302Y66324D01*
X41293Y66316D01*
X41269Y66283D01*
X41228Y66234D01*
X41162Y66168D01*
X41088Y66095D01*
X40998Y66004D01*
X40892Y65914D01*
X40769Y65824D01*
X40629Y65734D01*
X40473Y65644D01*
X40309Y65553D01*
X40129Y65480D01*
X39932Y65414D01*
X39719Y65365D01*
X39489Y65332D01*
X39252Y65324D01*
X39153D01*
X39079Y65332D01*
X38989Y65340D01*
X38883Y65357D01*
X38768Y65373D01*
X38645Y65398D01*
X38374Y65463D01*
X38227Y65504D01*
X38087Y65562D01*
X37940Y65627D01*
X37800Y65701D01*
X37669Y65783D01*
X37538Y65881D01*
X37530Y65890D01*
X37513Y65906D01*
X37480Y65939D01*
X37431Y65988D01*
X37382Y66045D01*
X37325Y66111D01*
X37259Y66193D01*
X37193Y66283D01*
X37128Y66390D01*
X37062Y66505D01*
X36997Y66628D01*
X36931Y66759D01*
X36874Y66906D01*
X36824Y67062D01*
X36792Y67226D01*
X36759Y67398D01*
X38202Y67554D01*
Y67546D01*
Y67530D01*
X38210Y67505D01*
X38218Y67472D01*
X38235Y67382D01*
X38268Y67275D01*
X38317Y67144D01*
X38382Y67021D01*
X38464Y66890D01*
X38563Y66775D01*
X38579Y66767D01*
X38620Y66734D01*
X38678Y66685D01*
X38768Y66636D01*
X38866Y66578D01*
X38989Y66537D01*
X39120Y66505D01*
X39268Y66488D01*
X39309D01*
X39342Y66496D01*
X39432Y66505D01*
X39539Y66537D01*
X39662Y66578D01*
X39785Y66644D01*
X39916Y66734D01*
X39981Y66792D01*
X40039Y66857D01*
Y66865D01*
X40055Y66874D01*
X40072Y66898D01*
X40088Y66923D01*
X40113Y66964D01*
X40137Y67013D01*
X40170Y67070D01*
X40203Y67136D01*
X40227Y67210D01*
X40260Y67292D01*
X40285Y67382D01*
X40309Y67480D01*
X40326Y67595D01*
X40342Y67710D01*
X40359Y67841D01*
Y67972D01*
Y67981D01*
Y68005D01*
Y68038D01*
X40350Y68087D01*
Y68145D01*
X40342Y68210D01*
X40318Y68366D01*
X40285Y68538D01*
X40227Y68710D01*
X40145Y68874D01*
X40039Y69022D01*
Y69030D01*
X40022Y69038D01*
X39981Y69079D01*
X39916Y69137D01*
X39817Y69202D01*
X39703Y69260D01*
X39563Y69317D01*
X39407Y69358D01*
X39317Y69375D01*
X39170D01*
X39120Y69366D01*
X39063Y69358D01*
X39006Y69342D01*
X38850Y69309D01*
X38678Y69243D01*
X38579Y69194D01*
X38489Y69145D01*
X38391Y69079D01*
X38292Y69006D01*
X38194Y68924D01*
X38104Y68825D01*
X36931Y68989D01*
X37677Y72933D01*
X41515D01*
Y71572D01*
D02*
G37*
G36*
X69903Y71884D02*
X69895Y71876D01*
X69879Y71859D01*
X69846Y71818D01*
X69797Y71769D01*
X69739Y71712D01*
X69674Y71630D01*
X69600Y71539D01*
X69518Y71441D01*
X69428Y71326D01*
X69329Y71195D01*
X69223Y71047D01*
X69116Y70892D01*
X69001Y70728D01*
X68886Y70547D01*
X68772Y70350D01*
X68649Y70145D01*
X68640Y70129D01*
X68624Y70096D01*
X68591Y70031D01*
X68542Y69949D01*
X68493Y69842D01*
X68435Y69719D01*
X68362Y69580D01*
X68288Y69424D01*
X68214Y69243D01*
X68132Y69063D01*
X68058Y68858D01*
X67976Y68653D01*
X67894Y68432D01*
X67820Y68202D01*
X67681Y67735D01*
Y67718D01*
X67665Y67677D01*
X67648Y67612D01*
X67632Y67521D01*
X67607Y67407D01*
X67574Y67284D01*
X67550Y67136D01*
X67517Y66972D01*
X67484Y66800D01*
X67460Y66619D01*
X67410Y66242D01*
X67369Y65849D01*
X67361Y65463D01*
X65959D01*
Y65471D01*
Y65480D01*
Y65504D01*
Y65537D01*
X65967Y65619D01*
X65975Y65734D01*
X65984Y65873D01*
X66000Y66045D01*
X66025Y66234D01*
X66049Y66447D01*
X66090Y66685D01*
X66131Y66931D01*
X66180Y67193D01*
X66246Y67472D01*
X66312Y67759D01*
X66394Y68054D01*
X66492Y68358D01*
X66599Y68661D01*
Y68669D01*
X66607Y68678D01*
X66615Y68702D01*
X66623Y68735D01*
X66664Y68825D01*
X66713Y68940D01*
X66771Y69079D01*
X66845Y69252D01*
X66935Y69440D01*
X67033Y69645D01*
X67148Y69867D01*
X67271Y70096D01*
X67402Y70342D01*
X67550Y70588D01*
X67706Y70842D01*
X67878Y71097D01*
X68050Y71343D01*
X68239Y71589D01*
X64942D01*
Y72933D01*
X69903D01*
Y71884D01*
D02*
G37*
G36*
X62769Y65463D02*
X61318D01*
Y70916D01*
X61310Y70908D01*
X61285Y70883D01*
X61236Y70842D01*
X61178Y70793D01*
X61105Y70736D01*
X61006Y70662D01*
X60908Y70580D01*
X60785Y70498D01*
X60654Y70408D01*
X60514Y70318D01*
X60358Y70227D01*
X60194Y70137D01*
X60022Y70047D01*
X59834Y69965D01*
X59645Y69891D01*
X59448Y69817D01*
Y71138D01*
X59456D01*
X59473Y71146D01*
X59506Y71154D01*
X59547Y71170D01*
X59604Y71195D01*
X59661Y71220D01*
X59735Y71252D01*
X59817Y71293D01*
X59998Y71384D01*
X60203Y71507D01*
X60432Y71654D01*
X60678Y71835D01*
X60686Y71843D01*
X60711Y71859D01*
X60744Y71884D01*
X60785Y71925D01*
X60842Y71974D01*
X60900Y72040D01*
X60965Y72105D01*
X61039Y72187D01*
X61195Y72368D01*
X61342Y72573D01*
X61482Y72802D01*
X61539Y72925D01*
X61588Y73056D01*
X62769D01*
Y65463D01*
D02*
G37*
G36*
X53093Y63802D02*
X53167D01*
X53257Y63785D01*
X53364Y63777D01*
X53479Y63753D01*
X53602Y63728D01*
X53741Y63687D01*
X53880Y63646D01*
X54020Y63589D01*
X54159Y63523D01*
X54307Y63441D01*
X54446Y63351D01*
X54577Y63244D01*
X54700Y63121D01*
X54709Y63113D01*
X54725Y63097D01*
X54750Y63064D01*
X54782Y63023D01*
X54823Y62974D01*
X54873Y62908D01*
X54922Y62834D01*
X54971Y62752D01*
X55069Y62572D01*
X55160Y62359D01*
X55192Y62244D01*
X55217Y62121D01*
X55233Y61998D01*
X55242Y61867D01*
Y61858D01*
Y61826D01*
X55233Y61768D01*
X55225Y61703D01*
X55209Y61621D01*
X55184Y61522D01*
X55151Y61408D01*
X55102Y61293D01*
X55045Y61170D01*
X54979Y61039D01*
X54889Y60907D01*
X54782Y60776D01*
X54659Y60645D01*
X54512Y60514D01*
X54340Y60391D01*
X54151Y60276D01*
X54159D01*
X54184Y60268D01*
X54217Y60259D01*
X54258Y60243D01*
X54315Y60227D01*
X54381Y60202D01*
X54520Y60145D01*
X54692Y60063D01*
X54864Y59948D01*
X55028Y59817D01*
X55110Y59735D01*
X55184Y59645D01*
X55192Y59636D01*
X55201Y59620D01*
X55217Y59595D01*
X55250Y59562D01*
X55274Y59513D01*
X55307Y59456D01*
X55348Y59390D01*
X55381Y59316D01*
X55455Y59144D01*
X55520Y58947D01*
X55561Y58718D01*
X55570Y58595D01*
X55578Y58472D01*
Y58464D01*
Y58431D01*
X55570Y58373D01*
Y58308D01*
X55553Y58218D01*
X55537Y58119D01*
X55520Y58013D01*
X55488Y57890D01*
X55447Y57758D01*
X55397Y57619D01*
X55340Y57480D01*
X55266Y57340D01*
X55184Y57193D01*
X55086Y57053D01*
X54979Y56914D01*
X54848Y56774D01*
X54840Y56766D01*
X54815Y56742D01*
X54774Y56709D01*
X54717Y56668D01*
X54643Y56611D01*
X54561Y56553D01*
X54463Y56488D01*
X54348Y56430D01*
X54225Y56365D01*
X54085Y56299D01*
X53930Y56242D01*
X53774Y56184D01*
X53602Y56143D01*
X53421Y56110D01*
X53224Y56086D01*
X53028Y56077D01*
X52978D01*
X52929Y56086D01*
X52855D01*
X52773Y56094D01*
X52667Y56110D01*
X52552Y56127D01*
X52429Y56151D01*
X52298Y56184D01*
X52158Y56225D01*
X52019Y56266D01*
X51880Y56323D01*
X51732Y56397D01*
X51593Y56471D01*
X51453Y56561D01*
X51322Y56668D01*
X51314Y56676D01*
X51289Y56692D01*
X51256Y56725D01*
X51215Y56774D01*
X51166Y56832D01*
X51101Y56906D01*
X51043Y56988D01*
X50969Y57086D01*
X50904Y57193D01*
X50838Y57307D01*
X50773Y57430D01*
X50707Y57570D01*
X50658Y57718D01*
X50609Y57873D01*
X50568Y58046D01*
X50543Y58218D01*
X51945Y58390D01*
Y58382D01*
Y58365D01*
X51953Y58341D01*
X51962Y58300D01*
X51978Y58201D01*
X52019Y58087D01*
X52060Y57947D01*
X52126Y57816D01*
X52208Y57677D01*
X52306Y57562D01*
X52322Y57553D01*
X52355Y57521D01*
X52421Y57472D01*
X52503Y57422D01*
X52609Y57373D01*
X52732Y57324D01*
X52872Y57291D01*
X53019Y57283D01*
X53060D01*
X53093Y57291D01*
X53175Y57299D01*
X53282Y57324D01*
X53405Y57365D01*
X53528Y57422D01*
X53659Y57504D01*
X53782Y57619D01*
X53798Y57635D01*
X53831Y57685D01*
X53880Y57758D01*
X53938Y57865D01*
X53995Y57996D01*
X54044Y58152D01*
X54077Y58333D01*
X54094Y58538D01*
Y58546D01*
Y58562D01*
Y58587D01*
X54085Y58628D01*
Y58677D01*
X54077Y58726D01*
X54061Y58849D01*
X54020Y58988D01*
X53971Y59136D01*
X53897Y59276D01*
X53798Y59407D01*
X53782Y59423D01*
X53749Y59456D01*
X53684Y59513D01*
X53602Y59571D01*
X53495Y59628D01*
X53372Y59685D01*
X53233Y59718D01*
X53077Y59735D01*
X53028D01*
X52970Y59727D01*
X52888Y59718D01*
X52790Y59710D01*
X52683Y59685D01*
X52552Y59661D01*
X52413Y59620D01*
X52568Y60801D01*
X52667D01*
X52716Y60809D01*
X52773D01*
X52905Y60825D01*
X53052Y60850D01*
X53200Y60899D01*
X53339Y60965D01*
X53470Y61047D01*
X53487Y61063D01*
X53520Y61096D01*
X53569Y61153D01*
X53634Y61235D01*
X53692Y61342D01*
X53741Y61465D01*
X53774Y61604D01*
X53790Y61768D01*
Y61777D01*
Y61785D01*
Y61834D01*
X53782Y61900D01*
X53766Y61990D01*
X53733Y62080D01*
X53692Y62186D01*
X53634Y62285D01*
X53561Y62375D01*
X53552Y62383D01*
X53520Y62408D01*
X53470Y62449D01*
X53397Y62490D01*
X53306Y62531D01*
X53208Y62572D01*
X53085Y62596D01*
X52946Y62605D01*
X52880D01*
X52814Y62588D01*
X52724Y62572D01*
X52626Y62539D01*
X52519Y62498D01*
X52413Y62432D01*
X52306Y62342D01*
X52298Y62334D01*
X52265Y62293D01*
X52224Y62236D01*
X52167Y62154D01*
X52109Y62047D01*
X52060Y61924D01*
X52019Y61768D01*
X51986Y61596D01*
X50650Y61818D01*
Y61826D01*
X50658Y61850D01*
X50666Y61883D01*
X50674Y61932D01*
X50691Y61990D01*
X50707Y62055D01*
X50756Y62211D01*
X50814Y62392D01*
X50887Y62572D01*
X50969Y62752D01*
X51068Y62916D01*
Y62924D01*
X51084Y62933D01*
X51117Y62982D01*
X51183Y63064D01*
X51273Y63154D01*
X51379Y63261D01*
X51511Y63367D01*
X51666Y63474D01*
X51847Y63572D01*
X51855D01*
X51871Y63581D01*
X51896Y63597D01*
X51937Y63613D01*
X51986Y63630D01*
X52044Y63646D01*
X52109Y63671D01*
X52183Y63695D01*
X52347Y63736D01*
X52544Y63777D01*
X52757Y63802D01*
X52987Y63810D01*
X53036D01*
X53093Y63802D01*
D02*
G37*
G36*
X63630Y56217D02*
X61966D01*
X61301Y57939D01*
X58276D01*
X57644Y56217D01*
X56029D01*
X58973Y63785D01*
X60596D01*
X63630Y56217D01*
D02*
G37*
G36*
X94788Y3751D02*
X82377D01*
Y8847D01*
X94788D01*
Y3751D01*
D02*
G37*
G36*
X94493Y67924D02*
X78736D01*
Y73021D01*
X94493D01*
Y67924D01*
D02*
G37*
G36*
X78543Y50626D02*
Y45902D01*
X67913D01*
Y50626D01*
Y55673D01*
X78543D01*
Y50626D01*
D02*
G37*
G36*
X34946Y2963D02*
X22535D01*
Y8060D01*
X34946D01*
Y2963D01*
D02*
G37*
G36*
X12008Y34919D02*
X1378D01*
Y39884D01*
X12008D01*
Y34919D01*
D02*
G37*
G36*
X34449Y68383D02*
X23819D01*
Y73349D01*
X34449D01*
Y68383D01*
D02*
G37*
G36*
X57505Y12859D02*
Y12857D01*
Y12843D01*
Y12824D01*
Y12799D01*
X57503Y12769D01*
Y12734D01*
X57500Y12693D01*
X57497Y12649D01*
X57489Y12556D01*
X57475Y12458D01*
X57459Y12360D01*
X57448Y12311D01*
X57434Y12267D01*
Y12264D01*
X57432Y12256D01*
X57426Y12245D01*
X57421Y12229D01*
X57412Y12210D01*
X57402Y12188D01*
X57377Y12136D01*
X57341Y12079D01*
X57295Y12016D01*
X57243Y11958D01*
X57178Y11904D01*
X57175Y11901D01*
X57170Y11898D01*
X57159Y11893D01*
X57145Y11882D01*
X57126Y11874D01*
X57104Y11863D01*
X57079Y11849D01*
X57049Y11838D01*
X57017Y11825D01*
X56981Y11814D01*
X56943Y11800D01*
X56902Y11792D01*
X56858Y11784D01*
X56809Y11776D01*
X56760Y11773D01*
X56708Y11770D01*
X56692D01*
X56670Y11773D01*
X56643D01*
X56607Y11778D01*
X56569Y11784D01*
X56528Y11789D01*
X56481Y11800D01*
X56432Y11814D01*
X56383Y11830D01*
X56334Y11849D01*
X56282Y11871D01*
X56236Y11898D01*
X56187Y11931D01*
X56146Y11969D01*
X56105Y12010D01*
X56102Y12013D01*
X56097Y12021D01*
X56086Y12038D01*
X56075Y12057D01*
X56058Y12084D01*
X56042Y12120D01*
X56023Y12158D01*
X56006Y12207D01*
X55987Y12262D01*
X55968Y12324D01*
X55952Y12393D01*
X55936Y12469D01*
X55925Y12556D01*
X55914Y12649D01*
X55908Y12750D01*
X55905Y12859D01*
Y14298D01*
X56176D01*
Y12862D01*
Y12859D01*
Y12848D01*
Y12829D01*
Y12808D01*
X56178Y12780D01*
Y12747D01*
X56181Y12712D01*
Y12676D01*
X56189Y12595D01*
X56198Y12515D01*
X56203Y12474D01*
X56211Y12439D01*
X56220Y12403D01*
X56228Y12373D01*
Y12371D01*
X56230Y12368D01*
X56233Y12360D01*
X56239Y12349D01*
X56249Y12321D01*
X56269Y12289D01*
X56293Y12251D01*
X56321Y12212D01*
X56356Y12177D01*
X56397Y12144D01*
X56400D01*
X56402Y12141D01*
X56419Y12133D01*
X56443Y12120D01*
X56479Y12106D01*
X56520Y12092D01*
X56572Y12079D01*
X56626Y12070D01*
X56689Y12068D01*
X56716D01*
X56735Y12070D01*
X56760Y12073D01*
X56787Y12076D01*
X56817Y12081D01*
X56847Y12087D01*
X56916Y12106D01*
X56951Y12120D01*
X56984Y12136D01*
X57019Y12155D01*
X57049Y12177D01*
X57079Y12201D01*
X57104Y12229D01*
X57107Y12231D01*
X57109Y12237D01*
X57115Y12248D01*
X57126Y12262D01*
X57134Y12281D01*
X57145Y12305D01*
X57159Y12335D01*
X57170Y12371D01*
X57183Y12409D01*
X57194Y12455D01*
X57205Y12507D01*
X57216Y12564D01*
X57224Y12630D01*
X57230Y12701D01*
X57232Y12777D01*
X57235Y12862D01*
Y14298D01*
X57505D01*
Y12859D01*
D02*
G37*
G36*
X58797Y11811D02*
X58548D01*
Y13755D01*
X58545Y13749D01*
X58532Y13736D01*
X58513Y13717D01*
X58485Y13689D01*
X58453Y13659D01*
X58412Y13624D01*
X58365Y13586D01*
X58313Y13545D01*
X58311D01*
X58308Y13539D01*
X58300Y13534D01*
X58289Y13528D01*
X58262Y13509D01*
X58226Y13485D01*
X58185Y13460D01*
X58141Y13433D01*
X58095Y13408D01*
X58049Y13386D01*
Y13678D01*
X58051Y13681D01*
X58057Y13684D01*
X58068Y13689D01*
X58084Y13700D01*
X58100Y13711D01*
X58122Y13725D01*
X58171Y13758D01*
X58226Y13801D01*
X58289Y13850D01*
X58352Y13905D01*
X58412Y13968D01*
X58414Y13970D01*
X58420Y13976D01*
X58428Y13984D01*
X58436Y13998D01*
X58450Y14014D01*
X58466Y14030D01*
X58499Y14077D01*
X58534Y14126D01*
X58573Y14183D01*
X58605Y14243D01*
X58633Y14306D01*
X58797D01*
Y11811D01*
D02*
G37*
G36*
X89560Y44966D02*
X89576D01*
X89596Y44963D01*
X89645Y44952D01*
X89699Y44939D01*
X89757Y44917D01*
X89819Y44884D01*
X89852Y44865D01*
X89882Y44843D01*
X89885Y44841D01*
X89890Y44838D01*
X89899Y44830D01*
X89909Y44819D01*
X89923Y44808D01*
X89939Y44791D01*
X89959Y44772D01*
X89978Y44750D01*
X89997Y44726D01*
X90019Y44699D01*
X90040Y44666D01*
X90060Y44633D01*
X90081Y44598D01*
X90103Y44559D01*
X90122Y44516D01*
X90139Y44472D01*
Y44469D01*
X90141Y44461D01*
X90147Y44447D01*
X90152Y44428D01*
X90161Y44401D01*
X90166Y44371D01*
X90174Y44335D01*
X90185Y44295D01*
X90193Y44245D01*
X90202Y44194D01*
X90207Y44136D01*
X90215Y44073D01*
X90221Y44005D01*
X90226Y43931D01*
X90229Y43855D01*
Y43770D01*
Y43768D01*
Y43765D01*
Y43757D01*
Y43749D01*
Y43721D01*
X90226Y43686D01*
Y43642D01*
X90223Y43593D01*
X90221Y43538D01*
X90218Y43478D01*
X90213Y43415D01*
X90204Y43350D01*
X90188Y43219D01*
X90177Y43153D01*
X90163Y43088D01*
X90147Y43028D01*
X90131Y42973D01*
Y42970D01*
X90125Y42962D01*
X90120Y42946D01*
X90114Y42927D01*
X90103Y42905D01*
X90092Y42878D01*
X90079Y42848D01*
X90062Y42818D01*
X90024Y42749D01*
X89980Y42681D01*
X89929Y42616D01*
X89899Y42588D01*
X89868Y42561D01*
X89866D01*
X89860Y42556D01*
X89852Y42550D01*
X89838Y42542D01*
X89825Y42531D01*
X89806Y42520D01*
X89784Y42509D01*
X89759Y42498D01*
X89705Y42474D01*
X89642Y42452D01*
X89571Y42438D01*
X89535Y42435D01*
X89497Y42433D01*
X89475D01*
X89459Y42435D01*
X89440Y42438D01*
X89415Y42441D01*
X89361Y42452D01*
X89301Y42471D01*
X89268Y42485D01*
X89235Y42501D01*
X89202Y42517D01*
X89170Y42539D01*
X89140Y42564D01*
X89110Y42591D01*
X89107Y42594D01*
X89104Y42599D01*
X89096Y42607D01*
X89085Y42621D01*
X89071Y42638D01*
X89058Y42657D01*
X89044Y42681D01*
X89028Y42708D01*
X89011Y42739D01*
X88995Y42774D01*
X88981Y42809D01*
X88965Y42850D01*
X88951Y42897D01*
X88940Y42943D01*
X88932Y42995D01*
X88924Y43050D01*
X89164Y43074D01*
Y43069D01*
X89167Y43058D01*
X89172Y43039D01*
X89178Y43014D01*
X89186Y42984D01*
X89197Y42951D01*
X89211Y42916D01*
X89227Y42880D01*
X89249Y42842D01*
X89273Y42807D01*
X89301Y42774D01*
X89331Y42744D01*
X89366Y42719D01*
X89407Y42700D01*
X89454Y42689D01*
X89503Y42684D01*
X89508D01*
X89525Y42687D01*
X89549Y42689D01*
X89579Y42695D01*
X89615Y42706D01*
X89650Y42719D01*
X89691Y42741D01*
X89729Y42768D01*
X89735Y42774D01*
X89746Y42785D01*
X89765Y42807D01*
X89789Y42840D01*
X89817Y42880D01*
X89833Y42905D01*
X89847Y42932D01*
X89860Y42962D01*
X89877Y42995D01*
X89890Y43033D01*
X89904Y43071D01*
Y43074D01*
X89907Y43082D01*
X89909Y43093D01*
X89915Y43110D01*
X89920Y43132D01*
X89926Y43156D01*
X89934Y43186D01*
X89939Y43216D01*
X89945Y43254D01*
X89953Y43293D01*
X89959Y43334D01*
X89964Y43380D01*
X89972Y43476D01*
X89975Y43582D01*
Y43642D01*
X89972Y43639D01*
X89967Y43631D01*
X89961Y43620D01*
X89945Y43593D01*
X89920Y43558D01*
X89890Y43519D01*
X89855Y43478D01*
X89811Y43440D01*
X89765Y43405D01*
X89762D01*
X89759Y43402D01*
X89743Y43391D01*
X89716Y43377D01*
X89683Y43361D01*
X89642Y43345D01*
X89596Y43331D01*
X89546Y43320D01*
X89495Y43317D01*
X89484D01*
X89470Y43320D01*
X89454D01*
X89432Y43323D01*
X89407Y43328D01*
X89377Y43336D01*
X89347Y43345D01*
X89314Y43356D01*
X89282Y43369D01*
X89246Y43388D01*
X89208Y43407D01*
X89172Y43432D01*
X89137Y43462D01*
X89101Y43495D01*
X89066Y43533D01*
X89063Y43536D01*
X89058Y43544D01*
X89050Y43555D01*
X89039Y43574D01*
X89025Y43596D01*
X89009Y43623D01*
X88992Y43653D01*
X88976Y43688D01*
X88959Y43729D01*
X88943Y43773D01*
X88927Y43822D01*
X88913Y43877D01*
X88902Y43934D01*
X88894Y43994D01*
X88888Y44060D01*
X88886Y44128D01*
Y44133D01*
Y44144D01*
Y44166D01*
X88888Y44194D01*
X88891Y44226D01*
X88897Y44265D01*
X88902Y44306D01*
X88910Y44352D01*
X88932Y44450D01*
X88946Y44502D01*
X88965Y44551D01*
X88987Y44603D01*
X89011Y44652D01*
X89039Y44699D01*
X89071Y44742D01*
X89074Y44745D01*
X89079Y44753D01*
X89091Y44764D01*
X89104Y44778D01*
X89123Y44794D01*
X89145Y44813D01*
X89170Y44835D01*
X89200Y44857D01*
X89230Y44876D01*
X89265Y44898D01*
X89303Y44917D01*
X89344Y44933D01*
X89385Y44947D01*
X89432Y44958D01*
X89478Y44966D01*
X89527Y44969D01*
X89546D01*
X89560Y44966D01*
D02*
G37*
G36*
X87908Y44958D02*
X87936D01*
X87966Y44955D01*
X87998Y44952D01*
X88064Y44944D01*
X88135Y44931D01*
X88198Y44914D01*
X88228Y44903D01*
X88255Y44890D01*
X88258D01*
X88261Y44887D01*
X88277Y44876D01*
X88304Y44860D01*
X88334Y44835D01*
X88370Y44802D01*
X88408Y44764D01*
X88443Y44715D01*
X88479Y44658D01*
Y44655D01*
X88482Y44649D01*
X88487Y44641D01*
X88493Y44630D01*
X88498Y44614D01*
X88506Y44595D01*
X88514Y44576D01*
X88523Y44551D01*
X88539Y44497D01*
X88553Y44431D01*
X88564Y44360D01*
X88566Y44284D01*
Y44281D01*
Y44270D01*
Y44256D01*
X88564Y44237D01*
X88561Y44213D01*
X88558Y44185D01*
X88555Y44153D01*
X88547Y44120D01*
X88531Y44046D01*
X88503Y43970D01*
X88487Y43931D01*
X88468Y43896D01*
X88446Y43858D01*
X88419Y43825D01*
X88416Y43822D01*
X88413Y43817D01*
X88402Y43809D01*
X88392Y43798D01*
X88375Y43784D01*
X88359Y43768D01*
X88337Y43751D01*
X88310Y43732D01*
X88282Y43713D01*
X88250Y43694D01*
X88214Y43675D01*
X88176Y43659D01*
X88135Y43642D01*
X88091Y43626D01*
X88045Y43615D01*
X87993Y43604D01*
X87998Y43601D01*
X88012Y43593D01*
X88031Y43579D01*
X88056Y43560D01*
X88083Y43541D01*
X88113Y43516D01*
X88140Y43492D01*
X88165Y43465D01*
X88168Y43462D01*
X88170Y43459D01*
X88176Y43451D01*
X88184Y43440D01*
X88209Y43410D01*
X88236Y43372D01*
X88269Y43325D01*
X88304Y43271D01*
X88340Y43211D01*
X88375Y43148D01*
X88733Y42474D01*
X88392D01*
X88121Y42990D01*
X88119Y42992D01*
X88113Y43003D01*
X88105Y43020D01*
X88097Y43039D01*
X88083Y43063D01*
X88067Y43091D01*
X88031Y43153D01*
X87993Y43222D01*
X87952Y43290D01*
X87933Y43323D01*
X87914Y43350D01*
X87897Y43377D01*
X87881Y43399D01*
X87878Y43405D01*
X87867Y43415D01*
X87851Y43435D01*
X87832Y43457D01*
X87807Y43481D01*
X87783Y43503D01*
X87756Y43525D01*
X87726Y43541D01*
X87723Y43544D01*
X87712Y43547D01*
X87695Y43552D01*
X87671Y43560D01*
X87641Y43568D01*
X87605Y43574D01*
X87564Y43577D01*
X87515Y43579D01*
X87207D01*
Y42474D01*
X86936D01*
Y44961D01*
X87887D01*
X87908Y44958D01*
D02*
G37*
G36*
X45850Y54399D02*
X45878Y54397D01*
X45910Y54391D01*
X45948Y54386D01*
X45987Y54378D01*
X46028Y54367D01*
X46071Y54356D01*
X46118Y54339D01*
X46164Y54320D01*
X46208Y54298D01*
X46252Y54271D01*
X46295Y54244D01*
X46336Y54208D01*
X46339Y54206D01*
X46344Y54200D01*
X46355Y54189D01*
X46369Y54173D01*
X46385Y54154D01*
X46402Y54132D01*
X46421Y54105D01*
X46440Y54077D01*
X46459Y54042D01*
X46478Y54006D01*
X46494Y53968D01*
X46511Y53924D01*
X46525Y53881D01*
X46536Y53831D01*
X46541Y53782D01*
X46544Y53730D01*
Y53717D01*
X46541Y53703D01*
Y53684D01*
X46538Y53659D01*
X46533Y53629D01*
X46527Y53597D01*
X46516Y53564D01*
X46505Y53526D01*
X46492Y53487D01*
X46475Y53447D01*
X46456Y53406D01*
X46432Y53367D01*
X46404Y53326D01*
X46372Y53288D01*
X46336Y53250D01*
X46334Y53247D01*
X46325Y53242D01*
X46314Y53234D01*
X46298Y53220D01*
X46276Y53206D01*
X46252Y53190D01*
X46222Y53174D01*
X46189Y53154D01*
X46150Y53138D01*
X46110Y53119D01*
X46066Y53103D01*
X46017Y53089D01*
X45965Y53075D01*
X45908Y53067D01*
X45850Y53062D01*
X45788Y53059D01*
X45785D01*
X45777D01*
X45763D01*
X45746Y53062D01*
X45725D01*
X45700Y53064D01*
X45673Y53067D01*
X45643Y53073D01*
X45577Y53083D01*
X45506Y53103D01*
X45438Y53127D01*
X45375Y53160D01*
X45373D01*
X45367Y53165D01*
X45359Y53171D01*
X45348Y53179D01*
X45321Y53201D01*
X45288Y53234D01*
X45252Y53272D01*
X45214Y53321D01*
X45181Y53378D01*
X45157Y53441D01*
Y53438D01*
X45154Y53436D01*
X45149Y53427D01*
X45143Y53417D01*
X45129Y53389D01*
X45108Y53356D01*
X45080Y53321D01*
X45045Y53283D01*
X45007Y53247D01*
X44963Y53215D01*
X44960D01*
X44958Y53212D01*
X44949Y53209D01*
X44941Y53204D01*
X44911Y53190D01*
X44876Y53179D01*
X44829Y53165D01*
X44775Y53152D01*
X44715Y53144D01*
X44646Y53141D01*
X44644D01*
X44633D01*
X44619D01*
X44600Y53144D01*
X44575Y53146D01*
X44548Y53149D01*
X44518Y53154D01*
X44482Y53163D01*
X44412Y53182D01*
X44373Y53195D01*
X44335Y53212D01*
X44297Y53231D01*
X44259Y53253D01*
X44223Y53277D01*
X44188Y53307D01*
X44185Y53310D01*
X44179Y53316D01*
X44171Y53324D01*
X44160Y53337D01*
X44147Y53354D01*
X44130Y53373D01*
X44114Y53398D01*
X44098Y53422D01*
X44081Y53452D01*
X44065Y53482D01*
X44049Y53518D01*
X44035Y53556D01*
X44024Y53594D01*
X44016Y53638D01*
X44010Y53681D01*
X44008Y53728D01*
Y53752D01*
X44010Y53772D01*
X44013Y53791D01*
X44018Y53818D01*
X44024Y53845D01*
X44029Y53875D01*
X44051Y53944D01*
X44068Y53979D01*
X44084Y54014D01*
X44106Y54050D01*
X44130Y54085D01*
X44158Y54118D01*
X44190Y54151D01*
X44193Y54154D01*
X44199Y54159D01*
X44210Y54167D01*
X44223Y54178D01*
X44240Y54189D01*
X44261Y54206D01*
X44289Y54219D01*
X44316Y54236D01*
X44349Y54252D01*
X44384Y54266D01*
X44423Y54282D01*
X44463Y54293D01*
X44507Y54304D01*
X44554Y54312D01*
X44605Y54317D01*
X44657Y54320D01*
X44660D01*
X44665D01*
X44674D01*
X44687D01*
X44704Y54317D01*
X44720D01*
X44764Y54312D01*
X44810Y54301D01*
X44862Y54287D01*
X44914Y54268D01*
X44963Y54244D01*
X44969Y54241D01*
X44982Y54230D01*
X45007Y54214D01*
X45034Y54189D01*
X45064Y54156D01*
X45097Y54118D01*
X45127Y54072D01*
X45157Y54020D01*
Y54023D01*
X45160Y54028D01*
X45165Y54036D01*
X45171Y54050D01*
X45187Y54083D01*
X45211Y54124D01*
X45244Y54170D01*
X45285Y54216D01*
X45334Y54260D01*
X45392Y54301D01*
X45394D01*
X45400Y54307D01*
X45408Y54309D01*
X45422Y54317D01*
X45435Y54326D01*
X45454Y54334D01*
X45476Y54342D01*
X45504Y54353D01*
X45531Y54361D01*
X45561Y54369D01*
X45629Y54386D01*
X45708Y54397D01*
X45796Y54402D01*
X45798D01*
X45809D01*
X45828D01*
X45850Y54399D01*
D02*
G37*
G36*
X46503Y52565D02*
X45987Y52294D01*
X45984Y52292D01*
X45973Y52286D01*
X45957Y52278D01*
X45938Y52270D01*
X45913Y52256D01*
X45886Y52240D01*
X45823Y52204D01*
X45755Y52166D01*
X45687Y52125D01*
X45654Y52106D01*
X45626Y52087D01*
X45599Y52071D01*
X45577Y52054D01*
X45572Y52052D01*
X45561Y52041D01*
X45542Y52024D01*
X45520Y52005D01*
X45495Y51981D01*
X45474Y51956D01*
X45452Y51929D01*
X45435Y51899D01*
X45433Y51896D01*
X45430Y51885D01*
X45424Y51869D01*
X45416Y51844D01*
X45408Y51814D01*
X45403Y51779D01*
X45400Y51738D01*
X45397Y51688D01*
Y51380D01*
X46503D01*
Y51110D01*
X44016D01*
Y52060D01*
X44018Y52082D01*
Y52109D01*
X44021Y52139D01*
X44024Y52172D01*
X44032Y52237D01*
X44046Y52308D01*
X44062Y52371D01*
X44073Y52401D01*
X44087Y52428D01*
Y52431D01*
X44089Y52434D01*
X44100Y52450D01*
X44117Y52477D01*
X44141Y52508D01*
X44174Y52543D01*
X44212Y52581D01*
X44261Y52617D01*
X44319Y52652D01*
X44321D01*
X44327Y52655D01*
X44335Y52660D01*
X44346Y52666D01*
X44362Y52671D01*
X44381Y52680D01*
X44401Y52688D01*
X44425Y52696D01*
X44480Y52712D01*
X44545Y52726D01*
X44616Y52737D01*
X44693Y52740D01*
X44695D01*
X44706D01*
X44720D01*
X44739Y52737D01*
X44764Y52734D01*
X44791Y52731D01*
X44824Y52729D01*
X44857Y52720D01*
X44930Y52704D01*
X45007Y52677D01*
X45045Y52660D01*
X45080Y52641D01*
X45119Y52619D01*
X45151Y52592D01*
X45154Y52589D01*
X45160Y52587D01*
X45168Y52576D01*
X45179Y52565D01*
X45192Y52548D01*
X45209Y52532D01*
X45225Y52510D01*
X45244Y52483D01*
X45263Y52456D01*
X45282Y52423D01*
X45301Y52387D01*
X45318Y52349D01*
X45334Y52308D01*
X45351Y52264D01*
X45362Y52218D01*
X45373Y52166D01*
X45375Y52172D01*
X45383Y52185D01*
X45397Y52204D01*
X45416Y52229D01*
X45435Y52256D01*
X45460Y52286D01*
X45484Y52314D01*
X45512Y52338D01*
X45515Y52341D01*
X45517Y52344D01*
X45525Y52349D01*
X45536Y52357D01*
X45566Y52382D01*
X45605Y52409D01*
X45651Y52442D01*
X45706Y52477D01*
X45766Y52513D01*
X45828Y52548D01*
X46503Y52906D01*
Y52565D01*
D02*
G37*
G36*
X39190Y54395D02*
X39201Y54384D01*
X39222Y54368D01*
X39255Y54349D01*
X39293Y54322D01*
X39337Y54291D01*
X39392Y54259D01*
X39454Y54221D01*
X39523Y54182D01*
X39597Y54141D01*
X39678Y54098D01*
X39768Y54051D01*
X39864Y54008D01*
X39965Y53964D01*
X40071Y53920D01*
X40183Y53877D01*
X40186D01*
X40192Y53874D01*
X40200Y53871D01*
X40211Y53866D01*
X40227Y53863D01*
X40244Y53855D01*
X40265Y53849D01*
X40290Y53841D01*
X40345Y53825D01*
X40410Y53803D01*
X40484Y53784D01*
X40566Y53762D01*
X40656Y53737D01*
X40751Y53715D01*
X40852Y53694D01*
X40956Y53675D01*
X41065Y53655D01*
X41174Y53642D01*
X41289Y53628D01*
X41401Y53620D01*
Y53366D01*
X41398D01*
X41387D01*
X41368D01*
X41346Y53369D01*
X41316D01*
X41281Y53372D01*
X41240Y53374D01*
X41194Y53380D01*
X41142Y53385D01*
X41087Y53391D01*
X41027Y53399D01*
X40964Y53407D01*
X40896Y53418D01*
X40825Y53432D01*
X40751Y53445D01*
X40675Y53462D01*
X40669D01*
X40656Y53467D01*
X40634Y53473D01*
X40604Y53478D01*
X40566Y53489D01*
X40522Y53500D01*
X40473Y53513D01*
X40418Y53530D01*
X40361Y53546D01*
X40298Y53568D01*
X40233Y53587D01*
X40164Y53612D01*
X40022Y53664D01*
X39880Y53721D01*
X39875Y53724D01*
X39864Y53729D01*
X39845Y53737D01*
X39818Y53751D01*
X39785Y53765D01*
X39747Y53784D01*
X39706Y53803D01*
X39659Y53827D01*
X39610Y53852D01*
X39558Y53879D01*
X39452Y53939D01*
X39343Y54005D01*
X39239Y54076D01*
Y53082D01*
X38947D01*
Y54398D01*
X39184D01*
X39190Y54395D01*
D02*
G37*
G36*
X41401Y52569D02*
X40885Y52299D01*
X40882Y52296D01*
X40871Y52290D01*
X40855Y52282D01*
X40836Y52274D01*
X40811Y52260D01*
X40784Y52244D01*
X40721Y52209D01*
X40653Y52170D01*
X40585Y52129D01*
X40552Y52110D01*
X40525Y52091D01*
X40497Y52075D01*
X40475Y52058D01*
X40470Y52056D01*
X40459Y52045D01*
X40440Y52028D01*
X40418Y52009D01*
X40394Y51985D01*
X40372Y51960D01*
X40350Y51933D01*
X40334Y51903D01*
X40331Y51900D01*
X40328Y51889D01*
X40323Y51873D01*
X40314Y51848D01*
X40306Y51818D01*
X40301Y51783D01*
X40298Y51742D01*
X40295Y51693D01*
Y51384D01*
X41401D01*
Y51114D01*
X38914D01*
Y52064D01*
X38917Y52086D01*
Y52113D01*
X38919Y52143D01*
X38922Y52176D01*
X38930Y52241D01*
X38944Y52312D01*
X38960Y52375D01*
X38971Y52405D01*
X38985Y52432D01*
Y52435D01*
X38988Y52438D01*
X38999Y52454D01*
X39015Y52482D01*
X39039Y52512D01*
X39072Y52547D01*
X39110Y52585D01*
X39160Y52621D01*
X39217Y52656D01*
X39220D01*
X39225Y52659D01*
X39233Y52665D01*
X39244Y52670D01*
X39261Y52675D01*
X39280Y52684D01*
X39299Y52692D01*
X39323Y52700D01*
X39378Y52716D01*
X39444Y52730D01*
X39515Y52741D01*
X39591Y52744D01*
X39594D01*
X39605D01*
X39618D01*
X39637Y52741D01*
X39662Y52738D01*
X39689Y52735D01*
X39722Y52733D01*
X39755Y52724D01*
X39829Y52708D01*
X39905Y52681D01*
X39943Y52665D01*
X39979Y52645D01*
X40017Y52623D01*
X40050Y52596D01*
X40052Y52593D01*
X40058Y52591D01*
X40066Y52580D01*
X40077Y52569D01*
X40091Y52552D01*
X40107Y52536D01*
X40123Y52514D01*
X40143Y52487D01*
X40162Y52460D01*
X40181Y52427D01*
X40200Y52391D01*
X40216Y52353D01*
X40233Y52312D01*
X40249Y52269D01*
X40260Y52222D01*
X40271Y52170D01*
X40273Y52176D01*
X40282Y52189D01*
X40295Y52209D01*
X40314Y52233D01*
X40334Y52260D01*
X40358Y52290D01*
X40383Y52318D01*
X40410Y52342D01*
X40413Y52345D01*
X40415Y52348D01*
X40424Y52353D01*
X40435Y52361D01*
X40465Y52386D01*
X40503Y52413D01*
X40549Y52446D01*
X40604Y52482D01*
X40664Y52517D01*
X40727Y52552D01*
X41401Y52910D01*
Y52569D01*
D02*
G37*
G36*
X81774Y39848D02*
X81793Y39845D01*
X81818Y39843D01*
X81870Y39832D01*
X81930Y39813D01*
X81962Y39799D01*
X81995Y39785D01*
X82028Y39766D01*
X82061Y39744D01*
X82091Y39720D01*
X82121Y39692D01*
X82123Y39690D01*
X82129Y39684D01*
X82134Y39676D01*
X82145Y39662D01*
X82159Y39646D01*
X82173Y39627D01*
X82189Y39602D01*
X82205Y39575D01*
X82222Y39545D01*
X82238Y39512D01*
X82254Y39474D01*
X82268Y39433D01*
X82284Y39387D01*
X82295Y39340D01*
X82306Y39288D01*
X82314Y39234D01*
X82066Y39209D01*
Y39212D01*
X82063Y39217D01*
Y39228D01*
X82061Y39239D01*
X82052Y39272D01*
X82039Y39313D01*
X82025Y39359D01*
X82006Y39403D01*
X81984Y39444D01*
X81960Y39480D01*
Y39482D01*
X81954Y39485D01*
X81943Y39499D01*
X81921Y39518D01*
X81894Y39540D01*
X81859Y39561D01*
X81818Y39581D01*
X81771Y39594D01*
X81747Y39600D01*
X81711D01*
X81697Y39597D01*
X81684Y39594D01*
X81665Y39591D01*
X81643Y39586D01*
X81618Y39578D01*
X81594Y39567D01*
X81567Y39551D01*
X81539Y39534D01*
X81509Y39512D01*
X81479Y39485D01*
X81452Y39452D01*
X81422Y39417D01*
X81394Y39376D01*
X81370Y39327D01*
Y39324D01*
X81365Y39316D01*
X81359Y39302D01*
X81354Y39283D01*
X81343Y39258D01*
X81335Y39228D01*
X81323Y39193D01*
X81313Y39155D01*
X81304Y39108D01*
X81293Y39056D01*
X81283Y38999D01*
X81274Y38936D01*
X81266Y38871D01*
X81261Y38797D01*
X81258Y38721D01*
X81255Y38639D01*
X81255Y38639D01*
Y38636D01*
X81255Y38639D01*
X81258Y38644D01*
X81264Y38652D01*
X81272Y38663D01*
X81291Y38693D01*
X81315Y38729D01*
X81345Y38770D01*
X81384Y38811D01*
X81424Y38849D01*
X81471Y38884D01*
X81474D01*
X81476Y38887D01*
X81485Y38892D01*
X81493Y38898D01*
X81520Y38912D01*
X81556Y38928D01*
X81596Y38942D01*
X81643Y38955D01*
X81695Y38966D01*
X81749Y38969D01*
X81760D01*
X81774Y38966D01*
X81790D01*
X81810Y38963D01*
X81834Y38958D01*
X81861Y38950D01*
X81891Y38942D01*
X81924Y38931D01*
X81957Y38914D01*
X81992Y38898D01*
X82028Y38876D01*
X82063Y38852D01*
X82099Y38822D01*
X82134Y38786D01*
X82170Y38748D01*
X82173Y38745D01*
X82178Y38737D01*
X82186Y38726D01*
X82200Y38707D01*
X82213Y38685D01*
X82227Y38660D01*
X82244Y38628D01*
X82263Y38592D01*
X82279Y38554D01*
X82295Y38508D01*
X82309Y38461D01*
X82325Y38409D01*
X82336Y38352D01*
X82345Y38292D01*
X82350Y38229D01*
X82353Y38161D01*
Y38158D01*
Y38150D01*
Y38136D01*
Y38120D01*
X82350Y38098D01*
X82347Y38071D01*
X82345Y38043D01*
X82342Y38011D01*
X82331Y37942D01*
X82314Y37866D01*
X82290Y37787D01*
X82260Y37708D01*
Y37705D01*
X82257Y37699D01*
X82252Y37689D01*
X82244Y37675D01*
X82235Y37659D01*
X82224Y37639D01*
X82197Y37596D01*
X82164Y37547D01*
X82123Y37497D01*
X82080Y37451D01*
X82028Y37410D01*
X82025D01*
X82022Y37407D01*
X82014Y37402D01*
X82003Y37396D01*
X81973Y37380D01*
X81935Y37364D01*
X81889Y37345D01*
X81837Y37331D01*
X81777Y37320D01*
X81714Y37315D01*
X81700D01*
X81684Y37317D01*
X81662Y37320D01*
X81638Y37323D01*
X81605Y37328D01*
X81572Y37337D01*
X81534Y37350D01*
X81495Y37364D01*
X81455Y37383D01*
X81414Y37405D01*
X81370Y37432D01*
X81326Y37462D01*
X81285Y37500D01*
X81244Y37541D01*
X81206Y37590D01*
X81203Y37593D01*
X81198Y37604D01*
X81187Y37620D01*
X81176Y37645D01*
X81160Y37675D01*
X81143Y37713D01*
X81124Y37757D01*
X81108Y37811D01*
X81089Y37872D01*
X81070Y37940D01*
X81053Y38016D01*
X81037Y38101D01*
X81026Y38191D01*
X81015Y38292D01*
X81010Y38401D01*
X81007Y38519D01*
Y38521D01*
Y38527D01*
Y38538D01*
Y38551D01*
Y38568D01*
X81010Y38587D01*
Y38609D01*
Y38636D01*
X81012Y38693D01*
X81018Y38761D01*
X81023Y38835D01*
X81031Y38917D01*
X81042Y38999D01*
X81056Y39084D01*
X81072Y39168D01*
X81091Y39253D01*
X81116Y39335D01*
X81143Y39411D01*
X81173Y39480D01*
X81209Y39542D01*
X81212Y39545D01*
X81217Y39556D01*
X81231Y39570D01*
X81247Y39591D01*
X81266Y39613D01*
X81291Y39641D01*
X81318Y39668D01*
X81351Y39698D01*
X81389Y39725D01*
X81427Y39753D01*
X81471Y39780D01*
X81517Y39802D01*
X81567Y39823D01*
X81621Y39837D01*
X81676Y39848D01*
X81736Y39851D01*
X81758D01*
X81774Y39848D01*
D02*
G37*
G36*
X80040Y39840D02*
X80068D01*
X80098Y39837D01*
X80130Y39834D01*
X80196Y39826D01*
X80267Y39813D01*
X80330Y39796D01*
X80360Y39785D01*
X80387Y39772D01*
X80390D01*
X80393Y39769D01*
X80409Y39758D01*
X80436Y39742D01*
X80466Y39717D01*
X80502Y39684D01*
X80540Y39646D01*
X80576Y39597D01*
X80611Y39540D01*
Y39537D01*
X80614Y39531D01*
X80619Y39523D01*
X80625Y39512D01*
X80630Y39496D01*
X80638Y39477D01*
X80647Y39458D01*
X80655Y39433D01*
X80671Y39378D01*
X80685Y39313D01*
X80696Y39242D01*
X80698Y39166D01*
Y39163D01*
Y39152D01*
Y39138D01*
X80696Y39119D01*
X80693Y39095D01*
X80690Y39067D01*
X80687Y39035D01*
X80679Y39002D01*
X80663Y38928D01*
X80636Y38852D01*
X80619Y38813D01*
X80600Y38778D01*
X80578Y38740D01*
X80551Y38707D01*
X80548Y38704D01*
X80546Y38699D01*
X80535Y38691D01*
X80524Y38680D01*
X80507Y38666D01*
X80491Y38650D01*
X80469Y38633D01*
X80442Y38614D01*
X80414Y38595D01*
X80382Y38576D01*
X80346Y38557D01*
X80308Y38540D01*
X80267Y38524D01*
X80223Y38508D01*
X80177Y38497D01*
X80125Y38486D01*
X80130Y38483D01*
X80144Y38475D01*
X80163Y38461D01*
X80188Y38442D01*
X80215Y38423D01*
X80245Y38398D01*
X80273Y38374D01*
X80297Y38347D01*
X80300Y38344D01*
X80303Y38341D01*
X80308Y38333D01*
X80316Y38322D01*
X80341Y38292D01*
X80368Y38254D01*
X80401Y38207D01*
X80436Y38153D01*
X80472Y38093D01*
X80507Y38030D01*
X80865Y37356D01*
X80524D01*
X80253Y37872D01*
X80251Y37874D01*
X80245Y37885D01*
X80237Y37902D01*
X80229Y37921D01*
X80215Y37945D01*
X80199Y37973D01*
X80163Y38035D01*
X80125Y38104D01*
X80084Y38172D01*
X80065Y38205D01*
X80046Y38232D01*
X80029Y38259D01*
X80013Y38281D01*
X80010Y38287D01*
X80000Y38297D01*
X79983Y38317D01*
X79964Y38338D01*
X79939Y38363D01*
X79915Y38385D01*
X79887Y38407D01*
X79857Y38423D01*
X79855Y38426D01*
X79844Y38428D01*
X79827Y38434D01*
X79803Y38442D01*
X79773Y38450D01*
X79737Y38456D01*
X79697Y38458D01*
X79647Y38461D01*
X79339D01*
Y37356D01*
X79069D01*
Y39843D01*
X80019D01*
X80040Y39840D01*
D02*
G37*
G36*
X57857Y43852D02*
X57036D01*
X56929Y43181D01*
X56932Y43184D01*
X56937Y43189D01*
X56948Y43195D01*
X56962Y43205D01*
X56978Y43216D01*
X56997Y43230D01*
X57022Y43246D01*
X57047Y43260D01*
X57104Y43290D01*
X57169Y43315D01*
X57205Y43326D01*
X57240Y43334D01*
X57279Y43336D01*
X57317Y43339D01*
X57341D01*
X57360Y43336D01*
X57382Y43334D01*
X57407Y43328D01*
X57437Y43320D01*
X57470Y43312D01*
X57502Y43301D01*
X57538Y43287D01*
X57576Y43268D01*
X57612Y43246D01*
X57650Y43222D01*
X57688Y43192D01*
X57726Y43159D01*
X57762Y43121D01*
X57765Y43118D01*
X57770Y43110D01*
X57778Y43099D01*
X57792Y43080D01*
X57805Y43058D01*
X57822Y43033D01*
X57841Y43001D01*
X57857Y42965D01*
X57876Y42927D01*
X57893Y42881D01*
X57909Y42834D01*
X57923Y42782D01*
X57937Y42725D01*
X57945Y42665D01*
X57950Y42602D01*
X57953Y42534D01*
Y42531D01*
Y42518D01*
Y42498D01*
X57950Y42474D01*
X57947Y42441D01*
X57942Y42406D01*
X57937Y42365D01*
X57928Y42318D01*
X57920Y42272D01*
X57906Y42220D01*
X57890Y42168D01*
X57874Y42116D01*
X57849Y42062D01*
X57824Y42010D01*
X57794Y41958D01*
X57762Y41909D01*
X57759Y41906D01*
X57753Y41898D01*
X57743Y41884D01*
X57726Y41868D01*
X57707Y41849D01*
X57685Y41827D01*
X57658Y41802D01*
X57628Y41780D01*
X57592Y41756D01*
X57554Y41731D01*
X57513Y41710D01*
X57467Y41690D01*
X57420Y41674D01*
X57369Y41660D01*
X57311Y41652D01*
X57254Y41649D01*
X57229D01*
X57210Y41652D01*
X57186Y41655D01*
X57161Y41660D01*
X57131Y41666D01*
X57098Y41671D01*
X57027Y41693D01*
X56992Y41710D01*
X56954Y41726D01*
X56915Y41748D01*
X56877Y41772D01*
X56842Y41800D01*
X56806Y41832D01*
X56804Y41835D01*
X56798Y41840D01*
X56790Y41851D01*
X56776Y41865D01*
X56763Y41884D01*
X56746Y41909D01*
X56730Y41933D01*
X56711Y41966D01*
X56694Y41999D01*
X56675Y42037D01*
X56659Y42078D01*
X56642Y42124D01*
X56626Y42174D01*
X56615Y42228D01*
X56604Y42283D01*
X56599Y42343D01*
X56861Y42367D01*
Y42365D01*
X56864Y42357D01*
Y42345D01*
X56866Y42329D01*
X56872Y42310D01*
X56877Y42285D01*
X56888Y42234D01*
X56907Y42176D01*
X56932Y42119D01*
X56962Y42064D01*
X56978Y42037D01*
X56997Y42015D01*
X57003Y42010D01*
X57016Y41996D01*
X57038Y41980D01*
X57071Y41958D01*
X57107Y41936D01*
X57150Y41920D01*
X57197Y41906D01*
X57249Y41901D01*
X57265D01*
X57279Y41903D01*
X57295Y41906D01*
X57311Y41909D01*
X57355Y41920D01*
X57404Y41939D01*
X57429Y41952D01*
X57456Y41969D01*
X57481Y41988D01*
X57508Y42010D01*
X57532Y42034D01*
X57557Y42062D01*
X57560Y42064D01*
X57563Y42070D01*
X57568Y42078D01*
X57579Y42092D01*
X57587Y42108D01*
X57598Y42130D01*
X57612Y42152D01*
X57622Y42179D01*
X57636Y42209D01*
X57647Y42242D01*
X57658Y42280D01*
X57669Y42321D01*
X57677Y42362D01*
X57683Y42408D01*
X57685Y42458D01*
X57688Y42509D01*
Y42512D01*
Y42520D01*
Y42534D01*
X57685Y42553D01*
Y42575D01*
X57683Y42602D01*
X57677Y42630D01*
X57672Y42660D01*
X57658Y42728D01*
X57636Y42796D01*
X57603Y42862D01*
X57584Y42892D01*
X57563Y42922D01*
X57560Y42924D01*
X57557Y42927D01*
X57549Y42935D01*
X57541Y42943D01*
X57513Y42968D01*
X57475Y42995D01*
X57431Y43023D01*
X57377Y43047D01*
X57317Y43064D01*
X57284Y43066D01*
X57249Y43069D01*
X57229D01*
X57208Y43066D01*
X57178Y43061D01*
X57145Y43053D01*
X57109Y43042D01*
X57071Y43025D01*
X57033Y43003D01*
X57027Y43001D01*
X57016Y42993D01*
X57000Y42979D01*
X56976Y42957D01*
X56951Y42933D01*
X56926Y42902D01*
X56902Y42870D01*
X56877Y42829D01*
X56642Y42864D01*
X56842Y44145D01*
X57857D01*
Y43852D01*
D02*
G37*
G36*
X55621Y44175D02*
X55649D01*
X55679Y44172D01*
X55712Y44169D01*
X55777Y44161D01*
X55848Y44147D01*
X55911Y44131D01*
X55941Y44120D01*
X55968Y44106D01*
X55971D01*
X55974Y44104D01*
X55990Y44093D01*
X56017Y44076D01*
X56047Y44052D01*
X56083Y44019D01*
X56121Y43981D01*
X56156Y43932D01*
X56192Y43874D01*
Y43872D01*
X56195Y43866D01*
X56200Y43858D01*
X56206Y43847D01*
X56211Y43831D01*
X56219Y43812D01*
X56227Y43793D01*
X56236Y43768D01*
X56252Y43713D01*
X56266Y43648D01*
X56277Y43577D01*
X56279Y43500D01*
Y43498D01*
Y43487D01*
Y43473D01*
X56277Y43454D01*
X56274Y43429D01*
X56271Y43402D01*
X56268Y43369D01*
X56260Y43336D01*
X56244Y43263D01*
X56217Y43186D01*
X56200Y43148D01*
X56181Y43113D01*
X56159Y43075D01*
X56132Y43042D01*
X56129Y43039D01*
X56126Y43033D01*
X56116Y43025D01*
X56105Y43014D01*
X56088Y43001D01*
X56072Y42984D01*
X56050Y42968D01*
X56023Y42949D01*
X55995Y42930D01*
X55963Y42911D01*
X55927Y42892D01*
X55889Y42875D01*
X55848Y42859D01*
X55804Y42842D01*
X55758Y42832D01*
X55706Y42821D01*
X55712Y42818D01*
X55725Y42810D01*
X55744Y42796D01*
X55769Y42777D01*
X55796Y42758D01*
X55826Y42733D01*
X55853Y42709D01*
X55878Y42681D01*
X55881Y42679D01*
X55884Y42676D01*
X55889Y42668D01*
X55897Y42657D01*
X55922Y42627D01*
X55949Y42588D01*
X55982Y42542D01*
X56017Y42487D01*
X56053Y42427D01*
X56088Y42365D01*
X56446Y41690D01*
X56105D01*
X55834Y42206D01*
X55832Y42209D01*
X55826Y42220D01*
X55818Y42236D01*
X55810Y42255D01*
X55796Y42280D01*
X55780Y42307D01*
X55744Y42370D01*
X55706Y42438D01*
X55665Y42507D01*
X55646Y42539D01*
X55627Y42567D01*
X55611Y42594D01*
X55594Y42616D01*
X55591Y42621D01*
X55581Y42632D01*
X55564Y42651D01*
X55545Y42673D01*
X55520Y42698D01*
X55496Y42720D01*
X55468Y42741D01*
X55439Y42758D01*
X55436Y42761D01*
X55425Y42763D01*
X55409Y42769D01*
X55384Y42777D01*
X55354Y42785D01*
X55318Y42790D01*
X55277Y42793D01*
X55228Y42796D01*
X54920D01*
Y41690D01*
X54650D01*
Y44177D01*
X55600D01*
X55621Y44175D01*
D02*
G37*
G36*
X82073Y43334D02*
X82349D01*
Y43052D01*
X82073D01*
Y42457D01*
X81824D01*
Y43052D01*
X80940D01*
Y43334D01*
X81871Y44944D01*
X82073D01*
Y43334D01*
D02*
G37*
G36*
X80045Y44942D02*
X80072D01*
X80102Y44939D01*
X80135Y44936D01*
X80200Y44928D01*
X80271Y44914D01*
X80334Y44898D01*
X80364Y44887D01*
X80391Y44873D01*
X80394D01*
X80397Y44871D01*
X80413Y44860D01*
X80440Y44843D01*
X80470Y44819D01*
X80506Y44786D01*
X80544Y44748D01*
X80580Y44699D01*
X80615Y44641D01*
Y44639D01*
X80618Y44633D01*
X80623Y44625D01*
X80629Y44614D01*
X80634Y44598D01*
X80642Y44578D01*
X80651Y44559D01*
X80659Y44535D01*
X80675Y44480D01*
X80689Y44415D01*
X80700Y44344D01*
X80702Y44267D01*
Y44265D01*
Y44254D01*
Y44240D01*
X80700Y44221D01*
X80697Y44196D01*
X80694Y44169D01*
X80691Y44136D01*
X80683Y44104D01*
X80667Y44030D01*
X80640Y43953D01*
X80623Y43915D01*
X80604Y43880D01*
X80582Y43841D01*
X80555Y43809D01*
X80552Y43806D01*
X80550Y43801D01*
X80539Y43792D01*
X80528Y43781D01*
X80511Y43768D01*
X80495Y43751D01*
X80473Y43735D01*
X80446Y43716D01*
X80418Y43697D01*
X80386Y43678D01*
X80350Y43659D01*
X80312Y43642D01*
X80271Y43626D01*
X80227Y43609D01*
X80181Y43598D01*
X80129Y43587D01*
X80135Y43585D01*
X80148Y43577D01*
X80167Y43563D01*
X80192Y43544D01*
X80219Y43525D01*
X80249Y43500D01*
X80277Y43476D01*
X80301Y43448D01*
X80304Y43446D01*
X80307Y43443D01*
X80312Y43435D01*
X80320Y43424D01*
X80345Y43394D01*
X80372Y43356D01*
X80405Y43309D01*
X80440Y43255D01*
X80476Y43194D01*
X80511Y43132D01*
X80869Y42457D01*
X80528D01*
X80257Y42973D01*
X80255Y42976D01*
X80249Y42987D01*
X80241Y43003D01*
X80233Y43022D01*
X80219Y43047D01*
X80203Y43074D01*
X80167Y43137D01*
X80129Y43205D01*
X80088Y43274D01*
X80069Y43306D01*
X80050Y43334D01*
X80034Y43361D01*
X80017Y43383D01*
X80014Y43388D01*
X80004Y43399D01*
X79987Y43418D01*
X79968Y43440D01*
X79944Y43465D01*
X79919Y43486D01*
X79892Y43508D01*
X79862Y43525D01*
X79859Y43527D01*
X79848Y43530D01*
X79832Y43536D01*
X79807Y43544D01*
X79777Y43552D01*
X79742Y43558D01*
X79700Y43560D01*
X79651Y43563D01*
X79343D01*
Y42457D01*
X79073D01*
Y44944D01*
X80023D01*
X80045Y44942D01*
D02*
G37*
G36*
X82547Y35497D02*
X82574Y35494D01*
X82604Y35489D01*
X82637Y35483D01*
X82673Y35472D01*
X82711Y35461D01*
X82749Y35448D01*
X82790Y35431D01*
X82828Y35412D01*
X82867Y35388D01*
X82905Y35358D01*
X82938Y35328D01*
X82970Y35289D01*
X82973Y35287D01*
X82978Y35281D01*
X82984Y35267D01*
X82995Y35251D01*
X83008Y35232D01*
X83022Y35208D01*
X83036Y35180D01*
X83052Y35150D01*
X83066Y35117D01*
X83079Y35079D01*
X83107Y34997D01*
X83118Y34954D01*
X83123Y34907D01*
X83129Y34858D01*
X83131Y34809D01*
Y34806D01*
Y34798D01*
Y34784D01*
X83129Y34768D01*
Y34746D01*
X83126Y34721D01*
X83120Y34694D01*
X83115Y34664D01*
X83101Y34593D01*
X83077Y34517D01*
X83047Y34435D01*
X83025Y34394D01*
X83003Y34353D01*
X83000Y34350D01*
X82998Y34342D01*
X82989Y34331D01*
X82978Y34315D01*
X82962Y34293D01*
X82946Y34266D01*
X82924Y34236D01*
X82897Y34200D01*
X82867Y34159D01*
X82831Y34118D01*
X82793Y34069D01*
X82749Y34017D01*
X82703Y33963D01*
X82648Y33902D01*
X82591Y33840D01*
X82528Y33774D01*
X82525Y33771D01*
X82517Y33763D01*
X82506Y33752D01*
X82493Y33736D01*
X82473Y33720D01*
X82454Y33698D01*
X82408Y33649D01*
X82356Y33597D01*
X82310Y33545D01*
X82269Y33498D01*
X82249Y33477D01*
X82236Y33460D01*
X82233Y33457D01*
X82225Y33447D01*
X82214Y33430D01*
X82198Y33408D01*
X82181Y33384D01*
X82165Y33356D01*
X82132Y33296D01*
X83134D01*
Y33004D01*
X81785D01*
Y33007D01*
Y33013D01*
Y33024D01*
Y33034D01*
X81788Y33053D01*
X81791Y33073D01*
X81794Y33094D01*
X81796Y33122D01*
X81810Y33179D01*
X81829Y33247D01*
X81856Y33321D01*
X81873Y33359D01*
X81892Y33400D01*
X81895Y33403D01*
X81897Y33411D01*
X81906Y33422D01*
X81914Y33438D01*
X81927Y33460D01*
X81944Y33485D01*
X81963Y33515D01*
X81988Y33548D01*
X82015Y33586D01*
X82045Y33624D01*
X82077Y33668D01*
X82116Y33714D01*
X82157Y33763D01*
X82203Y33812D01*
X82252Y33867D01*
X82307Y33922D01*
X82310Y33924D01*
X82323Y33938D01*
X82340Y33954D01*
X82364Y33979D01*
X82392Y34009D01*
X82424Y34042D01*
X82460Y34080D01*
X82498Y34121D01*
X82574Y34208D01*
X82651Y34298D01*
X82686Y34342D01*
X82716Y34383D01*
X82746Y34424D01*
X82768Y34462D01*
Y34465D01*
X82774Y34470D01*
X82779Y34481D01*
X82785Y34495D01*
X82793Y34511D01*
X82804Y34530D01*
X82823Y34580D01*
X82842Y34634D01*
X82861Y34692D01*
X82872Y34754D01*
X82877Y34817D01*
Y34820D01*
Y34825D01*
Y34836D01*
X82875Y34850D01*
Y34866D01*
X82872Y34885D01*
X82864Y34929D01*
X82850Y34978D01*
X82831Y35030D01*
X82804Y35082D01*
X82766Y35128D01*
Y35131D01*
X82760Y35134D01*
X82746Y35147D01*
X82722Y35166D01*
X82689Y35188D01*
X82648Y35210D01*
X82602Y35229D01*
X82550Y35243D01*
X82520Y35248D01*
X82473D01*
X82460Y35246D01*
X82446D01*
X82427Y35243D01*
X82386Y35232D01*
X82342Y35216D01*
X82293Y35194D01*
X82244Y35161D01*
X82222Y35139D01*
X82200Y35117D01*
Y35115D01*
X82195Y35112D01*
X82190Y35104D01*
X82184Y35093D01*
X82176Y35079D01*
X82165Y35065D01*
X82154Y35046D01*
X82146Y35025D01*
X82135Y34997D01*
X82124Y34970D01*
X82116Y34940D01*
X82105Y34907D01*
X82094Y34833D01*
X82089Y34749D01*
X81832Y34782D01*
Y34787D01*
X81835Y34798D01*
Y34814D01*
X81837Y34839D01*
X81843Y34869D01*
X81848Y34904D01*
X81856Y34940D01*
X81867Y34981D01*
X81892Y35068D01*
X81908Y35112D01*
X81927Y35158D01*
X81949Y35199D01*
X81974Y35243D01*
X82001Y35281D01*
X82031Y35317D01*
X82034Y35319D01*
X82039Y35325D01*
X82050Y35333D01*
X82064Y35347D01*
X82080Y35360D01*
X82102Y35374D01*
X82127Y35390D01*
X82157Y35410D01*
X82187Y35426D01*
X82222Y35442D01*
X82261Y35456D01*
X82301Y35472D01*
X82345Y35483D01*
X82394Y35491D01*
X82443Y35497D01*
X82495Y35500D01*
X82525D01*
X82547Y35497D01*
D02*
G37*
G36*
X80650Y35489D02*
X80707Y35486D01*
X80773Y35480D01*
X80838Y35472D01*
X80901Y35461D01*
X80928Y35453D01*
X80955Y35445D01*
X80958D01*
X80964Y35442D01*
X80972Y35440D01*
X80986Y35434D01*
X81002Y35426D01*
X81018Y35418D01*
X81062Y35396D01*
X81111Y35366D01*
X81163Y35328D01*
X81215Y35281D01*
X81264Y35227D01*
X81267Y35224D01*
X81270Y35218D01*
X81278Y35210D01*
X81286Y35199D01*
X81297Y35183D01*
X81310Y35164D01*
X81324Y35142D01*
X81338Y35117D01*
X81354Y35090D01*
X81371Y35060D01*
X81406Y34992D01*
X81439Y34915D01*
X81469Y34828D01*
Y34825D01*
X81472Y34817D01*
X81477Y34803D01*
X81480Y34787D01*
X81485Y34762D01*
X81493Y34735D01*
X81499Y34705D01*
X81507Y34667D01*
X81512Y34629D01*
X81518Y34585D01*
X81526Y34539D01*
X81532Y34490D01*
X81537Y34435D01*
X81540Y34380D01*
X81542Y34260D01*
Y34255D01*
Y34241D01*
Y34219D01*
X81540Y34189D01*
Y34154D01*
X81537Y34110D01*
X81532Y34064D01*
X81526Y34012D01*
X81521Y33957D01*
X81512Y33900D01*
X81491Y33780D01*
X81458Y33657D01*
X81439Y33599D01*
X81417Y33542D01*
Y33539D01*
X81411Y33529D01*
X81403Y33515D01*
X81395Y33496D01*
X81381Y33471D01*
X81368Y33444D01*
X81351Y33414D01*
X81332Y33381D01*
X81286Y33313D01*
X81231Y33245D01*
X81169Y33179D01*
X81136Y33152D01*
X81100Y33127D01*
X81098D01*
X81092Y33122D01*
X81081Y33116D01*
X81065Y33108D01*
X81046Y33100D01*
X81024Y33089D01*
X80997Y33078D01*
X80964Y33067D01*
X80928Y33053D01*
X80890Y33043D01*
X80849Y33032D01*
X80805Y33024D01*
X80756Y33015D01*
X80704Y33010D01*
X80650Y33007D01*
X80592Y33004D01*
X79858D01*
Y35491D01*
X80625D01*
X80650Y35489D01*
D02*
G37*
G36*
X62324Y54039D02*
X62349Y54036D01*
X62379Y54031D01*
X62411Y54025D01*
X62450Y54020D01*
X62529Y53995D01*
X62570Y53982D01*
X62613Y53963D01*
X62654Y53944D01*
X62698Y53916D01*
X62739Y53889D01*
X62780Y53856D01*
X62783Y53853D01*
X62788Y53848D01*
X62799Y53837D01*
X62815Y53823D01*
X62832Y53804D01*
X62851Y53780D01*
X62873Y53752D01*
X62897Y53720D01*
X62922Y53684D01*
X62946Y53643D01*
X62971Y53600D01*
X62995Y53553D01*
X63020Y53499D01*
X63042Y53444D01*
X63064Y53384D01*
X63080Y53318D01*
X62815Y53242D01*
Y53245D01*
X62813Y53247D01*
X62810Y53264D01*
X62799Y53291D01*
X62788Y53324D01*
X62772Y53362D01*
X62750Y53406D01*
X62725Y53452D01*
X62695Y53501D01*
X62662Y53550D01*
X62621Y53597D01*
X62578Y53640D01*
X62529Y53679D01*
X62471Y53711D01*
X62411Y53739D01*
X62343Y53755D01*
X62308Y53758D01*
X62269Y53761D01*
X62250D01*
X62234Y53758D01*
X62217D01*
X62196Y53755D01*
X62149Y53747D01*
X62092Y53736D01*
X62034Y53717D01*
X61972Y53690D01*
X61914Y53654D01*
X61912D01*
X61909Y53649D01*
X61901Y53643D01*
X61890Y53635D01*
X61862Y53610D01*
X61830Y53575D01*
X61791Y53528D01*
X61753Y53474D01*
X61712Y53406D01*
X61693Y53370D01*
X61677Y53329D01*
Y53326D01*
X61674Y53318D01*
X61669Y53307D01*
X61663Y53288D01*
X61658Y53266D01*
X61650Y53242D01*
X61641Y53212D01*
X61633Y53176D01*
X61625Y53138D01*
X61617Y53097D01*
X61609Y53051D01*
X61603Y53002D01*
X61598Y52950D01*
X61592Y52892D01*
X61589Y52835D01*
Y52772D01*
Y52770D01*
Y52767D01*
Y52750D01*
Y52723D01*
X61592Y52688D01*
X61595Y52647D01*
X61598Y52598D01*
X61603Y52543D01*
X61611Y52486D01*
X61622Y52423D01*
X61633Y52360D01*
X61647Y52297D01*
X61663Y52235D01*
X61685Y52172D01*
X61710Y52112D01*
X61737Y52057D01*
X61767Y52005D01*
X61770Y52002D01*
X61775Y51994D01*
X61786Y51981D01*
X61800Y51967D01*
X61819Y51945D01*
X61841Y51926D01*
X61865Y51901D01*
X61895Y51880D01*
X61928Y51855D01*
X61963Y51830D01*
X62002Y51811D01*
X62045Y51792D01*
X62089Y51776D01*
X62138Y51762D01*
X62190Y51754D01*
X62245Y51751D01*
X62267D01*
X62283Y51754D01*
X62302Y51757D01*
X62324Y51759D01*
X62376Y51770D01*
X62436Y51789D01*
X62466Y51803D01*
X62499Y51817D01*
X62531Y51836D01*
X62564Y51855D01*
X62597Y51880D01*
X62627Y51907D01*
X62630Y51910D01*
X62635Y51915D01*
X62643Y51923D01*
X62654Y51937D01*
X62665Y51953D01*
X62682Y51975D01*
X62698Y51997D01*
X62714Y52027D01*
X62733Y52057D01*
X62750Y52092D01*
X62769Y52134D01*
X62785Y52174D01*
X62802Y52221D01*
X62818Y52273D01*
X62832Y52327D01*
X62843Y52385D01*
X63113Y52303D01*
Y52297D01*
X63107Y52284D01*
X63102Y52262D01*
X63096Y52235D01*
X63086Y52199D01*
X63072Y52158D01*
X63058Y52114D01*
X63039Y52068D01*
X63020Y52016D01*
X62995Y51964D01*
X62971Y51912D01*
X62941Y51860D01*
X62911Y51809D01*
X62875Y51762D01*
X62837Y51716D01*
X62796Y51675D01*
X62793Y51672D01*
X62785Y51667D01*
X62774Y51656D01*
X62755Y51642D01*
X62733Y51628D01*
X62709Y51609D01*
X62679Y51593D01*
X62643Y51574D01*
X62605Y51555D01*
X62564Y51536D01*
X62520Y51516D01*
X62471Y51503D01*
X62419Y51489D01*
X62368Y51478D01*
X62310Y51473D01*
X62250Y51470D01*
X62223D01*
X62204Y51473D01*
X62179Y51476D01*
X62149Y51478D01*
X62119Y51481D01*
X62084Y51486D01*
X62007Y51503D01*
X61925Y51527D01*
X61884Y51544D01*
X61843Y51563D01*
X61803Y51582D01*
X61764Y51607D01*
X61761Y51609D01*
X61756Y51612D01*
X61745Y51620D01*
X61731Y51634D01*
X61715Y51648D01*
X61693Y51667D01*
X61671Y51688D01*
X61650Y51713D01*
X61622Y51743D01*
X61598Y51776D01*
X61570Y51811D01*
X61543Y51852D01*
X61516Y51896D01*
X61488Y51942D01*
X61461Y51994D01*
X61437Y52049D01*
Y52052D01*
X61431Y52062D01*
X61426Y52079D01*
X61418Y52103D01*
X61407Y52134D01*
X61396Y52169D01*
X61385Y52207D01*
X61374Y52254D01*
X61363Y52306D01*
X61352Y52360D01*
X61341Y52420D01*
X61330Y52483D01*
X61322Y52551D01*
X61317Y52622D01*
X61314Y52696D01*
X61311Y52772D01*
Y52778D01*
Y52791D01*
Y52813D01*
X61314Y52841D01*
Y52876D01*
X61317Y52917D01*
X61322Y52963D01*
X61327Y53013D01*
X61333Y53067D01*
X61341Y53122D01*
X61363Y53236D01*
X61396Y53354D01*
X61415Y53411D01*
X61437Y53466D01*
X61439Y53468D01*
X61442Y53479D01*
X61450Y53493D01*
X61461Y53512D01*
X61472Y53537D01*
X61488Y53564D01*
X61508Y53594D01*
X61529Y53627D01*
X61579Y53695D01*
X61636Y53766D01*
X61707Y53834D01*
X61742Y53867D01*
X61783Y53894D01*
X61786Y53897D01*
X61794Y53900D01*
X61805Y53908D01*
X61822Y53916D01*
X61843Y53930D01*
X61868Y53941D01*
X61895Y53954D01*
X61928Y53968D01*
X61963Y53982D01*
X62002Y53995D01*
X62084Y54020D01*
X62177Y54036D01*
X62226Y54039D01*
X62275Y54042D01*
X62305D01*
X62324Y54039D01*
D02*
G37*
G36*
X64677Y53728D02*
X64674Y53722D01*
X64663Y53711D01*
X64647Y53690D01*
X64628Y53657D01*
X64601Y53619D01*
X64571Y53575D01*
X64538Y53520D01*
X64500Y53457D01*
X64461Y53389D01*
X64420Y53316D01*
X64377Y53234D01*
X64330Y53144D01*
X64287Y53048D01*
X64243Y52947D01*
X64199Y52841D01*
X64156Y52729D01*
Y52726D01*
X64153Y52720D01*
X64150Y52712D01*
X64145Y52701D01*
X64142Y52685D01*
X64134Y52669D01*
X64128Y52647D01*
X64120Y52622D01*
X64104Y52567D01*
X64082Y52502D01*
X64063Y52428D01*
X64041Y52346D01*
X64016Y52256D01*
X63995Y52161D01*
X63973Y52060D01*
X63954Y51956D01*
X63935Y51847D01*
X63921Y51738D01*
X63907Y51623D01*
X63899Y51511D01*
X63645D01*
Y51514D01*
Y51525D01*
Y51544D01*
X63648Y51566D01*
Y51596D01*
X63651Y51631D01*
X63653Y51672D01*
X63659Y51718D01*
X63664Y51770D01*
X63670Y51825D01*
X63678Y51885D01*
X63686Y51948D01*
X63697Y52016D01*
X63711Y52087D01*
X63724Y52161D01*
X63741Y52237D01*
Y52243D01*
X63746Y52256D01*
X63752Y52278D01*
X63757Y52308D01*
X63768Y52346D01*
X63779Y52390D01*
X63793Y52439D01*
X63809Y52494D01*
X63825Y52551D01*
X63847Y52614D01*
X63866Y52680D01*
X63891Y52748D01*
X63943Y52890D01*
X64000Y53032D01*
X64003Y53037D01*
X64008Y53048D01*
X64016Y53067D01*
X64030Y53094D01*
X64044Y53127D01*
X64063Y53165D01*
X64082Y53206D01*
X64107Y53253D01*
X64131Y53302D01*
X64158Y53354D01*
X64218Y53460D01*
X64284Y53569D01*
X64355Y53673D01*
X63361D01*
Y53965D01*
X64677D01*
Y53728D01*
D02*
G37*
G36*
X53308Y44947D02*
X53335Y44944D01*
X53371Y44938D01*
X53409Y44933D01*
X53447Y44925D01*
X53491Y44914D01*
X53537Y44900D01*
X53584Y44884D01*
X53630Y44865D01*
X53676Y44840D01*
X53723Y44813D01*
X53767Y44783D01*
X53810Y44747D01*
X53813Y44745D01*
X53819Y44739D01*
X53829Y44728D01*
X53843Y44712D01*
X53859Y44693D01*
X53878Y44668D01*
X53898Y44641D01*
X53917Y44611D01*
X53939Y44578D01*
X53958Y44540D01*
X53977Y44502D01*
X53993Y44458D01*
X54007Y44414D01*
X54018Y44365D01*
X54023Y44316D01*
X54026Y44264D01*
Y44239D01*
X54023Y44220D01*
X54021Y44199D01*
X54015Y44171D01*
X54010Y44144D01*
X54001Y44111D01*
X53993Y44078D01*
X53980Y44043D01*
X53966Y44005D01*
X53947Y43969D01*
X53925Y43931D01*
X53900Y43893D01*
X53870Y43857D01*
X53838Y43822D01*
X53835Y43819D01*
X53829Y43813D01*
X53819Y43805D01*
X53802Y43794D01*
X53783Y43778D01*
X53761Y43764D01*
X53734Y43745D01*
X53701Y43729D01*
X53666Y43710D01*
X53627Y43693D01*
X53586Y43674D01*
X53540Y43661D01*
X53491Y43644D01*
X53439Y43633D01*
X53384Y43622D01*
X53324Y43617D01*
X53283Y43865D01*
X53289D01*
X53305Y43868D01*
X53330Y43874D01*
X53360Y43882D01*
X53398Y43893D01*
X53439Y43906D01*
X53483Y43923D01*
X53529Y43945D01*
X53575Y43966D01*
X53619Y43994D01*
X53660Y44026D01*
X53698Y44065D01*
X53728Y44106D01*
X53753Y44152D01*
X53769Y44201D01*
X53772Y44229D01*
X53775Y44258D01*
Y44275D01*
X53772Y44289D01*
X53769Y44302D01*
X53767Y44319D01*
X53756Y44359D01*
X53739Y44406D01*
X53715Y44458D01*
X53698Y44482D01*
X53676Y44507D01*
X53655Y44532D01*
X53630Y44556D01*
X53627Y44559D01*
X53625Y44561D01*
X53616Y44567D01*
X53603Y44575D01*
X53589Y44586D01*
X53573Y44597D01*
X53551Y44608D01*
X53529Y44619D01*
X53474Y44641D01*
X53412Y44662D01*
X53338Y44676D01*
X53297Y44682D01*
X53256D01*
X53253D01*
X53245D01*
X53234D01*
X53221Y44679D01*
X53202D01*
X53180Y44676D01*
X53131Y44668D01*
X53076Y44654D01*
X53016Y44633D01*
X52959Y44603D01*
X52931Y44586D01*
X52907Y44564D01*
X52904D01*
X52901Y44559D01*
X52885Y44545D01*
X52863Y44521D01*
X52838Y44485D01*
X52814Y44444D01*
X52795Y44398D01*
X52778Y44343D01*
X52776Y44313D01*
X52773Y44283D01*
Y44269D01*
X52776Y44256D01*
X52778Y44234D01*
X52781Y44209D01*
X52786Y44179D01*
X52798Y44147D01*
X52808Y44108D01*
X52538Y44138D01*
X52544Y44177D01*
Y44196D01*
X52541Y44207D01*
Y44223D01*
X52538Y44242D01*
X52530Y44283D01*
X52516Y44332D01*
X52497Y44381D01*
X52470Y44431D01*
X52432Y44477D01*
X52429Y44480D01*
X52426Y44482D01*
X52410Y44496D01*
X52385Y44515D01*
X52350Y44537D01*
X52306Y44556D01*
X52254Y44575D01*
X52197Y44589D01*
X52164Y44594D01*
X52129D01*
X52126D01*
X52120D01*
X52112D01*
X52099Y44592D01*
X52069Y44589D01*
X52028Y44583D01*
X51984Y44570D01*
X51938Y44553D01*
X51891Y44529D01*
X51847Y44496D01*
X51842Y44491D01*
X51831Y44480D01*
X51815Y44458D01*
X51793Y44431D01*
X51774Y44395D01*
X51757Y44354D01*
X51746Y44308D01*
X51741Y44258D01*
Y44245D01*
X51744Y44234D01*
X51746Y44207D01*
X51755Y44174D01*
X51768Y44136D01*
X51787Y44095D01*
X51815Y44054D01*
X51853Y44013D01*
X51858Y44007D01*
X51875Y43996D01*
X51899Y43980D01*
X51938Y43961D01*
X51984Y43939D01*
X52041Y43920D01*
X52109Y43904D01*
X52189Y43890D01*
X52134Y43641D01*
X52131D01*
X52120Y43644D01*
X52104Y43647D01*
X52082Y43652D01*
X52055Y43658D01*
X52025Y43666D01*
X51992Y43674D01*
X51954Y43685D01*
X51877Y43712D01*
X51798Y43751D01*
X51722Y43794D01*
X51686Y43822D01*
X51654Y43852D01*
X51651Y43854D01*
X51645Y43860D01*
X51637Y43868D01*
X51629Y43882D01*
X51615Y43898D01*
X51602Y43917D01*
X51588Y43939D01*
X51572Y43964D01*
X51555Y43994D01*
X51542Y44024D01*
X51514Y44092D01*
X51506Y44130D01*
X51498Y44171D01*
X51493Y44212D01*
X51490Y44256D01*
Y44280D01*
X51493Y44297D01*
X51495Y44319D01*
X51501Y44343D01*
X51506Y44370D01*
X51512Y44401D01*
X51534Y44466D01*
X51550Y44502D01*
X51566Y44537D01*
X51588Y44572D01*
X51613Y44605D01*
X51640Y44641D01*
X51673Y44673D01*
X51675Y44676D01*
X51681Y44682D01*
X51692Y44690D01*
X51705Y44701D01*
X51725Y44714D01*
X51746Y44728D01*
X51771Y44745D01*
X51798Y44761D01*
X51831Y44777D01*
X51867Y44794D01*
X51905Y44807D01*
X51946Y44821D01*
X51987Y44832D01*
X52033Y44840D01*
X52082Y44846D01*
X52134Y44848D01*
X52137D01*
X52142D01*
X52150D01*
X52161D01*
X52178Y44846D01*
X52194D01*
X52235Y44840D01*
X52281Y44829D01*
X52333Y44818D01*
X52382Y44799D01*
X52434Y44774D01*
X52437D01*
X52440Y44772D01*
X52456Y44761D01*
X52481Y44745D01*
X52508Y44723D01*
X52541Y44693D01*
X52576Y44657D01*
X52609Y44616D01*
X52639Y44570D01*
Y44572D01*
X52642Y44575D01*
X52645Y44592D01*
X52653Y44613D01*
X52666Y44641D01*
X52680Y44673D01*
X52699Y44706D01*
X52724Y44742D01*
X52751Y44772D01*
X52754Y44774D01*
X52765Y44785D01*
X52781Y44799D01*
X52806Y44818D01*
X52836Y44837D01*
X52871Y44859D01*
X52912Y44881D01*
X52959Y44900D01*
X52961D01*
X52964Y44903D01*
X52972Y44905D01*
X52980Y44908D01*
X53008Y44916D01*
X53043Y44925D01*
X53087Y44933D01*
X53136Y44941D01*
X53191Y44947D01*
X53251Y44949D01*
X53253D01*
X53264D01*
X53283D01*
X53308Y44947D01*
D02*
G37*
G36*
X53985Y43120D02*
X53469Y42850D01*
X53466Y42847D01*
X53455Y42842D01*
X53439Y42833D01*
X53420Y42825D01*
X53395Y42812D01*
X53368Y42795D01*
X53305Y42760D01*
X53237Y42722D01*
X53169Y42681D01*
X53136Y42661D01*
X53109Y42642D01*
X53081Y42626D01*
X53060Y42610D01*
X53054Y42607D01*
X53043Y42596D01*
X53024Y42580D01*
X53002Y42560D01*
X52978Y42536D01*
X52956Y42511D01*
X52934Y42484D01*
X52918Y42454D01*
X52915Y42451D01*
X52912Y42440D01*
X52907Y42424D01*
X52899Y42399D01*
X52890Y42369D01*
X52885Y42334D01*
X52882Y42293D01*
X52879Y42244D01*
Y41935D01*
X53985D01*
Y41665D01*
X51498D01*
Y42615D01*
X51501Y42637D01*
Y42664D01*
X51503Y42694D01*
X51506Y42727D01*
X51514Y42792D01*
X51528Y42864D01*
X51544Y42926D01*
X51555Y42956D01*
X51569Y42984D01*
Y42986D01*
X51572Y42989D01*
X51583Y43005D01*
X51599Y43033D01*
X51624Y43063D01*
X51656Y43098D01*
X51695Y43137D01*
X51744Y43172D01*
X51801Y43207D01*
X51804D01*
X51809Y43210D01*
X51817Y43216D01*
X51828Y43221D01*
X51845Y43227D01*
X51864Y43235D01*
X51883Y43243D01*
X51907Y43251D01*
X51962Y43268D01*
X52028Y43281D01*
X52099Y43292D01*
X52175Y43295D01*
X52178D01*
X52189D01*
X52202D01*
X52221Y43292D01*
X52246Y43289D01*
X52273Y43287D01*
X52306Y43284D01*
X52339Y43276D01*
X52412Y43259D01*
X52489Y43232D01*
X52527Y43216D01*
X52563Y43196D01*
X52601Y43175D01*
X52634Y43147D01*
X52636Y43145D01*
X52642Y43142D01*
X52650Y43131D01*
X52661Y43120D01*
X52675Y43104D01*
X52691Y43087D01*
X52707Y43066D01*
X52727Y43038D01*
X52746Y43011D01*
X52765Y42978D01*
X52784Y42943D01*
X52800Y42904D01*
X52817Y42864D01*
X52833Y42820D01*
X52844Y42773D01*
X52855Y42722D01*
X52858Y42727D01*
X52866Y42741D01*
X52879Y42760D01*
X52899Y42784D01*
X52918Y42812D01*
X52942Y42842D01*
X52967Y42869D01*
X52994Y42893D01*
X52997Y42896D01*
X53000Y42899D01*
X53008Y42904D01*
X53019Y42913D01*
X53049Y42937D01*
X53087Y42965D01*
X53133Y42997D01*
X53188Y43033D01*
X53248Y43068D01*
X53311Y43104D01*
X53985Y43461D01*
Y43120D01*
D02*
G37*
G36*
X57349Y47702D02*
X57377Y47699D01*
X57407Y47693D01*
X57440Y47688D01*
X57475Y47677D01*
X57513Y47666D01*
X57551Y47652D01*
X57592Y47636D01*
X57631Y47617D01*
X57669Y47592D01*
X57707Y47562D01*
X57740Y47532D01*
X57773Y47494D01*
X57775Y47491D01*
X57781Y47486D01*
X57786Y47472D01*
X57797Y47456D01*
X57811Y47437D01*
X57824Y47412D01*
X57838Y47385D01*
X57855Y47355D01*
X57868Y47322D01*
X57882Y47284D01*
X57909Y47202D01*
X57920Y47158D01*
X57925Y47112D01*
X57931Y47063D01*
X57934Y47014D01*
Y47011D01*
Y47003D01*
Y46989D01*
X57931Y46973D01*
Y46951D01*
X57928Y46926D01*
X57923Y46899D01*
X57917Y46869D01*
X57904Y46798D01*
X57879Y46722D01*
X57849Y46640D01*
X57827Y46599D01*
X57805Y46558D01*
X57803Y46555D01*
X57800Y46547D01*
X57792Y46536D01*
X57781Y46520D01*
X57765Y46498D01*
X57748Y46470D01*
X57726Y46440D01*
X57699Y46405D01*
X57669Y46364D01*
X57633Y46323D01*
X57595Y46274D01*
X57551Y46222D01*
X57505Y46167D01*
X57450Y46107D01*
X57393Y46044D01*
X57330Y45979D01*
X57328Y45976D01*
X57319Y45968D01*
X57309Y45957D01*
X57295Y45941D01*
X57276Y45924D01*
X57257Y45902D01*
X57210Y45853D01*
X57158Y45801D01*
X57112Y45750D01*
X57071Y45703D01*
X57052Y45681D01*
X57038Y45665D01*
X57036Y45662D01*
X57027Y45651D01*
X57016Y45635D01*
X57000Y45613D01*
X56984Y45589D01*
X56967Y45561D01*
X56935Y45501D01*
X57937D01*
Y45209D01*
X56588D01*
Y45212D01*
Y45217D01*
Y45228D01*
Y45239D01*
X56591Y45258D01*
X56593Y45277D01*
X56596Y45299D01*
X56599Y45327D01*
X56612Y45384D01*
X56631Y45452D01*
X56659Y45526D01*
X56675Y45564D01*
X56694Y45605D01*
X56697Y45608D01*
X56700Y45616D01*
X56708Y45627D01*
X56716Y45643D01*
X56730Y45665D01*
X56746Y45690D01*
X56765Y45720D01*
X56790Y45752D01*
X56817Y45791D01*
X56847Y45829D01*
X56880Y45873D01*
X56918Y45919D01*
X56959Y45968D01*
X57006Y46017D01*
X57055Y46072D01*
X57109Y46126D01*
X57112Y46129D01*
X57126Y46143D01*
X57142Y46159D01*
X57167Y46184D01*
X57194Y46214D01*
X57227Y46246D01*
X57262Y46285D01*
X57300Y46326D01*
X57377Y46413D01*
X57453Y46503D01*
X57489Y46547D01*
X57519Y46588D01*
X57549Y46629D01*
X57571Y46667D01*
Y46670D01*
X57576Y46675D01*
X57582Y46686D01*
X57587Y46700D01*
X57595Y46716D01*
X57606Y46735D01*
X57625Y46784D01*
X57644Y46839D01*
X57664Y46896D01*
X57674Y46959D01*
X57680Y47022D01*
Y47025D01*
Y47030D01*
Y47041D01*
X57677Y47055D01*
Y47071D01*
X57674Y47090D01*
X57666Y47134D01*
X57652Y47183D01*
X57633Y47235D01*
X57606Y47287D01*
X57568Y47333D01*
Y47336D01*
X57563Y47339D01*
X57549Y47352D01*
X57524Y47371D01*
X57491Y47393D01*
X57450Y47415D01*
X57404Y47434D01*
X57352Y47448D01*
X57322Y47453D01*
X57276D01*
X57262Y47450D01*
X57249D01*
X57229Y47448D01*
X57188Y47437D01*
X57145Y47420D01*
X57096Y47399D01*
X57047Y47366D01*
X57025Y47344D01*
X57003Y47322D01*
Y47319D01*
X56997Y47317D01*
X56992Y47308D01*
X56986Y47297D01*
X56978Y47284D01*
X56967Y47270D01*
X56956Y47251D01*
X56948Y47229D01*
X56937Y47202D01*
X56926Y47175D01*
X56918Y47145D01*
X56907Y47112D01*
X56896Y47038D01*
X56891Y46954D01*
X56634Y46986D01*
Y46992D01*
X56637Y47003D01*
Y47019D01*
X56640Y47044D01*
X56645Y47074D01*
X56651Y47109D01*
X56659Y47145D01*
X56670Y47186D01*
X56694Y47273D01*
X56711Y47317D01*
X56730Y47363D01*
X56752Y47404D01*
X56776Y47448D01*
X56804Y47486D01*
X56833Y47521D01*
X56836Y47524D01*
X56842Y47530D01*
X56853Y47538D01*
X56866Y47551D01*
X56883Y47565D01*
X56905Y47579D01*
X56929Y47595D01*
X56959Y47614D01*
X56989Y47631D01*
X57025Y47647D01*
X57063Y47661D01*
X57104Y47677D01*
X57148Y47688D01*
X57197Y47696D01*
X57246Y47702D01*
X57298Y47704D01*
X57328D01*
X57349Y47702D01*
D02*
G37*
G36*
X55638Y47693D02*
X55665D01*
X55695Y47691D01*
X55728Y47688D01*
X55793Y47680D01*
X55864Y47666D01*
X55927Y47650D01*
X55957Y47639D01*
X55984Y47625D01*
X55987D01*
X55990Y47622D01*
X56006Y47611D01*
X56034Y47595D01*
X56064Y47570D01*
X56099Y47538D01*
X56137Y47500D01*
X56173Y47450D01*
X56208Y47393D01*
Y47390D01*
X56211Y47385D01*
X56217Y47377D01*
X56222Y47366D01*
X56227Y47349D01*
X56236Y47330D01*
X56244Y47311D01*
X56252Y47287D01*
X56268Y47232D01*
X56282Y47166D01*
X56293Y47096D01*
X56296Y47019D01*
Y47016D01*
Y47005D01*
Y46992D01*
X56293Y46973D01*
X56290Y46948D01*
X56287Y46921D01*
X56285Y46888D01*
X56277Y46855D01*
X56260Y46782D01*
X56233Y46705D01*
X56217Y46667D01*
X56198Y46631D01*
X56176Y46593D01*
X56148Y46560D01*
X56146Y46558D01*
X56143Y46552D01*
X56132Y46544D01*
X56121Y46533D01*
X56105Y46520D01*
X56088Y46503D01*
X56066Y46487D01*
X56039Y46468D01*
X56012Y46448D01*
X55979Y46429D01*
X55944Y46410D01*
X55905Y46394D01*
X55864Y46378D01*
X55821Y46361D01*
X55774Y46350D01*
X55722Y46339D01*
X55728Y46337D01*
X55742Y46328D01*
X55761Y46315D01*
X55785Y46296D01*
X55813Y46277D01*
X55843Y46252D01*
X55870Y46227D01*
X55894Y46200D01*
X55897Y46197D01*
X55900Y46195D01*
X55905Y46186D01*
X55914Y46176D01*
X55938Y46145D01*
X55965Y46107D01*
X55998Y46061D01*
X56034Y46006D01*
X56069Y45946D01*
X56105Y45883D01*
X56462Y45209D01*
X56121D01*
X55851Y45725D01*
X55848Y45728D01*
X55843Y45739D01*
X55834Y45755D01*
X55826Y45774D01*
X55813Y45799D01*
X55796Y45826D01*
X55761Y45889D01*
X55722Y45957D01*
X55682Y46025D01*
X55662Y46058D01*
X55643Y46085D01*
X55627Y46113D01*
X55611Y46135D01*
X55608Y46140D01*
X55597Y46151D01*
X55581Y46170D01*
X55561Y46192D01*
X55537Y46216D01*
X55512Y46238D01*
X55485Y46260D01*
X55455Y46277D01*
X55452Y46279D01*
X55441Y46282D01*
X55425Y46287D01*
X55400Y46296D01*
X55370Y46304D01*
X55335Y46309D01*
X55294Y46312D01*
X55245Y46315D01*
X54936D01*
Y45209D01*
X54666D01*
Y47696D01*
X55616D01*
X55638Y47693D01*
D02*
G37*
G36*
X71577Y20145D02*
X71596Y20143D01*
X71620Y20140D01*
X71672Y20129D01*
X71732Y20110D01*
X71765Y20096D01*
X71798Y20083D01*
X71831Y20063D01*
X71863Y20042D01*
X71893Y20017D01*
X71923Y19990D01*
X71926Y19987D01*
X71932Y19982D01*
X71937Y19973D01*
X71948Y19960D01*
X71962Y19943D01*
X71975Y19924D01*
X71992Y19899D01*
X72008Y19872D01*
X72025Y19842D01*
X72041Y19809D01*
X72057Y19771D01*
X72071Y19730D01*
X72087Y19684D01*
X72098Y19637D01*
X72109Y19586D01*
X72117Y19531D01*
X71869Y19506D01*
Y19509D01*
X71866Y19515D01*
Y19525D01*
X71863Y19536D01*
X71855Y19569D01*
X71842Y19610D01*
X71828Y19657D01*
X71809Y19700D01*
X71787Y19741D01*
X71762Y19777D01*
Y19779D01*
X71757Y19782D01*
X71746Y19796D01*
X71724Y19815D01*
X71697Y19837D01*
X71661Y19859D01*
X71620Y19878D01*
X71574Y19891D01*
X71549Y19897D01*
X71514D01*
X71500Y19894D01*
X71487Y19891D01*
X71468Y19889D01*
X71446Y19883D01*
X71421Y19875D01*
X71397Y19864D01*
X71369Y19848D01*
X71342Y19831D01*
X71312Y19809D01*
X71282Y19782D01*
X71255Y19749D01*
X71225Y19714D01*
X71197Y19673D01*
X71173Y19624D01*
Y19621D01*
X71167Y19613D01*
X71162Y19599D01*
X71156Y19580D01*
X71145Y19556D01*
X71137Y19525D01*
X71126Y19490D01*
X71115Y19452D01*
X71107Y19405D01*
X71096Y19354D01*
X71085Y19296D01*
X71077Y19233D01*
X71069Y19168D01*
X71064Y19094D01*
X71061Y19018D01*
X71058Y18936D01*
X71058Y18936D01*
Y18933D01*
X71058Y18936D01*
X71061Y18941D01*
X71066Y18949D01*
X71074Y18960D01*
X71093Y18991D01*
X71118Y19026D01*
X71148Y19067D01*
X71186Y19108D01*
X71227Y19146D01*
X71274Y19182D01*
X71276D01*
X71279Y19184D01*
X71287Y19190D01*
X71295Y19195D01*
X71323Y19209D01*
X71358Y19225D01*
X71399Y19239D01*
X71446Y19252D01*
X71498Y19263D01*
X71552Y19266D01*
X71563D01*
X71577Y19263D01*
X71593D01*
X71612Y19261D01*
X71637Y19255D01*
X71664Y19247D01*
X71694Y19239D01*
X71727Y19228D01*
X71760Y19212D01*
X71795Y19195D01*
X71831Y19173D01*
X71866Y19149D01*
X71902Y19119D01*
X71937Y19083D01*
X71973Y19045D01*
X71975Y19042D01*
X71981Y19034D01*
X71989Y19023D01*
X72003Y19004D01*
X72016Y18982D01*
X72030Y18958D01*
X72046Y18925D01*
X72065Y18889D01*
X72082Y18851D01*
X72098Y18805D01*
X72112Y18758D01*
X72128Y18707D01*
X72139Y18649D01*
X72147Y18589D01*
X72153Y18526D01*
X72155Y18458D01*
Y18455D01*
Y18447D01*
Y18433D01*
Y18417D01*
X72153Y18395D01*
X72150Y18368D01*
X72147Y18341D01*
X72145Y18308D01*
X72134Y18240D01*
X72117Y18163D01*
X72093Y18084D01*
X72063Y18005D01*
Y18002D01*
X72060Y17997D01*
X72054Y17986D01*
X72046Y17972D01*
X72038Y17956D01*
X72027Y17937D01*
X72000Y17893D01*
X71967Y17844D01*
X71926Y17795D01*
X71882Y17748D01*
X71831Y17707D01*
X71828D01*
X71825Y17705D01*
X71817Y17699D01*
X71806Y17694D01*
X71776Y17677D01*
X71738Y17661D01*
X71691Y17642D01*
X71640Y17628D01*
X71579Y17617D01*
X71517Y17612D01*
X71503D01*
X71487Y17615D01*
X71465Y17617D01*
X71440Y17620D01*
X71408Y17626D01*
X71375Y17634D01*
X71337Y17647D01*
X71298Y17661D01*
X71257Y17680D01*
X71216Y17702D01*
X71173Y17729D01*
X71129Y17759D01*
X71088Y17797D01*
X71047Y17838D01*
X71009Y17887D01*
X71006Y17890D01*
X71001Y17901D01*
X70990Y17918D01*
X70979Y17942D01*
X70963Y17972D01*
X70946Y18010D01*
X70927Y18054D01*
X70911Y18109D01*
X70891Y18169D01*
X70872Y18237D01*
X70856Y18313D01*
X70840Y18398D01*
X70829Y18488D01*
X70818Y18589D01*
X70812Y18698D01*
X70810Y18816D01*
Y18819D01*
Y18824D01*
Y18835D01*
Y18848D01*
Y18865D01*
X70812Y18884D01*
Y18906D01*
Y18933D01*
X70815Y18991D01*
X70820Y19059D01*
X70826Y19132D01*
X70834Y19214D01*
X70845Y19296D01*
X70859Y19381D01*
X70875Y19466D01*
X70894Y19550D01*
X70919Y19632D01*
X70946Y19708D01*
X70976Y19777D01*
X71012Y19839D01*
X71014Y19842D01*
X71020Y19853D01*
X71034Y19867D01*
X71050Y19889D01*
X71069Y19910D01*
X71093Y19938D01*
X71121Y19965D01*
X71154Y19995D01*
X71192Y20022D01*
X71230Y20050D01*
X71274Y20077D01*
X71320Y20099D01*
X71369Y20121D01*
X71424Y20134D01*
X71478Y20145D01*
X71539Y20148D01*
X71560D01*
X71577Y20145D01*
D02*
G37*
G36*
X69802Y20181D02*
X69827Y20178D01*
X69857Y20173D01*
X69890Y20167D01*
X69928Y20162D01*
X70007Y20137D01*
X70048Y20123D01*
X70092Y20104D01*
X70133Y20085D01*
X70176Y20058D01*
X70217Y20031D01*
X70258Y19998D01*
X70261Y19995D01*
X70266Y19990D01*
X70277Y19979D01*
X70294Y19965D01*
X70310Y19946D01*
X70329Y19921D01*
X70351Y19894D01*
X70376Y19861D01*
X70400Y19826D01*
X70425Y19785D01*
X70449Y19741D01*
X70474Y19695D01*
X70498Y19640D01*
X70520Y19586D01*
X70542Y19525D01*
X70558Y19460D01*
X70294Y19384D01*
Y19386D01*
X70291Y19389D01*
X70288Y19405D01*
X70277Y19433D01*
X70266Y19466D01*
X70250Y19504D01*
X70228Y19547D01*
X70204Y19594D01*
X70174Y19643D01*
X70141Y19692D01*
X70100Y19738D01*
X70056Y19782D01*
X70007Y19820D01*
X69950Y19853D01*
X69890Y19880D01*
X69821Y19897D01*
X69786Y19899D01*
X69748Y19902D01*
X69728D01*
X69712Y19899D01*
X69696D01*
X69674Y19897D01*
X69627Y19889D01*
X69570Y19878D01*
X69513Y19859D01*
X69450Y19831D01*
X69393Y19796D01*
X69390D01*
X69387Y19790D01*
X69379Y19785D01*
X69368Y19777D01*
X69341Y19752D01*
X69308Y19717D01*
X69270Y19670D01*
X69232Y19616D01*
X69191Y19547D01*
X69172Y19512D01*
X69155Y19471D01*
Y19468D01*
X69152Y19460D01*
X69147Y19449D01*
X69142Y19430D01*
X69136Y19408D01*
X69128Y19384D01*
X69120Y19354D01*
X69112Y19318D01*
X69103Y19280D01*
X69095Y19239D01*
X69087Y19193D01*
X69081Y19143D01*
X69076Y19092D01*
X69071Y19034D01*
X69068Y18977D01*
Y18914D01*
Y18911D01*
Y18909D01*
Y18892D01*
Y18865D01*
X69071Y18829D01*
X69073Y18788D01*
X69076Y18739D01*
X69081Y18685D01*
X69090Y18627D01*
X69101Y18565D01*
X69112Y18502D01*
X69125Y18439D01*
X69142Y18376D01*
X69163Y18313D01*
X69188Y18253D01*
X69215Y18199D01*
X69245Y18147D01*
X69248Y18144D01*
X69253Y18136D01*
X69264Y18122D01*
X69278Y18109D01*
X69297Y18087D01*
X69319Y18068D01*
X69344Y18043D01*
X69374Y18021D01*
X69406Y17997D01*
X69442Y17972D01*
X69480Y17953D01*
X69524Y17934D01*
X69567Y17918D01*
X69617Y17904D01*
X69669Y17896D01*
X69723Y17893D01*
X69745D01*
X69761Y17896D01*
X69780Y17898D01*
X69802Y17901D01*
X69854Y17912D01*
X69914Y17931D01*
X69944Y17945D01*
X69977Y17958D01*
X70010Y17978D01*
X70043Y17997D01*
X70075Y18021D01*
X70105Y18049D01*
X70108Y18051D01*
X70113Y18057D01*
X70122Y18065D01*
X70133Y18079D01*
X70144Y18095D01*
X70160Y18117D01*
X70176Y18139D01*
X70193Y18169D01*
X70212Y18199D01*
X70228Y18234D01*
X70247Y18275D01*
X70264Y18316D01*
X70280Y18363D01*
X70296Y18414D01*
X70310Y18469D01*
X70321Y18526D01*
X70591Y18444D01*
Y18439D01*
X70586Y18425D01*
X70580Y18404D01*
X70575Y18376D01*
X70564Y18341D01*
X70550Y18300D01*
X70537Y18256D01*
X70517Y18210D01*
X70498Y18158D01*
X70474Y18106D01*
X70449Y18054D01*
X70419Y18002D01*
X70389Y17950D01*
X70354Y17904D01*
X70315Y17857D01*
X70275Y17817D01*
X70272Y17814D01*
X70264Y17808D01*
X70253Y17797D01*
X70234Y17784D01*
X70212Y17770D01*
X70187Y17751D01*
X70157Y17735D01*
X70122Y17716D01*
X70083Y17696D01*
X70043Y17677D01*
X69999Y17658D01*
X69950Y17645D01*
X69898Y17631D01*
X69846Y17620D01*
X69789Y17615D01*
X69728Y17612D01*
X69701D01*
X69682Y17615D01*
X69657Y17617D01*
X69627Y17620D01*
X69598Y17623D01*
X69562Y17628D01*
X69486Y17645D01*
X69404Y17669D01*
X69363Y17685D01*
X69322Y17705D01*
X69281Y17724D01*
X69243Y17748D01*
X69240Y17751D01*
X69234Y17754D01*
X69223Y17762D01*
X69210Y17776D01*
X69193Y17789D01*
X69172Y17808D01*
X69150Y17830D01*
X69128Y17855D01*
X69101Y17885D01*
X69076Y17918D01*
X69049Y17953D01*
X69021Y17994D01*
X68994Y18038D01*
X68967Y18084D01*
X68940Y18136D01*
X68915Y18191D01*
Y18193D01*
X68910Y18204D01*
X68904Y18221D01*
X68896Y18245D01*
X68885Y18275D01*
X68874Y18311D01*
X68863Y18349D01*
X68852Y18395D01*
X68841Y18447D01*
X68830Y18502D01*
X68819Y18562D01*
X68809Y18625D01*
X68800Y18693D01*
X68795Y18764D01*
X68792Y18838D01*
X68789Y18914D01*
Y18920D01*
Y18933D01*
Y18955D01*
X68792Y18982D01*
Y19018D01*
X68795Y19059D01*
X68800Y19105D01*
X68806Y19154D01*
X68811Y19209D01*
X68819Y19263D01*
X68841Y19378D01*
X68874Y19496D01*
X68893Y19553D01*
X68915Y19607D01*
X68918Y19610D01*
X68920Y19621D01*
X68929Y19635D01*
X68940Y19654D01*
X68950Y19678D01*
X68967Y19706D01*
X68986Y19736D01*
X69008Y19769D01*
X69057Y19837D01*
X69114Y19908D01*
X69185Y19976D01*
X69221Y20009D01*
X69262Y20036D01*
X69264Y20039D01*
X69273Y20042D01*
X69283Y20050D01*
X69300Y20058D01*
X69322Y20072D01*
X69346Y20083D01*
X69374Y20096D01*
X69406Y20110D01*
X69442Y20123D01*
X69480Y20137D01*
X69562Y20162D01*
X69655Y20178D01*
X69704Y20181D01*
X69753Y20184D01*
X69783D01*
X69802Y20181D01*
D02*
G37*
G36*
X84360D02*
X84384Y20178D01*
X84414Y20173D01*
X84447Y20167D01*
X84485Y20162D01*
X84564Y20137D01*
X84605Y20123D01*
X84649Y20104D01*
X84690Y20085D01*
X84734Y20058D01*
X84775Y20031D01*
X84816Y19998D01*
X84818Y19995D01*
X84824Y19990D01*
X84835Y19979D01*
X84851Y19965D01*
X84867Y19946D01*
X84886Y19921D01*
X84908Y19894D01*
X84933Y19861D01*
X84957Y19826D01*
X84982Y19785D01*
X85007Y19741D01*
X85031Y19695D01*
X85056Y19640D01*
X85078Y19586D01*
X85099Y19525D01*
X85116Y19460D01*
X84851Y19384D01*
Y19386D01*
X84848Y19389D01*
X84846Y19405D01*
X84835Y19433D01*
X84824Y19466D01*
X84807Y19504D01*
X84785Y19547D01*
X84761Y19594D01*
X84731Y19643D01*
X84698Y19692D01*
X84657Y19738D01*
X84614Y19782D01*
X84564Y19820D01*
X84507Y19853D01*
X84447Y19880D01*
X84379Y19897D01*
X84343Y19899D01*
X84305Y19902D01*
X84286D01*
X84269Y19899D01*
X84253D01*
X84231Y19897D01*
X84185Y19889D01*
X84127Y19878D01*
X84070Y19859D01*
X84007Y19831D01*
X83950Y19796D01*
X83947D01*
X83945Y19790D01*
X83937Y19785D01*
X83925Y19777D01*
X83898Y19752D01*
X83865Y19717D01*
X83827Y19670D01*
X83789Y19616D01*
X83748Y19547D01*
X83729Y19512D01*
X83713Y19471D01*
Y19468D01*
X83710Y19460D01*
X83704Y19449D01*
X83699Y19430D01*
X83693Y19408D01*
X83685Y19384D01*
X83677Y19354D01*
X83669Y19318D01*
X83661Y19280D01*
X83653Y19239D01*
X83644Y19193D01*
X83639Y19143D01*
X83633Y19092D01*
X83628Y19034D01*
X83625Y18977D01*
Y18914D01*
Y18911D01*
Y18909D01*
Y18892D01*
Y18865D01*
X83628Y18829D01*
X83631Y18788D01*
X83633Y18739D01*
X83639Y18685D01*
X83647Y18627D01*
X83658Y18565D01*
X83669Y18502D01*
X83683Y18439D01*
X83699Y18376D01*
X83721Y18313D01*
X83745Y18253D01*
X83773Y18199D01*
X83803Y18147D01*
X83805Y18144D01*
X83811Y18136D01*
X83822Y18122D01*
X83835Y18109D01*
X83855Y18087D01*
X83876Y18068D01*
X83901Y18043D01*
X83931Y18021D01*
X83964Y17997D01*
X83999Y17972D01*
X84038Y17953D01*
X84081Y17934D01*
X84125Y17918D01*
X84174Y17904D01*
X84226Y17896D01*
X84280Y17893D01*
X84302D01*
X84319Y17896D01*
X84338Y17898D01*
X84360Y17901D01*
X84412Y17912D01*
X84471Y17931D01*
X84502Y17945D01*
X84534Y17958D01*
X84567Y17978D01*
X84600Y17997D01*
X84633Y18021D01*
X84663Y18049D01*
X84665Y18051D01*
X84671Y18057D01*
X84679Y18065D01*
X84690Y18079D01*
X84701Y18095D01*
X84717Y18117D01*
X84734Y18139D01*
X84750Y18169D01*
X84769Y18199D01*
X84785Y18234D01*
X84805Y18275D01*
X84821Y18316D01*
X84837Y18363D01*
X84854Y18414D01*
X84867Y18469D01*
X84878Y18526D01*
X85149Y18444D01*
Y18439D01*
X85143Y18425D01*
X85138Y18404D01*
X85132Y18376D01*
X85121Y18341D01*
X85108Y18300D01*
X85094Y18256D01*
X85075Y18210D01*
X85056Y18158D01*
X85031Y18106D01*
X85007Y18054D01*
X84977Y18002D01*
X84947Y17950D01*
X84911Y17904D01*
X84873Y17857D01*
X84832Y17817D01*
X84829Y17814D01*
X84821Y17808D01*
X84810Y17797D01*
X84791Y17784D01*
X84769Y17770D01*
X84745Y17751D01*
X84715Y17735D01*
X84679Y17716D01*
X84641Y17696D01*
X84600Y17677D01*
X84556Y17658D01*
X84507Y17645D01*
X84455Y17631D01*
X84403Y17620D01*
X84346Y17615D01*
X84286Y17612D01*
X84259D01*
X84240Y17615D01*
X84215Y17617D01*
X84185Y17620D01*
X84155Y17623D01*
X84119Y17628D01*
X84043Y17645D01*
X83961Y17669D01*
X83920Y17685D01*
X83879Y17705D01*
X83838Y17724D01*
X83800Y17748D01*
X83797Y17751D01*
X83792Y17754D01*
X83781Y17762D01*
X83767Y17776D01*
X83751Y17789D01*
X83729Y17808D01*
X83707Y17830D01*
X83685Y17855D01*
X83658Y17885D01*
X83633Y17918D01*
X83606Y17953D01*
X83579Y17994D01*
X83552Y18038D01*
X83524Y18084D01*
X83497Y18136D01*
X83472Y18191D01*
Y18193D01*
X83467Y18204D01*
X83461Y18221D01*
X83453Y18245D01*
X83442Y18275D01*
X83431Y18311D01*
X83420Y18349D01*
X83410Y18395D01*
X83399Y18447D01*
X83388Y18502D01*
X83377Y18562D01*
X83366Y18625D01*
X83358Y18693D01*
X83352Y18764D01*
X83350Y18838D01*
X83347Y18914D01*
Y18920D01*
Y18933D01*
Y18955D01*
X83350Y18982D01*
Y19018D01*
X83352Y19059D01*
X83358Y19105D01*
X83363Y19154D01*
X83369Y19209D01*
X83377Y19263D01*
X83399Y19378D01*
X83431Y19496D01*
X83451Y19553D01*
X83472Y19607D01*
X83475Y19610D01*
X83478Y19621D01*
X83486Y19635D01*
X83497Y19654D01*
X83508Y19678D01*
X83524Y19706D01*
X83543Y19736D01*
X83565Y19769D01*
X83614Y19837D01*
X83672Y19908D01*
X83743Y19976D01*
X83778Y20009D01*
X83819Y20036D01*
X83822Y20039D01*
X83830Y20042D01*
X83841Y20050D01*
X83857Y20058D01*
X83879Y20072D01*
X83904Y20083D01*
X83931Y20096D01*
X83964Y20110D01*
X83999Y20123D01*
X84038Y20137D01*
X84119Y20162D01*
X84212Y20178D01*
X84261Y20181D01*
X84311Y20184D01*
X84341D01*
X84360Y20181D01*
D02*
G37*
G36*
X86636Y19815D02*
X85815D01*
X85708Y19143D01*
X85711Y19146D01*
X85716Y19151D01*
X85727Y19157D01*
X85741Y19168D01*
X85757Y19179D01*
X85777Y19193D01*
X85801Y19209D01*
X85826Y19222D01*
X85883Y19252D01*
X85948Y19277D01*
X85984Y19288D01*
X86019Y19296D01*
X86058Y19299D01*
X86096Y19302D01*
X86120D01*
X86140Y19299D01*
X86161Y19296D01*
X86186Y19291D01*
X86216Y19283D01*
X86249Y19274D01*
X86282Y19263D01*
X86317Y19250D01*
X86355Y19231D01*
X86391Y19209D01*
X86429Y19184D01*
X86467Y19154D01*
X86505Y19121D01*
X86541Y19083D01*
X86544Y19081D01*
X86549Y19072D01*
X86557Y19061D01*
X86571Y19042D01*
X86585Y19020D01*
X86601Y18996D01*
X86620Y18963D01*
X86636Y18928D01*
X86655Y18889D01*
X86672Y18843D01*
X86688Y18797D01*
X86702Y18745D01*
X86716Y18687D01*
X86724Y18627D01*
X86729Y18565D01*
X86732Y18496D01*
Y18494D01*
Y18480D01*
Y18461D01*
X86729Y18436D01*
X86726Y18404D01*
X86721Y18368D01*
X86716Y18327D01*
X86707Y18281D01*
X86699Y18234D01*
X86686Y18182D01*
X86669Y18131D01*
X86653Y18079D01*
X86628Y18024D01*
X86604Y17972D01*
X86574Y17920D01*
X86541Y17871D01*
X86538Y17868D01*
X86533Y17860D01*
X86522Y17847D01*
X86505Y17830D01*
X86486Y17811D01*
X86464Y17789D01*
X86437Y17765D01*
X86407Y17743D01*
X86372Y17718D01*
X86333Y17694D01*
X86292Y17672D01*
X86246Y17653D01*
X86200Y17636D01*
X86148Y17623D01*
X86090Y17615D01*
X86033Y17612D01*
X86009D01*
X85989Y17615D01*
X85965Y17617D01*
X85940Y17623D01*
X85910Y17628D01*
X85878Y17634D01*
X85807Y17655D01*
X85771Y17672D01*
X85733Y17688D01*
X85695Y17710D01*
X85656Y17735D01*
X85621Y17762D01*
X85585Y17795D01*
X85583Y17797D01*
X85577Y17803D01*
X85569Y17814D01*
X85555Y17828D01*
X85542Y17847D01*
X85525Y17871D01*
X85509Y17896D01*
X85490Y17929D01*
X85473Y17961D01*
X85454Y18000D01*
X85438Y18040D01*
X85422Y18087D01*
X85405Y18136D01*
X85394Y18191D01*
X85383Y18245D01*
X85378Y18305D01*
X85640Y18330D01*
Y18327D01*
X85643Y18319D01*
Y18308D01*
X85645Y18292D01*
X85651Y18272D01*
X85656Y18248D01*
X85667Y18196D01*
X85686Y18139D01*
X85711Y18081D01*
X85741Y18027D01*
X85757Y18000D01*
X85777Y17978D01*
X85782Y17972D01*
X85796Y17958D01*
X85817Y17942D01*
X85850Y17920D01*
X85886Y17898D01*
X85929Y17882D01*
X85976Y17868D01*
X86028Y17863D01*
X86044D01*
X86058Y17866D01*
X86074Y17868D01*
X86090Y17871D01*
X86134Y17882D01*
X86183Y17901D01*
X86208Y17915D01*
X86235Y17931D01*
X86260Y17950D01*
X86287Y17972D01*
X86312Y17997D01*
X86336Y18024D01*
X86339Y18027D01*
X86342Y18032D01*
X86347Y18040D01*
X86358Y18054D01*
X86366Y18070D01*
X86377Y18092D01*
X86391Y18114D01*
X86402Y18141D01*
X86415Y18171D01*
X86426Y18204D01*
X86437Y18242D01*
X86448Y18283D01*
X86456Y18324D01*
X86462Y18371D01*
X86464Y18420D01*
X86467Y18472D01*
Y18474D01*
Y18483D01*
Y18496D01*
X86464Y18515D01*
Y18537D01*
X86462Y18565D01*
X86456Y18592D01*
X86451Y18622D01*
X86437Y18690D01*
X86415Y18758D01*
X86383Y18824D01*
X86363Y18854D01*
X86342Y18884D01*
X86339Y18887D01*
X86336Y18889D01*
X86328Y18898D01*
X86320Y18906D01*
X86292Y18930D01*
X86254Y18958D01*
X86211Y18985D01*
X86156Y19010D01*
X86096Y19026D01*
X86063Y19029D01*
X86028Y19031D01*
X86009D01*
X85987Y19029D01*
X85957Y19023D01*
X85924Y19015D01*
X85888Y19004D01*
X85850Y18988D01*
X85812Y18966D01*
X85807Y18963D01*
X85796Y18955D01*
X85779Y18941D01*
X85755Y18920D01*
X85730Y18895D01*
X85706Y18865D01*
X85681Y18832D01*
X85656Y18791D01*
X85422Y18827D01*
X85621Y20107D01*
X86636D01*
Y19815D01*
D02*
G37*
G36*
X43431Y20181D02*
X43456Y20178D01*
X43486Y20173D01*
X43518Y20167D01*
X43557Y20162D01*
X43636Y20137D01*
X43677Y20123D01*
X43720Y20104D01*
X43761Y20085D01*
X43805Y20058D01*
X43846Y20031D01*
X43887Y19998D01*
X43890Y19995D01*
X43895Y19990D01*
X43906Y19979D01*
X43922Y19965D01*
X43939Y19946D01*
X43958Y19921D01*
X43980Y19894D01*
X44004Y19861D01*
X44029Y19826D01*
X44054Y19785D01*
X44078Y19741D01*
X44103Y19695D01*
X44127Y19640D01*
X44149Y19586D01*
X44171Y19525D01*
X44187Y19460D01*
X43922Y19384D01*
Y19386D01*
X43920Y19389D01*
X43917Y19405D01*
X43906Y19433D01*
X43895Y19466D01*
X43879Y19504D01*
X43857Y19547D01*
X43832Y19594D01*
X43802Y19643D01*
X43770Y19692D01*
X43729Y19738D01*
X43685Y19782D01*
X43636Y19820D01*
X43578Y19853D01*
X43518Y19880D01*
X43450Y19897D01*
X43415Y19899D01*
X43376Y19902D01*
X43357D01*
X43341Y19899D01*
X43325D01*
X43303Y19897D01*
X43256Y19889D01*
X43199Y19878D01*
X43142Y19859D01*
X43079Y19831D01*
X43022Y19796D01*
X43019D01*
X43016Y19790D01*
X43008Y19785D01*
X42997Y19777D01*
X42970Y19752D01*
X42937Y19717D01*
X42899Y19670D01*
X42860Y19616D01*
X42820Y19547D01*
X42801Y19512D01*
X42784Y19471D01*
Y19468D01*
X42781Y19460D01*
X42776Y19449D01*
X42770Y19430D01*
X42765Y19408D01*
X42757Y19384D01*
X42749Y19354D01*
X42740Y19318D01*
X42732Y19280D01*
X42724Y19239D01*
X42716Y19193D01*
X42710Y19143D01*
X42705Y19092D01*
X42700Y19034D01*
X42697Y18977D01*
Y18914D01*
Y18911D01*
Y18909D01*
Y18892D01*
Y18865D01*
X42700Y18829D01*
X42702Y18788D01*
X42705Y18739D01*
X42710Y18685D01*
X42719Y18627D01*
X42729Y18565D01*
X42740Y18502D01*
X42754Y18439D01*
X42770Y18376D01*
X42792Y18313D01*
X42817Y18253D01*
X42844Y18199D01*
X42874Y18147D01*
X42877Y18144D01*
X42882Y18136D01*
X42893Y18122D01*
X42907Y18109D01*
X42926Y18087D01*
X42948Y18068D01*
X42972Y18043D01*
X43003Y18021D01*
X43035Y17997D01*
X43071Y17972D01*
X43109Y17953D01*
X43153Y17934D01*
X43196Y17918D01*
X43246Y17904D01*
X43297Y17896D01*
X43352Y17893D01*
X43374D01*
X43390Y17896D01*
X43409Y17898D01*
X43431Y17901D01*
X43483Y17912D01*
X43543Y17931D01*
X43573Y17945D01*
X43606Y17958D01*
X43639Y17978D01*
X43671Y17997D01*
X43704Y18021D01*
X43734Y18049D01*
X43737Y18051D01*
X43742Y18057D01*
X43751Y18065D01*
X43761Y18079D01*
X43772Y18095D01*
X43789Y18117D01*
X43805Y18139D01*
X43821Y18169D01*
X43841Y18199D01*
X43857Y18234D01*
X43876Y18275D01*
X43892Y18316D01*
X43909Y18363D01*
X43925Y18414D01*
X43939Y18469D01*
X43950Y18526D01*
X44220Y18444D01*
Y18439D01*
X44215Y18425D01*
X44209Y18404D01*
X44204Y18376D01*
X44193Y18341D01*
X44179Y18300D01*
X44166Y18256D01*
X44146Y18210D01*
X44127Y18158D01*
X44103Y18106D01*
X44078Y18054D01*
X44048Y18002D01*
X44018Y17950D01*
X43983Y17904D01*
X43944Y17857D01*
X43903Y17817D01*
X43901Y17814D01*
X43892Y17808D01*
X43881Y17797D01*
X43862Y17784D01*
X43841Y17770D01*
X43816Y17751D01*
X43786Y17735D01*
X43751Y17716D01*
X43712Y17696D01*
X43671Y17677D01*
X43628Y17658D01*
X43578Y17645D01*
X43527Y17631D01*
X43475Y17620D01*
X43418Y17615D01*
X43357Y17612D01*
X43330D01*
X43311Y17615D01*
X43286Y17617D01*
X43256Y17620D01*
X43226Y17623D01*
X43191Y17628D01*
X43114Y17645D01*
X43033Y17669D01*
X42992Y17685D01*
X42951Y17705D01*
X42910Y17724D01*
X42871Y17748D01*
X42869Y17751D01*
X42863Y17754D01*
X42852Y17762D01*
X42839Y17776D01*
X42822Y17789D01*
X42801Y17808D01*
X42779Y17830D01*
X42757Y17855D01*
X42729Y17885D01*
X42705Y17918D01*
X42678Y17953D01*
X42650Y17994D01*
X42623Y18038D01*
X42596Y18084D01*
X42568Y18136D01*
X42544Y18191D01*
Y18193D01*
X42538Y18204D01*
X42533Y18221D01*
X42525Y18245D01*
X42514Y18275D01*
X42503Y18311D01*
X42492Y18349D01*
X42481Y18395D01*
X42470Y18447D01*
X42459Y18502D01*
X42448Y18562D01*
X42437Y18625D01*
X42429Y18693D01*
X42424Y18764D01*
X42421Y18838D01*
X42418Y18914D01*
Y18920D01*
Y18933D01*
Y18955D01*
X42421Y18982D01*
Y19018D01*
X42424Y19059D01*
X42429Y19105D01*
X42435Y19154D01*
X42440Y19209D01*
X42448Y19263D01*
X42470Y19378D01*
X42503Y19496D01*
X42522Y19553D01*
X42544Y19607D01*
X42547Y19610D01*
X42549Y19621D01*
X42557Y19635D01*
X42568Y19654D01*
X42579Y19678D01*
X42596Y19706D01*
X42615Y19736D01*
X42637Y19769D01*
X42686Y19837D01*
X42743Y19908D01*
X42814Y19976D01*
X42850Y20009D01*
X42891Y20036D01*
X42893Y20039D01*
X42902Y20042D01*
X42912Y20050D01*
X42929Y20058D01*
X42951Y20072D01*
X42975Y20083D01*
X43003Y20096D01*
X43035Y20110D01*
X43071Y20123D01*
X43109Y20137D01*
X43191Y20162D01*
X43284Y20178D01*
X43333Y20181D01*
X43382Y20184D01*
X43412D01*
X43431Y20181D01*
D02*
G37*
G36*
X45184Y20145D02*
X45211Y20143D01*
X45241Y20137D01*
X45274Y20132D01*
X45309Y20121D01*
X45348Y20110D01*
X45386Y20096D01*
X45427Y20080D01*
X45465Y20061D01*
X45503Y20036D01*
X45541Y20006D01*
X45574Y19976D01*
X45607Y19938D01*
X45610Y19935D01*
X45615Y19930D01*
X45621Y19916D01*
X45632Y19899D01*
X45645Y19880D01*
X45659Y19856D01*
X45672Y19829D01*
X45689Y19798D01*
X45702Y19766D01*
X45716Y19728D01*
X45743Y19646D01*
X45754Y19602D01*
X45760Y19556D01*
X45765Y19506D01*
X45768Y19457D01*
Y19455D01*
Y19446D01*
Y19433D01*
X45765Y19416D01*
Y19395D01*
X45763Y19370D01*
X45757Y19343D01*
X45752Y19313D01*
X45738Y19242D01*
X45713Y19165D01*
X45683Y19083D01*
X45662Y19042D01*
X45640Y19001D01*
X45637Y18999D01*
X45634Y18991D01*
X45626Y18980D01*
X45615Y18963D01*
X45599Y18941D01*
X45582Y18914D01*
X45561Y18884D01*
X45533Y18848D01*
X45503Y18808D01*
X45468Y18767D01*
X45430Y18718D01*
X45386Y18666D01*
X45339Y18611D01*
X45285Y18551D01*
X45227Y18488D01*
X45165Y18423D01*
X45162Y18420D01*
X45154Y18412D01*
X45143Y18401D01*
X45129Y18384D01*
X45110Y18368D01*
X45091Y18346D01*
X45044Y18297D01*
X44993Y18245D01*
X44946Y18193D01*
X44905Y18147D01*
X44886Y18125D01*
X44872Y18109D01*
X44870Y18106D01*
X44862Y18095D01*
X44851Y18079D01*
X44834Y18057D01*
X44818Y18032D01*
X44802Y18005D01*
X44769Y17945D01*
X45771D01*
Y17653D01*
X44422D01*
Y17655D01*
Y17661D01*
Y17672D01*
Y17683D01*
X44425Y17702D01*
X44428Y17721D01*
X44430Y17743D01*
X44433Y17770D01*
X44447Y17828D01*
X44466Y17896D01*
X44493Y17969D01*
X44509Y18008D01*
X44529Y18049D01*
X44531Y18051D01*
X44534Y18059D01*
X44542Y18070D01*
X44550Y18087D01*
X44564Y18109D01*
X44580Y18133D01*
X44600Y18163D01*
X44624Y18196D01*
X44651Y18234D01*
X44681Y18272D01*
X44714Y18316D01*
X44752Y18363D01*
X44793Y18412D01*
X44840Y18461D01*
X44889Y18515D01*
X44943Y18570D01*
X44946Y18573D01*
X44960Y18586D01*
X44976Y18603D01*
X45001Y18627D01*
X45028Y18657D01*
X45061Y18690D01*
X45096Y18728D01*
X45135Y18769D01*
X45211Y18857D01*
X45287Y18947D01*
X45323Y18991D01*
X45353Y19031D01*
X45383Y19072D01*
X45405Y19111D01*
Y19113D01*
X45410Y19119D01*
X45416Y19130D01*
X45421Y19143D01*
X45430Y19160D01*
X45440Y19179D01*
X45459Y19228D01*
X45479Y19283D01*
X45498Y19340D01*
X45509Y19403D01*
X45514Y19466D01*
Y19468D01*
Y19474D01*
Y19485D01*
X45511Y19498D01*
Y19515D01*
X45509Y19534D01*
X45500Y19577D01*
X45487Y19627D01*
X45468Y19678D01*
X45440Y19730D01*
X45402Y19777D01*
Y19779D01*
X45397Y19782D01*
X45383Y19796D01*
X45358Y19815D01*
X45326Y19837D01*
X45285Y19859D01*
X45238Y19878D01*
X45186Y19891D01*
X45156Y19897D01*
X45110D01*
X45096Y19894D01*
X45083D01*
X45064Y19891D01*
X45023Y19880D01*
X44979Y19864D01*
X44930Y19842D01*
X44881Y19809D01*
X44859Y19788D01*
X44837Y19766D01*
Y19763D01*
X44832Y19760D01*
X44826Y19752D01*
X44821Y19741D01*
X44813Y19728D01*
X44802Y19714D01*
X44791Y19695D01*
X44783Y19673D01*
X44772Y19646D01*
X44761Y19618D01*
X44752Y19588D01*
X44741Y19556D01*
X44731Y19482D01*
X44725Y19397D01*
X44469Y19430D01*
Y19435D01*
X44471Y19446D01*
Y19463D01*
X44474Y19487D01*
X44479Y19517D01*
X44485Y19553D01*
X44493Y19588D01*
X44504Y19629D01*
X44529Y19717D01*
X44545Y19760D01*
X44564Y19807D01*
X44586Y19848D01*
X44611Y19891D01*
X44638Y19930D01*
X44668Y19965D01*
X44671Y19968D01*
X44676Y19973D01*
X44687Y19982D01*
X44701Y19995D01*
X44717Y20009D01*
X44739Y20022D01*
X44763Y20039D01*
X44793Y20058D01*
X44823Y20074D01*
X44859Y20091D01*
X44897Y20104D01*
X44938Y20121D01*
X44982Y20132D01*
X45031Y20140D01*
X45080Y20145D01*
X45132Y20148D01*
X45162D01*
X45184Y20145D01*
D02*
G37*
G36*
X27627Y40485D02*
X27378D01*
Y42428D01*
X27376Y42423D01*
X27362Y42409D01*
X27343Y42390D01*
X27315Y42363D01*
X27283Y42333D01*
X27242Y42297D01*
X27195Y42259D01*
X27143Y42218D01*
X27141D01*
X27138Y42213D01*
X27130Y42207D01*
X27119Y42202D01*
X27092Y42183D01*
X27056Y42158D01*
X27015Y42134D01*
X26971Y42106D01*
X26925Y42082D01*
X26879Y42060D01*
Y42352D01*
X26881Y42355D01*
X26887Y42358D01*
X26898Y42363D01*
X26914Y42374D01*
X26930Y42385D01*
X26952Y42398D01*
X27002Y42431D01*
X27056Y42475D01*
X27119Y42524D01*
X27182Y42579D01*
X27242Y42641D01*
X27244Y42644D01*
X27250Y42650D01*
X27258Y42658D01*
X27266Y42671D01*
X27280Y42688D01*
X27296Y42704D01*
X27329Y42751D01*
X27365Y42800D01*
X27403Y42857D01*
X27435Y42917D01*
X27463Y42980D01*
X27627D01*
Y40485D01*
D02*
G37*
G36*
X25708Y42969D02*
X25735D01*
X25765Y42966D01*
X25798Y42963D01*
X25863Y42955D01*
X25934Y42942D01*
X25997Y42925D01*
X26027Y42914D01*
X26054Y42901D01*
X26057D01*
X26060Y42898D01*
X26076Y42887D01*
X26103Y42871D01*
X26133Y42846D01*
X26169Y42813D01*
X26207Y42775D01*
X26243Y42726D01*
X26278Y42669D01*
Y42666D01*
X26281Y42660D01*
X26286Y42652D01*
X26292Y42641D01*
X26297Y42625D01*
X26305Y42606D01*
X26313Y42587D01*
X26322Y42562D01*
X26338Y42508D01*
X26352Y42442D01*
X26363Y42371D01*
X26365Y42295D01*
Y42292D01*
Y42281D01*
Y42267D01*
X26363Y42248D01*
X26360Y42224D01*
X26357Y42196D01*
X26355Y42164D01*
X26346Y42131D01*
X26330Y42057D01*
X26303Y41981D01*
X26286Y41943D01*
X26267Y41907D01*
X26245Y41869D01*
X26218Y41836D01*
X26215Y41833D01*
X26212Y41828D01*
X26202Y41820D01*
X26191Y41809D01*
X26174Y41795D01*
X26158Y41779D01*
X26136Y41762D01*
X26109Y41743D01*
X26081Y41724D01*
X26049Y41705D01*
X26013Y41686D01*
X25975Y41669D01*
X25934Y41653D01*
X25890Y41637D01*
X25844Y41626D01*
X25792Y41615D01*
X25798Y41612D01*
X25811Y41604D01*
X25830Y41590D01*
X25855Y41571D01*
X25882Y41552D01*
X25912Y41528D01*
X25940Y41503D01*
X25964Y41476D01*
X25967Y41473D01*
X25969Y41470D01*
X25975Y41462D01*
X25983Y41451D01*
X26008Y41421D01*
X26035Y41383D01*
X26068Y41336D01*
X26103Y41282D01*
X26139Y41222D01*
X26174Y41159D01*
X26532Y40485D01*
X26191D01*
X25920Y41001D01*
X25918Y41003D01*
X25912Y41014D01*
X25904Y41031D01*
X25896Y41050D01*
X25882Y41074D01*
X25866Y41102D01*
X25830Y41164D01*
X25792Y41233D01*
X25751Y41301D01*
X25732Y41334D01*
X25713Y41361D01*
X25697Y41388D01*
X25680Y41410D01*
X25677Y41416D01*
X25666Y41427D01*
X25650Y41446D01*
X25631Y41467D01*
X25606Y41492D01*
X25582Y41514D01*
X25555Y41536D01*
X25525Y41552D01*
X25522Y41555D01*
X25511Y41558D01*
X25495Y41563D01*
X25470Y41571D01*
X25440Y41579D01*
X25404Y41585D01*
X25363Y41588D01*
X25314Y41590D01*
X25006D01*
Y40485D01*
X24736D01*
Y42972D01*
X25686D01*
X25708Y42969D01*
D02*
G37*
G36*
X36488Y36154D02*
X36239D01*
Y38098D01*
X36237Y38092D01*
X36223Y38079D01*
X36204Y38059D01*
X36176Y38032D01*
X36144Y38002D01*
X36103Y37967D01*
X36056Y37929D01*
X36004Y37887D01*
X36002D01*
X35999Y37882D01*
X35991Y37877D01*
X35980Y37871D01*
X35953Y37852D01*
X35917Y37827D01*
X35876Y37803D01*
X35832Y37776D01*
X35786Y37751D01*
X35740Y37729D01*
Y38021D01*
X35742Y38024D01*
X35748Y38027D01*
X35759Y38032D01*
X35775Y38043D01*
X35792Y38054D01*
X35813Y38068D01*
X35862Y38100D01*
X35917Y38144D01*
X35980Y38193D01*
X36043Y38248D01*
X36103Y38311D01*
X36105Y38313D01*
X36111Y38319D01*
X36119Y38327D01*
X36127Y38341D01*
X36141Y38357D01*
X36157Y38374D01*
X36190Y38420D01*
X36226Y38469D01*
X36264Y38526D01*
X36296Y38586D01*
X36324Y38649D01*
X36488D01*
Y36154D01*
D02*
G37*
G36*
X34383Y38638D02*
X34440Y38636D01*
X34506Y38630D01*
X34571Y38622D01*
X34634Y38611D01*
X34661Y38603D01*
X34689Y38595D01*
X34691D01*
X34697Y38592D01*
X34705Y38589D01*
X34719Y38584D01*
X34735Y38576D01*
X34751Y38567D01*
X34795Y38545D01*
X34844Y38515D01*
X34896Y38477D01*
X34948Y38431D01*
X34997Y38376D01*
X35000Y38374D01*
X35002Y38368D01*
X35011Y38360D01*
X35019Y38349D01*
X35030Y38333D01*
X35043Y38313D01*
X35057Y38292D01*
X35071Y38267D01*
X35087Y38240D01*
X35103Y38210D01*
X35139Y38141D01*
X35172Y38065D01*
X35202Y37978D01*
Y37975D01*
X35204Y37967D01*
X35210Y37953D01*
X35213Y37937D01*
X35218Y37912D01*
X35226Y37885D01*
X35232Y37855D01*
X35240Y37817D01*
X35245Y37778D01*
X35251Y37735D01*
X35259Y37688D01*
X35265Y37639D01*
X35270Y37584D01*
X35273Y37530D01*
X35276Y37410D01*
Y37404D01*
Y37391D01*
Y37369D01*
X35273Y37339D01*
Y37303D01*
X35270Y37260D01*
X35265Y37213D01*
X35259Y37161D01*
X35254Y37107D01*
X35245Y37049D01*
X35224Y36929D01*
X35191Y36806D01*
X35172Y36749D01*
X35150Y36692D01*
Y36689D01*
X35144Y36678D01*
X35136Y36665D01*
X35128Y36645D01*
X35114Y36621D01*
X35101Y36593D01*
X35084Y36564D01*
X35065Y36531D01*
X35019Y36463D01*
X34964Y36394D01*
X34901Y36329D01*
X34869Y36301D01*
X34833Y36277D01*
X34830D01*
X34825Y36271D01*
X34814Y36266D01*
X34798Y36258D01*
X34779Y36250D01*
X34757Y36239D01*
X34729Y36228D01*
X34697Y36217D01*
X34661Y36203D01*
X34623Y36192D01*
X34582Y36181D01*
X34538Y36173D01*
X34489Y36165D01*
X34437Y36159D01*
X34383Y36157D01*
X34326Y36154D01*
X33591D01*
Y38641D01*
X34358D01*
X34383Y38638D01*
D02*
G37*
G36*
X77287Y20181D02*
X77311Y20178D01*
X77341Y20173D01*
X77374Y20167D01*
X77412Y20162D01*
X77491Y20137D01*
X77532Y20123D01*
X77576Y20104D01*
X77617Y20085D01*
X77661Y20058D01*
X77702Y20031D01*
X77743Y19998D01*
X77745Y19995D01*
X77751Y19990D01*
X77762Y19979D01*
X77778Y19965D01*
X77794Y19946D01*
X77814Y19921D01*
X77835Y19894D01*
X77860Y19861D01*
X77885Y19826D01*
X77909Y19785D01*
X77934Y19741D01*
X77958Y19695D01*
X77983Y19640D01*
X78005Y19586D01*
X78026Y19525D01*
X78043Y19460D01*
X77778Y19384D01*
Y19386D01*
X77775Y19389D01*
X77773Y19405D01*
X77762Y19433D01*
X77751Y19466D01*
X77734Y19504D01*
X77713Y19547D01*
X77688Y19594D01*
X77658Y19643D01*
X77625Y19692D01*
X77584Y19738D01*
X77540Y19782D01*
X77491Y19820D01*
X77434Y19853D01*
X77374Y19880D01*
X77306Y19897D01*
X77270Y19899D01*
X77232Y19902D01*
X77213D01*
X77197Y19899D01*
X77180D01*
X77158Y19897D01*
X77112Y19889D01*
X77055Y19878D01*
X76997Y19859D01*
X76934Y19831D01*
X76877Y19796D01*
X76874D01*
X76872Y19790D01*
X76863Y19785D01*
X76853Y19777D01*
X76825Y19752D01*
X76793Y19717D01*
X76754Y19670D01*
X76716Y19616D01*
X76675Y19547D01*
X76656Y19512D01*
X76640Y19471D01*
Y19468D01*
X76637Y19460D01*
X76631Y19449D01*
X76626Y19430D01*
X76621Y19408D01*
X76612Y19384D01*
X76604Y19354D01*
X76596Y19318D01*
X76588Y19280D01*
X76580Y19239D01*
X76571Y19193D01*
X76566Y19143D01*
X76560Y19092D01*
X76555Y19034D01*
X76552Y18977D01*
Y18914D01*
Y18911D01*
Y18909D01*
Y18892D01*
Y18865D01*
X76555Y18829D01*
X76558Y18788D01*
X76560Y18739D01*
X76566Y18685D01*
X76574Y18627D01*
X76585Y18565D01*
X76596Y18502D01*
X76610Y18439D01*
X76626Y18376D01*
X76648Y18313D01*
X76672Y18253D01*
X76700Y18199D01*
X76730Y18147D01*
X76732Y18144D01*
X76738Y18136D01*
X76749Y18122D01*
X76762Y18109D01*
X76782Y18087D01*
X76803Y18068D01*
X76828Y18043D01*
X76858Y18021D01*
X76891Y17997D01*
X76926Y17972D01*
X76964Y17953D01*
X77008Y17934D01*
X77052Y17918D01*
X77101Y17904D01*
X77153Y17896D01*
X77207Y17893D01*
X77229D01*
X77246Y17896D01*
X77265Y17898D01*
X77287Y17901D01*
X77338Y17912D01*
X77399Y17931D01*
X77429Y17945D01*
X77461Y17958D01*
X77494Y17978D01*
X77527Y17997D01*
X77560Y18021D01*
X77590Y18049D01*
X77592Y18051D01*
X77598Y18057D01*
X77606Y18065D01*
X77617Y18079D01*
X77628Y18095D01*
X77644Y18117D01*
X77661Y18139D01*
X77677Y18169D01*
X77696Y18199D01*
X77713Y18234D01*
X77732Y18275D01*
X77748Y18316D01*
X77764Y18362D01*
X77781Y18414D01*
X77794Y18469D01*
X77805Y18526D01*
X78076Y18444D01*
Y18439D01*
X78070Y18425D01*
X78065Y18404D01*
X78059Y18376D01*
X78048Y18341D01*
X78035Y18300D01*
X78021Y18256D01*
X78002Y18210D01*
X77983Y18158D01*
X77958Y18106D01*
X77934Y18054D01*
X77904Y18002D01*
X77874Y17950D01*
X77838Y17904D01*
X77800Y17857D01*
X77759Y17817D01*
X77756Y17814D01*
X77748Y17808D01*
X77737Y17797D01*
X77718Y17784D01*
X77696Y17770D01*
X77672Y17751D01*
X77641Y17735D01*
X77606Y17716D01*
X77568Y17696D01*
X77527Y17677D01*
X77483Y17658D01*
X77434Y17645D01*
X77382Y17631D01*
X77330Y17620D01*
X77273Y17615D01*
X77213Y17612D01*
X77186D01*
X77166Y17615D01*
X77142Y17617D01*
X77112Y17620D01*
X77082Y17623D01*
X77046Y17628D01*
X76970Y17645D01*
X76888Y17669D01*
X76847Y17685D01*
X76806Y17705D01*
X76765Y17724D01*
X76727Y17748D01*
X76724Y17751D01*
X76719Y17754D01*
X76708Y17762D01*
X76694Y17776D01*
X76678Y17789D01*
X76656Y17808D01*
X76634Y17830D01*
X76612Y17855D01*
X76585Y17885D01*
X76560Y17918D01*
X76533Y17953D01*
X76506Y17994D01*
X76479Y18038D01*
X76451Y18084D01*
X76424Y18136D01*
X76399Y18191D01*
Y18193D01*
X76394Y18204D01*
X76389Y18221D01*
X76380Y18245D01*
X76369Y18275D01*
X76358Y18311D01*
X76348Y18349D01*
X76337Y18395D01*
X76326Y18447D01*
X76315Y18502D01*
X76304Y18562D01*
X76293Y18625D01*
X76285Y18693D01*
X76279Y18764D01*
X76276Y18838D01*
X76274Y18914D01*
Y18920D01*
Y18933D01*
Y18955D01*
X76276Y18982D01*
Y19018D01*
X76279Y19059D01*
X76285Y19105D01*
X76290Y19154D01*
X76296Y19209D01*
X76304Y19263D01*
X76326Y19378D01*
X76358Y19496D01*
X76378Y19553D01*
X76399Y19607D01*
X76402Y19610D01*
X76405Y19621D01*
X76413Y19635D01*
X76424Y19654D01*
X76435Y19678D01*
X76451Y19706D01*
X76470Y19736D01*
X76492Y19769D01*
X76541Y19837D01*
X76599Y19908D01*
X76670Y19976D01*
X76705Y20009D01*
X76746Y20036D01*
X76749Y20039D01*
X76757Y20042D01*
X76768Y20050D01*
X76784Y20058D01*
X76806Y20072D01*
X76831Y20082D01*
X76858Y20096D01*
X76891Y20110D01*
X76926Y20123D01*
X76964Y20137D01*
X77046Y20162D01*
X77139Y20178D01*
X77188Y20181D01*
X77237Y20183D01*
X77267D01*
X77287Y20181D01*
D02*
G37*
G36*
X79356Y18529D02*
X79632D01*
Y18248D01*
X79356D01*
Y17653D01*
X79108D01*
Y18248D01*
X78223D01*
Y18529D01*
X79154Y20140D01*
X79356D01*
Y18529D01*
D02*
G37*
G36*
X37322Y20181D02*
X37346Y20178D01*
X37376Y20173D01*
X37409Y20167D01*
X37447Y20162D01*
X37526Y20137D01*
X37567Y20123D01*
X37611Y20104D01*
X37652Y20085D01*
X37696Y20058D01*
X37737Y20031D01*
X37778Y19998D01*
X37780Y19995D01*
X37786Y19990D01*
X37797Y19979D01*
X37813Y19965D01*
X37829Y19946D01*
X37848Y19921D01*
X37870Y19894D01*
X37895Y19861D01*
X37920Y19826D01*
X37944Y19785D01*
X37969Y19741D01*
X37993Y19695D01*
X38018Y19640D01*
X38040Y19586D01*
X38061Y19525D01*
X38078Y19460D01*
X37813Y19384D01*
Y19386D01*
X37810Y19389D01*
X37808Y19405D01*
X37797Y19433D01*
X37786Y19466D01*
X37769Y19504D01*
X37747Y19547D01*
X37723Y19594D01*
X37693Y19643D01*
X37660Y19692D01*
X37619Y19738D01*
X37576Y19782D01*
X37526Y19820D01*
X37469Y19853D01*
X37409Y19880D01*
X37341Y19897D01*
X37305Y19899D01*
X37267Y19902D01*
X37248D01*
X37231Y19899D01*
X37215D01*
X37193Y19897D01*
X37147Y19889D01*
X37090Y19878D01*
X37032Y19859D01*
X36970Y19831D01*
X36912Y19796D01*
X36909D01*
X36907Y19790D01*
X36898Y19785D01*
X36888Y19777D01*
X36860Y19752D01*
X36827Y19717D01*
X36789Y19670D01*
X36751Y19616D01*
X36710Y19547D01*
X36691Y19512D01*
X36675Y19471D01*
Y19468D01*
X36672Y19460D01*
X36666Y19449D01*
X36661Y19430D01*
X36656Y19408D01*
X36647Y19384D01*
X36639Y19354D01*
X36631Y19318D01*
X36623Y19280D01*
X36615Y19239D01*
X36606Y19193D01*
X36601Y19143D01*
X36595Y19092D01*
X36590Y19034D01*
X36587Y18977D01*
Y18914D01*
Y18911D01*
Y18909D01*
Y18892D01*
Y18865D01*
X36590Y18829D01*
X36593Y18788D01*
X36595Y18739D01*
X36601Y18685D01*
X36609Y18627D01*
X36620Y18565D01*
X36631Y18502D01*
X36645Y18439D01*
X36661Y18376D01*
X36683Y18313D01*
X36707Y18253D01*
X36735Y18199D01*
X36765Y18147D01*
X36767Y18144D01*
X36773Y18136D01*
X36784Y18122D01*
X36797Y18109D01*
X36817Y18087D01*
X36838Y18068D01*
X36863Y18043D01*
X36893Y18021D01*
X36926Y17997D01*
X36961Y17972D01*
X36999Y17953D01*
X37043Y17934D01*
X37087Y17918D01*
X37136Y17904D01*
X37188Y17896D01*
X37242Y17893D01*
X37264D01*
X37281Y17896D01*
X37300Y17898D01*
X37322Y17901D01*
X37374Y17912D01*
X37434Y17931D01*
X37464Y17945D01*
X37496Y17958D01*
X37529Y17978D01*
X37562Y17997D01*
X37595Y18021D01*
X37625Y18049D01*
X37627Y18051D01*
X37633Y18057D01*
X37641Y18065D01*
X37652Y18079D01*
X37663Y18095D01*
X37679Y18117D01*
X37696Y18139D01*
X37712Y18169D01*
X37731Y18199D01*
X37747Y18234D01*
X37767Y18275D01*
X37783Y18316D01*
X37799Y18363D01*
X37816Y18414D01*
X37829Y18469D01*
X37840Y18526D01*
X38111Y18444D01*
Y18439D01*
X38105Y18425D01*
X38100Y18404D01*
X38094Y18376D01*
X38083Y18341D01*
X38070Y18300D01*
X38056Y18256D01*
X38037Y18210D01*
X38018Y18158D01*
X37993Y18106D01*
X37969Y18054D01*
X37939Y18002D01*
X37909Y17950D01*
X37873Y17904D01*
X37835Y17857D01*
X37794Y17817D01*
X37791Y17814D01*
X37783Y17808D01*
X37772Y17797D01*
X37753Y17784D01*
X37731Y17770D01*
X37707Y17751D01*
X37677Y17735D01*
X37641Y17716D01*
X37603Y17696D01*
X37562Y17677D01*
X37518Y17658D01*
X37469Y17645D01*
X37417Y17631D01*
X37365Y17620D01*
X37308Y17615D01*
X37248Y17612D01*
X37221D01*
X37201Y17615D01*
X37177Y17617D01*
X37147Y17620D01*
X37117Y17623D01*
X37081Y17628D01*
X37005Y17645D01*
X36923Y17669D01*
X36882Y17685D01*
X36841Y17705D01*
X36800Y17724D01*
X36762Y17748D01*
X36759Y17751D01*
X36754Y17754D01*
X36743Y17762D01*
X36729Y17776D01*
X36713Y17789D01*
X36691Y17808D01*
X36669Y17830D01*
X36647Y17855D01*
X36620Y17885D01*
X36595Y17918D01*
X36568Y17953D01*
X36541Y17994D01*
X36514Y18038D01*
X36486Y18084D01*
X36459Y18136D01*
X36434Y18191D01*
Y18193D01*
X36429Y18204D01*
X36424Y18221D01*
X36415Y18245D01*
X36404Y18275D01*
X36393Y18311D01*
X36382Y18349D01*
X36372Y18395D01*
X36361Y18447D01*
X36350Y18502D01*
X36339Y18562D01*
X36328Y18625D01*
X36320Y18693D01*
X36314Y18764D01*
X36312Y18838D01*
X36309Y18914D01*
Y18920D01*
Y18933D01*
Y18955D01*
X36312Y18982D01*
Y19018D01*
X36314Y19059D01*
X36320Y19105D01*
X36325Y19154D01*
X36331Y19209D01*
X36339Y19263D01*
X36361Y19378D01*
X36393Y19496D01*
X36413Y19553D01*
X36434Y19607D01*
X36437Y19610D01*
X36440Y19621D01*
X36448Y19635D01*
X36459Y19654D01*
X36470Y19678D01*
X36486Y19706D01*
X36505Y19736D01*
X36527Y19769D01*
X36576Y19837D01*
X36634Y19908D01*
X36705Y19976D01*
X36740Y20009D01*
X36781Y20036D01*
X36784Y20039D01*
X36792Y20042D01*
X36803Y20050D01*
X36819Y20058D01*
X36841Y20072D01*
X36866Y20083D01*
X36893Y20096D01*
X36926Y20110D01*
X36961Y20123D01*
X36999Y20137D01*
X37081Y20162D01*
X37174Y20178D01*
X37223Y20181D01*
X37273Y20184D01*
X37303D01*
X37322Y20181D01*
D02*
G37*
G36*
X39282Y17653D02*
X39033D01*
Y19597D01*
X39031Y19591D01*
X39017Y19577D01*
X38998Y19558D01*
X38971Y19531D01*
X38938Y19501D01*
X38897Y19466D01*
X38850Y19427D01*
X38799Y19386D01*
X38796D01*
X38793Y19381D01*
X38785Y19375D01*
X38774Y19370D01*
X38747Y19351D01*
X38711Y19326D01*
X38670Y19302D01*
X38627Y19274D01*
X38580Y19250D01*
X38534Y19228D01*
Y19520D01*
X38537Y19523D01*
X38542Y19525D01*
X38553Y19531D01*
X38569Y19542D01*
X38586Y19553D01*
X38607Y19567D01*
X38657Y19599D01*
X38711Y19643D01*
X38774Y19692D01*
X38837Y19747D01*
X38897Y19809D01*
X38900Y19812D01*
X38905Y19818D01*
X38913Y19826D01*
X38921Y19839D01*
X38935Y19856D01*
X38951Y19872D01*
X38984Y19919D01*
X39020Y19968D01*
X39058Y20025D01*
X39091Y20085D01*
X39118Y20148D01*
X39282D01*
Y17653D01*
D02*
G37*
G36*
X90668Y20181D02*
X90693Y20178D01*
X90723Y20173D01*
X90756Y20167D01*
X90794Y20162D01*
X90873Y20137D01*
X90914Y20123D01*
X90958Y20104D01*
X90999Y20085D01*
X91042Y20058D01*
X91083Y20031D01*
X91124Y19998D01*
X91127Y19995D01*
X91132Y19990D01*
X91143Y19979D01*
X91160Y19965D01*
X91176Y19946D01*
X91195Y19921D01*
X91217Y19894D01*
X91242Y19861D01*
X91266Y19826D01*
X91291Y19785D01*
X91315Y19741D01*
X91340Y19695D01*
X91365Y19640D01*
X91386Y19586D01*
X91408Y19525D01*
X91425Y19460D01*
X91160Y19384D01*
Y19386D01*
X91157Y19389D01*
X91154Y19405D01*
X91143Y19433D01*
X91132Y19466D01*
X91116Y19504D01*
X91094Y19547D01*
X91070Y19594D01*
X91040Y19643D01*
X91007Y19692D01*
X90966Y19738D01*
X90922Y19782D01*
X90873Y19820D01*
X90816Y19853D01*
X90756Y19880D01*
X90688Y19897D01*
X90652Y19899D01*
X90614Y19902D01*
X90595D01*
X90578Y19899D01*
X90562D01*
X90540Y19897D01*
X90494Y19889D01*
X90436Y19878D01*
X90379Y19859D01*
X90316Y19831D01*
X90259Y19796D01*
X90256D01*
X90253Y19790D01*
X90245Y19785D01*
X90234Y19777D01*
X90207Y19752D01*
X90174Y19717D01*
X90136Y19670D01*
X90098Y19616D01*
X90057Y19547D01*
X90038Y19512D01*
X90021Y19471D01*
Y19468D01*
X90019Y19460D01*
X90013Y19449D01*
X90008Y19430D01*
X90002Y19408D01*
X89994Y19384D01*
X89986Y19354D01*
X89978Y19318D01*
X89969Y19280D01*
X89961Y19239D01*
X89953Y19193D01*
X89948Y19143D01*
X89942Y19092D01*
X89937Y19034D01*
X89934Y18977D01*
Y18914D01*
Y18911D01*
Y18909D01*
Y18892D01*
Y18865D01*
X89937Y18829D01*
X89939Y18788D01*
X89942Y18739D01*
X89948Y18685D01*
X89956Y18627D01*
X89967Y18565D01*
X89978Y18502D01*
X89991Y18439D01*
X90008Y18376D01*
X90030Y18313D01*
X90054Y18253D01*
X90081Y18199D01*
X90112Y18147D01*
X90114Y18144D01*
X90120Y18136D01*
X90131Y18122D01*
X90144Y18109D01*
X90163Y18087D01*
X90185Y18068D01*
X90210Y18043D01*
X90240Y18021D01*
X90272Y17997D01*
X90308Y17972D01*
X90346Y17953D01*
X90390Y17934D01*
X90434Y17918D01*
X90483Y17904D01*
X90535Y17896D01*
X90589Y17893D01*
X90611D01*
X90627Y17896D01*
X90646Y17898D01*
X90668Y17901D01*
X90720Y17912D01*
X90780Y17931D01*
X90810Y17945D01*
X90843Y17958D01*
X90876Y17978D01*
X90909Y17997D01*
X90941Y18021D01*
X90971Y18049D01*
X90974Y18051D01*
X90980Y18057D01*
X90988Y18065D01*
X90999Y18079D01*
X91010Y18095D01*
X91026Y18117D01*
X91042Y18139D01*
X91059Y18169D01*
X91078Y18199D01*
X91094Y18234D01*
X91113Y18275D01*
X91130Y18316D01*
X91146Y18363D01*
X91163Y18414D01*
X91176Y18469D01*
X91187Y18526D01*
X91457Y18444D01*
Y18439D01*
X91452Y18425D01*
X91446Y18404D01*
X91441Y18376D01*
X91430Y18341D01*
X91416Y18300D01*
X91403Y18256D01*
X91384Y18210D01*
X91365Y18158D01*
X91340Y18106D01*
X91315Y18054D01*
X91285Y18002D01*
X91255Y17950D01*
X91220Y17904D01*
X91182Y17857D01*
X91141Y17817D01*
X91138Y17814D01*
X91130Y17808D01*
X91119Y17797D01*
X91100Y17784D01*
X91078Y17770D01*
X91053Y17751D01*
X91023Y17735D01*
X90988Y17716D01*
X90950Y17696D01*
X90909Y17677D01*
X90865Y17658D01*
X90816Y17645D01*
X90764Y17631D01*
X90712Y17620D01*
X90655Y17615D01*
X90595Y17612D01*
X90567D01*
X90548Y17615D01*
X90524Y17617D01*
X90494Y17620D01*
X90464Y17623D01*
X90428Y17628D01*
X90352Y17645D01*
X90270Y17669D01*
X90229Y17685D01*
X90188Y17705D01*
X90147Y17724D01*
X90109Y17748D01*
X90106Y17751D01*
X90101Y17754D01*
X90090Y17762D01*
X90076Y17776D01*
X90060Y17789D01*
X90038Y17808D01*
X90016Y17830D01*
X89994Y17855D01*
X89967Y17885D01*
X89942Y17918D01*
X89915Y17953D01*
X89888Y17994D01*
X89860Y18038D01*
X89833Y18084D01*
X89806Y18136D01*
X89781Y18191D01*
Y18193D01*
X89776Y18204D01*
X89770Y18221D01*
X89762Y18245D01*
X89751Y18275D01*
X89740Y18311D01*
X89729Y18349D01*
X89718Y18395D01*
X89707Y18447D01*
X89697Y18502D01*
X89686Y18562D01*
X89675Y18625D01*
X89666Y18693D01*
X89661Y18764D01*
X89658Y18838D01*
X89656Y18914D01*
Y18920D01*
Y18933D01*
Y18955D01*
X89658Y18982D01*
Y19018D01*
X89661Y19059D01*
X89666Y19105D01*
X89672Y19154D01*
X89677Y19209D01*
X89686Y19263D01*
X89707Y19378D01*
X89740Y19496D01*
X89759Y19553D01*
X89781Y19607D01*
X89784Y19610D01*
X89787Y19621D01*
X89795Y19635D01*
X89806Y19654D01*
X89817Y19678D01*
X89833Y19706D01*
X89852Y19736D01*
X89874Y19769D01*
X89923Y19837D01*
X89980Y19908D01*
X90051Y19976D01*
X90087Y20009D01*
X90128Y20036D01*
X90131Y20039D01*
X90139Y20042D01*
X90150Y20050D01*
X90166Y20058D01*
X90188Y20072D01*
X90213Y20083D01*
X90240Y20096D01*
X90272Y20110D01*
X90308Y20123D01*
X90346Y20137D01*
X90428Y20162D01*
X90521Y20178D01*
X90570Y20181D01*
X90619Y20184D01*
X90649D01*
X90668Y20181D01*
D02*
G37*
G36*
X92369Y20145D02*
X92391Y20143D01*
X92416Y20137D01*
X92443Y20132D01*
X92473Y20126D01*
X92538Y20104D01*
X92574Y20088D01*
X92609Y20072D01*
X92645Y20050D01*
X92678Y20025D01*
X92713Y19998D01*
X92746Y19965D01*
X92749Y19962D01*
X92754Y19957D01*
X92762Y19946D01*
X92773Y19932D01*
X92787Y19913D01*
X92800Y19891D01*
X92817Y19867D01*
X92833Y19839D01*
X92850Y19807D01*
X92866Y19771D01*
X92880Y19733D01*
X92893Y19692D01*
X92904Y19651D01*
X92912Y19605D01*
X92918Y19556D01*
X92921Y19504D01*
Y19501D01*
Y19496D01*
Y19487D01*
Y19476D01*
X92918Y19460D01*
Y19444D01*
X92912Y19403D01*
X92901Y19356D01*
X92891Y19304D01*
X92871Y19255D01*
X92847Y19203D01*
Y19201D01*
X92844Y19198D01*
X92833Y19182D01*
X92817Y19157D01*
X92795Y19130D01*
X92765Y19097D01*
X92730Y19061D01*
X92689Y19029D01*
X92642Y18999D01*
X92645D01*
X92648Y18996D01*
X92664Y18993D01*
X92686Y18985D01*
X92713Y18971D01*
X92746Y18958D01*
X92779Y18939D01*
X92814Y18914D01*
X92844Y18887D01*
X92847Y18884D01*
X92858Y18873D01*
X92871Y18857D01*
X92891Y18832D01*
X92910Y18802D01*
X92931Y18767D01*
X92953Y18726D01*
X92972Y18679D01*
Y18677D01*
X92975Y18674D01*
X92978Y18666D01*
X92981Y18657D01*
X92989Y18630D01*
X92997Y18595D01*
X93005Y18551D01*
X93013Y18502D01*
X93019Y18447D01*
X93022Y18387D01*
Y18384D01*
Y18373D01*
Y18354D01*
X93019Y18330D01*
X93016Y18303D01*
X93011Y18267D01*
X93005Y18229D01*
X92997Y18191D01*
X92986Y18147D01*
X92972Y18101D01*
X92956Y18054D01*
X92937Y18008D01*
X92912Y17961D01*
X92885Y17915D01*
X92855Y17871D01*
X92820Y17828D01*
X92817Y17825D01*
X92811Y17819D01*
X92800Y17808D01*
X92784Y17795D01*
X92765Y17778D01*
X92740Y17759D01*
X92713Y17740D01*
X92683Y17721D01*
X92650Y17699D01*
X92612Y17680D01*
X92574Y17661D01*
X92530Y17645D01*
X92487Y17631D01*
X92437Y17620D01*
X92388Y17615D01*
X92336Y17612D01*
X92312D01*
X92293Y17615D01*
X92271Y17617D01*
X92244Y17623D01*
X92216Y17628D01*
X92184Y17636D01*
X92151Y17645D01*
X92115Y17658D01*
X92077Y17672D01*
X92042Y17691D01*
X92003Y17713D01*
X91965Y17737D01*
X91930Y17767D01*
X91894Y17800D01*
X91891Y17803D01*
X91886Y17808D01*
X91878Y17819D01*
X91867Y17836D01*
X91851Y17855D01*
X91837Y17877D01*
X91818Y17904D01*
X91801Y17937D01*
X91782Y17972D01*
X91766Y18010D01*
X91747Y18051D01*
X91733Y18098D01*
X91717Y18147D01*
X91706Y18199D01*
X91695Y18253D01*
X91689Y18313D01*
X91938Y18354D01*
Y18349D01*
X91940Y18332D01*
X91946Y18308D01*
X91954Y18278D01*
X91965Y18240D01*
X91979Y18199D01*
X91995Y18155D01*
X92017Y18109D01*
X92039Y18062D01*
X92066Y18019D01*
X92099Y17978D01*
X92137Y17939D01*
X92178Y17909D01*
X92225Y17885D01*
X92274Y17868D01*
X92301Y17866D01*
X92331Y17863D01*
X92347D01*
X92361Y17866D01*
X92375Y17868D01*
X92391Y17871D01*
X92432Y17882D01*
X92478Y17898D01*
X92530Y17923D01*
X92555Y17939D01*
X92579Y17961D01*
X92604Y17983D01*
X92629Y18008D01*
X92631Y18010D01*
X92634Y18013D01*
X92639Y18021D01*
X92648Y18035D01*
X92659Y18049D01*
X92669Y18065D01*
X92680Y18087D01*
X92691Y18109D01*
X92713Y18163D01*
X92735Y18226D01*
X92749Y18300D01*
X92754Y18341D01*
Y18382D01*
Y18384D01*
Y18393D01*
Y18404D01*
X92751Y18417D01*
Y18436D01*
X92749Y18458D01*
X92740Y18507D01*
X92727Y18562D01*
X92705Y18622D01*
X92675Y18679D01*
X92659Y18707D01*
X92637Y18731D01*
Y18734D01*
X92631Y18737D01*
X92618Y18753D01*
X92593Y18775D01*
X92558Y18799D01*
X92517Y18824D01*
X92470Y18843D01*
X92416Y18859D01*
X92386Y18862D01*
X92356Y18865D01*
X92342D01*
X92328Y18862D01*
X92306Y18859D01*
X92282Y18857D01*
X92252Y18851D01*
X92219Y18840D01*
X92181Y18829D01*
X92211Y19100D01*
X92249Y19094D01*
X92268D01*
X92279Y19097D01*
X92295D01*
X92315Y19100D01*
X92356Y19108D01*
X92405Y19121D01*
X92454Y19141D01*
X92503Y19168D01*
X92549Y19206D01*
X92552Y19209D01*
X92555Y19212D01*
X92568Y19228D01*
X92588Y19252D01*
X92609Y19288D01*
X92629Y19332D01*
X92648Y19384D01*
X92661Y19441D01*
X92667Y19474D01*
Y19509D01*
Y19512D01*
Y19517D01*
Y19525D01*
X92664Y19539D01*
X92661Y19569D01*
X92656Y19610D01*
X92642Y19654D01*
X92626Y19700D01*
X92601Y19747D01*
X92568Y19790D01*
X92563Y19796D01*
X92552Y19807D01*
X92530Y19823D01*
X92503Y19845D01*
X92467Y19864D01*
X92427Y19880D01*
X92380Y19891D01*
X92331Y19897D01*
X92317D01*
X92306Y19894D01*
X92279Y19891D01*
X92246Y19883D01*
X92208Y19870D01*
X92167Y19850D01*
X92126Y19823D01*
X92085Y19785D01*
X92080Y19779D01*
X92069Y19763D01*
X92053Y19738D01*
X92033Y19700D01*
X92011Y19654D01*
X91992Y19597D01*
X91976Y19528D01*
X91962Y19449D01*
X91714Y19504D01*
Y19506D01*
X91717Y19517D01*
X91719Y19534D01*
X91725Y19556D01*
X91730Y19583D01*
X91738Y19613D01*
X91747Y19646D01*
X91758Y19684D01*
X91785Y19760D01*
X91823Y19839D01*
X91867Y19916D01*
X91894Y19951D01*
X91924Y19984D01*
X91927Y19987D01*
X91932Y19992D01*
X91940Y20001D01*
X91954Y20009D01*
X91971Y20022D01*
X91990Y20036D01*
X92011Y20050D01*
X92036Y20066D01*
X92066Y20083D01*
X92096Y20096D01*
X92164Y20123D01*
X92203Y20132D01*
X92244Y20140D01*
X92285Y20145D01*
X92328Y20148D01*
X92353D01*
X92369Y20145D01*
D02*
G37*
%LPC*%
G36*
X59768Y62023D02*
X58743Y59218D01*
X60818D01*
X59768Y62023D01*
D02*
G37*
G36*
X86506Y8257D02*
Y6437D01*
X84862D01*
Y5797D01*
X85735D01*
Y5313D01*
X85666Y5264D01*
X85596Y5223D01*
X85526Y5186D01*
X85461Y5153D01*
X85403Y5125D01*
X85358Y5104D01*
X85342Y5096D01*
X85329Y5092D01*
X85321Y5088D01*
X85317D01*
X85227Y5055D01*
X85141Y5034D01*
X85063Y5018D01*
X84989Y5006D01*
X84927Y4998D01*
X84899D01*
X84878Y4993D01*
X84837D01*
X84747Y4998D01*
X84665Y5010D01*
X84587Y5026D01*
X84509Y5047D01*
X84440Y5071D01*
X84378Y5100D01*
X84317Y5129D01*
X84263Y5161D01*
X84218Y5194D01*
X84173Y5223D01*
X84140Y5252D01*
X84108Y5276D01*
X84087Y5297D01*
X84066Y5317D01*
X84058Y5325D01*
X84054Y5330D01*
X84001Y5395D01*
X83956Y5469D01*
X83915Y5547D01*
X83882Y5629D01*
X83853Y5715D01*
X83829Y5797D01*
X83808Y5883D01*
X83792Y5961D01*
X83780Y6039D01*
X83771Y6113D01*
X83763Y6174D01*
X83759Y6232D01*
Y6277D01*
X83755Y6314D01*
Y6334D01*
Y6342D01*
X83759Y6457D01*
X83767Y6564D01*
X83784Y6662D01*
X83800Y6752D01*
X83825Y6838D01*
X83849Y6916D01*
X83874Y6986D01*
X83903Y7047D01*
X83931Y7105D01*
X83956Y7150D01*
X83980Y7191D01*
X84005Y7224D01*
X84021Y7253D01*
X84038Y7269D01*
X84046Y7281D01*
X84050Y7285D01*
X84108Y7343D01*
X84169Y7392D01*
X84235Y7433D01*
X84300Y7470D01*
X84366Y7503D01*
X84431Y7527D01*
X84497Y7548D01*
X84558Y7564D01*
X84616Y7576D01*
X84673Y7589D01*
X84723Y7597D01*
X84763Y7601D01*
X84796Y7605D01*
X84846D01*
X84964Y7597D01*
X85071Y7581D01*
X85165Y7552D01*
X85243Y7523D01*
X85276Y7507D01*
X85309Y7494D01*
X85333Y7478D01*
X85354Y7466D01*
X85374Y7457D01*
X85387Y7449D01*
X85391Y7441D01*
X85395D01*
X85473Y7376D01*
X85534Y7306D01*
X85588Y7232D01*
X85629Y7162D01*
X85661Y7101D01*
X85674Y7072D01*
X85682Y7047D01*
X85690Y7031D01*
X85694Y7015D01*
X85698Y7006D01*
Y7002D01*
X86457Y7146D01*
X86432Y7240D01*
X86404Y7330D01*
X86367Y7417D01*
X86330Y7494D01*
X86289Y7564D01*
X86244Y7634D01*
X86203Y7695D01*
X86158Y7749D01*
X86116Y7798D01*
X86076Y7843D01*
X86039Y7876D01*
X86010Y7908D01*
X85981Y7933D01*
X85961Y7949D01*
X85948Y7958D01*
X85944Y7962D01*
X85866Y8015D01*
X85784Y8060D01*
X85698Y8097D01*
X85608Y8134D01*
X85514Y8163D01*
X85424Y8183D01*
X85333Y8204D01*
X85247Y8220D01*
X85165Y8232D01*
X85092Y8241D01*
X85022Y8249D01*
X84960Y8253D01*
X84915Y8257D01*
X86506D01*
X82968D01*
D01*
X84747D01*
X84653Y8249D01*
X84563Y8241D01*
X84477Y8228D01*
X84395Y8212D01*
X84321Y8196D01*
X84251Y8179D01*
X84189Y8163D01*
X84132Y8146D01*
X84083Y8130D01*
X84042Y8113D01*
X84005Y8097D01*
X83976Y8085D01*
X83956Y8077D01*
X83943Y8072D01*
X83939Y8068D01*
X83853Y8019D01*
X83771Y7966D01*
X83693Y7913D01*
X83624Y7855D01*
X83558Y7794D01*
X83501Y7736D01*
X83443Y7679D01*
X83398Y7621D01*
X83353Y7568D01*
X83316Y7519D01*
X83288Y7474D01*
X83259Y7437D01*
X83238Y7404D01*
X83226Y7380D01*
X83218Y7363D01*
X83214Y7359D01*
X83169Y7273D01*
X83132Y7183D01*
X83099Y7093D01*
X83070Y7002D01*
X83050Y6912D01*
X83029Y6826D01*
X83013Y6740D01*
X83000Y6662D01*
X82988Y6588D01*
X82980Y6523D01*
X82976Y6461D01*
X82972Y6408D01*
X82968Y6367D01*
Y6310D01*
X82972Y6207D01*
X82976Y6109D01*
X82988Y6014D01*
X83000Y5920D01*
X83021Y5834D01*
X83037Y5752D01*
X83058Y5674D01*
X83078Y5600D01*
X83099Y5535D01*
X83119Y5477D01*
X83140Y5424D01*
X83156Y5383D01*
X83169Y5346D01*
X83181Y5321D01*
X83185Y5305D01*
X83189Y5301D01*
X83234Y5215D01*
X83279Y5137D01*
X83333Y5063D01*
X83386Y4993D01*
X83439Y4932D01*
X83497Y4870D01*
X83550Y4817D01*
X83603Y4772D01*
X83652Y4727D01*
X83697Y4690D01*
X83743Y4661D01*
X83775Y4633D01*
X83808Y4612D01*
X83829Y4600D01*
X83845Y4592D01*
X83849Y4588D01*
X83935Y4542D01*
X84021Y4505D01*
X84108Y4473D01*
X84198Y4444D01*
X84288Y4423D01*
X84374Y4403D01*
X84456Y4387D01*
X84534Y4374D01*
X84608Y4362D01*
X84673Y4354D01*
X84735Y4350D01*
X84788Y4346D01*
X84829Y4341D01*
X84886D01*
X84973Y4346D01*
X85059Y4350D01*
X85227Y4370D01*
X85309Y4383D01*
X85383Y4399D01*
X85456Y4415D01*
X85522Y4432D01*
X85584Y4448D01*
X85641Y4460D01*
X85690Y4477D01*
X85731Y4489D01*
X85764Y4501D01*
X85789Y4510D01*
X85805Y4518D01*
X85809D01*
X85891Y4551D01*
X85969Y4588D01*
X86043Y4620D01*
X86108Y4657D01*
X86174Y4690D01*
X86231Y4723D01*
X86281Y4756D01*
X86330Y4788D01*
X86371Y4817D01*
X86408Y4842D01*
X86436Y4866D01*
X86461Y4887D01*
X86481Y4903D01*
X86494Y4916D01*
X86502Y4920D01*
X86506Y4924D01*
Y8257D01*
D02*
G37*
G36*
X94198Y8196D02*
Y6363D01*
X94194Y6457D01*
X94185Y6543D01*
X94177Y6629D01*
X94169Y6707D01*
X94157Y6781D01*
X94144Y6851D01*
X94136Y6912D01*
X94124Y6966D01*
X94112Y7015D01*
X94099Y7060D01*
X94091Y7093D01*
X94083Y7121D01*
X94075Y7142D01*
X94071Y7154D01*
Y7158D01*
X94021Y7289D01*
X93964Y7408D01*
X93902Y7515D01*
X93874Y7560D01*
X93845Y7601D01*
X93816Y7642D01*
X93792Y7675D01*
X93767Y7704D01*
X93751Y7728D01*
X93734Y7749D01*
X93722Y7761D01*
X93714Y7769D01*
X93710Y7773D01*
X93615Y7859D01*
X93521Y7933D01*
X93427Y7995D01*
X93337Y8040D01*
X93259Y8077D01*
X93226Y8093D01*
X93197Y8101D01*
X93173Y8109D01*
X93156Y8118D01*
X93144Y8122D01*
X93140D01*
X93091Y8134D01*
X93037Y8146D01*
X92923Y8163D01*
X92804Y8179D01*
X92689Y8187D01*
X92636Y8191D01*
X92541D01*
X92500Y8196D01*
X91028D01*
Y4411D01*
X94198D01*
Y8196D01*
D02*
G37*
G36*
X90221D02*
X87219D01*
Y4411D01*
X87925D01*
Y6896D01*
X89458Y4411D01*
X90221D01*
Y8196D01*
D02*
G37*
%LPD*%
G36*
X92361Y7552D02*
X92426D01*
X92484Y7548D01*
X92537Y7544D01*
X92582Y7540D01*
X92619D01*
X92656Y7535D01*
X92685Y7531D01*
X92709Y7527D01*
X92726Y7523D01*
X92742D01*
X92750Y7519D01*
X92759D01*
X92836Y7498D01*
X92906Y7470D01*
X92968Y7441D01*
X93017Y7412D01*
X93058Y7384D01*
X93091Y7359D01*
X93107Y7343D01*
X93115Y7339D01*
X93164Y7285D01*
X93209Y7228D01*
X93246Y7166D01*
X93275Y7109D01*
X93300Y7056D01*
X93320Y7011D01*
X93324Y6998D01*
X93328Y6986D01*
X93332Y6978D01*
Y6974D01*
X93345Y6929D01*
X93357Y6879D01*
X93378Y6769D01*
X93390Y6658D01*
X93402Y6551D01*
Y6498D01*
X93406Y6453D01*
Y6412D01*
X93410Y6375D01*
Y6342D01*
Y6322D01*
Y6305D01*
Y6301D01*
Y6223D01*
X93406Y6146D01*
X93402Y6076D01*
X93398Y6006D01*
X93394Y5945D01*
X93386Y5891D01*
X93378Y5838D01*
X93374Y5789D01*
X93365Y5748D01*
X93357Y5711D01*
X93349Y5682D01*
X93345Y5654D01*
X93341Y5633D01*
X93337Y5621D01*
X93332Y5613D01*
Y5608D01*
X93300Y5518D01*
X93267Y5444D01*
X93234Y5383D01*
X93201Y5330D01*
X93177Y5293D01*
X93152Y5264D01*
X93136Y5248D01*
X93132Y5243D01*
X93082Y5207D01*
X93033Y5174D01*
X92980Y5145D01*
X92931Y5121D01*
X92890Y5104D01*
X92857Y5092D01*
X92832Y5088D01*
X92828Y5084D01*
X92824D01*
X92795Y5080D01*
X92763Y5071D01*
X92693Y5063D01*
X92615Y5059D01*
X92537Y5055D01*
X92471Y5051D01*
X91791D01*
Y7556D01*
X92291D01*
X92361Y7552D01*
D02*
G37*
G36*
X94198Y4411D02*
X92541D01*
X92615Y4415D01*
X92685Y4419D01*
X92746Y4423D01*
X92808Y4428D01*
X92865Y4436D01*
X92914Y4444D01*
X92959Y4452D01*
X93000Y4456D01*
X93037Y4465D01*
X93070Y4473D01*
X93095Y4477D01*
X93115Y4481D01*
X93128Y4485D01*
X93136Y4489D01*
X93140D01*
X93259Y4534D01*
X93365Y4583D01*
X93455Y4633D01*
X93533Y4682D01*
X93566Y4702D01*
X93595Y4723D01*
X93615Y4743D01*
X93636Y4760D01*
X93652Y4772D01*
X93665Y4784D01*
X93669Y4788D01*
X93673Y4792D01*
X93767Y4895D01*
X93849Y5006D01*
X93919Y5116D01*
X93976Y5223D01*
X94001Y5272D01*
X94021Y5317D01*
X94038Y5358D01*
X94054Y5391D01*
X94062Y5420D01*
X94071Y5444D01*
X94079Y5457D01*
Y5461D01*
X94120Y5592D01*
X94148Y5727D01*
X94169Y5863D01*
X94181Y5990D01*
X94189Y6047D01*
X94194Y6100D01*
Y6146D01*
X94198Y6186D01*
Y4411D01*
D02*
G37*
G36*
X89515Y5654D02*
X87957Y8196D01*
X89515D01*
Y5654D01*
D02*
G37*
%LPC*%
G36*
X86752Y72430D02*
X83082D01*
D01*
X84911D01*
X84742Y72422D01*
X84587Y72406D01*
X84517Y72393D01*
X84447Y72381D01*
X84386Y72369D01*
X84328Y72356D01*
X84275Y72340D01*
X84230Y72328D01*
X84189Y72315D01*
X84156Y72303D01*
X84132Y72291D01*
X84111Y72287D01*
X84099Y72278D01*
X84095D01*
X83996Y72233D01*
X83906Y72180D01*
X83820Y72123D01*
X83750Y72065D01*
X83689Y72016D01*
X83664Y71996D01*
X83644Y71975D01*
X83627Y71959D01*
X83615Y71946D01*
X83607Y71942D01*
X83603Y71938D01*
X83525Y71848D01*
X83455Y71762D01*
X83394Y71672D01*
X83344Y71594D01*
X83307Y71520D01*
X83291Y71491D01*
X83279Y71467D01*
X83267Y71446D01*
X83258Y71430D01*
X83254Y71422D01*
Y71417D01*
X83226Y71344D01*
X83197Y71262D01*
X83156Y71102D01*
X83123Y70938D01*
X83115Y70860D01*
X83103Y70786D01*
X83098Y70712D01*
X83090Y70651D01*
X83086Y70593D01*
Y70544D01*
X83082Y70503D01*
Y70544D01*
Y68515D01*
Y70446D01*
X83086Y70282D01*
X83103Y70126D01*
X83127Y69978D01*
X83160Y69843D01*
X83197Y69716D01*
X83238Y69601D01*
X83283Y69495D01*
X83332Y69400D01*
X83377Y69314D01*
X83422Y69240D01*
X83463Y69175D01*
X83500Y69121D01*
X83533Y69081D01*
X83558Y69052D01*
X83574Y69035D01*
X83578Y69027D01*
X83676Y68937D01*
X83779Y68859D01*
X83886Y68789D01*
X83996Y68732D01*
X84107Y68683D01*
X84222Y68642D01*
X84328Y68605D01*
X84435Y68580D01*
X84533Y68556D01*
X84624Y68543D01*
X84710Y68531D01*
X84779Y68523D01*
X84837Y68519D01*
X84882Y68515D01*
X84919D01*
X85071Y68519D01*
X85218Y68535D01*
X85353Y68564D01*
X85480Y68597D01*
X85599Y68634D01*
X85710Y68679D01*
X85808Y68724D01*
X85899Y68773D01*
X85981Y68822D01*
X86050Y68867D01*
X86112Y68912D01*
X86161Y68949D01*
X86202Y68982D01*
X86227Y69011D01*
X86247Y69027D01*
X86251Y69031D01*
X86342Y69134D01*
X86415Y69240D01*
X86485Y69355D01*
X86542Y69474D01*
X86588Y69593D01*
X86629Y69712D01*
X86661Y69831D01*
X86690Y69942D01*
X86711Y70048D01*
X86727Y70151D01*
X86735Y70237D01*
X86743Y70315D01*
X86747Y70380D01*
X86752Y70405D01*
Y70544D01*
Y70466D01*
X86747Y70634D01*
X86731Y70794D01*
X86706Y70942D01*
X86674Y71081D01*
X86637Y71208D01*
X86592Y71327D01*
X86546Y71438D01*
X86501Y71532D01*
X86452Y71623D01*
X86407Y71696D01*
X86366Y71762D01*
X86325Y71815D01*
X86292Y71856D01*
X86268Y71885D01*
X86251Y71905D01*
X86247Y71909D01*
X86149Y72000D01*
X86046Y72082D01*
X85940Y72151D01*
X85829Y72209D01*
X85714Y72262D01*
X85603Y72303D01*
X85497Y72336D01*
X85390Y72365D01*
X85292Y72385D01*
X85202Y72401D01*
X85120Y72414D01*
X85050Y72422D01*
X84993Y72426D01*
X84948Y72430D01*
X86752D01*
D02*
G37*
G36*
X93902Y72369D02*
X90901D01*
Y68584D01*
Y71729D01*
X92024D01*
Y68584D01*
X92787D01*
Y71729D01*
X93902D01*
Y68998D01*
Y72369D01*
D02*
G37*
G36*
X82848D02*
X79326D01*
X80675Y68584D01*
X79326D01*
X81495D01*
X82848Y72369D01*
D02*
G37*
G36*
X90359D02*
X87346D01*
Y68515D01*
Y70228D01*
X87350Y70118D01*
X87354Y70019D01*
X87358Y69925D01*
X87362Y69839D01*
X87371Y69761D01*
X87375Y69687D01*
X87383Y69626D01*
X87391Y69568D01*
X87395Y69519D01*
X87403Y69478D01*
X87407Y69445D01*
X87412Y69417D01*
X87416Y69400D01*
X87420Y69388D01*
Y69384D01*
X87444Y69302D01*
X87473Y69224D01*
X87510Y69154D01*
X87547Y69089D01*
X87580Y69035D01*
X87608Y68998D01*
X87617Y68982D01*
X87625Y68970D01*
X87633Y68966D01*
Y68962D01*
X87699Y68892D01*
X87772Y68826D01*
X87846Y68773D01*
X87916Y68728D01*
X87977Y68687D01*
X88006Y68675D01*
X88031Y68662D01*
X88047Y68650D01*
X88064Y68642D01*
X88072Y68638D01*
X88076D01*
X88129Y68617D01*
X88191Y68597D01*
X88322Y68568D01*
X88457Y68543D01*
X88592Y68531D01*
X88654Y68527D01*
X88711Y68523D01*
X88761Y68519D01*
X88806D01*
X88842Y68515D01*
X88978D01*
X89056Y68519D01*
X89130Y68527D01*
X89199Y68531D01*
X89261Y68543D01*
X89322Y68552D01*
X89376Y68560D01*
X89425Y68572D01*
X89470Y68584D01*
X89511Y68593D01*
X89544Y68605D01*
X89572Y68613D01*
X89593Y68617D01*
X89609Y68625D01*
X89617Y68629D01*
X89622D01*
X89720Y68675D01*
X89810Y68728D01*
X89884Y68777D01*
X89950Y68826D01*
X89999Y68871D01*
X90036Y68904D01*
X90056Y68929D01*
X90064Y68933D01*
Y68937D01*
X90122Y69015D01*
X90171Y69093D01*
X90212Y69171D01*
X90241Y69249D01*
X90265Y69314D01*
X90273Y69343D01*
X90282Y69367D01*
X90286Y69384D01*
X90290Y69400D01*
X90294Y69409D01*
Y69413D01*
X90306Y69470D01*
X90314Y69536D01*
X90323Y69605D01*
X90331Y69683D01*
X90343Y69843D01*
X90351Y69999D01*
X90355Y70077D01*
Y70147D01*
X90359Y70208D01*
Y72369D01*
D02*
G37*
G36*
X88842Y68515D02*
X88803D01*
X88842D01*
D01*
D02*
G37*
%LPD*%
G36*
X85005Y71774D02*
X85087Y71766D01*
X85165Y71750D01*
X85234Y71729D01*
X85304Y71705D01*
X85366Y71676D01*
X85423Y71647D01*
X85476Y71618D01*
X85522Y71586D01*
X85562Y71557D01*
X85595Y71528D01*
X85624Y71504D01*
X85649Y71483D01*
X85665Y71467D01*
X85673Y71459D01*
X85677Y71454D01*
X85726Y71393D01*
X85772Y71319D01*
X85808Y71245D01*
X85845Y71167D01*
X85870Y71090D01*
X85895Y71008D01*
X85915Y70925D01*
X85927Y70848D01*
X85940Y70774D01*
X85948Y70704D01*
X85956Y70643D01*
X85960Y70589D01*
X85964Y70544D01*
Y70511D01*
Y70491D01*
Y70483D01*
X85960Y70364D01*
X85952Y70249D01*
X85936Y70147D01*
X85919Y70048D01*
X85895Y69962D01*
X85870Y69880D01*
X85845Y69806D01*
X85817Y69741D01*
X85788Y69683D01*
X85763Y69634D01*
X85739Y69589D01*
X85714Y69556D01*
X85698Y69527D01*
X85681Y69511D01*
X85673Y69499D01*
X85669Y69495D01*
X85612Y69437D01*
X85550Y69388D01*
X85489Y69343D01*
X85427Y69306D01*
X85366Y69273D01*
X85300Y69249D01*
X85243Y69224D01*
X85185Y69208D01*
X85128Y69195D01*
X85079Y69183D01*
X85034Y69175D01*
X84997Y69171D01*
X84964D01*
X84939Y69167D01*
X84919D01*
X84837Y69171D01*
X84755Y69183D01*
X84677Y69199D01*
X84607Y69220D01*
X84542Y69244D01*
X84480Y69273D01*
X84423Y69302D01*
X84369Y69335D01*
X84324Y69363D01*
X84283Y69392D01*
X84246Y69421D01*
X84218Y69445D01*
X84193Y69470D01*
X84177Y69486D01*
X84168Y69495D01*
X84164Y69499D01*
X84111Y69564D01*
X84066Y69638D01*
X84029Y69712D01*
X83992Y69790D01*
X83964Y69872D01*
X83943Y69954D01*
X83922Y70032D01*
X83906Y70110D01*
X83894Y70183D01*
X83886Y70253D01*
X83877Y70315D01*
X83873Y70368D01*
Y70413D01*
X83869Y70446D01*
Y70466D01*
Y70474D01*
X83873Y70593D01*
X83881Y70704D01*
X83894Y70807D01*
X83914Y70901D01*
X83935Y70991D01*
X83959Y71069D01*
X83988Y71143D01*
X84013Y71208D01*
X84041Y71266D01*
X84066Y71315D01*
X84091Y71356D01*
X84111Y71389D01*
X84132Y71417D01*
X84144Y71434D01*
X84152Y71446D01*
X84156Y71450D01*
X84214Y71508D01*
X84271Y71557D01*
X84337Y71602D01*
X84398Y71639D01*
X84464Y71672D01*
X84525Y71700D01*
X84587Y71721D01*
X84648Y71737D01*
X84702Y71750D01*
X84755Y71762D01*
X84800Y71770D01*
X84841Y71774D01*
X84874Y71778D01*
X84919D01*
X85005Y71774D01*
D02*
G37*
G36*
X81110Y69568D02*
X80151Y72369D01*
X82037D01*
X81110Y69568D01*
D02*
G37*
G36*
X89597Y70270D02*
Y70187D01*
Y70114D01*
X89593Y70044D01*
Y69978D01*
X89589Y69921D01*
X89585Y69868D01*
X89581Y69819D01*
Y69778D01*
X89576Y69741D01*
X89572Y69708D01*
X89568Y69683D01*
X89564Y69659D01*
Y69642D01*
X89560Y69630D01*
Y69626D01*
Y69622D01*
X89544Y69552D01*
X89515Y69490D01*
X89482Y69433D01*
X89449Y69388D01*
X89416Y69351D01*
X89388Y69322D01*
X89371Y69302D01*
X89363Y69298D01*
X89293Y69253D01*
X89216Y69224D01*
X89134Y69199D01*
X89056Y69183D01*
X88982Y69175D01*
X88953Y69171D01*
X88924D01*
X88904Y69167D01*
X88871D01*
X88756Y69171D01*
X88658Y69187D01*
X88572Y69212D01*
X88498Y69236D01*
X88441Y69261D01*
X88400Y69286D01*
X88387Y69294D01*
X88375Y69302D01*
X88371Y69306D01*
X88367D01*
X88305Y69363D01*
X88252Y69425D01*
X88211Y69486D01*
X88182Y69544D01*
X88158Y69597D01*
X88146Y69642D01*
X88137Y69659D01*
Y69671D01*
X88133Y69675D01*
Y69679D01*
X88129Y69712D01*
X88125Y69749D01*
X88121Y69790D01*
Y69839D01*
X88113Y69942D01*
Y70052D01*
Y70101D01*
X88109Y70151D01*
Y70196D01*
Y70237D01*
Y70270D01*
Y70294D01*
Y70310D01*
Y70315D01*
Y72369D01*
X89597D01*
Y70270D01*
D02*
G37*
%LPC*%
G36*
X75002Y55071D02*
X74190D01*
X73263Y52270D01*
X72304Y55071D01*
X71480D01*
X72829Y51286D01*
X71480D01*
Y55071D01*
D01*
Y51286D01*
X75002D01*
D01*
X73649D01*
X75002Y55071D01*
D01*
D02*
G37*
G36*
X71152Y55021D02*
X69233D01*
X68860Y53049D01*
X69446Y52967D01*
X69491Y53016D01*
X69540Y53057D01*
X69590Y53094D01*
X69639Y53127D01*
X69684Y53152D01*
X69733Y53176D01*
X69819Y53209D01*
X69897Y53225D01*
X69926Y53234D01*
X69955Y53238D01*
X69979Y53242D01*
X70053D01*
X70098Y53234D01*
X70176Y53213D01*
X70246Y53184D01*
X70303Y53156D01*
X70352Y53123D01*
X70385Y53094D01*
X70406Y53074D01*
X70414Y53070D01*
Y53066D01*
X70467Y52992D01*
X70508Y52910D01*
X70537Y52824D01*
X70553Y52738D01*
X70565Y52660D01*
X70569Y52627D01*
Y52598D01*
X70574Y52574D01*
Y52557D01*
Y52545D01*
Y52541D01*
Y52475D01*
X70565Y52410D01*
X70557Y52352D01*
X70549Y52295D01*
X70537Y52246D01*
X70524Y52201D01*
X70508Y52160D01*
X70496Y52123D01*
X70479Y52090D01*
X70463Y52061D01*
X70451Y52036D01*
X70438Y52016D01*
X70430Y52004D01*
X70422Y51991D01*
X70414Y51987D01*
Y51983D01*
X70385Y51950D01*
X70352Y51922D01*
X70287Y51877D01*
X70225Y51844D01*
X70164Y51823D01*
X70110Y51807D01*
X70065Y51803D01*
X70049Y51799D01*
X70028D01*
X69955Y51807D01*
X69889Y51823D01*
X69827Y51844D01*
X69778Y51872D01*
X69733Y51897D01*
X69704Y51922D01*
X69684Y51938D01*
X69676Y51942D01*
X69626Y52000D01*
X69586Y52065D01*
X69553Y52127D01*
X69528Y52192D01*
X69512Y52246D01*
X69503Y52291D01*
X69499Y52307D01*
X69495Y52319D01*
Y52328D01*
Y52332D01*
X68774Y52254D01*
D01*
X68790Y52168D01*
X68806Y52086D01*
X68831Y52008D01*
X68860Y51934D01*
X68893Y51868D01*
X68925Y51807D01*
X68958Y51749D01*
X68991Y51696D01*
X69024Y51651D01*
X69057Y51610D01*
X69085Y51577D01*
X69110Y51549D01*
X69134Y51524D01*
X69151Y51508D01*
X69159Y51499D01*
X69163Y51495D01*
X69229Y51446D01*
X69294Y51405D01*
X69364Y51368D01*
X69438Y51335D01*
X69508Y51307D01*
X69581Y51286D01*
X69717Y51253D01*
X69778Y51241D01*
X69836Y51233D01*
X69889Y51225D01*
X69934Y51221D01*
X69971Y51217D01*
X68774D01*
X71320D01*
X70020D01*
X70139Y51221D01*
X70254Y51237D01*
X70360Y51262D01*
X70459Y51294D01*
X70549Y51331D01*
X70631Y51376D01*
X70709Y51421D01*
X70779Y51467D01*
X70840Y51512D01*
X70893Y51557D01*
X70938Y51602D01*
X70975Y51639D01*
X71008Y51672D01*
X71029Y51696D01*
X71041Y51713D01*
X71045Y51717D01*
X71094Y51786D01*
X71135Y51860D01*
X71172Y51930D01*
X71205Y52004D01*
X71230Y52073D01*
X71254Y52143D01*
X71271Y52209D01*
X71287Y52274D01*
X71295Y52332D01*
X71303Y52385D01*
X71312Y52434D01*
X71316Y52475D01*
X71320Y52508D01*
Y52553D01*
X71316Y52656D01*
X71303Y52754D01*
X71287Y52844D01*
X71267Y52934D01*
X71242Y53012D01*
X71213Y53090D01*
X71180Y53160D01*
X71152Y53221D01*
X71119Y53279D01*
X71086Y53328D01*
X71057Y53369D01*
X71033Y53402D01*
X71012Y53430D01*
X70996Y53451D01*
X70984Y53463D01*
X70979Y53467D01*
X70914Y53529D01*
X70848Y53582D01*
X70779Y53631D01*
X70709Y53672D01*
X70639Y53705D01*
X70574Y53734D01*
X70508Y53759D01*
X70442Y53775D01*
X70385Y53791D01*
X70332Y53799D01*
X70283Y53808D01*
X70241Y53816D01*
X70205D01*
X70180Y53820D01*
X70160D01*
X70065Y53816D01*
X69975Y53799D01*
X69893Y53783D01*
X69815Y53759D01*
X69754Y53738D01*
X69729Y53726D01*
X69704Y53717D01*
X69688Y53709D01*
X69676Y53701D01*
X69668Y53697D01*
X69663D01*
X69778Y54341D01*
X71152D01*
Y55021D01*
D02*
G37*
G36*
X77683Y55083D02*
X75227D01*
Y51217D01*
D01*
Y53156D01*
X75231Y52959D01*
X75244Y52779D01*
X75260Y52610D01*
X75280Y52459D01*
X75305Y52319D01*
X75334Y52196D01*
X75362Y52086D01*
X75395Y51987D01*
X75428Y51905D01*
X75457Y51832D01*
X75485Y51770D01*
X75510Y51721D01*
X75530Y51684D01*
X75551Y51659D01*
X75559Y51643D01*
X75563Y51639D01*
X75629Y51565D01*
X75699Y51499D01*
X75772Y51442D01*
X75846Y51393D01*
X75920Y51356D01*
X75994Y51319D01*
X76064Y51290D01*
X76133Y51270D01*
X76199Y51253D01*
X76260Y51237D01*
X76314Y51229D01*
X76363Y51225D01*
X76400Y51221D01*
X76428Y51217D01*
X76453D01*
X76551Y51221D01*
X76646Y51233D01*
X76736Y51253D01*
X76818Y51278D01*
X76896Y51307D01*
X76965Y51340D01*
X77031Y51372D01*
X77088Y51409D01*
X77138Y51446D01*
X77183Y51479D01*
X77224Y51512D01*
X77253Y51540D01*
X77277Y51565D01*
X77298Y51586D01*
X77306Y51598D01*
X77310Y51602D01*
X77376Y51696D01*
X77433Y51803D01*
X77482Y51922D01*
X77527Y52041D01*
X77560Y52168D01*
X77593Y52299D01*
X77617Y52426D01*
X77638Y52553D01*
X77650Y52672D01*
X77662Y52783D01*
X77671Y52885D01*
X77679Y52971D01*
Y53012D01*
Y53045D01*
X77683Y53074D01*
Y53148D01*
X77679Y53340D01*
X77667Y53521D01*
X77650Y53689D01*
X77626Y53841D01*
X77597Y53980D01*
X77568Y54107D01*
X77531Y54222D01*
X77499Y54320D01*
X77466Y54410D01*
X77433Y54484D01*
X77400Y54550D01*
X77371Y54599D01*
X77347Y54640D01*
X77330Y54669D01*
X77318Y54685D01*
X77314Y54689D01*
X77253Y54759D01*
X77187Y54820D01*
X77117Y54874D01*
X77047Y54919D01*
X76978Y54956D01*
X76904Y54988D01*
X76834Y55013D01*
X76769Y55034D01*
X76703Y55050D01*
X76642Y55062D01*
X76588Y55071D01*
X76543Y55079D01*
X76506D01*
X76478Y55083D01*
X77683D01*
D02*
G37*
G36*
X76428Y51217D02*
D01*
X75227D01*
X76428D01*
D02*
G37*
G36*
X68774Y55021D02*
D01*
Y51217D01*
D01*
Y52254D01*
D01*
D01*
Y55021D01*
D01*
D02*
G37*
G36*
X75002Y50346D02*
X74190D01*
X73263Y47546D01*
X72304Y50346D01*
X71480D01*
X72829Y46562D01*
X71480D01*
D01*
X75002D01*
D01*
X73649D01*
X75002Y50346D01*
D02*
G37*
G36*
X76449Y50358D02*
X76424D01*
X76310Y50354D01*
X76203Y50342D01*
X76104Y50321D01*
X76022Y50301D01*
X75986Y50289D01*
X75953Y50276D01*
X75924Y50268D01*
X75899Y50260D01*
X75879Y50252D01*
X75867Y50244D01*
X75858Y50239D01*
X75854D01*
X75764Y50190D01*
X75686Y50137D01*
X75621Y50084D01*
X75567Y50030D01*
X75522Y49985D01*
X75489Y49944D01*
X75473Y49920D01*
X75465Y49916D01*
Y49911D01*
X75416Y49830D01*
X75375Y49739D01*
X75338Y49649D01*
X75309Y49559D01*
X75284Y49481D01*
X75276Y49448D01*
X75268Y49420D01*
X75264Y49395D01*
X75260Y49378D01*
X75256Y49366D01*
Y49362D01*
X75924Y49251D01*
X75941Y49338D01*
X75961Y49415D01*
X75986Y49477D01*
X76014Y49530D01*
X76043Y49571D01*
X76064Y49600D01*
X76080Y49620D01*
X76084Y49624D01*
X76137Y49670D01*
X76191Y49702D01*
X76244Y49723D01*
X76293Y49739D01*
X76338Y49747D01*
X76371Y49756D01*
X76404D01*
X76473Y49751D01*
X76535Y49739D01*
X76584Y49719D01*
X76629Y49698D01*
X76666Y49678D01*
X76691Y49657D01*
X76707Y49645D01*
X76711Y49641D01*
X76748Y49596D01*
X76777Y49547D01*
X76797Y49493D01*
X76814Y49448D01*
X76822Y49403D01*
X76826Y49370D01*
Y49346D01*
Y49342D01*
Y49338D01*
X76818Y49255D01*
X76802Y49186D01*
X76777Y49124D01*
X76748Y49071D01*
X76715Y49030D01*
X76691Y49001D01*
X76674Y48985D01*
X76666Y48977D01*
X76601Y48936D01*
X76531Y48903D01*
X76457Y48878D01*
X76383Y48866D01*
X76318Y48858D01*
X76289D01*
X76264Y48854D01*
X76215D01*
X76137Y48263D01*
X76207Y48284D01*
X76273Y48296D01*
X76326Y48308D01*
X76375Y48313D01*
X76416Y48317D01*
X76445Y48321D01*
X76469D01*
X76547Y48313D01*
X76617Y48296D01*
X76679Y48267D01*
X76732Y48239D01*
X76773Y48210D01*
X76806Y48181D01*
X76822Y48165D01*
X76830Y48157D01*
X76879Y48091D01*
X76916Y48021D01*
X76941Y47948D01*
X76961Y47878D01*
X76970Y47816D01*
X76974Y47792D01*
Y47767D01*
X76978Y47747D01*
Y47734D01*
Y47726D01*
Y47722D01*
X76970Y47620D01*
X76953Y47529D01*
X76929Y47451D01*
X76900Y47386D01*
X76871Y47333D01*
X76847Y47296D01*
X76830Y47271D01*
X76822Y47263D01*
X76761Y47205D01*
X76695Y47164D01*
X76633Y47136D01*
X76572Y47115D01*
X76519Y47103D01*
X76478Y47099D01*
X76461Y47095D01*
X76441D01*
X76367Y47099D01*
X76297Y47115D01*
X76236Y47140D01*
X76182Y47164D01*
X76141Y47189D01*
X76109Y47214D01*
X76092Y47230D01*
X76084Y47234D01*
X76035Y47292D01*
X75994Y47361D01*
X75961Y47427D01*
X75941Y47497D01*
X75920Y47554D01*
X75912Y47603D01*
X75908Y47624D01*
X75904Y47636D01*
Y47644D01*
Y47648D01*
X75203Y47562D01*
X75215Y47476D01*
X75235Y47390D01*
X75260Y47312D01*
X75284Y47238D01*
X75317Y47168D01*
X75350Y47107D01*
X75383Y47050D01*
X75416Y46996D01*
X75453Y46947D01*
X75481Y46906D01*
X75514Y46869D01*
X75539Y46841D01*
X75559Y46816D01*
X75576Y46799D01*
X75588Y46791D01*
X75592Y46787D01*
X75658Y46734D01*
X75727Y46689D01*
X75797Y46652D01*
X75871Y46615D01*
X75941Y46586D01*
X76010Y46566D01*
X76080Y46545D01*
X76145Y46529D01*
X76207Y46517D01*
X76264Y46508D01*
X76318Y46500D01*
X76359Y46496D01*
X76396D01*
X76420Y46492D01*
X75203D01*
X77720D01*
Y47689D01*
X77716Y47751D01*
X77712Y47812D01*
X77691Y47927D01*
X77658Y48026D01*
X77622Y48112D01*
X77605Y48149D01*
X77585Y48181D01*
X77568Y48210D01*
X77556Y48235D01*
X77539Y48251D01*
X77531Y48263D01*
X77527Y48271D01*
X77523Y48276D01*
X77486Y48321D01*
X77445Y48362D01*
X77363Y48427D01*
X77277Y48485D01*
X77191Y48526D01*
X77121Y48554D01*
X77088Y48567D01*
X77060Y48575D01*
X77039Y48583D01*
X77023Y48587D01*
X77011Y48591D01*
X77007D01*
X77101Y48649D01*
X77187Y48710D01*
X77261Y48776D01*
X77322Y48841D01*
X77376Y48907D01*
X77421Y48973D01*
X77453Y49038D01*
X77482Y49100D01*
X77507Y49157D01*
X77523Y49214D01*
X77535Y49264D01*
X77544Y49305D01*
X77548Y49338D01*
X77552Y49366D01*
Y49382D01*
Y49387D01*
X77548Y49452D01*
X77539Y49514D01*
X77527Y49575D01*
X77511Y49633D01*
X77466Y49739D01*
X77416Y49830D01*
X77392Y49870D01*
X77367Y49907D01*
X77343Y49940D01*
X77322Y49965D01*
X77306Y49985D01*
X77293Y50002D01*
X77285Y50010D01*
X77281Y50014D01*
X77220Y50076D01*
X77154Y50129D01*
X77084Y50174D01*
X77011Y50215D01*
X76941Y50248D01*
X76871Y50276D01*
X76802Y50297D01*
X76732Y50317D01*
X76670Y50330D01*
X76613Y50342D01*
X76560Y50346D01*
X76515Y50354D01*
X76478D01*
X76449Y50358D01*
D02*
G37*
G36*
X69983D02*
X69959D01*
X69844Y50354D01*
X69737Y50342D01*
X69639Y50321D01*
X69557Y50301D01*
X69520Y50289D01*
X69487Y50276D01*
X69458Y50268D01*
X69434Y50260D01*
X69413Y50252D01*
X69401Y50244D01*
X69393Y50239D01*
X69389D01*
X69298Y50190D01*
X69221Y50137D01*
X69155Y50084D01*
X69102Y50030D01*
X69057Y49985D01*
X69024Y49944D01*
X69007Y49920D01*
X68999Y49916D01*
Y49911D01*
X68950Y49830D01*
X68909Y49739D01*
X68872Y49649D01*
X68843Y49559D01*
X68819Y49481D01*
X68811Y49448D01*
X68802Y49420D01*
X68798Y49395D01*
X68794Y49378D01*
X68790Y49366D01*
Y49362D01*
X69458Y49251D01*
X69475Y49338D01*
X69495Y49415D01*
X69520Y49477D01*
X69549Y49530D01*
X69577Y49571D01*
X69598Y49600D01*
X69614Y49620D01*
X69618Y49624D01*
X69672Y49670D01*
X69725Y49702D01*
X69778Y49723D01*
X69827Y49739D01*
X69872Y49747D01*
X69905Y49756D01*
X69938D01*
X70008Y49751D01*
X70069Y49739D01*
X70118Y49719D01*
X70164Y49698D01*
X70201Y49678D01*
X70225Y49657D01*
X70241Y49645D01*
X70246Y49641D01*
X70283Y49596D01*
X70311Y49547D01*
X70332Y49493D01*
X70348Y49448D01*
X70356Y49403D01*
X70360Y49370D01*
Y49346D01*
Y49342D01*
Y49338D01*
X70352Y49255D01*
X70336Y49186D01*
X70311Y49124D01*
X70283Y49071D01*
X70250Y49030D01*
X70225Y49001D01*
X70209Y48985D01*
X70201Y48977D01*
X70135Y48936D01*
X70065Y48903D01*
X69991Y48878D01*
X69918Y48866D01*
X69852Y48858D01*
X69823D01*
X69799Y48854D01*
X69749D01*
X69672Y48263D01*
X69741Y48284D01*
X69807Y48296D01*
X69860Y48308D01*
X69909Y48313D01*
X69950Y48317D01*
X69979Y48321D01*
X70004D01*
X70082Y48313D01*
X70151Y48296D01*
X70213Y48267D01*
X70266Y48239D01*
X70307Y48210D01*
X70340Y48181D01*
X70356Y48165D01*
X70364Y48157D01*
X70414Y48091D01*
X70451Y48021D01*
X70475Y47948D01*
X70496Y47878D01*
X70504Y47816D01*
X70508Y47792D01*
Y47767D01*
X70512Y47747D01*
Y47734D01*
Y47726D01*
Y47722D01*
X70504Y47620D01*
X70487Y47529D01*
X70463Y47451D01*
X70434Y47386D01*
X70406Y47333D01*
X70381Y47296D01*
X70364Y47271D01*
X70356Y47263D01*
X70295Y47205D01*
X70229Y47164D01*
X70168Y47136D01*
X70106Y47115D01*
X70053Y47103D01*
X70012Y47099D01*
X69995Y47095D01*
X69975D01*
X69901Y47099D01*
X69832Y47115D01*
X69770Y47140D01*
X69717Y47164D01*
X69676Y47189D01*
X69643Y47214D01*
X69626Y47230D01*
X69618Y47234D01*
X69569Y47292D01*
X69528Y47361D01*
X69495Y47427D01*
X69475Y47497D01*
X69454Y47554D01*
X69446Y47603D01*
X69442Y47624D01*
X69438Y47636D01*
Y47644D01*
Y47648D01*
X68737Y47562D01*
X68749Y47476D01*
X68770Y47390D01*
X68794Y47312D01*
X68819Y47238D01*
X68852Y47168D01*
X68884Y47107D01*
X68917Y47050D01*
X68950Y46996D01*
X68987Y46947D01*
X69016Y46906D01*
X69048Y46869D01*
X69073Y46841D01*
X69094Y46816D01*
X69110Y46799D01*
X69122Y46791D01*
X69126Y46787D01*
X69192Y46734D01*
X69262Y46689D01*
X69331Y46652D01*
X69405Y46615D01*
X69475Y46586D01*
X69545Y46566D01*
X69614Y46545D01*
X69680Y46529D01*
X69741Y46517D01*
X69799Y46508D01*
X69852Y46500D01*
X69893Y46496D01*
X69930D01*
X69955Y46492D01*
X68737D01*
D01*
X71254D01*
Y47689D01*
X71250Y47751D01*
X71246Y47812D01*
X71226Y47927D01*
X71193Y48026D01*
X71156Y48112D01*
X71139Y48149D01*
X71119Y48181D01*
X71102Y48210D01*
X71090Y48235D01*
X71074Y48251D01*
X71066Y48263D01*
X71061Y48271D01*
X71057Y48276D01*
X71021Y48321D01*
X70979Y48362D01*
X70898Y48427D01*
X70811Y48485D01*
X70725Y48526D01*
X70656Y48554D01*
X70623Y48567D01*
X70594Y48575D01*
X70574Y48583D01*
X70557Y48587D01*
X70545Y48591D01*
X70541D01*
X70635Y48649D01*
X70721Y48710D01*
X70795Y48776D01*
X70856Y48841D01*
X70910Y48907D01*
X70955Y48973D01*
X70988Y49038D01*
X71016Y49100D01*
X71041Y49157D01*
X71057Y49214D01*
X71070Y49264D01*
X71078Y49305D01*
X71082Y49338D01*
X71086Y49366D01*
Y49382D01*
Y49387D01*
X71082Y49452D01*
X71074Y49514D01*
X71061Y49575D01*
X71045Y49633D01*
X71000Y49739D01*
X70951Y49830D01*
X70926Y49870D01*
X70902Y49907D01*
X70877Y49940D01*
X70856Y49965D01*
X70840Y49985D01*
X70828Y50002D01*
X70820Y50010D01*
X70815Y50014D01*
X70754Y50076D01*
X70688Y50129D01*
X70619Y50174D01*
X70545Y50215D01*
X70475Y50248D01*
X70406Y50276D01*
X70336Y50297D01*
X70266Y50317D01*
X70205Y50330D01*
X70147Y50342D01*
X70094Y50346D01*
X70049Y50354D01*
X70012D01*
X69983Y50358D01*
D02*
G37*
%LPD*%
G36*
X76355Y55079D02*
X76260Y55066D01*
X76170Y55046D01*
X76088Y55021D01*
X76010Y54993D01*
X75941Y54960D01*
X75875Y54923D01*
X75818Y54890D01*
X75768Y54853D01*
X75723Y54816D01*
X75686Y54783D01*
X75653Y54755D01*
X75629Y54730D01*
X75612Y54710D01*
X75600Y54697D01*
X75596Y54693D01*
X75530Y54599D01*
X75473Y54492D01*
X75424Y54378D01*
X75383Y54255D01*
X75346Y54128D01*
X75317Y54000D01*
X75293Y53873D01*
X75272Y53746D01*
X75260Y53627D01*
X75248Y53517D01*
X75239Y53418D01*
X75231Y53328D01*
Y53291D01*
Y53258D01*
X75227Y53230D01*
Y55083D01*
X76453D01*
X76355Y55079D01*
D02*
G37*
G36*
X76502Y54476D02*
X76543Y54468D01*
X76584Y54451D01*
X76621Y54439D01*
X76646Y54423D01*
X76670Y54406D01*
X76683Y54398D01*
X76687Y54394D01*
X76724Y54357D01*
X76756Y54308D01*
X76785Y54255D01*
X76810Y54197D01*
X76830Y54144D01*
X76842Y54103D01*
X76847Y54087D01*
X76851Y54074D01*
X76855Y54066D01*
Y54062D01*
X76867Y54009D01*
X76879Y53951D01*
X76888Y53886D01*
X76896Y53812D01*
X76908Y53664D01*
X76916Y53513D01*
X76920Y53439D01*
Y53373D01*
X76925Y53307D01*
Y53254D01*
Y53209D01*
Y53176D01*
Y53156D01*
Y53148D01*
Y53029D01*
X76920Y52914D01*
X76916Y52811D01*
X76912Y52717D01*
X76908Y52631D01*
X76900Y52553D01*
X76892Y52483D01*
X76888Y52422D01*
X76879Y52369D01*
X76871Y52324D01*
X76863Y52287D01*
X76859Y52254D01*
X76855Y52229D01*
X76851Y52213D01*
X76847Y52205D01*
Y52201D01*
X76822Y52127D01*
X76797Y52061D01*
X76773Y52012D01*
X76744Y51971D01*
X76724Y51938D01*
X76703Y51918D01*
X76691Y51905D01*
X76687Y51901D01*
X76646Y51872D01*
X76609Y51852D01*
X76568Y51840D01*
X76531Y51832D01*
X76498Y51823D01*
X76473Y51819D01*
X76453D01*
X76404Y51823D01*
X76363Y51832D01*
X76322Y51844D01*
X76289Y51860D01*
X76260Y51877D01*
X76236Y51889D01*
X76223Y51897D01*
X76219Y51901D01*
X76182Y51938D01*
X76150Y51987D01*
X76121Y52041D01*
X76096Y52098D01*
X76076Y52147D01*
X76064Y52188D01*
X76059Y52205D01*
X76055Y52217D01*
X76051Y52225D01*
Y52229D01*
X76039Y52283D01*
X76031Y52340D01*
X76022Y52406D01*
X76014Y52479D01*
X76002Y52631D01*
X75994Y52783D01*
X75990Y52856D01*
Y52922D01*
Y52984D01*
X75986Y53041D01*
Y53086D01*
Y53119D01*
Y53139D01*
Y53148D01*
Y53267D01*
X75990Y53377D01*
X75994Y53484D01*
X75998Y53574D01*
X76002Y53660D01*
X76010Y53738D01*
X76014Y53808D01*
X76022Y53869D01*
X76031Y53922D01*
X76035Y53972D01*
X76043Y54009D01*
X76047Y54041D01*
X76051Y54066D01*
X76055Y54082D01*
X76059Y54091D01*
Y54095D01*
X76084Y54168D01*
X76109Y54234D01*
X76137Y54283D01*
X76162Y54324D01*
X76182Y54357D01*
X76203Y54378D01*
X76215Y54390D01*
X76219Y54394D01*
X76260Y54423D01*
X76297Y54443D01*
X76338Y54460D01*
X76375Y54468D01*
X76408Y54476D01*
X76433Y54480D01*
X76453D01*
X76502Y54476D01*
D02*
G37*
G36*
X77720Y46492D02*
X76445D01*
X76543Y46496D01*
X76642Y46508D01*
X76732Y46525D01*
X76818Y46545D01*
X76896Y46574D01*
X76974Y46603D01*
X77043Y46636D01*
X77105Y46668D01*
X77162Y46697D01*
X77211Y46730D01*
X77253Y46759D01*
X77289Y46787D01*
X77318Y46808D01*
X77339Y46824D01*
X77351Y46837D01*
X77355Y46841D01*
X77421Y46910D01*
X77474Y46980D01*
X77523Y47050D01*
X77564Y47124D01*
X77601Y47193D01*
X77630Y47263D01*
X77654Y47333D01*
X77675Y47398D01*
X77691Y47460D01*
X77699Y47513D01*
X77708Y47562D01*
X77716Y47607D01*
Y47640D01*
X77720Y47669D01*
Y46492D01*
D02*
G37*
G36*
X71254D02*
X69979D01*
X70078Y46496D01*
X70176Y46508D01*
X70266Y46525D01*
X70352Y46545D01*
X70430Y46574D01*
X70508Y46603D01*
X70578Y46636D01*
X70639Y46668D01*
X70697Y46697D01*
X70746Y46730D01*
X70787Y46759D01*
X70824Y46787D01*
X70852Y46808D01*
X70873Y46824D01*
X70885Y46837D01*
X70889Y46841D01*
X70955Y46910D01*
X71008Y46980D01*
X71057Y47050D01*
X71098Y47124D01*
X71135Y47193D01*
X71164Y47263D01*
X71189Y47333D01*
X71209Y47398D01*
X71226Y47460D01*
X71234Y47513D01*
X71242Y47562D01*
X71250Y47607D01*
Y47640D01*
X71254Y47669D01*
Y46492D01*
D02*
G37*
%LPC*%
G36*
X26664Y7470D02*
Y5649D01*
X25019D01*
Y5010D01*
X25893D01*
Y4526D01*
X25823Y4477D01*
X25753Y4436D01*
X25684Y4399D01*
X25618Y4366D01*
X25561Y4337D01*
X25515Y4317D01*
X25499Y4309D01*
X25487Y4304D01*
X25479Y4300D01*
X25475D01*
X25384Y4267D01*
X25298Y4247D01*
X25220Y4231D01*
X25146Y4218D01*
X25085Y4210D01*
X25056D01*
X25036Y4206D01*
X24995D01*
X24905Y4210D01*
X24823Y4222D01*
X24745Y4239D01*
X24667Y4259D01*
X24597Y4284D01*
X24536Y4313D01*
X24474Y4341D01*
X24421Y4374D01*
X24376Y4407D01*
X24331Y4436D01*
X24298Y4464D01*
X24265Y4489D01*
X24245Y4509D01*
X24224Y4530D01*
X24216Y4538D01*
X24212Y4542D01*
X24158Y4608D01*
X24113Y4682D01*
X24072Y4760D01*
X24039Y4842D01*
X24011Y4928D01*
X23986Y5010D01*
X23966Y5096D01*
X23949Y5174D01*
X23937Y5252D01*
X23929Y5325D01*
X23921Y5387D01*
X23916Y5444D01*
Y5489D01*
X23912Y5526D01*
Y5547D01*
Y5555D01*
X23916Y5670D01*
X23925Y5776D01*
X23941Y5875D01*
X23957Y5965D01*
X23982Y6051D01*
X24007Y6129D01*
X24031Y6199D01*
X24060Y6260D01*
X24089Y6318D01*
X24113Y6363D01*
X24138Y6404D01*
X24162Y6436D01*
X24179Y6465D01*
X24195Y6481D01*
X24204Y6494D01*
X24208Y6498D01*
X24265Y6555D01*
X24327Y6605D01*
X24392Y6645D01*
X24458Y6682D01*
X24523Y6715D01*
X24589Y6740D01*
X24655Y6760D01*
X24716Y6777D01*
X24773Y6789D01*
X24831Y6801D01*
X24880Y6809D01*
X24921Y6814D01*
X24954Y6818D01*
X25003D01*
X25122Y6809D01*
X25229Y6793D01*
X25323Y6764D01*
X25401Y6736D01*
X25433Y6719D01*
X25466Y6707D01*
X25491Y6691D01*
X25511Y6678D01*
X25532Y6670D01*
X25544Y6662D01*
X25548Y6654D01*
X25552D01*
X25630Y6588D01*
X25692Y6518D01*
X25745Y6445D01*
X25786Y6375D01*
X25819Y6313D01*
X25831Y6285D01*
X25839Y6260D01*
X25848Y6244D01*
X25852Y6227D01*
X25856Y6219D01*
Y6215D01*
X26614Y6358D01*
X26590Y6453D01*
X26561Y6543D01*
X26524Y6629D01*
X26487Y6707D01*
X26446Y6777D01*
X26401Y6846D01*
X26360Y6908D01*
X26315Y6961D01*
X26274Y7010D01*
X26233Y7056D01*
X26196Y7088D01*
X26167Y7121D01*
X26139Y7146D01*
X26118Y7162D01*
X26106Y7170D01*
X26102Y7174D01*
X26024Y7228D01*
X25942Y7273D01*
X25856Y7310D01*
X25766Y7347D01*
X25671Y7375D01*
X25581Y7396D01*
X25491Y7416D01*
X25405Y7433D01*
X25323Y7445D01*
X25249Y7453D01*
X25179Y7461D01*
X25118Y7465D01*
X25073Y7470D01*
X24905D01*
D01*
D01*
D01*
X23125D01*
X24905D01*
X24810Y7461D01*
X24720Y7453D01*
X24634Y7441D01*
X24552Y7424D01*
X24478Y7408D01*
X24408Y7392D01*
X24347Y7375D01*
X24290Y7359D01*
X24240Y7343D01*
X24199Y7326D01*
X24162Y7310D01*
X24134Y7297D01*
X24113Y7289D01*
X24101Y7285D01*
X24097Y7281D01*
X24011Y7232D01*
X23929Y7179D01*
X23851Y7125D01*
X23781Y7068D01*
X23716Y7006D01*
X23658Y6949D01*
X23601Y6892D01*
X23556Y6834D01*
X23511Y6781D01*
X23474Y6732D01*
X23445Y6686D01*
X23416Y6650D01*
X23396Y6617D01*
X23383Y6592D01*
X23375Y6576D01*
X23371Y6572D01*
X23326Y6486D01*
X23289Y6395D01*
X23256Y6305D01*
X23228Y6215D01*
X23207Y6125D01*
X23187Y6039D01*
X23170Y5953D01*
X23158Y5875D01*
X23146Y5801D01*
X23137Y5735D01*
X23133Y5674D01*
X23129Y5621D01*
X23125Y5579D01*
Y5522D01*
X23129Y5420D01*
X23133Y5321D01*
X23146Y5227D01*
X23158Y5133D01*
X23178Y5046D01*
X23195Y4964D01*
X23215Y4887D01*
X23236Y4813D01*
X23256Y4747D01*
X23277Y4690D01*
X23297Y4637D01*
X23314Y4595D01*
X23326Y4559D01*
X23338Y4534D01*
X23343Y4518D01*
X23347Y4513D01*
X23392Y4427D01*
X23437Y4349D01*
X23490Y4276D01*
X23543Y4206D01*
X23597Y4144D01*
X23654Y4083D01*
X23707Y4030D01*
X23761Y3985D01*
X23810Y3940D01*
X23855Y3903D01*
X23900Y3874D01*
X23933Y3845D01*
X23966Y3825D01*
X23986Y3812D01*
X24003Y3804D01*
X24007Y3800D01*
X24093Y3755D01*
X24179Y3718D01*
X24265Y3685D01*
X24355Y3657D01*
X24445Y3636D01*
X24532Y3616D01*
X24613Y3599D01*
X24691Y3587D01*
X24765Y3575D01*
X24831Y3566D01*
X24892Y3562D01*
X24946Y3558D01*
X24987Y3554D01*
X23125D01*
X26664D01*
D01*
X25044D01*
X25130Y3558D01*
X25216Y3562D01*
X25384Y3583D01*
X25466Y3595D01*
X25540Y3611D01*
X25614Y3628D01*
X25679Y3644D01*
X25741Y3661D01*
X25798Y3673D01*
X25848Y3689D01*
X25889Y3702D01*
X25921Y3714D01*
X25946Y3722D01*
X25962Y3730D01*
X25967D01*
X26048Y3763D01*
X26126Y3800D01*
X26200Y3833D01*
X26266Y3870D01*
X26331Y3903D01*
X26389Y3935D01*
X26438Y3968D01*
X26487Y4001D01*
X26528Y4030D01*
X26565Y4054D01*
X26594Y4079D01*
X26618Y4099D01*
X26639Y4116D01*
X26651Y4128D01*
X26659Y4132D01*
X26664Y4136D01*
Y7470D01*
D02*
G37*
G36*
X32658Y7408D02*
X31186D01*
Y3624D01*
X34355D01*
D01*
X32699D01*
X32772Y3628D01*
X32842Y3632D01*
X32904Y3636D01*
X32965Y3640D01*
X33023Y3648D01*
X33072Y3657D01*
X33117Y3665D01*
X33158Y3669D01*
X33195Y3677D01*
X33228Y3685D01*
X33252Y3689D01*
X33273Y3694D01*
X33285Y3698D01*
X33293Y3702D01*
X33297D01*
X33416Y3747D01*
X33523Y3796D01*
X33613Y3845D01*
X33691Y3894D01*
X33724Y3915D01*
X33752Y3935D01*
X33773Y3956D01*
X33793Y3972D01*
X33810Y3985D01*
X33822Y3997D01*
X33826Y4001D01*
X33830Y4005D01*
X33925Y4108D01*
X34007Y4218D01*
X34076Y4329D01*
X34134Y4436D01*
X34158Y4485D01*
X34179Y4530D01*
X34195Y4571D01*
X34212Y4604D01*
X34220Y4632D01*
X34228Y4657D01*
X34236Y4669D01*
Y4673D01*
X34277Y4805D01*
X34306Y4940D01*
X34326Y5075D01*
X34339Y5202D01*
X34347Y5260D01*
X34351Y5313D01*
Y5358D01*
X34355Y5399D01*
Y5579D01*
Y5575D01*
X34351Y5670D01*
X34343Y5756D01*
X34335Y5842D01*
X34326Y5920D01*
X34314Y5994D01*
X34302Y6063D01*
X34294Y6125D01*
X34281Y6178D01*
X34269Y6227D01*
X34257Y6272D01*
X34249Y6305D01*
X34240Y6334D01*
X34232Y6354D01*
X34228Y6367D01*
Y6371D01*
X34179Y6502D01*
X34121Y6621D01*
X34060Y6728D01*
X34031Y6773D01*
X34003Y6814D01*
X33974Y6855D01*
X33949Y6887D01*
X33925Y6916D01*
X33908Y6941D01*
X33892Y6961D01*
X33880Y6973D01*
X33871Y6982D01*
X33867Y6986D01*
X33773Y7072D01*
X33679Y7146D01*
X33584Y7207D01*
X33494Y7252D01*
X33416Y7289D01*
X33383Y7306D01*
X33355Y7314D01*
X33330Y7322D01*
X33314Y7330D01*
X33301Y7334D01*
X33297D01*
X33248Y7347D01*
X33195Y7359D01*
X33080Y7375D01*
X32961Y7392D01*
X32846Y7400D01*
X32793Y7404D01*
X32699D01*
X32658Y7408D01*
D02*
G37*
G36*
X30378D02*
X27377D01*
Y3624D01*
X28082D01*
Y6108D01*
X29616Y3624D01*
X30378D01*
Y7408D01*
D02*
G37*
%LPD*%
G36*
X32518Y6764D02*
X32584D01*
X32641Y6760D01*
X32695Y6756D01*
X32740Y6752D01*
X32777D01*
X32814Y6748D01*
X32842Y6744D01*
X32867Y6740D01*
X32883Y6736D01*
X32900D01*
X32908Y6732D01*
X32916D01*
X32994Y6711D01*
X33064Y6682D01*
X33125Y6654D01*
X33174Y6625D01*
X33215Y6596D01*
X33248Y6572D01*
X33264Y6555D01*
X33273Y6551D01*
X33322Y6498D01*
X33367Y6441D01*
X33404Y6379D01*
X33433Y6322D01*
X33457Y6268D01*
X33478Y6223D01*
X33482Y6211D01*
X33486Y6199D01*
X33490Y6190D01*
Y6186D01*
X33502Y6141D01*
X33515Y6092D01*
X33535Y5981D01*
X33547Y5871D01*
X33560Y5764D01*
Y5711D01*
X33564Y5666D01*
Y5625D01*
X33568Y5588D01*
Y5555D01*
Y5534D01*
Y5518D01*
Y5514D01*
Y5436D01*
X33564Y5358D01*
X33560Y5288D01*
X33556Y5219D01*
X33551Y5157D01*
X33543Y5104D01*
X33535Y5051D01*
X33531Y5001D01*
X33523Y4960D01*
X33515Y4924D01*
X33506Y4895D01*
X33502Y4866D01*
X33498Y4846D01*
X33494Y4833D01*
X33490Y4825D01*
Y4821D01*
X33457Y4731D01*
X33424Y4657D01*
X33392Y4595D01*
X33359Y4542D01*
X33334Y4505D01*
X33310Y4477D01*
X33293Y4460D01*
X33289Y4456D01*
X33240Y4419D01*
X33191Y4386D01*
X33137Y4358D01*
X33088Y4333D01*
X33047Y4317D01*
X33014Y4304D01*
X32990Y4300D01*
X32986Y4296D01*
X32982D01*
X32953Y4292D01*
X32920Y4284D01*
X32850Y4276D01*
X32772Y4272D01*
X32695Y4267D01*
X32629Y4263D01*
X31948D01*
Y6769D01*
X32449D01*
X32518Y6764D01*
D02*
G37*
G36*
X29673Y4866D02*
X28115Y7408D01*
X29673D01*
Y4866D01*
D02*
G37*
%LPC*%
G36*
X6303Y39294D02*
Y36149D01*
X4188D01*
Y37178D01*
X6086D01*
Y37818D01*
X4188D01*
Y38654D01*
X6230D01*
Y39294D01*
X6303D01*
X3425D01*
Y35509D01*
X6303D01*
Y39294D01*
D02*
G37*
G36*
X9961D02*
X6959D01*
Y35509D01*
X7665D01*
Y37994D01*
X9198Y35509D01*
X9961D01*
Y39294D01*
D02*
G37*
%LPD*%
G36*
X9255Y36752D02*
X7697Y39294D01*
X9255D01*
Y36752D01*
D02*
G37*
%LPC*%
G36*
X33328Y72758D02*
X30327D01*
Y68974D01*
X31032D01*
Y71459D01*
X32566Y68974D01*
X33328D01*
Y72758D01*
D02*
G37*
G36*
X29589D02*
X28826D01*
Y68974D01*
X29589D01*
Y72758D01*
D02*
G37*
G36*
X28462D02*
X24940D01*
Y68974D01*
D01*
Y72758D01*
X26289Y68974D01*
X24940D01*
X27108D01*
X28462Y72758D01*
D01*
D02*
G37*
%LPD*%
G36*
X32623Y70216D02*
X31065Y72758D01*
X32623D01*
Y70216D01*
D02*
G37*
G36*
X26723Y69958D02*
X25764Y72758D01*
X27650D01*
X26723Y69958D01*
D02*
G37*
%LPC*%
G36*
X89555Y44718D02*
X89538D01*
X89527Y44715D01*
X89497Y44710D01*
X89459Y44699D01*
X89413Y44677D01*
X89388Y44666D01*
X89363Y44649D01*
X89339Y44630D01*
X89314Y44609D01*
X89290Y44584D01*
X89265Y44554D01*
Y44551D01*
X89260Y44546D01*
X89254Y44537D01*
X89246Y44524D01*
X89235Y44508D01*
X89224Y44488D01*
X89213Y44464D01*
X89202Y44439D01*
X89192Y44409D01*
X89181Y44377D01*
X89170Y44341D01*
X89159Y44303D01*
X89151Y44259D01*
X89145Y44215D01*
X89142Y44169D01*
X89140Y44120D01*
Y44117D01*
Y44109D01*
Y44095D01*
X89142Y44079D01*
Y44060D01*
X89145Y44035D01*
X89156Y43981D01*
X89170Y43918D01*
X89192Y43855D01*
X89222Y43789D01*
X89238Y43760D01*
X89260Y43732D01*
X89262Y43729D01*
X89265Y43727D01*
X89282Y43710D01*
X89306Y43686D01*
X89342Y43661D01*
X89383Y43634D01*
X89432Y43609D01*
X89489Y43593D01*
X89519Y43590D01*
X89549Y43587D01*
X89565D01*
X89576Y43590D01*
X89609Y43596D01*
X89647Y43607D01*
X89691Y43623D01*
X89740Y43648D01*
X89762Y43664D01*
X89787Y43686D01*
X89811Y43708D01*
X89833Y43732D01*
X89836Y43735D01*
X89838Y43740D01*
X89844Y43749D01*
X89852Y43760D01*
X89860Y43773D01*
X89871Y43792D01*
X89882Y43814D01*
X89893Y43839D01*
X89904Y43866D01*
X89912Y43896D01*
X89923Y43931D01*
X89931Y43967D01*
X89939Y44008D01*
X89945Y44049D01*
X89950Y44095D01*
Y44144D01*
Y44147D01*
Y44155D01*
Y44169D01*
X89948Y44188D01*
Y44210D01*
X89945Y44237D01*
X89939Y44267D01*
X89937Y44297D01*
X89920Y44366D01*
X89899Y44434D01*
X89871Y44502D01*
X89852Y44535D01*
X89830Y44565D01*
Y44568D01*
X89825Y44570D01*
X89808Y44589D01*
X89784Y44614D01*
X89751Y44641D01*
X89710Y44669D01*
X89664Y44693D01*
X89612Y44712D01*
X89585Y44715D01*
X89555Y44718D01*
D02*
G37*
G36*
X87848Y44685D02*
X87207D01*
Y43863D01*
X87815D01*
X87832Y43866D01*
X87851D01*
X87892Y43869D01*
X87938Y43874D01*
X87985Y43882D01*
X88031Y43893D01*
X88072Y43907D01*
X88078Y43910D01*
X88089Y43915D01*
X88108Y43926D01*
X88130Y43942D01*
X88154Y43962D01*
X88179Y43989D01*
X88206Y44016D01*
X88228Y44052D01*
X88231Y44057D01*
X88236Y44068D01*
X88247Y44090D01*
X88258Y44117D01*
X88269Y44150D01*
X88280Y44191D01*
X88285Y44234D01*
X88288Y44281D01*
Y44284D01*
Y44289D01*
Y44300D01*
X88285Y44311D01*
Y44327D01*
X88282Y44346D01*
X88274Y44387D01*
X88261Y44436D01*
X88241Y44486D01*
X88214Y44532D01*
X88176Y44576D01*
X88170Y44581D01*
X88157Y44592D01*
X88130Y44611D01*
X88094Y44630D01*
X88048Y44649D01*
X87993Y44669D01*
X87925Y44679D01*
X87848Y44685D01*
D02*
G37*
G36*
X44655Y54066D02*
X44652D01*
X44646D01*
X44638D01*
X44625Y54064D01*
X44594Y54061D01*
X44554Y54053D01*
X44510Y54042D01*
X44463Y54023D01*
X44414Y53998D01*
X44371Y53965D01*
X44365Y53960D01*
X44354Y53946D01*
X44335Y53927D01*
X44313Y53897D01*
X44294Y53864D01*
X44275Y53823D01*
X44264Y53777D01*
X44259Y53728D01*
Y53722D01*
X44261Y53706D01*
X44264Y53679D01*
X44272Y53649D01*
X44286Y53610D01*
X44305Y53572D01*
X44332Y53531D01*
X44368Y53493D01*
X44373Y53487D01*
X44387Y53477D01*
X44412Y53463D01*
X44442Y53444D01*
X44482Y53425D01*
X44529Y53411D01*
X44581Y53400D01*
X44638Y53395D01*
X44641D01*
X44646D01*
X44655D01*
X44668Y53398D01*
X44684D01*
X44701Y53400D01*
X44742Y53406D01*
X44791Y53419D01*
X44837Y53436D01*
X44887Y53457D01*
X44930Y53490D01*
X44936Y53496D01*
X44947Y53507D01*
X44963Y53528D01*
X44982Y53558D01*
X45004Y53591D01*
X45020Y53632D01*
X45031Y53679D01*
X45037Y53730D01*
Y53744D01*
X45034Y53755D01*
X45031Y53780D01*
X45023Y53812D01*
X45009Y53851D01*
X44993Y53889D01*
X44966Y53930D01*
X44930Y53968D01*
X44925Y53974D01*
X44911Y53984D01*
X44887Y53998D01*
X44857Y54017D01*
X44816Y54036D01*
X44769Y54050D01*
X44715Y54061D01*
X44655Y54066D01*
D02*
G37*
G36*
X45837Y54148D02*
X45796D01*
X45793D01*
X45785D01*
X45774D01*
X45757Y54145D01*
X45738D01*
X45717Y54143D01*
X45665Y54132D01*
X45607Y54118D01*
X45544Y54096D01*
X45484Y54064D01*
X45457Y54045D01*
X45430Y54023D01*
X45427Y54020D01*
X45424Y54017D01*
X45408Y54001D01*
X45386Y53974D01*
X45359Y53938D01*
X45331Y53894D01*
X45310Y53845D01*
X45293Y53788D01*
X45291Y53758D01*
X45288Y53725D01*
Y53709D01*
X45291Y53698D01*
X45296Y53665D01*
X45304Y53624D01*
X45321Y53578D01*
X45345Y53528D01*
X45362Y53504D01*
X45381Y53479D01*
X45403Y53455D01*
X45427Y53433D01*
X45430D01*
X45433Y53427D01*
X45441Y53422D01*
X45452Y53414D01*
X45465Y53406D01*
X45482Y53395D01*
X45501Y53384D01*
X45525Y53373D01*
X45577Y53351D01*
X45637Y53332D01*
X45708Y53318D01*
X45746Y53316D01*
X45788Y53313D01*
X45790D01*
X45798D01*
X45809D01*
X45826Y53316D01*
X45845D01*
X45867Y53318D01*
X45919Y53329D01*
X45976Y53343D01*
X46039Y53365D01*
X46099Y53395D01*
X46126Y53414D01*
X46153Y53436D01*
X46156Y53438D01*
X46159Y53441D01*
X46175Y53457D01*
X46197Y53485D01*
X46222Y53518D01*
X46249Y53561D01*
X46271Y53613D01*
X46287Y53668D01*
X46290Y53698D01*
X46292Y53730D01*
Y53747D01*
X46290Y53761D01*
X46287Y53774D01*
X46284Y53793D01*
X46276Y53834D01*
X46260Y53881D01*
X46235Y53930D01*
X46222Y53954D01*
X46202Y53979D01*
X46183Y54004D01*
X46159Y54025D01*
X46156Y54028D01*
X46153Y54031D01*
X46145Y54036D01*
X46134Y54045D01*
X46121Y54053D01*
X46104Y54064D01*
X46085Y54075D01*
X46063Y54088D01*
X46011Y54110D01*
X45948Y54129D01*
X45878Y54143D01*
X45837Y54148D01*
D02*
G37*
G36*
X44695Y52461D02*
X44693D01*
X44687D01*
X44676D01*
X44665Y52458D01*
X44649D01*
X44630Y52456D01*
X44589Y52447D01*
X44540Y52434D01*
X44491Y52415D01*
X44444Y52387D01*
X44401Y52349D01*
X44395Y52344D01*
X44384Y52330D01*
X44365Y52303D01*
X44346Y52267D01*
X44327Y52221D01*
X44308Y52166D01*
X44297Y52098D01*
X44291Y52021D01*
Y51380D01*
X45113D01*
Y51989D01*
X45110Y52005D01*
Y52024D01*
X45108Y52065D01*
X45102Y52112D01*
X45094Y52158D01*
X45083Y52204D01*
X45070Y52245D01*
X45067Y52251D01*
X45061Y52262D01*
X45050Y52281D01*
X45034Y52303D01*
X45015Y52327D01*
X44988Y52352D01*
X44960Y52379D01*
X44925Y52401D01*
X44919Y52404D01*
X44908Y52409D01*
X44887Y52420D01*
X44859Y52431D01*
X44826Y52442D01*
X44786Y52453D01*
X44742Y52458D01*
X44695Y52461D01*
D02*
G37*
G36*
X39594Y52465D02*
X39591D01*
X39586D01*
X39575D01*
X39564Y52462D01*
X39547D01*
X39528Y52460D01*
X39487Y52451D01*
X39438Y52438D01*
X39389Y52419D01*
X39343Y52391D01*
X39299Y52353D01*
X39293Y52348D01*
X39283Y52334D01*
X39263Y52307D01*
X39244Y52271D01*
X39225Y52225D01*
X39206Y52170D01*
X39195Y52102D01*
X39190Y52026D01*
Y51384D01*
X40011D01*
Y51993D01*
X40009Y52009D01*
Y52028D01*
X40006Y52069D01*
X40001Y52116D01*
X39992Y52162D01*
X39981Y52209D01*
X39968Y52249D01*
X39965Y52255D01*
X39960Y52266D01*
X39949Y52285D01*
X39932Y52307D01*
X39913Y52331D01*
X39886Y52356D01*
X39858Y52383D01*
X39823Y52405D01*
X39818Y52408D01*
X39807Y52413D01*
X39785Y52424D01*
X39757Y52435D01*
X39725Y52446D01*
X39684Y52457D01*
X39640Y52462D01*
X39594Y52465D01*
D02*
G37*
G36*
X81700Y38699D02*
X81684D01*
X81673Y38696D01*
X81643Y38691D01*
X81605Y38680D01*
X81558Y38663D01*
X81512Y38636D01*
X81487Y38620D01*
X81463Y38600D01*
X81438Y38579D01*
X81416Y38551D01*
Y38549D01*
X81411Y38546D01*
X81405Y38538D01*
X81397Y38524D01*
X81389Y38510D01*
X81378Y38494D01*
X81367Y38472D01*
X81356Y38448D01*
X81345Y38423D01*
X81335Y38393D01*
X81323Y38360D01*
X81315Y38325D01*
X81302Y38248D01*
X81299Y38205D01*
X81296Y38161D01*
Y38158D01*
Y38150D01*
Y38134D01*
X81299Y38117D01*
Y38093D01*
X81302Y38068D01*
X81307Y38038D01*
X81313Y38005D01*
X81326Y37937D01*
X81348Y37863D01*
X81381Y37792D01*
X81400Y37760D01*
X81422Y37727D01*
X81424Y37724D01*
X81427Y37719D01*
X81436Y37713D01*
X81444Y37702D01*
X81471Y37675D01*
X81506Y37648D01*
X81550Y37618D01*
X81599Y37590D01*
X81627Y37579D01*
X81657Y37574D01*
X81687Y37569D01*
X81717Y37566D01*
X81730D01*
X81741Y37569D01*
X81769Y37574D01*
X81804Y37585D01*
X81845Y37604D01*
X81891Y37631D01*
X81913Y37648D01*
X81938Y37670D01*
X81960Y37691D01*
X81981Y37719D01*
X81984Y37721D01*
X81987Y37727D01*
X81992Y37735D01*
X82001Y37746D01*
X82009Y37762D01*
X82020Y37781D01*
X82031Y37803D01*
X82042Y37828D01*
X82052Y37858D01*
X82061Y37888D01*
X82072Y37923D01*
X82080Y37962D01*
X82088Y38003D01*
X82093Y38046D01*
X82099Y38093D01*
Y38142D01*
Y38144D01*
Y38153D01*
Y38166D01*
X82096Y38186D01*
Y38207D01*
X82093Y38235D01*
X82088Y38262D01*
X82085Y38292D01*
X82072Y38357D01*
X82050Y38426D01*
X82020Y38491D01*
X82003Y38524D01*
X81981Y38551D01*
Y38554D01*
X81976Y38557D01*
X81962Y38573D01*
X81938Y38598D01*
X81902Y38625D01*
X81861Y38652D01*
X81815Y38677D01*
X81760Y38693D01*
X81730Y38696D01*
X81700Y38699D01*
D02*
G37*
G36*
X79980Y39567D02*
X79339D01*
Y38745D01*
X79948D01*
X79964Y38748D01*
X79983D01*
X80024Y38751D01*
X80071Y38756D01*
X80117Y38764D01*
X80163Y38775D01*
X80204Y38789D01*
X80210Y38791D01*
X80221Y38797D01*
X80240Y38808D01*
X80262Y38824D01*
X80286Y38843D01*
X80311Y38871D01*
X80338Y38898D01*
X80360Y38934D01*
X80363Y38939D01*
X80368Y38950D01*
X80379Y38972D01*
X80390Y38999D01*
X80401Y39032D01*
X80412Y39073D01*
X80417Y39116D01*
X80420Y39163D01*
Y39166D01*
Y39171D01*
Y39182D01*
X80417Y39193D01*
Y39209D01*
X80414Y39228D01*
X80406Y39269D01*
X80393Y39318D01*
X80374Y39368D01*
X80346Y39414D01*
X80308Y39458D01*
X80303Y39463D01*
X80289Y39474D01*
X80262Y39493D01*
X80226Y39512D01*
X80180Y39531D01*
X80125Y39551D01*
X80057Y39561D01*
X79980Y39567D01*
D02*
G37*
G36*
X55561Y43902D02*
X54920D01*
Y43080D01*
X55529D01*
X55545Y43083D01*
X55564D01*
X55605Y43085D01*
X55651Y43091D01*
X55698Y43099D01*
X55744Y43110D01*
X55785Y43124D01*
X55791Y43126D01*
X55802Y43132D01*
X55821Y43143D01*
X55843Y43159D01*
X55867Y43178D01*
X55892Y43205D01*
X55919Y43233D01*
X55941Y43268D01*
X55944Y43274D01*
X55949Y43285D01*
X55960Y43306D01*
X55971Y43334D01*
X55982Y43367D01*
X55993Y43407D01*
X55998Y43451D01*
X56001Y43498D01*
Y43500D01*
Y43506D01*
Y43517D01*
X55998Y43528D01*
Y43544D01*
X55995Y43563D01*
X55987Y43604D01*
X55974Y43653D01*
X55954Y43702D01*
X55927Y43749D01*
X55889Y43793D01*
X55884Y43798D01*
X55870Y43809D01*
X55843Y43828D01*
X55807Y43847D01*
X55761Y43866D01*
X55706Y43885D01*
X55638Y43896D01*
X55561Y43902D01*
D02*
G37*
G36*
X81824Y44453D02*
X81183Y43334D01*
X81824D01*
Y44453D01*
D02*
G37*
G36*
X79984Y44669D02*
X79343D01*
Y43847D01*
X79952D01*
X79968Y43850D01*
X79987D01*
X80028Y43852D01*
X80075Y43858D01*
X80121Y43866D01*
X80167Y43877D01*
X80208Y43891D01*
X80214Y43893D01*
X80225Y43899D01*
X80244Y43910D01*
X80266Y43926D01*
X80290Y43945D01*
X80315Y43972D01*
X80342Y44000D01*
X80364Y44035D01*
X80367Y44041D01*
X80372Y44052D01*
X80383Y44074D01*
X80394Y44101D01*
X80405Y44133D01*
X80416Y44175D01*
X80421Y44218D01*
X80424Y44265D01*
Y44267D01*
Y44273D01*
Y44284D01*
X80421Y44295D01*
Y44311D01*
X80418Y44330D01*
X80410Y44371D01*
X80397Y44420D01*
X80378Y44469D01*
X80350Y44516D01*
X80312Y44559D01*
X80307Y44565D01*
X80293Y44576D01*
X80266Y44595D01*
X80230Y44614D01*
X80184Y44633D01*
X80129Y44652D01*
X80061Y44663D01*
X79984Y44669D01*
D02*
G37*
G36*
X80598Y35199D02*
X80128D01*
Y33296D01*
X80584D01*
X80603Y33299D01*
X80625D01*
X80650Y33302D01*
X80677Y33305D01*
X80707Y33307D01*
X80773Y33318D01*
X80838Y33332D01*
X80901Y33354D01*
X80931Y33367D01*
X80958Y33381D01*
X80961D01*
X80964Y33387D01*
X80980Y33397D01*
X81005Y33419D01*
X81035Y33447D01*
X81070Y33485D01*
X81103Y33534D01*
X81136Y33591D01*
X81166Y33657D01*
Y33660D01*
X81171Y33668D01*
X81174Y33681D01*
X81182Y33703D01*
X81188Y33728D01*
X81196Y33755D01*
X81207Y33791D01*
X81215Y33829D01*
X81223Y33870D01*
X81234Y33916D01*
X81242Y33965D01*
X81248Y34020D01*
X81256Y34077D01*
X81259Y34135D01*
X81264Y34197D01*
Y34263D01*
Y34268D01*
Y34279D01*
Y34298D01*
X81261Y34326D01*
Y34358D01*
X81259Y34394D01*
X81256Y34435D01*
X81250Y34479D01*
X81239Y34574D01*
X81220Y34675D01*
X81196Y34771D01*
X81179Y34817D01*
X81160Y34858D01*
Y34861D01*
X81155Y34869D01*
X81149Y34880D01*
X81141Y34894D01*
X81130Y34910D01*
X81119Y34932D01*
X81089Y34975D01*
X81051Y35025D01*
X81007Y35074D01*
X80955Y35115D01*
X80928Y35134D01*
X80898Y35147D01*
X80893Y35150D01*
X80876Y35156D01*
X80852Y35164D01*
X80835Y35169D01*
X80814Y35175D01*
X80792Y35177D01*
X80767Y35183D01*
X80737Y35188D01*
X80707Y35191D01*
X80674Y35194D01*
X80636Y35197D01*
X80598Y35199D01*
D02*
G37*
G36*
X52178Y43016D02*
X52175D01*
X52170D01*
X52159D01*
X52148Y43014D01*
X52131D01*
X52112Y43011D01*
X52071Y43003D01*
X52022Y42989D01*
X51973Y42970D01*
X51927Y42943D01*
X51883Y42904D01*
X51877Y42899D01*
X51867Y42885D01*
X51847Y42858D01*
X51828Y42823D01*
X51809Y42776D01*
X51790Y42722D01*
X51779Y42653D01*
X51774Y42577D01*
Y41935D01*
X52596D01*
Y42544D01*
X52593Y42560D01*
Y42580D01*
X52590Y42621D01*
X52584Y42667D01*
X52576Y42713D01*
X52565Y42760D01*
X52552Y42801D01*
X52549Y42806D01*
X52544Y42817D01*
X52533Y42836D01*
X52516Y42858D01*
X52497Y42883D01*
X52470Y42907D01*
X52443Y42935D01*
X52407Y42956D01*
X52402Y42959D01*
X52391Y42965D01*
X52369Y42975D01*
X52342Y42986D01*
X52309Y42997D01*
X52268Y43008D01*
X52224Y43014D01*
X52178Y43016D01*
D02*
G37*
G36*
X55578Y47420D02*
X54936D01*
Y46599D01*
X55545D01*
X55561Y46601D01*
X55581D01*
X55621Y46604D01*
X55668Y46610D01*
X55714Y46618D01*
X55761Y46629D01*
X55802Y46642D01*
X55807Y46645D01*
X55818Y46650D01*
X55837Y46661D01*
X55859Y46678D01*
X55884Y46697D01*
X55908Y46724D01*
X55935Y46751D01*
X55957Y46787D01*
X55960Y46793D01*
X55965Y46803D01*
X55976Y46825D01*
X55987Y46853D01*
X55998Y46885D01*
X56009Y46926D01*
X56015Y46970D01*
X56017Y47016D01*
Y47019D01*
Y47025D01*
Y47036D01*
X56015Y47046D01*
Y47063D01*
X56012Y47082D01*
X56004Y47123D01*
X55990Y47172D01*
X55971Y47221D01*
X55944Y47267D01*
X55905Y47311D01*
X55900Y47317D01*
X55886Y47328D01*
X55859Y47347D01*
X55823Y47366D01*
X55777Y47385D01*
X55722Y47404D01*
X55654Y47415D01*
X55578Y47420D01*
D02*
G37*
G36*
X71503Y18996D02*
X71487D01*
X71476Y18993D01*
X71446Y18988D01*
X71408Y18977D01*
X71361Y18960D01*
X71315Y18933D01*
X71290Y18917D01*
X71266Y18898D01*
X71241Y18876D01*
X71219Y18848D01*
Y18846D01*
X71214Y18843D01*
X71208Y18835D01*
X71200Y18821D01*
X71192Y18808D01*
X71181Y18791D01*
X71170Y18769D01*
X71159Y18745D01*
X71148Y18720D01*
X71137Y18690D01*
X71126Y18657D01*
X71118Y18622D01*
X71104Y18545D01*
X71102Y18502D01*
X71099Y18458D01*
Y18455D01*
Y18447D01*
Y18431D01*
X71102Y18414D01*
Y18390D01*
X71104Y18365D01*
X71110Y18335D01*
X71115Y18303D01*
X71129Y18234D01*
X71151Y18160D01*
X71184Y18090D01*
X71203Y18057D01*
X71225Y18024D01*
X71227Y18021D01*
X71230Y18016D01*
X71238Y18010D01*
X71246Y18000D01*
X71274Y17972D01*
X71309Y17945D01*
X71353Y17915D01*
X71402Y17887D01*
X71429Y17877D01*
X71459Y17871D01*
X71489Y17866D01*
X71519Y17863D01*
X71533D01*
X71544Y17866D01*
X71571Y17871D01*
X71607Y17882D01*
X71648Y17901D01*
X71694Y17929D01*
X71716Y17945D01*
X71741Y17967D01*
X71762Y17989D01*
X71784Y18016D01*
X71787Y18019D01*
X71790Y18024D01*
X71795Y18032D01*
X71803Y18043D01*
X71811Y18059D01*
X71822Y18079D01*
X71833Y18101D01*
X71844Y18125D01*
X71855Y18155D01*
X71863Y18185D01*
X71874Y18221D01*
X71882Y18259D01*
X71891Y18300D01*
X71896Y18343D01*
X71902Y18390D01*
Y18439D01*
Y18442D01*
Y18450D01*
Y18464D01*
X71899Y18483D01*
Y18505D01*
X71896Y18532D01*
X71891Y18559D01*
X71888Y18589D01*
X71874Y18655D01*
X71852Y18723D01*
X71822Y18788D01*
X71806Y18821D01*
X71784Y18848D01*
Y18851D01*
X71779Y18854D01*
X71765Y18870D01*
X71741Y18895D01*
X71705Y18922D01*
X71664Y18949D01*
X71618Y18974D01*
X71563Y18991D01*
X71533Y18993D01*
X71503Y18996D01*
D02*
G37*
G36*
X25647Y42696D02*
X25006D01*
Y41874D01*
X25615D01*
X25631Y41877D01*
X25650D01*
X25691Y41880D01*
X25738Y41885D01*
X25784Y41893D01*
X25830Y41904D01*
X25871Y41918D01*
X25877Y41921D01*
X25888Y41926D01*
X25907Y41937D01*
X25929Y41953D01*
X25953Y41973D01*
X25978Y42000D01*
X26005Y42027D01*
X26027Y42063D01*
X26030Y42068D01*
X26035Y42079D01*
X26046Y42101D01*
X26057Y42128D01*
X26068Y42161D01*
X26079Y42202D01*
X26084Y42246D01*
X26087Y42292D01*
Y42295D01*
Y42300D01*
Y42311D01*
X26084Y42322D01*
Y42338D01*
X26081Y42358D01*
X26073Y42398D01*
X26060Y42448D01*
X26041Y42497D01*
X26013Y42543D01*
X25975Y42587D01*
X25969Y42592D01*
X25956Y42603D01*
X25929Y42622D01*
X25893Y42641D01*
X25847Y42660D01*
X25792Y42680D01*
X25724Y42691D01*
X25647Y42696D01*
D02*
G37*
G36*
X34331Y38349D02*
X33861D01*
Y36446D01*
X34317D01*
X34336Y36449D01*
X34358D01*
X34383Y36452D01*
X34410Y36454D01*
X34440Y36457D01*
X34506Y36468D01*
X34571Y36482D01*
X34634Y36503D01*
X34664Y36517D01*
X34691Y36531D01*
X34694D01*
X34697Y36536D01*
X34713Y36547D01*
X34738Y36569D01*
X34768Y36596D01*
X34803Y36634D01*
X34836Y36684D01*
X34869Y36741D01*
X34899Y36806D01*
Y36809D01*
X34904Y36817D01*
X34907Y36831D01*
X34915Y36853D01*
X34921Y36877D01*
X34929Y36905D01*
X34940Y36940D01*
X34948Y36978D01*
X34956Y37019D01*
X34967Y37066D01*
X34975Y37115D01*
X34981Y37170D01*
X34989Y37227D01*
X34992Y37284D01*
X34997Y37347D01*
Y37413D01*
Y37418D01*
Y37429D01*
Y37448D01*
X34994Y37475D01*
Y37508D01*
X34992Y37543D01*
X34989Y37584D01*
X34983Y37628D01*
X34973Y37724D01*
X34953Y37825D01*
X34929Y37920D01*
X34912Y37967D01*
X34893Y38008D01*
Y38010D01*
X34888Y38019D01*
X34882Y38030D01*
X34874Y38043D01*
X34863Y38059D01*
X34852Y38081D01*
X34822Y38125D01*
X34784Y38174D01*
X34740Y38223D01*
X34689Y38264D01*
X34661Y38283D01*
X34631Y38297D01*
X34626Y38300D01*
X34609Y38305D01*
X34585Y38313D01*
X34569Y38319D01*
X34547Y38324D01*
X34525Y38327D01*
X34500Y38333D01*
X34470Y38338D01*
X34440Y38341D01*
X34407Y38343D01*
X34369Y38346D01*
X34331Y38349D01*
D02*
G37*
G36*
X79108Y19648D02*
X78466Y18529D01*
X79108D01*
Y19648D01*
D02*
G37*
%LPD*%
D10*
X84547Y37402D02*
G03*
X84547Y37402I-197J0D01*
G01*
X46555Y34646D02*
G03*
X46555Y34646I-197J0D01*
G01*
D11*
X48130Y28937D02*
G03*
X48130Y28937I-492J0D01*
G01*
D12*
X68112Y46260D02*
X78348D01*
Y41142D02*
Y46260D01*
X68112Y41142D02*
X78348D01*
X68112D02*
Y46260D01*
Y41142D02*
X78348D01*
Y36024D02*
Y41142D01*
X68112Y36024D02*
X78348D01*
X68112D02*
Y41142D01*
X48917Y33366D02*
X49902D01*
X48917Y32382D02*
Y33366D01*
X65256Y32382D02*
Y33366D01*
X64272D02*
X65256D01*
X48917Y15453D02*
Y16437D01*
Y15453D02*
X49902D01*
X64272D02*
X65256D01*
Y16437D01*
D13*
X38976Y45669D02*
X41339D01*
X88189Y38583D02*
Y40945D01*
X62994Y37402D02*
Y39764D01*
X44094Y45669D02*
X46457D01*
X62994Y47244D02*
Y50394D01*
X62994Y42520D02*
Y44882D01*
X42520Y26378D02*
X45669D01*
X52758Y37402D02*
Y39764D01*
X68110Y26378D02*
X72835D01*
X82677D02*
X87402D01*
X33071Y40551D02*
Y42913D01*
X89764Y26378D02*
X92913D01*
X35433Y26378D02*
X40157D01*
X75591D02*
X80315D01*
M02*
