G04*
G04 #@! TF.GenerationSoftware,Altium Limited,Altium Designer,26.3.0 (6)*
G04*
G04 Layer_Color=16711935*
%FSLAX25Y25*%
%MOIN*%
G70*
G04*
G04 #@! TF.SameCoordinates,EE2F418E-1566-404E-9DB7-E08F96EC3AE6*
G04*
G04*
G04 #@! TF.FilePolarity,Positive*
G04*
G01*
G75*
%ADD47C,0.01500*%
%ADD48C,0.00100*%
%ADD49C,0.01000*%
D47*
X623064Y-233158D02*
Y-137158D01*
X511096Y-161158D02*
X623064D01*
X511096Y-173158D02*
X623064D01*
X511096Y-185158D02*
X623064D01*
X511096Y-197158D02*
X623064D01*
X511096Y-209158D02*
X623064D01*
X511096Y-221158D02*
X623064D01*
X511096Y-233158D02*
X623064D01*
X511096D02*
Y-137158D01*
X454110Y-161158D02*
X511096D01*
X454110Y-173158D02*
X511096D01*
X454110Y-185158D02*
X511096D01*
X454110Y-197158D02*
X511096D01*
X454110Y-209158D02*
X511096D01*
X454110Y-221158D02*
X511096D01*
X454110Y-233158D02*
X511096D01*
X454110D02*
Y-137158D01*
X389126Y-161158D02*
X454110D01*
X389126Y-173158D02*
X454110D01*
X389126Y-185158D02*
X454110D01*
X389126Y-197158D02*
X454110D01*
X389126Y-209158D02*
X454110D01*
X389126Y-221158D02*
X454110D01*
X389126Y-233158D02*
X454110D01*
X389126D02*
Y-137158D01*
X303150Y-161158D02*
X389126D01*
X303150Y-173158D02*
X389126D01*
X303150Y-185158D02*
X389126D01*
X303150Y-197158D02*
X389126D01*
X303150Y-209158D02*
X389126D01*
X303150Y-221158D02*
X389126D01*
X303150Y-233158D02*
X389126D01*
X303150D02*
Y-137158D01*
X209175Y-161158D02*
X303150D01*
X209175Y-173158D02*
X303150D01*
X209175Y-185158D02*
X303150D01*
X209175Y-197158D02*
X303150D01*
X209175Y-209158D02*
X303150D01*
X209175Y-221158D02*
X303150D01*
X209175Y-233158D02*
X303150D01*
X209175D02*
Y-137158D01*
X168184Y-161158D02*
X209175D01*
X168184Y-173158D02*
X209175D01*
X168184Y-185158D02*
X209175D01*
X168184Y-197158D02*
X209175D01*
X168184Y-209158D02*
X209175D01*
X168184Y-221158D02*
X209175D01*
X168184Y-233158D02*
X209175D01*
X168184D02*
Y-137158D01*
X623064D01*
X168184Y-149158D02*
X623064D01*
D48*
X511096Y-153126D02*
X515064Y-149158D01*
X511096Y-159126D02*
X521064Y-149158D01*
X515064Y-161158D02*
X527064Y-149158D01*
X521064Y-161158D02*
X533064Y-149158D01*
X527064Y-161158D02*
X539064Y-149158D01*
X533064Y-161158D02*
X545064Y-149158D01*
X539064Y-161158D02*
X551064Y-149158D01*
X545064Y-161158D02*
X557064Y-149158D01*
X551064Y-161158D02*
X563064Y-149158D01*
X557064Y-161158D02*
X569064Y-149158D01*
X563064Y-161158D02*
X575064Y-149158D01*
X569064Y-161158D02*
X581064Y-149158D01*
X575064Y-161158D02*
X587064Y-149158D01*
X581064Y-161158D02*
X593064Y-149158D01*
X587064Y-161158D02*
X599064Y-149158D01*
X593064Y-161158D02*
X605064Y-149158D01*
X599064Y-161158D02*
X611064Y-149158D01*
X605064Y-161158D02*
X617064Y-149158D01*
X611064Y-161158D02*
X623064Y-149158D01*
X617064Y-161158D02*
X623064Y-155158D01*
X511096Y-165126D02*
X515064Y-161158D01*
X511096Y-171126D02*
X521064Y-161158D01*
X515064Y-173158D02*
X527064Y-161158D01*
X521064Y-173158D02*
X533064Y-161158D01*
X527064Y-173158D02*
X539064Y-161158D01*
X533064Y-173158D02*
X545064Y-161158D01*
X539064Y-173158D02*
X551064Y-161158D01*
X545064Y-173158D02*
X557064Y-161158D01*
X551064Y-173158D02*
X563064Y-161158D01*
X557064Y-173158D02*
X569064Y-161158D01*
X563064Y-173158D02*
X575064Y-161158D01*
X569064Y-173158D02*
X581064Y-161158D01*
X575064Y-173158D02*
X587064Y-161158D01*
X581064Y-173158D02*
X593064Y-161158D01*
X587064Y-173158D02*
X599064Y-161158D01*
X593064Y-173158D02*
X605064Y-161158D01*
X599064Y-173158D02*
X611064Y-161158D01*
X605064Y-173158D02*
X617064Y-161158D01*
X611064Y-173158D02*
X623064Y-161158D01*
X617064Y-173158D02*
X623064Y-167158D01*
X511096Y-177126D02*
X515064Y-173158D01*
X511096Y-183126D02*
X521064Y-173158D01*
X515064Y-185158D02*
X527064Y-173158D01*
X521064Y-185158D02*
X533064Y-173158D01*
X527064Y-185158D02*
X539064Y-173158D01*
X533064Y-185158D02*
X545064Y-173158D01*
X539064Y-185158D02*
X551064Y-173158D01*
X545064Y-185158D02*
X557064Y-173158D01*
X551064Y-185158D02*
X563064Y-173158D01*
X557064Y-185158D02*
X569064Y-173158D01*
X563064Y-185158D02*
X575064Y-173158D01*
X569064Y-185158D02*
X581064Y-173158D01*
X575064Y-185158D02*
X587064Y-173158D01*
X581064Y-185158D02*
X593064Y-173158D01*
X587064Y-185158D02*
X599064Y-173158D01*
X593064Y-185158D02*
X605064Y-173158D01*
X599064Y-185158D02*
X611064Y-173158D01*
X605064Y-185158D02*
X617064Y-173158D01*
X611064Y-185158D02*
X623064Y-173158D01*
X617064Y-185158D02*
X623064Y-179158D01*
X511096Y-189126D02*
X515064Y-185158D01*
X511096Y-195126D02*
X521064Y-185158D01*
X515064Y-197158D02*
X527064Y-185158D01*
X521064Y-197158D02*
X533064Y-185158D01*
X527064Y-197158D02*
X539064Y-185158D01*
X533064Y-197158D02*
X545064Y-185158D01*
X539064Y-197158D02*
X551064Y-185158D01*
X545064Y-197158D02*
X557064Y-185158D01*
X551064Y-197158D02*
X563064Y-185158D01*
X557064Y-197158D02*
X569064Y-185158D01*
X563064Y-197158D02*
X575064Y-185158D01*
X569064Y-197158D02*
X581064Y-185158D01*
X575064Y-197158D02*
X587064Y-185158D01*
X581064Y-197158D02*
X593064Y-185158D01*
X587064Y-197158D02*
X599064Y-185158D01*
X593064Y-197158D02*
X605064Y-185158D01*
X599064Y-197158D02*
X611064Y-185158D01*
X605064Y-197158D02*
X617064Y-185158D01*
X611064Y-197158D02*
X623064Y-185158D01*
X617064Y-197158D02*
X623064Y-191158D01*
X511096Y-201126D02*
X515064Y-197158D01*
X511096Y-207126D02*
X521064Y-197158D01*
X515064Y-209158D02*
X527064Y-197158D01*
X521064Y-209158D02*
X533064Y-197158D01*
X527064Y-209158D02*
X539064Y-197158D01*
X533064Y-209158D02*
X545064Y-197158D01*
X539064Y-209158D02*
X551064Y-197158D01*
X545064Y-209158D02*
X557064Y-197158D01*
X551064Y-209158D02*
X563064Y-197158D01*
X557064Y-209158D02*
X569064Y-197158D01*
X563064Y-209158D02*
X575064Y-197158D01*
X569064Y-209158D02*
X581064Y-197158D01*
X575064Y-209158D02*
X587064Y-197158D01*
X581064Y-209158D02*
X593064Y-197158D01*
X587064Y-209158D02*
X599064Y-197158D01*
X593064Y-209158D02*
X605064Y-197158D01*
X599064Y-209158D02*
X611064Y-197158D01*
X605064Y-209158D02*
X617064Y-197158D01*
X611064Y-209158D02*
X623064Y-197158D01*
X617064Y-209158D02*
X623064Y-203158D01*
X511096Y-213126D02*
X515064Y-209158D01*
X511096Y-219126D02*
X521064Y-209158D01*
X515064Y-221158D02*
X527064Y-209158D01*
X521064Y-221158D02*
X533064Y-209158D01*
X527064Y-221158D02*
X539064Y-209158D01*
X533064Y-221158D02*
X545064Y-209158D01*
X539064Y-221158D02*
X551064Y-209158D01*
X545064Y-221158D02*
X557064Y-209158D01*
X551064Y-221158D02*
X563064Y-209158D01*
X557064Y-221158D02*
X569064Y-209158D01*
X563064Y-221158D02*
X575064Y-209158D01*
X569064Y-221158D02*
X581064Y-209158D01*
X575064Y-221158D02*
X587064Y-209158D01*
X581064Y-221158D02*
X593064Y-209158D01*
X587064Y-221158D02*
X599064Y-209158D01*
X593064Y-221158D02*
X605064Y-209158D01*
X599064Y-221158D02*
X611064Y-209158D01*
X605064Y-221158D02*
X617064Y-209158D01*
X611064Y-221158D02*
X623064Y-209158D01*
X617064Y-221158D02*
X623064Y-215158D01*
X511096Y-225126D02*
X515064Y-221158D01*
X511096Y-231126D02*
X521064Y-221158D01*
X515064Y-233158D02*
X527064Y-221158D01*
X521064Y-233158D02*
X533064Y-221158D01*
X527064Y-233158D02*
X539064Y-221158D01*
X533064Y-233158D02*
X545064Y-221158D01*
X539064Y-233158D02*
X551064Y-221158D01*
X545064Y-233158D02*
X557064Y-221158D01*
X551064Y-233158D02*
X563064Y-221158D01*
X557064Y-233158D02*
X569064Y-221158D01*
X563064Y-233158D02*
X575064Y-221158D01*
X569064Y-233158D02*
X581064Y-221158D01*
X575064Y-233158D02*
X587064Y-221158D01*
X581064Y-233158D02*
X593064Y-221158D01*
X587064Y-233158D02*
X599064Y-221158D01*
X593064Y-233158D02*
X605064Y-221158D01*
X599064Y-233158D02*
X611064Y-221158D01*
X605064Y-233158D02*
X617064Y-221158D01*
X611064Y-233158D02*
X623064Y-221158D01*
X617064Y-233158D02*
X623064Y-227158D01*
D49*
X396126Y-242158D02*
X398126D01*
X397126D01*
Y-236160D01*
X396126Y-237160D01*
X402124Y-243158D02*
X403124Y-242158D01*
Y-241158D01*
X402124D01*
Y-242158D01*
X403124D01*
X402124Y-243158D01*
X401125Y-244158D01*
X411122Y-236160D02*
X409122Y-237160D01*
X407123Y-239159D01*
Y-241158D01*
X408122Y-242158D01*
X410122D01*
X411122Y-241158D01*
Y-240159D01*
X410122Y-239159D01*
X407123D01*
X413121Y-241158D02*
X414120Y-242158D01*
X416120D01*
X417120Y-241158D01*
Y-237160D01*
X416120Y-236160D01*
X414120D01*
X413121Y-237160D01*
Y-238159D01*
X414120Y-239159D01*
X417120D01*
X423118Y-242158D02*
X419119D01*
X423118Y-238159D01*
Y-237160D01*
X422118Y-236160D01*
X420119D01*
X419119Y-237160D01*
X425117Y-242158D02*
Y-238159D01*
X426117D01*
X427116Y-239159D01*
Y-242158D01*
Y-239159D01*
X428116Y-238159D01*
X429116Y-239159D01*
Y-242158D01*
X431115D02*
Y-238159D01*
X432115D01*
X433114Y-239159D01*
Y-242158D01*
Y-239159D01*
X434114Y-238159D01*
X435114Y-239159D01*
Y-242158D01*
X175184Y-236160D02*
X179183D01*
X177183D01*
Y-242158D01*
X182182D02*
X184181D01*
X185181Y-241158D01*
Y-239159D01*
X184181Y-238159D01*
X182182D01*
X181182Y-239159D01*
Y-241158D01*
X182182Y-242158D01*
X188180Y-237160D02*
Y-238159D01*
X187180D01*
X189180D01*
X188180D01*
Y-241158D01*
X189180Y-242158D01*
X193178Y-238159D02*
X195178D01*
X196177Y-239159D01*
Y-242158D01*
X193178D01*
X192179Y-241158D01*
X193178Y-240159D01*
X196177D01*
X198177Y-242158D02*
X200176D01*
X199176D01*
Y-236160D01*
X198177D01*
X209173D02*
Y-242158D01*
X212172D01*
X213172Y-241158D01*
Y-240159D01*
Y-239159D01*
X212172Y-238159D01*
X209173D01*
X216171Y-242158D02*
X218170D01*
X219170Y-241158D01*
Y-239159D01*
X218170Y-238159D01*
X216171D01*
X215171Y-239159D01*
Y-241158D01*
X216171Y-242158D01*
X222169Y-238159D02*
X224168D01*
X225168Y-239159D01*
Y-242158D01*
X222169D01*
X221169Y-241158D01*
X222169Y-240159D01*
X225168D01*
X227167Y-238159D02*
Y-242158D01*
Y-240159D01*
X228167Y-239159D01*
X229167Y-238159D01*
X230166D01*
X237164Y-236160D02*
Y-242158D01*
X234165D01*
X233165Y-241158D01*
Y-239159D01*
X234165Y-238159D01*
X237164D01*
X246161Y-237160D02*
Y-238159D01*
X245162D01*
X247161D01*
X246161D01*
Y-241158D01*
X247161Y-242158D01*
X250160Y-236160D02*
Y-242158D01*
Y-239159D01*
X251160Y-238159D01*
X253159D01*
X254159Y-239159D01*
Y-242158D01*
X256158D02*
X258157D01*
X257158D01*
Y-238159D01*
X256158D01*
X265155D02*
X262156D01*
X261156Y-239159D01*
Y-241158D01*
X262156Y-242158D01*
X265155D01*
X267154D02*
Y-236160D01*
Y-240159D02*
X270153Y-238159D01*
X267154Y-240159D02*
X270153Y-242158D01*
X273152D02*
Y-238159D01*
X276151D01*
X277151Y-239159D01*
Y-242158D01*
X282150D02*
X280150D01*
X279151Y-241158D01*
Y-239159D01*
X280150Y-238159D01*
X282150D01*
X283149Y-239159D01*
Y-240159D01*
X279151D01*
X285149Y-242158D02*
X288148D01*
X289147Y-241158D01*
X288148Y-240159D01*
X286148D01*
X285149Y-239159D01*
X286148Y-238159D01*
X289147D01*
X291147Y-242158D02*
X294146D01*
X295145Y-241158D01*
X294146Y-240159D01*
X292146D01*
X291147Y-239159D01*
X292146Y-238159D01*
X295145D01*
X297145D02*
X298144D01*
Y-239159D01*
X297145D01*
Y-238159D01*
Y-241158D02*
X298144D01*
Y-242158D01*
X297145D01*
Y-241158D01*
X518096Y-140160D02*
Y-146158D01*
X521095D01*
X522095Y-145158D01*
Y-144159D01*
X521095Y-143159D01*
X518096D01*
X521095D01*
X522095Y-142159D01*
Y-141160D01*
X521095Y-140160D01*
X518096D01*
X525094Y-146158D02*
X527093D01*
X528093Y-145158D01*
Y-143159D01*
X527093Y-142159D01*
X525094D01*
X524094Y-143159D01*
Y-145158D01*
X525094Y-146158D01*
X531092Y-142159D02*
X533091D01*
X534091Y-143159D01*
Y-146158D01*
X531092D01*
X530092Y-145158D01*
X531092Y-144159D01*
X534091D01*
X536090Y-142159D02*
Y-146158D01*
Y-144159D01*
X537090Y-143159D01*
X538089Y-142159D01*
X539089D01*
X546087Y-140160D02*
Y-146158D01*
X543088D01*
X542088Y-145158D01*
Y-143159D01*
X543088Y-142159D01*
X546087D01*
X554084Y-140160D02*
Y-146158D01*
X558083D01*
X561082Y-142159D02*
X563081D01*
X564081Y-143159D01*
Y-146158D01*
X561082D01*
X560082Y-145158D01*
X561082Y-144159D01*
X564081D01*
X566080Y-142159D02*
Y-145158D01*
X567080Y-146158D01*
X570079D01*
Y-147158D01*
X569079Y-148158D01*
X568080D01*
X570079Y-146158D02*
Y-142159D01*
X575077Y-146158D02*
X573078D01*
X572078Y-145158D01*
Y-143159D01*
X573078Y-142159D01*
X575077D01*
X576077Y-143159D01*
Y-144159D01*
X572078D01*
X578077Y-142159D02*
Y-146158D01*
Y-144159D01*
X579076Y-143159D01*
X580076Y-142159D01*
X581075D01*
X594071Y-141160D02*
X593072Y-140160D01*
X591072D01*
X590073Y-141160D01*
Y-142159D01*
X591072Y-143159D01*
X593072D01*
X594071Y-144159D01*
Y-145158D01*
X593072Y-146158D01*
X591072D01*
X590073Y-145158D01*
X597070Y-141160D02*
Y-142159D01*
X596071D01*
X598070D01*
X597070D01*
Y-145158D01*
X598070Y-146158D01*
X602069Y-142159D02*
X604068D01*
X605068Y-143159D01*
Y-146158D01*
X602069D01*
X601069Y-145158D01*
X602069Y-144159D01*
X605068D01*
X611066Y-142159D02*
X608067D01*
X607067Y-143159D01*
Y-145158D01*
X608067Y-146158D01*
X611066D01*
X613065D02*
Y-140160D01*
Y-144159D02*
X616064Y-142159D01*
X613065Y-144159D02*
X616064Y-146158D01*
X461110Y-165160D02*
X462110Y-164160D01*
X464109D01*
X465108Y-165160D01*
Y-166159D01*
X464109Y-167159D01*
X463109D01*
X464109D01*
X465108Y-168159D01*
Y-169158D01*
X464109Y-170158D01*
X462110D01*
X461110Y-169158D01*
X467108Y-170158D02*
Y-169158D01*
X468108D01*
Y-170158D01*
X467108D01*
X476105Y-164160D02*
X472106D01*
Y-167159D01*
X474106Y-166159D01*
X475105D01*
X476105Y-167159D01*
Y-169158D01*
X475105Y-170158D01*
X473106D01*
X472106Y-169158D01*
X464109Y-194158D02*
Y-188160D01*
X461110Y-191159D01*
X465108D01*
X467108Y-194158D02*
Y-193158D01*
X468108D01*
Y-194158D01*
X467108D01*
X476105D02*
X472106D01*
X476105Y-190159D01*
Y-189160D01*
X475105Y-188160D01*
X473106D01*
X472106Y-189160D01*
X461110Y-213160D02*
X462110Y-212160D01*
X464109D01*
X465108Y-213160D01*
Y-214159D01*
X464109Y-215159D01*
X463109D01*
X464109D01*
X465108Y-216159D01*
Y-217158D01*
X464109Y-218158D01*
X462110D01*
X461110Y-217158D01*
X467108Y-218158D02*
Y-217158D01*
X468108D01*
Y-218158D01*
X467108D01*
X476105Y-212160D02*
X472106D01*
Y-215159D01*
X474106Y-214159D01*
X475105D01*
X476105Y-215159D01*
Y-217158D01*
X475105Y-218158D01*
X473106D01*
X472106Y-217158D01*
X465108Y-141160D02*
X464109Y-140160D01*
X462110D01*
X461110Y-141160D01*
Y-145158D01*
X462110Y-146158D01*
X464109D01*
X465108Y-145158D01*
X468108Y-146158D02*
X470107D01*
X471107Y-145158D01*
Y-143159D01*
X470107Y-142159D01*
X468108D01*
X467108Y-143159D01*
Y-145158D01*
X468108Y-146158D01*
X473106D02*
Y-142159D01*
X476105D01*
X477105Y-143159D01*
Y-146158D01*
X479104D02*
X482103D01*
X483103Y-145158D01*
X482103Y-144159D01*
X480104D01*
X479104Y-143159D01*
X480104Y-142159D01*
X483103D01*
X486102Y-141160D02*
Y-142159D01*
X485102D01*
X487101D01*
X486102D01*
Y-145158D01*
X487101Y-146158D01*
X491100Y-142159D02*
X493099D01*
X494099Y-143159D01*
Y-146158D01*
X491100D01*
X490100Y-145158D01*
X491100Y-144159D01*
X494099D01*
X496099Y-146158D02*
Y-142159D01*
X499097D01*
X500097Y-143159D01*
Y-146158D01*
X503096Y-141160D02*
Y-142159D01*
X502097D01*
X504096D01*
X503096D01*
Y-145158D01*
X504096Y-146158D01*
X396126Y-165160D02*
X397126Y-164160D01*
X399125D01*
X400125Y-165160D01*
Y-169158D01*
X399125Y-170158D01*
X397126D01*
X396126Y-169158D01*
Y-165160D01*
X403124Y-171158D02*
X404124Y-170158D01*
Y-169158D01*
X403124D01*
Y-170158D01*
X404124D01*
X403124Y-171158D01*
X402124Y-172158D01*
X408122Y-165160D02*
X409122Y-164160D01*
X411122D01*
X412121Y-165160D01*
Y-169158D01*
X411122Y-170158D01*
X409122D01*
X408122Y-169158D01*
Y-165160D01*
X414120Y-170158D02*
X416120D01*
X415120D01*
Y-164160D01*
X414120Y-165160D01*
X419119D02*
X420119Y-164160D01*
X422118D01*
X423118Y-165160D01*
Y-169158D01*
X422118Y-170158D01*
X420119D01*
X419119Y-169158D01*
Y-165160D01*
X425117Y-170158D02*
Y-166159D01*
X426117D01*
X427116Y-167159D01*
Y-170158D01*
Y-167159D01*
X428116Y-166159D01*
X429116Y-167159D01*
Y-170158D01*
X431115D02*
Y-166159D01*
X432115D01*
X433114Y-167159D01*
Y-170158D01*
Y-167159D01*
X434114Y-166159D01*
X435114Y-167159D01*
Y-170158D01*
X396126Y-177160D02*
X397126Y-176160D01*
X399125D01*
X400125Y-177160D01*
Y-181158D01*
X399125Y-182158D01*
X397126D01*
X396126Y-181158D01*
Y-177160D01*
X403124Y-183158D02*
X404124Y-182158D01*
Y-181158D01*
X403124D01*
Y-182158D01*
X404124D01*
X403124Y-183158D01*
X402124Y-184158D01*
X408122Y-177160D02*
X409122Y-176160D01*
X411122D01*
X412121Y-177160D01*
Y-181158D01*
X411122Y-182158D01*
X409122D01*
X408122Y-181158D01*
Y-177160D01*
X414120D02*
X415120Y-176160D01*
X417120D01*
X418119Y-177160D01*
Y-178159D01*
X417120Y-179159D01*
X416120D01*
X417120D01*
X418119Y-180159D01*
Y-181158D01*
X417120Y-182158D01*
X415120D01*
X414120Y-181158D01*
X424117Y-176160D02*
X422118Y-177160D01*
X420119Y-179159D01*
Y-181158D01*
X421118Y-182158D01*
X423118D01*
X424117Y-181158D01*
Y-180159D01*
X423118Y-179159D01*
X420119D01*
X426117Y-182158D02*
Y-178159D01*
X427116D01*
X428116Y-179159D01*
Y-182158D01*
Y-179159D01*
X429116Y-178159D01*
X430115Y-179159D01*
Y-182158D01*
X432115D02*
Y-178159D01*
X433114D01*
X434114Y-179159D01*
Y-182158D01*
Y-179159D01*
X435114Y-178159D01*
X436113Y-179159D01*
Y-182158D01*
X396126Y-194158D02*
X398126D01*
X397126D01*
Y-188160D01*
X396126Y-189160D01*
X402124Y-195158D02*
X403124Y-194158D01*
Y-193158D01*
X402124D01*
Y-194158D01*
X403124D01*
X402124Y-195158D01*
X401125Y-196158D01*
X411122Y-188160D02*
X409122Y-189160D01*
X407123Y-191159D01*
Y-193158D01*
X408122Y-194158D01*
X410122D01*
X411122Y-193158D01*
Y-192159D01*
X410122Y-191159D01*
X407123D01*
X413121Y-189160D02*
X414120Y-188160D01*
X416120D01*
X417120Y-189160D01*
Y-193158D01*
X416120Y-194158D01*
X414120D01*
X413121Y-193158D01*
Y-189160D01*
X419119D02*
X420119Y-188160D01*
X422118D01*
X423118Y-189160D01*
Y-193158D01*
X422118Y-194158D01*
X420119D01*
X419119Y-193158D01*
Y-189160D01*
X425117Y-194158D02*
Y-190159D01*
X426117D01*
X427116Y-191159D01*
Y-194158D01*
Y-191159D01*
X428116Y-190159D01*
X429116Y-191159D01*
Y-194158D01*
X431115D02*
Y-190159D01*
X432115D01*
X433114Y-191159D01*
Y-194158D01*
Y-191159D01*
X434114Y-190159D01*
X435114Y-191159D01*
Y-194158D01*
X396126Y-201160D02*
X397126Y-200160D01*
X399125D01*
X400125Y-201160D01*
Y-205158D01*
X399125Y-206158D01*
X397126D01*
X396126Y-205158D01*
Y-201160D01*
X403124Y-207158D02*
X404124Y-206158D01*
Y-205158D01*
X403124D01*
Y-206158D01*
X404124D01*
X403124Y-207158D01*
X402124Y-208157D01*
X408122Y-201160D02*
X409122Y-200160D01*
X411122D01*
X412121Y-201160D01*
Y-205158D01*
X411122Y-206158D01*
X409122D01*
X408122Y-205158D01*
Y-201160D01*
X414120D02*
X415120Y-200160D01*
X417120D01*
X418119Y-201160D01*
Y-202159D01*
X417120Y-203159D01*
X416120D01*
X417120D01*
X418119Y-204159D01*
Y-205158D01*
X417120Y-206158D01*
X415120D01*
X414120Y-205158D01*
X424117Y-200160D02*
X422118Y-201160D01*
X420119Y-203159D01*
Y-205158D01*
X421118Y-206158D01*
X423118D01*
X424117Y-205158D01*
Y-204159D01*
X423118Y-203159D01*
X420119D01*
X426117Y-206158D02*
Y-202159D01*
X427116D01*
X428116Y-203159D01*
Y-206158D01*
Y-203159D01*
X429116Y-202159D01*
X430115Y-203159D01*
Y-206158D01*
X432115D02*
Y-202159D01*
X433114D01*
X434114Y-203159D01*
Y-206158D01*
Y-203159D01*
X435114Y-202159D01*
X436113Y-203159D01*
Y-206158D01*
X396126Y-213160D02*
X397126Y-212160D01*
X399125D01*
X400125Y-213160D01*
Y-217158D01*
X399125Y-218158D01*
X397126D01*
X396126Y-217158D01*
Y-213160D01*
X403124Y-219158D02*
X404124Y-218158D01*
Y-217158D01*
X403124D01*
Y-218158D01*
X404124D01*
X403124Y-219158D01*
X402124Y-220158D01*
X408122Y-213160D02*
X409122Y-212160D01*
X411122D01*
X412121Y-213160D01*
Y-217158D01*
X411122Y-218158D01*
X409122D01*
X408122Y-217158D01*
Y-213160D01*
X414120Y-218158D02*
X416120D01*
X415120D01*
Y-212160D01*
X414120Y-213160D01*
X419119D02*
X420119Y-212160D01*
X422118D01*
X423118Y-213160D01*
Y-217158D01*
X422118Y-218158D01*
X420119D01*
X419119Y-217158D01*
Y-213160D01*
X425117Y-218158D02*
Y-214159D01*
X426117D01*
X427116Y-215159D01*
Y-218158D01*
Y-215159D01*
X428116Y-214159D01*
X429116Y-215159D01*
Y-218158D01*
X431115D02*
Y-214159D01*
X432115D01*
X433114Y-215159D01*
Y-218158D01*
Y-215159D01*
X434114Y-214159D01*
X435114Y-215159D01*
Y-218158D01*
X396126Y-140160D02*
X400125D01*
X398126D01*
Y-146158D01*
X402124Y-140160D02*
Y-146158D01*
Y-143159D01*
X403124Y-142159D01*
X405123D01*
X406123Y-143159D01*
Y-146158D01*
X408122D02*
X410122D01*
X409122D01*
Y-142159D01*
X408122D01*
X417120D02*
X414120D01*
X413121Y-143159D01*
Y-145158D01*
X414120Y-146158D01*
X417120D01*
X419119D02*
Y-140160D01*
Y-144159D02*
X422118Y-142159D01*
X419119Y-144159D02*
X422118Y-146158D01*
X425117D02*
Y-142159D01*
X428116D01*
X429116Y-143159D01*
Y-146158D01*
X434114D02*
X432115D01*
X431115Y-145158D01*
Y-143159D01*
X432115Y-142159D01*
X434114D01*
X435114Y-143159D01*
Y-144159D01*
X431115D01*
X437113Y-146158D02*
X440112D01*
X441112Y-145158D01*
X440112Y-144159D01*
X438113D01*
X437113Y-143159D01*
X438113Y-142159D01*
X441112D01*
X443111Y-146158D02*
X446110D01*
X447110Y-145158D01*
X446110Y-144159D01*
X444111D01*
X443111Y-143159D01*
X444111Y-142159D01*
X447110D01*
X314148Y-165160D02*
X313149Y-164160D01*
X311149D01*
X310150Y-165160D01*
Y-166159D01*
X311149Y-167159D01*
X313149D01*
X314148Y-168159D01*
Y-169158D01*
X313149Y-170158D01*
X311149D01*
X310150Y-169158D01*
X317147Y-170158D02*
X319147D01*
X320146Y-169158D01*
Y-167159D01*
X319147Y-166159D01*
X317147D01*
X316148Y-167159D01*
Y-169158D01*
X317147Y-170158D01*
X322146D02*
X324145D01*
X323145D01*
Y-164160D01*
X322146D01*
X331143D02*
Y-170158D01*
X328144D01*
X327144Y-169158D01*
Y-167159D01*
X328144Y-166159D01*
X331143D01*
X336141Y-170158D02*
X334142D01*
X333142Y-169158D01*
Y-167159D01*
X334142Y-166159D01*
X336141D01*
X337141Y-167159D01*
Y-168159D01*
X333142D01*
X339140Y-166159D02*
Y-170158D01*
Y-168159D01*
X340140Y-167159D01*
X341140Y-166159D01*
X342139D01*
X351136Y-170158D02*
Y-164160D01*
X354135D01*
X355135Y-165160D01*
Y-167159D01*
X354135Y-168159D01*
X351136D01*
X353136D02*
X355135Y-170158D01*
X360133D02*
X358134D01*
X357134Y-169158D01*
Y-167159D01*
X358134Y-166159D01*
X360133D01*
X361133Y-167159D01*
Y-168159D01*
X357134D01*
X363133Y-170158D02*
X366131D01*
X367131Y-169158D01*
X366131Y-168159D01*
X364132D01*
X363133Y-167159D01*
X364132Y-166159D01*
X367131D01*
X369130Y-170158D02*
X371130D01*
X370130D01*
Y-166159D01*
X369130D01*
X374129Y-170158D02*
X377128D01*
X378128Y-169158D01*
X377128Y-168159D01*
X375129D01*
X374129Y-167159D01*
X375129Y-166159D01*
X378128D01*
X381127Y-165160D02*
Y-166159D01*
X380127D01*
X382126D01*
X381127D01*
Y-169158D01*
X382126Y-170158D01*
X310150Y-188160D02*
X312149D01*
X311149D01*
Y-194158D01*
X310150D01*
X312149D01*
X319147Y-189160D02*
X318147Y-188160D01*
X316148D01*
X315148Y-189160D01*
Y-190159D01*
X316148Y-191159D01*
X318147D01*
X319147Y-192159D01*
Y-193158D01*
X318147Y-194158D01*
X316148D01*
X315148Y-193158D01*
X324145Y-194158D02*
Y-188160D01*
X321146Y-191159D01*
X325145D01*
X327144Y-189160D02*
X328144Y-188160D01*
X330143D01*
X331143Y-189160D01*
Y-193158D01*
X330143Y-194158D01*
X328144D01*
X327144Y-193158D01*
Y-189160D01*
X333142D02*
X334142Y-188160D01*
X336141D01*
X337141Y-189160D01*
Y-193158D01*
X336141Y-194158D01*
X334142D01*
X333142Y-193158D01*
Y-189160D01*
X314148Y-213160D02*
X313149Y-212160D01*
X311149D01*
X310150Y-213160D01*
Y-214159D01*
X311149Y-215159D01*
X313149D01*
X314148Y-216159D01*
Y-217158D01*
X313149Y-218158D01*
X311149D01*
X310150Y-217158D01*
X317147Y-218158D02*
X319147D01*
X320146Y-217158D01*
Y-215159D01*
X319147Y-214159D01*
X317147D01*
X316148Y-215159D01*
Y-217158D01*
X317147Y-218158D01*
X322146D02*
X324145D01*
X323145D01*
Y-212160D01*
X322146D01*
X331143D02*
Y-218158D01*
X328144D01*
X327144Y-217158D01*
Y-215159D01*
X328144Y-214159D01*
X331143D01*
X336141Y-218158D02*
X334142D01*
X333142Y-217158D01*
Y-215159D01*
X334142Y-214159D01*
X336141D01*
X337141Y-215159D01*
Y-216159D01*
X333142D01*
X339140Y-214159D02*
Y-218158D01*
Y-216159D01*
X340140Y-215159D01*
X341140Y-214159D01*
X342139D01*
X351136Y-218158D02*
Y-212160D01*
X354135D01*
X355135Y-213160D01*
Y-215159D01*
X354135Y-216159D01*
X351136D01*
X353136D02*
X355135Y-218158D01*
X360133D02*
X358134D01*
X357134Y-217158D01*
Y-215159D01*
X358134Y-214159D01*
X360133D01*
X361133Y-215159D01*
Y-216159D01*
X357134D01*
X363133Y-218158D02*
X366131D01*
X367131Y-217158D01*
X366131Y-216159D01*
X364132D01*
X363133Y-215159D01*
X364132Y-214159D01*
X367131D01*
X369130Y-218158D02*
X371130D01*
X370130D01*
Y-214159D01*
X369130D01*
X374129Y-218158D02*
X377128D01*
X378128Y-217158D01*
X377128Y-216159D01*
X375129D01*
X374129Y-215159D01*
X375129Y-214159D01*
X378128D01*
X381127Y-213160D02*
Y-214159D01*
X380127D01*
X382126D01*
X381127D01*
Y-217158D01*
X382126Y-218158D01*
X310150Y-146158D02*
Y-140160D01*
X312149Y-142159D01*
X314148Y-140160D01*
Y-146158D01*
X317147Y-142159D02*
X319147D01*
X320146Y-143159D01*
Y-146158D01*
X317147D01*
X316148Y-145158D01*
X317147Y-144159D01*
X320146D01*
X323145Y-141160D02*
Y-142159D01*
X322146D01*
X324145D01*
X323145D01*
Y-145158D01*
X324145Y-146158D01*
X330143D02*
X328144D01*
X327144Y-145158D01*
Y-143159D01*
X328144Y-142159D01*
X330143D01*
X331143Y-143159D01*
Y-144159D01*
X327144D01*
X333142Y-142159D02*
Y-146158D01*
Y-144159D01*
X334142Y-143159D01*
X335141Y-142159D01*
X336141D01*
X339140Y-146158D02*
X341140D01*
X340140D01*
Y-142159D01*
X339140D01*
X345138D02*
X347138D01*
X348137Y-143159D01*
Y-146158D01*
X345138D01*
X344139Y-145158D01*
X345138Y-144159D01*
X348137D01*
X350137Y-146158D02*
X352136D01*
X351136D01*
Y-140160D01*
X350137D01*
X216176Y-152160D02*
X220174D01*
X218175D01*
Y-158158D01*
X223173D02*
X225173D01*
X226172Y-157158D01*
Y-155159D01*
X225173Y-154159D01*
X223173D01*
X222174Y-155159D01*
Y-157158D01*
X223173Y-158158D01*
X228172Y-160158D02*
Y-154159D01*
X231171D01*
X232170Y-155159D01*
Y-157158D01*
X231171Y-158158D01*
X228172D01*
X243167Y-152160D02*
X241167D01*
X240168Y-153160D01*
Y-157158D01*
X241167Y-158158D01*
X243167D01*
X244166Y-157158D01*
Y-153160D01*
X243167Y-152160D01*
X246166Y-154159D02*
X248165Y-158158D01*
X250165Y-154159D01*
X255163Y-158158D02*
X253164D01*
X252164Y-157158D01*
Y-155159D01*
X253164Y-154159D01*
X255163D01*
X256163Y-155159D01*
Y-156159D01*
X252164D01*
X258162Y-154159D02*
Y-158158D01*
Y-156159D01*
X259162Y-155159D01*
X260161Y-154159D01*
X261161D01*
X264160Y-158158D02*
X266159D01*
X265160D01*
Y-152160D01*
X264160D01*
X270158Y-154159D02*
X272157D01*
X273157Y-155159D01*
Y-158158D01*
X270158D01*
X269158Y-157158D01*
X270158Y-156159D01*
X273157D01*
X275156Y-154159D02*
Y-157158D01*
X276156Y-158158D01*
X279155D01*
Y-159158D01*
X278155Y-160158D01*
X277156D01*
X279155Y-158158D02*
Y-154159D01*
X216176Y-164160D02*
X220174D01*
X218175D01*
Y-170158D01*
X223173D02*
X225173D01*
X226172Y-169158D01*
Y-167159D01*
X225173Y-166159D01*
X223173D01*
X222174Y-167159D01*
Y-169158D01*
X223173Y-170158D01*
X228172Y-172158D02*
Y-166159D01*
X231171D01*
X232170Y-167159D01*
Y-169158D01*
X231171Y-170158D01*
X228172D01*
X244166Y-165160D02*
X243167Y-164160D01*
X241167D01*
X240168Y-165160D01*
Y-166159D01*
X241167Y-167159D01*
X243167D01*
X244166Y-168159D01*
Y-169158D01*
X243167Y-170158D01*
X241167D01*
X240168Y-169158D01*
X247165Y-170158D02*
X249165D01*
X250165Y-169158D01*
Y-167159D01*
X249165Y-166159D01*
X247165D01*
X246166Y-167159D01*
Y-169158D01*
X247165Y-170158D01*
X252164D02*
X254163D01*
X253164D01*
Y-164160D01*
X252164D01*
X261161D02*
Y-170158D01*
X258162D01*
X257162Y-169158D01*
Y-167159D01*
X258162Y-166159D01*
X261161D01*
X266159Y-170158D02*
X264160D01*
X263160Y-169158D01*
Y-167159D01*
X264160Y-166159D01*
X266159D01*
X267159Y-167159D01*
Y-168159D01*
X263160D01*
X269158Y-166159D02*
Y-170158D01*
Y-168159D01*
X270158Y-167159D01*
X271158Y-166159D01*
X272157D01*
X220174Y-177160D02*
X219175Y-176160D01*
X217175D01*
X216176Y-177160D01*
Y-181158D01*
X217175Y-182158D01*
X219175D01*
X220174Y-181158D01*
X223173Y-182158D02*
X225173D01*
X226172Y-181158D01*
Y-179159D01*
X225173Y-178159D01*
X223173D01*
X222174Y-179159D01*
Y-181158D01*
X223173Y-182158D01*
X228172D02*
Y-178159D01*
X229171D01*
X230171Y-179159D01*
Y-182158D01*
Y-179159D01*
X231171Y-178159D01*
X232170Y-179159D01*
Y-182158D01*
X234170Y-184158D02*
Y-178159D01*
X237169D01*
X238168Y-179159D01*
Y-181158D01*
X237169Y-182158D01*
X234170D01*
X241167D02*
X243167D01*
X244166Y-181158D01*
Y-179159D01*
X243167Y-178159D01*
X241167D01*
X240168Y-179159D01*
Y-181158D01*
X241167Y-182158D01*
X246166D02*
Y-178159D01*
X249165D01*
X250165Y-179159D01*
Y-182158D01*
X255163D02*
X253164D01*
X252164Y-181158D01*
Y-179159D01*
X253164Y-178159D01*
X255163D01*
X256163Y-179159D01*
Y-180159D01*
X252164D01*
X258162Y-182158D02*
Y-178159D01*
X261161D01*
X262161Y-179159D01*
Y-182158D01*
X265160Y-177160D02*
Y-178159D01*
X264160D01*
X266159D01*
X265160D01*
Y-181158D01*
X266159Y-182158D01*
X279155Y-177160D02*
X278155Y-176160D01*
X276156D01*
X275156Y-177160D01*
Y-178159D01*
X276156Y-179159D01*
X278155D01*
X279155Y-180159D01*
Y-181158D01*
X278155Y-182158D01*
X276156D01*
X275156Y-181158D01*
X281154Y-182158D02*
X283154D01*
X282154D01*
Y-178159D01*
X281154D01*
X290152Y-176160D02*
Y-182158D01*
X287153D01*
X286153Y-181158D01*
Y-179159D01*
X287153Y-178159D01*
X290152D01*
X295150Y-182158D02*
X293151D01*
X292151Y-181158D01*
Y-179159D01*
X293151Y-178159D01*
X295150D01*
X296150Y-179159D01*
Y-180159D01*
X292151D01*
X216176Y-188160D02*
Y-194158D01*
X219175D01*
X220174Y-193158D01*
Y-189160D01*
X219175Y-188160D01*
X216176D01*
X222174Y-194158D02*
X224173D01*
X223173D01*
Y-190159D01*
X222174D01*
X230171Y-194158D02*
X228172D01*
X227172Y-193158D01*
Y-191159D01*
X228172Y-190159D01*
X230171D01*
X231171Y-191159D01*
Y-192159D01*
X227172D01*
X233170Y-194158D02*
X235169D01*
X234170D01*
Y-188160D01*
X233170D01*
X241167Y-194158D02*
X239168D01*
X238168Y-193158D01*
Y-191159D01*
X239168Y-190159D01*
X241167D01*
X242167Y-191159D01*
Y-192159D01*
X238168D01*
X248165Y-190159D02*
X245166D01*
X244166Y-191159D01*
Y-193158D01*
X245166Y-194158D01*
X248165D01*
X251164Y-189160D02*
Y-190159D01*
X250165D01*
X252164D01*
X251164D01*
Y-193158D01*
X252164Y-194158D01*
X255163Y-190159D02*
Y-194158D01*
Y-192159D01*
X256163Y-191159D01*
X257162Y-190159D01*
X258162D01*
X261161Y-194158D02*
X263160D01*
X262161D01*
Y-190159D01*
X261161D01*
X270158D02*
X267159D01*
X266159Y-191159D01*
Y-193158D01*
X267159Y-194158D01*
X270158D01*
X278155Y-189160D02*
X279155Y-188160D01*
X281154D01*
X282154Y-189160D01*
Y-190159D01*
X281154Y-191159D01*
X280155D01*
X281154D01*
X282154Y-192159D01*
Y-193158D01*
X281154Y-194158D01*
X279155D01*
X278155Y-193158D01*
X220174Y-201160D02*
X219175Y-200160D01*
X217175D01*
X216176Y-201160D01*
Y-202159D01*
X217175Y-203159D01*
X219175D01*
X220174Y-204159D01*
Y-205158D01*
X219175Y-206158D01*
X217175D01*
X216176Y-205158D01*
X223173Y-206158D02*
X225173D01*
X226172Y-205158D01*
Y-203159D01*
X225173Y-202159D01*
X223173D01*
X222174Y-203159D01*
Y-205158D01*
X223173Y-206158D01*
X228172D02*
X230171D01*
X229171D01*
Y-200160D01*
X228172D01*
X237169D02*
Y-206158D01*
X234170D01*
X233170Y-205158D01*
Y-203159D01*
X234170Y-202159D01*
X237169D01*
X242167Y-206158D02*
X240168D01*
X239168Y-205158D01*
Y-203159D01*
X240168Y-202159D01*
X242167D01*
X243167Y-203159D01*
Y-204159D01*
X239168D01*
X245166Y-202159D02*
Y-206158D01*
Y-204159D01*
X246166Y-203159D01*
X247165Y-202159D01*
X248165D01*
X261161Y-201160D02*
X260161Y-200160D01*
X258162D01*
X257162Y-201160D01*
Y-202159D01*
X258162Y-203159D01*
X260161D01*
X261161Y-204159D01*
Y-205158D01*
X260161Y-206158D01*
X258162D01*
X257162Y-205158D01*
X263160Y-206158D02*
X265160D01*
X264160D01*
Y-202159D01*
X263160D01*
X272157Y-200160D02*
Y-206158D01*
X269158D01*
X268159Y-205158D01*
Y-203159D01*
X269158Y-202159D01*
X272157D01*
X277156Y-206158D02*
X275156D01*
X274157Y-205158D01*
Y-203159D01*
X275156Y-202159D01*
X277156D01*
X278155Y-203159D01*
Y-204159D01*
X274157D01*
X216176Y-212160D02*
Y-218158D01*
X219175D01*
X220174Y-217158D01*
Y-216159D01*
X219175Y-215159D01*
X216176D01*
X219175D01*
X220174Y-214159D01*
Y-213160D01*
X219175Y-212160D01*
X216176D01*
X223173Y-218158D02*
X225173D01*
X226172Y-217158D01*
Y-215159D01*
X225173Y-214159D01*
X223173D01*
X222174Y-215159D01*
Y-217158D01*
X223173Y-218158D01*
X229171Y-213160D02*
Y-214159D01*
X228172D01*
X230171D01*
X229171D01*
Y-217158D01*
X230171Y-218158D01*
X234170Y-213160D02*
Y-214159D01*
X233170D01*
X235169D01*
X234170D01*
Y-217158D01*
X235169Y-218158D01*
X239168D02*
X241167D01*
X242167Y-217158D01*
Y-215159D01*
X241167Y-214159D01*
X239168D01*
X238168Y-215159D01*
Y-217158D01*
X239168Y-218158D01*
X244166D02*
Y-214159D01*
X245166D01*
X246166Y-215159D01*
Y-218158D01*
Y-215159D01*
X247165Y-214159D01*
X248165Y-215159D01*
Y-218158D01*
X260161Y-213160D02*
X259162Y-212160D01*
X257162D01*
X256163Y-213160D01*
Y-214159D01*
X257162Y-215159D01*
X259162D01*
X260161Y-216159D01*
Y-217158D01*
X259162Y-218158D01*
X257162D01*
X256163Y-217158D01*
X263160Y-218158D02*
X265160D01*
X266159Y-217158D01*
Y-215159D01*
X265160Y-214159D01*
X263160D01*
X262161Y-215159D01*
Y-217158D01*
X263160Y-218158D01*
X268159D02*
X270158D01*
X269158D01*
Y-212160D01*
X268159D01*
X277156D02*
Y-218158D01*
X274157D01*
X273157Y-217158D01*
Y-215159D01*
X274157Y-214159D01*
X277156D01*
X282154Y-218158D02*
X280155D01*
X279155Y-217158D01*
Y-215159D01*
X280155Y-214159D01*
X282154D01*
X283154Y-215159D01*
Y-216159D01*
X279155D01*
X285153Y-214159D02*
Y-218158D01*
Y-216159D01*
X286153Y-215159D01*
X287153Y-214159D01*
X288152D01*
X216176Y-224160D02*
Y-230158D01*
X219175D01*
X220174Y-229158D01*
Y-228159D01*
X219175Y-227159D01*
X216176D01*
X219175D01*
X220174Y-226159D01*
Y-225160D01*
X219175Y-224160D01*
X216176D01*
X223173Y-230158D02*
X225173D01*
X226172Y-229158D01*
Y-227159D01*
X225173Y-226159D01*
X223173D01*
X222174Y-227159D01*
Y-229158D01*
X223173Y-230158D01*
X229171Y-225160D02*
Y-226159D01*
X228172D01*
X230171D01*
X229171D01*
Y-229158D01*
X230171Y-230158D01*
X234170Y-225160D02*
Y-226159D01*
X233170D01*
X235169D01*
X234170D01*
Y-229158D01*
X235169Y-230158D01*
X239168D02*
X241167D01*
X242167Y-229158D01*
Y-227159D01*
X241167Y-226159D01*
X239168D01*
X238168Y-227159D01*
Y-229158D01*
X239168Y-230158D01*
X244166D02*
Y-226159D01*
X245166D01*
X246166Y-227159D01*
Y-230158D01*
Y-227159D01*
X247165Y-226159D01*
X248165Y-227159D01*
Y-230158D01*
X259162Y-224160D02*
X257162D01*
X256163Y-225160D01*
Y-229158D01*
X257162Y-230158D01*
X259162D01*
X260161Y-229158D01*
Y-225160D01*
X259162Y-224160D01*
X262161Y-226159D02*
X264160Y-230158D01*
X266159Y-226159D01*
X271158Y-230158D02*
X269158D01*
X268159Y-229158D01*
Y-227159D01*
X269158Y-226159D01*
X271158D01*
X272157Y-227159D01*
Y-228159D01*
X268159D01*
X274157Y-226159D02*
Y-230158D01*
Y-228159D01*
X275156Y-227159D01*
X276156Y-226159D01*
X277156D01*
X280155Y-230158D02*
X282154D01*
X281154D01*
Y-224160D01*
X280155D01*
X286153Y-226159D02*
X288152D01*
X289152Y-227159D01*
Y-230158D01*
X286153D01*
X285153Y-229158D01*
X286153Y-228159D01*
X289152D01*
X291151Y-226159D02*
Y-229158D01*
X292151Y-230158D01*
X295150D01*
Y-231158D01*
X294150Y-232157D01*
X293151D01*
X295150Y-230158D02*
Y-226159D01*
X216176Y-146158D02*
Y-140160D01*
X220174Y-146158D01*
Y-140160D01*
X223173Y-142159D02*
X225173D01*
X226172Y-143159D01*
Y-146158D01*
X223173D01*
X222174Y-145158D01*
X223173Y-144159D01*
X226172D01*
X228172Y-146158D02*
Y-142159D01*
X229171D01*
X230171Y-143159D01*
Y-146158D01*
Y-143159D01*
X231171Y-142159D01*
X232170Y-143159D01*
Y-146158D01*
X237169D02*
X235169D01*
X234170Y-145158D01*
Y-143159D01*
X235169Y-142159D01*
X237169D01*
X238168Y-143159D01*
Y-144159D01*
X234170D01*
X175184Y-182158D02*
X177183D01*
X176184D01*
Y-176160D01*
X175184Y-177160D01*
X179183Y-206158D02*
X175184D01*
X179183Y-202159D01*
Y-201160D01*
X178183Y-200160D01*
X176184D01*
X175184Y-201160D01*
Y-140160D02*
Y-146158D01*
X179183D01*
X182182Y-142159D02*
X184181D01*
X185181Y-143159D01*
Y-146158D01*
X182182D01*
X181182Y-145158D01*
X182182Y-144159D01*
X185181D01*
X187180Y-142159D02*
Y-145158D01*
X188180Y-146158D01*
X191179D01*
Y-147158D01*
X190179Y-148158D01*
X189180D01*
X191179Y-146158D02*
Y-142159D01*
X196177Y-146158D02*
X194178D01*
X193178Y-145158D01*
Y-143159D01*
X194178Y-142159D01*
X196177D01*
X197177Y-143159D01*
Y-144159D01*
X193178D01*
X199176Y-142159D02*
Y-146158D01*
Y-144159D01*
X200176Y-143159D01*
X201176Y-142159D01*
X202175D01*
M02*
