G04*
G04 #@! TF.GenerationSoftware,Altium Limited,Altium Designer,21.6.1 (37)*
G04*
G04 Layer_Color=16711935*
%FSLAX24Y24*%
%MOIN*%
G70*
G04*
G04 #@! TF.SameCoordinates,F7370176-FC0D-4E3A-AC5E-E6B851427DC4*
G04*
G04*
G04 #@! TF.FilePolarity,Negative*
G04*
G01*
G75*
%ADD22C,0.0671*%
%ADD23R,0.0671X0.0671*%
%ADD24C,0.0946*%
%ADD25R,0.0671X0.0671*%
%ADD26C,0.1261*%
%ADD27C,0.0126*%
D22*
X15551Y9008D02*
D03*
X16551D02*
D03*
X15551Y8008D02*
D03*
X16551D02*
D03*
X15551Y7008D02*
D03*
X16551D02*
D03*
X15551Y6008D02*
D03*
X16551D02*
D03*
X15551Y5008D02*
D03*
X1693Y12937D02*
D03*
Y11937D02*
D03*
Y10937D02*
D03*
Y9937D02*
D03*
Y8937D02*
D03*
Y7937D02*
D03*
Y6937D02*
D03*
X2693Y12937D02*
D03*
Y11937D02*
D03*
Y10937D02*
D03*
Y9937D02*
D03*
Y8937D02*
D03*
Y7937D02*
D03*
Y6937D02*
D03*
X693Y12937D02*
D03*
Y11937D02*
D03*
Y10937D02*
D03*
Y9937D02*
D03*
Y8937D02*
D03*
Y7937D02*
D03*
Y6937D02*
D03*
X1693Y4937D02*
D03*
X693D02*
D03*
X1693Y3937D02*
D03*
X693D02*
D03*
X15984Y12362D02*
D03*
D23*
X16551Y5008D02*
D03*
X1693Y5937D02*
D03*
X2693D02*
D03*
X693D02*
D03*
D24*
X13937Y12323D02*
D03*
X6063D02*
D03*
D25*
X2693Y4937D02*
D03*
Y3937D02*
D03*
X16984Y12362D02*
D03*
D26*
X5630Y8465D02*
D03*
D27*
X4449Y13622D02*
D03*
X4453Y11217D02*
D03*
X9291Y8110D02*
D03*
X7319Y7087D02*
D03*
X7819D02*
D03*
X8319Y1535D02*
D03*
X7819D02*
D03*
X7319D02*
D03*
X6819D02*
D03*
X6319D02*
D03*
X5819D02*
D03*
M02*
