G04*
G04 #@! TF.GenerationSoftware,Altium Limited,Altium Designer,21.6.1 (37)*
G04*
G04 Layer_Physical_Order=2*
G04 Layer_Color=16711680*
%FSLAX24Y24*%
%MOIN*%
G70*
G04*
G04 #@! TF.SameCoordinates,F7370176-FC0D-4E3A-AC5E-E6B851427DC4*
G04*
G04*
G04 #@! TF.FilePolarity,Positive*
G04*
G01*
G75*
%ADD12C,0.0039*%
%ADD34C,0.0197*%
%ADD35C,0.0118*%
%ADD36C,0.0591*%
%ADD37R,0.0591X0.0591*%
%ADD38C,0.0866*%
%ADD39R,0.0591X0.0591*%
%ADD40C,0.1181*%
%ADD41C,0.0276*%
D12*
X8271Y315D02*
X8402D01*
Y118D01*
X8271D01*
X8402Y216D02*
X8337D01*
X8206Y118D02*
X8140D01*
X8173D01*
Y315D01*
X8206Y282D01*
X8042D02*
X8009Y315D01*
X7943D01*
X7910Y282D01*
Y249D01*
X7943Y216D01*
X7910Y184D01*
Y151D01*
X7943Y118D01*
X8009D01*
X8042Y151D01*
Y184D01*
X8009Y216D01*
X8042Y249D01*
Y282D01*
X8009Y216D02*
X7943D01*
X7845D02*
X7714D01*
X7648Y118D02*
Y315D01*
X7582Y249D01*
X7517Y315D01*
Y118D01*
X7320Y282D02*
X7353Y315D01*
X7418D01*
X7451Y282D01*
Y249D01*
X7418Y216D01*
X7353D01*
X7320Y184D01*
Y151D01*
X7353Y118D01*
X7418D01*
X7451Y151D01*
X7254Y118D02*
X7189D01*
X7222D01*
Y315D01*
X7254Y282D01*
X6894Y249D02*
X6828Y118D01*
X6763Y249D01*
X6697Y118D02*
X6631D01*
X6664D01*
Y315D01*
X6697Y282D01*
X6533Y118D02*
Y151D01*
X6500D01*
Y118D01*
X6533D01*
X6369Y282D02*
X6336Y315D01*
X6271D01*
X6238Y282D01*
Y151D01*
X6271Y118D01*
X6336D01*
X6369Y151D01*
Y282D01*
X6172Y118D02*
Y151D01*
X6139D01*
Y118D01*
X6172D01*
X6008Y282D02*
X5975Y315D01*
X5910D01*
X5877Y282D01*
Y151D01*
X5910Y118D01*
X5975D01*
X6008Y151D01*
Y282D01*
X5615D02*
X5582Y315D01*
X5516D01*
X5483Y282D01*
Y151D01*
X5516Y118D01*
X5582D01*
X5615Y151D01*
Y282D01*
X5418D02*
X5385Y315D01*
X5319D01*
X5287Y282D01*
Y249D01*
X5319Y216D01*
X5287Y184D01*
Y151D01*
X5319Y118D01*
X5385D01*
X5418Y151D01*
Y184D01*
X5385Y216D01*
X5418Y249D01*
Y282D01*
X5385Y216D02*
X5319D01*
X5221Y118D02*
X5090Y249D01*
X4893Y118D02*
X5024D01*
X4893Y249D01*
Y282D01*
X4926Y315D01*
X4991D01*
X5024Y282D01*
X4827D02*
X4795Y315D01*
X4729D01*
X4696Y282D01*
Y151D01*
X4729Y118D01*
X4795D01*
X4827Y151D01*
Y282D01*
X4499Y118D02*
X4631D01*
X4499Y249D01*
Y282D01*
X4532Y315D01*
X4598D01*
X4631Y282D01*
X4434Y118D02*
X4368D01*
X4401D01*
Y315D01*
X4434Y282D01*
D34*
X13957Y12343D02*
X15965D01*
X17008Y4564D02*
Y9008D01*
X16110Y4449D02*
X16893D01*
X17008Y4564D01*
X15551Y5008D02*
X16110Y4449D01*
X4957Y11217D02*
X6063Y12323D01*
X4453Y11217D02*
X4957D01*
X16551Y9008D02*
X17008D01*
Y12339D01*
X16984Y12362D02*
X17008Y12339D01*
D35*
X15098Y6398D02*
X15488Y6008D01*
X8740Y7598D02*
X9370D01*
X15098Y6398D02*
Y7382D01*
X9898Y8071D02*
X14409D01*
X15098Y7382D01*
X9370Y7598D02*
X9389Y7617D01*
X9444D01*
X9898Y8071D01*
X8528Y7795D02*
X9370D01*
X16082Y6477D02*
X16551Y6008D01*
X9370Y7795D02*
X9843Y8268D01*
X14606D01*
X15354Y7520D01*
X15906D01*
X16082Y6477D02*
Y7343D01*
X15906Y7520D02*
X16082Y7343D01*
X9291Y8110D02*
X9685Y8504D01*
X16055D01*
X16551Y8008D01*
X693Y12437D02*
Y12937D01*
Y11937D02*
Y12437D01*
X2756Y13622D02*
X4449D01*
X2205Y13071D02*
X2756Y13622D01*
X2205Y12598D02*
Y13071D01*
X2043Y12437D02*
X2205Y12598D01*
X693Y12437D02*
X2043D01*
X7319Y7087D02*
X7576Y6830D01*
X7972D01*
X8740Y7598D01*
X15488Y6008D02*
X15551D01*
X7819Y7087D02*
X8528Y7795D01*
X693Y9937D02*
Y10937D01*
Y6937D02*
Y7937D01*
Y8937D01*
Y3937D02*
Y4937D01*
Y8937D02*
Y9937D01*
Y10937D02*
Y11937D01*
Y4937D02*
Y5937D01*
Y6937D01*
X1693Y7937D02*
Y8937D01*
Y4937D02*
Y5937D01*
Y8937D02*
Y9937D01*
Y6937D02*
Y7937D01*
Y9937D02*
Y10937D01*
Y5937D02*
Y6937D01*
Y10937D02*
Y11937D01*
Y3937D02*
Y4937D01*
X4134Y3228D02*
Y11496D01*
X4764Y2598D02*
X7256D01*
X4134Y3228D02*
X4764Y2598D01*
X3937Y3150D02*
Y10693D01*
X4685Y2402D02*
X6953D01*
X3937Y3150D02*
X4685Y2402D01*
X4571Y2205D02*
X6650D01*
X3740Y3035D02*
Y9890D01*
Y3035D02*
X4571Y2205D01*
X3543Y2953D02*
X4488Y2008D01*
X3543Y2953D02*
Y9087D01*
X4488Y2008D02*
X6346D01*
X3346Y2835D02*
X4370Y1811D01*
X6043D01*
X3346Y2835D02*
Y8283D01*
X4331Y1535D02*
X5819D01*
X3150Y2717D02*
Y7480D01*
Y2717D02*
X4331Y1535D01*
X2693Y12937D02*
X4134Y11496D01*
X2693Y11937D02*
X3937Y10693D01*
X2693Y10937D02*
X3740Y9890D01*
X2693Y9937D02*
X3543Y9087D01*
X2693Y8937D02*
X3346Y8283D01*
X7256Y2598D02*
X8319Y1535D01*
X6953Y2402D02*
X7819Y1535D01*
X6650Y2205D02*
X7319Y1535D01*
X6346Y2008D02*
X6819Y1535D01*
X6043Y1811D02*
X6319Y1535D01*
X2693Y7937D02*
X3150Y7480D01*
D36*
X15551Y9008D02*
D03*
X16551D02*
D03*
X15551Y8008D02*
D03*
X16551D02*
D03*
X15551Y7008D02*
D03*
X16551D02*
D03*
X15551Y6008D02*
D03*
X16551D02*
D03*
X15551Y5008D02*
D03*
X1693Y12937D02*
D03*
Y11937D02*
D03*
Y10937D02*
D03*
Y9937D02*
D03*
Y8937D02*
D03*
Y7937D02*
D03*
Y6937D02*
D03*
X2693Y12937D02*
D03*
Y11937D02*
D03*
Y10937D02*
D03*
Y9937D02*
D03*
Y8937D02*
D03*
Y7937D02*
D03*
Y6937D02*
D03*
X693Y12937D02*
D03*
Y11937D02*
D03*
Y10937D02*
D03*
Y9937D02*
D03*
Y8937D02*
D03*
Y7937D02*
D03*
Y6937D02*
D03*
X1693Y4937D02*
D03*
X693D02*
D03*
X1693Y3937D02*
D03*
X693D02*
D03*
X15984Y12362D02*
D03*
D37*
X16551Y5008D02*
D03*
X1693Y5937D02*
D03*
X2693D02*
D03*
X693D02*
D03*
D38*
X13937Y12323D02*
D03*
X6063D02*
D03*
D39*
X2693Y4937D02*
D03*
Y3937D02*
D03*
X16984Y12362D02*
D03*
D40*
X5630Y8465D02*
D03*
D41*
X4449Y13622D02*
D03*
X4453Y11217D02*
D03*
X9291Y8110D02*
D03*
X7319Y7087D02*
D03*
X7819D02*
D03*
X8319Y1535D02*
D03*
X7819D02*
D03*
X7319D02*
D03*
X6819D02*
D03*
X6319D02*
D03*
X5819D02*
D03*
M02*
