G04*
G04 #@! TF.GenerationSoftware,Altium Limited,Altium Designer,21.6.1 (37)*
G04*
G04 Layer_Physical_Order=1*
G04 Layer_Color=255*
%FSLAX24Y24*%
%MOIN*%
G70*
G04*
G04 #@! TF.SameCoordinates,F7370176-FC0D-4E3A-AC5E-E6B851427DC4*
G04*
G04*
G04 #@! TF.FilePolarity,Positive*
G04*
G01*
G75*
%ADD12C,0.0039*%
%ADD28R,0.0787X0.0630*%
%ADD29R,0.1004X0.0787*%
%ADD30R,0.0354X0.0335*%
%ADD31R,0.0394X0.0787*%
%ADD32R,0.0787X0.0394*%
%ADD33R,0.0236X0.0315*%
%ADD34C,0.0197*%
%ADD35C,0.0118*%
%ADD36C,0.0591*%
%ADD37R,0.0591X0.0591*%
%ADD38C,0.0866*%
%ADD39R,0.0591X0.0591*%
%ADD40C,0.1181*%
%ADD41C,0.0276*%
D12*
X4492Y315D02*
X4361D01*
Y118D01*
X4492D01*
X4361Y216D02*
X4426D01*
X4558Y118D02*
X4623D01*
X4590D01*
Y315D01*
X4558Y282D01*
X4722D02*
X4754Y315D01*
X4820D01*
X4853Y282D01*
Y249D01*
X4820Y216D01*
X4853Y184D01*
Y151D01*
X4820Y118D01*
X4754D01*
X4722Y151D01*
Y184D01*
X4754Y216D01*
X4722Y249D01*
Y282D01*
X4754Y216D02*
X4820D01*
X4918D02*
X5050D01*
X5115Y118D02*
Y315D01*
X5181Y249D01*
X5246Y315D01*
Y118D01*
X5443Y282D02*
X5410Y315D01*
X5345D01*
X5312Y282D01*
Y249D01*
X5345Y216D01*
X5410D01*
X5443Y184D01*
Y151D01*
X5410Y118D01*
X5345D01*
X5312Y151D01*
X5509Y118D02*
X5574D01*
X5542D01*
Y315D01*
X5509Y282D01*
X5870Y249D02*
X5935Y118D01*
X6001Y249D01*
X6066Y118D02*
X6132D01*
X6099D01*
Y315D01*
X6066Y282D01*
X6230Y118D02*
Y151D01*
X6263D01*
Y118D01*
X6230D01*
X6394Y282D02*
X6427Y315D01*
X6493D01*
X6526Y282D01*
Y151D01*
X6493Y118D01*
X6427D01*
X6394Y151D01*
Y282D01*
X6591Y118D02*
Y151D01*
X6624D01*
Y118D01*
X6591D01*
X6755Y282D02*
X6788Y315D01*
X6854D01*
X6886Y282D01*
Y151D01*
X6854Y118D01*
X6788D01*
X6755Y151D01*
Y282D01*
X7149D02*
X7182Y315D01*
X7247D01*
X7280Y282D01*
Y151D01*
X7247Y118D01*
X7182D01*
X7149Y151D01*
Y282D01*
X7345D02*
X7378Y315D01*
X7444D01*
X7477Y282D01*
Y249D01*
X7444Y216D01*
X7477Y184D01*
Y151D01*
X7444Y118D01*
X7378D01*
X7345Y151D01*
Y184D01*
X7378Y216D01*
X7345Y249D01*
Y282D01*
X7378Y216D02*
X7444D01*
X7542Y118D02*
X7673Y249D01*
X7870Y118D02*
X7739D01*
X7870Y249D01*
Y282D01*
X7837Y315D01*
X7772D01*
X7739Y282D01*
X7936D02*
X7969Y315D01*
X8034D01*
X8067Y282D01*
Y151D01*
X8034Y118D01*
X7969D01*
X7936Y151D01*
Y282D01*
X8264Y118D02*
X8133D01*
X8264Y249D01*
Y282D01*
X8231Y315D01*
X8165D01*
X8133Y282D01*
X8329Y118D02*
X8395D01*
X8362D01*
Y315D01*
X8329Y282D01*
D28*
X6535Y15709D02*
D03*
X4409D02*
D03*
D29*
X4449Y10551D02*
D03*
Y12913D02*
D03*
D30*
X8799Y7362D02*
D03*
X8287D02*
D03*
D31*
X8819Y6378D02*
D03*
X8319D02*
D03*
X7819D02*
D03*
X7319D02*
D03*
X6819D02*
D03*
X6319D02*
D03*
X5819D02*
D03*
X5319Y827D02*
D03*
X5819D02*
D03*
X6319D02*
D03*
X6819D02*
D03*
X7319D02*
D03*
X7819D02*
D03*
X8319D02*
D03*
X8819D02*
D03*
X5319Y6378D02*
D03*
D32*
X4429Y5346D02*
D03*
Y4846D02*
D03*
Y4346D02*
D03*
Y3846D02*
D03*
Y3346D02*
D03*
Y2846D02*
D03*
Y2346D02*
D03*
Y1846D02*
D03*
D33*
X3711Y6929D02*
D03*
X4321D02*
D03*
D34*
X4449Y12992D02*
Y13622D01*
X16060Y12053D02*
X16063Y12050D01*
X16060Y12053D02*
Y12287D01*
X15984Y12362D02*
X16060Y12287D01*
X16063Y5496D02*
Y12050D01*
Y5496D02*
X16551Y5008D01*
X6732Y11654D02*
X14370D01*
X15630Y12913D02*
X16433D01*
X14370Y11654D02*
X15630Y12913D01*
X16433D02*
X16984Y12362D01*
X4449Y12913D02*
Y12992D01*
X4464Y13716D02*
X6457Y15709D01*
X4464Y13637D02*
Y13716D01*
X6457Y15709D02*
X6535D01*
X4449Y13622D02*
X4464Y13637D01*
X13268Y12992D02*
X13937Y12323D01*
X4528Y12992D02*
X13268D01*
X4449Y12913D02*
X4528Y12992D01*
X6063Y12323D02*
X6732Y11654D01*
X8319Y6378D02*
Y7335D01*
X7165Y11220D02*
X8799Y9587D01*
X4449Y12008D02*
X5236Y11220D01*
X7165D01*
X4449Y10551D02*
Y11212D01*
X4453Y11217D01*
X4449Y12008D02*
Y12913D01*
X8799Y7362D02*
Y9587D01*
Y7362D02*
X8819Y7343D01*
Y6378D02*
Y7343D01*
X8287Y7362D02*
Y9429D01*
X4449Y10551D02*
X7165D01*
X8287Y9429D01*
X13937Y12323D02*
X13957Y12343D01*
D35*
X1693Y11937D02*
Y12937D01*
X4409Y14528D02*
Y15709D01*
X3386Y13504D02*
X4409Y14528D01*
X1189Y7441D02*
X3199D01*
X693Y7937D02*
X1189Y7441D01*
X3199D02*
X3612Y7028D01*
X3711Y6929D02*
Y6969D01*
X3652Y7028D02*
X3711Y6969D01*
X3612Y7028D02*
X3652D01*
X3386Y9961D02*
Y13504D01*
Y9961D02*
X4016Y9331D01*
Y6575D02*
Y9331D01*
X6683Y5817D02*
Y6242D01*
X6819Y6378D01*
X6614Y5748D02*
X6683Y5817D01*
X5190Y5748D02*
X6614D01*
X4761Y6177D02*
Y6184D01*
Y6177D02*
X5190Y5748D01*
X4321Y6624D02*
Y6929D01*
Y6624D02*
X4761Y6184D01*
X5012Y1331D02*
Y5579D01*
X4016Y6575D02*
X5012Y5579D01*
X9291Y4665D02*
Y8110D01*
X8819Y827D02*
Y4193D01*
X9291Y4665D01*
X1693Y4937D02*
X2189Y5433D01*
X3071D01*
X7319Y6378D02*
Y7087D01*
X7819Y6378D02*
Y7087D01*
X3888Y2372D02*
X4404D01*
X3268Y2992D02*
X3888Y2372D01*
X3268Y2992D02*
Y5236D01*
X5012Y1331D02*
X5319Y1024D01*
Y827D02*
Y1024D01*
X8319Y827D02*
Y1535D01*
X7819Y827D02*
Y1535D01*
X7319Y827D02*
Y1535D01*
X6819Y827D02*
Y1535D01*
X6319Y827D02*
Y1535D01*
X5819Y827D02*
Y1535D01*
X3927Y1939D02*
X4337D01*
X2992Y2874D02*
X3927Y1939D01*
X2992Y2874D02*
Y3638D01*
X4337Y1939D02*
X4429Y1846D01*
X4404Y2372D02*
X4429Y2346D01*
X3220Y5937D02*
X3483Y5674D01*
X3888Y2846D02*
X4429D01*
X3483Y3251D02*
Y5674D01*
Y3251D02*
X3888Y2846D01*
X2693Y6937D02*
X3661Y5968D01*
Y3583D02*
X3898Y3346D01*
X3661Y3583D02*
Y5968D01*
X3898Y3346D02*
X4429D01*
X2693Y5937D02*
X3220D01*
X2693Y3937D02*
X2992Y3638D01*
X2693Y3937D02*
Y4937D01*
X3071Y5433D02*
X3268Y5236D01*
D36*
X15551Y9008D02*
D03*
X16551D02*
D03*
X15551Y8008D02*
D03*
X16551D02*
D03*
X15551Y7008D02*
D03*
X16551D02*
D03*
X15551Y6008D02*
D03*
X16551D02*
D03*
X15551Y5008D02*
D03*
X1693Y12937D02*
D03*
Y11937D02*
D03*
Y10937D02*
D03*
Y9937D02*
D03*
Y8937D02*
D03*
Y7937D02*
D03*
Y6937D02*
D03*
X2693Y12937D02*
D03*
Y11937D02*
D03*
Y10937D02*
D03*
Y9937D02*
D03*
Y8937D02*
D03*
Y7937D02*
D03*
Y6937D02*
D03*
X693Y12937D02*
D03*
Y11937D02*
D03*
Y10937D02*
D03*
Y9937D02*
D03*
Y8937D02*
D03*
Y7937D02*
D03*
Y6937D02*
D03*
X1693Y4937D02*
D03*
X693D02*
D03*
X1693Y3937D02*
D03*
X693D02*
D03*
X15984Y12362D02*
D03*
D37*
X16551Y5008D02*
D03*
X1693Y5937D02*
D03*
X2693D02*
D03*
X693D02*
D03*
D38*
X13937Y12323D02*
D03*
X6063D02*
D03*
D39*
X2693Y4937D02*
D03*
Y3937D02*
D03*
X16984Y12362D02*
D03*
D40*
X5630Y8465D02*
D03*
D41*
X4449Y13622D02*
D03*
X4453Y11217D02*
D03*
X9291Y8110D02*
D03*
X7319Y7087D02*
D03*
X7819D02*
D03*
X8319Y1535D02*
D03*
X7819D02*
D03*
X7319D02*
D03*
X6819D02*
D03*
X6319D02*
D03*
X5819D02*
D03*
M02*
