G04*
G04 #@! TF.GenerationSoftware,Altium Limited,Altium Designer,21.6.1 (37)*
G04*
G04 Layer_Color=32896*
%FSLAX24Y24*%
%MOIN*%
G70*
G04*
G04 #@! TF.SameCoordinates,F7370176-FC0D-4E3A-AC5E-E6B851427DC4*
G04*
G04*
G04 #@! TF.FilePolarity,Positive*
G04*
G01*
G75*
%ADD12C,0.0039*%
D12*
X13483Y-0D02*
X13483Y0D01*
X13386D02*
X13483D01*
X13386D02*
X13483Y-0D01*
X13483Y16929D02*
X13673Y16891D01*
X13386Y16929D02*
X13483Y16929D01*
X8858Y16929D02*
X13386Y16929D01*
X4331Y16929D02*
X8858D01*
X4234Y16929D02*
X4331Y16929D01*
X4044Y16891D02*
X4234Y16929D01*
X3864Y16817D02*
X4044Y16891D01*
X3703Y16709D02*
X3864Y16817D01*
X3566Y16572D02*
X3703Y16709D01*
X3458Y16411D02*
X3566Y16572D01*
X3384Y16232D02*
X3458Y16411D01*
X3346Y16042D02*
X3384Y16232D01*
X3346Y16042D02*
X3346Y15945D01*
X3344Y15829D02*
X3346Y15945D01*
X3321Y15598D02*
X3344Y15829D01*
X3276Y15371D02*
X3321Y15598D01*
X3208Y15149D02*
X3276Y15371D01*
X3120Y14935D02*
X3208Y15149D01*
X3010Y14730D02*
X3120Y14935D01*
X2882Y14538D02*
X3010Y14730D01*
X2735Y14359D02*
X2882Y14538D01*
X2571Y14195D02*
X2735Y14359D01*
X2391Y14048D02*
X2571Y14195D01*
X2199Y13919D02*
X2391Y14048D01*
X1994Y13809D02*
X2199Y13919D01*
X1780Y13721D02*
X1994Y13809D01*
X1558Y13653D02*
X1780Y13721D01*
X1331Y13608D02*
X1558Y13653D01*
X1100Y13586D02*
X1331Y13608D01*
X984Y13583D02*
X1100Y13586D01*
X887Y13583D02*
X984Y13583D01*
X697Y13545D02*
X887Y13583D01*
X518Y13471D02*
X697Y13545D01*
X357Y13363D02*
X518Y13471D01*
X220Y13226D02*
X357Y13363D01*
X112Y13065D02*
X220Y13226D01*
X38Y12886D02*
X112Y13065D01*
X-0Y12695D02*
X38Y12886D01*
X-0Y12695D02*
X0Y12598D01*
Y8465D02*
Y12598D01*
Y4331D02*
Y8465D01*
Y4234D02*
Y4331D01*
Y4234D02*
X38Y4044D01*
X112Y3864D01*
X220Y3703D01*
X357Y3566D01*
X518Y3458D01*
X697Y3384D01*
X887Y3346D01*
X984Y3346D01*
X1100Y3344D01*
X1331Y3321D01*
X1558Y3276D01*
X1780Y3208D01*
X1994Y3120D01*
X2199Y3010D01*
X2391Y2882D01*
X2571Y2735D01*
X2735Y2571D01*
X2882Y2391D01*
X3010Y2199D01*
X3120Y1994D01*
X3208Y1780D01*
X3276Y1558D01*
X3321Y1331D01*
X3344Y1100D01*
X3346Y984D01*
X3346Y887D01*
X3384Y697D01*
X3458Y518D01*
X3566Y357D01*
X3703Y220D01*
X3864Y112D01*
X4044Y38D01*
X4234Y-0D01*
X4331Y0D01*
X9843D01*
Y7283D01*
X14797D01*
Y4133D02*
Y7283D01*
Y4133D02*
X17697Y4135D01*
X17717Y4234D01*
X17717Y4331D02*
X17717Y4234D01*
X17717Y4331D02*
X17717Y8465D01*
Y12598D01*
Y12695D01*
X17679Y12886D02*
X17717Y12695D01*
X17605Y13065D02*
X17679Y12886D01*
X17497Y13226D02*
X17605Y13065D01*
X17360Y13363D02*
X17497Y13226D01*
X17198Y13471D02*
X17360Y13363D01*
X17019Y13545D02*
X17198Y13471D01*
X16829Y13583D02*
X17019Y13545D01*
X16732Y13583D02*
X16829D01*
X16616Y13586D02*
X16732Y13583D01*
X16386Y13608D02*
X16616Y13586D01*
X16158Y13653D02*
X16386Y13608D01*
X15936Y13721D02*
X16158Y13653D01*
X15722Y13809D02*
X15936Y13721D01*
X15518Y13919D02*
X15722Y13809D01*
X15325Y14048D02*
X15518Y13919D01*
X15146Y14195D02*
X15325Y14048D01*
X14982Y14359D02*
X15146Y14195D01*
X14835Y14538D02*
X14982Y14359D01*
X14706Y14730D02*
X14835Y14538D01*
X14597Y14935D02*
X14706Y14730D01*
X14508Y15149D02*
X14597Y14935D01*
X14441Y15371D02*
X14508Y15149D01*
X14396Y15598D02*
X14441Y15371D01*
X14373Y15829D02*
X14396Y15598D01*
X14370Y15945D02*
X14373Y15829D01*
X14370Y15945D02*
X14370Y16042D01*
X14332Y16232D02*
X14370Y16042D01*
X14258Y16411D02*
X14332Y16232D01*
X14150Y16572D02*
X14258Y16411D01*
X14013Y16709D02*
X14150Y16572D01*
X13852Y16817D02*
X14013Y16709D01*
X13673Y16891D02*
X13852Y16817D01*
M02*
