M48
;Layer_Color=9474304
;FILE_FORMAT=2:5
INCH,LZ
;TYPE=PLATED
T01F00S00C0.01181
T02F00S00C0.03543
T03F00S00C0.10630
%
T01
X003235Y0014803
X0044161
X0050591Y0019429
Y0021398
Y0023366
X0054528Y0023366
Y0021398
Y0019429
X0059646
Y0021398
Y0023366
X0063583Y0023366
Y0021398
Y0019429
X0067783Y0014803
X0079594
X0084252Y0018898
X0087008
X0089764
X009252
X0091405Y0014803
X0080315Y0038583
X0085039Y0044094
X0079594Y0062047
X0067783
X0055972
X0044161
X0050067Y0050236
X0052756Y004252
X0051575Y0034646
X0042913Y0035039
X0036614Y0046063
X0026445Y0026614
X0008728Y0038425
X0062205Y0034646
X0055972Y0014803
X0103216Y0038425
T02
X0007087Y0027402
X0017087
Y0037402
Y0047402
X0007087
X0101024
X0111024
Y0027402
X0101024
T03
X0011811Y0011811
Y0062992
X0106299
Y0011811
M30
