M48
;Layer_Color=9474304
;FILE_FORMAT=2:5
INCH,LZ
;TYPE=PLATED
T1F00S00C0.01201
T2F00S00C0.03543
%
T01
X0065945Y0026969
X0068898Y0029921
X0040157Y0051968
X0031496Y0063779
X0029921Y0081102
X0027559Y0093701
X0029921Y0099213
X0038189Y0102165
X004439Y0099213
X0049409Y0102165
X005282Y0093935
X0053804Y0087046
Y008429
X0056757Y0085668
X005971Y0087046
Y008429
X0040157Y0089764
X0017717Y009685
X0020472Y0111811
X0025197Y0111811
X0029921Y0111811
X0057087Y0111417
X0059842Y0157087
X0052756Y0164961
X0050394Y0172835
X0055118Y0180709
X005748Y0188583
X0029921
X0027559Y0180709
X0025197Y0172835
X0022835Y0164961
X0020472Y0157087
X001811Y0141339
X0064567
X0062205Y0149213
X0062205Y0111417
X0067323
X0062992Y0090158
Y0080315
T02
X0077559Y0034567
Y0044567
Y0054567
Y0064567
X005559Y001811
X0045591
X0035591
X0025591
Y0006299
X0035591
X0045591
X005559
X0005118Y0103543
Y0113543
X0077559
Y0103543
Y008874
Y007874
M30
