G04 Layer_Physical_Order=1*
G04 Layer_Color=65280*
%FSLAX24Y24*%
%MOIN*%
G70*
G01*
G75*
%ADD10R,0.0472X0.0689*%
%ADD11R,0.0335X0.0256*%
%ADD12R,0.0472X0.0787*%
%ADD13R,0.0315X0.0110*%
%ADD14R,0.0256X0.0335*%
%ADD15R,0.0236X0.0433*%
%ADD16R,0.0800X0.0250*%
%ADD17R,0.0551X0.0394*%
%ADD18R,0.0354X0.0335*%
%ADD19R,0.0394X0.0551*%
%ADD20R,0.1181X0.0472*%
%ADD21R,0.0394X0.0394*%
%ADD22C,0.0394*%
%ADD23C,0.0118*%
%ADD24C,0.0098*%
%ADD25C,0.0394*%
%ADD26C,0.0059*%
%ADD27C,0.1339*%
%ADD28C,0.0591*%
%ADD29R,0.0591X0.0591*%
%ADD30C,0.0740*%
%ADD31C,0.0256*%
%ADD32C,0.0276*%
%ADD33C,0.0157*%
G36*
X8146Y121D02*
X121D01*
X121Y17145D01*
X1280D01*
Y21871D01*
X121D01*
X121Y30509D01*
X8146D01*
Y121D01*
D02*
G37*
%LPC*%
G36*
X1126Y10418D02*
X1014Y10403D01*
X909Y10360D01*
X819Y10291D01*
X750Y10201D01*
X707Y10096D01*
X692Y9984D01*
X707Y9872D01*
X750Y9767D01*
X819Y9678D01*
X909Y9609D01*
X1014Y9565D01*
X1126Y9551D01*
X1238Y9565D01*
X1343Y9609D01*
X1433Y9678D01*
X1502Y9767D01*
X1545Y9872D01*
X1560Y9984D01*
X1545Y10096D01*
X1502Y10201D01*
X1433Y10291D01*
X1343Y10360D01*
X1238Y10403D01*
X1126Y10418D01*
D02*
G37*
G36*
X7126D02*
X7014Y10403D01*
X6909Y10360D01*
X6819Y10291D01*
X6750Y10201D01*
X6707Y10096D01*
X6692Y9984D01*
X6707Y9872D01*
X6750Y9767D01*
X6819Y9678D01*
X6909Y9609D01*
X7014Y9565D01*
X7126Y9551D01*
X7238Y9565D01*
X7343Y9609D01*
X7433Y9678D01*
X7502Y9767D01*
X7545Y9872D01*
X7560Y9984D01*
X7545Y10096D01*
X7502Y10201D01*
X7433Y10291D01*
X7343Y10360D01*
X7238Y10403D01*
X7126Y10418D01*
D02*
G37*
G36*
X1126Y11418D02*
X1014Y11403D01*
X909Y11360D01*
X819Y11291D01*
X750Y11201D01*
X707Y11097D01*
X692Y10984D01*
X707Y10872D01*
X750Y10767D01*
X819Y10678D01*
X909Y10609D01*
X1014Y10565D01*
X1126Y10551D01*
X1238Y10565D01*
X1343Y10609D01*
X1433Y10678D01*
X1502Y10767D01*
X1545Y10872D01*
X1560Y10984D01*
X1545Y11097D01*
X1502Y11201D01*
X1433Y11291D01*
X1343Y11360D01*
X1238Y11403D01*
X1126Y11418D01*
D02*
G37*
G36*
Y9418D02*
X1014Y9403D01*
X909Y9360D01*
X819Y9291D01*
X750Y9201D01*
X707Y9097D01*
X692Y8984D01*
X707Y8872D01*
X750Y8767D01*
X819Y8678D01*
X909Y8609D01*
X1014Y8565D01*
X1126Y8551D01*
X1238Y8565D01*
X1343Y8609D01*
X1433Y8678D01*
X1502Y8767D01*
X1545Y8872D01*
X1560Y8984D01*
X1545Y9097D01*
X1502Y9201D01*
X1433Y9291D01*
X1343Y9360D01*
X1238Y9403D01*
X1126Y9418D01*
D02*
G37*
G36*
X5315Y21265D02*
X5238Y21249D01*
X5172Y21206D01*
X5129Y21140D01*
X5113Y21063D01*
X5129Y20986D01*
X5172Y20920D01*
X5238Y20877D01*
X5315Y20861D01*
X5340Y20866D01*
X6257Y19950D01*
Y9173D01*
X6257Y9173D01*
X6266Y9127D01*
X6292Y9087D01*
X6481Y8898D01*
X6481Y8898D01*
X6520Y8872D01*
X6567Y8863D01*
X6711D01*
X6750Y8767D01*
X6819Y8678D01*
X6909Y8609D01*
X7014Y8565D01*
X7126Y8551D01*
X7238Y8565D01*
X7343Y8609D01*
X7433Y8678D01*
X7502Y8767D01*
X7545Y8872D01*
X7560Y8984D01*
X7545Y9097D01*
X7502Y9201D01*
X7433Y9291D01*
X7343Y9360D01*
X7238Y9403D01*
X7126Y9418D01*
X7014Y9403D01*
X6909Y9360D01*
X6819Y9291D01*
X6750Y9201D01*
X6711Y9106D01*
X6617D01*
X6499Y9224D01*
Y20000D01*
X6499Y20000D01*
X6490Y20046D01*
X6464Y20086D01*
X6464Y20086D01*
X5512Y21038D01*
X5517Y21063D01*
X5501Y21140D01*
X5458Y21206D01*
X5392Y21249D01*
X5315Y21265D01*
D02*
G37*
G36*
X2276Y9868D02*
X2164Y9853D01*
X2059Y9810D01*
X1969Y9741D01*
X1900Y9651D01*
X1857Y9546D01*
X1842Y9434D01*
X1857Y9322D01*
X1897Y9227D01*
X1646Y8976D01*
X1620Y8937D01*
X1611Y8891D01*
X1611Y8891D01*
Y8031D01*
X1611Y8031D01*
X1620Y7985D01*
X1646Y7946D01*
X1922Y7670D01*
X1922Y7670D01*
X1961Y7644D01*
X2008Y7635D01*
X2008Y7635D01*
X3060D01*
X3146Y7548D01*
Y6861D01*
X3024Y6739D01*
X2998Y6700D01*
X2989Y6654D01*
X2989Y6654D01*
Y4696D01*
X2875Y4582D01*
X2816Y4593D01*
X2812Y4603D01*
X2766Y4622D01*
X2431D01*
X2385Y4603D01*
X2366Y4557D01*
Y4301D01*
X2385Y4255D01*
X2431Y4236D01*
X2477D01*
Y3628D01*
X2303D01*
X2257Y3609D01*
X2238Y3563D01*
Y2972D01*
X2257Y2927D01*
X2303Y2907D01*
X2894D01*
X2940Y2927D01*
X2959Y2972D01*
Y3563D01*
X2940Y3609D01*
X2894Y3628D01*
X2720D01*
Y4236D01*
X2766D01*
X2812Y4255D01*
X2831Y4301D01*
Y4308D01*
X2894D01*
X2894Y4308D01*
X2940Y4317D01*
X2980Y4343D01*
X3196Y4560D01*
X3222Y4599D01*
X3232Y4646D01*
X3232Y4646D01*
Y6603D01*
X3354Y6725D01*
X3354Y6725D01*
X3380Y6765D01*
X3389Y6811D01*
X3389Y6811D01*
Y7598D01*
X3389Y7598D01*
X3380Y7645D01*
X3354Y7684D01*
X3354Y7684D01*
X3196Y7842D01*
X3157Y7868D01*
X3110Y7877D01*
X3110Y7877D01*
X2058D01*
X1854Y8082D01*
Y8178D01*
X1863Y8186D01*
X1931Y8177D01*
X1969Y8128D01*
X2059Y8059D01*
X2164Y8015D01*
X2276Y8001D01*
X2388Y8015D01*
X2493Y8059D01*
X2583Y8128D01*
X2652Y8217D01*
X2691Y8313D01*
X3130D01*
X3973Y7469D01*
Y4696D01*
X3873Y4596D01*
X3835Y4603D01*
X3789Y4622D01*
X3455D01*
X3409Y4603D01*
X3390Y4557D01*
Y4301D01*
X3409Y4255D01*
X3455Y4236D01*
X3477D01*
Y3602D01*
X3419Y3578D01*
X3345Y3521D01*
X3288Y3447D01*
X3252Y3360D01*
X3240Y3268D01*
X3252Y3175D01*
X3288Y3089D01*
X3345Y3014D01*
X3419Y2957D01*
X3506Y2922D01*
X3598Y2909D01*
X3691Y2922D01*
X3778Y2957D01*
X3852Y3014D01*
X3909Y3089D01*
X3945Y3175D01*
X3957Y3268D01*
X3945Y3360D01*
X3909Y3447D01*
X3852Y3521D01*
X3778Y3578D01*
X3720Y3602D01*
Y4236D01*
X3789D01*
X3835Y4255D01*
X3847Y4284D01*
X3854D01*
X3854Y4284D01*
X3901Y4293D01*
X3940Y4320D01*
X4180Y4560D01*
X4180Y4560D01*
X4207Y4599D01*
X4216Y4646D01*
X4216Y4646D01*
Y7520D01*
X4216Y7520D01*
X4207Y7566D01*
X4180Y7606D01*
X3266Y8520D01*
X3226Y8546D01*
X3180Y8556D01*
X3180Y8556D01*
X2691D01*
X2652Y8651D01*
X2583Y8741D01*
X2493Y8810D01*
X2388Y8853D01*
X2276Y8868D01*
X2164Y8853D01*
X2059Y8810D01*
X1969Y8741D01*
X1931Y8691D01*
X1863Y8683D01*
X1854Y8690D01*
Y8840D01*
X2068Y9055D01*
X2164Y9015D01*
X2276Y9001D01*
X2388Y9015D01*
X2493Y9059D01*
X2583Y9128D01*
X2652Y9217D01*
X2695Y9322D01*
X2710Y9434D01*
X2695Y9546D01*
X2652Y9651D01*
X2583Y9741D01*
X2493Y9810D01*
X2388Y9853D01*
X2276Y9868D01*
D02*
G37*
G36*
X7126Y11418D02*
X7014Y11403D01*
X6909Y11360D01*
X6819Y11291D01*
X6750Y11201D01*
X6707Y11097D01*
X6692Y10984D01*
X6707Y10872D01*
X6750Y10767D01*
X6819Y10678D01*
X6909Y10609D01*
X7014Y10565D01*
X7126Y10551D01*
X7238Y10565D01*
X7343Y10609D01*
X7433Y10678D01*
X7502Y10767D01*
X7545Y10872D01*
X7560Y10984D01*
X7545Y11097D01*
X7502Y11201D01*
X7433Y11291D01*
X7343Y11360D01*
X7238Y11403D01*
X7126Y11418D01*
D02*
G37*
G36*
X2276Y12968D02*
X2164Y12953D01*
X2059Y12910D01*
X1969Y12841D01*
X1900Y12751D01*
X1857Y12646D01*
X1842Y12534D01*
X1857Y12422D01*
X1900Y12317D01*
X1969Y12228D01*
X2059Y12159D01*
X2152Y12120D01*
X2142Y12070D01*
X1548D01*
X1545Y12097D01*
X1502Y12201D01*
X1433Y12291D01*
X1343Y12360D01*
X1238Y12403D01*
X1126Y12418D01*
X1014Y12403D01*
X909Y12360D01*
X819Y12291D01*
X750Y12201D01*
X707Y12097D01*
X692Y11984D01*
X707Y11872D01*
X750Y11767D01*
X819Y11678D01*
X909Y11609D01*
X1014Y11565D01*
X1126Y11551D01*
X1238Y11565D01*
X1343Y11609D01*
X1433Y11678D01*
X1502Y11767D01*
X1526Y11827D01*
X2917D01*
Y11821D01*
X2936Y11775D01*
X2982Y11756D01*
X3317D01*
X3363Y11775D01*
X3382Y11821D01*
Y11827D01*
X3469D01*
Y11821D01*
X3488Y11775D01*
X3533Y11756D01*
X3868D01*
X3914Y11775D01*
X3933Y11821D01*
Y12077D01*
X3914Y12123D01*
X3868Y12142D01*
X3533D01*
X3488Y12123D01*
X3469Y12077D01*
Y12070D01*
X3382D01*
Y12077D01*
X3363Y12123D01*
X3317Y12142D01*
X2982D01*
X2936Y12123D01*
X2917Y12077D01*
Y12070D01*
X2410D01*
X2400Y12120D01*
X2493Y12159D01*
X2583Y12228D01*
X2652Y12317D01*
X2695Y12422D01*
X2710Y12534D01*
X2695Y12646D01*
X2652Y12751D01*
X2583Y12841D01*
X2493Y12910D01*
X2388Y12953D01*
X2276Y12968D01*
D02*
G37*
G36*
X1126Y13418D02*
X1014Y13403D01*
X909Y13360D01*
X819Y13291D01*
X750Y13201D01*
X707Y13096D01*
X692Y12984D01*
X707Y12872D01*
X750Y12767D01*
X819Y12678D01*
X909Y12609D01*
X1014Y12565D01*
X1126Y12551D01*
X1238Y12565D01*
X1343Y12609D01*
X1433Y12678D01*
X1502Y12767D01*
X1545Y12872D01*
X1560Y12984D01*
X1545Y13096D01*
X1502Y13201D01*
X1433Y13291D01*
X1343Y13360D01*
X1238Y13403D01*
X1126Y13418D01*
D02*
G37*
G36*
X7126D02*
X7014Y13403D01*
X6909Y13360D01*
X6819Y13291D01*
X6750Y13201D01*
X6707Y13096D01*
X6692Y12984D01*
X6707Y12872D01*
X6750Y12767D01*
X6819Y12678D01*
X6909Y12609D01*
X7014Y12565D01*
X7126Y12551D01*
X7238Y12565D01*
X7343Y12609D01*
X7433Y12678D01*
X7502Y12767D01*
X7545Y12872D01*
X7560Y12984D01*
X7545Y13096D01*
X7502Y13201D01*
X7433Y13291D01*
X7343Y13360D01*
X7238Y13403D01*
X7126Y13418D01*
D02*
G37*
G36*
X5030Y12949D02*
X4774D01*
X4728Y12930D01*
X4709Y12884D01*
Y12549D01*
X4728Y12503D01*
X4774Y12484D01*
X4817D01*
X4846Y12434D01*
X4837Y12411D01*
Y11978D01*
X4856Y11932D01*
X4898Y11915D01*
Y11141D01*
X4877Y11127D01*
X4833Y11061D01*
X4818Y10984D01*
X4833Y10907D01*
X4877Y10842D01*
X4943Y10798D01*
X5020Y10783D01*
X5097Y10798D01*
X5162Y10842D01*
X5206Y10907D01*
X5221Y10984D01*
X5206Y11061D01*
X5162Y11127D01*
X5141Y11141D01*
Y11915D01*
X5184Y11932D01*
X5203Y11978D01*
Y12411D01*
X5184Y12457D01*
X5141Y12475D01*
Y12598D01*
X5141Y12598D01*
X5132Y12645D01*
X5106Y12684D01*
X5106Y12684D01*
X5094Y12695D01*
Y12884D01*
X5075Y12930D01*
X5030Y12949D01*
D02*
G37*
G36*
X4764Y11709D02*
X4528D01*
X4482Y11690D01*
X4463Y11644D01*
Y11211D01*
X4469Y11195D01*
X4436Y11145D01*
X3940D01*
X3918Y11195D01*
X3933Y11230D01*
Y11486D01*
X3914Y11532D01*
X3868Y11551D01*
X3533D01*
X3488Y11532D01*
X3469Y11486D01*
Y11230D01*
X3488Y11184D01*
X3533Y11165D01*
X3579D01*
Y11102D01*
X3579Y11102D01*
X3589Y11056D01*
X3615Y11017D01*
X3694Y10938D01*
X3694Y10938D01*
X3733Y10911D01*
X3780Y10902D01*
X4567D01*
X4567Y10902D01*
X4613Y10911D01*
X4653Y10938D01*
X4732Y11017D01*
X4732Y11017D01*
X4758Y11056D01*
X4767Y11102D01*
Y11147D01*
X4810Y11165D01*
X4829Y11211D01*
Y11644D01*
X4810Y11690D01*
X4764Y11709D01*
D02*
G37*
G36*
X7126Y12418D02*
X7014Y12403D01*
X6909Y12360D01*
X6819Y12291D01*
X6750Y12201D01*
X6707Y12097D01*
X6692Y11984D01*
X6707Y11872D01*
X6750Y11767D01*
X6819Y11678D01*
X6909Y11609D01*
X7014Y11565D01*
X7126Y11551D01*
X7238Y11565D01*
X7343Y11609D01*
X7433Y11678D01*
X7502Y11767D01*
X7545Y11872D01*
X7560Y11984D01*
X7545Y12097D01*
X7502Y12201D01*
X7433Y12291D01*
X7343Y12360D01*
X7238Y12403D01*
X7126Y12418D01*
D02*
G37*
G36*
X4598Y2563D02*
X4506Y2551D01*
X4419Y2515D01*
X4345Y2458D01*
X4288Y2384D01*
X4252Y2297D01*
X4240Y2205D01*
X4252Y2112D01*
X4288Y2026D01*
X4345Y1951D01*
X4419Y1894D01*
X4506Y1859D01*
X4598Y1846D01*
X4691Y1859D01*
X4778Y1894D01*
X4852Y1951D01*
X4909Y2026D01*
X4945Y2112D01*
X4957Y2205D01*
X4945Y2297D01*
X4909Y2384D01*
X4852Y2458D01*
X4778Y2515D01*
X4691Y2551D01*
X4598Y2563D01*
D02*
G37*
G36*
X5598Y3626D02*
X5506Y3614D01*
X5419Y3578D01*
X5345Y3521D01*
X5288Y3447D01*
X5252Y3360D01*
X5240Y3268D01*
X5252Y3175D01*
X5288Y3089D01*
X5345Y3014D01*
X5419Y2957D01*
X5506Y2922D01*
X5598Y2909D01*
X5691Y2922D01*
X5778Y2957D01*
X5852Y3014D01*
X5909Y3089D01*
X5945Y3175D01*
X5957Y3268D01*
X5945Y3360D01*
X5909Y3447D01*
X5852Y3521D01*
X5778Y3578D01*
X5691Y3614D01*
X5598Y3626D01*
D02*
G37*
G36*
X1126Y5418D02*
X1014Y5403D01*
X909Y5360D01*
X819Y5291D01*
X750Y5201D01*
X707Y5096D01*
X692Y4984D01*
X707Y4872D01*
X750Y4767D01*
X819Y4678D01*
X909Y4609D01*
X1014Y4565D01*
X1126Y4551D01*
X1238Y4565D01*
X1343Y4609D01*
X1433Y4678D01*
X1502Y4767D01*
X1545Y4872D01*
X1560Y4984D01*
X1545Y5096D01*
X1502Y5201D01*
X1433Y5291D01*
X1343Y5360D01*
X1238Y5403D01*
X1126Y5418D01*
D02*
G37*
G36*
X775Y1443D02*
X767Y1440D01*
X758Y1441D01*
X658Y1414D01*
X651Y1409D01*
X642Y1407D01*
X553Y1356D01*
X547Y1349D01*
X539Y1345D01*
X466Y1272D01*
X462Y1264D01*
X455Y1258D01*
X404Y1169D01*
X403Y1160D01*
X397Y1153D01*
X370Y1053D01*
X371Y1044D01*
X368Y1036D01*
Y984D01*
X368Y932D01*
X371Y924D01*
X370Y916D01*
X397Y815D01*
X403Y809D01*
X404Y800D01*
X455Y710D01*
X462Y705D01*
X466Y697D01*
X539Y623D01*
X547Y620D01*
X553Y613D01*
X642Y561D01*
X651Y560D01*
X658Y555D01*
X758Y528D01*
X767Y529D01*
X775Y526D01*
X879Y526D01*
X887Y529D01*
X895Y528D01*
X996Y555D01*
X1002Y560D01*
X1011Y561D01*
X1101Y613D01*
X1106Y620D01*
X1114Y623D01*
X1188Y697D01*
X1191Y705D01*
X1198Y710D01*
X1250Y800D01*
X1251Y809D01*
X1256Y815D01*
X1283Y916D01*
X1282Y924D01*
X1285Y932D01*
Y1036D01*
X1282Y1044D01*
X1283Y1053D01*
X1256Y1153D01*
X1251Y1160D01*
X1250Y1169D01*
X1198Y1258D01*
X1191Y1264D01*
X1188Y1272D01*
X1114Y1345D01*
X1106Y1349D01*
X1101Y1356D01*
X1011Y1407D01*
X1003Y1409D01*
X996Y1414D01*
X895Y1441D01*
X887Y1440D01*
X879Y1443D01*
X775Y1443D01*
D02*
G37*
G36*
X2894Y2565D02*
X2303D01*
X2257Y2546D01*
X2238Y2500D01*
Y1909D01*
X2257Y1864D01*
X2303Y1845D01*
X2894D01*
X2940Y1864D01*
X2959Y1909D01*
Y2500D01*
X2940Y2546D01*
X2894Y2565D01*
D02*
G37*
G36*
X4528Y10202D02*
X4450Y10186D01*
X4385Y10143D01*
X4341Y10077D01*
X4326Y10000D01*
X4341Y9923D01*
X4385Y9857D01*
X4406Y9843D01*
Y4538D01*
X4048Y4180D01*
X4022Y4141D01*
X4012Y4094D01*
X4012Y4094D01*
Y3027D01*
X3541Y2556D01*
X3506Y2551D01*
X3419Y2515D01*
X3345Y2458D01*
X3288Y2384D01*
X3252Y2297D01*
X3240Y2205D01*
X3252Y2112D01*
X3288Y2026D01*
X3345Y1951D01*
X3419Y1894D01*
X3506Y1859D01*
X3598Y1846D01*
X3691Y1859D01*
X3778Y1894D01*
X3852Y1951D01*
X3909Y2026D01*
X3945Y2112D01*
X3957Y2205D01*
X3945Y2297D01*
X3909Y2384D01*
X3852Y2458D01*
X3845Y2463D01*
X3842Y2513D01*
X4220Y2891D01*
X4220Y2891D01*
X4246Y2930D01*
X4255Y2976D01*
Y4044D01*
X4613Y4402D01*
X4613Y4402D01*
X4640Y4442D01*
X4649Y4488D01*
Y9843D01*
X4670Y9857D01*
X4714Y9923D01*
X4729Y10000D01*
X4714Y10077D01*
X4670Y10143D01*
X4605Y10186D01*
X4528Y10202D01*
D02*
G37*
G36*
X7126Y5418D02*
X7014Y5403D01*
X6909Y5360D01*
X6819Y5291D01*
X6750Y5201D01*
X6707Y5096D01*
X6692Y4984D01*
X6707Y4872D01*
X6750Y4767D01*
X6819Y4678D01*
X6909Y4609D01*
X7014Y4565D01*
X7126Y4551D01*
X7238Y4565D01*
X7343Y4609D01*
X7433Y4678D01*
X7502Y4767D01*
X7545Y4872D01*
X7560Y4984D01*
X7545Y5096D01*
X7502Y5201D01*
X7433Y5291D01*
X7343Y5360D01*
X7238Y5403D01*
X7126Y5418D01*
D02*
G37*
G36*
Y7418D02*
X7014Y7403D01*
X6909Y7360D01*
X6819Y7291D01*
X6750Y7201D01*
X6707Y7096D01*
X6692Y6984D01*
X6707Y6872D01*
X6750Y6767D01*
X6819Y6678D01*
X6909Y6609D01*
X7014Y6565D01*
X7126Y6551D01*
X7238Y6565D01*
X7343Y6609D01*
X7433Y6678D01*
X7502Y6767D01*
X7545Y6872D01*
X7560Y6984D01*
X7545Y7096D01*
X7502Y7201D01*
X7433Y7291D01*
X7343Y7360D01*
X7238Y7403D01*
X7126Y7418D01*
D02*
G37*
G36*
X1126Y8418D02*
X1014Y8403D01*
X909Y8360D01*
X819Y8291D01*
X750Y8201D01*
X707Y8097D01*
X692Y7984D01*
X707Y7872D01*
X750Y7767D01*
X819Y7678D01*
X909Y7609D01*
X1014Y7565D01*
X1126Y7551D01*
X1185Y7558D01*
X1321Y7423D01*
X1292Y7381D01*
X1238Y7403D01*
X1126Y7418D01*
X1014Y7403D01*
X909Y7360D01*
X819Y7291D01*
X750Y7201D01*
X707Y7096D01*
X692Y6984D01*
X707Y6872D01*
X750Y6767D01*
X819Y6678D01*
X909Y6609D01*
X1014Y6565D01*
X1126Y6551D01*
X1238Y6565D01*
X1343Y6609D01*
X1433Y6678D01*
X1502Y6767D01*
X1545Y6872D01*
X1560Y6984D01*
X1545Y7096D01*
X1522Y7151D01*
X1565Y7179D01*
X1693Y7051D01*
X1746Y7010D01*
X1809Y6984D01*
X1876Y6975D01*
X1883D01*
X1890Y6972D01*
X2441D01*
X2448Y6975D01*
X2746D01*
X2813Y6984D01*
X2876Y7010D01*
X2929Y7051D01*
X2970Y7105D01*
X2996Y7167D01*
X3005Y7234D01*
X2996Y7301D01*
X2970Y7364D01*
X2929Y7417D01*
X2876Y7459D01*
X2813Y7484D01*
X2746Y7493D01*
X2448D01*
X2441Y7496D01*
X1981D01*
X1552Y7925D01*
X1560Y7984D01*
X1545Y8097D01*
X1502Y8201D01*
X1433Y8291D01*
X1343Y8360D01*
X1238Y8403D01*
X1126Y8418D01*
D02*
G37*
G36*
X7126D02*
X7014Y8403D01*
X6909Y8360D01*
X6819Y8291D01*
X6750Y8201D01*
X6707Y8097D01*
X6692Y7984D01*
X6707Y7872D01*
X6750Y7767D01*
X6819Y7678D01*
X6909Y7609D01*
X7014Y7565D01*
X7126Y7551D01*
X7238Y7565D01*
X7343Y7609D01*
X7433Y7678D01*
X7502Y7767D01*
X7545Y7872D01*
X7560Y7984D01*
X7545Y8097D01*
X7502Y8201D01*
X7433Y8291D01*
X7343Y8360D01*
X7238Y8403D01*
X7126Y8418D01*
D02*
G37*
G36*
X2598Y5517D02*
X2521Y5501D01*
X2456Y5458D01*
X2412Y5392D01*
X2397Y5315D01*
X2412Y5238D01*
X2401Y5200D01*
X2385Y5194D01*
X2366Y5148D01*
Y4892D01*
X2385Y4846D01*
X2431Y4827D01*
X2766D01*
X2812Y4846D01*
X2831Y4892D01*
Y5148D01*
X2812Y5194D01*
X2796Y5200D01*
X2785Y5238D01*
X2800Y5315D01*
X2785Y5392D01*
X2741Y5458D01*
X2676Y5501D01*
X2598Y5517D01*
D02*
G37*
G36*
X3622D02*
X3545Y5501D01*
X3479Y5458D01*
X3436Y5392D01*
X3420Y5315D01*
X3436Y5238D01*
X3424Y5200D01*
X3409Y5194D01*
X3390Y5148D01*
Y4892D01*
X3409Y4846D01*
X3455Y4827D01*
X3789D01*
X3835Y4846D01*
X3854Y4892D01*
Y5148D01*
X3835Y5194D01*
X3820Y5200D01*
X3808Y5238D01*
X3824Y5315D01*
X3808Y5392D01*
X3765Y5458D01*
X3699Y5501D01*
X3622Y5517D01*
D02*
G37*
G36*
X7126Y6418D02*
X7014Y6403D01*
X6909Y6360D01*
X6819Y6291D01*
X6750Y6201D01*
X6707Y6097D01*
X6692Y5984D01*
X6707Y5872D01*
X6750Y5767D01*
X6819Y5678D01*
X6909Y5609D01*
X7014Y5565D01*
X7126Y5551D01*
X7238Y5565D01*
X7343Y5609D01*
X7433Y5678D01*
X7502Y5767D01*
X7545Y5872D01*
X7560Y5984D01*
X7545Y6097D01*
X7502Y6201D01*
X7433Y6291D01*
X7343Y6360D01*
X7238Y6403D01*
X7126Y6418D01*
D02*
G37*
G36*
X7677Y23766D02*
X6496D01*
X6450Y23747D01*
X6431Y23701D01*
Y23586D01*
X5865D01*
X5851Y23607D01*
X5786Y23651D01*
X5709Y23666D01*
X5631Y23651D01*
X5566Y23607D01*
X5522Y23542D01*
X5507Y23465D01*
X5522Y23387D01*
X5566Y23322D01*
X5631Y23278D01*
X5709Y23263D01*
X5786Y23278D01*
X5851Y23322D01*
X5865Y23343D01*
X6431D01*
Y23228D01*
X6450Y23182D01*
X6496Y23163D01*
X7677D01*
X7723Y23182D01*
X7742Y23228D01*
Y23701D01*
X7723Y23747D01*
X7677Y23766D01*
D02*
G37*
G36*
Y24553D02*
X6496D01*
X6450Y24534D01*
X6431Y24488D01*
Y24373D01*
X5472Y24373D01*
X5458Y24395D01*
X5392Y24438D01*
X5315Y24454D01*
X5238Y24438D01*
X5172Y24395D01*
X5129Y24329D01*
X5113Y24252D01*
X5129Y24175D01*
X5172Y24109D01*
X5238Y24066D01*
X5315Y24050D01*
X5392Y24066D01*
X5458Y24109D01*
X5472Y24131D01*
X6431Y24131D01*
Y24016D01*
X6450Y23970D01*
X6496Y23951D01*
X7677D01*
X7723Y23970D01*
X7742Y24016D01*
Y24488D01*
X7723Y24534D01*
X7677Y24553D01*
D02*
G37*
G36*
Y25341D02*
X6496D01*
X6450Y25321D01*
X6431Y25276D01*
Y25161D01*
X6259D01*
X6245Y25182D01*
X6180Y25226D01*
X6102Y25241D01*
X6025Y25226D01*
X5960Y25182D01*
X5916Y25117D01*
X5901Y25039D01*
X5916Y24962D01*
X5960Y24897D01*
X6025Y24853D01*
X6102Y24838D01*
X6180Y24853D01*
X6245Y24897D01*
X6259Y24918D01*
X6431D01*
Y24803D01*
X6450Y24757D01*
X6496Y24738D01*
X7677D01*
X7723Y24757D01*
X7742Y24803D01*
Y25276D01*
X7723Y25321D01*
X7677Y25341D01*
D02*
G37*
G36*
X1772Y24553D02*
X591D01*
X545Y24534D01*
X526Y24488D01*
Y24016D01*
X545Y23970D01*
X591Y23951D01*
X1772D01*
X1818Y23970D01*
X1837Y24016D01*
Y24131D01*
X2115D01*
X2635Y23611D01*
Y21220D01*
X2613Y21206D01*
X2570Y21140D01*
X2554Y21063D01*
X2570Y20986D01*
X2613Y20920D01*
X2679Y20877D01*
X2756Y20861D01*
X2833Y20877D01*
X2899Y20920D01*
X2942Y20986D01*
X2958Y21063D01*
X2942Y21140D01*
X2899Y21206D01*
X2877Y21220D01*
Y23661D01*
X2868Y23708D01*
X2842Y23747D01*
X2842Y23747D01*
X2251Y24338D01*
X2212Y24364D01*
X2165Y24373D01*
X2165Y24373D01*
X1837D01*
Y24488D01*
X1818Y24534D01*
X1772Y24553D01*
D02*
G37*
G36*
Y22978D02*
X591D01*
X545Y22959D01*
X526Y22913D01*
Y22441D01*
X545Y22395D01*
X591Y22376D01*
X1772D01*
X1818Y22395D01*
X1837Y22441D01*
Y22913D01*
X1818Y22959D01*
X1772Y22978D01*
D02*
G37*
G36*
Y23766D02*
X591D01*
X545Y23747D01*
X526Y23701D01*
Y23228D01*
X545Y23182D01*
X591Y23163D01*
X1772D01*
X1818Y23182D01*
X1837Y23228D01*
Y23701D01*
X1818Y23747D01*
X1772Y23766D01*
D02*
G37*
G36*
Y26128D02*
X591D01*
X545Y26109D01*
X526Y26063D01*
Y25591D01*
X545Y25545D01*
X591Y25526D01*
X1772D01*
X1818Y25545D01*
X1837Y25591D01*
Y26063D01*
X1818Y26109D01*
X1772Y26128D01*
D02*
G37*
G36*
X7677Y27703D02*
X6496D01*
X6450Y27684D01*
X6431Y27638D01*
Y27165D01*
X6450Y27119D01*
X6496Y27100D01*
X7677D01*
X7723Y27119D01*
X7742Y27165D01*
Y27638D01*
X7723Y27684D01*
X7677Y27703D01*
D02*
G37*
G36*
X2461Y29967D02*
X1870D01*
X1824Y29948D01*
X1805Y29902D01*
Y29311D01*
X1824Y29265D01*
X1870Y29246D01*
X1906D01*
Y28533D01*
X1840Y28467D01*
X1818Y28471D01*
X1772Y28490D01*
X591D01*
X545Y28471D01*
X526Y28425D01*
Y27953D01*
X545Y27907D01*
X591Y27888D01*
X1772D01*
X1818Y27907D01*
X1827Y27930D01*
X1929D01*
X1996Y27939D01*
X2059Y27965D01*
X2112Y28006D01*
X2349Y28242D01*
X2390Y28296D01*
X2416Y28358D01*
X2424Y28425D01*
Y29246D01*
X2461D01*
X2507Y29265D01*
X2526Y29311D01*
Y29902D01*
X2507Y29948D01*
X2461Y29967D01*
D02*
G37*
G36*
X7756Y30262D02*
X6969D01*
X6923Y30243D01*
X6904Y30197D01*
Y29409D01*
X6923Y29364D01*
X6969Y29344D01*
X7756D01*
X7802Y29364D01*
X7821Y29409D01*
Y30197D01*
X7802Y30243D01*
X7756Y30262D01*
D02*
G37*
G36*
X7677Y26128D02*
X6496D01*
X6450Y26109D01*
X6431Y26063D01*
Y25948D01*
X5078Y25948D01*
X5064Y25969D01*
X4998Y26013D01*
X4921Y26028D01*
X4844Y26013D01*
X4779Y25969D01*
X4735Y25904D01*
X4720Y25827D01*
X4735Y25750D01*
X4779Y25684D01*
X4844Y25640D01*
X4921Y25625D01*
X4998Y25640D01*
X5064Y25684D01*
X5078Y25705D01*
X6431Y25705D01*
Y25591D01*
X6450Y25545D01*
X6496Y25526D01*
X7677D01*
X7723Y25545D01*
X7742Y25591D01*
Y26063D01*
X7723Y26109D01*
X7677Y26128D01*
D02*
G37*
G36*
X1772Y26915D02*
X591D01*
X545Y26896D01*
X526Y26850D01*
Y26378D01*
X545Y26332D01*
X591Y26313D01*
X1772D01*
X1818Y26332D01*
X1837Y26378D01*
Y26850D01*
X1818Y26896D01*
X1772Y26915D01*
D02*
G37*
G36*
X7677D02*
X6496D01*
X6450Y26896D01*
X6431Y26850D01*
Y26378D01*
X6450Y26332D01*
X6496Y26313D01*
X7677D01*
X7723Y26332D01*
X7742Y26378D01*
Y26850D01*
X7723Y26896D01*
X7677Y26915D01*
D02*
G37*
G36*
X1772Y25341D02*
X591D01*
X545Y25321D01*
X526Y25276D01*
Y24803D01*
X545Y24757D01*
X591Y24738D01*
X1772D01*
X1818Y24757D01*
X1827Y24780D01*
X2570D01*
X3648Y23702D01*
Y21227D01*
X3646Y21220D01*
Y20669D01*
X3614Y20631D01*
X3559D01*
X3529Y20625D01*
X3502Y20608D01*
X3485Y20582D01*
X3479Y20551D01*
Y17781D01*
X3433Y17762D01*
X3297Y17898D01*
X3297Y17898D01*
X3270Y17915D01*
X3240Y17921D01*
X2233Y17921D01*
X2233Y17921D01*
X2203Y17915D01*
X2177Y17898D01*
X2046Y17767D01*
X2028Y17741D01*
X2022Y17710D01*
X2022Y17273D01*
X2022Y17273D01*
X2028Y17242D01*
X2046Y17216D01*
X2064Y17198D01*
X2076Y17165D01*
X2064Y17132D01*
X2046Y17114D01*
X2028Y17088D01*
X2022Y17058D01*
X2022Y16621D01*
X2022Y16621D01*
X2028Y16590D01*
X2046Y16564D01*
X2177Y16433D01*
X2203Y16416D01*
X2233Y16409D01*
X3240Y16409D01*
X3240Y16409D01*
X3270Y16416D01*
X3297Y16433D01*
X3297Y16433D01*
X3472Y16609D01*
X3518Y16589D01*
X3518Y15705D01*
X3524Y15674D01*
X3542Y15648D01*
X3556Y15634D01*
Y15594D01*
X3565Y15527D01*
X3591Y15465D01*
X3632Y15411D01*
X5528Y13515D01*
Y13271D01*
X4409D01*
X4409Y13271D01*
X4363Y13262D01*
X4324Y13235D01*
X4225Y13137D01*
X4199Y13098D01*
X4190Y13051D01*
X4190Y13051D01*
Y12949D01*
X4183D01*
X4137Y12930D01*
X4118Y12884D01*
Y12549D01*
X4137Y12503D01*
X4115Y12460D01*
X4108Y12457D01*
X4089Y12411D01*
Y11978D01*
X4108Y11932D01*
X4154Y11913D01*
X4390D01*
X4436Y11932D01*
X4455Y11978D01*
Y12411D01*
X4444Y12436D01*
X4441Y12465D01*
X4464Y12495D01*
X4485Y12503D01*
X4504Y12549D01*
Y12884D01*
X4485Y12930D01*
X4439Y12949D01*
X4432D01*
Y13001D01*
X4460Y13028D01*
X5528D01*
Y4882D01*
X5537Y4815D01*
X5563Y4752D01*
X5604Y4699D01*
X6355Y3948D01*
Y1840D01*
X5739Y1224D01*
X4817D01*
X4811Y1245D01*
X4743Y1372D01*
X4652Y1483D01*
X4541Y1574D01*
X4414Y1642D01*
X4277Y1683D01*
X4134Y1697D01*
X3991Y1683D01*
X3853Y1642D01*
X3727Y1574D01*
X3616Y1483D01*
X3525Y1372D01*
X3457Y1245D01*
X3415Y1108D01*
X3401Y965D01*
X3415Y822D01*
X3457Y684D01*
X3525Y557D01*
X3616Y446D01*
X3727Y355D01*
X3853Y288D01*
X3991Y246D01*
X4134Y232D01*
X4277Y246D01*
X4414Y288D01*
X4541Y355D01*
X4652Y446D01*
X4743Y557D01*
X4811Y684D01*
X4817Y706D01*
X5846D01*
X5914Y714D01*
X5976Y740D01*
X6030Y781D01*
X6797Y1549D01*
X6839Y1603D01*
X6864Y1665D01*
X6873Y1732D01*
Y4055D01*
X6864Y4122D01*
X6839Y4185D01*
X6797Y4238D01*
X6046Y4989D01*
Y13150D01*
Y13622D01*
X6038Y13689D01*
X6012Y13752D01*
X5971Y13805D01*
X4111Y15665D01*
X4112Y15669D01*
Y15719D01*
X4120Y15738D01*
Y15902D01*
Y16073D01*
X4112Y16092D01*
D01*
Y16817D01*
X4111Y16824D01*
X4106Y16848D01*
X4088Y16874D01*
X4085Y16876D01*
X4100Y16913D01*
Y17024D01*
X4081Y17070D01*
X4035Y17089D01*
X3885D01*
X3878Y17090D01*
X3676D01*
Y17093D01*
X3670Y17124D01*
X3665Y17130D01*
X3660Y17169D01*
X3672Y17196D01*
X3699Y17229D01*
X3705Y17239D01*
X3706Y17241D01*
X3878D01*
X3885Y17242D01*
X4035D01*
X4081Y17261D01*
X4100Y17307D01*
Y17417D01*
X4082Y17461D01*
X4086Y17468D01*
X4087Y17469D01*
X4104Y17495D01*
X4110Y17526D01*
Y17565D01*
Y17715D01*
Y17723D01*
X4116Y17729D01*
X4116Y17729D01*
X4244Y17857D01*
D01*
X4244Y17857D01*
X4262Y17883D01*
X4268Y17914D01*
Y18510D01*
D01*
Y18510D01*
X4269Y18518D01*
Y18559D01*
X4317Y18593D01*
X4573D01*
X4619Y18612D01*
X4638Y18658D01*
Y18698D01*
X4698D01*
X4707Y18683D01*
X4769Y18642D01*
X4843Y18627D01*
X4916Y18642D01*
X4978Y18683D01*
X4979Y18684D01*
X5043D01*
Y18671D01*
X5062Y18625D01*
X5108Y18606D01*
X5443D01*
X5489Y18625D01*
X5508Y18671D01*
Y18927D01*
X5489Y18973D01*
X5443Y18992D01*
X5108D01*
X5062Y18973D01*
X5043Y18927D01*
X4994Y18930D01*
X4978Y18954D01*
X4916Y18996D01*
X4843Y19011D01*
X4769Y18996D01*
X4707Y18954D01*
X4698Y18940D01*
X4638D01*
Y18993D01*
X4619Y19039D01*
X4573Y19058D01*
X4317D01*
X4269Y19092D01*
Y20551D01*
X4263Y20582D01*
X4246Y20608D01*
X4220Y20625D01*
X4199Y20630D01*
X4169Y20669D01*
Y21220D01*
X4167Y21227D01*
Y21474D01*
X4180Y21480D01*
X4199Y21526D01*
Y21860D01*
X4180Y21906D01*
X4167Y21912D01*
Y23809D01*
X4158Y23876D01*
X4132Y23939D01*
X4091Y23992D01*
X2860Y25223D01*
X2807Y25264D01*
X2744Y25290D01*
X2677Y25298D01*
X1827D01*
X1818Y25321D01*
X1772Y25341D01*
D02*
G37*
G36*
X1126Y15418D02*
X1014Y15403D01*
X909Y15360D01*
X819Y15291D01*
X750Y15201D01*
X707Y15096D01*
X692Y14984D01*
X707Y14872D01*
X750Y14767D01*
X819Y14678D01*
X909Y14609D01*
X1014Y14565D01*
X1126Y14551D01*
X1238Y14565D01*
X1343Y14609D01*
X1433Y14678D01*
X1502Y14767D01*
X1545Y14872D01*
X1560Y14984D01*
X1545Y15096D01*
X1502Y15201D01*
X1433Y15291D01*
X1343Y15360D01*
X1238Y15403D01*
X1126Y15418D01*
D02*
G37*
G36*
X7126D02*
X7014Y15403D01*
X6909Y15360D01*
X6819Y15291D01*
X6750Y15201D01*
X6707Y15096D01*
X6692Y14984D01*
X6707Y14872D01*
X6750Y14767D01*
X6819Y14678D01*
X6909Y14609D01*
X7014Y14565D01*
X7126Y14551D01*
X7238Y14565D01*
X7343Y14609D01*
X7433Y14678D01*
X7502Y14767D01*
X7545Y14872D01*
X7560Y14984D01*
X7545Y15096D01*
X7502Y15201D01*
X7433Y15291D01*
X7343Y15360D01*
X7238Y15403D01*
X7126Y15418D01*
D02*
G37*
G36*
X1126Y16418D02*
X1014Y16403D01*
X909Y16360D01*
X819Y16291D01*
X750Y16201D01*
X707Y16097D01*
X692Y15984D01*
X707Y15872D01*
X750Y15767D01*
X819Y15678D01*
X909Y15609D01*
X1014Y15565D01*
X1126Y15551D01*
X1238Y15565D01*
X1343Y15609D01*
X1433Y15678D01*
X1502Y15767D01*
X1545Y15872D01*
X1560Y15984D01*
X1545Y16097D01*
X1502Y16201D01*
X1433Y16291D01*
X1343Y16360D01*
X1238Y16403D01*
X1126Y16418D01*
D02*
G37*
G36*
X2276Y13968D02*
X2164Y13953D01*
X2059Y13910D01*
X1969Y13841D01*
X1900Y13751D01*
X1857Y13647D01*
X1842Y13534D01*
X1857Y13422D01*
X1900Y13317D01*
X1969Y13228D01*
X2059Y13159D01*
X2164Y13115D01*
X2276Y13101D01*
X2388Y13115D01*
X2493Y13159D01*
X2583Y13228D01*
X2652Y13317D01*
X2695Y13422D01*
X2710Y13534D01*
X2695Y13647D01*
X2652Y13751D01*
X2583Y13841D01*
X2493Y13910D01*
X2388Y13953D01*
X2276Y13968D01*
D02*
G37*
G36*
X1126Y14418D02*
X1014Y14403D01*
X909Y14360D01*
X819Y14291D01*
X750Y14201D01*
X707Y14096D01*
X692Y13984D01*
X707Y13872D01*
X750Y13767D01*
X819Y13678D01*
X909Y13609D01*
X1014Y13565D01*
X1126Y13551D01*
X1238Y13565D01*
X1343Y13609D01*
X1433Y13678D01*
X1502Y13767D01*
X1545Y13872D01*
X1560Y13984D01*
X1545Y14096D01*
X1502Y14201D01*
X1433Y14291D01*
X1343Y14360D01*
X1238Y14403D01*
X1126Y14418D01*
D02*
G37*
G36*
X7126D02*
X7014Y14403D01*
X6909Y14360D01*
X6819Y14291D01*
X6750Y14201D01*
X6707Y14096D01*
X6692Y13984D01*
X6707Y13872D01*
X6750Y13767D01*
X6819Y13678D01*
X6909Y13609D01*
X7014Y13565D01*
X7126Y13551D01*
X7238Y13565D01*
X7343Y13609D01*
X7433Y13678D01*
X7502Y13767D01*
X7545Y13872D01*
X7560Y13984D01*
X7545Y14096D01*
X7502Y14201D01*
X7433Y14291D01*
X7343Y14360D01*
X7238Y14403D01*
X7126Y14418D01*
D02*
G37*
G36*
Y16418D02*
X7014Y16403D01*
X6909Y16360D01*
X6819Y16291D01*
X6750Y16201D01*
X6707Y16097D01*
X6692Y15984D01*
X6707Y15872D01*
X6750Y15767D01*
X6819Y15678D01*
X6909Y15609D01*
X7014Y15565D01*
X7126Y15551D01*
X7238Y15565D01*
X7343Y15609D01*
X7433Y15678D01*
X7502Y15767D01*
X7545Y15872D01*
X7560Y15984D01*
X7545Y16097D01*
X7502Y16201D01*
X7433Y16291D01*
X7343Y16360D01*
X7238Y16403D01*
X7126Y16418D01*
D02*
G37*
G36*
X5140Y17287D02*
X5140Y17287D01*
X4862D01*
X4856Y17285D01*
X4705D01*
X4659Y17266D01*
X4640Y17220D01*
Y17110D01*
X4659Y17064D01*
X4705Y17045D01*
X4856D01*
X4862Y17044D01*
X5090D01*
X5091Y17043D01*
Y16893D01*
X4862D01*
X4856Y16892D01*
X4705D01*
X4659Y16873D01*
X4640Y16827D01*
Y16717D01*
X4659Y16671D01*
X4705Y16652D01*
X4761D01*
X4766Y16602D01*
X4730Y16594D01*
X4668Y16553D01*
X4626Y16491D01*
X4612Y16417D01*
X4626Y16344D01*
X4668Y16282D01*
X4730Y16240D01*
X4803Y16226D01*
X4876Y16240D01*
X4939Y16282D01*
X4948Y16296D01*
X5010D01*
X5010Y16296D01*
X5056Y16305D01*
X5095Y16331D01*
X5299Y16535D01*
X5325Y16574D01*
X5334Y16621D01*
X5334Y16621D01*
Y16778D01*
X5334Y16778D01*
X5334Y16778D01*
Y17093D01*
X5334Y17093D01*
X5325Y17139D01*
X5299Y17179D01*
X5299Y17179D01*
X5226Y17251D01*
X5187Y17277D01*
X5140Y17287D01*
D02*
G37*
G36*
X5315Y17751D02*
X5242Y17736D01*
X5179Y17695D01*
X5163Y17670D01*
X5041D01*
X5020Y17679D01*
X4705D01*
X4659Y17660D01*
X4640Y17614D01*
Y17504D01*
X4659Y17458D01*
X4705Y17439D01*
X5020D01*
X5041Y17448D01*
X5163D01*
X5179Y17424D01*
X5242Y17382D01*
X5315Y17367D01*
X5388Y17382D01*
X5450Y17424D01*
X5492Y17486D01*
X5507Y17559D01*
X5492Y17632D01*
X5450Y17695D01*
X5388Y17736D01*
X5315Y17751D01*
D02*
G37*
%LPD*%
G36*
X4189Y18518D02*
X4188Y18510D01*
Y17914D01*
X4054Y17780D01*
X4036Y17754D01*
X4030Y17723D01*
Y17565D01*
Y17526D01*
X3677D01*
X3559Y17644D01*
Y20551D01*
X4189D01*
Y18518D01*
D02*
G37*
G36*
X3638Y17443D02*
X3638Y17280D01*
X3602Y17238D01*
X2138D01*
X2103Y17273D01*
X2103Y17710D01*
X2233Y17841D01*
X3240Y17841D01*
X3638Y17443D01*
D02*
G37*
G36*
X4032Y16817D02*
Y16092D01*
X4032Y16092D01*
Y15669D01*
X3634Y15669D01*
X3599Y15705D01*
X3599Y16735D01*
X3652Y16789D01*
X3652Y16789D01*
X3660Y16800D01*
X3677Y16817D01*
X4032Y16817D01*
D02*
G37*
G36*
X3595Y16845D02*
X3240Y16490D01*
X2233Y16490D01*
X2103Y16621D01*
X2103Y17058D01*
X2138Y17093D01*
X3595D01*
Y16845D01*
D02*
G37*
D10*
X3957Y20157D02*
D03*
X5020D02*
D03*
D11*
X3622Y4429D02*
D03*
Y5020D02*
D03*
X3150Y11358D02*
D03*
Y11949D02*
D03*
X3701Y11949D02*
D03*
Y11358D02*
D03*
X5276Y18209D02*
D03*
Y18799D02*
D03*
X2598Y4429D02*
D03*
Y5020D02*
D03*
D12*
X4370Y17165D02*
D03*
D13*
X4862D02*
D03*
Y16772D02*
D03*
Y16968D02*
D03*
Y17362D02*
D03*
Y17559D02*
D03*
X3878D02*
D03*
Y17362D02*
D03*
Y16968D02*
D03*
Y16772D02*
D03*
Y17165D02*
D03*
D14*
X4902Y12717D02*
D03*
X4311D02*
D03*
X4445Y18825D02*
D03*
X3855D02*
D03*
D15*
X5020Y12195D02*
D03*
X4272D02*
D03*
X4646Y11427D02*
D03*
D16*
X2732Y16672D02*
D03*
Y17672D02*
D03*
D17*
X2165Y6624D02*
D03*
Y7234D02*
D03*
D18*
X4390Y15906D02*
D03*
X3878D02*
D03*
X4469Y21693D02*
D03*
X3957D02*
D03*
D19*
X4494Y18195D02*
D03*
X3884D02*
D03*
X4518Y20945D02*
D03*
X3907D02*
D03*
D20*
X7087Y25039D02*
D03*
Y24252D02*
D03*
Y23465D02*
D03*
Y22677D02*
D03*
Y25827D02*
D03*
Y26614D02*
D03*
Y27402D02*
D03*
Y28189D02*
D03*
X1181D02*
D03*
Y27402D02*
D03*
Y26614D02*
D03*
Y25827D02*
D03*
Y25039D02*
D03*
Y24252D02*
D03*
Y23465D02*
D03*
Y22677D02*
D03*
D21*
X7362Y29803D02*
D03*
D22*
X827Y984D02*
D03*
D23*
X5010Y16417D02*
X5213Y16621D01*
X4803Y16417D02*
X5010D01*
X4451Y18819D02*
X4843D01*
X4445Y18825D02*
X4451Y18819D01*
X4813D02*
X4843D01*
X4799Y18806D02*
X4813Y18819D01*
X5213Y16621D02*
Y16778D01*
Y17093D01*
X5206Y16772D02*
X5213Y16778D01*
X4862Y16772D02*
X5206D01*
X5140Y17165D02*
X5213Y17093D01*
X4862Y17165D02*
X5140D01*
X4370D02*
X4567Y16968D01*
X4862D01*
X3553D02*
X3878D01*
X3566Y17362D02*
X3878D01*
Y17165D02*
X4370D01*
X4567Y17362D01*
X4862D01*
X4799Y18806D02*
X5173D01*
X2598Y3268D02*
Y4429D01*
X3598Y3268D02*
Y4406D01*
X1732Y8891D02*
X2276Y9434D01*
X1732Y8031D02*
Y8891D01*
Y8031D02*
X2008Y7756D01*
X3110D01*
X3268Y7598D01*
X2276Y8434D02*
X3180D01*
X4094Y7520D01*
Y4646D02*
Y7520D01*
X3854Y4406D02*
X4094Y4646D01*
X3598Y4406D02*
X3854D01*
X4528Y4488D02*
Y10000D01*
X5020Y10984D02*
Y12195D01*
Y12598D01*
X4902Y12717D02*
X5020Y12598D01*
X4272Y12195D02*
Y12677D01*
X4311Y12717D01*
Y13051D01*
X4409Y13150D01*
X5787D01*
X1126Y11984D02*
X1161Y11949D01*
X3150D01*
X3701D01*
X3701Y11949D01*
Y11102D02*
Y11358D01*
Y11102D02*
X3780Y11024D01*
X4567D01*
X4646Y11102D01*
Y11427D01*
X4921Y25827D02*
X7087Y25827D01*
X5315Y24252D02*
X7087Y24252D01*
X5709Y23465D02*
X7087D01*
X6102Y25039D02*
X7087D01*
X2598Y5020D02*
Y5315D01*
X3622Y5020D02*
Y5315D01*
X6567Y8984D02*
X7126D01*
X6378Y9173D02*
X6567Y8984D01*
X6378Y9173D02*
Y20000D01*
X5315Y21063D02*
X6378Y20000D01*
X1181Y24252D02*
X2165D01*
X2756Y23661D01*
Y21063D02*
Y23661D01*
X2598Y4429D02*
X2894D01*
X3268Y6811D02*
Y7598D01*
X3110Y6654D02*
X3268Y6811D01*
X3110Y4646D02*
Y6654D01*
X2894Y4429D02*
X3110Y4646D01*
X3598Y2441D02*
X4134Y2976D01*
Y4094D01*
X4528Y4488D01*
D24*
X4862Y17559D02*
X5315D01*
D25*
X3815Y15594D02*
Y16227D01*
Y15594D02*
X5787Y13622D01*
Y13150D02*
Y13622D01*
X1126Y7984D02*
X1876Y7234D01*
X2165D01*
X1126Y5984D02*
X1766Y6624D01*
X2165D01*
X4134Y965D02*
X5846D01*
X6614Y1732D01*
Y4055D01*
X5787Y4882D02*
X6614Y4055D01*
X5787Y4882D02*
Y13150D01*
X1181Y25039D02*
X2677D01*
X3907Y23809D01*
X5157Y22677D02*
X7087D01*
X4518Y22037D02*
X5157Y22677D01*
X4518Y20945D02*
Y22037D01*
X3907Y20128D02*
Y20945D01*
Y23809D01*
X2165Y7234D02*
X2746D01*
X1181Y28189D02*
X1929D01*
X2165Y28425D01*
Y29606D01*
D26*
X547Y17376D02*
X154D01*
Y17573D01*
X219Y17638D01*
X351D01*
X416Y17573D01*
Y17376D01*
Y17507D02*
X547Y17638D01*
X154Y18032D02*
Y17770D01*
X351D01*
Y17901D01*
Y17770D01*
X547D01*
Y18163D02*
X154D01*
X285Y18294D01*
X154Y18426D01*
X547D01*
X154Y18819D02*
X219Y18688D01*
X351Y18557D01*
X482D01*
X547Y18622D01*
Y18754D01*
X482Y18819D01*
X416D01*
X351Y18754D01*
Y18557D01*
X482Y18950D02*
X547Y19016D01*
Y19147D01*
X482Y19213D01*
X219D01*
X154Y19147D01*
Y19016D01*
X219Y18950D01*
X285D01*
X351Y19016D01*
Y19213D01*
X285Y19737D02*
X547Y19869D01*
X285Y20000D01*
X547Y20131D02*
Y20262D01*
Y20197D01*
X154D01*
X219Y20131D01*
X547Y20459D02*
X482D01*
Y20525D01*
X547D01*
Y20459D01*
X219Y20787D02*
X154Y20853D01*
Y20984D01*
X219Y21049D01*
X482D01*
X547Y20984D01*
Y20853D01*
X482Y20787D01*
X219D01*
X547Y21181D02*
X482D01*
Y21246D01*
X547D01*
Y21181D01*
Y21509D02*
Y21640D01*
Y21574D01*
X154D01*
X219Y21509D01*
X833Y18229D02*
X768Y18294D01*
Y18426D01*
X833Y18491D01*
X1096D01*
X1161Y18426D01*
Y18294D01*
X1096Y18229D01*
X833D01*
X768Y18885D02*
Y18622D01*
X965D01*
X899Y18754D01*
Y18819D01*
X965Y18885D01*
X1096D01*
X1161Y18819D01*
Y18688D01*
X1096Y18622D01*
X1161Y19016D02*
X899Y19278D01*
X1161Y19672D02*
Y19409D01*
X899Y19672D01*
X833D01*
X768Y19606D01*
Y19475D01*
X833Y19409D01*
Y19803D02*
X768Y19869D01*
Y20000D01*
X833Y20065D01*
X1096D01*
X1161Y20000D01*
Y19869D01*
X1096Y19803D01*
X833D01*
X1161Y20197D02*
Y20328D01*
Y20262D01*
X768D01*
X833Y20197D01*
X768Y20525D02*
Y20787D01*
X833D01*
X1096Y20525D01*
X1161D01*
D27*
X4134Y29665D02*
D03*
Y965D02*
D03*
D28*
X5598Y3268D02*
D03*
X4598D02*
D03*
X3598D02*
D03*
X1165Y29606D02*
D03*
X5598Y2205D02*
D03*
X4598D02*
D03*
X3598D02*
D03*
D29*
X2598Y3268D02*
D03*
X2165Y29606D02*
D03*
X2598Y2205D02*
D03*
D30*
X2276Y8434D02*
D03*
Y9434D02*
D03*
Y12534D02*
D03*
Y13534D02*
D03*
X1126Y15984D02*
D03*
Y14984D02*
D03*
Y13984D02*
D03*
Y12984D02*
D03*
Y11984D02*
D03*
Y10984D02*
D03*
Y9984D02*
D03*
Y8984D02*
D03*
Y7984D02*
D03*
Y6984D02*
D03*
Y5984D02*
D03*
Y4984D02*
D03*
X7126D02*
D03*
Y5984D02*
D03*
Y6984D02*
D03*
Y7984D02*
D03*
Y8984D02*
D03*
Y9984D02*
D03*
Y10984D02*
D03*
Y11984D02*
D03*
Y12984D02*
D03*
Y13984D02*
D03*
Y14984D02*
D03*
Y15984D02*
D03*
D31*
X4803Y16417D02*
D03*
X3858D02*
D03*
X5315Y17559D02*
D03*
X4843Y18819D02*
D03*
D32*
X3858Y19252D02*
D03*
X4016Y19449D02*
D03*
X3740D02*
D03*
X5020Y10984D02*
D03*
X4528Y10000D02*
D03*
X4921Y25827D02*
D03*
X6102Y25039D02*
D03*
X5315Y24252D02*
D03*
X5709Y23465D02*
D03*
X2598Y5315D02*
D03*
X3622D02*
D03*
X2746Y7234D02*
D03*
X5315Y21063D02*
D03*
X2756D02*
D03*
D33*
X4370Y17165D02*
D03*
X4232Y17461D02*
D03*
Y16870D02*
D03*
X4508D02*
D03*
Y17461D02*
D03*
M02*
