M48
;Layer_Color=9474304
;FILE_FORMAT=2:5
INCH,LZ
;TYPE=PLATED
T1F00S00C0.01201
T2F00S00C0.01378
T3F00S00C0.03543
T4F00S00C0.04000
T5F00S00C0.09449
%
T01
X0038583Y0164173
X0048031
X0045079Y0168701
X0042323
X0043701Y0171653
X0042323Y0174606
X0045079
X005315Y0175591
X0048425Y0188189
T02
X0025984Y005315
X003622
X0027461Y0072342
X0045276Y01
X0050197Y0109843
X0038583Y019252
X0037402Y0194488
X0040157
X0027559Y021063
X005315
X0057087Y0234646
X005315Y024252
X0061024Y0250394
X0049213Y0258268
T03
X0025984Y0022047
X0035984
X0045984
X0055984
Y0032677
X0045984
X0035984
X0025984
X0021654Y0296063
X0011654
T04
X007126Y0049843
Y0059842
Y0069842
Y0079843
Y0089842
Y0099843
Y0109843
Y0119843
Y0129842
Y0139842
Y0149843
Y0159843
X001126
Y0149843
Y0139842
Y0129842
Y0119843
Y0109843
Y0099843
Y0089842
Y0079843
Y0069842
Y0059842
Y0049843
X002276Y0084342
Y0094342
Y0125343
Y0135343
T05
X0041339Y0009646
Y0296654
M30
