G04 Layer_Physical_Order=1*
G04 Layer_Color=65280*
%FSLAX24Y24*%
%MOIN*%
G70*
G01*
G75*
%ADD10R,0.0394X0.0551*%
%ADD11R,0.0110X0.0295*%
%ADD12R,0.0335X0.0256*%
%ADD13R,0.0256X0.0335*%
%ADD14R,0.0433X0.0236*%
%ADD15C,0.0394*%
%ADD16R,0.0394X0.0394*%
%ADD17R,0.1063X0.0394*%
%ADD18R,0.0335X0.0354*%
%ADD19R,0.0354X0.0335*%
%ADD20R,0.0551X0.0394*%
%ADD21R,0.0472X0.0689*%
%ADD22R,0.0689X0.0472*%
%ADD23C,0.0118*%
%ADD24C,0.0394*%
%ADD25C,0.0079*%
%ADD26C,0.0197*%
%ADD27C,0.0059*%
%ADD28C,0.0591*%
%ADD29R,0.0591X0.0591*%
%ADD30C,0.0740*%
%ADD31R,0.0591X0.0591*%
%ADD32C,0.0276*%
G36*
X23894Y121D02*
X11614D01*
Y4012D01*
X13129D01*
X13145Y3965D01*
X13119Y3944D01*
X13050Y3855D01*
X13006Y3750D01*
X12991Y3638D01*
X13006Y3526D01*
X13050Y3421D01*
X13119Y3331D01*
X13208Y3262D01*
X13313Y3219D01*
X13425Y3204D01*
X13537Y3219D01*
X13642Y3262D01*
X13732Y3331D01*
X13801Y3421D01*
X13844Y3526D01*
X13859Y3638D01*
X13844Y3750D01*
X13801Y3855D01*
X13732Y3944D01*
X13705Y3965D01*
X13721Y4012D01*
X15355D01*
X15369Y3991D01*
X15435Y3948D01*
X15512Y3932D01*
X15589Y3948D01*
X15654Y3991D01*
X15669Y4012D01*
X16953D01*
X16968Y3991D01*
X17033Y3948D01*
X17110Y3932D01*
X17187Y3948D01*
X17253Y3991D01*
X17267Y4012D01*
X19177D01*
Y3947D01*
X19184Y3931D01*
X19151Y3881D01*
X15354D01*
X15287Y3872D01*
X15225Y3846D01*
X15171Y3805D01*
X14945Y3579D01*
X14904Y3525D01*
X14878Y3463D01*
X14869Y3396D01*
Y3117D01*
X14866Y3110D01*
Y2899D01*
X14860Y2884D01*
X14851Y2817D01*
Y2018D01*
X14800Y1951D01*
X14764Y1864D01*
X14752Y1772D01*
X14764Y1679D01*
X14800Y1592D01*
X14851Y1526D01*
Y951D01*
X14815D01*
X14769Y932D01*
X14750Y886D01*
Y295D01*
X14769Y249D01*
X14815Y230D01*
X15406D01*
X15451Y249D01*
X15470Y295D01*
Y886D01*
X15451Y932D01*
X15406Y951D01*
X15369D01*
Y1526D01*
X15421Y1592D01*
X15456Y1679D01*
X15469Y1772D01*
X15456Y1864D01*
X15421Y1951D01*
X15369Y2018D01*
Y2513D01*
X15371Y2513D01*
X15390Y2559D01*
Y3110D01*
X15387Y3117D01*
Y3288D01*
X15462Y3363D01*
X20129D01*
X20144Y3347D01*
Y3117D01*
X20142Y3110D01*
Y2559D01*
X20161Y2513D01*
X20166Y2511D01*
Y2018D01*
X20115Y1951D01*
X20079Y1864D01*
X20067Y1772D01*
X20079Y1679D01*
X20115Y1592D01*
X20166Y1526D01*
Y951D01*
X20130D01*
X20084Y932D01*
X20065Y886D01*
Y295D01*
X20084Y249D01*
X20130Y230D01*
X20720D01*
X20766Y249D01*
X20785Y295D01*
Y886D01*
X20766Y932D01*
X20720Y951D01*
X20684D01*
Y1526D01*
X20736Y1592D01*
X20771Y1679D01*
X20784Y1772D01*
X20771Y1864D01*
X20736Y1951D01*
X20684Y2018D01*
Y2813D01*
X20675Y2880D01*
X20665Y2904D01*
Y3110D01*
X20663Y3117D01*
Y3455D01*
X20654Y3522D01*
X20628Y3584D01*
X20587Y3638D01*
X20419Y3805D01*
X20366Y3846D01*
X20303Y3872D01*
X20236Y3881D01*
X19668D01*
X19635Y3931D01*
X19642Y3947D01*
Y4012D01*
X22268D01*
X22283Y3991D01*
X22348Y3948D01*
X22425Y3932D01*
X22502Y3948D01*
X22568Y3991D01*
X22612Y4057D01*
X22627Y4134D01*
X22612Y4211D01*
X22568Y4276D01*
X22502Y4320D01*
X22425Y4336D01*
X22348Y4320D01*
X22283Y4276D01*
X22268Y4255D01*
X19607D01*
X19577Y4268D01*
X19242D01*
X19212Y4255D01*
X17267D01*
X17253Y4276D01*
X17187Y4320D01*
X17110Y4336D01*
X17033Y4320D01*
X16968Y4276D01*
X16953Y4255D01*
X15669D01*
X15654Y4276D01*
X15589Y4320D01*
X15512Y4336D01*
X15435Y4320D01*
X15369Y4276D01*
X15355Y4255D01*
X11614D01*
Y5027D01*
X14961D01*
X14976Y5006D01*
X15041Y4962D01*
X15118Y4947D01*
X15195Y4962D01*
X15261Y5006D01*
X15275Y5027D01*
X17953D01*
X17968Y5006D01*
X18033Y4962D01*
X18110Y4947D01*
X18187Y4962D01*
X18253Y5006D01*
X18267Y5027D01*
X19186D01*
X19196Y5003D01*
X19242Y4984D01*
X19577D01*
X19623Y5003D01*
X19633Y5027D01*
X23268D01*
X23283Y5006D01*
X23348Y4962D01*
X23425Y4947D01*
X23502Y4962D01*
X23568Y5006D01*
X23612Y5072D01*
X23627Y5149D01*
X23612Y5226D01*
X23568Y5291D01*
X23502Y5335D01*
X23425Y5350D01*
X23348Y5335D01*
X23283Y5291D01*
X23268Y5270D01*
X19642D01*
Y5305D01*
X19623Y5351D01*
X19577Y5370D01*
X19242D01*
X19196Y5351D01*
X19177Y5305D01*
Y5270D01*
X18267D01*
X18253Y5291D01*
X18187Y5335D01*
X18110Y5350D01*
X18033Y5335D01*
X17968Y5291D01*
X17953Y5270D01*
X15275D01*
X15261Y5291D01*
X15195Y5335D01*
X15118Y5350D01*
X15041Y5335D01*
X14976Y5291D01*
X14961Y5270D01*
X13730D01*
X13714Y5317D01*
X13732Y5331D01*
X13801Y5421D01*
X13844Y5526D01*
X13859Y5638D01*
X13844Y5750D01*
X13801Y5855D01*
X13732Y5944D01*
X13642Y6013D01*
X13537Y6057D01*
X13425Y6072D01*
X13313Y6057D01*
X13208Y6013D01*
X13119Y5944D01*
X13050Y5855D01*
X13010Y5759D01*
X11614D01*
Y8027D01*
X13144D01*
X13161Y7977D01*
X13119Y7944D01*
X13050Y7855D01*
X13006Y7750D01*
X12991Y7638D01*
X13006Y7526D01*
X13050Y7421D01*
X13119Y7331D01*
X13208Y7262D01*
X13313Y7219D01*
X13425Y7204D01*
X13537Y7219D01*
X13642Y7262D01*
X13732Y7331D01*
X13801Y7421D01*
X13844Y7526D01*
X13859Y7638D01*
X13844Y7750D01*
X13801Y7855D01*
X13732Y7944D01*
X13689Y7977D01*
X13706Y8027D01*
X15890D01*
Y8012D01*
X15909Y7966D01*
X15955Y7947D01*
X16289D01*
X16335Y7966D01*
X16354Y8012D01*
Y8018D01*
X16441D01*
Y8012D01*
X16460Y7966D01*
X16506Y7947D01*
X16841D01*
X16886Y7966D01*
X16905Y8012D01*
Y8268D01*
X16886Y8314D01*
X16841Y8333D01*
X16506D01*
X16460Y8314D01*
X16441Y8268D01*
Y8261D01*
X16354D01*
Y8268D01*
X16335Y8314D01*
X16289Y8333D01*
X15955D01*
X15909Y8314D01*
X15891Y8270D01*
X13730D01*
X13714Y8317D01*
X13732Y8331D01*
X13801Y8421D01*
X13844Y8526D01*
X13859Y8638D01*
X13844Y8750D01*
X13801Y8855D01*
X13732Y8944D01*
X13642Y9013D01*
X13537Y9057D01*
X13425Y9072D01*
X13313Y9057D01*
X13208Y9013D01*
X13119Y8944D01*
X13050Y8855D01*
X13006Y8750D01*
X12991Y8638D01*
X13006Y8526D01*
X13050Y8421D01*
X13119Y8331D01*
X13136Y8317D01*
X13120Y8270D01*
X11612D01*
X11220Y8661D01*
X7856D01*
X7844Y8750D01*
X7801Y8855D01*
X7732Y8944D01*
X7642Y9013D01*
X7537Y9057D01*
X7425Y9072D01*
X7313Y9057D01*
X7208Y9013D01*
X7119Y8944D01*
X7050Y8855D01*
X7006Y8750D01*
X6995Y8661D01*
X5802D01*
X5007Y9456D01*
X4968Y9482D01*
X4921Y9491D01*
X4921Y9491D01*
X2861D01*
X2558Y9794D01*
X2582Y9852D01*
X2595Y9945D01*
X2582Y10038D01*
X2547Y10124D01*
X2490Y10198D01*
X2415Y10255D01*
X2329Y10291D01*
X2236Y10303D01*
X2143Y10291D01*
X2057Y10255D01*
X1983Y10198D01*
X1926Y10124D01*
X1890Y10038D01*
X1878Y9945D01*
X1890Y9852D01*
X1926Y9766D01*
X1983Y9692D01*
X2057Y9635D01*
X2143Y9599D01*
X2236Y9587D01*
X2329Y9599D01*
X2387Y9623D01*
X2725Y9284D01*
X2725Y9284D01*
X2765Y9258D01*
X2811Y9249D01*
X4871D01*
X5412Y8708D01*
X5393Y8661D01*
X121D01*
X121Y13658D01*
X23894D01*
Y121D01*
D02*
G37*
%LPC*%
G36*
X8575Y9622D02*
X8463Y9607D01*
X8358Y9563D01*
X8269Y9494D01*
X8200Y9405D01*
X8156Y9300D01*
X8141Y9188D01*
X8156Y9076D01*
X8200Y8971D01*
X8269Y8881D01*
X8358Y8812D01*
X8463Y8769D01*
X8575Y8754D01*
X8687Y8769D01*
X8792Y8812D01*
X8882Y8881D01*
X8951Y8971D01*
X8994Y9076D01*
X9009Y9188D01*
X8994Y9300D01*
X8951Y9405D01*
X8882Y9494D01*
X8792Y9563D01*
X8687Y9607D01*
X8575Y9622D01*
D02*
G37*
G36*
X13425Y7072D02*
X13313Y7057D01*
X13208Y7013D01*
X13119Y6944D01*
X13050Y6855D01*
X13006Y6750D01*
X12991Y6638D01*
X13006Y6526D01*
X13050Y6421D01*
X13119Y6331D01*
X13208Y6262D01*
X13313Y6219D01*
X13425Y6204D01*
X13537Y6219D01*
X13642Y6262D01*
X13732Y6331D01*
X13801Y6421D01*
X13844Y6526D01*
X13859Y6638D01*
X13844Y6750D01*
X13801Y6855D01*
X13732Y6944D01*
X13642Y7013D01*
X13537Y7057D01*
X13425Y7072D01*
D02*
G37*
G36*
X7425Y10072D02*
X7313Y10057D01*
X7208Y10013D01*
X7119Y9944D01*
X7050Y9855D01*
X7006Y9750D01*
X6991Y9638D01*
X7006Y9526D01*
X7050Y9421D01*
X7119Y9331D01*
X7208Y9262D01*
X7313Y9219D01*
X7425Y9204D01*
X7537Y9219D01*
X7642Y9262D01*
X7732Y9331D01*
X7801Y9421D01*
X7844Y9526D01*
X7859Y9638D01*
X7844Y9750D01*
X7801Y9855D01*
X7732Y9944D01*
X7642Y10013D01*
X7537Y10057D01*
X7425Y10072D01*
D02*
G37*
G36*
X4236Y10303D02*
X4143Y10291D01*
X4057Y10255D01*
X3983Y10198D01*
X3926Y10124D01*
X3890Y10038D01*
X3878Y9945D01*
X3890Y9852D01*
X3926Y9766D01*
X3983Y9692D01*
X4057Y9635D01*
X4143Y9599D01*
X4236Y9587D01*
X4329Y9599D01*
X4415Y9635D01*
X4490Y9692D01*
X4547Y9766D01*
X4582Y9852D01*
X4595Y9945D01*
X4582Y10038D01*
X4547Y10124D01*
X4490Y10198D01*
X4415Y10255D01*
X4329Y10291D01*
X4236Y10303D01*
D02*
G37*
G36*
X3236D02*
X3143Y10291D01*
X3057Y10255D01*
X2983Y10198D01*
X2926Y10124D01*
X2890Y10038D01*
X2878Y9945D01*
X2890Y9852D01*
X2926Y9766D01*
X2983Y9692D01*
X3057Y9635D01*
X3143Y9599D01*
X3236Y9587D01*
X3329Y9599D01*
X3415Y9635D01*
X3490Y9692D01*
X3547Y9766D01*
X3582Y9852D01*
X3595Y9945D01*
X3582Y10038D01*
X3547Y10124D01*
X3490Y10198D01*
X3415Y10255D01*
X3329Y10291D01*
X3236Y10303D01*
D02*
G37*
G36*
X18406Y2132D02*
X17815D01*
X17769Y2113D01*
X17750Y2067D01*
Y1476D01*
X17769Y1430D01*
X17815Y1411D01*
X18406D01*
X18451Y1430D01*
X18470Y1476D01*
Y2067D01*
X18451Y2113D01*
X18406Y2132D01*
D02*
G37*
G36*
X22425Y2130D02*
X22332Y2118D01*
X22246Y2082D01*
X22172Y2025D01*
X22115Y1951D01*
X22079Y1864D01*
X22067Y1772D01*
X22079Y1679D01*
X22115Y1592D01*
X22172Y1518D01*
X22246Y1461D01*
X22332Y1426D01*
X22425Y1413D01*
X22518Y1426D01*
X22604Y1461D01*
X22679Y1518D01*
X22736Y1592D01*
X22771Y1679D01*
X22784Y1772D01*
X22771Y1864D01*
X22736Y1951D01*
X22679Y2025D01*
X22604Y2082D01*
X22518Y2118D01*
X22425Y2130D01*
D02*
G37*
G36*
X17110D02*
X17017Y2118D01*
X16931Y2082D01*
X16857Y2025D01*
X16800Y1951D01*
X16764Y1864D01*
X16752Y1772D01*
X16764Y1679D01*
X16800Y1592D01*
X16857Y1518D01*
X16931Y1461D01*
X17017Y1426D01*
X17110Y1413D01*
X17203Y1426D01*
X17289Y1461D01*
X17364Y1518D01*
X17421Y1592D01*
X17456Y1679D01*
X17469Y1772D01*
X17456Y1864D01*
X17421Y1951D01*
X17364Y2025D01*
X17289Y2082D01*
X17203Y2118D01*
X17110Y2130D01*
D02*
G37*
G36*
X23720Y2132D02*
X23130D01*
X23084Y2113D01*
X23065Y2067D01*
Y1476D01*
X23084Y1430D01*
X23130Y1411D01*
X23720D01*
X23766Y1430D01*
X23785Y1476D01*
Y2067D01*
X23766Y2113D01*
X23720Y2132D01*
D02*
G37*
G36*
X13425Y3072D02*
X13313Y3057D01*
X13208Y3013D01*
X13119Y2944D01*
X13050Y2855D01*
X13006Y2750D01*
X12991Y2638D01*
X13006Y2526D01*
X13050Y2421D01*
X13119Y2331D01*
X13208Y2262D01*
X13313Y2219D01*
X13425Y2204D01*
X13537Y2219D01*
X13642Y2262D01*
X13732Y2331D01*
X13801Y2421D01*
X13844Y2526D01*
X13859Y2638D01*
X13844Y2750D01*
X13801Y2855D01*
X13732Y2944D01*
X13642Y3013D01*
X13537Y3057D01*
X13425Y3072D01*
D02*
G37*
G36*
X19577Y5961D02*
X19242D01*
X19196Y5942D01*
X19177Y5896D01*
Y5889D01*
X18996D01*
X18996Y5889D01*
X18950Y5880D01*
X18910Y5854D01*
X18910Y5854D01*
X18844Y5787D01*
X18819Y5792D01*
X18742Y5777D01*
X18676Y5733D01*
X18633Y5668D01*
X18617Y5591D01*
X18633Y5513D01*
X18676Y5448D01*
X18742Y5404D01*
X18819Y5389D01*
X18896Y5404D01*
X18961Y5448D01*
X19005Y5513D01*
X19021Y5591D01*
X19017Y5608D01*
X19051Y5646D01*
X19177D01*
Y5640D01*
X19196Y5594D01*
X19242Y5575D01*
X19577D01*
X19623Y5594D01*
X19642Y5640D01*
Y5896D01*
X19623Y5942D01*
X19577Y5961D01*
D02*
G37*
G36*
X18819Y4867D02*
X18742Y4852D01*
X18676Y4808D01*
X18633Y4743D01*
X18617Y4665D01*
X18633Y4588D01*
X18676Y4523D01*
X18742Y4479D01*
X18819Y4464D01*
X18896Y4479D01*
X18961Y4523D01*
X18976Y4544D01*
X19177D01*
Y4537D01*
X19196Y4491D01*
X19242Y4472D01*
X19577D01*
X19623Y4491D01*
X19642Y4537D01*
Y4793D01*
X19623Y4839D01*
X19577Y4858D01*
X19242D01*
X19196Y4839D01*
X19177Y4793D01*
Y4787D01*
X18976D01*
X18961Y4808D01*
X18896Y4852D01*
X18819Y4867D01*
D02*
G37*
G36*
X22980Y3608D02*
X22972Y3605D01*
X22963Y3606D01*
X22863Y3579D01*
X22856Y3574D01*
X22847Y3573D01*
X22757Y3521D01*
X22752Y3514D01*
X22744Y3511D01*
X22671Y3437D01*
X22667Y3429D01*
X22660Y3424D01*
X22608Y3334D01*
X22607Y3325D01*
X22602Y3318D01*
X22575Y3218D01*
X22576Y3210D01*
X22573Y3201D01*
Y3150D01*
X22573Y3098D01*
X22576Y3090D01*
X22575Y3081D01*
X22602Y2981D01*
X22607Y2974D01*
X22608Y2965D01*
X22660Y2875D01*
X22667Y2870D01*
X22671Y2862D01*
X22744Y2789D01*
X22752Y2785D01*
X22757Y2778D01*
X22847Y2726D01*
X22856Y2725D01*
X22863Y2720D01*
X22963Y2693D01*
X22972Y2694D01*
X22980Y2691D01*
X23083Y2691D01*
X23091Y2694D01*
X23100Y2693D01*
X23200Y2720D01*
X23207Y2725D01*
X23216Y2726D01*
X23306Y2778D01*
X23311Y2785D01*
X23319Y2789D01*
X23392Y2862D01*
X23396Y2870D01*
X23403Y2875D01*
X23455Y2965D01*
X23456Y2974D01*
X23461Y2981D01*
X23488Y3081D01*
X23487Y3090D01*
X23490Y3098D01*
Y3201D01*
X23487Y3210D01*
X23488Y3218D01*
X23461Y3318D01*
X23456Y3325D01*
X23455Y3334D01*
X23403Y3424D01*
X23396Y3429D01*
X23392Y3437D01*
X23319Y3511D01*
X23311Y3514D01*
X23306Y3521D01*
X23216Y3573D01*
X23207Y3574D01*
X23200Y3579D01*
X23100Y3606D01*
X23091Y3605D01*
X23083Y3608D01*
X22980Y3608D01*
D02*
G37*
G36*
X8575Y10622D02*
X8463Y10607D01*
X8358Y10563D01*
X8269Y10494D01*
X8200Y10405D01*
X8156Y10300D01*
X8141Y10188D01*
X8156Y10076D01*
X8200Y9971D01*
X8269Y9881D01*
X8358Y9812D01*
X8463Y9769D01*
X8575Y9754D01*
X8687Y9769D01*
X8792Y9812D01*
X8882Y9881D01*
X8951Y9971D01*
X8994Y10076D01*
X9009Y10188D01*
X8994Y10300D01*
X8951Y10405D01*
X8882Y10494D01*
X8792Y10563D01*
X8687Y10607D01*
X8575Y10622D01*
D02*
G37*
G36*
X13425Y12072D02*
X13313Y12057D01*
X13208Y12013D01*
X13119Y11944D01*
X13050Y11855D01*
X13006Y11750D01*
X12991Y11638D01*
X13006Y11526D01*
X13050Y11421D01*
X13119Y11331D01*
X13208Y11262D01*
X13313Y11219D01*
X13425Y11204D01*
X13537Y11219D01*
X13642Y11262D01*
X13732Y11331D01*
X13801Y11421D01*
X13844Y11526D01*
X13859Y11638D01*
X13844Y11750D01*
X13801Y11855D01*
X13732Y11944D01*
X13642Y12013D01*
X13537Y12057D01*
X13425Y12072D01*
D02*
G37*
G36*
X7425D02*
X7313Y12057D01*
X7208Y12013D01*
X7119Y11944D01*
X7050Y11855D01*
X7006Y11750D01*
X6991Y11638D01*
X7006Y11526D01*
X7050Y11421D01*
X7119Y11331D01*
X7208Y11262D01*
X7313Y11219D01*
X7425Y11204D01*
X7537Y11219D01*
X7642Y11262D01*
X7732Y11331D01*
X7801Y11421D01*
X7844Y11526D01*
X7859Y11638D01*
X7844Y11750D01*
X7801Y11855D01*
X7732Y11944D01*
X7642Y12013D01*
X7537Y12057D01*
X7425Y12072D01*
D02*
G37*
G36*
X17110Y949D02*
X17017Y937D01*
X16931Y901D01*
X16857Y844D01*
X16800Y770D01*
X16764Y683D01*
X16752Y591D01*
X16764Y498D01*
X16800Y411D01*
X16857Y337D01*
X16931Y280D01*
X17017Y244D01*
X17110Y232D01*
X17203Y244D01*
X17289Y280D01*
X17364Y337D01*
X17421Y411D01*
X17456Y498D01*
X17469Y591D01*
X17456Y683D01*
X17421Y770D01*
X17364Y844D01*
X17289Y901D01*
X17203Y937D01*
X17110Y949D01*
D02*
G37*
G36*
X16110D02*
X16017Y937D01*
X15931Y901D01*
X15857Y844D01*
X15800Y770D01*
X15764Y683D01*
X15752Y591D01*
X15764Y498D01*
X15800Y411D01*
X15857Y337D01*
X15931Y280D01*
X16017Y244D01*
X16110Y232D01*
X16203Y244D01*
X16289Y280D01*
X16364Y337D01*
X16421Y411D01*
X16456Y498D01*
X16469Y591D01*
X16456Y683D01*
X16421Y770D01*
X16364Y844D01*
X16289Y901D01*
X16203Y937D01*
X16110Y949D01*
D02*
G37*
G36*
X6122Y13598D02*
X5650D01*
X5604Y13579D01*
X5585Y13533D01*
Y12844D01*
X5604Y12799D01*
X5627Y12789D01*
Y12729D01*
X5614Y12723D01*
X5595Y12677D01*
Y12126D01*
X5614Y12080D01*
X5627Y12075D01*
Y11986D01*
X5623Y11985D01*
X5604Y11939D01*
Y11604D01*
X5623Y11558D01*
X5627Y11557D01*
Y10702D01*
X5227Y10302D01*
X5143Y10291D01*
X5057Y10255D01*
X4983Y10198D01*
X4926Y10124D01*
X4890Y10038D01*
X4878Y9945D01*
X4890Y9852D01*
X4926Y9766D01*
X4983Y9692D01*
X5057Y9635D01*
X5143Y9599D01*
X5236Y9587D01*
X5329Y9599D01*
X5415Y9635D01*
X5490Y9692D01*
X5547Y9766D01*
X5582Y9852D01*
X5593Y9936D01*
X6069Y10411D01*
X6110Y10465D01*
X6136Y10527D01*
X6145Y10594D01*
Y12789D01*
X6168Y12799D01*
X6187Y12844D01*
Y13006D01*
X7120D01*
X7136Y12958D01*
X7119Y12944D01*
X7050Y12855D01*
X7006Y12750D01*
X6991Y12638D01*
X7006Y12526D01*
X7050Y12421D01*
X7119Y12331D01*
X7208Y12262D01*
X7313Y12219D01*
X7425Y12204D01*
X7537Y12219D01*
X7642Y12262D01*
X7732Y12331D01*
X7801Y12421D01*
X7844Y12526D01*
X7859Y12638D01*
X7844Y12750D01*
X7801Y12855D01*
X7732Y12944D01*
X7714Y12958D01*
X7730Y13006D01*
X13120D01*
X13136Y12958D01*
X13119Y12944D01*
X13050Y12855D01*
X13010Y12759D01*
X12835D01*
X12835Y12759D01*
X12788Y12750D01*
X12749Y12724D01*
X12749Y12724D01*
X12642Y12617D01*
X8700D01*
X8686Y12638D01*
X8620Y12682D01*
X8543Y12697D01*
X8466Y12682D01*
X8401Y12638D01*
X8357Y12572D01*
X8342Y12495D01*
X8357Y12418D01*
X8401Y12353D01*
X8466Y12309D01*
X8543Y12294D01*
X8620Y12309D01*
X8686Y12353D01*
X8700Y12374D01*
X12692D01*
X12692Y12374D01*
X12738Y12383D01*
X12778Y12409D01*
X12885Y12516D01*
X13010D01*
X13050Y12421D01*
X13119Y12331D01*
X13208Y12262D01*
X13313Y12219D01*
X13425Y12204D01*
X13537Y12219D01*
X13642Y12262D01*
X13732Y12331D01*
X13801Y12421D01*
X13844Y12526D01*
X13859Y12638D01*
X13844Y12750D01*
X13801Y12855D01*
X13746Y12926D01*
X13760Y12977D01*
X13764Y12981D01*
X13776Y12984D01*
X14306Y12454D01*
X14360Y12412D01*
X14422Y12387D01*
X14489Y12378D01*
X14732D01*
X14760Y12328D01*
X14750Y12303D01*
Y11713D01*
X14769Y11667D01*
X14815Y11648D01*
X15406D01*
X15451Y11667D01*
X15470Y11713D01*
Y12303D01*
X15460Y12328D01*
X15488Y12378D01*
X15944D01*
X15954Y12328D01*
X15931Y12318D01*
X15857Y12261D01*
X15800Y12187D01*
X15764Y12101D01*
X15752Y12008D01*
X15764Y11915D01*
X15800Y11829D01*
X15857Y11754D01*
X15931Y11698D01*
X16017Y11662D01*
X16110Y11650D01*
X16203Y11662D01*
X16289Y11698D01*
X16364Y11754D01*
X16421Y11829D01*
X16456Y11915D01*
X16469Y12008D01*
X16456Y12101D01*
X16421Y12187D01*
X16364Y12261D01*
X16289Y12318D01*
X16266Y12328D01*
X16276Y12378D01*
X17851D01*
Y12254D01*
X17800Y12187D01*
X17764Y12101D01*
X17752Y12008D01*
X17764Y11915D01*
X17800Y11829D01*
X17851Y11762D01*
Y11330D01*
X17839Y11299D01*
Y10748D01*
X17858Y10702D01*
X17904Y10683D01*
X18297D01*
X18343Y10702D01*
X18362Y10748D01*
Y10979D01*
X18369Y11033D01*
Y11762D01*
X18421Y11829D01*
X18456Y11915D01*
X18469Y12008D01*
X18456Y12101D01*
X18421Y12187D01*
X18369Y12254D01*
Y12637D01*
Y12829D01*
X18406D01*
X18451Y12848D01*
X18469Y12891D01*
X20352D01*
Y12441D01*
X20352Y12441D01*
X20358Y12410D01*
X20375Y12383D01*
X20375Y12383D01*
X20627Y12132D01*
Y11850D01*
X20633Y11819D01*
X20637Y11814D01*
X20605Y11772D01*
X20591Y11774D01*
X18858D01*
X18827Y11768D01*
X18801Y11751D01*
X18783Y11724D01*
X18777Y11693D01*
Y10551D01*
X18783Y10520D01*
X18788Y10512D01*
X18595Y10319D01*
X13976D01*
X13915Y10307D01*
X13862Y10272D01*
X13861Y10270D01*
X13730D01*
X13714Y10317D01*
X13732Y10331D01*
X13801Y10421D01*
X13844Y10526D01*
X13859Y10638D01*
X13844Y10750D01*
X13801Y10855D01*
X13732Y10944D01*
X13642Y11013D01*
X13537Y11057D01*
X13425Y11072D01*
X13313Y11057D01*
X13208Y11013D01*
X13119Y10944D01*
X13050Y10855D01*
X13006Y10750D01*
X12991Y10638D01*
X13006Y10526D01*
X13050Y10421D01*
X13119Y10331D01*
X13136Y10317D01*
X13120Y10270D01*
X12961D01*
X12947Y10291D01*
X12881Y10335D01*
X12804Y10350D01*
X12727Y10335D01*
X12661Y10291D01*
X12618Y10226D01*
X12602Y10149D01*
X12618Y10072D01*
X12661Y10006D01*
X12727Y9962D01*
X12804Y9947D01*
X12881Y9962D01*
X12947Y10006D01*
X12961Y10027D01*
X13144D01*
X13161Y9977D01*
X13119Y9944D01*
X13050Y9855D01*
X13006Y9750D01*
X12991Y9638D01*
X13006Y9526D01*
X13050Y9421D01*
X13119Y9331D01*
X13208Y9262D01*
X13313Y9219D01*
X13425Y9204D01*
X13537Y9219D01*
X13642Y9262D01*
X13732Y9331D01*
X13801Y9421D01*
X13840Y9516D01*
X16021D01*
X17751Y7786D01*
X17748Y7736D01*
X17703Y7712D01*
X17677Y7722D01*
X17244D01*
X17198Y7703D01*
X17185Y7671D01*
X16905D01*
Y7677D01*
X16886Y7723D01*
X16841Y7742D01*
X16506D01*
X16460Y7723D01*
X16441Y7677D01*
Y7421D01*
X16460Y7375D01*
X16506Y7356D01*
X16841D01*
X16886Y7375D01*
X16905Y7421D01*
Y7428D01*
X17179D01*
Y7421D01*
X17198Y7375D01*
X17244Y7356D01*
X17677D01*
X17703Y7367D01*
X17753Y7340D01*
Y7244D01*
X17753Y7244D01*
X17762Y7198D01*
X17788Y7158D01*
X17867Y7080D01*
X17867Y7080D01*
X17906Y7053D01*
X17948Y7045D01*
X17966Y7001D01*
X18012Y6982D01*
X18445D01*
X18491Y7001D01*
X18508Y7044D01*
X18632D01*
X18632Y7044D01*
X18678Y7053D01*
X18718Y7080D01*
X18729Y7091D01*
X18917D01*
X18963Y7110D01*
X18982Y7156D01*
Y7411D01*
X18963Y7457D01*
X18917Y7476D01*
X18583D01*
X18537Y7457D01*
X18518Y7411D01*
Y7368D01*
X18468Y7339D01*
X18445Y7348D01*
X18012D01*
X17995Y7359D01*
Y7719D01*
X18012Y7730D01*
X18445D01*
X18470Y7741D01*
X18498Y7744D01*
X18528Y7721D01*
X18537Y7700D01*
X18583Y7681D01*
X18917D01*
X18963Y7700D01*
X18982Y7746D01*
Y7753D01*
X22165D01*
X22165Y7753D01*
X22212Y7762D01*
X22251Y7788D01*
X23472Y9009D01*
X23472Y9009D01*
X23498Y9048D01*
X23507Y9094D01*
Y10703D01*
X23681D01*
X23727Y10722D01*
X23746Y10768D01*
Y11358D01*
X23727Y11404D01*
X23681Y11423D01*
X23091D01*
X23045Y11404D01*
X23026Y11358D01*
Y11322D01*
X22562D01*
Y12047D01*
X22556Y12078D01*
X22538Y12105D01*
X22512Y12123D01*
X22480Y12129D01*
X21850D01*
X21819Y12123D01*
X21793Y12105D01*
X21775Y12078D01*
X21769Y12047D01*
Y11995D01*
X21729Y11968D01*
X21719Y11966D01*
X21693Y11971D01*
X21339D01*
X21307Y11965D01*
X21281Y11947D01*
X21263Y11921D01*
X21257Y11890D01*
Y11401D01*
X21065D01*
Y11693D01*
X21046Y11739D01*
X21032Y11745D01*
Y11799D01*
X21046Y11804D01*
X21065Y11850D01*
Y12146D01*
X21046Y12191D01*
Y12777D01*
X21063Y12790D01*
X21140Y12806D01*
X21206Y12850D01*
X21220Y12871D01*
X21283D01*
Y12864D01*
X21302Y12818D01*
X21348Y12799D01*
X21604D01*
X21650Y12818D01*
X21669Y12864D01*
Y13199D01*
X21650Y13245D01*
X21604Y13264D01*
X21348D01*
X21302Y13245D01*
X21283Y13199D01*
Y13114D01*
X21220D01*
X21206Y13135D01*
X21140Y13178D01*
X21063Y13194D01*
X20986Y13178D01*
X20920Y13135D01*
X20919Y13133D01*
X20869Y13148D01*
Y13346D01*
X20863Y13378D01*
X20845Y13404D01*
X20819Y13422D01*
X20787Y13428D01*
X20433D01*
X20402Y13422D01*
X20382Y13409D01*
X18470D01*
Y13484D01*
X18451Y13530D01*
X18406Y13549D01*
X17815D01*
X17769Y13530D01*
X17750Y13484D01*
Y12896D01*
X17387D01*
X17372Y12946D01*
X17421Y13010D01*
X17456Y13096D01*
X17469Y13189D01*
X17456Y13282D01*
X17421Y13368D01*
X17364Y13442D01*
X17289Y13499D01*
X17203Y13535D01*
X17110Y13547D01*
X17017Y13535D01*
X16931Y13499D01*
X16857Y13442D01*
X16800Y13368D01*
X16764Y13282D01*
X16752Y13189D01*
X16764Y13096D01*
X16800Y13010D01*
X16849Y12946D01*
X16833Y12896D01*
X16387D01*
X16372Y12946D01*
X16421Y13010D01*
X16456Y13096D01*
X16469Y13189D01*
X16456Y13282D01*
X16421Y13368D01*
X16364Y13442D01*
X16289Y13499D01*
X16203Y13535D01*
X16110Y13547D01*
X16017Y13535D01*
X15931Y13499D01*
X15857Y13442D01*
X15800Y13368D01*
X15764Y13282D01*
X15752Y13189D01*
X15764Y13096D01*
X15800Y13010D01*
X15849Y12946D01*
X15833Y12896D01*
X14596D01*
X14045Y13448D01*
X13991Y13489D01*
X13928Y13515D01*
X13861Y13524D01*
X6187D01*
Y13533D01*
X6168Y13579D01*
X6122Y13598D01*
D02*
G37*
G36*
X22195Y13264D02*
X21939D01*
X21893Y13245D01*
X21874Y13199D01*
Y12864D01*
X21893Y12818D01*
X21939Y12799D01*
X22195D01*
X22241Y12818D01*
X22260Y12864D01*
Y12871D01*
X22481D01*
X22495Y12850D01*
X22561Y12806D01*
X22638Y12790D01*
X22715Y12806D01*
X22780Y12850D01*
X22824Y12915D01*
X22839Y12992D01*
X22824Y13069D01*
X22780Y13135D01*
X22715Y13178D01*
X22638Y13194D01*
X22561Y13178D01*
X22495Y13135D01*
X22481Y13114D01*
X22260D01*
Y13199D01*
X22241Y13245D01*
X22195Y13264D01*
D02*
G37*
G36*
X1181Y13451D02*
X394D01*
X348Y13432D01*
X329Y13386D01*
Y12598D01*
X348Y12552D01*
X394Y12533D01*
X1181D01*
X1227Y12552D01*
X1246Y12598D01*
Y13386D01*
X1227Y13432D01*
X1181Y13451D01*
D02*
G37*
G36*
X22425Y949D02*
X22332Y937D01*
X22246Y901D01*
X22172Y844D01*
X22115Y770D01*
X22079Y683D01*
X22067Y591D01*
X22079Y498D01*
X22115Y411D01*
X22172Y337D01*
X22246Y280D01*
X22332Y244D01*
X22425Y232D01*
X22518Y244D01*
X22604Y280D01*
X22679Y337D01*
X22736Y411D01*
X22771Y498D01*
X22784Y591D01*
X22771Y683D01*
X22736Y770D01*
X22679Y844D01*
X22604Y901D01*
X22518Y937D01*
X22425Y949D01*
D02*
G37*
G36*
X7425Y11072D02*
X7313Y11057D01*
X7208Y11013D01*
X7119Y10944D01*
X7050Y10855D01*
X7006Y10750D01*
X6991Y10638D01*
X7006Y10526D01*
X7050Y10421D01*
X7119Y10331D01*
X7208Y10262D01*
X7313Y10219D01*
X7425Y10204D01*
X7537Y10219D01*
X7642Y10262D01*
X7732Y10331D01*
X7801Y10421D01*
X7844Y10526D01*
X7859Y10638D01*
X7844Y10750D01*
X7801Y10855D01*
X7732Y10944D01*
X7642Y11013D01*
X7537Y11057D01*
X7425Y11072D01*
D02*
G37*
G36*
X13425Y2072D02*
X13313Y2057D01*
X13208Y2013D01*
X13119Y1944D01*
X13050Y1855D01*
X13006Y1750D01*
X12991Y1638D01*
X13006Y1526D01*
X13050Y1421D01*
X13119Y1331D01*
X13208Y1262D01*
X13313Y1219D01*
X13425Y1204D01*
X13537Y1219D01*
X13642Y1262D01*
X13732Y1331D01*
X13801Y1421D01*
X13844Y1526D01*
X13859Y1638D01*
X13844Y1750D01*
X13801Y1855D01*
X13732Y1944D01*
X13642Y2013D01*
X13537Y2057D01*
X13425Y2072D01*
D02*
G37*
G36*
X21425Y949D02*
X21332Y937D01*
X21246Y901D01*
X21172Y844D01*
X21115Y770D01*
X21079Y683D01*
X21067Y591D01*
X21079Y498D01*
X21115Y411D01*
X21172Y337D01*
X21246Y280D01*
X21332Y244D01*
X21425Y232D01*
X21518Y244D01*
X21604Y280D01*
X21679Y337D01*
X21736Y411D01*
X21771Y498D01*
X21784Y591D01*
X21771Y683D01*
X21736Y770D01*
X21679Y844D01*
X21604Y901D01*
X21518Y937D01*
X21425Y949D01*
D02*
G37*
G36*
X4236Y11303D02*
X4143Y11291D01*
X4057Y11255D01*
X3983Y11198D01*
X3926Y11124D01*
X3890Y11038D01*
X3878Y10945D01*
X3890Y10852D01*
X3926Y10766D01*
X3983Y10691D01*
X4057Y10635D01*
X4143Y10599D01*
X4236Y10587D01*
X4329Y10599D01*
X4415Y10635D01*
X4490Y10691D01*
X4547Y10766D01*
X4582Y10852D01*
X4595Y10945D01*
X4582Y11038D01*
X4547Y11124D01*
X4490Y11198D01*
X4415Y11255D01*
X4329Y11291D01*
X4236Y11303D01*
D02*
G37*
G36*
X3236D02*
X3143Y11291D01*
X3057Y11255D01*
X2983Y11198D01*
X2926Y11124D01*
X2890Y11038D01*
X2878Y10945D01*
X2890Y10852D01*
X2926Y10766D01*
X2983Y10691D01*
X3057Y10635D01*
X3143Y10599D01*
X3236Y10587D01*
X3329Y10599D01*
X3415Y10635D01*
X3490Y10691D01*
X3547Y10766D01*
X3582Y10852D01*
X3595Y10945D01*
X3582Y11038D01*
X3547Y11124D01*
X3490Y11198D01*
X3415Y11255D01*
X3329Y11291D01*
X3236Y11303D01*
D02*
G37*
G36*
X2236D02*
X2143Y11291D01*
X2057Y11255D01*
X1983Y11198D01*
X1926Y11124D01*
X1890Y11038D01*
X1878Y10945D01*
X1890Y10852D01*
X1926Y10766D01*
X1983Y10691D01*
X2057Y10635D01*
X2143Y10599D01*
X2236Y10587D01*
X2329Y10599D01*
X2415Y10635D01*
X2490Y10691D01*
X2547Y10766D01*
X2582Y10852D01*
X2595Y10945D01*
X2582Y11038D01*
X2547Y11124D01*
X2490Y11198D01*
X2415Y11255D01*
X2329Y11291D01*
X2236Y11303D01*
D02*
G37*
%LPD*%
G36*
X20591Y11417D02*
X20315D01*
X20157Y11260D01*
X19921D01*
X19606Y10945D01*
Y10551D01*
X18858D01*
Y11693D01*
X20591D01*
Y11417D01*
D02*
G37*
G36*
X21693Y10984D02*
X21339D01*
Y11890D01*
X21693D01*
Y10984D01*
D02*
G37*
G36*
X20787Y11850D02*
X20709D01*
Y12165D01*
X20433Y12441D01*
X20433Y13346D01*
X20787D01*
X20787Y11850D01*
D02*
G37*
G36*
X22480Y9567D02*
X20197D01*
Y10138D01*
X21398D01*
X21850Y10591D01*
Y12047D01*
X22480D01*
Y9567D01*
D02*
G37*
G36*
X20494Y11317D02*
X20502Y11286D01*
X20139Y10924D01*
X20121Y10897D01*
X20115Y10866D01*
X20115Y10866D01*
Y10335D01*
X20121Y10303D01*
X20139Y10277D01*
X20160Y10263D01*
X20163Y10236D01*
X20160Y10209D01*
X20139Y10195D01*
X20121Y10169D01*
X20115Y10138D01*
Y9567D01*
X20121Y9536D01*
X20139Y9509D01*
X20166Y9492D01*
X20197Y9485D01*
X22480D01*
X22512Y9492D01*
X22538Y9509D01*
X22556Y9536D01*
X22562Y9567D01*
Y10804D01*
X23026D01*
Y10768D01*
X23045Y10722D01*
X23091Y10703D01*
X23264D01*
Y9145D01*
X22115Y7995D01*
X18982D01*
Y8002D01*
X18963Y8048D01*
X18917Y8067D01*
X18583D01*
X18537Y8048D01*
X18494Y8070D01*
X18491Y8077D01*
X18445Y8096D01*
X18012D01*
X17966Y8077D01*
X17947Y8031D01*
Y7999D01*
X17901Y7980D01*
X16157Y9724D01*
X16117Y9750D01*
X16071Y9759D01*
X16071Y9759D01*
X13840D01*
X13801Y9855D01*
X13732Y9944D01*
X13689Y9977D01*
X13706Y10027D01*
X13886D01*
X13915Y10008D01*
X13976Y9996D01*
X18661D01*
X18723Y10008D01*
X18776Y10043D01*
X19202Y10470D01*
X19606D01*
X19638Y10476D01*
X19664Y10494D01*
X19682Y10520D01*
X19688Y10551D01*
Y10911D01*
X19955Y11178D01*
X20157D01*
X20189Y11184D01*
X20215Y11202D01*
X20215Y11202D01*
X20349Y11336D01*
X20480D01*
X20494Y11317D01*
D02*
G37*
G36*
X20787Y11378D02*
X20848Y11318D01*
X20851Y11300D01*
X20873Y11267D01*
X20913Y11228D01*
X20945Y11206D01*
X20963Y11202D01*
X21299Y10866D01*
Y10335D01*
X20197D01*
Y10866D01*
X20709Y11378D01*
Y11693D01*
X20787D01*
Y11378D01*
D02*
G37*
D10*
X17490Y11024D02*
D03*
X18100D02*
D03*
X21014Y2835D02*
D03*
X20404D02*
D03*
X15738D02*
D03*
X15128D02*
D03*
X5246Y12402D02*
D03*
X5856D02*
D03*
D11*
X20945Y11998D02*
D03*
X20748D02*
D03*
X20551D02*
D03*
X20945Y11545D02*
D03*
X20748D02*
D03*
X20551D02*
D03*
D12*
X19409Y4075D02*
D03*
Y4665D02*
D03*
Y5177D02*
D03*
Y5768D02*
D03*
X16122Y7549D02*
D03*
Y8140D02*
D03*
X16673Y8140D02*
D03*
Y7549D02*
D03*
X18750Y7283D02*
D03*
Y7874D02*
D03*
D13*
X21476Y13032D02*
D03*
X22067D02*
D03*
X22067Y11181D02*
D03*
X21476D02*
D03*
D14*
X18228Y7165D02*
D03*
Y7913D02*
D03*
X17461Y7539D02*
D03*
D15*
X23031Y3150D02*
D03*
D16*
X787Y12992D02*
D03*
D17*
X20748Y9803D02*
D03*
Y10669D02*
D03*
D18*
X21496Y12224D02*
D03*
Y11713D02*
D03*
X20000Y11988D02*
D03*
Y11476D02*
D03*
D19*
X20098Y12638D02*
D03*
X20610D02*
D03*
X5335Y11772D02*
D03*
X5846D02*
D03*
D20*
X22165Y12431D02*
D03*
Y11821D02*
D03*
X6496Y3317D02*
D03*
Y3927D02*
D03*
D21*
X5886Y13189D02*
D03*
X4823D02*
D03*
D22*
X19252Y11201D02*
D03*
Y12264D02*
D03*
D23*
X12835Y12638D02*
X13425D01*
X12692Y12495D02*
X12835Y12638D01*
X8543Y12495D02*
X12692D01*
X18996Y5768D02*
X19409D01*
X18819Y5591D02*
X18996Y5768D01*
X22067Y12992D02*
X22638D01*
X23386Y9094D02*
Y11063D01*
X22165Y7874D02*
X23386Y9094D01*
X18750Y7874D02*
X22165D01*
X17451Y7549D02*
X17461Y7539D01*
X16673Y7549D02*
X17451D01*
X17953Y7165D02*
X18228D01*
X17874Y7244D02*
X17953Y7165D01*
X17874Y7244D02*
Y7835D01*
X16071Y9638D02*
X17874Y7835D01*
X13425Y9638D02*
X16071D01*
X7914Y8149D02*
X16113D01*
X16122Y8140D01*
X21063Y12992D02*
X21476D01*
X18819Y4665D02*
X19409D01*
X9514Y5149D02*
X23425D01*
X8575Y6088D02*
X9514Y5149D01*
X12804Y10149D02*
X13968D01*
X13976Y10157D01*
X7425Y8638D02*
X7914Y8149D01*
X2236Y9945D02*
X2811Y9370D01*
X4921D01*
X7164Y7127D01*
X9094D01*
X10583Y5638D01*
X13425D01*
X9529Y4134D02*
X22425D01*
X8575Y5088D02*
X9529Y4134D01*
X16673Y8140D02*
X16673Y8140D01*
X16122Y8140D02*
X16673D01*
X18711Y7913D02*
X18750Y7874D01*
X18228Y7913D02*
X18711D01*
X18632Y7165D02*
X18750Y7283D01*
X18228Y7165D02*
X18632D01*
D24*
X18110Y13189D02*
X18150Y13150D01*
X20551D01*
X20236Y3622D02*
X20404Y3455D01*
X15128Y3396D02*
X15354Y3622D01*
X18819D01*
X20236D01*
X20404Y2835D02*
Y3455D01*
X15128Y2835D02*
Y3396D01*
X18110Y11033D02*
Y12008D01*
X18100Y11024D02*
X18110Y11033D01*
X22205Y11063D02*
X23386D01*
X18110Y12637D02*
Y13189D01*
Y12008D02*
Y12637D01*
X20425Y1772D02*
Y2813D01*
Y591D02*
Y1772D01*
X20404Y2835D02*
X20425Y2813D01*
X15110Y1772D02*
Y2817D01*
Y591D02*
Y1772D01*
Y2817D02*
X15128Y2835D01*
X5886Y13265D02*
X13861D01*
X5886Y10594D02*
Y13189D01*
X14489Y12637D02*
X18110D01*
X13861Y13265D02*
X14489Y12637D01*
X5886Y13189D02*
Y13265D01*
X5236Y9945D02*
X5886Y10594D01*
D25*
X20945Y12874D02*
X21063Y12992D01*
X20945Y11998D02*
Y12874D01*
X20984Y11299D02*
X21476D01*
X20945Y11339D02*
X20984Y11299D01*
X20945Y11339D02*
Y11545D01*
D26*
X6890Y2638D02*
X7425D01*
X6496Y3031D02*
X6890Y2638D01*
X6496Y3031D02*
Y3317D01*
X6921Y4638D02*
X7425D01*
X6496Y4213D02*
X6921Y4638D01*
X6496Y3927D02*
Y4213D01*
X18661Y10157D02*
X19213Y10709D01*
X13976Y10157D02*
X18661D01*
D27*
X932Y1106D02*
Y1500D01*
X1195Y1106D01*
Y1500D01*
X1326Y1106D02*
Y1500D01*
X1523D01*
X1588Y1434D01*
Y1303D01*
X1523Y1237D01*
X1326D01*
X1457D02*
X1588Y1106D01*
X1982Y1500D02*
X1719D01*
Y1303D01*
X1851D01*
X1719D01*
Y1106D01*
X2507Y1369D02*
X2638Y1106D01*
X2769Y1369D01*
X2900Y1106D02*
X3031D01*
X2966D01*
Y1500D01*
X2900Y1434D01*
X3228Y1106D02*
Y1172D01*
X3294D01*
Y1106D01*
X3228D01*
X3556Y1434D02*
X3622Y1500D01*
X3753D01*
X3819Y1434D01*
Y1172D01*
X3753Y1106D01*
X3622D01*
X3556Y1172D01*
Y1434D01*
X3950Y1106D02*
Y1172D01*
X4015D01*
Y1106D01*
X3950D01*
X4278Y1434D02*
X4343Y1500D01*
X4475D01*
X4540Y1434D01*
Y1172D01*
X4475Y1106D01*
X4343D01*
X4278Y1172D01*
Y1434D01*
X1457Y820D02*
X1523Y886D01*
X1654D01*
X1719Y820D01*
Y558D01*
X1654Y492D01*
X1523D01*
X1457Y558D01*
Y820D01*
X2113Y886D02*
X1851D01*
Y689D01*
X1982Y755D01*
X2047D01*
X2113Y689D01*
Y558D01*
X2047Y492D01*
X1916D01*
X1851Y558D01*
X2244Y492D02*
X2507Y755D01*
X2900Y492D02*
X2638D01*
X2900Y755D01*
Y820D01*
X2835Y886D01*
X2703D01*
X2638Y820D01*
X3031D02*
X3097Y886D01*
X3228D01*
X3294Y820D01*
Y558D01*
X3228Y492D01*
X3097D01*
X3031Y558D01*
Y820D01*
X3425Y492D02*
X3556D01*
X3491D01*
Y886D01*
X3425Y820D01*
X3753Y886D02*
X4015D01*
Y820D01*
X3753Y558D01*
Y492D01*
D28*
X2236Y9945D02*
D03*
Y10945D02*
D03*
X3236Y9945D02*
D03*
Y10945D02*
D03*
X4236Y9945D02*
D03*
Y10945D02*
D03*
X5236Y9945D02*
D03*
X23425Y591D02*
D03*
X22425D02*
D03*
X21425D02*
D03*
X15110Y1772D02*
D03*
X16110D02*
D03*
X17110D02*
D03*
X15110Y13189D02*
D03*
X16110D02*
D03*
X17110D02*
D03*
X20425Y1772D02*
D03*
X21425D02*
D03*
X22425D02*
D03*
X18110Y591D02*
D03*
X17110D02*
D03*
X16110D02*
D03*
X18110Y12008D02*
D03*
X17110D02*
D03*
X16110D02*
D03*
X23386Y12063D02*
D03*
D29*
X5236Y10945D02*
D03*
X23386Y11063D02*
D03*
D30*
X8575Y5088D02*
D03*
Y6088D02*
D03*
Y9188D02*
D03*
Y10188D02*
D03*
X7425Y12638D02*
D03*
Y11638D02*
D03*
Y10638D02*
D03*
Y9638D02*
D03*
Y8638D02*
D03*
Y7638D02*
D03*
Y6638D02*
D03*
Y5638D02*
D03*
Y4638D02*
D03*
Y3638D02*
D03*
Y2638D02*
D03*
Y1638D02*
D03*
X13425D02*
D03*
Y2638D02*
D03*
Y3638D02*
D03*
Y4638D02*
D03*
Y5638D02*
D03*
Y6638D02*
D03*
Y7638D02*
D03*
Y8638D02*
D03*
Y9638D02*
D03*
Y10638D02*
D03*
Y11638D02*
D03*
Y12638D02*
D03*
D31*
X20425Y591D02*
D03*
X18110Y1772D02*
D03*
Y13189D02*
D03*
X23425Y1772D02*
D03*
X15110Y591D02*
D03*
Y12008D02*
D03*
D32*
X21457Y12598D02*
D03*
X21693D02*
D03*
X21220D02*
D03*
X21102Y13465D02*
D03*
X17598Y13032D02*
D03*
X14724Y2205D02*
D03*
X14370Y1378D02*
D03*
X14055Y6496D02*
D03*
X14882Y4606D02*
D03*
X15630Y12205D02*
D03*
X14528Y11811D02*
D03*
X12441Y12835D02*
D03*
X8543Y12495D02*
D03*
X3740Y10433D02*
D03*
X1673Y13287D02*
D03*
X394Y8957D02*
D03*
Y11811D02*
D03*
X3839Y13287D02*
D03*
X6496Y11909D02*
D03*
X8268Y12106D02*
D03*
X11713D02*
D03*
Y9350D02*
D03*
X11811Y7776D02*
D03*
X11909Y6299D02*
D03*
Y4626D02*
D03*
Y3445D02*
D03*
X14075Y591D02*
D03*
X11909Y492D02*
D03*
X16339Y4626D02*
D03*
X20965D02*
D03*
X19193Y1870D02*
D03*
Y492D02*
D03*
X23720Y1083D02*
D03*
Y4429D02*
D03*
X23622Y7382D02*
D03*
X17224Y9449D02*
D03*
X18799Y8563D02*
D03*
X22343Y8760D02*
D03*
X16535Y11122D02*
D03*
X19587Y10039D02*
D03*
X22933Y10433D02*
D03*
X23228Y12992D02*
D03*
X18819Y5591D02*
D03*
X22638Y11063D02*
D03*
Y12992D02*
D03*
X19213Y12717D02*
D03*
X19449D02*
D03*
X19685D02*
D03*
X21063Y12992D02*
D03*
X18819Y4665D02*
D03*
Y3622D02*
D03*
X15118Y5149D02*
D03*
X15512Y4134D02*
D03*
X17110D02*
D03*
X18110Y5149D02*
D03*
X23425D02*
D03*
X22425Y4134D02*
D03*
X12804Y10149D02*
D03*
M02*
