G04 Layer_Color=14474460*
%FSLAX24Y24*%
%MOIN*%
G70*
G01*
G75*
%ADD25C,0.0079*%
%ADD33C,0.0039*%
%ADD34C,0.0098*%
%ADD35C,0.0080*%
%ADD36C,0.0060*%
D25*
X17795Y10787D02*
Y11260D01*
X21112Y11467D02*
Y12077D01*
X20384Y11467D02*
Y12077D01*
X19291Y4370D02*
X19528D01*
X19291Y5472D02*
X19528D01*
X16004Y7844D02*
X16240D01*
X16555D02*
X16791D01*
X18632Y7579D02*
X18868D01*
X21772Y12913D02*
Y13150D01*
Y11063D02*
Y11299D01*
X17563Y6929D02*
X17839D01*
X17563D02*
Y7264D01*
Y8150D02*
X17839D01*
X17563Y7815D02*
Y8150D01*
X21417Y10236D02*
Y10974D01*
X21358D02*
X21417D01*
X21358Y9498D02*
X21417D01*
Y10236D01*
X20079Y10236D02*
Y10974D01*
X20138D01*
X20079Y9498D02*
X20138D01*
X20079D02*
Y10236D01*
X19925Y91D02*
Y1091D01*
X23925D01*
X19925Y91D02*
X23925D01*
Y1091D01*
X18610Y1272D02*
Y2272D01*
X14610Y1272D02*
X18610D01*
X14610Y2272D02*
X18610D01*
X14610Y1272D02*
Y2272D01*
X18610Y12689D02*
Y13689D01*
X14610Y12689D02*
X18610D01*
X14610Y13689D02*
X18610D01*
X14610Y12689D02*
Y13689D01*
X23925Y1272D02*
Y2272D01*
X19925Y1272D02*
X23925D01*
X19925Y2272D02*
X23925D01*
X19925Y1272D02*
Y2272D01*
X14610Y91D02*
Y1091D01*
X18610D01*
X14610Y91D02*
X18610D01*
Y1091D01*
X14610Y11508D02*
Y12508D01*
X18610D01*
X14610Y11508D02*
X18610D01*
Y12508D01*
X22886Y10563D02*
Y12563D01*
Y10563D02*
X23886D01*
Y12563D01*
X22886D02*
X23886D01*
X20709Y2598D02*
Y3071D01*
X15433Y2598D02*
Y3071D01*
X21339Y11968D02*
X21654D01*
X20354Y12480D02*
Y12795D01*
X21929Y12126D02*
X22402D01*
X5354Y12913D02*
Y13465D01*
X5591Y11614D02*
Y11929D01*
X5551Y12165D02*
Y12638D01*
X6260Y3622D02*
X6732D01*
X18976Y11732D02*
X19528D01*
X19843D02*
X20157D01*
D33*
X20404Y11309D02*
G03*
X20404Y11309I-20J0D01*
G01*
D34*
X18278Y6831D02*
G03*
X18278Y6831I-49J0D01*
G01*
D35*
X118Y118D02*
X6036D01*
Y11545D01*
X118D02*
X6036D01*
X118Y118D02*
Y11545D01*
D36*
X17550Y10491D02*
X17483Y10557D01*
X17350D01*
X17283Y10491D01*
Y10224D01*
X17350Y10157D01*
X17483D01*
X17550Y10224D01*
X17683Y10157D02*
X17817D01*
X17750D01*
Y10557D01*
X17683Y10491D01*
X18283Y10157D02*
X18017D01*
X18283Y10424D01*
Y10491D01*
X18217Y10557D01*
X18083D01*
X18017Y10491D01*
X20572Y13259D02*
X20506Y13192D01*
Y13059D01*
X20572Y12992D01*
X20839D01*
X20906Y13059D01*
Y13192D01*
X20839Y13259D01*
Y13392D02*
X20906Y13459D01*
Y13592D01*
X20839Y13659D01*
X20572D01*
X20506Y13592D01*
Y13459D01*
X20572Y13392D01*
X20639D01*
X20706Y13459D01*
Y13659D01*
X22747Y13562D02*
X22680Y13628D01*
X22547D01*
X22480Y13562D01*
Y13295D01*
X22547Y13228D01*
X22680D01*
X22747Y13295D01*
X22880Y13628D02*
X23147D01*
Y13562D01*
X22880Y13295D01*
Y13228D01*
X19952Y13286D02*
X19885Y13353D01*
X19752D01*
X19685Y13286D01*
Y13019D01*
X19752Y12953D01*
X19885D01*
X19952Y13019D01*
X20085Y13286D02*
X20152Y13353D01*
X20285D01*
X20351Y13286D01*
Y13219D01*
X20285Y13153D01*
X20351Y13086D01*
Y13019D01*
X20285Y12953D01*
X20152D01*
X20085Y13019D01*
Y13086D01*
X20152Y13153D01*
X20085Y13219D01*
Y13286D01*
X20152Y13153D02*
X20285D01*
X23368Y9322D02*
X23301Y9255D01*
Y9122D01*
X23368Y9055D01*
X23634D01*
X23701Y9122D01*
Y9255D01*
X23634Y9322D01*
X23301Y9655D02*
Y9522D01*
X23368Y9455D01*
X23634D01*
X23701Y9522D01*
Y9655D01*
X23634Y9722D01*
X23368D01*
X23301Y9655D01*
X23701Y9855D02*
X23301D01*
X23701Y10121D01*
X23301D01*
X23701Y10255D02*
Y10388D01*
Y10321D01*
X23301D01*
X23368Y10255D01*
X14116Y12471D02*
X14049Y12405D01*
Y12271D01*
X14116Y12205D01*
X14382D01*
X14449Y12271D01*
Y12405D01*
X14382Y12471D01*
X14049Y12805D02*
Y12671D01*
X14116Y12605D01*
X14382D01*
X14449Y12671D01*
Y12805D01*
X14382Y12871D01*
X14116D01*
X14049Y12805D01*
X14449Y13004D02*
X14049D01*
X14449Y13271D01*
X14049D01*
Y13671D02*
Y13404D01*
X14249D01*
X14182Y13538D01*
Y13604D01*
X14249Y13671D01*
X14382D01*
X14449Y13604D01*
Y13471D01*
X14382Y13404D01*
X14912Y11239D02*
X14846Y11305D01*
X14712D01*
X14646Y11239D01*
Y10972D01*
X14712Y10906D01*
X14846D01*
X14912Y10972D01*
X15245Y11305D02*
X15112D01*
X15046Y11239D01*
Y10972D01*
X15112Y10906D01*
X15245D01*
X15312Y10972D01*
Y11239D01*
X15245Y11305D01*
X15445Y10906D02*
Y11305D01*
X15712Y10906D01*
Y11305D01*
X16112Y10906D02*
X15845D01*
X16112Y11172D01*
Y11239D01*
X16045Y11305D01*
X15912D01*
X15845Y11239D01*
X20236Y3898D02*
X19836D01*
Y4098D01*
X19903Y4164D01*
X20036D01*
X20103Y4098D01*
Y3898D01*
Y4031D02*
X20236Y4164D01*
Y4298D02*
Y4431D01*
Y4364D01*
X19836D01*
X19903Y4298D01*
Y4631D02*
X19836Y4697D01*
Y4831D01*
X19903Y4897D01*
X19970D01*
X20036Y4831D01*
Y4764D01*
Y4831D01*
X20103Y4897D01*
X20170D01*
X20236Y4831D01*
Y4697D01*
X20170Y4631D01*
X19431Y385D02*
X19364Y318D01*
Y185D01*
X19431Y118D01*
X19697D01*
X19764Y185D01*
Y318D01*
X19697Y385D01*
X19364Y718D02*
Y585D01*
X19431Y518D01*
X19697D01*
X19764Y585D01*
Y718D01*
X19697Y785D01*
X19431D01*
X19364Y718D01*
X19764Y918D02*
X19364D01*
X19764Y1184D01*
X19364D01*
Y1318D02*
Y1584D01*
X19431D01*
X19697Y1318D01*
X19764D01*
X20582Y3601D02*
X20515Y3668D01*
X20382D01*
X20315Y3601D01*
Y3334D01*
X20382Y3268D01*
X20515D01*
X20582Y3334D01*
X20715Y3268D02*
X20848D01*
X20781D01*
Y3668D01*
X20715Y3601D01*
X21048Y3268D02*
X21181D01*
X21115D01*
Y3668D01*
X21048Y3601D01*
X21605Y2735D02*
X21539Y2801D01*
X21405D01*
X21339Y2735D01*
Y2468D01*
X21405Y2402D01*
X21539D01*
X21605Y2468D01*
X21938Y2801D02*
X21805D01*
X21738Y2735D01*
Y2468D01*
X21805Y2402D01*
X21938D01*
X22005Y2468D01*
Y2735D01*
X21938Y2801D01*
X22138Y2402D02*
Y2801D01*
X22405Y2402D01*
Y2801D01*
X22738Y2402D02*
Y2801D01*
X22538Y2602D01*
X22805D01*
X15148Y3562D02*
X15082Y3628D01*
X14949D01*
X14882Y3562D01*
Y3295D01*
X14949Y3228D01*
X15082D01*
X15148Y3295D01*
X15282Y3228D02*
X15415D01*
X15348D01*
Y3628D01*
X15282Y3562D01*
X15615D02*
X15682Y3628D01*
X15815D01*
X15882Y3562D01*
Y3295D01*
X15815Y3228D01*
X15682D01*
X15615Y3295D01*
Y3562D01*
X748Y12172D02*
Y11838D01*
X815Y11772D01*
X948D01*
X1015Y11838D01*
Y12172D01*
X1148Y12105D02*
X1215Y12172D01*
X1348D01*
X1414Y12105D01*
Y12038D01*
X1348Y11972D01*
X1281D01*
X1348D01*
X1414Y11905D01*
Y11838D01*
X1348Y11772D01*
X1215D01*
X1148Y11838D01*
X6890Y872D02*
Y539D01*
X6956Y472D01*
X7090D01*
X7156Y539D01*
Y872D01*
X7290Y472D02*
X7423D01*
X7356D01*
Y872D01*
X7290Y806D01*
X19588Y10503D02*
X19521Y10436D01*
Y10303D01*
X19588Y10236D01*
X19855D01*
X19921Y10303D01*
Y10436D01*
X19855Y10503D01*
X19921Y10636D02*
Y10769D01*
Y10703D01*
X19521D01*
X19588Y10636D01*
X18761Y10385D02*
X18695Y10318D01*
Y10185D01*
X18761Y10118D01*
X19028D01*
X19094Y10185D01*
Y10318D01*
X19028Y10385D01*
X19094Y10785D02*
Y10518D01*
X18828Y10785D01*
X18761D01*
X18695Y10718D01*
Y10585D01*
X18761Y10518D01*
X6399Y4676D02*
X6332Y4609D01*
Y4476D01*
X6399Y4409D01*
X6666D01*
X6732Y4476D01*
Y4609D01*
X6666Y4676D01*
X6399Y4809D02*
X6332Y4876D01*
Y5009D01*
X6399Y5076D01*
X6466D01*
X6532Y5009D01*
Y4943D01*
Y5009D01*
X6599Y5076D01*
X6666D01*
X6732Y5009D01*
Y4876D01*
X6666Y4809D01*
X18840Y424D02*
X18773Y357D01*
Y224D01*
X18840Y157D01*
X19107D01*
X19173Y224D01*
Y357D01*
X19107Y424D01*
X18773Y757D02*
Y624D01*
X18840Y557D01*
X19107D01*
X19173Y624D01*
Y757D01*
X19107Y824D01*
X18840D01*
X18773Y757D01*
X19173Y957D02*
X18773D01*
X19173Y1224D01*
X18773D01*
X18840Y1357D02*
X18773Y1424D01*
Y1557D01*
X18840Y1624D01*
X18907D01*
X18973Y1557D01*
Y1490D01*
Y1557D01*
X19040Y1624D01*
X19107D01*
X19173Y1557D01*
Y1424D01*
X19107Y1357D01*
X20472Y9298D02*
Y8898D01*
X20739D01*
X20872D02*
X21006D01*
X20939D01*
Y9298D01*
X20872Y9231D01*
X17865Y6326D02*
Y6593D01*
X17798Y6660D01*
X17665D01*
X17598Y6593D01*
Y6326D01*
X17665Y6260D01*
X17798D01*
X17732Y6393D02*
X17865Y6260D01*
X17798D02*
X17865Y6326D01*
X17998Y6260D02*
X18132D01*
X18065D01*
Y6660D01*
X17998Y6593D01*
X21614Y10354D02*
Y10754D01*
X21814D01*
X21881Y10688D01*
Y10554D01*
X21814Y10488D01*
X21614D01*
X21747D02*
X21881Y10354D01*
X22014D02*
X22147D01*
X22081D01*
Y10754D01*
X22014Y10688D01*
X21457Y13346D02*
Y13746D01*
X21657D01*
X21723Y13680D01*
Y13546D01*
X21657Y13480D01*
X21457D01*
X21590D02*
X21723Y13346D01*
X22123D02*
X21857D01*
X22123Y13613D01*
Y13680D01*
X22057Y13746D01*
X21923D01*
X21857Y13680D01*
X19134Y7323D02*
Y7723D01*
X19334D01*
X19400Y7656D01*
Y7523D01*
X19334Y7456D01*
X19134D01*
X19267D02*
X19400Y7323D01*
X19534Y7656D02*
X19600Y7723D01*
X19734D01*
X19800Y7656D01*
Y7589D01*
X19734Y7523D01*
X19667D01*
X19734D01*
X19800Y7456D01*
Y7389D01*
X19734Y7323D01*
X19600D01*
X19534Y7389D01*
X16909Y8435D02*
X16510D01*
Y8635D01*
X16576Y8702D01*
X16710D01*
X16776Y8635D01*
Y8435D01*
Y8568D02*
X16909Y8702D01*
Y9035D02*
X16510D01*
X16710Y8835D01*
Y9101D01*
X16319Y8435D02*
X15919D01*
Y8635D01*
X15986Y8702D01*
X16119D01*
X16186Y8635D01*
Y8435D01*
Y8568D02*
X16319Y8702D01*
X15919Y9101D02*
Y8835D01*
X16119D01*
X16052Y8968D01*
Y9035D01*
X16119Y9101D01*
X16252D01*
X16319Y9035D01*
Y8902D01*
X16252Y8835D01*
X19252Y9731D02*
Y9397D01*
X19319Y9331D01*
X19452D01*
X19519Y9397D01*
Y9731D01*
X19918Y9331D02*
X19652D01*
X19918Y9597D01*
Y9664D01*
X19852Y9731D01*
X19718D01*
X19652Y9664D01*
X17353Y2814D02*
X17287Y2880D01*
X17153D01*
X17087Y2814D01*
Y2547D01*
X17153Y2480D01*
X17287D01*
X17353Y2547D01*
X17686Y2880D02*
X17553D01*
X17486Y2814D01*
Y2547D01*
X17553Y2480D01*
X17686D01*
X17753Y2547D01*
Y2814D01*
X17686Y2880D01*
X17886Y2480D02*
Y2880D01*
X18153Y2480D01*
Y2880D01*
X18553D02*
X18420Y2814D01*
X18286Y2680D01*
Y2547D01*
X18353Y2480D01*
X18486D01*
X18553Y2547D01*
Y2614D01*
X18486Y2680D01*
X18286D01*
X20236Y5079D02*
X19836D01*
Y5279D01*
X19903Y5345D01*
X20036D01*
X20103Y5279D01*
Y5079D01*
Y5212D02*
X20236Y5345D01*
Y5479D02*
Y5612D01*
Y5545D01*
X19836D01*
X19903Y5479D01*
X20236Y6078D02*
Y5812D01*
X19970Y6078D01*
X19903D01*
X19836Y6012D01*
Y5878D01*
X19903Y5812D01*
X4519Y11908D02*
X4452Y11975D01*
X4319D01*
X4252Y11908D01*
Y11641D01*
X4319Y11575D01*
X4452D01*
X4519Y11641D01*
X4918Y11975D02*
X4652D01*
Y11775D01*
X4785Y11841D01*
X4852D01*
X4918Y11775D01*
Y11641D01*
X4852Y11575D01*
X4718D01*
X4652Y11641D01*
X4361Y12499D02*
X4294Y12565D01*
X4161D01*
X4094Y12499D01*
Y12232D01*
X4161Y12165D01*
X4294D01*
X4361Y12232D01*
X4694Y12165D02*
Y12565D01*
X4494Y12365D01*
X4761D01*
X1417Y12559D02*
Y12959D01*
X1684Y12559D01*
Y12959D01*
X1817D02*
X2084D01*
Y12892D01*
X1817Y12626D01*
Y12559D01*
X2084D01*
X2217D02*
X2350D01*
X2284D01*
Y12959D01*
X2217Y12892D01*
X23268Y3661D02*
X22868D01*
X23268Y3928D01*
X22868D01*
Y4061D02*
Y4328D01*
X22934D01*
X23201Y4061D01*
X23268D01*
Y4328D01*
X22934Y4461D02*
X22868Y4528D01*
Y4661D01*
X22934Y4728D01*
X23001D01*
X23068Y4661D01*
Y4594D01*
Y4661D01*
X23134Y4728D01*
X23201D01*
X23268Y4661D01*
Y4528D01*
X23201Y4461D01*
X4046Y13010D02*
X3979Y13077D01*
X3846D01*
X3780Y13010D01*
Y12744D01*
X3846Y12677D01*
X3979D01*
X4046Y12744D01*
X4446Y13077D02*
X4313Y13010D01*
X4179Y12877D01*
Y12744D01*
X4246Y12677D01*
X4379D01*
X4446Y12744D01*
Y12810D01*
X4379Y12877D01*
X4179D01*
M02*
