M48
;Layer_Color=9474304
;FILE_FORMAT=2:5
INCH,LZ
;TYPE=PLATED
T1F00S00C0.01181
T2F00S00C0.03543
%
T01
X000315Y000315
X004685Y0002756
X0045876Y0011211
X0064961Y0002756
X0089567Y0008071
X0103543Y0005512
X0109449Y000315
X015315Y0002756
X0152175Y0011211
X017126Y0002756
X0195866Y0008071
X0209842Y0005512
X0215748Y000315
X0259449Y0002756
X0258474Y0011211
X0277559Y0002756
X0302165Y0008071
X0316142Y0005512
X0316142Y0017717
Y0027559
X0316142Y0037402
X0308268Y0030709
X0298425Y0019685
X0283858Y0026378
X0282283Y0029528
X0278346Y0026378
X0274016Y0026772
X0268701
X0272047Y0020472
X0271654Y0015748
X0259842Y0035433
Y0040945
X0256693Y0038189
X0253543Y0034744
X0263386Y004685
X026063Y005315
X0256693Y0055905
X026811Y0061811
X0274803Y0067716
Y0070079
Y0072441
X0272047Y0086221
X0275984Y0087795
Y0090158
Y009252
X0277559Y0110236
X0287008Y0104331
X0308268
X0316142Y0112992
X0316142Y0125197
Y0135039
X0316142Y0144882
X0308268Y0138189
X0298425Y0127165
X0302165Y0115551
X0316142Y0095669
X0316142Y0083465
Y0069685
X0290551Y0062598
X029063Y0055118
X0287402Y0040945
X0291732Y0037402
X0273622Y005
X0257874Y0079528
X0253937Y0086614
X0259449Y0110236
X0258474Y0118691
X0271654Y0123228
X0272047Y0127953
X0274016Y0134252
X0278346Y0133858
X0283858
X0282283Y0137008
X0268701Y0134252
X0259842Y0142913
Y0148425
X0256693Y0145669
X0253543Y0142224
X0263386Y0154331
X026063Y016063
X0256693Y0163386
X026811Y0169291
X0273622Y015748
X029063Y0162598
X0290551Y0170079
X0287402Y0148425
X0291732Y0144882
X0247431Y0144694
X024252Y0142126
X0240551Y0151181
X0241338Y016063
X0244488Y0163386
X0248031
X0251181Y0154724
X0237008Y0167323
X0238189Y0170866
X0215354Y015748
X0209842Y0144882
X0209842Y0135039
Y0125197
X0209842Y0112992
X0215748Y011063
X0215354Y0098032
X0209842Y0095669
X0209842Y0083465
X0215354Y0087402
Y0064961
X0209842Y0069685
X0215354Y005
X0209842Y0037402
X0209842Y0027559
Y0017717
X0192126Y0019685
X0201969Y0030709
X0185433Y0037402
X0181102Y0040945
X0175984Y0029528
X0177559Y0026378
X0172047
X0167717Y0026772
X0162401
X0165748Y0020472
X0165354Y0015748
X0153543Y0035433
Y0040945
X0150394Y0038189
X0147244Y0034744
X0141132Y0037214
X0136221Y0034646
X0134252Y0043701
X0135039Y005315
X0138189Y0055905
X0141732
X0150394
X0154331Y005315
X0157087Y004685
X0144882Y0047244
X0144488Y0070669
X0151575Y0079528
X0147638Y0086614
X0165748Y0086221
X0169685Y0087795
Y0090158
Y009252
X017126Y0110236
X0180709Y0104331
X0201969
X0195866Y0115551
X0192126Y0127165
X0201969Y0138189
X0185433Y0144882
X0181102Y0148425
X0175984Y0137008
X0177559Y0133858
X0172047
X0167717Y0134252
X0162401
X0165748Y0127953
X0165354Y0123228
X0152175Y0118691
X015315Y0110236
X0153543Y0142913
Y0148425
X0150394Y0145669
X0147244Y0142224
X0141132Y0144694
X0136221Y0142126
X0134252Y0151181
X0135039Y016063
X0138189Y0163386
X0141732
X0150394
X0154331Y016063
X0157087Y0154331
X0144882Y0154724
X0167323Y015748
X0161811Y0169291
X0184252Y0170079
X0184331Y0162598
X0130709Y0167323
X013189Y0170866
X0109055Y015748
X0103543Y0144882
X0103543Y0135039
Y0125197
X0103543Y0112992
X0109449Y011063
X0109055Y0098032
X0103543Y0095669
X0103543Y0083465
X0109055Y0087402
Y0064961
X0103543Y0069685
X0109055Y005
X0103543Y0037402
X0103543Y0027559
Y0017717
X0095669Y0030709
X0129527Y0029528
X0130709Y0059842
X013189Y0063386
X0129527Y0066142
X012874Y0071653
X0168504Y0072441
Y0070079
Y0067716
X0161811Y0061811
X0167323Y005
X0184331Y0055118
X0184252Y0062598
X0238189Y0063386
X0237008Y0059842
X0235827Y0066142
X0235039Y0071653
X0250787Y0070669
X0248031Y0055905
X0244488
X0241338Y005315
X0240551Y0043701
X024252Y0034646
X0247431Y0037214
X0251181Y0047244
X0235827Y0029528
X0222441Y0104331
X0235827Y0137008
X0129527
X0095669Y0138189
Y0104331
X0116142
X0089567Y0115551
X0085827Y0127165
X007126Y0133858
X0069685Y0137008
X0065748Y0133858
X0061417Y0134252
X0056102
X0059449Y0127953
X0059055Y0123228
X0045876Y0118691
X004685Y0110236
X0064961
X007441Y0104331
X0063386Y009252
Y0090158
Y0087795
X0059449Y0086221
X0062205Y0072441
Y0070079
Y0067716
X0055512Y0061811
X0048031Y005315
X0044094Y0055905
X0035433
X003189
X002874Y005315
X0027953Y0043701
X0029921Y0034646
X0034833Y0037214
X0040945Y0034744
X0044094Y0038189
X0047244Y0040945
Y0035433
X0050787Y004685
X0038583Y0047244
X0038189Y0070669
X0045276Y0079528
X0041339Y0086614
X0022441Y0071653
X0023228Y0066142
X0025591Y0063386
X002441Y0059842
X0002756Y0064961
Y005
Y0087402
Y0098032
X000315Y011063
X0009843Y0104331
X0023228Y0137008
X0029921Y0142126
X0034833Y0144694
X0040945Y0142224
X0044094Y0145669
X0047244Y0148425
Y0142913
X0050787Y0154331
X0048031Y016063
X0044094Y0163386
X0035433
X003189
X002874Y016063
X0027953Y0151181
X0038583Y0154724
X0061024Y015748
X0055512Y0169291
X0077953Y0170079
X0078031Y0162598
X0074803Y0148425
X0079134Y0144882
X002441Y0167323
X0025591Y0170866
X0002756Y015748
X0023228Y0029528
X0056102Y0026772
X0061417
X0065748Y0026378
X007126
X0069685Y0029528
X0074803Y0040945
X0079134Y0037402
X0078031Y0055118
X0077953Y0062598
X0061024Y005
X0059449Y0020472
X0059055Y0015748
X0085827Y0019685
X0062205Y0175197
Y0177559
Y0179921
X0059449Y0193701
X0063386Y0195276
Y0197638
Y02
X0064961Y0217717
X007441Y0211811
X0089567Y0223032
X0085827Y0234646
X007126Y0241339
X0069685Y0244488
X0065748Y0241339
X0061417Y0241732
X0056102
X0059449Y0235433
X0059055Y0230709
X0045876Y0226172
X004685Y0217717
X0041339Y0194095
X0045276Y0187008
X0038189Y017815
X0022441Y0179134
X0023228Y0173622
X0002756Y0172441
Y0194882
Y0205512
X000315Y021811
X0009843Y0211811
X0023228Y0244488
X0029921Y0249606
X0034833Y0252175
X0040945Y0249705
X0044094Y025315
X0047244Y0255906
Y0250394
X0050787Y0261811
X0048031Y026811
X0044094Y0270866
X0035433
X003189
X002874Y026811
X0027953Y0258661
X0038583Y0262205
X0038189Y028563
X0045276Y0294488
X0041339Y0301575
X0059449Y0301181
X0063386Y0302756
Y0305118
Y030748
X0062205Y0287402
Y0285039
Y0282677
X0055512Y0276772
X0061024Y0264961
X0078031Y0270079
X0077953Y0277559
X0074803Y0255906
X0079134Y0252362
X007441Y0319291
X0009843
X0002756Y0312992
Y0302362
Y0279921
Y0264961
X002441Y0274803
X0025591Y0278346
X0023228Y0281102
X0022441Y0286614
X0103543Y0284646
X0109055Y0279921
Y0264961
X0103543Y0252362
X0103543Y024252
Y0232677
X0103543Y0220472
X0109449Y021811
X0109055Y0205512
X0103543Y020315
X0103543Y0190945
X0109055Y0194882
Y0172441
X0103543Y0177165
X012874Y0179134
X0129527Y0173622
X0144488Y017815
X0151575Y0187008
X0147638Y0194095
X0165748Y0193701
X0169685Y0195276
Y0197638
Y02
X017126Y0217717
X0180709Y0211811
X0201969
X0209842Y0220472
X0215748Y021811
X0215354Y0205512
X0209842Y020315
X0209842Y0190945
X0215354Y0194882
Y0172441
X0209842Y0177165
X0235039Y0179134
X0235827Y0173622
X0250787Y017815
X0222441Y0211811
X0209842Y0232677
Y024252
X0209842Y0252362
X0201969Y0245669
X0192126Y0234646
X0195866Y0223032
X0177559Y0241339
X0175984Y0244488
X0172047Y0241339
X0167717Y0241732
X0162401
X0165748Y0235433
X0165354Y0230709
X0152175Y0226172
X015315Y0217717
X0153543Y0250394
Y0255906
X0150394Y025315
X0147244Y0249705
X0141132Y0252175
X0136221Y0249606
X0134252Y0258661
X0135039Y026811
X0138189Y0270866
X0141732
X0150394
X0154331Y026811
X0157087Y0261811
X0144882Y0262205
X0144488Y028563
X0151575Y0294488
X0147638Y0301575
X0165748Y0301181
X0169685Y0302756
Y0305118
Y030748
X0168504Y0287402
Y0285039
Y0282677
X0161811Y0276772
X0167323Y0264961
X0184331Y0270079
X0184252Y0277559
X0181102Y0255906
X0185433Y0252362
X0215354Y0264961
Y0279921
X0209842Y0284646
Y0298425
X0215354Y0302362
Y0312992
X0209842Y031063
X0201969Y0319291
X0222441
X0180709
X0116142
X0109055Y0312992
X0103543Y031063
X0103543Y0298425
X0109055Y0302362
X0095669Y0319291
X012874Y0286614
X0129527Y0281102
X013189Y0278346
X0130709Y0274803
X0129527Y0244488
X0095669Y0245669
Y0211811
X0116142
X0168504Y0179921
Y0177559
Y0175197
X0235827Y0244488
X024252Y0249606
X0247431Y0252175
X0240551Y0258661
X0241338Y026811
X0244488Y0270866
X0248031
X0251181Y0262205
X0250787Y028563
X0235039Y0286614
X0235827Y0281102
X0238189Y0278346
X0237008Y0274803
X0256693Y0270866
X026063Y026811
X0263386Y0261811
X0259842Y0255906
Y0250394
X0256693Y025315
X0253543Y0249705
X0268701Y0241732
X0274016
X0278346Y0241339
X0283858
X0282283Y0244488
X0287402Y0255906
X0291732Y0252362
X029063Y0270079
X0290551Y0277559
X0274803Y0282677
Y0285039
Y0287402
X0272047Y0301181
X0275984Y0302756
Y0305118
Y030748
X0287008Y0319291
X0308268
X0316142Y031063
X0316142Y0298425
Y0284646
X0316142Y0252362
X0316142Y024252
Y0232677
X0316142Y0220472
X0308268Y0211811
X0316142Y020315
X0316142Y0190945
Y0177165
X0274803Y0177559
Y0179921
Y0175197
X0272047Y0193701
X0275984Y0195276
Y0197638
Y02
X0277559Y0217717
X0287008Y0211811
X0302165Y0223032
X0298425Y0234646
X0308268Y0245669
X0272047Y0235433
X0271654Y0230709
X0258474Y0226172
X0259449Y0217717
X0253937Y0194095
X0257874Y0187008
X0273622Y0264961
X026811Y0276772
X0257874Y0294488
X0253937Y0301575
T02
X0012204Y0005905
X0022204
X0032204
X0042204
X0101639Y0012439
X0118503Y0005905
X0128504
X0138504
X0148503
X0207938Y0012439
X0224803Y0005905
X0234803
X0244803
X0254803
X0314237Y0012439
Y0022439
Y0032439
Y0042439
Y0052439
Y0062439
Y011992
Y012992
Y013992
Y014992
Y015992
Y016992
X0254724Y0125984
X0254803Y0113386
X025378Y0102756
X0263779
X0254724Y0018504
X0244724
X0234724
X0224724
X0216929Y0027402
Y0037402
X0207938Y0032439
Y0022439
Y0042439
Y0052439
Y0062439
X0217323Y0092913
X0227323
X0237323
Y0102913
X0227323
X0217323
X0224803Y0113386
X0234803
X0244803
X0244724Y0125984
X0234724
X0224724
X0216929Y0134882
Y0144882
X0207938Y013992
Y012992
Y011992
Y014992
Y015992
Y016992
X0148425Y0125984
X0138425
X0128425
X0118425
X0118503Y0113386
X0128504
X0138504
X0148503
X014748Y0102756
X015748
X0131024Y0102913
Y0092913
X0121024
Y0102913
X0111024
Y0092913
X0101639Y011992
Y012992
Y013992
Y014992
Y015992
Y016992
X011063Y0144882
Y0134882
X0101639Y0062439
Y0052439
Y0042439
Y0032439
Y0022439
X011063Y0027402
Y0037402
X0118425Y0018504
X0128425
X0138425
X0148425
X0042126
X0032126
X0022126
X0012126
X0004331Y0027402
Y0037402
X0004724Y0092913
X0014724
X0024724
Y0102913
X0014724
X0004724
X0012204Y0113386
X0022204
X0032204
X0042204
X0041181Y0102756
X0051181
X0042126Y0125984
X0032126
X0022126
X0012126
X0004331Y0134882
Y0144882
X0004724Y0200394
X0014724
X0024724
Y0210394
X0014724
X0004724
X0012204Y0220866
X0022204
X0032204
X0042204
X0041181Y0210236
X0051181
X0042126Y0233465
X0032126
X0022126
X0012126
X0004331Y0242362
Y0252362
X0004724Y0307874
X0014724
X0024724
Y0317874
X0014724
X0004724
X0041181Y0317717
X0051181
X0111024Y0317874
X0121024
X0131024
Y0307874
X0121024
X0111024
X0101639Y02774
Y02674
Y02574
Y02474
Y02374
Y02274
X0118425Y0233465
X0128425
X0138425
X0148425
X0148503Y0220866
X0138504
X0128504
X0118503
X0121024Y0210394
X0131024
Y0200394
X0121024
X0111024
Y0210394
X011063Y0242362
Y0252362
X014748Y0210236
X015748
X0217323Y0210394
X0227323
X0237323
Y0200394
X0227323
X0217323
X0224803Y0220866
X0234803
X0244803
X0244724Y0233465
X0234724
X0224724
X0216929Y0242362
Y0252362
X0207938Y02474
Y02374
Y02274
Y02574
Y02674
Y02774
X0217323Y0307874
X0227323
X0237323
Y0317874
X0227323
X0217323
X015748Y0317717
X014748
X025378
X0263779
X0314237Y02774
Y02674
Y02574
Y02474
Y02374
Y02274
X0254724Y0233465
X0254803Y0220866
X025378Y0210236
X0263779
M30
