G04 Layer_Color=16711935*
%FSLAX24Y24*%
%MOIN*%
G70*
G01*
G75*
%ADD47C,0.0820*%
%ADD48R,0.0671X0.0671*%
%ADD49C,0.0671*%
%ADD50C,0.1419*%
%ADD51C,0.0237*%
%ADD52C,0.0356*%
%ADD53C,0.0336*%
D47*
X7126Y15984D02*
D03*
Y14984D02*
D03*
Y13984D02*
D03*
Y12984D02*
D03*
Y11984D02*
D03*
Y10984D02*
D03*
Y9984D02*
D03*
Y8984D02*
D03*
Y7984D02*
D03*
Y6984D02*
D03*
Y5984D02*
D03*
Y4984D02*
D03*
X1126D02*
D03*
Y5984D02*
D03*
Y6984D02*
D03*
Y7984D02*
D03*
Y8984D02*
D03*
Y9984D02*
D03*
Y10984D02*
D03*
Y11984D02*
D03*
Y12984D02*
D03*
Y13984D02*
D03*
Y14984D02*
D03*
Y15984D02*
D03*
X2276Y13534D02*
D03*
Y12534D02*
D03*
Y9434D02*
D03*
Y8434D02*
D03*
D48*
X2598Y2441D02*
D03*
X2165Y29606D02*
D03*
X2598Y3622D02*
D03*
D49*
X3598Y2441D02*
D03*
X4598D02*
D03*
X5598D02*
D03*
X1165Y29606D02*
D03*
X3598Y3622D02*
D03*
X4598D02*
D03*
X5598D02*
D03*
D50*
X4134Y965D02*
D03*
Y29665D02*
D03*
D51*
X4547Y18366D02*
D03*
Y17776D02*
D03*
X4272D02*
D03*
Y18366D02*
D03*
X4409Y18071D02*
D03*
D52*
X2756Y21063D02*
D03*
X5315D02*
D03*
X3898Y20039D02*
D03*
X4055Y20236D02*
D03*
X3740D02*
D03*
X2746Y7234D02*
D03*
X3622Y5315D02*
D03*
X2598D02*
D03*
X5709Y23465D02*
D03*
X5315Y24252D02*
D03*
X6102Y25039D02*
D03*
X4921Y25827D02*
D03*
X4528Y10000D02*
D03*
X5020Y10984D02*
D03*
D53*
X4819Y19731D02*
D03*
X5236Y18465D02*
D03*
X4858Y17447D02*
D03*
X3874D02*
D03*
M02*
