G04 Layer_Physical_Order=2*
G04 Layer_Color=255*
%FSLAX24Y24*%
%MOIN*%
G70*
G01*
G75*
%ADD23C,0.0118*%
%ADD26C,0.0059*%
%ADD27C,0.1339*%
%ADD28C,0.0591*%
%ADD29R,0.0591X0.0591*%
%ADD30C,0.0740*%
%ADD31C,0.0256*%
%ADD32C,0.0276*%
%ADD33C,0.0157*%
G36*
X8146Y121D02*
X121D01*
X121Y17120D01*
X1296D01*
Y21792D01*
X121D01*
X121Y30509D01*
X8146D01*
Y121D01*
D02*
G37*
%LPC*%
G36*
X7126Y7418D02*
X7014Y7403D01*
X6909Y7360D01*
X6819Y7291D01*
X6750Y7201D01*
X6707Y7096D01*
X6692Y6984D01*
X6707Y6872D01*
X6750Y6767D01*
X6819Y6678D01*
X6909Y6609D01*
X7014Y6565D01*
X7126Y6551D01*
X7238Y6565D01*
X7343Y6609D01*
X7433Y6678D01*
X7502Y6767D01*
X7545Y6872D01*
X7560Y6984D01*
X7545Y7096D01*
X7502Y7201D01*
X7433Y7291D01*
X7343Y7360D01*
X7238Y7403D01*
X7126Y7418D01*
D02*
G37*
G36*
Y8418D02*
X7014Y8403D01*
X6909Y8360D01*
X6819Y8291D01*
X6750Y8201D01*
X6707Y8097D01*
X6692Y7984D01*
X6707Y7872D01*
X6750Y7767D01*
X6819Y7678D01*
X6909Y7609D01*
X7014Y7565D01*
X7126Y7551D01*
X7238Y7565D01*
X7343Y7609D01*
X7433Y7678D01*
X7502Y7767D01*
X7545Y7872D01*
X7560Y7984D01*
X7545Y8097D01*
X7502Y8201D01*
X7433Y8291D01*
X7343Y8360D01*
X7238Y8403D01*
X7126Y8418D01*
D02*
G37*
G36*
Y6418D02*
X7014Y6403D01*
X6909Y6360D01*
X6819Y6291D01*
X6750Y6201D01*
X6707Y6097D01*
X6692Y5984D01*
X6707Y5872D01*
X6750Y5767D01*
X6819Y5678D01*
X6909Y5609D01*
X7014Y5565D01*
X7126Y5551D01*
X7238Y5565D01*
X7343Y5609D01*
X7433Y5678D01*
X7502Y5767D01*
X7545Y5872D01*
X7560Y5984D01*
X7545Y6097D01*
X7502Y6201D01*
X7433Y6291D01*
X7343Y6360D01*
X7238Y6403D01*
X7126Y6418D01*
D02*
G37*
G36*
X1126Y7418D02*
X1014Y7403D01*
X909Y7360D01*
X819Y7291D01*
X750Y7201D01*
X707Y7096D01*
X692Y6984D01*
X707Y6872D01*
X750Y6767D01*
X819Y6678D01*
X909Y6609D01*
X1014Y6565D01*
X1126Y6551D01*
X1238Y6565D01*
X1343Y6609D01*
X1433Y6678D01*
X1502Y6767D01*
X1545Y6872D01*
X1560Y6984D01*
X1545Y7096D01*
X1502Y7201D01*
X1433Y7291D01*
X1343Y7360D01*
X1238Y7403D01*
X1126Y7418D01*
D02*
G37*
G36*
X2276Y8868D02*
X2164Y8853D01*
X2059Y8810D01*
X1969Y8741D01*
X1900Y8651D01*
X1857Y8547D01*
X1842Y8434D01*
X1857Y8322D01*
X1900Y8217D01*
X1969Y8128D01*
X2059Y8059D01*
X2164Y8015D01*
X2276Y8001D01*
X2388Y8015D01*
X2493Y8059D01*
X2583Y8128D01*
X2652Y8217D01*
X2695Y8322D01*
X2710Y8434D01*
X2695Y8547D01*
X2652Y8651D01*
X2583Y8741D01*
X2493Y8810D01*
X2388Y8853D01*
X2276Y8868D01*
D02*
G37*
G36*
Y9868D02*
X2164Y9853D01*
X2059Y9810D01*
X1969Y9741D01*
X1900Y9651D01*
X1857Y9546D01*
X1842Y9434D01*
X1857Y9322D01*
X1900Y9217D01*
X1969Y9128D01*
X2059Y9059D01*
X2164Y9015D01*
X2276Y9001D01*
X2388Y9015D01*
X2493Y9059D01*
X2583Y9128D01*
X2652Y9217D01*
X2695Y9322D01*
X2710Y9434D01*
X2695Y9546D01*
X2652Y9651D01*
X2583Y9741D01*
X2493Y9810D01*
X2388Y9853D01*
X2276Y9868D01*
D02*
G37*
G36*
X1126Y10418D02*
X1014Y10403D01*
X909Y10360D01*
X819Y10291D01*
X750Y10201D01*
X707Y10096D01*
X692Y9984D01*
X707Y9872D01*
X750Y9767D01*
X819Y9678D01*
X909Y9609D01*
X1014Y9565D01*
X1126Y9551D01*
X1238Y9565D01*
X1343Y9609D01*
X1433Y9678D01*
X1502Y9767D01*
X1545Y9872D01*
X1560Y9984D01*
X1545Y10096D01*
X1502Y10201D01*
X1433Y10291D01*
X1343Y10360D01*
X1238Y10403D01*
X1126Y10418D01*
D02*
G37*
G36*
Y9418D02*
X1014Y9403D01*
X909Y9360D01*
X819Y9291D01*
X750Y9201D01*
X707Y9097D01*
X692Y8984D01*
X707Y8872D01*
X750Y8767D01*
X819Y8678D01*
X909Y8609D01*
X1014Y8565D01*
X1126Y8551D01*
X1238Y8565D01*
X1343Y8609D01*
X1433Y8678D01*
X1502Y8767D01*
X1545Y8872D01*
X1560Y8984D01*
X1545Y9097D01*
X1502Y9201D01*
X1433Y9291D01*
X1343Y9360D01*
X1238Y9403D01*
X1126Y9418D01*
D02*
G37*
G36*
X7126D02*
X7014Y9403D01*
X6909Y9360D01*
X6819Y9291D01*
X6750Y9201D01*
X6707Y9097D01*
X6692Y8984D01*
X6707Y8872D01*
X6750Y8767D01*
X6819Y8678D01*
X6909Y8609D01*
X7014Y8565D01*
X7126Y8551D01*
X7238Y8565D01*
X7343Y8609D01*
X7433Y8678D01*
X7502Y8767D01*
X7545Y8872D01*
X7560Y8984D01*
X7545Y9097D01*
X7502Y9201D01*
X7433Y9291D01*
X7343Y9360D01*
X7238Y9403D01*
X7126Y9418D01*
D02*
G37*
G36*
X1126Y6418D02*
X1014Y6403D01*
X909Y6360D01*
X819Y6291D01*
X750Y6201D01*
X707Y6097D01*
X692Y5984D01*
X707Y5872D01*
X750Y5767D01*
X819Y5678D01*
X909Y5609D01*
X1014Y5565D01*
X1126Y5551D01*
X1238Y5565D01*
X1343Y5609D01*
X1433Y5678D01*
X1502Y5767D01*
X1545Y5872D01*
X1560Y5984D01*
X1545Y6097D01*
X1502Y6201D01*
X1433Y6291D01*
X1343Y6360D01*
X1238Y6403D01*
X1126Y6418D01*
D02*
G37*
G36*
X4598Y2563D02*
X4506Y2551D01*
X4419Y2515D01*
X4345Y2458D01*
X4288Y2384D01*
X4252Y2297D01*
X4240Y2205D01*
X4252Y2112D01*
X4288Y2026D01*
X4345Y1951D01*
X4419Y1894D01*
X4506Y1859D01*
X4598Y1846D01*
X4691Y1859D01*
X4778Y1894D01*
X4852Y1951D01*
X4909Y2026D01*
X4945Y2112D01*
X4957Y2205D01*
X4945Y2297D01*
X4909Y2384D01*
X4852Y2458D01*
X4778Y2515D01*
X4691Y2551D01*
X4598Y2563D01*
D02*
G37*
G36*
X5598D02*
X5506Y2551D01*
X5419Y2515D01*
X5345Y2458D01*
X5288Y2384D01*
X5252Y2297D01*
X5240Y2205D01*
X5252Y2112D01*
X5288Y2026D01*
X5345Y1951D01*
X5419Y1894D01*
X5506Y1859D01*
X5598Y1846D01*
X5691Y1859D01*
X5778Y1894D01*
X5852Y1951D01*
X5909Y2026D01*
X5945Y2112D01*
X5957Y2205D01*
X5945Y2297D01*
X5909Y2384D01*
X5852Y2458D01*
X5778Y2515D01*
X5691Y2551D01*
X5598Y2563D01*
D02*
G37*
G36*
X4134Y1697D02*
X3991Y1683D01*
X3853Y1642D01*
X3727Y1574D01*
X3616Y1483D01*
X3525Y1372D01*
X3457Y1245D01*
X3415Y1108D01*
X3401Y965D01*
X3415Y822D01*
X3457Y684D01*
X3525Y557D01*
X3616Y446D01*
X3727Y355D01*
X3853Y288D01*
X3991Y246D01*
X4134Y232D01*
X4277Y246D01*
X4414Y288D01*
X4541Y355D01*
X4652Y446D01*
X4743Y557D01*
X4811Y684D01*
X4853Y822D01*
X4867Y965D01*
X4853Y1108D01*
X4811Y1245D01*
X4743Y1372D01*
X4652Y1483D01*
X4541Y1574D01*
X4414Y1642D01*
X4277Y1683D01*
X4134Y1697D01*
D02*
G37*
G36*
X3598Y2563D02*
X3506Y2551D01*
X3419Y2515D01*
X3345Y2458D01*
X3288Y2384D01*
X3252Y2297D01*
X3240Y2205D01*
X3252Y2112D01*
X3288Y2026D01*
X3345Y1951D01*
X3419Y1894D01*
X3506Y1859D01*
X3598Y1846D01*
X3691Y1859D01*
X3778Y1894D01*
X3852Y1951D01*
X3909Y2026D01*
X3945Y2112D01*
X3957Y2205D01*
X3945Y2297D01*
X3909Y2384D01*
X3852Y2458D01*
X3778Y2515D01*
X3691Y2551D01*
X3598Y2563D01*
D02*
G37*
G36*
X2894Y3628D02*
X2303D01*
X2257Y3609D01*
X2238Y3563D01*
Y2972D01*
X2257Y2927D01*
X2303Y2907D01*
X2894D01*
X2940Y2927D01*
X2959Y2972D01*
Y3563D01*
X2940Y3609D01*
X2894Y3628D01*
D02*
G37*
G36*
X1126Y5418D02*
X1014Y5403D01*
X909Y5360D01*
X819Y5291D01*
X750Y5201D01*
X707Y5096D01*
X692Y4984D01*
X707Y4872D01*
X750Y4767D01*
X819Y4678D01*
X909Y4609D01*
X1014Y4565D01*
X1126Y4551D01*
X1238Y4565D01*
X1343Y4609D01*
X1433Y4678D01*
X1502Y4767D01*
X1545Y4872D01*
X1560Y4984D01*
X1545Y5096D01*
X1502Y5201D01*
X1433Y5291D01*
X1343Y5360D01*
X1238Y5403D01*
X1126Y5418D01*
D02*
G37*
G36*
X7126D02*
X7014Y5403D01*
X6909Y5360D01*
X6819Y5291D01*
X6750Y5201D01*
X6707Y5096D01*
X6692Y4984D01*
X6707Y4872D01*
X6750Y4767D01*
X6819Y4678D01*
X6909Y4609D01*
X7014Y4565D01*
X7126Y4551D01*
X7238Y4565D01*
X7343Y4609D01*
X7433Y4678D01*
X7502Y4767D01*
X7545Y4872D01*
X7560Y4984D01*
X7545Y5096D01*
X7502Y5201D01*
X7433Y5291D01*
X7343Y5360D01*
X7238Y5403D01*
X7126Y5418D01*
D02*
G37*
G36*
X3598Y3626D02*
X3506Y3614D01*
X3419Y3578D01*
X3345Y3521D01*
X3288Y3447D01*
X3252Y3360D01*
X3240Y3268D01*
X3252Y3175D01*
X3288Y3089D01*
X3345Y3014D01*
X3419Y2957D01*
X3506Y2922D01*
X3598Y2909D01*
X3691Y2922D01*
X3778Y2957D01*
X3852Y3014D01*
X3909Y3089D01*
X3945Y3175D01*
X3957Y3268D01*
X3945Y3360D01*
X3909Y3447D01*
X3852Y3521D01*
X3778Y3578D01*
X3691Y3614D01*
X3598Y3626D01*
D02*
G37*
G36*
X4598D02*
X4506Y3614D01*
X4419Y3578D01*
X4345Y3521D01*
X4288Y3447D01*
X4252Y3360D01*
X4240Y3268D01*
X4252Y3175D01*
X4288Y3089D01*
X4345Y3014D01*
X4419Y2957D01*
X4506Y2922D01*
X4598Y2909D01*
X4691Y2922D01*
X4778Y2957D01*
X4852Y3014D01*
X4909Y3089D01*
X4945Y3175D01*
X4957Y3268D01*
X4945Y3360D01*
X4909Y3447D01*
X4852Y3521D01*
X4778Y3578D01*
X4691Y3614D01*
X4598Y3626D01*
D02*
G37*
G36*
X4803Y16609D02*
X4730Y16594D01*
X4668Y16553D01*
X4658Y16539D01*
X4003D01*
X3994Y16553D01*
X3932Y16594D01*
X3858Y16609D01*
X3785Y16594D01*
X3723Y16553D01*
X3681Y16491D01*
X3667Y16417D01*
X3681Y16344D01*
X3723Y16282D01*
X3785Y16240D01*
X3858Y16226D01*
X3932Y16240D01*
X3994Y16282D01*
X4003Y16296D01*
X4658D01*
X4668Y16282D01*
X4730Y16240D01*
X4803Y16226D01*
X4876Y16240D01*
X4939Y16282D01*
X4980Y16344D01*
X4995Y16417D01*
X4980Y16491D01*
X4939Y16553D01*
X4876Y16594D01*
X4803Y16609D01*
D02*
G37*
G36*
X4843Y19011D02*
X4769Y18996D01*
X4707Y18954D01*
X4665Y18892D01*
X4651Y18819D01*
X4665Y18746D01*
X4707Y18683D01*
X4769Y18642D01*
X4797Y18636D01*
X5194Y18240D01*
Y17704D01*
X5179Y17695D01*
X5138Y17632D01*
X5123Y17559D01*
X5138Y17486D01*
X5179Y17424D01*
X5242Y17382D01*
X5315Y17367D01*
X5388Y17382D01*
X5450Y17424D01*
X5492Y17486D01*
X5507Y17559D01*
X5492Y17632D01*
X5450Y17695D01*
X5436Y17704D01*
Y18290D01*
X5427Y18336D01*
X5401Y18376D01*
X5401Y18376D01*
X5021Y18755D01*
X5034Y18819D01*
X5020Y18892D01*
X4978Y18954D01*
X4916Y18996D01*
X4843Y19011D01*
D02*
G37*
G36*
X4921Y26028D02*
X4844Y26013D01*
X4779Y25969D01*
X4735Y25904D01*
X4720Y25827D01*
X4735Y25750D01*
X4779Y25684D01*
X4800Y25670D01*
Y23031D01*
X4800Y23031D01*
X4809Y22985D01*
X4835Y22946D01*
X5587Y22194D01*
Y17255D01*
X5229Y16897D01*
X5203Y16857D01*
X5194Y16811D01*
X5194Y16811D01*
Y16271D01*
X5028Y16106D01*
X1541D01*
X1502Y16201D01*
X1433Y16291D01*
X1343Y16360D01*
X1238Y16403D01*
X1126Y16418D01*
X1014Y16403D01*
X909Y16360D01*
X819Y16291D01*
X750Y16201D01*
X707Y16097D01*
X692Y15984D01*
X707Y15872D01*
X750Y15767D01*
X819Y15678D01*
X909Y15609D01*
X1014Y15565D01*
X1126Y15551D01*
X1238Y15565D01*
X1343Y15609D01*
X1433Y15678D01*
X1502Y15767D01*
X1541Y15863D01*
X5079D01*
X5079Y15863D01*
X5125Y15872D01*
X5165Y15898D01*
X5401Y16135D01*
X5427Y16174D01*
X5436Y16220D01*
X5436Y16220D01*
Y16761D01*
X5794Y17119D01*
X5794Y17119D01*
X5821Y17158D01*
X5830Y17205D01*
X5830Y17205D01*
Y22244D01*
X5821Y22291D01*
X5794Y22330D01*
X5794Y22330D01*
X5043Y23082D01*
Y25670D01*
X5064Y25684D01*
X5108Y25750D01*
X5123Y25827D01*
X5108Y25904D01*
X5064Y25969D01*
X4998Y26013D01*
X4921Y26028D01*
D02*
G37*
G36*
X5315Y24454D02*
X5238Y24438D01*
X5172Y24395D01*
X5129Y24329D01*
X5113Y24252D01*
X5129Y24175D01*
X5172Y24109D01*
X5194Y24095D01*
Y23228D01*
X5194Y23228D01*
X5203Y23182D01*
X5229Y23143D01*
X5981Y22391D01*
Y17137D01*
X5583Y16739D01*
X5557Y16700D01*
X5548Y16654D01*
X5548Y16654D01*
Y15523D01*
X5131Y15106D01*
X1541D01*
X1502Y15201D01*
X1433Y15291D01*
X1343Y15360D01*
X1238Y15403D01*
X1126Y15418D01*
X1014Y15403D01*
X909Y15360D01*
X819Y15291D01*
X750Y15201D01*
X707Y15096D01*
X692Y14984D01*
X707Y14872D01*
X750Y14767D01*
X819Y14678D01*
X909Y14609D01*
X1014Y14565D01*
X1126Y14551D01*
X1238Y14565D01*
X1343Y14609D01*
X1433Y14678D01*
X1502Y14767D01*
X1541Y14863D01*
X5181D01*
X5181Y14863D01*
X5228Y14872D01*
X5267Y14898D01*
X5755Y15387D01*
X5755Y15387D01*
X5781Y15426D01*
X5791Y15472D01*
X5791Y15472D01*
Y16603D01*
X6188Y17001D01*
X6188Y17001D01*
X6215Y17040D01*
X6224Y17087D01*
X6224Y17087D01*
Y22441D01*
X6215Y22487D01*
X6188Y22527D01*
X6188Y22527D01*
X5436Y23279D01*
Y24095D01*
X5458Y24109D01*
X5501Y24175D01*
X5517Y24252D01*
X5501Y24329D01*
X5458Y24395D01*
X5392Y24438D01*
X5315Y24454D01*
D02*
G37*
G36*
X7126Y16418D02*
X7014Y16403D01*
X6909Y16360D01*
X6819Y16291D01*
X6750Y16201D01*
X6707Y16097D01*
X6692Y15984D01*
X6707Y15872D01*
X6750Y15767D01*
X6819Y15678D01*
X6909Y15609D01*
X7014Y15565D01*
X7126Y15551D01*
X7238Y15565D01*
X7343Y15609D01*
X7433Y15678D01*
X7502Y15767D01*
X7545Y15872D01*
X7560Y15984D01*
X7545Y16097D01*
X7502Y16201D01*
X7433Y16291D01*
X7343Y16360D01*
X7238Y16403D01*
X7126Y16418D01*
D02*
G37*
G36*
X2461Y29967D02*
X1870D01*
X1824Y29948D01*
X1805Y29902D01*
Y29311D01*
X1824Y29265D01*
X1870Y29246D01*
X2461D01*
X2507Y29265D01*
X2526Y29311D01*
Y29902D01*
X2507Y29948D01*
X2461Y29967D01*
D02*
G37*
G36*
X1165Y29965D02*
X1073Y29952D01*
X986Y29917D01*
X912Y29860D01*
X855Y29785D01*
X819Y29699D01*
X807Y29606D01*
X819Y29514D01*
X855Y29427D01*
X912Y29353D01*
X986Y29296D01*
X1073Y29260D01*
X1165Y29248D01*
X1258Y29260D01*
X1345Y29296D01*
X1419Y29353D01*
X1476Y29427D01*
X1511Y29514D01*
X1524Y29606D01*
X1511Y29699D01*
X1476Y29785D01*
X1419Y29860D01*
X1345Y29917D01*
X1258Y29952D01*
X1165Y29965D01*
D02*
G37*
G36*
X4134Y30398D02*
X3991Y30384D01*
X3853Y30342D01*
X3727Y30275D01*
X3616Y30184D01*
X3525Y30072D01*
X3457Y29946D01*
X3415Y29808D01*
X3401Y29665D01*
X3415Y29522D01*
X3457Y29385D01*
X3525Y29258D01*
X3616Y29147D01*
X3727Y29056D01*
X3853Y28988D01*
X3991Y28947D01*
X4134Y28933D01*
X4277Y28947D01*
X4414Y28988D01*
X4541Y29056D01*
X4652Y29147D01*
X4743Y29258D01*
X4811Y29385D01*
X4853Y29522D01*
X4867Y29665D01*
X4853Y29808D01*
X4811Y29946D01*
X4743Y30072D01*
X4652Y30184D01*
X4541Y30275D01*
X4414Y30342D01*
X4277Y30384D01*
X4134Y30398D01*
D02*
G37*
G36*
X4508Y17602D02*
X4454Y17591D01*
X4408Y17561D01*
X4400Y17549D01*
X4340D01*
X4332Y17561D01*
X4286Y17591D01*
X4232Y17602D01*
X4178Y17591D01*
X4132Y17561D01*
X4102Y17515D01*
X4091Y17461D01*
X4102Y17407D01*
X4132Y17361D01*
X4178Y17330D01*
X4232Y17319D01*
X4267Y17326D01*
X4273Y17327D01*
X4292Y17280D01*
X4287Y17277D01*
X4270Y17265D01*
X4239Y17219D01*
X4229Y17165D01*
X4239Y17111D01*
X4270Y17065D01*
X4287Y17054D01*
X4292Y17051D01*
X4273Y17004D01*
X4267Y17005D01*
X4232Y17012D01*
X4178Y17001D01*
X4132Y16970D01*
X4102Y16924D01*
X4091Y16870D01*
X4102Y16816D01*
X4132Y16770D01*
X4178Y16739D01*
X4232Y16729D01*
X4286Y16739D01*
X4332Y16770D01*
X4340Y16782D01*
X4400D01*
X4408Y16770D01*
X4454Y16739D01*
X4508Y16729D01*
X4562Y16739D01*
X4608Y16770D01*
X4639Y16816D01*
X4649Y16870D01*
X4639Y16924D01*
X4608Y16970D01*
X4562Y17001D01*
X4508Y17012D01*
X4473Y17005D01*
X4467Y17004D01*
X4448Y17051D01*
X4453Y17054D01*
X4470Y17065D01*
X4501Y17111D01*
X4512Y17165D01*
X4501Y17219D01*
X4470Y17265D01*
X4453Y17277D01*
X4448Y17280D01*
X4467Y17327D01*
X4473Y17326D01*
X4508Y17319D01*
X4562Y17330D01*
X4608Y17361D01*
X4639Y17407D01*
X4649Y17461D01*
X4639Y17515D01*
X4608Y17561D01*
X4562Y17591D01*
X4508Y17602D01*
D02*
G37*
G36*
X5315Y21265D02*
X5238Y21249D01*
X5172Y21206D01*
X5158Y21184D01*
X2913D01*
X2899Y21206D01*
X2833Y21249D01*
X2756Y21265D01*
X2679Y21249D01*
X2613Y21206D01*
X2570Y21140D01*
X2554Y21063D01*
X2570Y20986D01*
X2613Y20920D01*
X2679Y20877D01*
X2756Y20861D01*
X2833Y20877D01*
X2899Y20920D01*
X2913Y20942D01*
X5158D01*
X5172Y20920D01*
X5238Y20877D01*
X5315Y20861D01*
X5392Y20877D01*
X5458Y20920D01*
X5501Y20986D01*
X5517Y21063D01*
X5501Y21140D01*
X5458Y21206D01*
X5392Y21249D01*
X5315Y21265D01*
D02*
G37*
G36*
X1126Y12418D02*
X1014Y12403D01*
X909Y12360D01*
X819Y12291D01*
X750Y12201D01*
X707Y12097D01*
X692Y11984D01*
X707Y11872D01*
X750Y11767D01*
X819Y11678D01*
X909Y11609D01*
X1014Y11565D01*
X1126Y11551D01*
X1238Y11565D01*
X1343Y11609D01*
X1433Y11678D01*
X1502Y11767D01*
X1545Y11872D01*
X1560Y11984D01*
X1545Y12097D01*
X1502Y12201D01*
X1433Y12291D01*
X1343Y12360D01*
X1238Y12403D01*
X1126Y12418D01*
D02*
G37*
G36*
X7126D02*
X7014Y12403D01*
X6909Y12360D01*
X6819Y12291D01*
X6750Y12201D01*
X6707Y12097D01*
X6692Y11984D01*
X6707Y11872D01*
X6750Y11767D01*
X6819Y11678D01*
X6909Y11609D01*
X7014Y11565D01*
X7126Y11551D01*
X7238Y11565D01*
X7343Y11609D01*
X7433Y11678D01*
X7502Y11767D01*
X7545Y11872D01*
X7560Y11984D01*
X7545Y12097D01*
X7502Y12201D01*
X7433Y12291D01*
X7343Y12360D01*
X7238Y12403D01*
X7126Y12418D01*
D02*
G37*
G36*
Y11418D02*
X7014Y11403D01*
X6909Y11360D01*
X6819Y11291D01*
X6750Y11201D01*
X6711Y11106D01*
X5176D01*
X5162Y11127D01*
X5097Y11171D01*
X5020Y11186D01*
X4943Y11171D01*
X4877Y11127D01*
X4833Y11061D01*
X4818Y10984D01*
X4833Y10907D01*
X4877Y10842D01*
X4943Y10798D01*
X5020Y10783D01*
X5097Y10798D01*
X5162Y10842D01*
X5176Y10863D01*
X6711D01*
X6750Y10767D01*
X6819Y10678D01*
X6909Y10609D01*
X7014Y10565D01*
X7126Y10551D01*
X7238Y10565D01*
X7343Y10609D01*
X7433Y10678D01*
X7502Y10767D01*
X7545Y10872D01*
X7560Y10984D01*
X7545Y11097D01*
X7502Y11201D01*
X7433Y11291D01*
X7343Y11360D01*
X7238Y11403D01*
X7126Y11418D01*
D02*
G37*
G36*
Y10418D02*
X7014Y10403D01*
X6909Y10360D01*
X6819Y10291D01*
X6750Y10201D01*
X6717Y10121D01*
X4684D01*
X4670Y10143D01*
X4605Y10186D01*
X4528Y10202D01*
X4450Y10186D01*
X4385Y10143D01*
X4341Y10077D01*
X4326Y10000D01*
X4341Y9923D01*
X4385Y9857D01*
X4450Y9814D01*
X4528Y9798D01*
X4605Y9814D01*
X4670Y9857D01*
X4684Y9879D01*
X6706D01*
X6707Y9872D01*
X6750Y9767D01*
X6819Y9678D01*
X6909Y9609D01*
X7014Y9565D01*
X7126Y9551D01*
X7238Y9565D01*
X7343Y9609D01*
X7433Y9678D01*
X7502Y9767D01*
X7545Y9872D01*
X7560Y9984D01*
X7545Y10096D01*
X7502Y10201D01*
X7433Y10291D01*
X7343Y10360D01*
X7238Y10403D01*
X7126Y10418D01*
D02*
G37*
G36*
X1126Y11418D02*
X1014Y11403D01*
X909Y11360D01*
X819Y11291D01*
X750Y11201D01*
X707Y11097D01*
X692Y10984D01*
X707Y10872D01*
X750Y10767D01*
X819Y10678D01*
X909Y10609D01*
X1014Y10565D01*
X1126Y10551D01*
X1238Y10565D01*
X1343Y10609D01*
X1433Y10678D01*
X1502Y10767D01*
X1545Y10872D01*
X1560Y10984D01*
X1545Y11097D01*
X1502Y11201D01*
X1433Y11291D01*
X1343Y11360D01*
X1238Y11403D01*
X1126Y11418D01*
D02*
G37*
G36*
X7126Y15418D02*
X7014Y15403D01*
X6909Y15360D01*
X6819Y15291D01*
X6750Y15201D01*
X6707Y15096D01*
X6692Y14984D01*
X6707Y14872D01*
X6750Y14767D01*
X6819Y14678D01*
X6909Y14609D01*
X7014Y14565D01*
X7126Y14551D01*
X7238Y14565D01*
X7343Y14609D01*
X7433Y14678D01*
X7502Y14767D01*
X7545Y14872D01*
X7560Y14984D01*
X7545Y15096D01*
X7502Y15201D01*
X7433Y15291D01*
X7343Y15360D01*
X7238Y15403D01*
X7126Y15418D01*
D02*
G37*
G36*
X5709Y23666D02*
X5631Y23651D01*
X5566Y23607D01*
X5522Y23542D01*
X5507Y23465D01*
X5522Y23387D01*
X5566Y23322D01*
X5631Y23278D01*
X5709Y23263D01*
X5734Y23268D01*
X6375Y22627D01*
Y17019D01*
X5938Y16582D01*
X5911Y16543D01*
X5902Y16496D01*
X5902Y16496D01*
Y15129D01*
X5462Y14688D01*
X1709D01*
X1709Y14688D01*
X1662Y14679D01*
X1623Y14653D01*
X1623Y14653D01*
X1334Y14364D01*
X1238Y14403D01*
X1126Y14418D01*
X1014Y14403D01*
X909Y14360D01*
X819Y14291D01*
X750Y14201D01*
X707Y14096D01*
X692Y13984D01*
X707Y13872D01*
X750Y13767D01*
X819Y13678D01*
X909Y13609D01*
X1014Y13565D01*
X1126Y13551D01*
X1238Y13565D01*
X1343Y13609D01*
X1433Y13678D01*
X1502Y13767D01*
X1545Y13872D01*
X1560Y13984D01*
X1545Y14096D01*
X1505Y14192D01*
X1759Y14446D01*
X5512D01*
X5512Y14446D01*
X5558Y14455D01*
X5598Y14481D01*
X6109Y14993D01*
X6136Y15032D01*
X6145Y15079D01*
X6145Y15079D01*
Y16446D01*
X6582Y16883D01*
X6582Y16883D01*
X6608Y16922D01*
X6617Y16968D01*
Y22677D01*
X6617Y22677D01*
X6608Y22724D01*
X6582Y22763D01*
X6582Y22763D01*
X5905Y23440D01*
X5910Y23465D01*
X5895Y23542D01*
X5851Y23607D01*
X5786Y23651D01*
X5709Y23666D01*
D02*
G37*
G36*
X7126Y14418D02*
X7014Y14403D01*
X6909Y14360D01*
X6819Y14291D01*
X6750Y14201D01*
X6707Y14096D01*
X6692Y13984D01*
X6707Y13872D01*
X6750Y13767D01*
X6819Y13678D01*
X6909Y13609D01*
X7014Y13565D01*
X7126Y13551D01*
X7238Y13565D01*
X7343Y13609D01*
X7433Y13678D01*
X7502Y13767D01*
X7545Y13872D01*
X7560Y13984D01*
X7545Y14096D01*
X7502Y14201D01*
X7433Y14291D01*
X7343Y14360D01*
X7238Y14403D01*
X7126Y14418D01*
D02*
G37*
G36*
Y13418D02*
X7014Y13403D01*
X6909Y13360D01*
X6819Y13291D01*
X6750Y13201D01*
X6707Y13096D01*
X6692Y12984D01*
X6707Y12872D01*
X6750Y12767D01*
X6819Y12678D01*
X6909Y12609D01*
X7014Y12565D01*
X7126Y12551D01*
X7238Y12565D01*
X7343Y12609D01*
X7433Y12678D01*
X7502Y12767D01*
X7545Y12872D01*
X7560Y12984D01*
X7545Y13096D01*
X7502Y13201D01*
X7433Y13291D01*
X7343Y13360D01*
X7238Y13403D01*
X7126Y13418D01*
D02*
G37*
G36*
X6102Y25241D02*
X6025Y25226D01*
X5960Y25182D01*
X5916Y25117D01*
X5901Y25039D01*
X5916Y24962D01*
X5960Y24897D01*
X6025Y24853D01*
X6102Y24838D01*
X6127Y24843D01*
X6768Y24202D01*
Y16901D01*
X6295Y16428D01*
X6269Y16388D01*
X6260Y16342D01*
X6260Y16342D01*
Y14424D01*
X4981Y13145D01*
X2557D01*
X2540Y13195D01*
X2583Y13228D01*
X2652Y13317D01*
X2695Y13422D01*
X2710Y13534D01*
X2695Y13647D01*
X2652Y13751D01*
X2583Y13841D01*
X2493Y13910D01*
X2388Y13953D01*
X2276Y13968D01*
X2164Y13953D01*
X2059Y13910D01*
X1969Y13841D01*
X1900Y13751D01*
X1857Y13647D01*
X1842Y13534D01*
X1857Y13422D01*
X1900Y13317D01*
X1969Y13228D01*
X2012Y13195D01*
X1995Y13145D01*
X1525D01*
X1502Y13201D01*
X1433Y13291D01*
X1343Y13360D01*
X1238Y13403D01*
X1126Y13418D01*
X1014Y13403D01*
X909Y13360D01*
X819Y13291D01*
X750Y13201D01*
X707Y13096D01*
X692Y12984D01*
X707Y12872D01*
X750Y12767D01*
X819Y12678D01*
X909Y12609D01*
X1014Y12565D01*
X1126Y12551D01*
X1238Y12565D01*
X1343Y12609D01*
X1433Y12678D01*
X1502Y12767D01*
X1545Y12872D01*
X1549Y12902D01*
X1971D01*
X1987Y12855D01*
X1969Y12841D01*
X1900Y12751D01*
X1857Y12646D01*
X1842Y12534D01*
X1857Y12422D01*
X1900Y12317D01*
X1969Y12228D01*
X2059Y12159D01*
X2164Y12115D01*
X2276Y12101D01*
X2388Y12115D01*
X2493Y12159D01*
X2583Y12228D01*
X2652Y12317D01*
X2695Y12422D01*
X2710Y12534D01*
X2695Y12646D01*
X2652Y12751D01*
X2583Y12841D01*
X2565Y12855D01*
X2581Y12902D01*
X5031D01*
X5031Y12902D01*
X5078Y12911D01*
X5117Y12937D01*
X6467Y14288D01*
X6467Y14288D01*
X6493Y14327D01*
X6503Y14373D01*
X6503Y14373D01*
Y16292D01*
X6976Y16765D01*
X6976Y16765D01*
X7002Y16804D01*
X7011Y16850D01*
X7011Y16850D01*
Y24252D01*
X7011Y24252D01*
X7002Y24298D01*
X6976Y24338D01*
X6976Y24338D01*
X6299Y25014D01*
X6304Y25039D01*
X6289Y25117D01*
X6245Y25182D01*
X6180Y25226D01*
X6102Y25241D01*
D02*
G37*
%LPD*%
D23*
X3858Y16417D02*
X4803D01*
X4843Y18762D02*
X5315Y18290D01*
Y17559D02*
Y18290D01*
X4843Y18762D02*
Y18819D01*
X5315Y16220D02*
Y16811D01*
X5079Y15984D02*
X5315Y16220D01*
X1126Y15984D02*
X5079D01*
X5315Y16811D02*
X5709Y17205D01*
X5669Y16654D02*
X6102Y17087D01*
X5669Y15472D02*
Y16654D01*
X5181Y14984D02*
X5669Y15472D01*
X6024Y16496D02*
X6496Y16968D01*
X6024Y15079D02*
Y16496D01*
X5512Y14567D02*
X6024Y15079D01*
X6381Y16342D02*
X6890Y16850D01*
X6381Y14373D02*
Y16342D01*
X5031Y13023D02*
X6381Y14373D01*
X1709Y14567D02*
X5512D01*
X1126Y13023D02*
X5031D01*
X6890Y16850D02*
Y24252D01*
X4528Y10000D02*
X7110D01*
X7126Y9984D01*
X5020Y10984D02*
X7126D01*
X1126Y13984D02*
X1709Y14567D01*
X1126Y12984D02*
Y13023D01*
X6102Y25039D02*
X6890Y24252D01*
X5709Y23465D02*
X6496Y22677D01*
X5315Y23228D02*
Y24252D01*
Y23228D02*
X6102Y22441D01*
X4921Y23031D02*
Y25827D01*
Y23031D02*
X5709Y22244D01*
Y17205D02*
Y22244D01*
X1126Y14984D02*
X5181D01*
X6102Y17087D02*
Y22441D01*
X6496Y16968D02*
Y22677D01*
X2756Y21063D02*
X5315D01*
D26*
X563Y21588D02*
X170D01*
Y21391D01*
X235Y21326D01*
X367D01*
X432Y21391D01*
Y21588D01*
Y21457D02*
X563Y21326D01*
X170Y20932D02*
Y21195D01*
X367D01*
Y21063D01*
Y21195D01*
X563D01*
Y20801D02*
X170D01*
X301Y20670D01*
X170Y20539D01*
X563D01*
X170Y20145D02*
X235Y20276D01*
X367Y20407D01*
X498D01*
X563Y20342D01*
Y20211D01*
X498Y20145D01*
X432D01*
X367Y20211D01*
Y20407D01*
X498Y20014D02*
X563Y19948D01*
Y19817D01*
X498Y19751D01*
X235D01*
X170Y19817D01*
Y19948D01*
X235Y20014D01*
X301D01*
X367Y19948D01*
Y19751D01*
X301Y19227D02*
X563Y19095D01*
X301Y18964D01*
X563Y18833D02*
Y18702D01*
Y18767D01*
X170D01*
X235Y18833D01*
X563Y18505D02*
X498D01*
Y18439D01*
X563D01*
Y18505D01*
X235Y18177D02*
X170Y18111D01*
Y17980D01*
X235Y17915D01*
X498D01*
X563Y17980D01*
Y18111D01*
X498Y18177D01*
X235D01*
X563Y17784D02*
X498D01*
Y17718D01*
X563D01*
Y17784D01*
Y17456D02*
Y17324D01*
Y17390D01*
X170D01*
X235Y17456D01*
X849Y20735D02*
X784Y20670D01*
Y20539D01*
X849Y20473D01*
X1112D01*
X1177Y20539D01*
Y20670D01*
X1112Y20735D01*
X849D01*
X784Y20079D02*
Y20342D01*
X981D01*
X915Y20211D01*
Y20145D01*
X981Y20079D01*
X1112D01*
X1177Y20145D01*
Y20276D01*
X1112Y20342D01*
X1177Y19948D02*
X915Y19686D01*
X1177Y19292D02*
Y19555D01*
X915Y19292D01*
X849D01*
X784Y19358D01*
Y19489D01*
X849Y19555D01*
Y19161D02*
X784Y19095D01*
Y18964D01*
X849Y18899D01*
X1112D01*
X1177Y18964D01*
Y19095D01*
X1112Y19161D01*
X849D01*
X1177Y18767D02*
Y18636D01*
Y18702D01*
X784D01*
X849Y18767D01*
X784Y18439D02*
Y18177D01*
X849D01*
X1112Y18439D01*
X1177D01*
D27*
X4134Y29665D02*
D03*
Y965D02*
D03*
D28*
X5598Y3268D02*
D03*
X4598D02*
D03*
X3598D02*
D03*
X1165Y29606D02*
D03*
X5598Y2205D02*
D03*
X4598D02*
D03*
X3598D02*
D03*
D29*
X2598Y3268D02*
D03*
X2165Y29606D02*
D03*
X2598Y2205D02*
D03*
D30*
X2276Y8434D02*
D03*
Y9434D02*
D03*
Y12534D02*
D03*
Y13534D02*
D03*
X1126Y15984D02*
D03*
Y14984D02*
D03*
Y13984D02*
D03*
Y12984D02*
D03*
Y11984D02*
D03*
Y10984D02*
D03*
Y9984D02*
D03*
Y8984D02*
D03*
Y7984D02*
D03*
Y6984D02*
D03*
Y5984D02*
D03*
Y4984D02*
D03*
X7126D02*
D03*
Y5984D02*
D03*
Y6984D02*
D03*
Y7984D02*
D03*
Y8984D02*
D03*
Y9984D02*
D03*
Y10984D02*
D03*
Y11984D02*
D03*
Y12984D02*
D03*
Y13984D02*
D03*
Y14984D02*
D03*
Y15984D02*
D03*
D31*
X4803Y16417D02*
D03*
X3858D02*
D03*
X5315Y17559D02*
D03*
X4843Y18819D02*
D03*
D32*
X3858Y19252D02*
D03*
X4016Y19449D02*
D03*
X3740D02*
D03*
X5020Y10984D02*
D03*
X4528Y10000D02*
D03*
X4921Y25827D02*
D03*
X6102Y25039D02*
D03*
X5315Y24252D02*
D03*
X5709Y23465D02*
D03*
X2598Y5315D02*
D03*
X3622D02*
D03*
X2746Y7234D02*
D03*
X5315Y21063D02*
D03*
X2756D02*
D03*
D33*
X4370Y17165D02*
D03*
X4232Y17461D02*
D03*
Y16870D02*
D03*
X4508D02*
D03*
Y17461D02*
D03*
M02*
