G04 Layer_Color=16711935*
%FSLAX24Y24*%
%MOIN*%
G70*
G01*
G75*
%ADD50C,0.1419*%
%ADD51C,0.0671*%
%ADD52R,0.0671X0.0671*%
%ADD53C,0.0820*%
%ADD54C,0.0336*%
%ADD55C,0.0356*%
%ADD56C,0.0237*%
D50*
X4134Y29665D02*
D03*
Y965D02*
D03*
D51*
X5598Y3268D02*
D03*
X4598D02*
D03*
X3598D02*
D03*
X1165Y29606D02*
D03*
X5598Y2205D02*
D03*
X4598D02*
D03*
X3598D02*
D03*
D52*
X2598Y3268D02*
D03*
X2165Y29606D02*
D03*
X2598Y2205D02*
D03*
D53*
X2276Y8434D02*
D03*
Y9434D02*
D03*
Y12534D02*
D03*
Y13534D02*
D03*
X1126Y15984D02*
D03*
Y14984D02*
D03*
Y13984D02*
D03*
Y12984D02*
D03*
Y11984D02*
D03*
Y10984D02*
D03*
Y9984D02*
D03*
Y8984D02*
D03*
Y7984D02*
D03*
Y6984D02*
D03*
Y5984D02*
D03*
Y4984D02*
D03*
X7126D02*
D03*
Y5984D02*
D03*
Y6984D02*
D03*
Y7984D02*
D03*
Y8984D02*
D03*
Y9984D02*
D03*
Y10984D02*
D03*
Y11984D02*
D03*
Y12984D02*
D03*
Y13984D02*
D03*
Y14984D02*
D03*
Y15984D02*
D03*
D54*
X4803Y16417D02*
D03*
X3858D02*
D03*
X5315Y17559D02*
D03*
X4843Y18819D02*
D03*
D55*
X3858Y19252D02*
D03*
X4016Y19449D02*
D03*
X3740D02*
D03*
X5020Y10984D02*
D03*
X4528Y10000D02*
D03*
X4921Y25827D02*
D03*
X6102Y25039D02*
D03*
X5315Y24252D02*
D03*
X5709Y23465D02*
D03*
X2598Y5315D02*
D03*
X3622D02*
D03*
X2746Y7234D02*
D03*
X5315Y21063D02*
D03*
X2756D02*
D03*
D56*
X4370Y17165D02*
D03*
X4232Y17461D02*
D03*
Y16870D02*
D03*
X4508D02*
D03*
Y17461D02*
D03*
M02*
