G04 Layer_Color=8388736*
%FSLAX24Y24*%
%MOIN*%
G70*
G01*
G75*
%ADD37R,0.0552X0.0769*%
%ADD38R,0.0415X0.0336*%
%ADD39R,0.0552X0.0867*%
%ADD40R,0.0395X0.0190*%
%ADD41R,0.0336X0.0415*%
%ADD42R,0.0316X0.0513*%
%ADD43R,0.0880X0.0330*%
%ADD44R,0.0631X0.0474*%
%ADD45R,0.0434X0.0415*%
%ADD46R,0.0474X0.0631*%
%ADD47R,0.1261X0.0552*%
%ADD48R,0.0787X0.0787*%
%ADD49C,0.0787*%
%ADD50C,0.1419*%
%ADD51C,0.0671*%
%ADD52R,0.0671X0.0671*%
%ADD53C,0.0820*%
%ADD54C,0.0336*%
%ADD55C,0.0356*%
%ADD56C,0.0237*%
G36*
X3338Y17011D02*
X3343Y17010D01*
X3348Y17009D01*
X3352Y17006D01*
X3357Y17004D01*
X3361Y17000D01*
X3364Y16996D01*
X3367Y16992D01*
X3369Y16987D01*
X3371Y16982D01*
X3372Y16977D01*
X3373Y16972D01*
Y16622D01*
X3372Y16616D01*
X3371Y16611D01*
X3369Y16606D01*
X3367Y16602D01*
X3364Y16597D01*
X3361Y16593D01*
X3261Y16493D01*
X3257Y16490D01*
X3252Y16487D01*
X3248Y16485D01*
X3243Y16483D01*
X3238Y16482D01*
X3232Y16482D01*
X2232D01*
X2227Y16482D01*
X2222Y16483D01*
X2217Y16485D01*
X2212Y16487D01*
X2208Y16490D01*
X2204Y16493D01*
X2104Y16593D01*
X2101Y16597D01*
X2098Y16602D01*
X2095Y16606D01*
X2094Y16611D01*
X2093Y16616D01*
X2092Y16622D01*
Y16972D01*
X2093Y16977D01*
X2094Y16982D01*
X2095Y16987D01*
X2098Y16992D01*
X2101Y16996D01*
X2104Y17000D01*
X2108Y17004D01*
X2112Y17006D01*
X2117Y17009D01*
X2122Y17010D01*
X2127Y17011D01*
X2132Y17012D01*
X2407D01*
X2409Y17012D01*
X2411Y17012D01*
X2412Y17012D01*
X2413Y17011D01*
X2414Y17011D01*
X2416Y17011D01*
X2417Y17011D01*
X2418Y17010D01*
X2420Y17010D01*
X2421Y17009D01*
X2422Y17009D01*
X2423Y17009D01*
X2424Y17008D01*
X2426Y17007D01*
X2427Y17007D01*
X2428Y17006D01*
X2429Y17005D01*
X2431Y17004D01*
X2431Y17004D01*
X2432Y17004D01*
X2433Y17002D01*
X2435Y17001D01*
X2435Y17001D01*
X2436Y17000D01*
X2437Y16999D01*
X2438Y16997D01*
X2551Y16862D01*
X2914D01*
X3027Y16997D01*
X3028Y16999D01*
X3029Y17000D01*
X3030Y17001D01*
X3030Y17001D01*
X3032Y17002D01*
X3033Y17004D01*
X3034Y17004D01*
X3034Y17004D01*
X3036Y17005D01*
X3037Y17006D01*
X3038Y17007D01*
X3039Y17007D01*
X3040Y17008D01*
X3042Y17009D01*
X3043Y17009D01*
X3044Y17009D01*
X3045Y17010D01*
X3047Y17010D01*
X3048Y17011D01*
X3049Y17011D01*
X3050Y17011D01*
X3052Y17011D01*
X3053Y17012D01*
X3054Y17012D01*
X3056Y17012D01*
X3057Y17012D01*
X3332D01*
X3338Y17011D01*
D02*
G37*
G36*
X3238Y17861D02*
X3243Y17860D01*
X3248Y17859D01*
X3252Y17856D01*
X3257Y17854D01*
X3261Y17850D01*
X3361Y17750D01*
X3364Y17746D01*
X3367Y17742D01*
X3369Y17737D01*
X3371Y17732D01*
X3372Y17727D01*
X3373Y17722D01*
Y17372D01*
X3372Y17366D01*
X3371Y17361D01*
X3369Y17356D01*
X3367Y17352D01*
X3364Y17347D01*
X3361Y17343D01*
X3357Y17340D01*
X3352Y17337D01*
X3348Y17335D01*
X3343Y17333D01*
X3338Y17332D01*
X3332Y17332D01*
X3057D01*
X3056Y17332D01*
X3054Y17332D01*
X3053Y17332D01*
X3052Y17332D01*
X3050Y17332D01*
X3049Y17333D01*
X3048Y17333D01*
X3047Y17333D01*
X3045Y17334D01*
X3044Y17334D01*
X3043Y17334D01*
X3042Y17335D01*
X3040Y17335D01*
X3039Y17336D01*
X3038Y17337D01*
X3037Y17337D01*
X3036Y17338D01*
X3034Y17339D01*
X3034Y17339D01*
X3033Y17340D01*
X3032Y17341D01*
X3030Y17342D01*
X3030Y17343D01*
X3029Y17343D01*
X3028Y17345D01*
X3027Y17346D01*
X2914Y17482D01*
X2551D01*
X2438Y17346D01*
X2437Y17345D01*
X2436Y17343D01*
X2435Y17343D01*
X2435Y17342D01*
X2433Y17341D01*
X2432Y17340D01*
X2431Y17339D01*
X2431Y17339D01*
X2429Y17338D01*
X2428Y17337D01*
X2427Y17337D01*
X2426Y17336D01*
X2424Y17335D01*
X2423Y17335D01*
X2422Y17334D01*
X2421Y17334D01*
X2420Y17334D01*
X2418Y17333D01*
X2417Y17333D01*
X2416Y17333D01*
X2414Y17332D01*
X2413Y17332D01*
X2412Y17332D01*
X2411Y17332D01*
X2409Y17332D01*
X2407Y17332D01*
X2132D01*
X2127Y17332D01*
X2122Y17333D01*
X2117Y17335D01*
X2112Y17337D01*
X2108Y17340D01*
X2104Y17343D01*
X2101Y17347D01*
X2098Y17352D01*
X2095Y17356D01*
X2094Y17361D01*
X2093Y17366D01*
X2092Y17372D01*
Y17722D01*
X2093Y17727D01*
X2094Y17732D01*
X2095Y17737D01*
X2098Y17742D01*
X2101Y17746D01*
X2104Y17750D01*
X2204Y17850D01*
X2208Y17854D01*
X2212Y17856D01*
X2217Y17859D01*
X2222Y17860D01*
X2227Y17861D01*
X2232Y17862D01*
X3232D01*
X3238Y17861D01*
D02*
G37*
D37*
X3957Y20157D02*
D03*
X5020D02*
D03*
D38*
X3622Y4429D02*
D03*
Y5020D02*
D03*
X3150Y11358D02*
D03*
Y11949D02*
D03*
X3701Y11949D02*
D03*
Y11358D02*
D03*
X5276Y18209D02*
D03*
Y18799D02*
D03*
X2598Y4429D02*
D03*
Y5020D02*
D03*
D39*
X4370Y17165D02*
D03*
D40*
X4862D02*
D03*
Y16772D02*
D03*
Y16968D02*
D03*
Y17362D02*
D03*
Y17559D02*
D03*
X3878D02*
D03*
Y17362D02*
D03*
Y16968D02*
D03*
Y16772D02*
D03*
Y17165D02*
D03*
D41*
X4902Y12717D02*
D03*
X4311D02*
D03*
X4445Y18825D02*
D03*
X3855D02*
D03*
D42*
X5020Y12195D02*
D03*
X4272D02*
D03*
X4646Y11427D02*
D03*
D43*
X2732Y16672D02*
D03*
Y17672D02*
D03*
D44*
X2165Y6624D02*
D03*
Y7234D02*
D03*
D45*
X4390Y15906D02*
D03*
X3878D02*
D03*
X4469Y21693D02*
D03*
X3957D02*
D03*
D46*
X4494Y18195D02*
D03*
X3884D02*
D03*
X4518Y20945D02*
D03*
X3907D02*
D03*
D47*
X7087Y25039D02*
D03*
Y24252D02*
D03*
Y23465D02*
D03*
Y22677D02*
D03*
Y25827D02*
D03*
Y26614D02*
D03*
Y27402D02*
D03*
Y28189D02*
D03*
X1181D02*
D03*
Y27402D02*
D03*
Y26614D02*
D03*
Y25827D02*
D03*
Y25039D02*
D03*
Y24252D02*
D03*
Y23465D02*
D03*
Y22677D02*
D03*
D48*
X7362Y29803D02*
D03*
D49*
X827Y984D02*
D03*
D50*
X4134Y29665D02*
D03*
Y965D02*
D03*
D51*
X5598Y3268D02*
D03*
X4598D02*
D03*
X3598D02*
D03*
X1165Y29606D02*
D03*
X5598Y2205D02*
D03*
X4598D02*
D03*
X3598D02*
D03*
D52*
X2598Y3268D02*
D03*
X2165Y29606D02*
D03*
X2598Y2205D02*
D03*
D53*
X2276Y8434D02*
D03*
Y9434D02*
D03*
Y12534D02*
D03*
Y13534D02*
D03*
X1126Y15984D02*
D03*
Y14984D02*
D03*
Y13984D02*
D03*
Y12984D02*
D03*
Y11984D02*
D03*
Y10984D02*
D03*
Y9984D02*
D03*
Y8984D02*
D03*
Y7984D02*
D03*
Y6984D02*
D03*
Y5984D02*
D03*
Y4984D02*
D03*
X7126D02*
D03*
Y5984D02*
D03*
Y6984D02*
D03*
Y7984D02*
D03*
Y8984D02*
D03*
Y9984D02*
D03*
Y10984D02*
D03*
Y11984D02*
D03*
Y12984D02*
D03*
Y13984D02*
D03*
Y14984D02*
D03*
Y15984D02*
D03*
D54*
X4803Y16417D02*
D03*
X3858D02*
D03*
X5315Y17559D02*
D03*
X4843Y18819D02*
D03*
D55*
X3858Y19252D02*
D03*
X4016Y19449D02*
D03*
X3740D02*
D03*
X5020Y10984D02*
D03*
X4528Y10000D02*
D03*
X4921Y25827D02*
D03*
X6102Y25039D02*
D03*
X5315Y24252D02*
D03*
X5709Y23465D02*
D03*
X2598Y5315D02*
D03*
X3622D02*
D03*
X2746Y7234D02*
D03*
X5315Y21063D02*
D03*
X2756D02*
D03*
D56*
X4370Y17165D02*
D03*
X4232Y17461D02*
D03*
Y16870D02*
D03*
X4508D02*
D03*
Y17461D02*
D03*
M02*
