G04 Layer_Color=14474460*
%FSLAX24Y24*%
%MOIN*%
G70*
G01*
G75*
%ADD23C,0.0118*%
%ADD24C,0.0098*%
%ADD34C,0.0079*%
%ADD35C,0.0080*%
%ADD36C,0.0060*%
G36*
X7821Y21654D02*
X7760D01*
Y22041D01*
X7759Y22040D01*
X7756Y22038D01*
X7751Y22034D01*
X7744Y22029D01*
X7736Y22022D01*
X7726Y22015D01*
X7715Y22008D01*
X7702Y21999D01*
X7701D01*
X7700Y21998D01*
X7699Y21997D01*
X7696Y21996D01*
X7693Y21994D01*
X7689Y21992D01*
X7680Y21988D01*
X7671Y21983D01*
X7660Y21977D01*
X7649Y21973D01*
X7638Y21968D01*
Y22027D01*
X7638Y22027D01*
X7640Y22028D01*
X7643Y22030D01*
X7646Y22031D01*
X7651Y22033D01*
X7656Y22037D01*
X7662Y22040D01*
X7668Y22043D01*
X7682Y22052D01*
X7697Y22062D01*
X7713Y22073D01*
X7727Y22085D01*
X7728Y22086D01*
X7729Y22087D01*
X7731Y22088D01*
X7734Y22091D01*
X7736Y22094D01*
X7740Y22097D01*
X7748Y22107D01*
X7757Y22116D01*
X7766Y22128D01*
X7774Y22139D01*
X7781Y22152D01*
X7821D01*
Y21654D01*
D02*
G37*
D23*
X3504Y4724D02*
X3740D01*
X2098Y2768D02*
Y3768D01*
X6098D01*
X2098Y2768D02*
X6098D01*
Y3768D01*
X3031Y11654D02*
X3268D01*
X3583D02*
X3819D01*
X4606Y12598D02*
Y12835D01*
X5157Y18504D02*
X5394D01*
X4150Y18707D02*
Y18943D01*
X5256Y11530D02*
Y11805D01*
X4921Y11530D02*
X5256D01*
X4035D02*
Y11805D01*
Y11530D02*
X4370D01*
X2112Y17083D02*
Y17260D01*
X3353Y17083D02*
Y17260D01*
X665Y29106D02*
X2665D01*
Y30106D01*
X665D02*
X2665D01*
X665Y29106D02*
Y30106D01*
X2098Y1705D02*
Y2705D01*
X6098D01*
X2098Y1705D02*
X6098D01*
Y2705D01*
X1929Y6929D02*
X2402D01*
X4134Y15748D02*
Y16063D01*
X4189Y17959D02*
Y18432D01*
X4213Y21535D02*
Y21850D01*
Y20709D02*
Y21181D01*
X2480Y4724D02*
X2717D01*
D24*
X3928Y17831D02*
G03*
X3928Y17831I-50J0D01*
G01*
X5404Y12195D02*
G03*
X5404Y12195I-49J0D01*
G01*
D34*
X4488Y19882D02*
Y20433D01*
D35*
X384Y22283D02*
X7834D01*
X384D02*
Y28583D01*
X7834D01*
Y22283D02*
Y28583D01*
D36*
X3141Y20333D02*
X3074Y20400D01*
X2941D01*
X2874Y20333D01*
Y20067D01*
X2941Y20000D01*
X3074D01*
X3141Y20067D01*
X3540Y20400D02*
X3407Y20333D01*
X3274Y20200D01*
Y20067D01*
X3341Y20000D01*
X3474D01*
X3540Y20067D01*
Y20133D01*
X3474Y20200D01*
X3274D01*
X512Y22053D02*
Y21720D01*
X578Y21654D01*
X712D01*
X778Y21720D01*
Y22053D01*
X912Y21987D02*
X978Y22053D01*
X1112D01*
X1178Y21987D01*
Y21920D01*
X1112Y21853D01*
X1045D01*
X1112D01*
X1178Y21787D01*
Y21720D01*
X1112Y21654D01*
X978D01*
X912Y21720D01*
X1457Y748D02*
Y1148D01*
X1723Y748D01*
Y1148D01*
X1857D02*
X2123D01*
Y1081D01*
X1857Y815D01*
Y748D01*
X2123D01*
X2256Y1081D02*
X2323Y1148D01*
X2456D01*
X2523Y1081D01*
Y1015D01*
X2456Y948D01*
X2390D01*
X2456D01*
X2523Y881D01*
Y815D01*
X2456Y748D01*
X2323D01*
X2256Y815D01*
X5866Y29606D02*
Y30006D01*
X6133Y29606D01*
Y30006D01*
X6266D02*
X6533D01*
Y29940D01*
X6266Y29673D01*
Y29606D01*
X6533D01*
X6666D02*
X6799D01*
X6733D01*
Y30006D01*
X6666Y29940D01*
X3180Y21081D02*
X3113Y21148D01*
X2980D01*
X2913Y21081D01*
Y20815D01*
X2980Y20748D01*
X3113D01*
X3180Y20815D01*
X3513Y20748D02*
Y21148D01*
X3313Y20948D01*
X3580D01*
X3180Y21829D02*
X3113Y21896D01*
X2980D01*
X2913Y21829D01*
Y21563D01*
X2980Y21496D01*
X3113D01*
X3180Y21563D01*
X3580Y21896D02*
X3313D01*
Y21696D01*
X3447Y21763D01*
X3513D01*
X3580Y21696D01*
Y21563D01*
X3513Y21496D01*
X3380D01*
X3313Y21563D01*
X3459Y5466D02*
Y5866D01*
X3659D01*
X3726Y5800D01*
Y5666D01*
X3659Y5600D01*
X3459D01*
X3592D02*
X3726Y5466D01*
X3859D02*
X3992D01*
X3925D01*
Y5866D01*
X3859Y5800D01*
X4192D02*
X4259Y5866D01*
X4392D01*
X4459Y5800D01*
Y5733D01*
X4392Y5666D01*
X4325D01*
X4392D01*
X4459Y5600D01*
Y5533D01*
X4392Y5466D01*
X4259D01*
X4192Y5533D01*
X2087Y5472D02*
Y5872D01*
X2287D01*
X2353Y5806D01*
Y5672D01*
X2287Y5606D01*
X2087D01*
X2220D02*
X2353Y5472D01*
X2486D02*
X2620D01*
X2553D01*
Y5872D01*
X2486Y5806D01*
X3086Y5472D02*
X2820D01*
X3086Y5739D01*
Y5806D01*
X3020Y5872D01*
X2886D01*
X2820Y5806D01*
X660Y3443D02*
X594Y3510D01*
X460D01*
X394Y3443D01*
Y3177D01*
X460Y3110D01*
X594D01*
X660Y3177D01*
X994Y3510D02*
X860D01*
X794Y3443D01*
Y3177D01*
X860Y3110D01*
X994D01*
X1060Y3177D01*
Y3443D01*
X994Y3510D01*
X1193Y3110D02*
Y3510D01*
X1460Y3110D01*
Y3510D01*
X1860D02*
X1727Y3443D01*
X1593Y3310D01*
Y3177D01*
X1660Y3110D01*
X1793D01*
X1860Y3177D01*
Y3244D01*
X1793Y3310D01*
X1593D01*
X5230Y16772D02*
X5563D01*
X5630Y16838D01*
Y16972D01*
X5563Y17038D01*
X5230D01*
X5630Y17438D02*
Y17172D01*
X5363Y17438D01*
X5297D01*
X5230Y17371D01*
Y17238D01*
X5297Y17172D01*
X3346Y12244D02*
X2947D01*
Y12444D01*
X3013Y12511D01*
X3147D01*
X3213Y12444D01*
Y12244D01*
Y12377D02*
X3346Y12511D01*
X2947Y12911D02*
Y12644D01*
X3147D01*
X3080Y12777D01*
Y12844D01*
X3147Y12911D01*
X3280D01*
X3346Y12844D01*
Y12711D01*
X3280Y12644D01*
X3937Y12244D02*
X3537D01*
Y12444D01*
X3604Y12511D01*
X3737D01*
X3804Y12444D01*
Y12244D01*
Y12377D02*
X3937Y12511D01*
Y12844D02*
X3537D01*
X3737Y12644D01*
Y12911D01*
X5394Y12520D02*
Y12920D01*
X5594D01*
X5660Y12853D01*
Y12720D01*
X5594Y12653D01*
X5394D01*
X5527D02*
X5660Y12520D01*
X5794Y12853D02*
X5860Y12920D01*
X5994D01*
X6060Y12853D01*
Y12786D01*
X5994Y12720D01*
X5927D01*
X5994D01*
X6060Y12653D01*
Y12586D01*
X5994Y12520D01*
X5860D01*
X5794Y12586D01*
X6047Y18183D02*
X5647D01*
Y18383D01*
X5714Y18449D01*
X5847D01*
X5914Y18383D01*
Y18183D01*
Y18316D02*
X6047Y18449D01*
Y18849D02*
Y18582D01*
X5780Y18849D01*
X5714D01*
X5647Y18782D01*
Y18649D01*
X5714Y18582D01*
X2969Y18707D02*
Y19107D01*
X3169D01*
X3235Y19040D01*
Y18907D01*
X3169Y18840D01*
X2969D01*
X3102D02*
X3235Y18707D01*
X3369D02*
X3502D01*
X3435D01*
Y19107D01*
X3369Y19040D01*
X5739Y11641D02*
Y11908D01*
X5672Y11975D01*
X5539D01*
X5472Y11908D01*
Y11641D01*
X5539Y11575D01*
X5672D01*
X5606Y11708D02*
X5739Y11575D01*
X5672D02*
X5739Y11641D01*
X5872Y11575D02*
X6006D01*
X5939D01*
Y11975D01*
X5872Y11908D01*
X1451Y16968D02*
X1850D01*
Y17235D01*
Y17368D02*
Y17502D01*
Y17435D01*
X1451D01*
X1517Y17368D01*
X1133Y28955D02*
X1066Y29022D01*
X933D01*
X866Y28955D01*
Y28689D01*
X933Y28622D01*
X1066D01*
X1133Y28689D01*
X1466Y29022D02*
X1333D01*
X1266Y28955D01*
Y28689D01*
X1333Y28622D01*
X1466D01*
X1533Y28689D01*
Y28955D01*
X1466Y29022D01*
X1666Y28622D02*
Y29022D01*
X1932Y28622D01*
Y29022D01*
X2332D02*
X2066D01*
Y28822D01*
X2199Y28889D01*
X2266D01*
X2332Y28822D01*
Y28689D01*
X2266Y28622D01*
X2132D01*
X2066Y28689D01*
X621Y2341D02*
X554Y2408D01*
X421D01*
X354Y2341D01*
Y2075D01*
X421Y2008D01*
X554D01*
X621Y2075D01*
X954Y2408D02*
X821D01*
X754Y2341D01*
Y2075D01*
X821Y2008D01*
X954D01*
X1021Y2075D01*
Y2341D01*
X954Y2408D01*
X1154Y2008D02*
Y2408D01*
X1421Y2008D01*
Y2408D01*
X1554Y2341D02*
X1621Y2408D01*
X1754D01*
X1821Y2341D01*
Y2274D01*
X1754Y2208D01*
X1687D01*
X1754D01*
X1821Y2141D01*
Y2075D01*
X1754Y2008D01*
X1621D01*
X1554Y2075D01*
X2659Y6526D02*
X2592Y6460D01*
Y6326D01*
X2659Y6260D01*
X2925D01*
X2992Y6326D01*
Y6460D01*
X2925Y6526D01*
X2659Y6660D02*
X2592Y6726D01*
Y6860D01*
X2659Y6926D01*
X2726D01*
X2792Y6860D01*
Y6793D01*
Y6860D01*
X2859Y6926D01*
X2925D01*
X2992Y6860D01*
Y6726D01*
X2925Y6660D01*
X4991Y15884D02*
X4924Y15951D01*
X4791D01*
X4724Y15884D01*
Y15618D01*
X4791Y15551D01*
X4924D01*
X4991Y15618D01*
X5391Y15551D02*
X5124D01*
X5391Y15818D01*
Y15884D01*
X5324Y15951D01*
X5191D01*
X5124Y15884D01*
X3235Y18489D02*
X3169Y18556D01*
X3035D01*
X2969Y18489D01*
Y18223D01*
X3035Y18156D01*
X3169D01*
X3235Y18223D01*
X3369Y18156D02*
X3502D01*
X3435D01*
Y18556D01*
X3369Y18489D01*
X7244Y17211D02*
Y16878D01*
X7311Y16811D01*
X7444D01*
X7511Y16878D01*
Y17211D01*
X7644Y16811D02*
X7777D01*
X7711D01*
Y17211D01*
X7644Y17144D01*
M02*
