G04 Layer_Color=16711935*
%FSLAX24Y24*%
%MOIN*%
G70*
G01*
G75*
%ADD55C,0.0671*%
%ADD56R,0.0671X0.0671*%
%ADD57R,0.0671X0.0671*%
%ADD58C,0.0126*%
%ADD59R,0.1261X0.0552*%
D55*
X4220Y591D02*
D03*
X3220D02*
D03*
X2220D02*
D03*
X1213Y1850D02*
D03*
X2213D02*
D03*
X3213D02*
D03*
X4118Y10276D02*
D03*
X433Y2740D02*
D03*
X2472Y10291D02*
D03*
Y9291D02*
D03*
X1472Y10291D02*
D03*
Y9291D02*
D03*
X472Y10291D02*
D03*
X10164Y6244D02*
D03*
Y2244D02*
D03*
Y3244D02*
D03*
Y4244D02*
D03*
Y5244D02*
D03*
X14850Y591D02*
D03*
X13850D02*
D03*
X12850D02*
D03*
X11842Y1850D02*
D03*
X12842D02*
D03*
X13842D02*
D03*
X14748Y10276D02*
D03*
X11063Y2740D02*
D03*
X13102Y10291D02*
D03*
Y9291D02*
D03*
X12102Y10291D02*
D03*
Y9291D02*
D03*
X11102Y10291D02*
D03*
X20794Y6244D02*
D03*
Y2244D02*
D03*
Y3244D02*
D03*
Y4244D02*
D03*
Y5244D02*
D03*
X25480Y591D02*
D03*
X24480D02*
D03*
X23480D02*
D03*
X22472Y1850D02*
D03*
X23472D02*
D03*
X24472D02*
D03*
X25378Y10276D02*
D03*
X21693Y2740D02*
D03*
X23732Y10291D02*
D03*
Y9291D02*
D03*
X22732Y10291D02*
D03*
Y9291D02*
D03*
X21732Y10291D02*
D03*
X31424Y6244D02*
D03*
Y2244D02*
D03*
Y3244D02*
D03*
Y4244D02*
D03*
Y5244D02*
D03*
X4220Y11339D02*
D03*
X3220D02*
D03*
X2220D02*
D03*
X1213Y12598D02*
D03*
X2213D02*
D03*
X3213D02*
D03*
X4118Y21024D02*
D03*
X433Y13488D02*
D03*
X2472Y21039D02*
D03*
Y20039D02*
D03*
X1472Y21039D02*
D03*
Y20039D02*
D03*
X472Y21039D02*
D03*
X10164Y16992D02*
D03*
Y12992D02*
D03*
Y13992D02*
D03*
Y14992D02*
D03*
Y15992D02*
D03*
X14850Y11339D02*
D03*
X13850D02*
D03*
X12850D02*
D03*
X11842Y12598D02*
D03*
X12842D02*
D03*
X13842D02*
D03*
X14748Y21024D02*
D03*
X11063Y13488D02*
D03*
X13102Y21039D02*
D03*
Y20039D02*
D03*
X12102Y21039D02*
D03*
Y20039D02*
D03*
X11102Y21039D02*
D03*
X20794Y16992D02*
D03*
Y12992D02*
D03*
Y13992D02*
D03*
Y14992D02*
D03*
Y15992D02*
D03*
X25480Y11339D02*
D03*
X24480D02*
D03*
X23480D02*
D03*
X22472Y12598D02*
D03*
X23472D02*
D03*
X24472D02*
D03*
X25378Y21024D02*
D03*
X21693Y13488D02*
D03*
X23732Y21039D02*
D03*
Y20039D02*
D03*
X22732Y21039D02*
D03*
Y20039D02*
D03*
X21732Y21039D02*
D03*
X31424Y16992D02*
D03*
Y12992D02*
D03*
Y13992D02*
D03*
Y14992D02*
D03*
Y15992D02*
D03*
X4220Y22087D02*
D03*
X3220D02*
D03*
X2220D02*
D03*
X1213Y23346D02*
D03*
X2213D02*
D03*
X3213D02*
D03*
X4118Y31772D02*
D03*
X433Y24236D02*
D03*
X2472Y31787D02*
D03*
Y30787D02*
D03*
X1472Y31787D02*
D03*
Y30787D02*
D03*
X472Y31787D02*
D03*
X10164Y27740D02*
D03*
Y23740D02*
D03*
Y24740D02*
D03*
Y25740D02*
D03*
Y26740D02*
D03*
X14850Y22087D02*
D03*
X13850D02*
D03*
X12850D02*
D03*
X11842Y23346D02*
D03*
X12842D02*
D03*
X13842D02*
D03*
X14748Y31772D02*
D03*
X11063Y24236D02*
D03*
X13102Y31787D02*
D03*
Y30787D02*
D03*
X12102Y31787D02*
D03*
Y30787D02*
D03*
X11102Y31787D02*
D03*
X20794Y27740D02*
D03*
Y23740D02*
D03*
Y24740D02*
D03*
Y25740D02*
D03*
Y26740D02*
D03*
X25480Y22087D02*
D03*
X24480D02*
D03*
X23480D02*
D03*
X22472Y23346D02*
D03*
X23472D02*
D03*
X24472D02*
D03*
X25378Y31772D02*
D03*
X21693Y24236D02*
D03*
X23732Y31787D02*
D03*
Y30787D02*
D03*
X22732Y31787D02*
D03*
Y30787D02*
D03*
X21732Y31787D02*
D03*
X31424Y27740D02*
D03*
Y23740D02*
D03*
Y24740D02*
D03*
Y25740D02*
D03*
Y26740D02*
D03*
D56*
X1220Y591D02*
D03*
X4213Y1850D02*
D03*
X5118Y10276D02*
D03*
X472Y9291D02*
D03*
X11850Y591D02*
D03*
X14842Y1850D02*
D03*
X15748Y10276D02*
D03*
X11102Y9291D02*
D03*
X22480Y591D02*
D03*
X25472Y1850D02*
D03*
X26378Y10276D02*
D03*
X21732Y9291D02*
D03*
X1220Y11339D02*
D03*
X4213Y12598D02*
D03*
X5118Y21024D02*
D03*
X472Y20039D02*
D03*
X11850Y11339D02*
D03*
X14842Y12598D02*
D03*
X15748Y21024D02*
D03*
X11102Y20039D02*
D03*
X22480Y11339D02*
D03*
X25472Y12598D02*
D03*
X26378Y21024D02*
D03*
X21732Y20039D02*
D03*
X1220Y22087D02*
D03*
X4213Y23346D02*
D03*
X5118Y31772D02*
D03*
X472Y30787D02*
D03*
X11850Y22087D02*
D03*
X14842Y23346D02*
D03*
X15748Y31772D02*
D03*
X11102Y30787D02*
D03*
X22480Y22087D02*
D03*
X25472Y23346D02*
D03*
X26378Y31772D02*
D03*
X21732Y30787D02*
D03*
D57*
X433Y3740D02*
D03*
X10164Y1244D02*
D03*
X11063Y3740D02*
D03*
X20794Y1244D02*
D03*
X21693Y3740D02*
D03*
X31424Y1244D02*
D03*
X433Y14488D02*
D03*
X10164Y11992D02*
D03*
X11063Y14488D02*
D03*
X20794Y11992D02*
D03*
X21693Y14488D02*
D03*
X31424Y11992D02*
D03*
X433Y25236D02*
D03*
X10164Y22740D02*
D03*
X11063Y25236D02*
D03*
X20794Y22740D02*
D03*
X21693Y25236D02*
D03*
X31424Y22740D02*
D03*
D58*
X10354Y1772D02*
D03*
Y2756D02*
D03*
X7480Y4094D02*
D03*
X8583Y1969D02*
D03*
X3858Y4724D02*
D03*
X7803Y5512D02*
D03*
X4134Y8661D02*
D03*
X4528Y7953D02*
D03*
X2244Y7165D02*
D03*
X10354Y6969D02*
D03*
Y8346D02*
D03*
X3483Y3721D02*
D03*
X6220Y6772D02*
D03*
Y7008D02*
D03*
Y7244D02*
D03*
X5945Y8622D02*
D03*
X3189Y5591D02*
D03*
X3543D02*
D03*
X4409D02*
D03*
X4724Y4094D02*
D03*
X3819Y7067D02*
D03*
X4409Y3819D02*
D03*
X4724Y3543D02*
D03*
X4094Y3474D02*
D03*
X6969Y2953D02*
D03*
X7126Y2638D02*
D03*
X5610Y2677D02*
D03*
X6142D02*
D03*
X7795Y6260D02*
D03*
X6102Y5000D02*
D03*
X2559Y6339D02*
D03*
X2441Y5984D02*
D03*
X2323Y6614D02*
D03*
X2874Y5315D02*
D03*
X9567Y3071D02*
D03*
X8957Y807D02*
D03*
X4588Y1121D02*
D03*
X5906Y1575D02*
D03*
X6339Y8780D02*
D03*
Y9016D02*
D03*
Y9252D02*
D03*
X9567Y10433D02*
D03*
X7441D02*
D03*
X10354Y9567D02*
D03*
Y3740D02*
D03*
Y551D02*
D03*
X6496Y276D02*
D03*
X4685D02*
D03*
X315Y315D02*
D03*
X276Y5000D02*
D03*
Y6496D02*
D03*
Y8740D02*
D03*
Y9803D02*
D03*
X984Y10433D02*
D03*
X5551Y6181D02*
D03*
X5079Y4685D02*
D03*
X2795Y4370D02*
D03*
X2992Y3465D02*
D03*
X2323Y2953D02*
D03*
X5945Y2047D02*
D03*
X6575Y2638D02*
D03*
X7913Y3740D02*
D03*
X4803Y5315D02*
D03*
X20984Y1772D02*
D03*
Y2756D02*
D03*
X18110Y4094D02*
D03*
X19213Y1969D02*
D03*
X14488Y4724D02*
D03*
X18433Y5512D02*
D03*
X14764Y8661D02*
D03*
X15157Y7953D02*
D03*
X12874Y7165D02*
D03*
X20984Y6969D02*
D03*
Y8346D02*
D03*
X14113Y3721D02*
D03*
X16850Y6772D02*
D03*
Y7008D02*
D03*
Y7244D02*
D03*
X16575Y8622D02*
D03*
X13819Y5591D02*
D03*
X14173D02*
D03*
X15039D02*
D03*
X15354Y4094D02*
D03*
X14449Y7067D02*
D03*
X15039Y3819D02*
D03*
X15354Y3543D02*
D03*
X14724Y3474D02*
D03*
X17598Y2953D02*
D03*
X17756Y2638D02*
D03*
X16240Y2677D02*
D03*
X16772D02*
D03*
X18425Y6260D02*
D03*
X16732Y5000D02*
D03*
X13189Y6339D02*
D03*
X13071Y5984D02*
D03*
X12953Y6614D02*
D03*
X13504Y5315D02*
D03*
X20197Y3071D02*
D03*
X19587Y807D02*
D03*
X15217Y1121D02*
D03*
X16535Y1575D02*
D03*
X16968Y8780D02*
D03*
Y9016D02*
D03*
Y9252D02*
D03*
X20197Y10433D02*
D03*
X18071D02*
D03*
X20984Y9567D02*
D03*
Y3740D02*
D03*
Y551D02*
D03*
X17126Y276D02*
D03*
X15315D02*
D03*
X10945Y315D02*
D03*
X10906Y5000D02*
D03*
Y6496D02*
D03*
Y8740D02*
D03*
Y9803D02*
D03*
X11614Y10433D02*
D03*
X16181Y6181D02*
D03*
X15709Y4685D02*
D03*
X13425Y4370D02*
D03*
X13622Y3465D02*
D03*
X12953Y2953D02*
D03*
X16575Y2047D02*
D03*
X17205Y2638D02*
D03*
X18543Y3740D02*
D03*
X15433Y5315D02*
D03*
X31614Y1772D02*
D03*
Y2756D02*
D03*
X28740Y4094D02*
D03*
X29843Y1969D02*
D03*
X25118Y4724D02*
D03*
X29063Y5512D02*
D03*
X25394Y8661D02*
D03*
X25787Y7953D02*
D03*
X23504Y7165D02*
D03*
X31614Y6969D02*
D03*
Y8346D02*
D03*
X24743Y3721D02*
D03*
X27480Y6772D02*
D03*
Y7008D02*
D03*
Y7244D02*
D03*
X27205Y8622D02*
D03*
X24449Y5591D02*
D03*
X24803D02*
D03*
X25669D02*
D03*
X25984Y4094D02*
D03*
X25079Y7067D02*
D03*
X25669Y3819D02*
D03*
X25984Y3543D02*
D03*
X25354Y3474D02*
D03*
X28228Y2953D02*
D03*
X28386Y2638D02*
D03*
X26870Y2677D02*
D03*
X27402D02*
D03*
X29055Y6260D02*
D03*
X27362Y5000D02*
D03*
X23819Y6339D02*
D03*
X23701Y5984D02*
D03*
X23583Y6614D02*
D03*
X24134Y5315D02*
D03*
X30827Y3071D02*
D03*
X30217Y807D02*
D03*
X25847Y1121D02*
D03*
X27165Y1575D02*
D03*
X27598Y8780D02*
D03*
Y9016D02*
D03*
Y9252D02*
D03*
X30827Y10433D02*
D03*
X28701D02*
D03*
X31614Y9567D02*
D03*
Y3740D02*
D03*
Y551D02*
D03*
X27756Y276D02*
D03*
X25945D02*
D03*
X21575Y315D02*
D03*
X21535Y5000D02*
D03*
Y6496D02*
D03*
Y8740D02*
D03*
Y9803D02*
D03*
X22244Y10433D02*
D03*
X26811Y6181D02*
D03*
X26339Y4685D02*
D03*
X24055Y4370D02*
D03*
X24252Y3465D02*
D03*
X23583Y2953D02*
D03*
X27205Y2047D02*
D03*
X27835Y2638D02*
D03*
X29173Y3740D02*
D03*
X26063Y5315D02*
D03*
X10354Y12520D02*
D03*
Y13504D02*
D03*
X7480Y14843D02*
D03*
X8583Y12717D02*
D03*
X3858Y15472D02*
D03*
X7803Y16260D02*
D03*
X4134Y19409D02*
D03*
X4528Y18701D02*
D03*
X2244Y17913D02*
D03*
X10354Y17717D02*
D03*
Y19094D02*
D03*
X3483Y14469D02*
D03*
X6220Y17520D02*
D03*
Y17756D02*
D03*
Y17992D02*
D03*
X5945Y19370D02*
D03*
X3189Y16339D02*
D03*
X3543D02*
D03*
X4409D02*
D03*
X4724Y14843D02*
D03*
X3819Y17815D02*
D03*
X4409Y14567D02*
D03*
X4724Y14291D02*
D03*
X4094Y14222D02*
D03*
X6969Y13701D02*
D03*
X7126Y13386D02*
D03*
X5610Y13425D02*
D03*
X6142D02*
D03*
X7795Y17008D02*
D03*
X6102Y15748D02*
D03*
X2559Y17087D02*
D03*
X2441Y16732D02*
D03*
X2323Y17362D02*
D03*
X2874Y16063D02*
D03*
X9567Y13819D02*
D03*
X8957Y11555D02*
D03*
X4588Y11869D02*
D03*
X5906Y12323D02*
D03*
X6339Y19528D02*
D03*
Y19764D02*
D03*
Y20000D02*
D03*
X9567Y21181D02*
D03*
X7441D02*
D03*
X10354Y20315D02*
D03*
Y14488D02*
D03*
Y11299D02*
D03*
X6496Y11024D02*
D03*
X4685D02*
D03*
X315Y11063D02*
D03*
X276Y15748D02*
D03*
Y17244D02*
D03*
Y19488D02*
D03*
Y20551D02*
D03*
X984Y21181D02*
D03*
X5551Y16929D02*
D03*
X5079Y15433D02*
D03*
X2795Y15118D02*
D03*
X2992Y14213D02*
D03*
X2323Y13701D02*
D03*
X5945Y12795D02*
D03*
X6575Y13386D02*
D03*
X7913Y14488D02*
D03*
X4803Y16063D02*
D03*
X20984Y12520D02*
D03*
Y13504D02*
D03*
X18110Y14843D02*
D03*
X19213Y12717D02*
D03*
X14488Y15472D02*
D03*
X18433Y16260D02*
D03*
X14764Y19409D02*
D03*
X15157Y18701D02*
D03*
X12874Y17913D02*
D03*
X20984Y17717D02*
D03*
Y19094D02*
D03*
X14113Y14469D02*
D03*
X16850Y17520D02*
D03*
Y17756D02*
D03*
Y17992D02*
D03*
X16575Y19370D02*
D03*
X13819Y16339D02*
D03*
X14173D02*
D03*
X15039D02*
D03*
X15354Y14843D02*
D03*
X14449Y17815D02*
D03*
X15039Y14567D02*
D03*
X15354Y14291D02*
D03*
X14724Y14222D02*
D03*
X17598Y13701D02*
D03*
X17756Y13386D02*
D03*
X16240Y13425D02*
D03*
X16772D02*
D03*
X18425Y17008D02*
D03*
X16732Y15748D02*
D03*
X13189Y17087D02*
D03*
X13071Y16732D02*
D03*
X12953Y17362D02*
D03*
X13504Y16063D02*
D03*
X20197Y13819D02*
D03*
X19587Y11555D02*
D03*
X15217Y11869D02*
D03*
X16535Y12323D02*
D03*
X16968Y19528D02*
D03*
Y19764D02*
D03*
Y20000D02*
D03*
X20197Y21181D02*
D03*
X18071D02*
D03*
X20984Y20315D02*
D03*
Y14488D02*
D03*
Y11299D02*
D03*
X17126Y11024D02*
D03*
X15315D02*
D03*
X10945Y11063D02*
D03*
X10906Y15748D02*
D03*
Y17244D02*
D03*
Y19488D02*
D03*
Y20551D02*
D03*
X11614Y21181D02*
D03*
X16181Y16929D02*
D03*
X15709Y15433D02*
D03*
X13425Y15118D02*
D03*
X13622Y14213D02*
D03*
X12953Y13701D02*
D03*
X16575Y12795D02*
D03*
X17205Y13386D02*
D03*
X18543Y14488D02*
D03*
X15433Y16063D02*
D03*
X31614Y12520D02*
D03*
Y13504D02*
D03*
X28740Y14843D02*
D03*
X29843Y12717D02*
D03*
X25118Y15472D02*
D03*
X29063Y16260D02*
D03*
X25394Y19409D02*
D03*
X25787Y18701D02*
D03*
X23504Y17913D02*
D03*
X31614Y17717D02*
D03*
Y19094D02*
D03*
X24743Y14469D02*
D03*
X27480Y17520D02*
D03*
Y17756D02*
D03*
Y17992D02*
D03*
X27205Y19370D02*
D03*
X24449Y16339D02*
D03*
X24803D02*
D03*
X25669D02*
D03*
X25984Y14843D02*
D03*
X25079Y17815D02*
D03*
X25669Y14567D02*
D03*
X25984Y14291D02*
D03*
X25354Y14222D02*
D03*
X28228Y13701D02*
D03*
X28386Y13386D02*
D03*
X26870Y13425D02*
D03*
X27402D02*
D03*
X29055Y17008D02*
D03*
X27362Y15748D02*
D03*
X23819Y17087D02*
D03*
X23701Y16732D02*
D03*
X23583Y17362D02*
D03*
X24134Y16063D02*
D03*
X30827Y13819D02*
D03*
X30217Y11555D02*
D03*
X25847Y11869D02*
D03*
X27165Y12323D02*
D03*
X27598Y19528D02*
D03*
Y19764D02*
D03*
Y20000D02*
D03*
X30827Y21181D02*
D03*
X28701D02*
D03*
X31614Y20315D02*
D03*
Y14488D02*
D03*
Y11299D02*
D03*
X27756Y11024D02*
D03*
X25945D02*
D03*
X21575Y11063D02*
D03*
X21535Y15748D02*
D03*
Y17244D02*
D03*
Y19488D02*
D03*
Y20551D02*
D03*
X22244Y21181D02*
D03*
X26811Y16929D02*
D03*
X26339Y15433D02*
D03*
X24055Y15118D02*
D03*
X24252Y14213D02*
D03*
X23583Y13701D02*
D03*
X27205Y12795D02*
D03*
X27835Y13386D02*
D03*
X29173Y14488D02*
D03*
X26063Y16063D02*
D03*
X10354Y23268D02*
D03*
Y24252D02*
D03*
X7480Y25591D02*
D03*
X8583Y23465D02*
D03*
X3858Y26220D02*
D03*
X7803Y27008D02*
D03*
X4134Y30157D02*
D03*
X4528Y29449D02*
D03*
X2244Y28661D02*
D03*
X10354Y28465D02*
D03*
Y29843D02*
D03*
X3483Y25217D02*
D03*
X6220Y28268D02*
D03*
Y28504D02*
D03*
Y28740D02*
D03*
X5945Y30118D02*
D03*
X3189Y27087D02*
D03*
X3543D02*
D03*
X4409D02*
D03*
X4724Y25591D02*
D03*
X3819Y28563D02*
D03*
X4409Y25315D02*
D03*
X4724Y25039D02*
D03*
X4094Y24970D02*
D03*
X6969Y24449D02*
D03*
X7126Y24134D02*
D03*
X5610Y24173D02*
D03*
X6142D02*
D03*
X7795Y27756D02*
D03*
X6102Y26496D02*
D03*
X2559Y27835D02*
D03*
X2441Y27480D02*
D03*
X2323Y28110D02*
D03*
X2874Y26811D02*
D03*
X9567Y24567D02*
D03*
X8957Y22303D02*
D03*
X4588Y22617D02*
D03*
X5906Y23071D02*
D03*
X6339Y30276D02*
D03*
Y30512D02*
D03*
Y30748D02*
D03*
X9567Y31929D02*
D03*
X7441D02*
D03*
X10354Y31063D02*
D03*
Y25236D02*
D03*
Y22047D02*
D03*
X6496Y21772D02*
D03*
X4685D02*
D03*
X315Y21811D02*
D03*
X276Y26496D02*
D03*
Y27992D02*
D03*
Y30236D02*
D03*
Y31299D02*
D03*
X984Y31929D02*
D03*
X5551Y27677D02*
D03*
X5079Y26181D02*
D03*
X2795Y25866D02*
D03*
X2992Y24961D02*
D03*
X2323Y24449D02*
D03*
X5945Y23543D02*
D03*
X6575Y24134D02*
D03*
X7913Y25236D02*
D03*
X4803Y26811D02*
D03*
X20984Y23268D02*
D03*
Y24252D02*
D03*
X18110Y25591D02*
D03*
X19213Y23465D02*
D03*
X14488Y26220D02*
D03*
X18433Y27008D02*
D03*
X14764Y30157D02*
D03*
X15157Y29449D02*
D03*
X12874Y28661D02*
D03*
X20984Y28465D02*
D03*
Y29843D02*
D03*
X14113Y25217D02*
D03*
X16850Y28268D02*
D03*
Y28504D02*
D03*
Y28740D02*
D03*
X16575Y30118D02*
D03*
X13819Y27087D02*
D03*
X14173D02*
D03*
X15039D02*
D03*
X15354Y25591D02*
D03*
X14449Y28563D02*
D03*
X15039Y25315D02*
D03*
X15354Y25039D02*
D03*
X14724Y24970D02*
D03*
X17598Y24449D02*
D03*
X17756Y24134D02*
D03*
X16240Y24173D02*
D03*
X16772D02*
D03*
X18425Y27756D02*
D03*
X16732Y26496D02*
D03*
X13189Y27835D02*
D03*
X13071Y27480D02*
D03*
X12953Y28110D02*
D03*
X13504Y26811D02*
D03*
X20197Y24567D02*
D03*
X19587Y22303D02*
D03*
X15217Y22617D02*
D03*
X16535Y23071D02*
D03*
X16968Y30276D02*
D03*
Y30512D02*
D03*
Y30748D02*
D03*
X20197Y31929D02*
D03*
X18071D02*
D03*
X20984Y31063D02*
D03*
Y25236D02*
D03*
Y22047D02*
D03*
X17126Y21772D02*
D03*
X15315D02*
D03*
X10945Y21811D02*
D03*
X10906Y26496D02*
D03*
Y27992D02*
D03*
Y30236D02*
D03*
Y31299D02*
D03*
X11614Y31929D02*
D03*
X16181Y27677D02*
D03*
X15709Y26181D02*
D03*
X13425Y25866D02*
D03*
X13622Y24961D02*
D03*
X12953Y24449D02*
D03*
X16575Y23543D02*
D03*
X17205Y24134D02*
D03*
X18543Y25236D02*
D03*
X15433Y26811D02*
D03*
X31614Y23268D02*
D03*
Y24252D02*
D03*
X28740Y25591D02*
D03*
X29843Y23465D02*
D03*
X25118Y26220D02*
D03*
X29063Y27008D02*
D03*
X25394Y30157D02*
D03*
X25787Y29449D02*
D03*
X23504Y28661D02*
D03*
X31614Y28465D02*
D03*
Y29843D02*
D03*
X24743Y25217D02*
D03*
X27480Y28268D02*
D03*
Y28504D02*
D03*
Y28740D02*
D03*
X27205Y30118D02*
D03*
X24449Y27087D02*
D03*
X24803D02*
D03*
X25669D02*
D03*
X25984Y25591D02*
D03*
X25079Y28563D02*
D03*
X25669Y25315D02*
D03*
X25984Y25039D02*
D03*
X25354Y24970D02*
D03*
X28228Y24449D02*
D03*
X28386Y24134D02*
D03*
X26870Y24173D02*
D03*
X27402D02*
D03*
X29055Y27756D02*
D03*
X27362Y26496D02*
D03*
X23819Y27835D02*
D03*
X23701Y27480D02*
D03*
X23583Y28110D02*
D03*
X24134Y26811D02*
D03*
X30827Y24567D02*
D03*
X30217Y22303D02*
D03*
X25847Y22617D02*
D03*
X27165Y23071D02*
D03*
X27598Y30276D02*
D03*
Y30512D02*
D03*
Y30748D02*
D03*
X30827Y31929D02*
D03*
X28701D02*
D03*
X31614Y31063D02*
D03*
Y25236D02*
D03*
Y22047D02*
D03*
X27756Y21772D02*
D03*
X25945D02*
D03*
X21575Y21811D02*
D03*
X21535Y26496D02*
D03*
Y27992D02*
D03*
Y30236D02*
D03*
Y31299D02*
D03*
X22244Y31929D02*
D03*
X26811Y27677D02*
D03*
X26339Y26181D02*
D03*
X24055Y25866D02*
D03*
X24252Y24961D02*
D03*
X23583Y24449D02*
D03*
X27205Y23543D02*
D03*
X27835Y24134D02*
D03*
X29173Y25236D02*
D03*
X26063Y26811D02*
D03*
D59*
X1437Y8465D02*
D03*
Y7677D02*
D03*
Y6890D02*
D03*
Y6102D02*
D03*
Y5315D02*
D03*
Y4528D02*
D03*
Y3740D02*
D03*
Y2953D02*
D03*
X8799D02*
D03*
Y3740D02*
D03*
Y4528D02*
D03*
Y5315D02*
D03*
Y8465D02*
D03*
Y7677D02*
D03*
Y6890D02*
D03*
Y6102D02*
D03*
X12067Y8465D02*
D03*
Y7677D02*
D03*
Y6890D02*
D03*
Y6102D02*
D03*
Y5315D02*
D03*
Y4528D02*
D03*
Y3740D02*
D03*
Y2953D02*
D03*
X19429D02*
D03*
Y3740D02*
D03*
Y4528D02*
D03*
Y5315D02*
D03*
Y8465D02*
D03*
Y7677D02*
D03*
Y6890D02*
D03*
Y6102D02*
D03*
X22697Y8465D02*
D03*
Y7677D02*
D03*
Y6890D02*
D03*
Y6102D02*
D03*
Y5315D02*
D03*
Y4528D02*
D03*
Y3740D02*
D03*
Y2953D02*
D03*
X30059D02*
D03*
Y3740D02*
D03*
Y4528D02*
D03*
Y5315D02*
D03*
Y8465D02*
D03*
Y7677D02*
D03*
Y6890D02*
D03*
Y6102D02*
D03*
X1437Y19213D02*
D03*
Y18425D02*
D03*
Y17638D02*
D03*
Y16850D02*
D03*
Y16063D02*
D03*
Y15276D02*
D03*
Y14488D02*
D03*
Y13701D02*
D03*
X8799D02*
D03*
Y14488D02*
D03*
Y15276D02*
D03*
Y16063D02*
D03*
Y19213D02*
D03*
Y18425D02*
D03*
Y17638D02*
D03*
Y16850D02*
D03*
X12067Y19213D02*
D03*
Y18425D02*
D03*
Y17638D02*
D03*
Y16850D02*
D03*
Y16063D02*
D03*
Y15276D02*
D03*
Y14488D02*
D03*
Y13701D02*
D03*
X19429D02*
D03*
Y14488D02*
D03*
Y15276D02*
D03*
Y16063D02*
D03*
Y19213D02*
D03*
Y18425D02*
D03*
Y17638D02*
D03*
Y16850D02*
D03*
X22697Y19213D02*
D03*
Y18425D02*
D03*
Y17638D02*
D03*
Y16850D02*
D03*
Y16063D02*
D03*
Y15276D02*
D03*
Y14488D02*
D03*
Y13701D02*
D03*
X30059D02*
D03*
Y14488D02*
D03*
Y15276D02*
D03*
Y16063D02*
D03*
Y19213D02*
D03*
Y18425D02*
D03*
Y17638D02*
D03*
Y16850D02*
D03*
X1437Y29961D02*
D03*
Y29173D02*
D03*
Y28386D02*
D03*
Y27598D02*
D03*
Y26811D02*
D03*
Y26024D02*
D03*
Y25236D02*
D03*
Y24449D02*
D03*
X8799D02*
D03*
Y25236D02*
D03*
Y26024D02*
D03*
Y26811D02*
D03*
Y29961D02*
D03*
Y29173D02*
D03*
Y28386D02*
D03*
Y27598D02*
D03*
X12067Y29961D02*
D03*
Y29173D02*
D03*
Y28386D02*
D03*
Y27598D02*
D03*
Y26811D02*
D03*
Y26024D02*
D03*
Y25236D02*
D03*
Y24449D02*
D03*
X19429D02*
D03*
Y25236D02*
D03*
Y26024D02*
D03*
Y26811D02*
D03*
Y29961D02*
D03*
Y29173D02*
D03*
Y28386D02*
D03*
Y27598D02*
D03*
X22697Y29961D02*
D03*
Y29173D02*
D03*
Y28386D02*
D03*
Y27598D02*
D03*
Y26811D02*
D03*
Y26024D02*
D03*
Y25236D02*
D03*
Y24449D02*
D03*
X30059D02*
D03*
Y25236D02*
D03*
Y26024D02*
D03*
Y26811D02*
D03*
Y29961D02*
D03*
Y29173D02*
D03*
Y28386D02*
D03*
Y27598D02*
D03*
M02*
