G04 Layer_Color=13278208*
%FSLAX24Y24*%
%MOIN*%
G70*
G01*
G75*
%ADD26C,0.0118*%
%ADD29C,0.0039*%
D26*
X0Y10748D02*
X10630D01*
X0Y0D02*
Y10748D01*
X10630Y0D02*
Y10748D01*
X0Y0D02*
X10630D01*
Y10748D02*
X21260D01*
X10630Y0D02*
Y10748D01*
X21260Y0D02*
Y10748D01*
X10630Y0D02*
X21260D01*
Y10748D02*
X31890D01*
X21260Y0D02*
Y10748D01*
X31890Y0D02*
Y10748D01*
X21260Y0D02*
X31890D01*
X0Y21496D02*
X10630D01*
X0Y10748D02*
Y21496D01*
X10630Y10748D02*
Y21496D01*
X0Y10748D02*
X10630D01*
Y21496D02*
X21260D01*
X10630Y10748D02*
Y21496D01*
X21260Y10748D02*
Y21496D01*
X10630Y10748D02*
X21260D01*
Y21496D02*
X31890D01*
X21260Y10748D02*
Y21496D01*
X31890Y10748D02*
Y21496D01*
X21260Y10748D02*
X31890D01*
X0Y32244D02*
X10630D01*
X0Y21496D02*
Y32244D01*
X10630Y21496D02*
Y32244D01*
X0Y21496D02*
X10630D01*
Y32244D02*
X21260D01*
X10630Y21496D02*
Y32244D01*
X21260Y21496D02*
Y32244D01*
X10630Y21496D02*
X21260D01*
Y32244D02*
X31890D01*
X21260Y21496D02*
Y32244D01*
X31890Y21496D02*
Y32244D01*
X21260Y21496D02*
X31890D01*
D29*
X31890Y0D02*
Y32244D01*
X0Y0D02*
X31890D01*
X0Y32244D02*
X31890D01*
X0Y0D02*
Y32244D01*
M02*
