G04 Layer_Color=65535*
%FSLAX24Y24*%
%MOIN*%
G70*
G01*
G75*
%ADD37C,0.0100*%
%ADD60C,0.0080*%
G36*
X31123Y30210D02*
X31131Y30198D01*
X31140Y30187D01*
X31150Y30177D01*
X31158Y30168D01*
X31161Y30165D01*
X31164Y30162D01*
X31167Y30159D01*
X31169Y30157D01*
X31170Y30156D01*
X31171Y30156D01*
X31185Y30144D01*
X31201Y30133D01*
X31216Y30123D01*
X31230Y30114D01*
X31236Y30111D01*
X31242Y30107D01*
X31247Y30104D01*
X31251Y30102D01*
X31255Y30100D01*
X31258Y30099D01*
X31259Y30098D01*
X31260Y30098D01*
Y30039D01*
X31249Y30043D01*
X31238Y30048D01*
X31227Y30054D01*
X31217Y30059D01*
X31209Y30063D01*
X31205Y30065D01*
X31202Y30067D01*
X31199Y30068D01*
X31197Y30069D01*
X31196Y30070D01*
X31196D01*
X31183Y30078D01*
X31172Y30086D01*
X31161Y30093D01*
X31153Y30099D01*
X31146Y30105D01*
X31141Y30109D01*
X31139Y30111D01*
X31138Y30112D01*
Y29724D01*
X31077D01*
Y30223D01*
X31116D01*
X31123Y30210D01*
D02*
G37*
G36*
X20493D02*
X20501Y30198D01*
X20510Y30187D01*
X20520Y30177D01*
X20528Y30168D01*
X20531Y30165D01*
X20534Y30162D01*
X20537Y30159D01*
X20539Y30157D01*
X20540Y30156D01*
X20541Y30156D01*
X20555Y30144D01*
X20571Y30133D01*
X20586Y30123D01*
X20600Y30114D01*
X20606Y30111D01*
X20612Y30107D01*
X20617Y30104D01*
X20621Y30102D01*
X20625Y30100D01*
X20628Y30099D01*
X20629Y30098D01*
X20630Y30098D01*
Y30039D01*
X20619Y30043D01*
X20608Y30048D01*
X20597Y30054D01*
X20587Y30059D01*
X20579Y30063D01*
X20575Y30065D01*
X20572Y30067D01*
X20569Y30068D01*
X20568Y30069D01*
X20566Y30070D01*
X20566D01*
X20553Y30078D01*
X20542Y30086D01*
X20531Y30093D01*
X20523Y30099D01*
X20516Y30105D01*
X20512Y30109D01*
X20509Y30111D01*
X20508Y30112D01*
Y29724D01*
X20447D01*
Y30223D01*
X20486D01*
X20493Y30210D01*
D02*
G37*
G36*
X9863D02*
X9871Y30198D01*
X9881Y30187D01*
X9890Y30177D01*
X9898Y30168D01*
X9902Y30165D01*
X9904Y30162D01*
X9907Y30159D01*
X9909Y30157D01*
X9910Y30156D01*
X9911Y30156D01*
X9925Y30144D01*
X9941Y30133D01*
X9956Y30123D01*
X9970Y30114D01*
X9976Y30111D01*
X9982Y30107D01*
X9987Y30104D01*
X9991Y30102D01*
X9995Y30100D01*
X9998Y30099D01*
X9999Y30098D01*
X10000Y30098D01*
Y30039D01*
X9989Y30043D01*
X9978Y30048D01*
X9967Y30054D01*
X9958Y30059D01*
X9949Y30063D01*
X9945Y30065D01*
X9942Y30067D01*
X9939Y30068D01*
X9938Y30069D01*
X9937Y30070D01*
X9936D01*
X9923Y30078D01*
X9912Y30086D01*
X9902Y30093D01*
X9893Y30099D01*
X9886Y30105D01*
X9882Y30109D01*
X9879Y30111D01*
X9878Y30112D01*
Y29724D01*
X9817D01*
Y30223D01*
X9856D01*
X9863Y30210D01*
D02*
G37*
G36*
X31123Y19462D02*
X31131Y19450D01*
X31140Y19439D01*
X31150Y19429D01*
X31158Y19420D01*
X31161Y19417D01*
X31164Y19414D01*
X31167Y19411D01*
X31169Y19409D01*
X31170Y19408D01*
X31171Y19408D01*
X31185Y19395D01*
X31201Y19385D01*
X31216Y19375D01*
X31230Y19366D01*
X31236Y19363D01*
X31242Y19359D01*
X31247Y19356D01*
X31251Y19354D01*
X31255Y19352D01*
X31258Y19351D01*
X31259Y19350D01*
X31260Y19350D01*
Y19291D01*
X31249Y19295D01*
X31238Y19300D01*
X31227Y19306D01*
X31217Y19310D01*
X31209Y19315D01*
X31205Y19317D01*
X31202Y19319D01*
X31199Y19320D01*
X31197Y19321D01*
X31196Y19322D01*
X31196D01*
X31183Y19330D01*
X31172Y19338D01*
X31161Y19345D01*
X31153Y19351D01*
X31146Y19357D01*
X31141Y19361D01*
X31139Y19363D01*
X31138Y19364D01*
Y18976D01*
X31077D01*
Y19475D01*
X31116D01*
X31123Y19462D01*
D02*
G37*
G36*
X20493D02*
X20501Y19450D01*
X20510Y19439D01*
X20520Y19429D01*
X20528Y19420D01*
X20531Y19417D01*
X20534Y19414D01*
X20537Y19411D01*
X20539Y19409D01*
X20540Y19408D01*
X20541Y19408D01*
X20555Y19395D01*
X20571Y19385D01*
X20586Y19375D01*
X20600Y19366D01*
X20606Y19363D01*
X20612Y19359D01*
X20617Y19356D01*
X20621Y19354D01*
X20625Y19352D01*
X20628Y19351D01*
X20629Y19350D01*
X20630Y19350D01*
Y19291D01*
X20619Y19295D01*
X20608Y19300D01*
X20597Y19306D01*
X20587Y19310D01*
X20579Y19315D01*
X20575Y19317D01*
X20572Y19319D01*
X20569Y19320D01*
X20568Y19321D01*
X20566Y19322D01*
X20566D01*
X20553Y19330D01*
X20542Y19338D01*
X20531Y19345D01*
X20523Y19351D01*
X20516Y19357D01*
X20512Y19361D01*
X20509Y19363D01*
X20508Y19364D01*
Y18976D01*
X20447D01*
Y19475D01*
X20486D01*
X20493Y19462D01*
D02*
G37*
G36*
X9863D02*
X9871Y19450D01*
X9881Y19439D01*
X9890Y19429D01*
X9898Y19420D01*
X9902Y19417D01*
X9904Y19414D01*
X9907Y19411D01*
X9909Y19409D01*
X9910Y19408D01*
X9911Y19408D01*
X9925Y19395D01*
X9941Y19385D01*
X9956Y19375D01*
X9970Y19366D01*
X9976Y19363D01*
X9982Y19359D01*
X9987Y19356D01*
X9991Y19354D01*
X9995Y19352D01*
X9998Y19351D01*
X9999Y19350D01*
X10000Y19350D01*
Y19291D01*
X9989Y19295D01*
X9978Y19300D01*
X9967Y19306D01*
X9958Y19310D01*
X9949Y19315D01*
X9945Y19317D01*
X9942Y19319D01*
X9939Y19320D01*
X9938Y19321D01*
X9937Y19322D01*
X9936D01*
X9923Y19330D01*
X9912Y19338D01*
X9902Y19345D01*
X9893Y19351D01*
X9886Y19357D01*
X9882Y19361D01*
X9879Y19363D01*
X9878Y19364D01*
Y18976D01*
X9817D01*
Y19475D01*
X9856D01*
X9863Y19462D01*
D02*
G37*
G36*
X31123Y8714D02*
X31131Y8702D01*
X31140Y8691D01*
X31150Y8681D01*
X31158Y8672D01*
X31161Y8669D01*
X31164Y8666D01*
X31167Y8663D01*
X31169Y8661D01*
X31170Y8660D01*
X31171Y8660D01*
X31185Y8647D01*
X31201Y8637D01*
X31216Y8626D01*
X31230Y8618D01*
X31236Y8615D01*
X31242Y8611D01*
X31247Y8608D01*
X31251Y8606D01*
X31255Y8604D01*
X31258Y8603D01*
X31259Y8602D01*
X31260Y8602D01*
Y8543D01*
X31249Y8547D01*
X31238Y8552D01*
X31227Y8558D01*
X31217Y8562D01*
X31209Y8567D01*
X31205Y8569D01*
X31202Y8571D01*
X31199Y8572D01*
X31197Y8573D01*
X31196Y8574D01*
X31196D01*
X31183Y8582D01*
X31172Y8590D01*
X31161Y8597D01*
X31153Y8603D01*
X31146Y8609D01*
X31141Y8612D01*
X31139Y8615D01*
X31138Y8616D01*
Y8228D01*
X31077D01*
Y8727D01*
X31116D01*
X31123Y8714D01*
D02*
G37*
G36*
X20493D02*
X20501Y8702D01*
X20510Y8691D01*
X20520Y8681D01*
X20528Y8672D01*
X20531Y8669D01*
X20534Y8666D01*
X20537Y8663D01*
X20539Y8661D01*
X20540Y8660D01*
X20541Y8660D01*
X20555Y8647D01*
X20571Y8637D01*
X20586Y8626D01*
X20600Y8618D01*
X20606Y8615D01*
X20612Y8611D01*
X20617Y8608D01*
X20621Y8606D01*
X20625Y8604D01*
X20628Y8603D01*
X20629Y8602D01*
X20630Y8602D01*
Y8543D01*
X20619Y8547D01*
X20608Y8552D01*
X20597Y8558D01*
X20587Y8562D01*
X20579Y8567D01*
X20575Y8569D01*
X20572Y8571D01*
X20569Y8572D01*
X20568Y8573D01*
X20566Y8574D01*
X20566D01*
X20553Y8582D01*
X20542Y8590D01*
X20531Y8597D01*
X20523Y8603D01*
X20516Y8609D01*
X20512Y8612D01*
X20509Y8615D01*
X20508Y8616D01*
Y8228D01*
X20447D01*
Y8727D01*
X20486D01*
X20493Y8714D01*
D02*
G37*
G36*
X9863D02*
X9871Y8702D01*
X9881Y8691D01*
X9890Y8681D01*
X9898Y8672D01*
X9902Y8669D01*
X9904Y8666D01*
X9907Y8663D01*
X9909Y8661D01*
X9910Y8660D01*
X9911Y8660D01*
X9925Y8647D01*
X9941Y8637D01*
X9956Y8626D01*
X9970Y8618D01*
X9976Y8615D01*
X9982Y8611D01*
X9987Y8608D01*
X9991Y8606D01*
X9995Y8604D01*
X9998Y8603D01*
X9999Y8602D01*
X10000Y8602D01*
Y8543D01*
X9989Y8547D01*
X9978Y8552D01*
X9967Y8558D01*
X9958Y8562D01*
X9949Y8567D01*
X9945Y8569D01*
X9942Y8571D01*
X9939Y8572D01*
X9938Y8573D01*
X9937Y8574D01*
X9936D01*
X9923Y8582D01*
X9912Y8590D01*
X9902Y8597D01*
X9893Y8603D01*
X9886Y8609D01*
X9882Y8612D01*
X9879Y8615D01*
X9878Y8616D01*
Y8228D01*
X9817D01*
Y8727D01*
X9856D01*
X9863Y8714D01*
D02*
G37*
D37*
X9482Y9798D02*
Y9299D01*
X9383Y9199D01*
X9183D01*
X9083Y9299D01*
Y9798D01*
X8883Y9698D02*
X8783Y9798D01*
X8583D01*
X8483Y9698D01*
Y9598D01*
X8583Y9498D01*
X8683D01*
X8583D01*
X8483Y9399D01*
Y9299D01*
X8583Y9199D01*
X8783D01*
X8883Y9299D01*
X20112Y9798D02*
Y9299D01*
X20012Y9199D01*
X19813D01*
X19713Y9299D01*
Y9798D01*
X19513Y9698D02*
X19413Y9798D01*
X19213D01*
X19113Y9698D01*
Y9598D01*
X19213Y9498D01*
X19313D01*
X19213D01*
X19113Y9399D01*
Y9299D01*
X19213Y9199D01*
X19413D01*
X19513Y9299D01*
X30742Y9798D02*
Y9299D01*
X30642Y9199D01*
X30442D01*
X30342Y9299D01*
Y9798D01*
X30143Y9698D02*
X30043Y9798D01*
X29843D01*
X29743Y9698D01*
Y9598D01*
X29843Y9498D01*
X29943D01*
X29843D01*
X29743Y9399D01*
Y9299D01*
X29843Y9199D01*
X30043D01*
X30143Y9299D01*
X9482Y20546D02*
Y20047D01*
X9383Y19947D01*
X9183D01*
X9083Y20047D01*
Y20546D01*
X8883Y20446D02*
X8783Y20546D01*
X8583D01*
X8483Y20446D01*
Y20346D01*
X8583Y20247D01*
X8683D01*
X8583D01*
X8483Y20147D01*
Y20047D01*
X8583Y19947D01*
X8783D01*
X8883Y20047D01*
X20112Y20546D02*
Y20047D01*
X20012Y19947D01*
X19813D01*
X19713Y20047D01*
Y20546D01*
X19513Y20446D02*
X19413Y20546D01*
X19213D01*
X19113Y20446D01*
Y20346D01*
X19213Y20247D01*
X19313D01*
X19213D01*
X19113Y20147D01*
Y20047D01*
X19213Y19947D01*
X19413D01*
X19513Y20047D01*
X30742Y20546D02*
Y20047D01*
X30642Y19947D01*
X30442D01*
X30342Y20047D01*
Y20546D01*
X30143Y20446D02*
X30043Y20546D01*
X29843D01*
X29743Y20446D01*
Y20346D01*
X29843Y20247D01*
X29943D01*
X29843D01*
X29743Y20147D01*
Y20047D01*
X29843Y19947D01*
X30043D01*
X30143Y20047D01*
X9482Y31294D02*
Y30795D01*
X9383Y30695D01*
X9183D01*
X9083Y30795D01*
Y31294D01*
X8883Y31194D02*
X8783Y31294D01*
X8583D01*
X8483Y31194D01*
Y31095D01*
X8583Y30995D01*
X8683D01*
X8583D01*
X8483Y30895D01*
Y30795D01*
X8583Y30695D01*
X8783D01*
X8883Y30795D01*
X20112Y31294D02*
Y30795D01*
X20012Y30695D01*
X19813D01*
X19713Y30795D01*
Y31294D01*
X19513Y31194D02*
X19413Y31294D01*
X19213D01*
X19113Y31194D01*
Y31095D01*
X19213Y30995D01*
X19313D01*
X19213D01*
X19113Y30895D01*
Y30795D01*
X19213Y30695D01*
X19413D01*
X19513Y30795D01*
X30742Y31294D02*
Y30795D01*
X30642Y30695D01*
X30442D01*
X30342Y30795D01*
Y31294D01*
X30143Y31194D02*
X30043Y31294D01*
X29843D01*
X29743Y31194D01*
Y31095D01*
X29843Y30995D01*
X29943D01*
X29843D01*
X29743Y30895D01*
Y30795D01*
X29843Y30695D01*
X30043D01*
X30143Y30795D01*
D60*
X9547Y2559D02*
Y8858D01*
X689Y2559D02*
X9547D01*
X689D02*
Y8858D01*
X9547D01*
X20177Y2559D02*
Y8858D01*
X11319Y2559D02*
X20177D01*
X11319D02*
Y8858D01*
X20177D01*
X30807Y2559D02*
Y8858D01*
X21949Y2559D02*
X30807D01*
X21949D02*
Y8858D01*
X30807D01*
X9547Y13307D02*
Y19606D01*
X689Y13307D02*
X9547D01*
X689D02*
Y19606D01*
X9547D01*
X20177Y13307D02*
Y19606D01*
X11319Y13307D02*
X20177D01*
X11319D02*
Y19606D01*
X20177D01*
X30807Y13307D02*
Y19606D01*
X21949Y13307D02*
X30807D01*
X21949D02*
Y19606D01*
X30807D01*
X9547Y24055D02*
Y30354D01*
X689Y24055D02*
X9547D01*
X689D02*
Y30354D01*
X9547D01*
X20177Y24055D02*
Y30354D01*
X11319Y24055D02*
X20177D01*
X11319D02*
Y30354D01*
X20177D01*
X30807Y24055D02*
Y30354D01*
X21949Y24055D02*
X30807D01*
X21949D02*
Y30354D01*
X30807D01*
M02*
