G04 Layer_Color=8388736*
%FSLAX24Y24*%
%MOIN*%
G70*
G01*
G75*
%ADD39O,0.0671X0.0297*%
%ADD40O,0.0297X0.0671*%
%ADD41R,0.0474X0.0631*%
%ADD42R,0.0434X0.0415*%
%ADD43R,0.0415X0.0434*%
%ADD44R,0.0552X0.0769*%
%ADD45R,0.0474X0.1143*%
%ADD46R,0.0316X0.0513*%
%ADD47R,0.0415X0.0336*%
%ADD48R,0.0336X0.0415*%
%ADD49R,0.0335X0.0150*%
%ADD50R,0.0787X0.0787*%
%ADD51C,0.0787*%
G04:AMPARAMS|DCode=52|XSize=23.7mil|YSize=86.7mil|CornerRadius=4.8mil|HoleSize=0mil|Usage=FLASHONLY|Rotation=0.000|XOffset=0mil|YOffset=0mil|HoleType=Round|Shape=RoundedRectangle|*
%AMROUNDEDRECTD52*
21,1,0.0237,0.0772,0,0,0.0*
21,1,0.0142,0.0867,0,0,0.0*
1,1,0.0096,0.0071,-0.0386*
1,1,0.0096,-0.0071,-0.0386*
1,1,0.0096,-0.0071,0.0386*
1,1,0.0096,0.0071,0.0386*
%
%ADD52ROUNDEDRECTD52*%
%ADD53R,0.1064X0.0710*%
%ADD54O,0.0257X0.0415*%
%ADD55C,0.0671*%
%ADD56R,0.0671X0.0671*%
%ADD57R,0.0671X0.0671*%
%ADD58C,0.0126*%
D39*
X5610Y3425D02*
D03*
Y3740D02*
D03*
Y4055D02*
D03*
Y4370D02*
D03*
Y4685D02*
D03*
Y5000D02*
D03*
Y5315D02*
D03*
Y5630D02*
D03*
X2264D02*
D03*
Y5315D02*
D03*
Y5000D02*
D03*
Y4685D02*
D03*
Y4370D02*
D03*
Y4055D02*
D03*
Y3740D02*
D03*
Y3425D02*
D03*
X16240D02*
D03*
Y3740D02*
D03*
Y4055D02*
D03*
Y4370D02*
D03*
Y4685D02*
D03*
Y5000D02*
D03*
Y5315D02*
D03*
Y5630D02*
D03*
X12894D02*
D03*
Y5315D02*
D03*
Y5000D02*
D03*
Y4685D02*
D03*
Y4370D02*
D03*
Y4055D02*
D03*
Y3740D02*
D03*
Y3425D02*
D03*
X26870D02*
D03*
Y3740D02*
D03*
Y4055D02*
D03*
Y4370D02*
D03*
Y4685D02*
D03*
Y5000D02*
D03*
Y5315D02*
D03*
Y5630D02*
D03*
X23524D02*
D03*
Y5315D02*
D03*
Y5000D02*
D03*
Y4685D02*
D03*
Y4370D02*
D03*
Y4055D02*
D03*
Y3740D02*
D03*
Y3425D02*
D03*
X5610Y14173D02*
D03*
Y14488D02*
D03*
Y14803D02*
D03*
Y15118D02*
D03*
Y15433D02*
D03*
Y15748D02*
D03*
Y16063D02*
D03*
Y16378D02*
D03*
X2264D02*
D03*
Y16063D02*
D03*
Y15748D02*
D03*
Y15433D02*
D03*
Y15118D02*
D03*
Y14803D02*
D03*
Y14488D02*
D03*
Y14173D02*
D03*
X16240D02*
D03*
Y14488D02*
D03*
Y14803D02*
D03*
Y15118D02*
D03*
Y15433D02*
D03*
Y15748D02*
D03*
Y16063D02*
D03*
Y16378D02*
D03*
X12894D02*
D03*
Y16063D02*
D03*
Y15748D02*
D03*
Y15433D02*
D03*
Y15118D02*
D03*
Y14803D02*
D03*
Y14488D02*
D03*
Y14173D02*
D03*
X26870D02*
D03*
Y14488D02*
D03*
Y14803D02*
D03*
Y15118D02*
D03*
Y15433D02*
D03*
Y15748D02*
D03*
Y16063D02*
D03*
Y16378D02*
D03*
X23524D02*
D03*
Y16063D02*
D03*
Y15748D02*
D03*
Y15433D02*
D03*
Y15118D02*
D03*
Y14803D02*
D03*
Y14488D02*
D03*
Y14173D02*
D03*
X5610Y24921D02*
D03*
Y25236D02*
D03*
Y25551D02*
D03*
Y25866D02*
D03*
Y26181D02*
D03*
Y26496D02*
D03*
Y26811D02*
D03*
Y27126D02*
D03*
X2264D02*
D03*
Y26811D02*
D03*
Y26496D02*
D03*
Y26181D02*
D03*
Y25866D02*
D03*
Y25551D02*
D03*
Y25236D02*
D03*
Y24921D02*
D03*
X16240D02*
D03*
Y25236D02*
D03*
Y25551D02*
D03*
Y25866D02*
D03*
Y26181D02*
D03*
Y26496D02*
D03*
Y26811D02*
D03*
Y27126D02*
D03*
X12894D02*
D03*
Y26811D02*
D03*
Y26496D02*
D03*
Y26181D02*
D03*
Y25866D02*
D03*
Y25551D02*
D03*
Y25236D02*
D03*
Y24921D02*
D03*
X26870D02*
D03*
Y25236D02*
D03*
Y25551D02*
D03*
Y25866D02*
D03*
Y26181D02*
D03*
Y26496D02*
D03*
Y26811D02*
D03*
Y27126D02*
D03*
X23524D02*
D03*
Y26811D02*
D03*
Y26496D02*
D03*
Y26181D02*
D03*
Y25866D02*
D03*
Y25551D02*
D03*
Y25236D02*
D03*
Y24921D02*
D03*
D40*
X5039Y6201D02*
D03*
X4724D02*
D03*
X4409D02*
D03*
X4094D02*
D03*
X3780D02*
D03*
X3465D02*
D03*
X3150D02*
D03*
X2835D02*
D03*
Y2854D02*
D03*
X3150D02*
D03*
X3465D02*
D03*
X3780D02*
D03*
X4094D02*
D03*
X4409D02*
D03*
X4724D02*
D03*
X5039D02*
D03*
X15669Y6201D02*
D03*
X15354D02*
D03*
X15039D02*
D03*
X14724D02*
D03*
X14409D02*
D03*
X14094D02*
D03*
X13780D02*
D03*
X13465D02*
D03*
Y2854D02*
D03*
X13780D02*
D03*
X14094D02*
D03*
X14409D02*
D03*
X14724D02*
D03*
X15039D02*
D03*
X15354D02*
D03*
X15669D02*
D03*
X26299Y6201D02*
D03*
X25984D02*
D03*
X25669D02*
D03*
X25354D02*
D03*
X25039D02*
D03*
X24724D02*
D03*
X24409D02*
D03*
X24094D02*
D03*
Y2854D02*
D03*
X24409D02*
D03*
X24724D02*
D03*
X25039D02*
D03*
X25354D02*
D03*
X25669D02*
D03*
X25984D02*
D03*
X26299D02*
D03*
X5039Y16949D02*
D03*
X4724D02*
D03*
X4409D02*
D03*
X4094D02*
D03*
X3780D02*
D03*
X3465D02*
D03*
X3150D02*
D03*
X2835D02*
D03*
Y13602D02*
D03*
X3150D02*
D03*
X3465D02*
D03*
X3780D02*
D03*
X4094D02*
D03*
X4409D02*
D03*
X4724D02*
D03*
X5039D02*
D03*
X15669Y16949D02*
D03*
X15354D02*
D03*
X15039D02*
D03*
X14724D02*
D03*
X14409D02*
D03*
X14094D02*
D03*
X13780D02*
D03*
X13465D02*
D03*
Y13602D02*
D03*
X13780D02*
D03*
X14094D02*
D03*
X14409D02*
D03*
X14724D02*
D03*
X15039D02*
D03*
X15354D02*
D03*
X15669D02*
D03*
X26299Y16949D02*
D03*
X25984D02*
D03*
X25669D02*
D03*
X25354D02*
D03*
X25039D02*
D03*
X24724D02*
D03*
X24409D02*
D03*
X24094D02*
D03*
Y13602D02*
D03*
X24409D02*
D03*
X24724D02*
D03*
X25039D02*
D03*
X25354D02*
D03*
X25669D02*
D03*
X25984D02*
D03*
X26299D02*
D03*
X5039Y27697D02*
D03*
X4724D02*
D03*
X4409D02*
D03*
X4094D02*
D03*
X3780D02*
D03*
X3465D02*
D03*
X3150D02*
D03*
X2835D02*
D03*
Y24350D02*
D03*
X3150D02*
D03*
X3465D02*
D03*
X3780D02*
D03*
X4094D02*
D03*
X4409D02*
D03*
X4724D02*
D03*
X5039D02*
D03*
X15669Y27697D02*
D03*
X15354D02*
D03*
X15039D02*
D03*
X14724D02*
D03*
X14409D02*
D03*
X14094D02*
D03*
X13780D02*
D03*
X13465D02*
D03*
Y24350D02*
D03*
X13780D02*
D03*
X14094D02*
D03*
X14409D02*
D03*
X14724D02*
D03*
X15039D02*
D03*
X15354D02*
D03*
X15669D02*
D03*
X26299Y27697D02*
D03*
X25984D02*
D03*
X25669D02*
D03*
X25354D02*
D03*
X25039D02*
D03*
X24724D02*
D03*
X24409D02*
D03*
X24094D02*
D03*
Y24350D02*
D03*
X24409D02*
D03*
X24724D02*
D03*
X25039D02*
D03*
X25354D02*
D03*
X25669D02*
D03*
X25984D02*
D03*
X26299D02*
D03*
D41*
X5699Y827D02*
D03*
X5089D02*
D03*
X6506Y9724D02*
D03*
X7116D02*
D03*
X8356Y3543D02*
D03*
X8967D02*
D03*
X16329Y827D02*
D03*
X15718D02*
D03*
X17136Y9724D02*
D03*
X17746D02*
D03*
X18986Y3543D02*
D03*
X19596D02*
D03*
X26959Y827D02*
D03*
X26348D02*
D03*
X27766Y9724D02*
D03*
X28376D02*
D03*
X29616Y3543D02*
D03*
X30226D02*
D03*
X5699Y11575D02*
D03*
X5089D02*
D03*
X6506Y20472D02*
D03*
X7116D02*
D03*
X8356Y14291D02*
D03*
X8967D02*
D03*
X16329Y11575D02*
D03*
X15718D02*
D03*
X17136Y20472D02*
D03*
X17746D02*
D03*
X18986Y14291D02*
D03*
X19596D02*
D03*
X26959Y11575D02*
D03*
X26348D02*
D03*
X27766Y20472D02*
D03*
X28376D02*
D03*
X29616Y14291D02*
D03*
X30226D02*
D03*
X5699Y22323D02*
D03*
X5089D02*
D03*
X6506Y31220D02*
D03*
X7116D02*
D03*
X8356Y25039D02*
D03*
X8967D02*
D03*
X16329Y22323D02*
D03*
X15718D02*
D03*
X17136Y31220D02*
D03*
X17746D02*
D03*
X18986Y25039D02*
D03*
X19596D02*
D03*
X26959Y22323D02*
D03*
X26348D02*
D03*
X27766Y31220D02*
D03*
X28376D02*
D03*
X29616Y25039D02*
D03*
X30226D02*
D03*
D42*
X6713Y9055D02*
D03*
X7224D02*
D03*
X6949Y7559D02*
D03*
X7461D02*
D03*
X8445Y2913D02*
D03*
X8957D02*
D03*
X1437Y5315D02*
D03*
X925D02*
D03*
X6437Y3937D02*
D03*
X6949D02*
D03*
X6437Y4449D02*
D03*
X6949D02*
D03*
X17343Y9055D02*
D03*
X17854D02*
D03*
X17579Y7559D02*
D03*
X18091D02*
D03*
X19075Y2913D02*
D03*
X19587D02*
D03*
X12067Y5315D02*
D03*
X11555D02*
D03*
X17067Y3937D02*
D03*
X17579D02*
D03*
X17067Y4449D02*
D03*
X17579D02*
D03*
X27972Y9055D02*
D03*
X28484D02*
D03*
X28209Y7559D02*
D03*
X28720D02*
D03*
X29705Y2913D02*
D03*
X30217D02*
D03*
X22697Y5315D02*
D03*
X22185D02*
D03*
X27697Y3937D02*
D03*
X28209D02*
D03*
X27697Y4449D02*
D03*
X28209D02*
D03*
X6713Y19803D02*
D03*
X7224D02*
D03*
X6949Y18307D02*
D03*
X7461D02*
D03*
X8445Y13661D02*
D03*
X8957D02*
D03*
X1437Y16063D02*
D03*
X925D02*
D03*
X6437Y14685D02*
D03*
X6949D02*
D03*
X6437Y15197D02*
D03*
X6949D02*
D03*
X17343Y19803D02*
D03*
X17854D02*
D03*
X17579Y18307D02*
D03*
X18091D02*
D03*
X19075Y13661D02*
D03*
X19587D02*
D03*
X12067Y16063D02*
D03*
X11555D02*
D03*
X17067Y14685D02*
D03*
X17579D02*
D03*
X17067Y15197D02*
D03*
X17579D02*
D03*
X27972Y19803D02*
D03*
X28484D02*
D03*
X28209Y18307D02*
D03*
X28720D02*
D03*
X29705Y13661D02*
D03*
X30217D02*
D03*
X22697Y16063D02*
D03*
X22185D02*
D03*
X27697Y14685D02*
D03*
X28209D02*
D03*
X27697Y15197D02*
D03*
X28209D02*
D03*
X6713Y30551D02*
D03*
X7224D02*
D03*
X6949Y29055D02*
D03*
X7461D02*
D03*
X8445Y24409D02*
D03*
X8957D02*
D03*
X1437Y26811D02*
D03*
X925D02*
D03*
X6437Y25433D02*
D03*
X6949D02*
D03*
X6437Y25945D02*
D03*
X6949D02*
D03*
X17343Y30551D02*
D03*
X17854D02*
D03*
X17579Y29055D02*
D03*
X18091D02*
D03*
X19075Y24409D02*
D03*
X19587D02*
D03*
X12067Y26811D02*
D03*
X11555D02*
D03*
X17067Y25433D02*
D03*
X17579D02*
D03*
X17067Y25945D02*
D03*
X17579D02*
D03*
X27972Y30551D02*
D03*
X28484D02*
D03*
X28209Y29055D02*
D03*
X28720D02*
D03*
X29705Y24409D02*
D03*
X30217D02*
D03*
X22697Y26811D02*
D03*
X22185D02*
D03*
X27697Y25433D02*
D03*
X28209D02*
D03*
X27697Y25945D02*
D03*
X28209D02*
D03*
D43*
X6299Y7657D02*
D03*
Y8169D02*
D03*
X1457Y4783D02*
D03*
Y4272D02*
D03*
X7480Y2854D02*
D03*
Y3366D02*
D03*
X7756Y1673D02*
D03*
Y1161D02*
D03*
X16929Y7657D02*
D03*
Y8169D02*
D03*
X12087Y4783D02*
D03*
Y4272D02*
D03*
X18110Y2854D02*
D03*
Y3366D02*
D03*
X18386Y1673D02*
D03*
Y1161D02*
D03*
X27559Y7657D02*
D03*
Y8169D02*
D03*
X22717Y4783D02*
D03*
Y4272D02*
D03*
X28740Y2854D02*
D03*
Y3366D02*
D03*
X29016Y1673D02*
D03*
Y1161D02*
D03*
X6299Y18406D02*
D03*
Y18917D02*
D03*
X1457Y15532D02*
D03*
Y15020D02*
D03*
X7480Y13602D02*
D03*
Y14114D02*
D03*
X7756Y12421D02*
D03*
Y11909D02*
D03*
X16929Y18406D02*
D03*
Y18917D02*
D03*
X12087Y15532D02*
D03*
Y15020D02*
D03*
X18110Y13602D02*
D03*
Y14114D02*
D03*
X18386Y12421D02*
D03*
Y11909D02*
D03*
X27559Y18406D02*
D03*
Y18917D02*
D03*
X22717Y15532D02*
D03*
Y15020D02*
D03*
X28740Y13602D02*
D03*
Y14114D02*
D03*
X29016Y12421D02*
D03*
Y11909D02*
D03*
X6299Y29154D02*
D03*
Y29665D02*
D03*
X1457Y26280D02*
D03*
Y25768D02*
D03*
X7480Y24350D02*
D03*
Y24862D02*
D03*
X7756Y23169D02*
D03*
Y22657D02*
D03*
X16929Y29154D02*
D03*
Y29665D02*
D03*
X12087Y26280D02*
D03*
Y25768D02*
D03*
X18110Y24350D02*
D03*
Y24862D02*
D03*
X18386Y23169D02*
D03*
Y22657D02*
D03*
X27559Y29154D02*
D03*
Y29665D02*
D03*
X22717Y26280D02*
D03*
Y25768D02*
D03*
X28740Y24350D02*
D03*
Y24862D02*
D03*
X29016Y23169D02*
D03*
Y22657D02*
D03*
D44*
X7736Y6811D02*
D03*
X6673D02*
D03*
X8996Y4331D02*
D03*
X7933D02*
D03*
X18366Y6811D02*
D03*
X17303D02*
D03*
X19626Y4331D02*
D03*
X18563D02*
D03*
X28996Y6811D02*
D03*
X27933D02*
D03*
X30256Y4331D02*
D03*
X29193D02*
D03*
X7736Y17559D02*
D03*
X6673D02*
D03*
X8996Y15079D02*
D03*
X7933D02*
D03*
X18366Y17559D02*
D03*
X17303D02*
D03*
X19626Y15079D02*
D03*
X18563D02*
D03*
X28996Y17559D02*
D03*
X27933D02*
D03*
X30256Y15079D02*
D03*
X29193D02*
D03*
X7736Y28307D02*
D03*
X6673D02*
D03*
X8996Y25827D02*
D03*
X7933D02*
D03*
X18366Y28307D02*
D03*
X17303D02*
D03*
X19626Y25827D02*
D03*
X18563D02*
D03*
X28996Y28307D02*
D03*
X27933D02*
D03*
X30256Y25827D02*
D03*
X29193D02*
D03*
D45*
X9134Y8307D02*
D03*
X8268D02*
D03*
X19764D02*
D03*
X18898D02*
D03*
X30394D02*
D03*
X29528D02*
D03*
X9134Y19055D02*
D03*
X8268D02*
D03*
X19764D02*
D03*
X18898D02*
D03*
X30394D02*
D03*
X29528D02*
D03*
X9134Y29803D02*
D03*
X8268D02*
D03*
X19764D02*
D03*
X18898D02*
D03*
X30394D02*
D03*
X29528D02*
D03*
D46*
X4154Y7923D02*
D03*
X4902D02*
D03*
X4528Y8691D02*
D03*
X14783Y7923D02*
D03*
X15531D02*
D03*
X15157Y8691D02*
D03*
X25413Y7923D02*
D03*
X26161D02*
D03*
X25787Y8691D02*
D03*
X4154Y18671D02*
D03*
X4902D02*
D03*
X4528Y19439D02*
D03*
X14783Y18671D02*
D03*
X15531D02*
D03*
X15157Y19439D02*
D03*
X25413Y18671D02*
D03*
X26161D02*
D03*
X25787Y19439D02*
D03*
X4154Y29419D02*
D03*
X4902D02*
D03*
X4528Y30187D02*
D03*
X14783Y29419D02*
D03*
X15531D02*
D03*
X15157Y30187D02*
D03*
X25413Y29419D02*
D03*
X26161D02*
D03*
X25787Y30187D02*
D03*
D47*
X7756Y9626D02*
D03*
Y9035D02*
D03*
X5906Y9035D02*
D03*
Y9626D02*
D03*
X3031Y7343D02*
D03*
Y7933D02*
D03*
X3543Y7933D02*
D03*
Y7343D02*
D03*
X5787Y8169D02*
D03*
Y7579D02*
D03*
X8386Y6594D02*
D03*
Y6004D02*
D03*
X18386Y9626D02*
D03*
Y9035D02*
D03*
X16535Y9035D02*
D03*
Y9626D02*
D03*
X13661Y7343D02*
D03*
Y7933D02*
D03*
X14173Y7933D02*
D03*
Y7343D02*
D03*
X16417Y8169D02*
D03*
Y7579D02*
D03*
X19016Y6594D02*
D03*
Y6004D02*
D03*
X29016Y9626D02*
D03*
Y9035D02*
D03*
X27165Y9035D02*
D03*
Y9626D02*
D03*
X24291Y7343D02*
D03*
Y7933D02*
D03*
X24803Y7933D02*
D03*
Y7343D02*
D03*
X27047Y8169D02*
D03*
Y7579D02*
D03*
X29646Y6594D02*
D03*
Y6004D02*
D03*
X7756Y20374D02*
D03*
Y19783D02*
D03*
X5906Y19783D02*
D03*
Y20374D02*
D03*
X3031Y18091D02*
D03*
Y18681D02*
D03*
X3543Y18681D02*
D03*
Y18091D02*
D03*
X5787Y18917D02*
D03*
Y18327D02*
D03*
X8386Y17343D02*
D03*
Y16752D02*
D03*
X18386Y20374D02*
D03*
Y19783D02*
D03*
X16535Y19783D02*
D03*
Y20374D02*
D03*
X13661Y18091D02*
D03*
Y18681D02*
D03*
X14173Y18681D02*
D03*
Y18091D02*
D03*
X16417Y18917D02*
D03*
Y18327D02*
D03*
X19016Y17343D02*
D03*
Y16752D02*
D03*
X29016Y20374D02*
D03*
Y19783D02*
D03*
X27165Y19783D02*
D03*
Y20374D02*
D03*
X24291Y18091D02*
D03*
Y18681D02*
D03*
X24803Y18681D02*
D03*
Y18091D02*
D03*
X27047Y18917D02*
D03*
Y18327D02*
D03*
X29646Y17343D02*
D03*
Y16752D02*
D03*
X7756Y31122D02*
D03*
Y30531D02*
D03*
X5906Y30531D02*
D03*
Y31122D02*
D03*
X3031Y28839D02*
D03*
Y29429D02*
D03*
X3543Y29429D02*
D03*
Y28839D02*
D03*
X5787Y29665D02*
D03*
Y29075D02*
D03*
X8386Y28091D02*
D03*
Y27500D02*
D03*
X18386Y31122D02*
D03*
Y30531D02*
D03*
X16535Y30531D02*
D03*
Y31122D02*
D03*
X13661Y28839D02*
D03*
Y29429D02*
D03*
X14173Y29429D02*
D03*
Y28839D02*
D03*
X16417Y29665D02*
D03*
Y29075D02*
D03*
X19016Y28091D02*
D03*
Y27500D02*
D03*
X29016Y31122D02*
D03*
Y30531D02*
D03*
X27165Y30531D02*
D03*
Y31122D02*
D03*
X24291Y28839D02*
D03*
Y29429D02*
D03*
X24803Y29429D02*
D03*
Y28839D02*
D03*
X27047Y29665D02*
D03*
Y29075D02*
D03*
X29646Y28091D02*
D03*
Y27500D02*
D03*
D48*
X4272Y7402D02*
D03*
X4862D02*
D03*
X4941Y1575D02*
D03*
X5531D02*
D03*
X4941Y2047D02*
D03*
X5531D02*
D03*
X3642Y8425D02*
D03*
X3051D02*
D03*
X6398Y3386D02*
D03*
X6988D02*
D03*
X14902Y7402D02*
D03*
X15492D02*
D03*
X15571Y1575D02*
D03*
X16161D02*
D03*
X15571Y2047D02*
D03*
X16161D02*
D03*
X14272Y8425D02*
D03*
X13681D02*
D03*
X17028Y3386D02*
D03*
X17618D02*
D03*
X25531Y7402D02*
D03*
X26122D02*
D03*
X26201Y1575D02*
D03*
X26791D02*
D03*
X26201Y2047D02*
D03*
X26791D02*
D03*
X24902Y8425D02*
D03*
X24311D02*
D03*
X27657Y3386D02*
D03*
X28248D02*
D03*
X4272Y18150D02*
D03*
X4862D02*
D03*
X4941Y12323D02*
D03*
X5531D02*
D03*
X4941Y12795D02*
D03*
X5531D02*
D03*
X3642Y19173D02*
D03*
X3051D02*
D03*
X6398Y14134D02*
D03*
X6988D02*
D03*
X14902Y18150D02*
D03*
X15492D02*
D03*
X15571Y12323D02*
D03*
X16161D02*
D03*
X15571Y12795D02*
D03*
X16161D02*
D03*
X14272Y19173D02*
D03*
X13681D02*
D03*
X17028Y14134D02*
D03*
X17618D02*
D03*
X25531Y18150D02*
D03*
X26122D02*
D03*
X26201Y12323D02*
D03*
X26791D02*
D03*
X26201Y12795D02*
D03*
X26791D02*
D03*
X24902Y19173D02*
D03*
X24311D02*
D03*
X27657Y14134D02*
D03*
X28248D02*
D03*
X4272Y28898D02*
D03*
X4862D02*
D03*
X4941Y23071D02*
D03*
X5531D02*
D03*
X4941Y23543D02*
D03*
X5531D02*
D03*
X3642Y29921D02*
D03*
X3051D02*
D03*
X6398Y24882D02*
D03*
X6988D02*
D03*
X14902Y28898D02*
D03*
X15492D02*
D03*
X15571Y23071D02*
D03*
X16161D02*
D03*
X15571Y23543D02*
D03*
X16161D02*
D03*
X14272Y29921D02*
D03*
X13681D02*
D03*
X17028Y24882D02*
D03*
X17618D02*
D03*
X25531Y28898D02*
D03*
X26122D02*
D03*
X26201Y23071D02*
D03*
X26791D02*
D03*
X26201Y23543D02*
D03*
X26791D02*
D03*
X24902Y29921D02*
D03*
X24311D02*
D03*
X27657Y24882D02*
D03*
X28248D02*
D03*
D49*
X6939Y8504D02*
D03*
Y8307D02*
D03*
Y8110D02*
D03*
X7392Y8504D02*
D03*
Y8307D02*
D03*
Y8110D02*
D03*
X17569Y8504D02*
D03*
Y8307D02*
D03*
Y8110D02*
D03*
X18022Y8504D02*
D03*
Y8307D02*
D03*
Y8110D02*
D03*
X28199Y8504D02*
D03*
Y8307D02*
D03*
Y8110D02*
D03*
X28652Y8504D02*
D03*
Y8307D02*
D03*
Y8110D02*
D03*
X6939Y19252D02*
D03*
Y19055D02*
D03*
Y18858D02*
D03*
X7392Y19252D02*
D03*
Y19055D02*
D03*
Y18858D02*
D03*
X17569Y19252D02*
D03*
Y19055D02*
D03*
Y18858D02*
D03*
X18022Y19252D02*
D03*
Y19055D02*
D03*
Y18858D02*
D03*
X28199Y19252D02*
D03*
Y19055D02*
D03*
Y18858D02*
D03*
X28652Y19252D02*
D03*
Y19055D02*
D03*
Y18858D02*
D03*
X6939Y30000D02*
D03*
Y29803D02*
D03*
Y29606D02*
D03*
X7392Y30000D02*
D03*
Y29803D02*
D03*
Y29606D02*
D03*
X17569Y30000D02*
D03*
Y29803D02*
D03*
Y29606D02*
D03*
X18022Y30000D02*
D03*
Y29803D02*
D03*
Y29606D02*
D03*
X28199Y30000D02*
D03*
Y29803D02*
D03*
Y29606D02*
D03*
X28652Y30000D02*
D03*
Y29803D02*
D03*
Y29606D02*
D03*
D50*
X10197Y10276D02*
D03*
X20827D02*
D03*
X31457D02*
D03*
X10197Y21024D02*
D03*
X20827D02*
D03*
X31457D02*
D03*
X10197Y31772D02*
D03*
X20827D02*
D03*
X31457D02*
D03*
D51*
X433Y1299D02*
D03*
X11063D02*
D03*
X21693D02*
D03*
X433Y12047D02*
D03*
X11063D02*
D03*
X21693D02*
D03*
X433Y22795D02*
D03*
X11063D02*
D03*
X21693D02*
D03*
D52*
X7520Y5354D02*
D03*
X7047D02*
D03*
X6575D02*
D03*
X18150D02*
D03*
X17677D02*
D03*
X17205D02*
D03*
X28780D02*
D03*
X28307D02*
D03*
X27835D02*
D03*
X7520Y16102D02*
D03*
X7047D02*
D03*
X6575D02*
D03*
X18150D02*
D03*
X17677D02*
D03*
X17205D02*
D03*
X28780D02*
D03*
X28307D02*
D03*
X27835D02*
D03*
X7520Y26850D02*
D03*
X7047D02*
D03*
X6575D02*
D03*
X18150D02*
D03*
X17677D02*
D03*
X17205D02*
D03*
X28780D02*
D03*
X28307D02*
D03*
X27835D02*
D03*
D53*
X6693Y1417D02*
D03*
X17323D02*
D03*
X27953D02*
D03*
X6693Y12165D02*
D03*
X17323D02*
D03*
X27953D02*
D03*
X6693Y22913D02*
D03*
X17323D02*
D03*
X27953D02*
D03*
D54*
X6299Y1988D02*
D03*
X6693D02*
D03*
X7087D02*
D03*
Y846D02*
D03*
X6693D02*
D03*
X6299D02*
D03*
X16929Y1988D02*
D03*
X17323D02*
D03*
X17716D02*
D03*
Y846D02*
D03*
X17323D02*
D03*
X16929D02*
D03*
X27559Y1988D02*
D03*
X27953D02*
D03*
X28346D02*
D03*
Y846D02*
D03*
X27953D02*
D03*
X27559D02*
D03*
X6299Y12736D02*
D03*
X6693D02*
D03*
X7087D02*
D03*
Y11594D02*
D03*
X6693D02*
D03*
X6299D02*
D03*
X16929Y12736D02*
D03*
X17323D02*
D03*
X17716D02*
D03*
Y11594D02*
D03*
X17323D02*
D03*
X16929D02*
D03*
X27559Y12736D02*
D03*
X27953D02*
D03*
X28346D02*
D03*
Y11594D02*
D03*
X27953D02*
D03*
X27559D02*
D03*
X6299Y23484D02*
D03*
X6693D02*
D03*
X7087D02*
D03*
Y22343D02*
D03*
X6693D02*
D03*
X6299D02*
D03*
X16929Y23484D02*
D03*
X17323D02*
D03*
X17716D02*
D03*
Y22343D02*
D03*
X17323D02*
D03*
X16929D02*
D03*
X27559Y23484D02*
D03*
X27953D02*
D03*
X28346D02*
D03*
Y22343D02*
D03*
X27953D02*
D03*
X27559D02*
D03*
D55*
X4220Y591D02*
D03*
X3220D02*
D03*
X2220D02*
D03*
X1213Y1850D02*
D03*
X2213D02*
D03*
X3213D02*
D03*
X4118Y10276D02*
D03*
X433Y2740D02*
D03*
X2472Y10291D02*
D03*
Y9291D02*
D03*
X1472Y10291D02*
D03*
Y9291D02*
D03*
X472Y10291D02*
D03*
X10164Y6244D02*
D03*
Y2244D02*
D03*
Y3244D02*
D03*
Y4244D02*
D03*
Y5244D02*
D03*
X14850Y591D02*
D03*
X13850D02*
D03*
X12850D02*
D03*
X11842Y1850D02*
D03*
X12842D02*
D03*
X13842D02*
D03*
X14748Y10276D02*
D03*
X11063Y2740D02*
D03*
X13102Y10291D02*
D03*
Y9291D02*
D03*
X12102Y10291D02*
D03*
Y9291D02*
D03*
X11102Y10291D02*
D03*
X20794Y6244D02*
D03*
Y2244D02*
D03*
Y3244D02*
D03*
Y4244D02*
D03*
Y5244D02*
D03*
X25480Y591D02*
D03*
X24480D02*
D03*
X23480D02*
D03*
X22472Y1850D02*
D03*
X23472D02*
D03*
X24472D02*
D03*
X25378Y10276D02*
D03*
X21693Y2740D02*
D03*
X23732Y10291D02*
D03*
Y9291D02*
D03*
X22732Y10291D02*
D03*
Y9291D02*
D03*
X21732Y10291D02*
D03*
X31424Y6244D02*
D03*
Y2244D02*
D03*
Y3244D02*
D03*
Y4244D02*
D03*
Y5244D02*
D03*
X4220Y11339D02*
D03*
X3220D02*
D03*
X2220D02*
D03*
X1213Y12598D02*
D03*
X2213D02*
D03*
X3213D02*
D03*
X4118Y21024D02*
D03*
X433Y13488D02*
D03*
X2472Y21039D02*
D03*
Y20039D02*
D03*
X1472Y21039D02*
D03*
Y20039D02*
D03*
X472Y21039D02*
D03*
X10164Y16992D02*
D03*
Y12992D02*
D03*
Y13992D02*
D03*
Y14992D02*
D03*
Y15992D02*
D03*
X14850Y11339D02*
D03*
X13850D02*
D03*
X12850D02*
D03*
X11842Y12598D02*
D03*
X12842D02*
D03*
X13842D02*
D03*
X14748Y21024D02*
D03*
X11063Y13488D02*
D03*
X13102Y21039D02*
D03*
Y20039D02*
D03*
X12102Y21039D02*
D03*
Y20039D02*
D03*
X11102Y21039D02*
D03*
X20794Y16992D02*
D03*
Y12992D02*
D03*
Y13992D02*
D03*
Y14992D02*
D03*
Y15992D02*
D03*
X25480Y11339D02*
D03*
X24480D02*
D03*
X23480D02*
D03*
X22472Y12598D02*
D03*
X23472D02*
D03*
X24472D02*
D03*
X25378Y21024D02*
D03*
X21693Y13488D02*
D03*
X23732Y21039D02*
D03*
Y20039D02*
D03*
X22732Y21039D02*
D03*
Y20039D02*
D03*
X21732Y21039D02*
D03*
X31424Y16992D02*
D03*
Y12992D02*
D03*
Y13992D02*
D03*
Y14992D02*
D03*
Y15992D02*
D03*
X4220Y22087D02*
D03*
X3220D02*
D03*
X2220D02*
D03*
X1213Y23346D02*
D03*
X2213D02*
D03*
X3213D02*
D03*
X4118Y31772D02*
D03*
X433Y24236D02*
D03*
X2472Y31787D02*
D03*
Y30787D02*
D03*
X1472Y31787D02*
D03*
Y30787D02*
D03*
X472Y31787D02*
D03*
X10164Y27740D02*
D03*
Y23740D02*
D03*
Y24740D02*
D03*
Y25740D02*
D03*
Y26740D02*
D03*
X14850Y22087D02*
D03*
X13850D02*
D03*
X12850D02*
D03*
X11842Y23346D02*
D03*
X12842D02*
D03*
X13842D02*
D03*
X14748Y31772D02*
D03*
X11063Y24236D02*
D03*
X13102Y31787D02*
D03*
Y30787D02*
D03*
X12102Y31787D02*
D03*
Y30787D02*
D03*
X11102Y31787D02*
D03*
X20794Y27740D02*
D03*
Y23740D02*
D03*
Y24740D02*
D03*
Y25740D02*
D03*
Y26740D02*
D03*
X25480Y22087D02*
D03*
X24480D02*
D03*
X23480D02*
D03*
X22472Y23346D02*
D03*
X23472D02*
D03*
X24472D02*
D03*
X25378Y31772D02*
D03*
X21693Y24236D02*
D03*
X23732Y31787D02*
D03*
Y30787D02*
D03*
X22732Y31787D02*
D03*
Y30787D02*
D03*
X21732Y31787D02*
D03*
X31424Y27740D02*
D03*
Y23740D02*
D03*
Y24740D02*
D03*
Y25740D02*
D03*
Y26740D02*
D03*
D56*
X1220Y591D02*
D03*
X4213Y1850D02*
D03*
X5118Y10276D02*
D03*
X472Y9291D02*
D03*
X11850Y591D02*
D03*
X14842Y1850D02*
D03*
X15748Y10276D02*
D03*
X11102Y9291D02*
D03*
X22480Y591D02*
D03*
X25472Y1850D02*
D03*
X26378Y10276D02*
D03*
X21732Y9291D02*
D03*
X1220Y11339D02*
D03*
X4213Y12598D02*
D03*
X5118Y21024D02*
D03*
X472Y20039D02*
D03*
X11850Y11339D02*
D03*
X14842Y12598D02*
D03*
X15748Y21024D02*
D03*
X11102Y20039D02*
D03*
X22480Y11339D02*
D03*
X25472Y12598D02*
D03*
X26378Y21024D02*
D03*
X21732Y20039D02*
D03*
X1220Y22087D02*
D03*
X4213Y23346D02*
D03*
X5118Y31772D02*
D03*
X472Y30787D02*
D03*
X11850Y22087D02*
D03*
X14842Y23346D02*
D03*
X15748Y31772D02*
D03*
X11102Y30787D02*
D03*
X22480Y22087D02*
D03*
X25472Y23346D02*
D03*
X26378Y31772D02*
D03*
X21732Y30787D02*
D03*
D57*
X433Y3740D02*
D03*
X10164Y1244D02*
D03*
X11063Y3740D02*
D03*
X20794Y1244D02*
D03*
X21693Y3740D02*
D03*
X31424Y1244D02*
D03*
X433Y14488D02*
D03*
X10164Y11992D02*
D03*
X11063Y14488D02*
D03*
X20794Y11992D02*
D03*
X21693Y14488D02*
D03*
X31424Y11992D02*
D03*
X433Y25236D02*
D03*
X10164Y22740D02*
D03*
X11063Y25236D02*
D03*
X20794Y22740D02*
D03*
X21693Y25236D02*
D03*
X31424Y22740D02*
D03*
D58*
X10354Y1772D02*
D03*
Y2756D02*
D03*
X7480Y4094D02*
D03*
X8583Y1969D02*
D03*
X3858Y4724D02*
D03*
X7803Y5512D02*
D03*
X4134Y8661D02*
D03*
X4528Y7953D02*
D03*
X2244Y7165D02*
D03*
X10354Y6969D02*
D03*
Y8346D02*
D03*
X3483Y3721D02*
D03*
X6220Y6772D02*
D03*
Y7008D02*
D03*
Y7244D02*
D03*
X5945Y8622D02*
D03*
X3189Y5591D02*
D03*
X3543D02*
D03*
X4409D02*
D03*
X4724Y4094D02*
D03*
X3819Y7067D02*
D03*
X4409Y3819D02*
D03*
X4724Y3543D02*
D03*
X4094Y3474D02*
D03*
X6969Y2953D02*
D03*
X7126Y2638D02*
D03*
X5610Y2677D02*
D03*
X6142D02*
D03*
X7795Y6260D02*
D03*
X6102Y5000D02*
D03*
X2559Y6339D02*
D03*
X2441Y5984D02*
D03*
X2323Y6614D02*
D03*
X2874Y5315D02*
D03*
X9567Y3071D02*
D03*
X8957Y807D02*
D03*
X4588Y1121D02*
D03*
X5906Y1575D02*
D03*
X6339Y8780D02*
D03*
Y9016D02*
D03*
Y9252D02*
D03*
X9567Y10433D02*
D03*
X7441D02*
D03*
X10354Y9567D02*
D03*
Y3740D02*
D03*
Y551D02*
D03*
X6496Y276D02*
D03*
X4685D02*
D03*
X315Y315D02*
D03*
X276Y5000D02*
D03*
Y6496D02*
D03*
Y8740D02*
D03*
Y9803D02*
D03*
X984Y10433D02*
D03*
X5551Y6181D02*
D03*
X5079Y4685D02*
D03*
X2795Y4370D02*
D03*
X2992Y3465D02*
D03*
X2323Y2953D02*
D03*
X5945Y2047D02*
D03*
X6575Y2638D02*
D03*
X7913Y3740D02*
D03*
X4803Y5315D02*
D03*
X20984Y1772D02*
D03*
Y2756D02*
D03*
X18110Y4094D02*
D03*
X19213Y1969D02*
D03*
X14488Y4724D02*
D03*
X18433Y5512D02*
D03*
X14764Y8661D02*
D03*
X15157Y7953D02*
D03*
X12874Y7165D02*
D03*
X20984Y6969D02*
D03*
Y8346D02*
D03*
X14113Y3721D02*
D03*
X16850Y6772D02*
D03*
Y7008D02*
D03*
Y7244D02*
D03*
X16575Y8622D02*
D03*
X13819Y5591D02*
D03*
X14173D02*
D03*
X15039D02*
D03*
X15354Y4094D02*
D03*
X14449Y7067D02*
D03*
X15039Y3819D02*
D03*
X15354Y3543D02*
D03*
X14724Y3474D02*
D03*
X17598Y2953D02*
D03*
X17756Y2638D02*
D03*
X16240Y2677D02*
D03*
X16772D02*
D03*
X18425Y6260D02*
D03*
X16732Y5000D02*
D03*
X13189Y6339D02*
D03*
X13071Y5984D02*
D03*
X12953Y6614D02*
D03*
X13504Y5315D02*
D03*
X20197Y3071D02*
D03*
X19587Y807D02*
D03*
X15217Y1121D02*
D03*
X16535Y1575D02*
D03*
X16968Y8780D02*
D03*
Y9016D02*
D03*
Y9252D02*
D03*
X20197Y10433D02*
D03*
X18071D02*
D03*
X20984Y9567D02*
D03*
Y3740D02*
D03*
Y551D02*
D03*
X17126Y276D02*
D03*
X15315D02*
D03*
X10945Y315D02*
D03*
X10906Y5000D02*
D03*
Y6496D02*
D03*
Y8740D02*
D03*
Y9803D02*
D03*
X11614Y10433D02*
D03*
X16181Y6181D02*
D03*
X15709Y4685D02*
D03*
X13425Y4370D02*
D03*
X13622Y3465D02*
D03*
X12953Y2953D02*
D03*
X16575Y2047D02*
D03*
X17205Y2638D02*
D03*
X18543Y3740D02*
D03*
X15433Y5315D02*
D03*
X31614Y1772D02*
D03*
Y2756D02*
D03*
X28740Y4094D02*
D03*
X29843Y1969D02*
D03*
X25118Y4724D02*
D03*
X29063Y5512D02*
D03*
X25394Y8661D02*
D03*
X25787Y7953D02*
D03*
X23504Y7165D02*
D03*
X31614Y6969D02*
D03*
Y8346D02*
D03*
X24743Y3721D02*
D03*
X27480Y6772D02*
D03*
Y7008D02*
D03*
Y7244D02*
D03*
X27205Y8622D02*
D03*
X24449Y5591D02*
D03*
X24803D02*
D03*
X25669D02*
D03*
X25984Y4094D02*
D03*
X25079Y7067D02*
D03*
X25669Y3819D02*
D03*
X25984Y3543D02*
D03*
X25354Y3474D02*
D03*
X28228Y2953D02*
D03*
X28386Y2638D02*
D03*
X26870Y2677D02*
D03*
X27402D02*
D03*
X29055Y6260D02*
D03*
X27362Y5000D02*
D03*
X23819Y6339D02*
D03*
X23701Y5984D02*
D03*
X23583Y6614D02*
D03*
X24134Y5315D02*
D03*
X30827Y3071D02*
D03*
X30217Y807D02*
D03*
X25847Y1121D02*
D03*
X27165Y1575D02*
D03*
X27598Y8780D02*
D03*
Y9016D02*
D03*
Y9252D02*
D03*
X30827Y10433D02*
D03*
X28701D02*
D03*
X31614Y9567D02*
D03*
Y3740D02*
D03*
Y551D02*
D03*
X27756Y276D02*
D03*
X25945D02*
D03*
X21575Y315D02*
D03*
X21535Y5000D02*
D03*
Y6496D02*
D03*
Y8740D02*
D03*
Y9803D02*
D03*
X22244Y10433D02*
D03*
X26811Y6181D02*
D03*
X26339Y4685D02*
D03*
X24055Y4370D02*
D03*
X24252Y3465D02*
D03*
X23583Y2953D02*
D03*
X27205Y2047D02*
D03*
X27835Y2638D02*
D03*
X29173Y3740D02*
D03*
X26063Y5315D02*
D03*
X10354Y12520D02*
D03*
Y13504D02*
D03*
X7480Y14843D02*
D03*
X8583Y12717D02*
D03*
X3858Y15472D02*
D03*
X7803Y16260D02*
D03*
X4134Y19409D02*
D03*
X4528Y18701D02*
D03*
X2244Y17913D02*
D03*
X10354Y17717D02*
D03*
Y19094D02*
D03*
X3483Y14469D02*
D03*
X6220Y17520D02*
D03*
Y17756D02*
D03*
Y17992D02*
D03*
X5945Y19370D02*
D03*
X3189Y16339D02*
D03*
X3543D02*
D03*
X4409D02*
D03*
X4724Y14843D02*
D03*
X3819Y17815D02*
D03*
X4409Y14567D02*
D03*
X4724Y14291D02*
D03*
X4094Y14222D02*
D03*
X6969Y13701D02*
D03*
X7126Y13386D02*
D03*
X5610Y13425D02*
D03*
X6142D02*
D03*
X7795Y17008D02*
D03*
X6102Y15748D02*
D03*
X2559Y17087D02*
D03*
X2441Y16732D02*
D03*
X2323Y17362D02*
D03*
X2874Y16063D02*
D03*
X9567Y13819D02*
D03*
X8957Y11555D02*
D03*
X4588Y11869D02*
D03*
X5906Y12323D02*
D03*
X6339Y19528D02*
D03*
Y19764D02*
D03*
Y20000D02*
D03*
X9567Y21181D02*
D03*
X7441D02*
D03*
X10354Y20315D02*
D03*
Y14488D02*
D03*
Y11299D02*
D03*
X6496Y11024D02*
D03*
X4685D02*
D03*
X315Y11063D02*
D03*
X276Y15748D02*
D03*
Y17244D02*
D03*
Y19488D02*
D03*
Y20551D02*
D03*
X984Y21181D02*
D03*
X5551Y16929D02*
D03*
X5079Y15433D02*
D03*
X2795Y15118D02*
D03*
X2992Y14213D02*
D03*
X2323Y13701D02*
D03*
X5945Y12795D02*
D03*
X6575Y13386D02*
D03*
X7913Y14488D02*
D03*
X4803Y16063D02*
D03*
X20984Y12520D02*
D03*
Y13504D02*
D03*
X18110Y14843D02*
D03*
X19213Y12717D02*
D03*
X14488Y15472D02*
D03*
X18433Y16260D02*
D03*
X14764Y19409D02*
D03*
X15157Y18701D02*
D03*
X12874Y17913D02*
D03*
X20984Y17717D02*
D03*
Y19094D02*
D03*
X14113Y14469D02*
D03*
X16850Y17520D02*
D03*
Y17756D02*
D03*
Y17992D02*
D03*
X16575Y19370D02*
D03*
X13819Y16339D02*
D03*
X14173D02*
D03*
X15039D02*
D03*
X15354Y14843D02*
D03*
X14449Y17815D02*
D03*
X15039Y14567D02*
D03*
X15354Y14291D02*
D03*
X14724Y14222D02*
D03*
X17598Y13701D02*
D03*
X17756Y13386D02*
D03*
X16240Y13425D02*
D03*
X16772D02*
D03*
X18425Y17008D02*
D03*
X16732Y15748D02*
D03*
X13189Y17087D02*
D03*
X13071Y16732D02*
D03*
X12953Y17362D02*
D03*
X13504Y16063D02*
D03*
X20197Y13819D02*
D03*
X19587Y11555D02*
D03*
X15217Y11869D02*
D03*
X16535Y12323D02*
D03*
X16968Y19528D02*
D03*
Y19764D02*
D03*
Y20000D02*
D03*
X20197Y21181D02*
D03*
X18071D02*
D03*
X20984Y20315D02*
D03*
Y14488D02*
D03*
Y11299D02*
D03*
X17126Y11024D02*
D03*
X15315D02*
D03*
X10945Y11063D02*
D03*
X10906Y15748D02*
D03*
Y17244D02*
D03*
Y19488D02*
D03*
Y20551D02*
D03*
X11614Y21181D02*
D03*
X16181Y16929D02*
D03*
X15709Y15433D02*
D03*
X13425Y15118D02*
D03*
X13622Y14213D02*
D03*
X12953Y13701D02*
D03*
X16575Y12795D02*
D03*
X17205Y13386D02*
D03*
X18543Y14488D02*
D03*
X15433Y16063D02*
D03*
X31614Y12520D02*
D03*
Y13504D02*
D03*
X28740Y14843D02*
D03*
X29843Y12717D02*
D03*
X25118Y15472D02*
D03*
X29063Y16260D02*
D03*
X25394Y19409D02*
D03*
X25787Y18701D02*
D03*
X23504Y17913D02*
D03*
X31614Y17717D02*
D03*
Y19094D02*
D03*
X24743Y14469D02*
D03*
X27480Y17520D02*
D03*
Y17756D02*
D03*
Y17992D02*
D03*
X27205Y19370D02*
D03*
X24449Y16339D02*
D03*
X24803D02*
D03*
X25669D02*
D03*
X25984Y14843D02*
D03*
X25079Y17815D02*
D03*
X25669Y14567D02*
D03*
X25984Y14291D02*
D03*
X25354Y14222D02*
D03*
X28228Y13701D02*
D03*
X28386Y13386D02*
D03*
X26870Y13425D02*
D03*
X27402D02*
D03*
X29055Y17008D02*
D03*
X27362Y15748D02*
D03*
X23819Y17087D02*
D03*
X23701Y16732D02*
D03*
X23583Y17362D02*
D03*
X24134Y16063D02*
D03*
X30827Y13819D02*
D03*
X30217Y11555D02*
D03*
X25847Y11869D02*
D03*
X27165Y12323D02*
D03*
X27598Y19528D02*
D03*
Y19764D02*
D03*
Y20000D02*
D03*
X30827Y21181D02*
D03*
X28701D02*
D03*
X31614Y20315D02*
D03*
Y14488D02*
D03*
Y11299D02*
D03*
X27756Y11024D02*
D03*
X25945D02*
D03*
X21575Y11063D02*
D03*
X21535Y15748D02*
D03*
Y17244D02*
D03*
Y19488D02*
D03*
Y20551D02*
D03*
X22244Y21181D02*
D03*
X26811Y16929D02*
D03*
X26339Y15433D02*
D03*
X24055Y15118D02*
D03*
X24252Y14213D02*
D03*
X23583Y13701D02*
D03*
X27205Y12795D02*
D03*
X27835Y13386D02*
D03*
X29173Y14488D02*
D03*
X26063Y16063D02*
D03*
X10354Y23268D02*
D03*
Y24252D02*
D03*
X7480Y25591D02*
D03*
X8583Y23465D02*
D03*
X3858Y26220D02*
D03*
X7803Y27008D02*
D03*
X4134Y30157D02*
D03*
X4528Y29449D02*
D03*
X2244Y28661D02*
D03*
X10354Y28465D02*
D03*
Y29843D02*
D03*
X3483Y25217D02*
D03*
X6220Y28268D02*
D03*
Y28504D02*
D03*
Y28740D02*
D03*
X5945Y30118D02*
D03*
X3189Y27087D02*
D03*
X3543D02*
D03*
X4409D02*
D03*
X4724Y25591D02*
D03*
X3819Y28563D02*
D03*
X4409Y25315D02*
D03*
X4724Y25039D02*
D03*
X4094Y24970D02*
D03*
X6969Y24449D02*
D03*
X7126Y24134D02*
D03*
X5610Y24173D02*
D03*
X6142D02*
D03*
X7795Y27756D02*
D03*
X6102Y26496D02*
D03*
X2559Y27835D02*
D03*
X2441Y27480D02*
D03*
X2323Y28110D02*
D03*
X2874Y26811D02*
D03*
X9567Y24567D02*
D03*
X8957Y22303D02*
D03*
X4588Y22617D02*
D03*
X5906Y23071D02*
D03*
X6339Y30276D02*
D03*
Y30512D02*
D03*
Y30748D02*
D03*
X9567Y31929D02*
D03*
X7441D02*
D03*
X10354Y31063D02*
D03*
Y25236D02*
D03*
Y22047D02*
D03*
X6496Y21772D02*
D03*
X4685D02*
D03*
X315Y21811D02*
D03*
X276Y26496D02*
D03*
Y27992D02*
D03*
Y30236D02*
D03*
Y31299D02*
D03*
X984Y31929D02*
D03*
X5551Y27677D02*
D03*
X5079Y26181D02*
D03*
X2795Y25866D02*
D03*
X2992Y24961D02*
D03*
X2323Y24449D02*
D03*
X5945Y23543D02*
D03*
X6575Y24134D02*
D03*
X7913Y25236D02*
D03*
X4803Y26811D02*
D03*
X20984Y23268D02*
D03*
Y24252D02*
D03*
X18110Y25591D02*
D03*
X19213Y23465D02*
D03*
X14488Y26220D02*
D03*
X18433Y27008D02*
D03*
X14764Y30157D02*
D03*
X15157Y29449D02*
D03*
X12874Y28661D02*
D03*
X20984Y28465D02*
D03*
Y29843D02*
D03*
X14113Y25217D02*
D03*
X16850Y28268D02*
D03*
Y28504D02*
D03*
Y28740D02*
D03*
X16575Y30118D02*
D03*
X13819Y27087D02*
D03*
X14173D02*
D03*
X15039D02*
D03*
X15354Y25591D02*
D03*
X14449Y28563D02*
D03*
X15039Y25315D02*
D03*
X15354Y25039D02*
D03*
X14724Y24970D02*
D03*
X17598Y24449D02*
D03*
X17756Y24134D02*
D03*
X16240Y24173D02*
D03*
X16772D02*
D03*
X18425Y27756D02*
D03*
X16732Y26496D02*
D03*
X13189Y27835D02*
D03*
X13071Y27480D02*
D03*
X12953Y28110D02*
D03*
X13504Y26811D02*
D03*
X20197Y24567D02*
D03*
X19587Y22303D02*
D03*
X15217Y22617D02*
D03*
X16535Y23071D02*
D03*
X16968Y30276D02*
D03*
Y30512D02*
D03*
Y30748D02*
D03*
X20197Y31929D02*
D03*
X18071D02*
D03*
X20984Y31063D02*
D03*
Y25236D02*
D03*
Y22047D02*
D03*
X17126Y21772D02*
D03*
X15315D02*
D03*
X10945Y21811D02*
D03*
X10906Y26496D02*
D03*
Y27992D02*
D03*
Y30236D02*
D03*
Y31299D02*
D03*
X11614Y31929D02*
D03*
X16181Y27677D02*
D03*
X15709Y26181D02*
D03*
X13425Y25866D02*
D03*
X13622Y24961D02*
D03*
X12953Y24449D02*
D03*
X16575Y23543D02*
D03*
X17205Y24134D02*
D03*
X18543Y25236D02*
D03*
X15433Y26811D02*
D03*
X31614Y23268D02*
D03*
Y24252D02*
D03*
X28740Y25591D02*
D03*
X29843Y23465D02*
D03*
X25118Y26220D02*
D03*
X29063Y27008D02*
D03*
X25394Y30157D02*
D03*
X25787Y29449D02*
D03*
X23504Y28661D02*
D03*
X31614Y28465D02*
D03*
Y29843D02*
D03*
X24743Y25217D02*
D03*
X27480Y28268D02*
D03*
Y28504D02*
D03*
Y28740D02*
D03*
X27205Y30118D02*
D03*
X24449Y27087D02*
D03*
X24803D02*
D03*
X25669D02*
D03*
X25984Y25591D02*
D03*
X25079Y28563D02*
D03*
X25669Y25315D02*
D03*
X25984Y25039D02*
D03*
X25354Y24970D02*
D03*
X28228Y24449D02*
D03*
X28386Y24134D02*
D03*
X26870Y24173D02*
D03*
X27402D02*
D03*
X29055Y27756D02*
D03*
X27362Y26496D02*
D03*
X23819Y27835D02*
D03*
X23701Y27480D02*
D03*
X23583Y28110D02*
D03*
X24134Y26811D02*
D03*
X30827Y24567D02*
D03*
X30217Y22303D02*
D03*
X25847Y22617D02*
D03*
X27165Y23071D02*
D03*
X27598Y30276D02*
D03*
Y30512D02*
D03*
Y30748D02*
D03*
X30827Y31929D02*
D03*
X28701D02*
D03*
X31614Y31063D02*
D03*
Y25236D02*
D03*
Y22047D02*
D03*
X27756Y21772D02*
D03*
X25945D02*
D03*
X21575Y21811D02*
D03*
X21535Y26496D02*
D03*
Y27992D02*
D03*
Y30236D02*
D03*
Y31299D02*
D03*
X22244Y31929D02*
D03*
X26811Y27677D02*
D03*
X26339Y26181D02*
D03*
X24055Y25866D02*
D03*
X24252Y24961D02*
D03*
X23583Y24449D02*
D03*
X27205Y23543D02*
D03*
X27835Y24134D02*
D03*
X29173Y25236D02*
D03*
X26063Y26811D02*
D03*
M02*
